<svg xmlns="http://www.w3.org/2000/svg" viewBox="0 0 555.67 372.27"><defs><style>.cls-1{fill:#fff;stroke:#707070;stroke-linecap:round;stroke-linejoin:round;stroke-width:4px;}</style></defs><g id="Camada_2" data-name="Camada 2"><g id="Camada_1-2" data-name="Camada 1"><path class="cls-1" d="M499.2,325.89a5.41,5.41,0,0,0-5.85,2.09c-1,1.45-1.56,3.79-.42,5.44a4.1,4.1,0,0,0,2.51,1.67c.91.15,1.62-.15,1.67,0s-2.31.76-3.34,2.51a4.68,4.68,0,0,0,.42,5c1.23,1.62,3.54,2.39,5,1.67,1.94-1,2-4.25,2.51-4.18s-.37,3.65,1.26,5c1.9,1.6,6.94-.12,7.52-2.5.4-1.63-1.34-3.3-.83-3.77s1.67,1,3.34.84a4.47,4.47,0,0,0,3.34-3.34c.52-1.91-.19-4.24-1.67-5-1.95-1-4.77.89-5,.42s2.43-1.55,2.5-3.35c.07-1.54-1.8-2.83-2.92-3.34-2.22-1-5.32-.73-6.27.83-.73,1.2,0,2.74-.42,2.93S501.21,326.63,499.2,325.89Z"/><path class="cls-1" d="M526.32,346.75a3.82,3.82,0,0,0-4.16,1.49,3.5,3.5,0,0,0-.3,3.87,2.88,2.88,0,0,0,1.78,1.19c.65.11,1.15-.11,1.2,0s-1.65.54-2.39,1.79a3.34,3.34,0,0,0,.3,3.57,3.18,3.18,0,0,0,3.57,1.2c1.38-.68,1.44-3,1.79-3s-.27,2.6.9,3.57c1.35,1.13,4.94-.09,5.36-1.79.28-1.15-1-2.34-.6-2.68s1.19.74,2.38.6a3.2,3.2,0,0,0,2.39-2.38,3.27,3.27,0,0,0-1.19-3.58c-1.4-.73-3.4.63-3.58.3s1.73-1.1,1.79-2.38c0-1.1-1.29-2-2.09-2.39-1.58-.72-3.79-.51-4.46.6-.52.85,0,1.95-.3,2.09S527.76,347.28,526.32,346.75Z"/><path class="cls-1" d="M546.64,362.21a2.17,2.17,0,0,0-2.37.85,2,2,0,0,0-.17,2.2,1.59,1.59,0,0,0,1,.68c.37.06.66-.06.68,0s-.94.31-1.36,1a1.93,1.93,0,0,0,.17,2,1.82,1.82,0,0,0,2,.68c.79-.39.82-1.73,1-1.7s-.15,1.48.51,2,2.82-.06,3.05-1c.16-.66-.54-1.34-.34-1.53s.68.42,1.36.34a1.81,1.81,0,0,0,1.36-1.36,1.84,1.84,0,0,0-.68-2c-.79-.42-1.93.36-2,.16s1-.62,1-1.35-.73-1.15-1.19-1.36c-.9-.41-2.15-.3-2.54.34-.3.48,0,1.11-.17,1.19S547.46,362.51,546.64,362.21Z"/><path class="cls-1" d="M131,302.27c-.33,26.77,21.59,48.89,48.08,48.88,30.69,0,47.89-29.73,48-48,0-.46,0-.88,0-1.26"/><path class="cls-1" d="M227.08,301.85c0,.42,0,.84,0,1.26a48,48,0,1,0,96.07,0c0-.42,0-.84,0-1.26h0c0,.42,0,.84,0,1.26a48,48,0,0,0,96.08,0c0-.42,0-.84,0-1.26l-.36.07c.56,1.3,10.67,23.57,34.25,26.74,13.94,1.87,32.06-3,40.1-17.55,7.48-13.49,2.21-28,.84-31.74-6.22-17.1-21-24.39-24.23-25.9-1.21-.56,7.27,2.84,14.2,4.18,14.5,2.79,46.48-7.19,51.8-33.42,3.68-18.17-6.69-38-19.21-43.45-5.33-2.32-18.57-5.33-18.57-5.35h0c.73-.61,20.62,2,34.44-9.67,1-.86,18.14-15.87,15-37.6-3-21.2-23.3-34.79-39.27-35.92-14.44-1-28,6.93-28.4,5.85-.3-.74,6.81-2.76,11.69-7.52,11.86-11.57,14-42.73-5-59.32a42.34,42.34,0,0,0-45.95-5.85c-15.46,7.7-20.49,22.86-21.43,25.9,0-.42,0-.83,0-1.25a48,48,0,1,0-96.08,0c0,.42,0,.83,0,1.25l-.23.77c0-.42,0-.84,0-1.26a48,48,0,0,0-96.07,0c0,.42,0,.84,0,1.26h0c0-.42,0-.84,0-1.26a48,48,0,0,0-96.08,0c0,.42,0,.84,0,1.26-.94-3.05-6-18.2-21.43-25.9A42.35,42.35,0,0,0,63.36,32c-19,16.59-16.86,47.74-5,59.31,4.88,4.77,12,6.78,11.7,7.52-.44,1.08-14-6.87-28.41-5.85-16,1.13-36.24,14.73-39.27,35.93-3.1,21.73,14,36.74,15,37.59,13.82,11.71,33.71,9.06,34.44,9.68h0s-13.24,3-18.56,5.36C20.76,187,10.39,206.83,14.07,225c5.32,26.23,37.3,36.22,51.8,33.42,6.93-1.34,15.41-4.74,14.2-4.18-3.25,1.52-18,8.81-24.23,25.9-1.37,3.77-6.63,18.25.84,31.75,8.05,14.53,26.16,19.42,40.1,17.54,23.58-3.16,33.69-25.43,34.25-26.73"/></g></g></svg>