<svg xmlns="http://www.w3.org/2000/svg" viewBox="0 0 198.12 835.84"><defs><style>.cls-1{fill:#683b2d;}.cls-2{fill:#f4eaeb;}.cls-3{fill:#5e352a;}.cls-4{fill:#fff;}.cls-5{fill:#351406;}.cls-6{fill:#2f7734;}.cls-7{fill:#2d6d2f;}.cls-8{fill:#722419;}.cls-9{fill:none;stroke:#000;stroke-linecap:round;stroke-miterlimit:10;}</style></defs><g id="Camada_2" data-name="Camada 2"><g id="Pronto"><path d="M58,8.24C47.85,12.79,29,23.1,16.38,43.91,1.62,68.27,19,88.05,5.68,115.25c-2.16,4.4-8.39,15.82-3.82,23.75,2.52,4.38,9.49,17.52,10,19,.77,2.27-4.36,8.12-4,12,.19,2.11,4.83,3.24,16,10a6.16,6.16,0,0,1,3,3c1.33,3.68-3.71,6.09-4,11-.36,6,6.48,12.27,12,15,2,1,3.89,2.13,8,4,7.19,3.27,10.84,4.93,15,6,12.51,3.22,19.89-1.38,23,3,1.93,2.73-.51,5.13,1,7,5.13,6.39,32.58-22.78,61-18,2.65.45,18.59,2.58,25-1,4.58-2.56,4.9-4.24,11-8,8.34-5.08,12.23-5.32,15-11,4.9-10.22-.63-24.1-1-25-1.32-3.21-2.7-5.05-5-11a70.55,70.55,0,0,1-4-13c-2.22-12.07,10.68-17.73,7-28-2.43-6.77-7.34-8-7-13,.42-6.34,8.57-8.06,12-13,8.54-12.31-10-47.89-38-67.87C131.85,1.53,92.69-7.35,58,8.24Z"/><path class="cls-1" d="M57.11,789.39c1.94,7.4,3.32,15.64,1.84,21.15-1.69,6.31-6.29,6-6.38,8.77-.14,4,9.07,5.58,15.06,5.62,7.44.05,9.08-2.36,9.92-3.92,3.84-7.23,3.77-21.83,3.79-27.35,0-1.19,0-2.39,0-3.58"/><path class="cls-1" d="M142.32,788.63c-1.95,7.41-3.33,15.65-1.85,21.16,1.69,6.31,6.29,6,6.39,8.77.13,4-9.07,5.58-15.06,5.62-7.44.05-9.09-2.36-9.92-3.93-3.84-7.23-3.77-21.82-3.79-27.34,0-1.19,0-2.39,0-3.59"/><path class="cls-2" d="M118.05,789.32c-12.78-8.37-4.26-28.39-8.11-87.86-1.84-28.4-3.91-45.55-3.91-45.55-2-18.5-3.16-23.71-4.55-50.47-1.9-36.54-.32-39-2.38-91.84-2.15-54.91-4-55.39-2.75-68.82,5.24-57.72,43.16-94,57.13-68.28,4.38,8.09,5.32,20.3,6.9,73.13,2.55,85.21,3.82,127.82,2.9,156.2-7.85,240.78-15.39,178-21,182.8C136.51,793.68,125.08,793.93,118.05,789.32Z"/><path class="cls-2" d="M81.37,790.08c12.78-8.38,4.26-28.4,8.11-87.86,1.84-28.41,3.92-45.56,3.92-45.56,2-18.5,3.15-23.71,4.54-50.47,1.91-36.54.33-39,2.39-91.84,2.14-54.91,4-55.39,2.75-68.81C97.83,387.81,59.91,351.49,46,377.25c-4.39,8.09-5.32,20.31-6.9,73.13-2.55,85.21-3.83,127.82-2.9,156.21,7.85,240.77,15.38,178,21,182.8C62.92,794.43,74.35,794.68,81.37,790.08Z"/><path class="cls-3" d="M80.59,167.7c-4.62,6.69,2.08,13.5,0,35.67-.55,5.87-1.59,11.46-5.44,16.52-2.89,3.8-6.55,6.1-9.13,7.88-12.6,8.7-13.81,7.67-17.54,12.46-5.69,7.3-5.85,16.77-5.94,22.59a46.89,46.89,0,0,0,1.19,11.89c1.2,5.14,2.62,7.15,4.75,14.27,0,0,1.23,4.1,2.38,9.51a98,98,0,0,1,1.19,33.29C48.37,353.25,36.33,358.79,39,377c.21,1.47.65,3.19,1.51,6.63,2.75,10.91,7,27.46,12.52,33.71,17.49,19.77,61.36,23,84.74,3.85,14.36-11.76,20.13-28.73,20.13-28.73a44.93,44.93,0,0,0,2.38-9.51c2.24-18-9.91-24.89-14.27-45.18-3.27-15.25-.11-28.71,1.19-34.48,3.85-17.12,8.94-17.84,9.83-30.4.26-3.66,1.95-21.55-8.64-32.62-1.33-1.39-5.24-3.7-13.08-8.32-10.93-6.46-14.47-7.44-17.83-11.9-2.3-3-3.7-6.6-4.76-14.26-3.38-24.36,4.38-33.89-1.19-40.43C105.25,158,86.38,159.3,80.59,167.7Z"/><path class="cls-1" d="M46.16,234.17c1.16.13.76,3.29,1.68,9.51,2.26,15.41,8.64,22.74,11.76,30.46,3.53,8.73.65,20.41-5.11,43.76-7.7,31.17-11.55,46.76-23.35,60.28-5.7,6.52-13.37,13.15-12.85,21.67.36,5.77,4.2,7.93,5.71,17.89,1.09,7.14-.78,6.71.32,12.75,1.84,10,7.19,12.18,7.73,22.08.19,3.49.41,7.33-1.7,8.56C26.11,463.6,14,454.49,7.44,443.78-2,428.44,1,411.5,1.76,407.82c1.57-7.86,3.52-8.3,5.75-18.26a87.36,87.36,0,0,0,1.72-26.64C8.43,350,12.66,334.36,21.12,303,28.64,275.1,41.91,233.68,46.16,234.17Z"/><path class="cls-1" d="M152.68,234c-1.16.13-.76,3.29-1.67,9.51-2.26,15.41-8.65,22.74-11.77,30.46-3.53,8.73-.65,20.4,5.12,43.75,7.69,31.18,11.54,46.77,23.35,60.28,5.7,6.53,13.37,13.15,12.84,21.67-.35,5.78-4.2,7.93-5.71,17.9-1.08,7.14.79,6.71-.32,12.74-1.84,10-7.18,12.19-7.73,22.09-.19,3.49-.4,7.33,1.7,8.55,4.24,2.48,16.34-6.63,22.91-17.34,9.41-15.34,6.43-32.28,5.69-36-1.58-7.86-3.53-8.29-5.76-18.26a87.63,87.63,0,0,1-1.72-26.63c.8-12.89-3.43-28.57-11.88-59.91C170.2,274.91,156.94,233.49,152.68,234Z"/><path class="cls-1" d="M178.88,412c-.07-2,.4-2.73,0-3-1.4-1-9.74,5.66-12,15-.58,2.4-1.22,5,0,6,2.84,2.22,14.69-5.5,14-11C180.65,417.1,179,415.64,178.88,412Z"/><path class="cls-1" d="M17.85,412.31c.07-2-.4-2.72,0-3,1.41-1,9.75,5.67,12,15,.58,2.41,1.22,5.05,0,6-2.83,2.23-14.69-5.5-14-11C16.09,417.46,17.73,416,17.85,412.31Z"/><path class="cls-1" d="M157.28,39.75c18.92,29.11,8.27,63.57,1.19,86.79-5.31,17.41-12.13,27.65-14.87,31.51-7.45,10.53-22.44,31.29-44.58,32.7-31,2-52.61-35.5-56.48-42.21a81,81,0,0,1-8.33-21.4A69.42,69.42,0,0,1,33,118.82c-3.39-40.51-5.28-63.15,7.13-82C51.9,18.89,75.09,6.39,99.61,7.05,125.55,7.75,146.39,23,157.28,39.75Z"/><path class="cls-3" d="M83.73,137.83c-1.48-2.48,4.61-11.79,13-12.69,8.86-1,17,7.91,16,10.55-.57,1.41-3.52.47-12.85,1.07C88.36,137.5,84.69,139.43,83.73,137.83Z"/><path class="cls-1" d="M160.2,101.38c2.38-3.41,4.36-4.45,5.85-4.88,4.15-1.21,8.47,1.06,10.88,3.51,3.76,3.8,3.69,8.85,3.66,11.52a19,19,0,0,1-5.17,13.25,17.35,17.35,0,0,1-10.94,5.15c-2.25.16-4.5.31-6.41-.94C152,125.06,154.05,110.19,160.2,101.38Z"/><path class="cls-1" d="M36.13,101.63C33.93,98.1,32,97,30.53,96.44c-4.08-1.42-8.51.62-11,2.93-3.95,3.61-4.15,8.65-4.26,11.32a19,19,0,0,0,4.46,13.51,17.38,17.38,0,0,0,10.65,5.72c2.24.27,4.48.54,6.46-.6C43.05,125.71,41.8,110.76,36.13,101.63Z"/><path class="cls-4" d="M110.32,104.05a16.63,16.63,0,0,1,2.07-8.27,17.7,17.7,0,0,1,11.22-8.23,18,18,0,0,1,11.28,1.13,18.59,18.59,0,0,1,10.16,12.41,19.26,19.26,0,0,1,.41,6.06c-.18,2.06-.42,5.15-2.07,7.24-2.25,2.86-6.34,2.82-13.91,2.64-8.72-.2-13.08-.31-16-3.53S110.34,105.5,110.32,104.05Z"/><path class="cls-5" d="M121.08,94.21a11.55,11.55,0,0,1,9-1.13,12.53,12.53,0,0,1,5.65,3.39,13.16,13.16,0,0,1,3.38,6.77,10.78,10.78,0,0,1-1.13,7.89c-2.42,3.82-6.86,4.39-7.9,4.52a12.12,12.12,0,0,1-6.77-1.13,12.6,12.6,0,0,1-5.64-5.64,11.58,11.58,0,0,1-1.13-9A10.73,10.73,0,0,1,121.08,94.21Z"/><path d="M124,100.72a5.76,5.76,0,0,1,4.5-.57,6.27,6.27,0,0,1,2.81,1.69,6.54,6.54,0,0,1,1.69,3.37,4.84,4.84,0,0,1-4.5,6.19,6,6,0,0,1-3.38-.56,6.28,6.28,0,0,1-2.81-2.81,5.76,5.76,0,0,1-.56-4.5A5.28,5.28,0,0,1,124,100.72Z"/><path class="cls-4" d="M123.73,106.8a1.82,1.82,0,0,0-2.1,1.74,1.68,1.68,0,0,0,1.46,1.46,1.81,1.81,0,0,0,1.92-1.88A1.64,1.64,0,0,0,123.73,106.8Z"/><path d="M109.68,106.41c-.62-.11-.68-3.65.08-6.71a16.84,16.84,0,0,1,3.1-6.21,21.25,21.25,0,0,1,7.23-6.2,16.62,16.62,0,0,1,9.31-2.06c2.66.24,4.87,1.56,9.3,4.13a69.38,69.38,0,0,0,9,4.85,9.91,9.91,0,0,0,4.57.91c2.19-.14,3.56-1.08,3.65-.91s-2.25,2.29-5.48,2.74c-2.11.29-3.59-.25-3.65,0s2.15,1.58,4.75,1.71c3.77.2,6.21-2.09,6.4-1.82.36.53-8.13,9.46-12.79,7.3-2-.91-1.4-2.94-3.65-6.39-.28-.42-5.28-7.85-13.7-8.22A17,17,0,0,0,116,94.1C110.65,99.18,110.59,106.58,109.68,106.41Z"/><path class="cls-4" d="M132.62,99.31a3.29,3.29,0,0,0-3.79,3.16,3,3,0,0,0,2.63,2.63,3.25,3.25,0,0,0,3.48-3.39A2.94,2.94,0,0,0,132.62,99.31Z"/><path class="cls-4" d="M84.3,105.3A16.48,16.48,0,0,0,82.24,97,17.7,17.7,0,0,0,71,88.8a18,18,0,0,0-11.29,1.13,18.6,18.6,0,0,0-10.15,12.41,19.46,19.46,0,0,0-.42,6.06c.18,2.06.43,5.15,2.07,7.24,2.26,2.86,6.34,2.82,13.92,2.65,8.72-.21,13.08-.32,16-3.54S84.28,106.75,84.3,105.3Z"/><path class="cls-5" d="M73.55,95.46a11.57,11.57,0,0,0-9-1.13,12.47,12.47,0,0,0-5.64,3.39,13.06,13.06,0,0,0-3.39,6.77,10.86,10.86,0,0,0,1.13,7.9c2.43,3.81,6.86,4.38,7.9,4.51a12.1,12.1,0,0,0,6.77-1.13,12.54,12.54,0,0,0,5.64-5.64,11.53,11.53,0,0,0,1.13-9A10.73,10.73,0,0,0,73.55,95.46Z"/><path d="M70.65,102a5.8,5.8,0,0,0-4.5-.57,6.33,6.33,0,0,0-2.82,1.69,6.63,6.63,0,0,0-1.68,3.38,4.84,4.84,0,0,0,4.5,6.18,6,6,0,0,0,3.37-.56,6.23,6.23,0,0,0,2.81-2.81,5.8,5.8,0,0,0,.57-4.5A5.37,5.37,0,0,0,70.65,102Z"/><path class="cls-4" d="M61.77,108.05a1.82,1.82,0,0,0-2.1,1.75,1.67,1.67,0,0,0,1.46,1.45A1.79,1.79,0,0,0,63,109.37,1.62,1.62,0,0,0,61.77,108.05Z"/><path d="M84.94,107.66c.62-.11.68-3.65-.07-6.71a16.7,16.7,0,0,0-3.1-6.2,21.19,21.19,0,0,0-7.24-6.21,16.6,16.6,0,0,0-9.3-2.06c-2.66.24-4.87,1.56-9.3,4.13a70.72,70.72,0,0,1-9,4.85,9.94,9.94,0,0,1-4.57.91c-2.19-.13-3.57-1.08-3.65-.91s2.24,2.29,5.48,2.74c2.11.29,3.58-.25,3.65,0S45.65,99.78,43,99.91c-3.77.2-6.2-2.09-6.39-1.82-.37.53,8.13,9.46,12.78,7.3,2-.91,1.41-2.94,3.66-6.39.27-.42,5.28-7.85,13.69-8.22a17,17,0,0,1,11.87,4.57C84,100.43,84,107.83,84.94,107.66Z"/><path class="cls-4" d="M70.66,100.56a3.29,3.29,0,0,0-3.79,3.16,3,3,0,0,0,2.63,2.63A3.25,3.25,0,0,0,73,103,3,3,0,0,0,70.66,100.56Z"/><path d="M50.86,15c-3.59,6.15-2.6,14.31-2,21,.7,7.86,2,22.57,10,26,10.63,4.57,23.49-15,34-10,6.67,3.16,3.93,12.21,11,16,9.46,5.07,18.54-8.91,33-6,11.83,2.38,20.11,14.65,23,24,2.33,7.57,1.47,14.3,1,18-1.57,12.21-6.44,14.33-7,24-.7,12,6,22.43,8,22,2.29-.49-3.51-14.62,4-28,4-7.09,8.24-7.82,10-15,1.8-7.36-2.07-9.13-1-17,1.47-10.87,9.61-13,10-21s-7.18-14-13-19c-33.71-28.75-25.93-34.6-43-42C100.72-4.2,61.29-2.89,50.86,15Z"/><path d="M57.86,34c.49,10.84.73,16.25-1,20-3.6,7.78-9.45,5.36-15,13-7.6,10.45-.47,20.22-8,28-4.79,4.94-13.58,7.12-18,4-7-4.94-2.15-22.57,1-34,2-7.33,3.9-14.18,9-22,9.07-13.92,24.74-25.42,30-22C57.28,21.93,57.49,26,57.86,34Z"/><path d="M114.08,81.58c-2.22-1.44-4.38-4.2-3.76-6.26s3.92-1.95,12.51-3.75c10.33-2.16,11.82-3.66,16.77-2.91a26.86,26.86,0,0,1,8.26,2.91c5.41,2.61,13.56,7.91,12.74,10.09-1,2.58-12.55-4.57-29-1.33C124.32,81.76,118.87,84.69,114.08,81.58Z"/><path d="M84.79,81.58c2.22-1.44,4.38-4.2,3.76-6.26S84.62,73.37,76,71.57c-10.32-2.16-11.81-3.66-16.76-2.91A26.86,26.86,0,0,0,51,71.57c-5.41,2.61-13.56,7.91-12.74,10.09,1,2.58,12.55-4.57,29-1.33C74.55,81.76,80,84.69,84.79,81.58Z"/><path d="M144.86,798c-3.68-1.78-9.24,9.91-16,9-7.48-1-13-17-13-17l0,.07c-.82,4.53-2.1,11.6-2.36,13.11-1.37,7.85-.25,8.07-1.62,16.82-1.35,8.58-3,12.23-1,14,1.44,1.27,4.19,1.06,6,0,3.89-2.3,2.58-8.13,5-9,2.71-1,5.47,6,11,9,11.29,6.24,32.1-4.8,31.75-11.8-.3-5.78-15.05-6.63-17.84-17.83C146,801.27,146.46,798.78,144.86,798Z"/><path class="cls-2" d="M70.46,218.48c-2.94,2.19-4.88,4.51-10.7,8.33-10.27,6.73-10.91,7.18-13.08,9.51-5.11,5.48-5.49,13-4.76,29.72.93,21.07-1.11-2.71,2.38,33.3,2.53,26.08,3,26.46,2.38,30.91-1.76,13.54-6.28,14.54-9.51,32.1-2.12,11.47-.32,10.67-2.38,23.78-3.57,22.76-10,29.28-5.95,38.05,2.06,4.49,6.09,7.9,15.46,11.89,10.6,4.52,32.32,11.6,97.5,1.19,16.63-2.65,24-4.52,27.35-10.7,4.33-8.08-4-13.05-6-38.05-.4-5-.8-14-4.75-25-.93-2.56-1.08-2.56-2.38-5.94a143.39,143.39,0,0,1-7.14-25c-1.72-9.83.89-11.08,4.76-40.43,0,0,1.46-11.07,2.38-27.34,1.07-19.08.14-24.4-3.57-27.35-2.68-2.13-5-2.49-14.27-7.14-8-4-8.31-8.37-14.26-13.08C109.62,206,83.22,209,70.46,218.48Z"/><path class="cls-6" d="M22.08,401.32c2.09-2.39.75-4.58,3.06-9.9,2.14-5,5.34-7.65,7.13-9.51,4.8-5,7.16-11.26,11.89-23.78,10.5-27.81,14.05-57.54,14.27-59.45,2.56-22.37,1.23-35.11,0-42.81s-4-25.32-10.7-26.16c-4.28-.53-8.48,5.93-11.89,11.89C17.77,273.18,7.57,315.88,7.3,346.24c-.07,8.33-.84,16.64-1.19,25-.57,13.58-.54,15.65-2.38,19l0,.06c-2.52,4.62-3.88,7.11-3.68,8.5C.63,403,16.89,407.27,22.08,401.32Z"/><path class="cls-6" d="M175.32,401.74c-2.1-2.4-.75-4.59-3.06-9.91-2.15-4.95-5.34-7.65-7.13-9.51-4.8-5-7.17-11.25-11.89-23.78C142.74,330.73,139.19,301,139,299.09c-2.56-22.36-1.23-35.11,0-42.8s4-25.33,10.7-26.16c4.27-.54,8.48,5.93,11.89,11.89,18.07,31.57,28.27,74.27,28.53,104.63.08,8.33.84,16.65,1.19,25,.58,13.59.55,15.65,2.38,19l0,.06c2.53,4.63,3.89,7.12,3.69,8.51C196.76,403.4,180.51,407.69,175.32,401.74Z"/><path class="cls-6" d="M158.37,248.27c.24-2.38.94-9.72-3.51-15.27a18,18,0,0,0-7-5c-19.3-9.27-24.69-15.47-28-13-1.83,1.37-1.31,4.1-1,11,.37,8.42-.71,16.85-.49,25.27.33,12.51-.6,44-7.51,71.73-4.62,18.54-7,15.67-16,42-9.49,27.72-24.28,71-10,82,4.33,3.35,6.15,1.6,32.51-2.73,47.48-7.8,51.26-10.3,53-13,11.21-17.44-7.42-30.3-11-74C156.14,317.85,157.81,253.67,158.37,248.27Z"/><path class="cls-6" d="M41.41,248.38c-.26-2.49-1.17-10.25,3.45-16.38a18.82,18.82,0,0,1,6-5c16.23-9.68,25.26-15.06,29.06-11.89,1.82,1.52,1.31,4.06,1,11-.37,8.42.73,16.85.49,25.27-.85,29.69-1.28,47,4.45,64.62,2.59,8,12.39,34.26,37,50,17.31,11.08,27.13,7.45,32,17,8.13,16-8.84,46.57-33,58-5.49,2.6-16.81,3-39.45,3.38-31,.47-44.09-2.95-52.46-12.28a4.83,4.83,0,0,1-.54-.72c-11.21-17.44,7.42-30.3,11-74C40.41,357.38,48.46,317.64,41.41,248.38Z"/><path class="cls-7" d="M141.85,232.55c.58,5.58-1.91,10-3,12-.31.58-4.49,17.07-13,50-4.85,18.8-4.74,18.93-6,22.45-5.7,16-14.62,31.88-17,31-1.89-.7,1.57-11.42,6-36,3.33-18.52,6-33.58,7-51,1.78-32.84-4.22-46.44,2-49.45C124.6,208.28,140.56,220,141.85,232.55Z"/><path class="cls-7" d="M61.68,232.73c-.57,5.57,1.92,10,3,12,.32.58,4.5,17.07,13,50,4.86,18.8,4.75,18.93,6,22.45,5.7,16,14.61,31.88,17,31,1.89-.7-1.57-11.42-6-36-3.34-18.52-6.05-33.58-7-51-1.79-32.84,4.21-46.44-2-49.45C78.93,208.46,63,220.21,61.68,232.73Z"/><circle class="cls-2" cx="102.36" cy="362.5" r="3.5"/><circle class="cls-2" cx="102.36" cy="389.5" r="3.5"/><circle class="cls-2" cx="102.36" cy="416.5" r="3.5"/><path d="M55.42,797.33c3.68-1.79,9.24,9.91,16,9,7.48-1,13-17,13-17v.06c.83,4.54,2.1,11.6,2.37,13.12,1.37,7.84.25,8.07,1.62,16.82,1.34,8.58,3,12.22,1,14-1.45,1.26-4.2,1.06-6,0-3.9-2.3-2.58-8.14-5-9-2.71-1-5.47,5.94-11,9-11.3,6.24-32.1-4.81-31.75-11.8.29-5.79,15-6.63,17.84-17.83C54.28,800.6,53.82,798.1,55.42,797.33Z"/><path class="cls-8" d="M85.75,155c0-3,2.7-5.69,5.24-6.7a4.88,4.88,0,0,1,3.75-.32c1.79.79,1.89,3,3,3s1.47-2.32,3-3c2.75-1.23,9.11,3,9,7-.06,4.44-8,8.72-14.65,7.66C91,162,85.81,159,85.75,155Z"/><path class="cls-9" d="M82.25,149.9a22.93,22.93,0,0,0,5.24,3.49,23.51,23.51,0,0,0,15.27,1.67c3.78-1,6.89-2.91,10.48-5.16,1.1-.7,2-1.31,2.62-1.75"/></g></g></svg>