<svg xmlns="http://www.w3.org/2000/svg" viewBox="0 0 536 329.5"><defs><style>.cls-1,.cls-2{fill:#fff;}.cls-1{stroke:#757575;stroke-linecap:round;stroke-linejoin:round;stroke-width:4px;stroke-dasharray:9;}</style></defs><g id="Camada_2" data-name="Camada 2"><g id="Camada_1-2" data-name="Camada 1"><path class="cls-1" d="M455.21,297.49l.4.25c3.17,2,7.19,4.48,12.27,7.6,16.2,10,28.77,17.84,35.62,22.16a417.84,417.84,0,0,0-7.91-54.61c-.56-2.6-1.07-4.84-1.56-6.77l.33-.08.63-.71A158.4,158.4,0,0,0,534,161h0A159,159,0,0,0,375,2H161A159,159,0,0,0,2,161H2A159,159,0,0,0,161,320H375a158.58,158.58,0,0,0,119.36-54"/><path class="cls-2" d="M467.69,285.74a7.1,7.1,0,0,0,3.4,7.3,1.52,1.52,0,0,0,2.2-.9,9.65,9.65,0,0,0-.79-7.53,1.52,1.52,0,0,0-2.74.36,10.32,10.32,0,0,0-.51,5.28c.25,1.57.86,3.57,2.47,4.24s3-.59,3.3-2.17a5.54,5.54,0,0,0-1.4-4.78,1.47,1.47,0,0,0-1.46-.39,5.8,5.8,0,0,0-3.77,5A1.51,1.51,0,0,0,471,293.2a5.72,5.72,0,0,0,1.62-4.12,3.47,3.47,0,0,0-2.32-2.91,2.83,2.83,0,0,0-3.35,1.22,4.73,4.73,0,0,0,0,3.78,1.52,1.52,0,0,0,2.74.36,4.12,4.12,0,0,0-1.52-6,1.53,1.53,0,0,0-1.81.23,3.19,3.19,0,0,0-.36,3.77,5.76,5.76,0,0,0,3.37,2.25c3,1,6.43.87,8.92-1.14,1.9-1.53,3.67-4.89,2.23-7.27-1.86-3.06-6.15,1.53-7.5,3.05a1.52,1.52,0,0,0,.67,2.51,2.78,2.78,0,0,0,2.62-4.64c-2.09-2.11-4.91-.56-6.3,1.46a1.44,1.44,0,0,0,0,1.51c1.8,2.33,5.24-.06,6-2.22s-1.36-5.32-3.9-4.22-1.72,4.71.65,5.38c3.09.86,4.77-2.35,5-4.87.16-2-2.77-1.87-3,0a7.45,7.45,0,0,0,.12,2.4,1.51,1.51,0,0,0,2.2.89,4.28,4.28,0,0,0,2-3.43l-2.95.4a2.56,2.56,0,0,0,4.33.82,9.68,9.68,0,0,0,2.3-5.76h-3a11,11,0,0,0,2.23,6.78,1.53,1.53,0,0,0,2.75-.36,18.1,18.1,0,0,0,.47-9.57,1.51,1.51,0,0,0-2.89,0,8.5,8.5,0,0,0,.36,5.13,1.52,1.52,0,0,0,2.74.36,10.34,10.34,0,0,0,2-7.19,1.52,1.52,0,0,0-1.3-1.48,1.49,1.49,0,0,0-1.65,1.08,12.13,12.13,0,0,0,.56,6.09,1.51,1.51,0,0,0,2.89,0,14.82,14.82,0,0,0,.57-6.93c-.24-1.68-3-1.28-3,.39a12.17,12.17,0,0,0,1.13,4.64c.59,1.29,2.34.72,2.74-.36a18.14,18.14,0,0,0,1-4.71h-3a7.38,7.38,0,0,0,.74,3.3c.51,1.11,2.57.91,2.74-.35a13.54,13.54,0,0,0,.12-3.18l-2.8.76a7,7,0,0,1,.51,3.95c-.3,1.89,2.59,2.7,2.9.8a10.73,10.73,0,0,0-.82-6.27c-.59-1.34-2.93-.68-2.79.76a10.52,10.52,0,0,1,0,2.38l2.74-.36a4,4,0,0,1-.33-1.79c0-2-2.82-1.89-3,0a15.48,15.48,0,0,1-.93,3.91l2.74-.35a8.46,8.46,0,0,1-.72-3.13l-2.95.4a11.52,11.52,0,0,1-.56,5.34h2.89a8.94,8.94,0,0,1-.55-4.49l-3-.4a7.85,7.85,0,0,1-1.58,5.67l2.74.36a5.79,5.79,0,0,1-.36-3.53h-2.89a14.91,14.91,0,0,1-.48,8l2.74-.36a8.32,8.32,0,0,1-1.82-5.26c0-2-2.8-1.88-3,0a8.09,8.09,0,0,1-.62,2.3,8.28,8.28,0,0,0-.57,1.05l-.13.18c-.36.28-.16.48.59.61a1.51,1.51,0,0,0-2.95.4,1.09,1.09,0,0,1-.54.84l2.2.9a5.05,5.05,0,0,1,0-1.6h-3a2.55,2.55,0,0,1-.63,1.77c-.35.28-.54.12-.82.37-.64.55.08-.2-.06.32a1.31,1.31,0,0,1-.17.49,2.52,2.52,0,0,1-.68.62c-.16.11-.6.32-.55.34l.89.69-.14-.18v1.51a2.05,2.05,0,0,1,1.24-1c.09,0,.32.13.35.11s-.23-.48.29-.35l.66,2.5a19,19,0,0,1,1.92-1.89c.29-.24.6-.48.92-.7a5.49,5.49,0,0,0,1-.63c-.76-.56-1.08-.57-1,0v.32a3.92,3.92,0,0,1-.26,1,4.3,4.3,0,0,1-1.27,1.66,5.89,5.89,0,0,1-4.54,1,8.9,8.9,0,0,1-2.27-.63c-.21-.08-1.25-.68-1.14-.81l-1.82.24A1.16,1.16,0,0,1,467,290l2.74.36c-.12-.37-.16-.76-.27-1.12a.53.53,0,0,1,0-.35c-.15,0-.21.06-.16.13.19.35.32.25.22.75a3.29,3.29,0,0,1-.73,1.3l2.56,1.06a2.62,2.62,0,0,1,1.56-2.09l-1.46-.39a2.42,2.42,0,0,1,.62,1.89,1.52,1.52,0,0,1-.1.47c.85,0,1.1-.13.75-.47a6,6,0,0,0-.38-1,7.63,7.63,0,0,1,.27-4.81l-2.74.36a6.59,6.59,0,0,1,.49,5.23l2.2-.9a4,4,0,0,1-2-3.92,1.54,1.54,0,0,0-1-1.84,1.51,1.51,0,0,0-1.85,1.05Z"/><path class="cls-2" d="M461.81,295.77,459,293a1.54,1.54,0,0,0-1.06-.44,1.5,1.5,0,0,0-1.5,1.5,1.56,1.56,0,0,0,.44,1.06l2.82,2.82a1.56,1.56,0,0,0,1.06.44,1.5,1.5,0,0,0,1.06-.44,1.46,1.46,0,0,0,.44-1.06,1.52,1.52,0,0,0-.44-1.06Z"/><path class="cls-2" d="M458.52,294c.39.55.8,1.1,1.22,1.63l.51.65.28.34a1.61,1.61,0,0,0,1,.58,1.57,1.57,0,0,0,1.57-.78,2.05,2.05,0,0,0,.28-1,4.88,4.88,0,0,0-.1-1.08,11.93,11.93,0,0,0-.35-1.68l-2.74,1.16a8.07,8.07,0,0,0,1.45,1.84,1.56,1.56,0,0,0,1.06.44,1.5,1.5,0,0,0,1.5-1.5,1.56,1.56,0,0,0-.44-1.06,6.57,6.57,0,0,1-.71-.78l.23.3a6.65,6.65,0,0,1-.5-.76,1.5,1.5,0,0,0-2.74,1.16,13.53,13.53,0,0,1,.35,1.68l-.06-.4a2.57,2.57,0,0,1,0,.68l.06-.4a.75.75,0,0,1,0,.16l.15-.36-.06.11.23-.31,0,0,.66-.39h.74l.66.38c-.17-.17-.32-.38-.48-.57l-.47-.61.23.3c-.33-.42-.64-.85-.95-1.28a1.59,1.59,0,0,0-.9-.69,1.49,1.49,0,0,0-1.15.15,1.43,1.43,0,0,0-.69.89,1.47,1.47,0,0,0,.15,1.16Z"/><path class="cls-2" d="M465.44,294.42a1.32,1.32,0,0,0-.06-.49v0l-.15-.36h0l0,0,0,0a3.92,3.92,0,0,0-.25-.32l0,0-.19-.14-.19-.15-.1-.05a3.57,3.57,0,0,0-.45-.19l-.23-.08.36.15a.53.53,0,0,1-.15-.08l.3.23,0,0a1,1,0,0,0-.48-.31,1.15,1.15,0,0,0-.58-.13,1.72,1.72,0,0,0-1.06.44l-.23.3a1.48,1.48,0,0,0-.21.76l.06.4a1.57,1.57,0,0,0,.38.66l0,0,.32.25.07,0a3.9,3.9,0,0,0,.47.2l.28.1-.36-.15.15.08-.31-.24.08.08-.23-.3a.56.56,0,0,1,.05.08l-.16-.36a.14.14,0,0,1,0,.07l-.05-.4v.05a1.72,1.72,0,0,0,.44,1.06,1.24,1.24,0,0,0,.48.31,1.27,1.27,0,0,0,.58.13l.4-.06a1.57,1.57,0,0,0,.66-.38l.24-.31a1.5,1.5,0,0,0,.2-.75Z"/><path class="cls-2" d="M456.2,295.34a4.56,4.56,0,0,1,.52.18l-.36-.15a13.77,13.77,0,0,1,2,1.15l2,1.29a1.51,1.51,0,0,0,2.05-.54,1.53,1.53,0,0,0-.54-2l-2.31-1.48a9.81,9.81,0,0,0-2.54-1.29,1.5,1.5,0,1,0-.8,2.89Z"/><path class="cls-2" d="M456,295.66c.74.39,1.43.86,2.13,1.32a14.28,14.28,0,0,0,2.47,1.32,1.47,1.47,0,0,0,1.16-.15,1.53,1.53,0,0,0,.69-.89,1.56,1.56,0,0,0-.15-1.16l-.24-.3a1.49,1.49,0,0,0-.66-.39l-.14-.06.36.16c-1.47-.64-2.69-1.7-4.11-2.44a1.5,1.5,0,0,0-1.51,2.59Z"/></g></g></svg>