<svg xmlns="http://www.w3.org/2000/svg" viewBox="0 0 180.49 427"><defs><style>.cls-1{fill:#050100;}.cls-2{fill:#d28f63;}.cls-12,.cls-3,.cls-7{fill:none;stroke-linecap:round;stroke-miterlimit:10;}.cls-3{stroke:#050100;}.cls-4{fill:#c68561;}.cls-5{fill:#14223c;}.cls-6{fill:#ce733e;}.cls-7{stroke:#000;}.cls-8{fill:#fff;}.cls-9{fill:#60270a;}.cls-10{fill:#fce5bc;}.cls-11{fill:#efd7af;}.cls-12{stroke:#efd7af;}</style></defs><g id="Camada_2" data-name="Camada 2"><g id="Pronto"><path class="cls-1" d="M106.8,425.61c0,.4.67.78.92.92,3.12,1.66,21.54-1.43,21.18-3.69-.1-.64-1.89-.9-2.76-.92-1.67,0-2.54.72-5.53,1.84a19.6,19.6,0,0,1-2.76.92c-3.6.76-5.39-.82-9.21,0C106.93,425.05,106.81,425.47,106.8,425.61Z"/><path class="cls-2" d="M42.22,294.79c-1,.93-3,3.35-1.34,21.49a230.8,230.8,0,0,0,4.7,30.23c8.58,38.41,13,57.74,19.48,63.81,1.36,1.27,8.25,7.48,6.71,10.75-.87,1.87-4.09,1.86-4,2.68.1,1.16,6.58,1.45,10.75,1.35,5.18-.14,6.21-.87,6.72-1.35,2.33-2.19,1.59-6.45,1.34-8.06-1.36-8.86,1.25-17.9,1.35-26.87.2-18.94,1.79-16.23,1.34-28.21-.41-10.71-1.62-11.39-2.69-26.87-1.11-16.07.14-16.25-1.34-20.15C78.83,296.84,50.72,287,42.22,294.79Z"/><path class="cls-2" d="M126.94,290.37c1,.64,3.7,2.71,5.41,20.85a212.09,212.09,0,0,1,.55,31.26c-2.26,51.73-.77,57.92-6.35,65.66-1.11,1.54-6.67,8.92-4.54,11.83,1.22,1.68,4.37,1.06,4.46,1.87.13,1.16-6.17,2.68-10.29,3.37-5.11.86-6.26.33-6.85,0-2.71-1.7-2.79-6-2.86-7.65-.35-9-4.63-17.34-6.44-26.12-3.81-18.56-4.86-15.59-6.7-27.44-1.64-10.59-.58-11.49-2.48-26.89-2-16-3.24-15.93-2.53-20C91.39,299.37,117.11,284.34,126.94,290.37Z"/><path class="cls-3" d="M125.93,422.62c-.06-.13-1.9-.63-2.71-1.81"/><path class="cls-3" d="M125.68,422.78a10.19,10.19,0,0,0-3.86-.2,10.75,10.75,0,0,0-6.07,3.21"/><path class="cls-3" d="M68.27,424.53c0-.13,1.75-1,2.32-2.28"/><path class="cls-4" d="M83.87,164.48c1.14,10.13,0,12.09,0,12.09-2.24,3.34-6.15,2.39-9.41,5.37-4.37,4-3.21,10.72-3.36,16.79C71,203.81,67.44,212,60.36,228.29c-6.56,15.11-11,22.3-14.78,36.27-.69,2.55-1.15,4.49-1.34,5.37-2,8.72-3.72,16.56-2.69,25.53.48,4.18,2.18,19,12.76,24.85a13.72,13.72,0,0,0,2.29,1.06c4.29,1.54,11.11,1.33,36.67-1.06,11.33-1.06,13.19-1.32,16.12-2.69,11.6-5.41,16.29-17.19,17.46-20.15,4.15-10.41,2.9-19.52,1.35-30.9-1-7.36-1.83-7.51-6.72-25.52-6.83-25.15-10.24-37.73-9.4-43,.71-4.47,2.71-12.4-1.35-16.12-2.34-2.15-5.07-1.39-6.71-4s.27-4.62,0-10.75c-.18-3.86-.33-7.28-2.69-9.4-3.06-2.74-8.52-2.11-12.09,0A12.73,12.73,0,0,0,83.87,164.48Z"/><path class="cls-1" d="M75.44,10.51c-2.06,0-3-1-6.65-.95-1.91,0-3.3.07-4.75.95s-1.78,1.93-2.85,1.92-1.38-1.19-2.85-1.92c-1.63-.8-3.35-.36-4.74,0a10.73,10.73,0,0,0-5.7,3.83A12.12,12.12,0,0,0,46,18.16a20.24,20.24,0,0,0-1,4.78c-.06,0,1.12-6.28,0-6.69-.91-.34-3.36,3.14-4.75,6.69a26.82,26.82,0,0,0-.95,15.29c1.43,5.25,3.82,6.69,2.85,9.56-.87,2.55-3.57,3.79-5.7,4.78-3.81,1.75-8.85,2.37-9.5,1-.78-1.72,5.48-5.2,4.75-6.69-.59-1.2-5.74-1-8.55,1.91-2.38,2.5-2.22,6.11-1.9,11.47.45,7.39,2.29,8.93,1.9,15.29-.21,3.56-.79,3.07-.95,6.69-.05,1.26,0,2.78,1.9,13.38,1.29,7,2.25,7.82,2.85,8.6.79,1,3.09,4,5.18,3.61,2.37-.46,3.45-6.45,5.52-18.42,2.55-14.7,2.53-14.7,2.77-15.66C43,63.5,44.72,56.37,50.75,51.61A47.27,47.27,0,0,1,64,44.92c4.6-1.52,6.19-1.35,25.64-2.87a191.57,191.57,0,0,1,19.95-.95c5.29.08,8,.13,11.4.95a36.47,36.47,0,0,1,16.14,8.6c2.33,2.18,5.07,6.58,10.45,15.3,4,6.46,6,9.69,6.65,11.46,2.65,7.09,2.33,13.42,1.89,22-.29,5.84-.93,8.6-.94,16.25,0,9.52,1,10.87,1.89,11.47,3.79,2.42,11.84-4.28,15.2-7.65,5-5,9.91-12.95,7.6-16.24-1.24-1.77-3.68-.93-4.75-2.87-1.29-2.33,1.66-4.53,2.85-9.56,1.1-4.68-1-4.69-1.9-16.24-.33-4.21-.22-6.45-1.9-7.65-2.36-1.67-6.06.24-6.65-1s2.72-2.66,2.85-5.74c.08-1.9-1.12-2.2-1.9-4.78-1.27-4.21,1.3-5.58,0-8.6-.57-1.33-1-.82-6.65-5.73-1.34-1.16-2.47-2.19-2.85-1.91-.56.4,1.59,2.93,1,5.73-.52,2.29-2.78,4.23-3.8,3.82-1.26-.51.33-4.29-.94-9.55a21.53,21.53,0,0,0-3.8-7.65A26.58,26.58,0,0,0,140,22c-2.51-1-6-2.47-8.55-.95-.76.44-1.55,1.2-1.9.95-.55-.38,1-2.53,1-4.78,0-2.48-2-4.56-4.75-6.69C119.14,5.41,112-.11,101.08,0,96.73.05,89.55.12,84,4.78,81.06,7.23,79.1,10.51,75.44,10.51Z"/><path class="cls-5" d="M40.47,279.13c-1.15-.06-3.41,14.5-4.61,28.31-2,22.93-3.42,41.53,5.53,44.83,1.62.6,2.51.29,6.45,0,23.26-1.74,38,5.49,41.45.78.74-1,.49-3.55,0-8.65-.21-2.23-.4-2.66-.92-6.29-.1-.7-1.32-9.38-.92-9.43s1.89,5.08,2.76,11c1.39,9.4-.36,11.46,1.85,13.36,3.69,3.19,10.35-1.11,24-1.57,14.54-.48,17.56,4.09,22.11,1.57,6.79-3.74,3.39-19.59-3.69-51.11-.46-2.05-5-22.26-7.37-22-.75.07-.44,2.2-1.84,3.93-3.85,4.76-16.87,2-24.87.79-31.77-4.66-54.58,6.12-59-1.58C40.31,281.18,40.9,279.15,40.47,279.13Z"/><path class="cls-2" d="M75.56,181.6c.49.38-.46,1.88-1.56,5.31-2.73,8.48-1.64,14-2.11,18.74-.54,5.41-4.68,10.6-13,21-11.07,13.86-16.6,20.79-25.21,24.51-4.16,1.8-9.23,3.12-11.07,7.61-1.24,3.05,0,5.19-1.78,10.69-1.25,3.94-2,3.22-3,6.6-1.61,5.62.27,8.16-1.89,13.37-.76,1.83-1.61,3.85-2.85,3.91-2.51.12-5.75-7.79-6.11-15-.5-10.37,5-18.23,6.2-19.91,2.62-3.59,3.61-3.29,7-7.78a52.74,52.74,0,0,0,7.26-13.15c2.78-6.8,8.5-13.67,19.94-27.41C57.69,197.79,73.76,180.2,75.56,181.6Z"/><path class="cls-2" d="M108.16,180.71c-.51.36.38,1.9,1.34,5.37,2.38,8.59,1.07,14,1.34,18.81.32,5.43,4.24,10.78,12.09,21.49,10.49,14.3,15.73,21.45,24.19,25.53,4.08,2,9.09,3.49,10.74,8.06,1.12,3.09-.17,5.18,1.35,10.74,1.08,4,1.85,3.3,2.68,6.72,1.39,5.69-.6,8.15,1.35,13.44.68,1.86,1.44,3.92,2.68,4,2.51.22,6.07-7.56,6.72-14.78.93-10.35-4.21-18.42-5.37-20.15-2.48-3.7-3.47-3.44-6.72-8.06a52.88,52.88,0,0,1-6.72-13.44c-2.5-6.91-7.93-14-18.8-28.21C125.34,197.62,110,179.38,108.16,180.71Z"/><path class="cls-2" d="M159.67,267c-.77,0-1.32.79-2.19,2.06-1.54,2.27-2.74,4.05-2.31,6.31.24,1.24,1.11,3.33,2.45,3.47,2.12.22,5.27-4.47,4.49-8.37C161.82,269,160.84,267,159.67,267Z"/><path class="cls-2" d="M19.59,271.32c.76-.08,1.38.67,2.35,1.87,1.72,2.14,3.07,3.81,2.82,6.1-.13,1.25-.83,3.41-2.15,3.66-2.1.4-5.62-4-5.17-8C17.61,273.49,18.42,271.45,19.59,271.32Z"/><path class="cls-2" d="M157.56,112.05c2.42-1.61,4-1.78,5.05-1.68,3,.27,5.22,2.84,6.17,5,1.46,3.43.14,6.69-.57,8.41a13.17,13.17,0,0,1-6.72,7.29,12.11,12.11,0,0,1-8.42.57c-1.49-.48-3-1-3.92-2.25C146.22,125.34,151.33,116.2,157.56,112.05Z"/><path class="cls-2" d="M126.65,37.46c6.44,2.16,10.29,4.31,13.49,6.74a45.43,45.43,0,0,1,11.57,13.5A60,60,0,0,1,159.42,77c1.05,4.84,2.83,15,1,34.7-2,21.31-3,32-9.64,38.55a15.56,15.56,0,0,1-1.62,1.39,122.71,122.71,0,0,1-11.87,6.33c-8.85,4.11-15.74,6-29.53,9.72-8.86,2.4-11.5,2.8-14.74,2.77a45.35,45.35,0,0,1-14.52-2.86c-5.18-1.71-9-3.75-16.39-7.71C59,158.21,56.91,157,55.31,156a67.22,67.22,0,0,1-6.3-4.09,50.33,50.33,0,0,1-5.26-4.59c-3.65-3.62-9.54-9.48-11.56-18.31-.62-2.71-.41-7.27,0-16.38.16-3.37.36-7.75,1-13.5A146.93,146.93,0,0,1,37,76c1.67-6.29,3.66-13.8,7.71-20.24C57.05,36.17,84.15,33.35,91,32.64,107.23,31,119.58,35.09,126.65,37.46Z"/><path class="cls-2" d="M37.92,106.71c-1.53-2.47-2.87-3.27-3.9-3.62-2.84-1-5.94.43-7.7,2-2.76,2.51-2.9,6-3,7.89a13.25,13.25,0,0,0,3.11,9.42,12.08,12.08,0,0,0,7.43,4c1.55.19,3.12.38,4.5-.42C42.75,123.5,41.87,113.07,37.92,106.71Z"/><path class="cls-1" d="M44.15,80.15c-1.07.5-3.59-1.42-4.6-3.69-.63-1.4-.6-2.75-.93-2.76s-.57.93-.92,2.76c-.84,4.49-.27,5.46-.92,8.29-.72,3.17-1.68,3-1.84,5.53-.12,1.77.31,2.57.92,5.53,0,0,.31,1.5.92,6.45.71,5.67.53,15.41-.92,15.66s-5-10.78-6.45-22.11c-.95-7.54-1.73-14.29.92-22.11,1.7-5,2.48-3.1,8.29-13.82,4.54-8.35,5.45-11.94,10.14-16.58a32.69,32.69,0,0,1,7.37-5.53c9.16-5,20.54-5,21.19-2.76.91,3.09-20,8.53-28.56,23-2,3.41-4.35,7.39-4.61,12.89C43.93,75.78,45.43,79.54,44.15,80.15Z"/><path class="cls-1" d="M154.7,78.3c-.52-.13-1,1.08-1.84.93a1.31,1.31,0,0,1-.92-.93c-.28-.94.8-1.52,1.84-3.68.6-1.27.68-2,1-2,.45,0,.73,1.7.92,2.76.85,4.49.28,5.46.93,8.29.72,3.17,1.67,3,1.84,5.53.11,1.77-.31,2.56-.92,5.53,0,0-.31,1.5-.92,6.44-.71,5.68-.53,15.42.92,15.66s5-10.78,6.45-22.1c.95-7.54,1.72-14.29-.93-22.11-1.69-5-2.47-3.11-8.29-13.82-4.53-8.36-5.44-11.94-10.13-16.58a32.69,32.69,0,0,0-7.37-5.53c-6.37-3.44-17.78-6.84-21.19-2.77C111.79,39,119.64,56.48,128.9,58c3.59.6,7.41-1.18,13.82.92a9.67,9.67,0,0,1,4.61,2.76,8.94,8.94,0,0,1,1.9,8.13c-.81,2.64-2.5,2.54-2.82,4.77-.45,3.14,2.5,6.08,4.6,7.37.92.56,2.63,1.6,3.69.92C156.12,82,155.52,78.51,154.7,78.3Z"/><path class="cls-6" d="M84.47,114.61a15.43,15.43,0,0,1,10.77-6.7c7.9-.89,13,5.15,13.29,5.57"/><path class="cls-7" d="M82.94,133.82a18.6,18.6,0,0,0,4.31,2.87,19.37,19.37,0,0,0,12.56,1.37c3.1-.79,5.66-2.4,8.61-4.24.91-.57,1.64-1.08,2.15-1.44"/><path class="cls-8" d="M81.68,98.87a14.73,14.73,0,0,0-2.05-8.2A16,16,0,0,0,69.38,83.5,16.27,16.27,0,0,0,49.92,95.79a18,18,0,0,0-.21,4.35c.07,1.18.29,4.85,1.88,7.51,3.21,5.36,11.35,5.53,12.67,5.56,1.78,0,9.61-.08,14.34-6.14A15.06,15.06,0,0,0,81.68,98.87Z"/><path class="cls-9" d="M71.68,89.55a10.45,10.45,0,0,0-8.19-1,11.49,11.49,0,0,0-5.13,3.08,12,12,0,0,0-3.07,6.14,9.85,9.85,0,0,0,1,7.18c2.2,3.46,6.23,4,7.18,4.1a11,11,0,0,0,6.14-1,11.42,11.42,0,0,0,5.13-5.12,10.54,10.54,0,0,0,1-8.2A9.71,9.71,0,0,0,71.68,89.55Z"/><path class="cls-8" d="M112.59,100.14a15.11,15.11,0,0,1,1.88-7.51,16.06,16.06,0,0,1,10.19-7.47,16.25,16.25,0,0,1,10.24,1,16.93,16.93,0,0,1,9.23,11.27,17.93,17.93,0,0,1,.37,5.51,15.36,15.36,0,0,1-1.88,6.57c-3.29,5.26-11.26,5.33-12.84,5.34s-9.72.06-14.34-6.15A15.07,15.07,0,0,1,112.59,100.14Z"/><path class="cls-9" d="M122.36,91.21a10.47,10.47,0,0,1,8.2-1,11.57,11.57,0,0,1,5.12,3.07,12.06,12.06,0,0,1,3.07,6.15,9.82,9.82,0,0,1-1,7.17c-2.2,3.47-6.23,4-7.17,4.1a11,11,0,0,1-6.15-1,11.42,11.42,0,0,1-5.13-5.12,10.55,10.55,0,0,1-1-8.2A9.71,9.71,0,0,1,122.36,91.21Z"/><path d="M69,95.4a5.25,5.25,0,0,0-4.09-.51,5.78,5.78,0,0,0-2.55,1.54,5.94,5.94,0,0,0-1.53,3.06,4.85,4.85,0,0,0,.51,3.57,4.92,4.92,0,0,0,3.57,2A5.59,5.59,0,0,0,68,104.6,5.68,5.68,0,0,0,70.56,102,5.2,5.2,0,0,0,71.07,98,4.87,4.87,0,0,0,69,95.4Z"/><path d="M125,97.11a5.25,5.25,0,0,1,4.09-.51,5.67,5.67,0,0,1,2.55,1.54,5.86,5.86,0,0,1,1.53,3.06,4.41,4.41,0,0,1-4.08,5.62,5.63,5.63,0,0,1-3.07-.51,5.73,5.73,0,0,1-2.55-2.56,5.24,5.24,0,0,1-.51-4.08A4.87,4.87,0,0,1,125,97.11Z"/><path class="cls-1" d="M95.74,10.13c-4.44.8-8.25,2.88-15.66,7.37-8.81,5.35-10.85,8.16-12,10.14a22.07,22.07,0,0,0-2.76,10.13,21.94,21.94,0,0,0,2.76,12c1.18,2,4.76,8.25,10.14,8.29,4.13,0,7.76-3.61,7.37-4.61s-5.2.93-6.45-.92c-1-1.43.52-4.63,2.76-6.45,3.54-2.87,8.59-2,10.14-1.84,13,1.66,34.4-9,35-17.5C127.63,18.68,109.89,7.58,95.74,10.13Z"/><path d="M111.59,102.49c-.47-.06-.65-3.2.06-6.1a15.12,15.12,0,0,1,2.82-5.63A19,19,0,0,1,121,85.13a15,15,0,0,1,8.44-1.88A16.51,16.51,0,0,1,137.93,87c.86.76,1.78,1.77,1.88,1.88a26.89,26.89,0,0,1,2.81,3.75c2.35,3.88,3.07,8.37,2.82,8.45s-.67-3.16-2.82-6.57c-.5-.79-6.61-10.21-16-9.38a16,16,0,0,0-10.32,5.63C112,95.93,112.26,102.58,111.59,102.49Z"/><path d="M81.8,100.73c.47-.06.65-3.2-.06-6.1A15.12,15.12,0,0,0,78.92,89a19,19,0,0,0-6.57-5.63,15,15,0,0,0-8.44-1.88,16.51,16.51,0,0,0-8.45,3.75c-.86.76-1.78,1.77-1.88,1.88a26.89,26.89,0,0,0-2.81,3.75c-2.35,3.88-3.07,8.37-2.82,8.45s.67-3.16,2.82-6.57c.5-.79,6.61-10.21,15.95-9.38A16,16,0,0,1,77,89C81.41,94.17,81.13,100.82,81.8,100.73Z"/><path class="cls-8" d="M70.67,96.86c-1.83.18-3.84,1.17-3.76,1.87s2.13,1.1,3.76.94c1.83-.18,3.84-1.17,3.75-1.88S72.3,96.69,70.67,96.86Z"/><path class="cls-8" d="M133.42,98c-1.83.18-3.84,1.17-3.75,1.88s2.12,1.1,3.75.93c1.83-.18,3.84-1.17,3.75-1.87S135.05,97.81,133.42,98Z"/><path class="cls-8" d="M60.74,101a1.64,1.64,0,0,0-1.9,1.58,1.51,1.51,0,0,0,1.32,1.32,1.62,1.62,0,0,0,1.74-1.7A1.46,1.46,0,0,0,60.74,101Z"/><path class="cls-8" d="M124.76,102.64a1.65,1.65,0,0,0-1.9,1.58,1.52,1.52,0,0,0,1.32,1.32,1.63,1.63,0,0,0,1.75-1.7A1.48,1.48,0,0,0,124.76,102.64Z"/><path class="cls-1" d="M109.91,68.65c-2.29,2.25-2.78,6.64-1,8.47.7.7,1.7,1,8.92.14,6.1-.72,6.11-1,8.55-1.11,4.23-.19,7.42.56,11.36,1.48a61.87,61.87,0,0,1,10.47,3.1c1.85.77,3.26,1.47,3.7,1,.62-.7-1.09-3.45-2.91-5.3a17.54,17.54,0,0,0-5.87-3.76,60.72,60.72,0,0,0-10-3.92,51.64,51.64,0,0,0-17-1.91C112.5,67,111,67.55,109.91,68.65Z"/><path class="cls-1" d="M86.23,68.72c2.29,2.25,2.79,6.65,1,8.48-.7.7-1.71,1-8.92.14-6.11-.72-6.11-1-8.56-1.12-4.23-.18-7.42.56-11.36,1.48a62.29,62.29,0,0,0-10.46,3.11c-1.86.76-3.26,1.47-3.7,1-.63-.7,1.09-3.44,2.9-5.3A17.75,17.75,0,0,1,53,72.72,62.19,62.19,0,0,1,63,68.8a51.88,51.88,0,0,1,16.95-1.91C83.64,67.11,85.12,67.62,86.23,68.72Z"/><path class="cls-8" d="M.07,343.15a2.86,2.86,0,0,0,.36,2.16c.44.5,1.05.41,1.74.32.49-.07.76-.1,1-.37a2.57,2.57,0,0,0,.09-2.33c-.33-.82-1.15-1.67-2-1.4S.11,343,.07,343.15Z"/><path class="cls-10" d="M81,176.78a12.5,12.5,0,0,0,.92-2.26c.37-1.19.33-1.69.58-1.79.64-.24,1.2,2.36,3.11,4.05,2.18,1.92,4.28,1,4.6,2.25.42,1.6-3.09,3.4-2.76,5.63.21,1.41,1.73,1.25,2.76,3.38s.53,4.44.92,4.51.57-4,2.77-5.63c1.61-1.21,3.06-.08,3.68-1.13,1.07-1.8-2.77-5.79-1.84-7.89,1.18-2.66,8.65.88,10.13-2.25.64-1.35-.09-3.36,0-3.38s.24,3.83,1.85,6.76c1.79,3.26,4.1,2.05,5.52,4.51,1.74,3-.38,6.56-.92,13.52-.25,3.35.05,6.35.92,12.39,1.7,11.74,4.9,14.13,11.06,33.75,2.12,6.76,3,10.34,4.6,17.51a62.45,62.45,0,0,1,1.85,11.05c.29,4.68-.28,5.43,0,9.81.55,8.82,2.94,9.66,1.84,12.39-1.8,4.47-7.46,5.28-25.79,5.64-5,.1-6.41-.19-8.58-.15-1.28,0-1.6.12-3,.23-4,.29-6,.44-6.82-.28-1-.95-.4-2.43,0-7.37.3-3.65.4-8.24,0-8.29s-1.45,3.41-1.84,7.37c-.49,5,.51,7.23-.92,8.49s-3.4.48-5.53,0c-3.23-.74-14.37-1.27-23.45-2a66.75,66.75,0,0,0-7.87-.24,10.59,10.59,0,0,1-6.45-2.26c-3.72-3-3.21-9.5-2.76-13.2a103,103,0,0,1,10.13-33.16,261.85,261.85,0,0,0,19.35-46h0c2.07-17.37,4.9-22.06,7.37-22.52.88-.17,2.71.27,3.68-1.13h0A10,10,0,0,1,81,176.78Z"/><path class="cls-10" d="M78.46,179.61c-1.87-1.15-4.89.63-10.93,4.2-11.42,6.74-22.36,13.2-22.7,23.54-.31,9.61,8.6,20.76,16,20.17C74.58,226.41,85.69,184,78.46,179.61Z"/><path class="cls-10" d="M108.14,180.16c2-1,4.88,1,10.67,5.1,11,7.69,21.47,15.06,21,25.49-.44,9.7-10.3,20.22-17.67,19.05C108.34,227.59,100.51,184.05,108.14,180.16Z"/><path class="cls-11" d="M100.35,185.17c1.8.05,2.07-2.33,6.45-4.61,1.63-.85,2.46-1,2.76-1.84s-.75-2.35-2.76-5.53c-.32-.5-.53-.82-.93-.92-1.11-.29-1.9,1.67-3.68,2.76-2.79,1.72-5.3-.34-6.45.92C94,177.84,97.22,185.08,100.35,185.17Z"/><path class="cls-11" d="M86.8,184.28c-2,.41-2.6-2-7.23-3.23-1.62-.42-2.76-.45-3.08-1.26s.6-1.43,1.75-3.84.94-3.26,1.84-3.68c1.18-.56,2.77.38,3.68.92,2,1.2,2.1,2.36,3.69,2.76s2.18-.46,2.76,0C91.61,177.06,89.85,183.65,86.8,184.28Z"/><path class="cls-12" d="M88.72,283.88c.06-2,.1-4.07.11-6.25.12-16.05-1.17-16.16-.92-29.3.3-15.84,2.31-23.49,1.84-34.93-.14-3.38.26-6.78,0-10.14-.28-3.63-.87-7.35.92-10.15.15-.22.3-.42.44-.59"/><ellipse class="cls-5" cx="87.91" cy="244.12" rx="1.38" ry="1.84"/><ellipse class="cls-5" cx="90.3" cy="192.7" rx="1.38" ry="1.84"/><ellipse class="cls-5" cx="87.91" cy="269" rx="1.38" ry="1.84"/><ellipse class="cls-5" cx="89.75" cy="218.33" rx="1.38" ry="1.84"/></g></g></svg>