<svg xmlns="http://www.w3.org/2000/svg" viewBox="0 0 307.23 427.91"><defs><style>.cls-1{fill:#d28f63;}.cls-2{fill:#feddb2;}.cls-3{fill:#f4d3ab;}.cls-4{fill:#fcfcfc;}.cls-5{fill:#eacca7;}.cls-12,.cls-20,.cls-6{fill:none;stroke-linecap:round;}.cls-6,.cls-8{stroke:#000;}.cls-12,.cls-20,.cls-6,.cls-8{stroke-miterlimit:10;}.cls-7{fill:#5f2c17;}.cls-9{fill:#822b23;}.cls-10{fill:#f47946;}.cls-11{fill:#050100;}.cls-12{stroke:#050100;}.cls-13{fill:#c68561;}.cls-14{fill:#14223c;}.cls-15{fill:#ce733e;}.cls-16{fill:#fff;}.cls-17{fill:#60270a;}.cls-18{fill:#fce5bc;}.cls-19{fill:#efd7af;}.cls-20{stroke:#efd7af;}</style></defs><g id="Camada_2" data-name="Camada 2"><g id="Pronto"><path class="cls-1" d="M201.56,182.52c-.66.5-.6,1.56-.47,3.23.23,3,.41,5.29,2.3,6.92,1,.89,3.2,2.08,4.43,1.29,2-1.25,1.46-7.36-1.84-10.15C204.73,182.76,202.57,181.75,201.56,182.52Z"/><path class="cls-1" d="M97.45,183.55c-.09.62,1.63,1.07,4.79,2.81,7.82,4.31,10.78,9,14.41,12.22,4.11,3.59,10.7,4.53,23.87,6.41,17.59,2.52,26.39,3.78,35.23.58,4.27-1.54,8.88-4.06,13.31-2,3,1.37,3.59,3.76,8.63,6.57,3.62,2,3.67,1,6.7,2.79,5,3,5.41,6.14,10.56,8.46,1.82.81,3.82,1.71,4.77.9,1.91-1.64-1.16-9.65-5.87-15.17-6.76-7.92-16.15-9.9-18.2-10.28-4.38-.82-4.89.08-10.48-.84a53.29,53.29,0,0,1-14.33-4.61c-6.7-3.06-15.6-4.15-33.39-6.32C121.61,183.1,97.81,181.3,97.45,183.55Z"/><path class="cls-2" d="M147.94,290.25c-1,.92-2.89,3.28-1.31,21a225.87,225.87,0,0,0,4.58,29.5c8.38,37.49,12.69,56.35,19,62.27,1.32,1.25,8,7.3,6.55,10.49-.86,1.83-4,1.83-3.93,2.63.09,1.13,6.41,1.41,10.49,1.31,5-.13,6.06-.85,6.55-1.31,2.28-2.14,1.55-6.3,1.31-7.87-1.33-8.65,1.22-17.47,1.31-26.22.2-18.49,1.76-15.84,1.31-27.53-.39-10.46-1.58-11.12-2.62-26.23-1.08-15.69.14-15.86-1.31-19.66C183.66,292.26,156.23,282.64,147.94,290.25Z"/><path class="cls-2" d="M230.61,286c1,.61,3.62,2.64,5.29,20.34a205.53,205.53,0,0,1,.53,30.51c-2.2,50.48-.75,56.53-6.19,64.08-1.09,1.5-6.51,8.71-4.44,11.55,1.19,1.63,4.27,1,4.36,1.82.13,1.13-6,2.61-10,3.29-5,.83-6.11.32-6.69,0-2.64-1.66-2.72-5.88-2.78-7.47-.35-8.75-4.53-16.92-6.29-25.49-3.72-18.12-4.74-15.21-6.54-26.78-1.6-10.33-.57-11.21-2.43-26.24-1.93-15.61-3.16-15.55-2.46-19.55C195.93,294.73,221,280.06,230.61,286Z"/><path class="cls-3" d="M188.58,163.08c1.12,9.89,0,11.8,0,11.8-2.18,3.26-6,2.33-9.18,5.24-4.26,3.91-3.14,10.47-3.27,16.39-.12,5-3.58,12.92-10.49,28.84-6.4,14.75-10.76,21.77-14.43,35.4-.66,2.49-1.11,4.38-1.31,5.25-1.91,8.5-3.62,16.16-2.62,24.91.47,4.08,2.13,18.53,12.46,24.25a13.49,13.49,0,0,0,2.23,1c4.19,1.5,10.85,1.3,35.79-1,11.05-1,12.87-1.28,15.73-2.62,11.32-5.28,15.9-16.78,17-19.67,4.05-10.16,2.83-19.05,1.32-30.15-1-7.19-1.79-7.34-6.56-24.91-6.66-24.55-10-36.82-9.18-41.95.7-4.37,2.65-12.1-1.31-15.74-2.29-2.1-5-1.36-6.55-3.93s.26-4.51,0-10.49c-.17-3.77-.32-7.11-2.63-9.18-3-2.67-8.31-2.06-11.8,0A12.51,12.51,0,0,0,188.58,163.08Z"/><path class="cls-3" d="M182.91,190.11c.18.58-1.43,1.24-4.24,3.35-7,5.21-9.17,10.18-12.25,13.73-3.48,4-9.71,5.8-22.16,9.4-16.63,4.8-24.94,7.2-33.9,5.3-4.33-.91-9.11-2.72-13.11-.18-2.71,1.73-3,4.11-7.44,7.5-3.22,2.44-3.4,1.45-6.09,3.59-4.45,3.57-4.38,6.66-9,9.58-1.65,1-3.46,2.17-4.48,1.51-2.07-1.32-.18-9.45,3.62-15.42,5.45-8.55,14.24-11.72,16.17-12.36,4.11-1.39,4.73-.59,10-2.23a51.55,51.55,0,0,0,13.2-6.37c6-3.85,14.49-6.1,31.35-10.59C159.55,192.93,182.27,188,182.91,190.11Z"/><path class="cls-2" d="M212.29,178.92c-.5.35.37,1.86,1.31,5.24,2.32,8.39,1,13.67,1.31,18.36.31,5.3,4.14,10.52,11.8,21,10.23,13.95,15.35,20.93,23.6,24.91,4,1.91,8.87,3.4,10.49,7.86,1.09,3-.17,5.06,1.31,10.49,1.06,3.89,1.81,3.22,2.62,6.56,1.35,5.54-.59,7.94,1.31,13.11.67,1.82,1.41,3.82,2.62,3.93,2.45.22,5.93-7.37,6.56-14.42.91-10.1-4.11-18-5.25-19.67-2.41-3.61-3.38-3.35-6.55-7.86a51.59,51.59,0,0,1-6.56-13.12c-2.43-6.74-7.74-13.67-18.35-27.53C229.06,195.42,214.1,177.63,212.29,178.92Z"/><path class="cls-2" d="M262.56,263.1c-.75,0-1.29.76-2.14,2-1.5,2.21-2.67,3.95-2.25,6.15.23,1.21,1.08,3.25,2.39,3.39,2.07.22,5.14-4.36,4.39-8.16C264.66,265.05,263.71,263.12,262.56,263.1Z"/><path class="cls-2" d="M97.44,215.35c.43.54.15,1.38-.3,2.69-.81,2.33-1.45,4.17-3.31,5.07-1,.5-3,1-3.83.11-1.3-1.42.39-6.22,3.62-7.76C94.84,214.87,96.79,214.52,97.44,215.35Z"/><path class="cls-2" d="M237,28.19A49.84,49.84,0,0,1,253.2,49.77c1.05,2.82,2.85,8.16,1.34,32.36-1.65,26.57-3.27,61.66-8.09,67.43-2.51,3-8,5.15-18.88,9.44,0,0-13.69,5.38-22.92,5.39h-9.44c-4,0-11.47-1.48-18.88-4a91.07,91.07,0,0,1-14.83-6.74c-5.93-3.34-8.79-5.17-10.79-8.09-2.78-4.06-3.63-33.35-4.05-40.45-1-16.7-1.46-17.19-1.34-22.93,0-2.22.28-14.09,2.69-22.92,4.81-17.59,22.31-38.13,47.2-41.81C198.16,17,219.15,14.2,237,28.19Z"/><path class="cls-4" d="M164.77,104.56a8.91,8.91,0,0,0,2.8,2.42c2.45,1.46,4.8,1.54,7.63,1.61a16.37,16.37,0,0,0,6.82-.81,10.6,10.6,0,0,0,5.21-3.62c2.26-3.18,1.6-7,1.21-9.26a13.76,13.76,0,0,0-3.61-7.66,10.52,10.52,0,0,0-4.42-2.81,11.3,11.3,0,0,0-8,.8,14.86,14.86,0,0,0-7.22,7.25C164.72,93.41,161.59,100.13,164.77,104.56Z"/><path class="cls-4" d="M237.68,104.42a8.76,8.76,0,0,1-2.77,2.44c-2.42,1.49-4.76,1.61-7.59,1.72a16.55,16.55,0,0,1-6.83-.68,10.63,10.63,0,0,1-5.28-3.48c-2.32-3.1-1.72-6.86-1.36-9.11a13.36,13.36,0,0,1,3.48-7.61,10.43,10.43,0,0,1,4.36-2.86,11.5,11.5,0,0,1,8,.65,14.72,14.72,0,0,1,7.34,7C237.54,93.43,240.78,100,237.68,104.42Z"/><path class="cls-5" d="M192.51,110.64a10.23,10.23,0,0,1,6.56-5.25c5.13-1.2,8.92,2.38,9.18,2.62"/><path class="cls-6" d="M187.27,132.9a17.29,17.29,0,0,0,4,2.68A18.07,18.07,0,0,0,203,136.86c2.9-.74,5.29-2.23,8-4,.84-.53,1.53-1,2-1.34"/><path class="cls-7" d="M254.7,27.15c-.74-.79.91-2.46,1.37-6.42a18.57,18.57,0,0,0-1.37-9.13c-2.37-5.88-8-10.91-9.89-9.89-.74.41-.8,1.67,0,8.48,1.34,11.37,2.36,15.11,1.41,15.54-1.47.68-4.7-8-12.71-14.13-2.62-2-7.81-5.31-19.79-7.06C191.1,1.23,171.27,7.42,167.1,8.78,149,14.66,141.45,22.15,129,18.67c-5.25-1.46-8.73-4.13-9.89-2.83-2.07,2.31,4.58,15.6,15.54,19.78,3.81,1.46,6.62,1.23,7.06,2.83.82,2.95-8.23,5.67-15.54,12.72C116.63,60.32,114.6,72.42,112,87.9c-1.45,8.63-2.94,23.19,0,24,5.81,1.64,14.75-19.08,11.31-14.13,0,0,3.17-7.32,4.23-7.06,1.44.35-.81,14.6-1.41,18.37-2.16,13.7-3.57,16.37-4.24,25.43-.64,8.78-.91,13.28,1.42,18.37,4,8.87,13.46,14.3,15.54,12.72,1.09-.84-.37-3.25-1.41-11.31-.35-2.64-1.42-10.89,0-11.3,1.15-.34,2.2,5.07,7.06,9.89A26,26,0,0,0,160,160c7.46.69,15.55-2,15.54-4.24s-8.55-1-15.54-7.06c-5.31-4.58-6.91-12-10.13-26.88-1.79-8.29-2.69-12.44-2.62-17A50.83,50.83,0,0,1,155.79,78s2.89-5.68,24-29.67l5.66-8.48c.87.3-.76,5.32-1.42,14.13-.69,9.25.35,13.87,1.42,17,.65,1.89,2.48,7.22,4.23,7.06,3.53-.32,4.17-22.66,5.66-22.6.95,0,.07,9.29,5.65,18.36.84,1.38,3.81,6.21,5.65,5.66,2.4-.73-2-10.86,1.41-22.61,2.89-10,10.14-16.94,11.32-16.33.65.35-.83,2.85,0,6.56a13.51,13.51,0,0,0,3.93,6.55c9.42,9.7,16.49,10.57,21.49,18.76,2.28,3.74,3.41,7.71,4.74,7.47,1.86-.35,1.83-7.89,2.62-7.87.62,0,1.1,4.78,1.31,9.18a94.19,94.19,0,0,1,0,10.49c-.9,9.54-7.56,13.25-17.15,30.18-5.91,10.44-5.77,12.59-5.14,13.08s1.54-.13,9.18-3.93c3.49-1.74,5.25-2.6,5.85-2.08.84.73-.15,3.14-1.92,7.32a40.42,40.42,0,0,1-3.93,7.87,29.76,29.76,0,0,1-7.15,7.58c-1.35,1-1.35.83-7.7,4-2.49,1.26-5.8,3-10.38,5.71-4.86,2.85-5.81,3.61-5.65,4.24.52,2.14,13.77,1.76,25.43-1.42,6.12-1.67,20.78-5.67,31.08-18.37,6.78-8.35,8.07-16,9.89-15.54s2.63,9.77-1.41,17c-2.58,4.59-6.05,6.49-5.65,7.06.62.88,9.29-3,16.95-9.89,4.57-4.08,8.27-7.39,9.9-12.72,1.79-5.88-.48-9.26-2.83-19.78-3.21-14.34-3.41-27.76-1.41-28.26,1.22-.3,2.45,4.48,8.47,9.9.74.66,5.8,5.21,7.07,4.23s-2.4-6.43-5.65-15.54a102.51,102.51,0,0,1-4.24-17c-2.92-15.42-1.13-19.47-5.65-25.44-1.13-1.48-4.46-5.88-9.89-7.06-4.31-.94-8.35.5-8.48,0-.2-.76,9.72-2.54,9.89-5.65.12-2.25-4.85-5.22-9.89-5.66C263.7,20.7,256.3,28.86,254.7,27.15Z"/><path class="cls-8" d="M181.92,93.74a14.88,14.88,0,0,1,0,5.64,4.72,4.72,0,0,1-1.21,2.82c-1.36,1.25-3.73,1.08-5.24.41-3.3-1.48-4.25-6.16-4-9.27.3-4,2.77-8.53,5.24-8.47,1.14,0,2,1,2.83,2C181.17,88.85,181.5,91,181.92,93.74Z"/><path d="M189,101.53a18,18,0,0,0-.4-6.86,19.62,19.62,0,0,0-2.82-6.85c-1.31-2-3.19-4.76-6.85-6a12.59,12.59,0,0,0-8.87.41,14.5,14.5,0,0,0-6.85,6,51.33,51.33,0,0,0-2.42,4.84c-.95,2.14-1.11,2.86-2,3.63a6.07,6.07,0,0,1-4.43,1.21,7.84,7.84,0,0,1-2.82-1.21c-.13.17,3,3.31,7.86,5.44.43.19,5.28,2.31,6,1.21.13-.18.06-.34,0-1.21,0-.41,0-1.21,0-2.82,0-1.25.1-2.63.2-3.43a13.59,13.59,0,0,1,3-6.65,13.81,13.81,0,0,1,4.83-3.63,9.61,9.61,0,0,1,4.84-1.21A8.82,8.82,0,0,1,182.75,86a12.79,12.79,0,0,1,4.43,5.24A20.43,20.43,0,0,1,189,101.53Z"/><path class="cls-8" d="M221.81,93.91a14.87,14.87,0,0,0,0,5.64,4.78,4.78,0,0,0,1.21,2.83c1.36,1.25,3.73,1.07,5.24.4,3.3-1.48,4.26-6.16,4-9.27-.29-4-2.77-8.53-5.24-8.47-1.14,0-2,1-2.82,2C222.56,89,222.24,91.15,221.81,93.91Z"/><path d="M213.36,101.7a18.4,18.4,0,0,1,.41-6.86A19.62,19.62,0,0,1,216.59,88c1.31-2,3.18-4.76,6.85-6a12.65,12.65,0,0,1,8.87.41,14.55,14.55,0,0,1,6.85,6c.38.66,1.39,2.52,2.42,4.84.95,2.14,1.11,2.86,2,3.63A6.07,6.07,0,0,0,248,98.07a7.84,7.84,0,0,0,2.82-1.21c.13.17-3,3.31-7.86,5.44-.44.2-5.29,2.32-6,1.21-.13-.18-.06-.34,0-1.21,0-.41,0-1.21,0-2.82a33.44,33.44,0,0,0-.21-3.43,13.47,13.47,0,0,0-7.86-10.28,9.54,9.54,0,0,0-4.83-1.21,8.91,8.91,0,0,0-4.44,1.62,12.71,12.71,0,0,0-4.43,5.24A20.63,20.63,0,0,0,213.36,101.7Z"/><path class="cls-7" d="M214.15,79.83c1.6,1.27,23.58-1,27.53-1.32,2.95-.2,6.49-1.32,6.55-2.62.06-1.13-2.56-2.12-3.93-2.62-5.25-1.93-9.94-1.69-14.42-1.31C219.07,72.87,213.09,79,214.15,79.83Z"/><path class="cls-7" d="M189.1,80.05c-1.6,1.27-23.58-1-27.53-1.31-2.95-.21-6.49-1.32-6.55-2.62C155,75,157.58,74,159,73.5c5.25-1.93,9.94-1.69,14.42-1.31C184.18,73.09,190.17,79.21,189.1,80.05Z"/><path class="cls-9" d="M191.18,186.73c-1-2.64-6.51-3.51-25.77-2-15.62,1.2-23.42,1.8-26.64,3.77-12.8,7.85-18.72,28.25-12.77,34.26,4.52,4.58,16.44-.89,40.27-11.82,0,0,18-8.25,24.49-21.27A3.76,3.76,0,0,0,191.18,186.73Z"/><path class="cls-10" d="M186.61,174.22c1.38.47,1.57,3.22,5.25,5.25a14.35,14.35,0,0,0,9.18,1.31c6-1.21,7.57-5.82,10.48-5.25,3.74.74,5,9.07,5.25,10.49,2.82,18.13,8.1,35.79,11.8,53.76,4.13,20.09,6.85,17.16,11.8,40.64,4.24,20.17,6.27,30.44,1.31,39.33-6.69,12-22.13,18.06-34.09,18.36-13.28.33-15.79-6.61-27.53-3.94-9.08,2.07-11.64,7.14-23.6,9.18-5.56.95-10.77,1.84-14.42,0-15-7.54-2.71-60.46,0-72.11C155.89,211.58,180.81,172.27,186.61,174.22Z"/><path class="cls-9" d="M212.37,177c2.36-1.53,7.32,1.12,21.82,13.88,11.76,10.34,17.64,15.51,19,19,5.51,14-2,33.83-10.39,35.06-6.37.94-12.6-10.6-25.07-33.66,0,0-9.41-17.4-6.78-31.72A3.82,3.82,0,0,1,212.37,177Z"/><path class="cls-9" d="M235,394.3c-1.65,3-3.21,5.92-2.31,8.32.39,1.05,1,1.38,5,4.16,4.49,3.17,4.92,3.62,5,4.17.1,1.34-2.28,2.34-9.23,4.56-7.92,2.53-12.14,3.56-17.57,3.72-4.47.13-5.57-.45-6.38-1.25-2.55-2.51-1.49-6.34-3.17-15-1.83-9.39-4.51-12.2-3.18-15,.45-.93,1.5-2.2,9.76-2.07,10.33.15,12.23,2.19,18.63,1.27,5.55-.81,9.31-3.1,9.75-2.07S238.32,388.25,235,394.3Z"/><path class="cls-9" d="M166.28,400c2.41,2.45,4.7,4.83,4.49,7.38-.1,1.12-.61,1.61-3.65,5.35-3.46,4.27-3.76,4.82-3.65,5.36.27,1.32,2.83,1.64,10.13,1.89,8.31.28,12.64.14,17.91-1.18,4.35-1.09,5.24-2,5.81-2.94,1.77-3.11-.29-6.51-1-15.28-.78-9.54,1-13-1-15.27-.68-.77-2-1.71-10,.65-9.9,2.95-11.18,5.43-17.58,6.27-5.57.74-9.8-.45-10,.66S161.43,395.07,166.28,400Z"/><path class="cls-4" d="M181.37,91.63c-.74-.5-2.19.26-2.62,1.31a1.48,1.48,0,0,0,0,1.31,1.85,1.85,0,0,0,2.62-2.62Z"/><path class="cls-4" d="M231.44,91.85c-.74-.49-2.19.27-2.62,1.31a1.5,1.5,0,0,0,0,1.32,1.86,1.86,0,0,0,2.62-2.63Z"/><path class="cls-11" d="M73.86,426.51c0,.42-.68.79-.93.93-3.13,1.67-21.58-1.43-21.23-3.7.1-.64,1.9-.9,2.77-.92,1.68,0,2.54.72,5.54,1.85a19.21,19.21,0,0,0,2.77.92c3.61.76,5.4-.82,9.23,0C73.72,426,73.84,426.38,73.86,426.51Z"/><path class="cls-11" d="M93.08,424.64c-.11.4.52.91.74,1.08,2.77,2.23,21.47,2.62,21.55.32,0-.65-1.7-1.24-2.55-1.42-1.64-.35-2.63.23-5.79.79a20.22,20.22,0,0,1-2.89.39c-3.69.07-5.15-1.82-9.07-1.72C93.32,424.12,93.12,424.51,93.08,424.64Z"/><path class="cls-1" d="M138.57,295.42c1,.93,3,3.36,1.34,21.54a231.12,231.12,0,0,1-4.71,30.29c-8.59,38.49-13,57.86-19.52,63.94-1.36,1.28-8.26,7.5-6.73,10.78.88,1.87,4.11,1.87,4,2.69-.09,1.16-6.59,1.45-10.77,1.34-5.19-.13-6.23-.87-6.73-1.34-2.34-2.2-1.6-6.47-1.35-8.08,1.37-8.88-1.25-17.94-1.34-26.93-.21-19-1.8-16.26-1.35-28.27.4-10.73,1.62-11.41,2.69-26.92,1.11-16.11-.14-16.29,1.35-20.2C101.89,297.47,130.05,287.6,138.57,295.42Z"/><path class="cls-1" d="M53.67,291c-1,.64-3.71,2.72-5.43,20.89a212.71,212.71,0,0,0-.54,31.33c2.26,51.84.77,58.05,6.36,65.8,1.11,1.55,6.68,8.94,4.55,11.86-1.22,1.68-4.38,1.06-4.48,1.87-.13,1.16,6.2,2.69,10.32,3.38,5.12.86,6.28.33,6.86,0,2.72-1.71,2.8-6,2.87-7.67.35-9,4.64-17.37,6.45-26.18,3.82-18.6,4.87-15.62,6.72-27.49,1.64-10.61.58-11.52,2.49-26.95,2-16,3.24-16,2.53-20.08C89.29,300,63.52,285,53.67,291Z"/><path class="cls-12" d="M54.68,423.52c.06-.13,1.91-.63,2.72-1.81"/><path class="cls-12" d="M54.93,423.69a9.85,9.85,0,0,1,3.87-.2,10.73,10.73,0,0,1,6.08,3.21"/><path class="cls-12" d="M112.46,425.44c0-.14-1.75-1-2.33-2.29"/><path class="cls-12" d="M112.21,425.39a10,10,0,0,0-3.77-.92,10.71,10.71,0,0,0-6.58,2"/><path class="cls-13" d="M96.83,164.83c-1.14,10.15,0,12.11,0,12.11,2.24,3.36,6.16,2.4,9.43,5.39,4.38,4,3.22,10.75,3.36,16.83.12,5.08,3.67,13.26,10.77,29.62,6.58,15.14,11,22.34,14.81,36.35.69,2.55,1.15,4.49,1.35,5.38,2,8.74,3.72,16.59,2.69,25.58-.48,4.19-2.18,19-12.79,24.91a13.72,13.72,0,0,1-2.29,1.06c-4.3,1.54-11.14,1.33-36.75-1.06-11.35-1.07-13.22-1.33-16.15-2.7-11.63-5.42-16.33-17.23-17.51-20.19-4.15-10.44-2.9-19.56-1.34-31,1-7.37,1.83-7.53,6.73-25.57,6.84-25.21,10.26-37.81,9.42-43.09-.71-4.47-2.71-12.42,1.35-16.15,2.35-2.16,5.08-1.4,6.73-4s-.28-4.63,0-10.77c.17-3.87.33-7.3,2.69-9.42,3.07-2.75,8.54-2.12,12.12,0A12.73,12.73,0,0,1,96.83,164.83Z"/><path class="cls-11" d="M105.28,10.54c2.06,0,3-1,6.66-1,1.91,0,3.31.07,4.76,1s1.79,1.92,2.86,1.91,1.38-1.19,2.85-1.91a6.61,6.61,0,0,1,4.76,0,10.72,10.72,0,0,1,5.71,3.83,12.16,12.16,0,0,1,1.9,3.83,20.36,20.36,0,0,1,.95,4.79c.07,0-1.12-6.29,0-6.71.92-.33,3.36,3.15,4.76,6.71a26.87,26.87,0,0,1,1,15.32c-1.43,5.26-3.84,6.7-2.86,9.58.87,2.56,3.57,3.8,5.71,4.79,3.82,1.76,8.87,2.38,9.52,1,.78-1.73-5.49-5.22-4.76-6.71.59-1.21,5.76-1,8.56,1.92,2.4,2.5,2.23,6.12,1.91,11.49-.45,7.4-2.3,9-1.91,15.32.22,3.57.8,3.08,1,6.71,0,1.26,0,2.78-1.91,13.41-1.28,7-2.25,7.83-2.85,8.62-.79,1-3.09,4-5.19,3.61-2.37-.46-3.46-6.47-5.54-18.46-2.55-14.73-2.53-14.73-2.76-15.69-2.51-10.22-4.27-17.37-10.31-22.14A47.08,47.08,0,0,0,116.7,45c-4.61-1.53-6.2-1.36-25.7-2.88a195.14,195.14,0,0,0-20-1c-5.31.08-8,.14-11.43,1a36.52,36.52,0,0,0-16.17,8.62C41.08,52.94,38.34,57.35,33,66.09c-4,6.47-6,9.71-6.67,11.49-2.65,7.1-2.33,13.44-1.9,22,.3,5.85.94,8.61.95,16.28,0,9.54-1,10.89-1.9,11.49-3.8,2.43-11.87-4.29-15.23-7.66-5-5-9.93-13-7.61-16.28,1.24-1.77,3.68-.93,4.76-2.88C6.63,98.23,3.68,96,2.49,91c-1.11-4.7,1-4.71,1.9-16.28.33-4.22.22-6.47,1.91-7.67,2.36-1.67,6.07.24,6.66-1s-2.72-2.67-2.86-5.75c-.08-1.9,1.13-2.2,1.91-4.79,1.27-4.22-1.3-5.59,0-8.62.57-1.33,1-.82,6.66-5.75C20,40,21.15,39,21.53,39.27c.56.41-1.6,2.94-1,5.75.53,2.29,2.79,4.24,3.81,3.83,1.26-.51-.32-4.3.95-9.58a21.42,21.42,0,0,1,3.81-7.66A26.54,26.54,0,0,1,40.56,22c2.52-1.05,6-2.48,8.57-1,.76.45,1.55,1.21,1.9,1,.55-.39-1-2.54-1-4.79,0-2.49,2-4.57,4.76-6.7C61.48,5.42,68.66-.11,79.58,0c4.36.05,11.55.12,17.13,4.79C99.65,7.25,101.61,10.53,105.28,10.54Z"/><path class="cls-14" d="M140.33,279.73c1.15-.07,3.41,14.53,4.61,28.37,2,23,3.43,41.61-5.54,44.92-1.63.6-2.51.3-6.46,0-23.31-1.74-38.08,5.5-41.54.79-.74-1-.5-3.56,0-8.67.21-2.24.4-2.67.92-6.3.1-.71,1.33-9.41.92-9.46s-1.89,5.09-2.77,11c-1.39,9.42.37,11.49-1.84,13.4-3.71,3.19-10.38-1.12-24-1.58-14.57-.48-17.59,4.1-22.15,1.58-6.81-3.76-3.4-19.63,3.69-51.23.46-2.05,5.06-22.3,7.39-22.06.75.07.44,2.2,1.84,3.94,3.86,4.77,16.9,2,24.93.78,31.83-4.66,54.69,6.14,59.08-1.57C140.48,281.78,139.89,279.75,140.33,279.73Z"/><path class="cls-1" d="M72.49,181.09c.51.37-.38,1.91-1.35,5.39-2.38,8.61-1.06,14-1.34,18.85-.32,5.44-4.25,10.8-12.12,21.54-10.51,14.33-15.76,21.49-24.23,25.58-4.09,2-9.12,3.5-10.77,8.07-1.12,3.1.17,5.2-1.35,10.77-1.09,4-1.86,3.31-2.69,6.73-1.39,5.7.61,8.17-1.35,13.47-.69,1.87-1.44,3.93-2.69,4-2.51.22-6.08-7.58-6.73-14.81-.93-10.37,4.22-18.46,5.38-20.2,2.48-3.7,3.48-3.44,6.74-8.07A53.38,53.38,0,0,0,26.72,239c2.5-6.93,8-14,18.85-28.27C55.27,198,70.63,179.77,72.49,181.09Z"/><path class="cls-1" d="M20.87,267.53c.76,0,1.33.79,2.19,2.07,1.54,2.27,2.75,4,2.32,6.32-.24,1.24-1.11,3.33-2.45,3.48-2.13.22-5.29-4.48-4.51-8.39C18.71,269.53,19.69,267.56,20.87,267.53Z"/><path class="cls-1" d="M23,112.29c-2.42-1.62-4-1.79-5.06-1.69-3,.28-5.23,2.86-6.18,5.06-1.47,3.44-.14,6.7.57,8.43a13.16,13.16,0,0,0,6.74,7.3,12.14,12.14,0,0,0,8.43.57c1.5-.48,3-1,3.93-2.25C34.35,125.61,29.23,116.45,23,112.29Z"/><path class="cls-1" d="M54,37.54C47.5,39.7,43.65,41.86,40.44,44.3A45.43,45.43,0,0,0,28.85,57.82a59.91,59.91,0,0,0-7.73,19.32c-1.05,4.84-2.84,15-1,34.77,2,21.35,3.07,32,9.66,38.64a18,18,0,0,0,1.63,1.39,124.93,124.93,0,0,0,11.9,6.33c8.86,4.13,15.77,6,29.59,9.75,8.87,2.41,11.53,2.8,14.77,2.77a45.28,45.28,0,0,0,14.55-2.86c5.19-1.72,9-3.76,16.42-7.73,3.11-1.65,5.17-2.89,6.78-3.86a65.43,65.43,0,0,0,6.31-4.1,51.45,51.45,0,0,0,5.28-4.59c3.65-3.63,9.56-9.5,11.58-18.35.62-2.72.41-7.29,0-16.42-.16-3.38-.36-7.76-1-13.53a147.78,147.78,0,0,0-3.86-23.18c-1.68-6.31-3.67-13.83-7.73-20.28C123.7,36.25,96.55,33.42,89.7,32.71,73.42,31,61,35.16,54,37.54Z"/><path class="cls-1" d="M142.88,106.93c1.54-2.47,2.88-3.26,3.91-3.62,2.85-1,5.94.43,7.72,2,2.76,2.52,2.9,6.05,3,7.91a13.26,13.26,0,0,1-3.12,9.44,12.08,12.08,0,0,1-7.44,4c-1.56.19-3.13.38-4.51-.42C138,123.76,138.91,113.31,142.88,106.93Z"/><path class="cls-11" d="M136.63,80.32c1.07.5,3.6-1.43,4.62-3.7.63-1.4.59-2.75.92-2.76s.58.93.92,2.76c.85,4.51.28,5.47.93,8.31.72,3.18,1.68,3,1.84,5.54.12,1.78-.31,2.57-.92,5.54,0,0-.31,1.51-.92,6.46-.71,5.69-.53,15.45.92,15.7s5-10.81,6.46-22.16c1-7.55,1.74-14.31-.92-22.15-1.7-5-2.48-3.11-8.31-13.85-4.54-8.37-5.45-12-10.15-16.62a33.37,33.37,0,0,0-7.39-5.54c-9.18-5-20.58-5-21.23-2.77-.92,3.1,20.06,8.55,28.62,23.08,2,3.42,4.36,7.41,4.61,12.93C136.86,75.94,135.35,79.71,136.63,80.32Z"/><path class="cls-11" d="M25.85,78.47c.52-.13,1,1.08,1.85.92a1.31,1.31,0,0,0,.92-.92c.27-1-.81-1.52-1.85-3.69-.6-1.27-.68-2-1-2-.45,0-.73,1.71-.93,2.77C24,80,24.6,81,24,83.85c-.73,3.18-1.68,3-1.85,5.54-.11,1.77.32,2.57.93,5.54,0,0,.3,1.5.92,6.46.7,5.69.53,15.45-.92,15.69s-5-10.8-6.47-22.15c-.95-7.56-1.73-14.32.93-22.16,1.69-5,2.48-3.11,8.31-13.85C30.34,50.55,31.25,47,36,42.31a32.69,32.69,0,0,1,7.39-5.54c6.38-3.45,17.81-6.86,21.23-2.77C68.85,39.12,61,56.61,51.7,58.16c-3.6.6-7.43-1.18-13.85.92a9.72,9.72,0,0,0-4.62,2.77A9,9,0,0,0,31.33,70c.82,2.64,2.51,2.54,2.83,4.78.45,3.15-2.51,6.1-4.62,7.38-.92.57-2.63,1.61-3.69.93C24.43,82.17,25,78.68,25.85,78.47Z"/><path class="cls-15" d="M96.23,114.85a15.49,15.49,0,0,0-10.79-6.71c-7.92-.89-13,5.16-13.33,5.58"/><path class="cls-6" d="M97.76,134.1A18.27,18.27,0,0,1,93.45,137a19.34,19.34,0,0,1-12.59,1.37c-3.11-.78-5.68-2.4-8.63-4.25-.91-.57-1.65-1.08-2.16-1.44"/><path class="cls-16" d="M99,99.08a14.63,14.63,0,0,1,2-8.21,16.1,16.1,0,0,1,10.27-7.19A16.3,16.3,0,0,1,130.86,96a17.48,17.48,0,0,1,.2,4.36c-.07,1.18-.28,4.85-1.88,7.52-3.22,5.37-11.37,5.55-12.7,5.57-1.78,0-9.63-.07-14.37-6.16A15,15,0,0,1,99,99.08Z"/><path class="cls-17" d="M109,89.74a10.52,10.52,0,0,1,8.22-1,11.49,11.49,0,0,1,5.13,3.08A12,12,0,0,1,125.47,98a9.82,9.82,0,0,1-1,7.19c-2.21,3.47-6.25,4-7.19,4.11a11.08,11.08,0,0,1-6.16-1,11.41,11.41,0,0,1-5.14-5.13,10.55,10.55,0,0,1-1-8.22A9.74,9.74,0,0,1,109,89.74Z"/><path class="cls-16" d="M68.05,100.36a15.17,15.17,0,0,0-1.88-7.53A16.1,16.1,0,0,0,56,85.34a16.3,16.3,0,0,0-10.27,1,16.9,16.9,0,0,0-9.24,11.29,17.51,17.51,0,0,0-.38,5.52A15.39,15.39,0,0,0,38,109.76c3.31,5.28,11.29,5.34,12.87,5.36s9.74,0,14.38-6.16A15.18,15.18,0,0,0,68.05,100.36Z"/><path class="cls-17" d="M58.26,91.4a10.52,10.52,0,0,0-8.22-1,11.54,11.54,0,0,0-5.13,3.08,12,12,0,0,0-3.08,6.16,9.83,9.83,0,0,0,1,7.19c2.2,3.47,6.24,4,7.18,4.11a11.12,11.12,0,0,0,6.17-1,11.37,11.37,0,0,0,5.13-5.13,10.53,10.53,0,0,0,1-8.22A9.79,9.79,0,0,0,58.26,91.4Z"/><path d="M111.7,95.61a5.23,5.23,0,0,1,4.1-.51,5.57,5.57,0,0,1,2.55,1.53,5.89,5.89,0,0,1,1.54,3.07,4.4,4.4,0,0,1-4.09,5.63,5.47,5.47,0,0,1-3.08-.51,5.68,5.68,0,0,1-2.55-2.56,5.21,5.21,0,0,1-.52-4.09A4.88,4.88,0,0,1,111.7,95.61Z"/><path d="M55.62,97.32a5.27,5.27,0,0,0-4.1-.51A5.77,5.77,0,0,0,49,98.34a5.94,5.94,0,0,0-1.54,3.08,4.41,4.41,0,0,0,4.09,5.63,5.54,5.54,0,0,0,3.08-.52A5.63,5.63,0,0,0,57.15,104a5.21,5.21,0,0,0,.52-4.09A4.92,4.92,0,0,0,55.62,97.32Z"/><path class="cls-11" d="M84.93,10.16c4.45.8,8.27,2.87,15.7,7.38,8.83,5.36,10.87,8.17,12,10.16a22.08,22.08,0,0,1,2.77,10.15,21.92,21.92,0,0,1-2.77,12c-1.18,2-4.76,8.27-10.16,8.31-4.14,0-7.78-3.61-7.38-4.61s5.21.93,6.46-.93c1-1.43-.52-4.64-2.77-6.46-3.54-2.87-8.6-2-10.15-1.85-13,1.67-34.48-9-35.08-17.54C53,18.72,70.75,7.6,84.93,10.16Z"/><path d="M69.05,102.71c.47-.07.66-3.21-.06-6.12A15.42,15.42,0,0,0,66.17,91a19.15,19.15,0,0,0-6.59-5.64,15.07,15.07,0,0,0-8.46-1.88,16.54,16.54,0,0,0-8.47,3.76c-.86.76-1.78,1.77-1.88,1.88A27.85,27.85,0,0,0,38,92.83c-2.35,3.88-3.07,8.39-2.82,8.47s.67-3.17,2.82-6.59c.5-.79,6.63-10.23,16-9.4,5.81.51,9.53,4.68,10.34,5.64C68.66,96.13,68.37,102.8,69.05,102.71Z"/><path d="M98.9,100.94c-.47-.06-.65-3.2.07-6.11a15,15,0,0,1,2.82-5.64,19.33,19.33,0,0,1,6.58-5.65,15.28,15.28,0,0,1,8.47-1.88,16.49,16.49,0,0,1,8.46,3.77,21.91,21.91,0,0,1,1.88,1.88A26.49,26.49,0,0,1,130,91.07c2.36,3.88,3.08,8.38,2.83,8.46S132.16,96.36,130,93c-.5-.8-6.62-10.23-16-9.41a16,16,0,0,0-10.35,5.65C99.29,94.37,99.58,101,98.9,100.94Z"/><path class="cls-16" d="M110.06,97.06c1.84.19,3.85,1.17,3.76,1.88s-2.13,1.11-3.76.94c-1.84-.18-3.85-1.17-3.76-1.88S108.43,96.9,110.06,97.06Z"/><path class="cls-16" d="M47.17,98.18c1.84.18,3.86,1.17,3.77,1.88s-2.13,1.1-3.77.94c-1.83-.18-3.85-1.17-3.76-1.88S45.54,98,47.17,98.18Z"/><path class="cls-16" d="M120,101.21a1.65,1.65,0,0,1,1.9,1.59,1.51,1.51,0,0,1-1.32,1.32,1.64,1.64,0,0,1-1.75-1.7A1.49,1.49,0,0,1,120,101.21Z"/><path class="cls-16" d="M55.85,102.86a1.65,1.65,0,0,1,1.9,1.59,1.51,1.51,0,0,1-1.32,1.32,1.64,1.64,0,0,1-1.75-1.71A1.48,1.48,0,0,1,55.85,102.86Z"/><path class="cls-11" d="M70.73,68.8c2.3,2.25,2.79,6.65,1,8.49-.7.7-1.71,1-8.94.14-6.12-.72-6.13-1-8.58-1.12-4.23-.18-7.43.56-11.38,1.48A61.81,61.81,0,0,0,32.3,80.91c-1.85.76-3.27,1.47-3.7,1-.63-.7,1.09-3.45,2.91-5.31a17.77,17.77,0,0,1,5.88-3.77,62,62,0,0,1,10-3.93,52.09,52.09,0,0,1,17-1.91C68.14,67.18,69.61,67.69,70.73,68.8Z"/><path class="cls-11" d="M94.46,68.87c-2.29,2.25-2.79,6.66-1,8.49.71.7,1.71,1,8.94.14,6.12-.72,6.13-1,8.58-1.12,4.23-.18,7.43.57,11.38,1.49A62.67,62.67,0,0,1,132.89,81c1.86.76,3.27,1.47,3.71,1,.62-.71-1.09-3.46-2.92-5.32a17.75,17.75,0,0,0-5.88-3.76,61,61,0,0,0-10-3.93,51.6,51.6,0,0,0-17-1.91C97.06,67.25,95.58,67.77,94.46,68.87Z"/><path class="cls-18" d="M99.7,177.15a13.6,13.6,0,0,1-.92-2.25c-.36-1.2-.32-1.7-.58-1.8-.64-.24-1.2,2.37-3.11,4.05-2.18,1.93-4.3,1-4.62,2.26-.42,1.61,3.1,3.41,2.77,5.65-.21,1.4-1.73,1.25-2.77,3.39s-.53,4.44-.92,4.51-.57-4-2.77-5.64c-1.62-1.21-3.07-.08-3.69-1.13-1.07-1.8,2.78-5.8,1.84-7.91-1.18-2.67-8.66.89-10.15-2.26-.64-1.34.09-3.36,0-3.38s-.24,3.84-1.85,6.77c-1.79,3.27-4.11,2.05-5.54,4.52-1.74,3,.39,6.57.93,13.55.25,3.35,0,6.37-.93,12.42-1.7,11.77-4.9,14.16-11.08,33.82-2.12,6.78-3,10.37-4.61,17.54a63,63,0,0,0-1.85,11.08c-.29,4.69.28,5.44,0,9.83-.55,8.84-3,9.68-1.84,12.42,1.8,4.48,7.48,5.29,25.85,5.65,5,.1,6.42-.19,8.59-.15,1.28,0,1.6.12,3,.23,4,.29,6,.44,6.83-.28,1-1,.4-2.44,0-7.39-.3-3.66-.4-8.25,0-8.31s1.46,3.42,1.85,7.39c.49,5-.52,7.24.92,8.51,1.29,1.13,3.41.48,5.54,0,3.24-.74,14.4-1.27,23.5-2A71.71,71.71,0,0,1,132,298a10.52,10.52,0,0,0,6.46-2.26c3.73-3,3.22-9.52,2.77-13.22a103.34,103.34,0,0,0-10.16-33.24,262.63,262.63,0,0,1-19.38-46.13v0c-2.08-17.4-4.91-22.11-7.38-22.57-.89-.17-2.72.28-3.69-1.13h0A9.93,9.93,0,0,0,99.7,177.15Z"/><path class="cls-18" d="M94,184.09c.58-2.12,4-2.89,10.87-4.44,13-2.92,25.38-5.72,32.72,1.59,6.83,6.8,8,21.07,2.2,25.69C129,215.59,91.74,192.29,94,184.09Z"/><path class="cls-18" d="M72.5,180.55c-2-1-4.88,1-10.69,5.1-11,7.72-21.51,15.1-21,25.55.44,9.72,10.32,20.27,17.71,19.09C72.31,228.08,80.15,184.45,72.5,180.55Z"/><path class="cls-19" d="M80.32,185.56c-1.81.05-2.08-2.33-6.46-4.61-1.65-.86-2.48-1-2.77-1.85s.75-2.35,2.77-5.54c.31-.5.52-.82.92-.92,1.12-.29,1.91,1.67,3.69,2.77,2.79,1.72,5.32-.34,6.46.92C86.65,178.22,83.45,185.47,80.32,185.56Z"/><path class="cls-19" d="M93.89,184.67c2,.41,2.6-2,7.25-3.23,1.62-.43,2.77-.46,3.08-1.26s-.59-1.44-1.75-3.85-.94-3.27-1.84-3.69c-1.19-.56-2.78.38-3.69.92-2,1.2-2.11,2.37-3.7,2.77s-2.19-.46-2.77,0C89.08,177.43,90.83,184,93.89,184.67Z"/><path class="cls-20" d="M92,284.49q-.09-3-.11-6.27c-.12-16.09,1.17-16.19.92-29.36-.3-15.87-2.32-23.54-1.85-35,.14-3.38-.26-6.79,0-10.16.28-3.63.88-7.36-.92-10.16a6.76,6.76,0,0,0-.43-.6"/><ellipse class="cls-14" cx="92.78" cy="244.65" rx="1.38" ry="1.85"/><ellipse class="cls-14" cx="90.39" cy="193.12" rx="1.38" ry="1.85"/><ellipse class="cls-14" cx="92.78" cy="269.57" rx="1.38" ry="1.85"/><ellipse class="cls-14" cx="90.93" cy="218.8" rx="1.38" ry="1.85"/></g></g></svg>