<svg xmlns="http://www.w3.org/2000/svg" xmlns:xlink="http://www.w3.org/1999/xlink" viewBox="0 0 2686.57 1854"><defs><style>.cls-1,.cls-30{fill:none;}.cls-2{clip-path:url(#clip-path);}.cls-3{fill:url(#Gradiente_sem_nome_6);}.cls-4{fill:#5e204e;}.cls-5{fill:#54193e;}.cls-6{fill:#6d2457;}.cls-7{fill:#72275f;}.cls-8{fill:#e0708b;}.cls-9{fill:#bf5a72;}.cls-10{fill:#ff7d96;}.cls-11{fill:#ef7894;}.cls-12{fill:#f78ba5;}.cls-13{fill:#911c16;}.cls-14{fill:#8e1b16;}.cls-15{fill:#aa2318;}.cls-16{fill:#9b1e18;}.cls-17{fill:#ad3c1e;}.cls-18{fill:#da582c;}.cls-19{fill:#ce4e2c;}.cls-20{fill:#256358;}.cls-21{fill:#0e7c61;}.cls-22{fill:#0c866d;}.cls-23{fill:#ba5b19;}.cls-24{fill:#cc651f;}.cls-25{fill:#c1601f;}.cls-26{fill:#733e96;}.cls-27{fill:#a351cf;}.cls-28{fill:#f3dda4;}.cls-29{fill:#fff;}.cls-29,.cls-30{opacity:0.7;}.cls-30{stroke:#fff;stroke-miterlimit:10;}.cls-31{fill:#d8c18f;}.cls-32{fill:#bf3c84;}.cls-33{fill:#962c6a;}.cls-34{fill:#a3367c;}.cls-35{fill:#c1408d;}.cls-36{fill:#42404d;}.cls-37{fill:#23232d;}.cls-38{fill:#35343c;}</style><clipPath id="clip-path" transform="translate(223.57)"><rect class="cls-1" width="2265" height="1528"/></clipPath><linearGradient id="Gradiente_sem_nome_6" x1="1355.43" y1="20.91" x2="1356.62" y2="1400.37" gradientUnits="userSpaceOnUse"><stop offset="0" stop-color="#6bdce2"/><stop offset="0.27" stop-color="#4fadd0"/><stop offset="0.53" stop-color="#3786c1"/><stop offset="0.66" stop-color="#2e77bb"/></linearGradient></defs><g id="Camada_2" data-name="Camada 2"><g id="Camada_1-2" data-name="Camada 1"><g class="cls-2"><rect class="cls-3" x="223.57" width="2265" height="1522"/><path class="cls-4" d="M213.55,914.67c-.16,3.71-2.17,7.66-6.17,15.43-5.69,11-8,13.13-11.31,20.56a82.63,82.63,0,0,0-5.14,16.46c-7.42,32.8,1.56,59-11.31,73-11.54,12.59-37.68,12.26-49,4.68a13.17,13.17,0,0,1-4.46-4.68c-2.36-4.57.32-8.82,3.09-17.49,6.06-19,4.38-35.65,1-68.9A284.86,284.86,0,0,0,122,908.5c-5.53-20.38-10-36.2-22.61-53-4.73-6.29-11.25-14.95-22.62-22.63-7.56-5.1-11.24-5.71-27.77-15.43-8.67-5.1-13.47-8.35-16.21-11.14a11.82,11.82,0,0,1-3.35-5.8c-1.36-5.62.47-12.81,5.14-16.46,7.74-6.06,22-.17,29.83,3.09,4,1.65,10.53,3.6,18.51,8.22,14.64,8.5,20.94,17.24,22.64,15.92,1.22-.94-1.59-5.73-9.25-24.68-1.55-3.81-2.33-5.75-2.75-7.08-1.24-4-2.76-9.7-2.42-23.24.31-12.54.69-27.75,7.2-47.3,5.35-16.09,7.45-12.84,12.34-27.77,2.8-8.56,8.67-27.16,5.15-50.39-1.29-8.44-2.78-18.27-9.26-28.8-5.75-9.35-9.56-9.74-13.37-18.51s-6.76-24.21,1-30.85c4.33-3.7,10.26-3.25,12.34-3.09,9.64.74,16,7.83,22.63,15.43,4.93,5.66,13.09,15,17.48,29.82,3.86,13,5,30.84,5.14,33.94.52,9.12.19,14.9,4.11,17.48,3.68,2.41,8.92.58,16.46-2,12-4.2,13.5-8.14,20.57-8.23.68,0,10.78,0,15.42,7.2,3.42,5.31,2,11.54,1,15.43a29.62,29.62,0,0,1-7.2,13.36c-5.31,5.6-9.55,5.49-25.71,11.32-20.46,7.37-24.08,11.31-25.71,13.37-1.8,2.26-3.6,6.64-7.2,15.42-3.86,9.41-5.8,14.12-7.2,19.54-2.57,9.9-2.41,17.54-2,30.85.07,2.86.36,11.56,2.07,26.21C138,802,139.1,806,143.64,833.92c2.08,12.75,1.92,12.26,4.12,25.71,4.74,29,5.94,34.06,7.18,38.58,1.18,4.34,9,33,15.44,32.38,1.41-.15,2-1.64,9.24-18,3.83-8.72,6.09-12.78,9.25-15.42,3.89-3.26,10-3.76,14.4-2.06C211.26,898.17,213.83,908.22,213.55,914.67Z" transform="translate(223.57)"/><path class="cls-5" d="M144.67,1026.23a97,97,0,0,1-14.07,18.59,13.17,13.17,0,0,1-4.46-4.68c-2.36-4.57.32-8.82,3.09-17.49,6.06-19,4.38-35.65,1-68.9A284.86,284.86,0,0,0,122,908.5c-5.53-20.38-10-36.2-22.61-53-4.73-6.29-11.25-14.95-22.62-22.63-7.56-5.1-11.24-5.71-27.77-15.43-8.67-5.1-13.47-8.35-16.21-11.14,4.71.11,8.94.54,12.1.86,43.61,4.48,69.58,42.45,77.13,53.48,17.17,25.1,20.36,47.93,26.74,93.58C155.7,1003.71,148.32,1019.64,144.67,1026.23Z" transform="translate(223.57)"/><path class="cls-4" d="M230.86,985.21c.12,2.71,1.58,5.6,4.51,11.27,4.16,8.06,5.87,9.6,8.26,15a60.05,60.05,0,0,1,3.76,12c5.42,24-1.14,43.09,8.27,53.36,8.43,9.21,27.53,9,35.82,3.43a9.7,9.7,0,0,0,3.26-3.43c1.72-3.34-.23-6.44-2.26-12.78-4.43-13.9-3.2-26-.75-50.35a209.11,209.11,0,0,1,6-33.07c4-14.89,7.29-26.45,16.52-38.72,3.46-4.59,8.23-10.92,16.54-16.53,5.52-3.73,8.21-4.17,20.29-11.28,6.33-3.72,9.84-6.1,11.84-8.14a8.58,8.58,0,0,0,2.45-4.24c1-4.1-.34-9.36-3.75-12-5.66-4.42-16.05-.12-21.8,2.26-2.94,1.21-7.69,2.63-13.53,6-10.7,6.21-15.3,12.6-16.55,11.63-.88-.69,1.17-4.19,6.77-18,1.13-2.79,1.7-4.2,2-5.18.91-2.9,2-7.09,1.77-17-.22-9.17-.5-20.28-5.26-34.57-3.91-11.75-5.44-9.38-9-20.29-2-6.25-6.33-19.85-3.76-36.83.94-6.17,2-13.34,6.77-21,4.2-6.83,7-7.12,9.77-13.53s4.94-17.69-.75-22.54c-3.17-2.71-7.5-2.38-9-2.26-7,.54-11.69,5.72-16.54,11.27-3.6,4.14-9.56,11-12.77,21.8-2.83,9.53-3.63,22.53-3.76,24.8-.38,6.67-.14,10.89-3,12.78-2.68,1.75-6.51.42-12-1.51-8.76-3.06-9.87-5.94-15-6-.5,0-7.89,0-11.28,5.26-2.49,3.88-1.42,8.43-.75,11.27a21.8,21.8,0,0,0,5.26,9.78c3.89,4.08,7,4,18.79,8.26,15,5.39,17.6,8.27,18.79,9.77,1.32,1.66,2.63,4.86,5.26,11.28,2.83,6.87,4.24,10.31,5.26,14.27,1.88,7.23,1.77,12.82,1.51,22.55-.06,2.09-.27,8.45-1.52,19.15-1.14,9.75-1.94,12.66-5.26,33.07-1.52,9.32-1.4,9-3,18.79-3.46,21.18-4.34,24.89-5.24,28.2s-6.6,24.14-11.29,23.65c-1-.1-1.49-1.19-6.75-13.13-2.81-6.38-4.45-9.34-6.77-11.28a11,11,0,0,0-10.52-1.5C232.53,973.16,230.65,980.5,230.86,985.21Z" transform="translate(223.57)"/><path class="cls-4" d="M289.63,964.26c-.91,1.42-1.21,3.41-1.77,7.33-.78,5.57-.47,7-1.21,10.57a37.21,37.21,0,0,1-2.42,7.43c-5.86,14.08-16,21.39-15,30,1,7.69,10.71,14.42,16.89,14.59a5.83,5.83,0,0,0,2.88-.56c2.07-1.07,2.2-3.34,3.45-7.27,2.75-8.63,7.73-14.34,17.7-25.75A128.45,128.45,0,0,1,325.09,986c7.39-6.09,13.18-10.77,22.26-13.66a41.21,41.21,0,0,1,14.3-2.43c4.14.1,5.66.84,14.32,1.58,4.54.39,7.17.45,8.92.13a5.41,5.41,0,0,0,2.76-1.26,7.64,7.64,0,0,0,2.41-7.44c-1.27-4.27-8.07-5.82-11.83-6.68a54.16,54.16,0,0,0-9-1.82c-7.64-.7-12.26.88-12.55,0-.2-.67,2.1-1.71,9.9-6.7,1.57-1,2.37-1.52,2.88-1.9,1.5-1.14,3.56-2.86,7-8,3.18-4.72,7-10.44,9.75-19.38,2.25-7.35.62-6.7,2.73-13.5a48.36,48.36,0,0,1,11.32-20c2.69-2.79,5.82-6,11-8.22,4.57-2,6.09-1.09,9.8-3.34s8.85-7.18,7.71-11.68c-.63-2.5-2.94-3.89-3.75-4.38-3.76-2.25-8-1.3-12.42-.23a35,35,0,0,0-14.29,6.44c-4.85,3.81-9.92,10.1-10.8,11.2-2.59,3.24-4,5.46-6.11,5.39s-3.45-2.13-5.54-5.08c-3.34-4.7-2.86-6.55-5.45-8.44-.25-.18-4-2.83-7.59-1.38-2.66,1.06-3.75,3.75-4.43,5.43a13.38,13.38,0,0,0-.85,6.83c.5,3.46,2.1,4.53,6.54,10.93,5.63,8.1,5.94,10.5,6,11.69s-.41,3.4-1.39,7.59a69.46,69.46,0,0,1-2.46,9.12c-1.65,4.33-3.71,7.11-7.34,11.94-.77,1-3.16,4.18-7.64,9.15-4.08,4.52-5.53,5.71-14.53,14.84-4.12,4.17-3.93,4-8.27,8.43-9.36,9.47-11.13,11-12.78,12.38s-12,9.85-14.2,7.92c-.49-.42-.33-1.14,1.3-9.07.87-4.23,1.1-6.33.62-8.13a6.82,6.82,0,0,0-4.78-4.54C294.81,958.77,291.22,961.81,289.63,964.26Z" transform="translate(223.57)"/><path class="cls-6" d="M138.72,949.83c.45,2.68-.38,5.81-2.05,12-2.39,8.75-3.74,10.61-4.94,16.43a59.53,59.53,0,0,0-1.16,12.54c-.29,24.58,10.13,41.9,3.07,53.91-6.32,10.77-25,14.53-34.31,10.84a9.4,9.4,0,0,1-3.9-2.67c-2.38-2.9-1.12-6.34-.47-13,1.43-14.53-2.32-26.15-9.8-49.4a207.81,207.81,0,0,0-12.79-31.08C65.31,945.69,59.71,935.07,48.12,925c-4.34-3.76-10.33-9-19.63-12.71-6.18-2.49-8.91-2.36-22.2-6.78C-.69,903.19-4.61,901.6-7,900a8.55,8.55,0,0,1-3.28-3.63c-1.83-3.8-1.62-9.22,1.16-12.54,4.6-5.51,15.66-3.48,21.78-2.36,3.13.57,8.08,1,14.49,3,11.76,3.83,17.6,9.12,18.62,7.92.72-.86-2-3.86-10.39-16.23-1.69-2.49-2.54-3.75-3.05-4.64-1.49-2.65-3.45-6.51-5.27-16.23-1.7-9-3.75-19.94-2.09-34.91,1.36-12.31,3.36-10.31,4.58-21.73.69-6.54,2-20.73-4-36.8-2.21-5.83-4.78-12.62-11-19.16C9,737,6.18,737.26,2.12,731.58s-8.53-16.27-4-22.21c2.53-3.31,6.84-3.89,8.35-4.09,7-.94,12.62,3.15,18.52,7.57,4.4,3.28,11.65,8.72,17.06,18.64,4.75,8.72,8.25,21.27,8.86,23.46,1.77,6.44,2.41,10.62,5.61,11.87,3,1.16,6.46-1,11.44-4,7.93-4.83,8.41-7.87,13.44-9,.49-.11,7.71-1.65,12.13,2.79,3.25,3.27,3.15,7.95,3.09,10.86a21.58,21.58,0,0,1-3.1,10.66c-2.94,4.81-6,5.38-16.64,12-13.5,8.4-15.49,11.77-16.33,13.49-.94,1.89-1.56,5.29-2.79,12.12-1.33,7.32-2,11-2.16,15.06-.32,7.47,1,12.9,3.25,22.37.49,2,2,8.2,5.49,18.4,3.15,9.3,4.54,12,12.06,31.24,3.43,8.8,3.24,8.47,6.87,17.75,7.82,20,9.45,23.43,11,26.47s11.51,22.23,16,20.78c1-.32,1.21-1.48,3.85-14.26,1.41-6.82,2.4-10.07,4.26-12.44a11,11,0,0,1,10-3.67C134.56,938.39,137.93,945.18,138.72,949.83Z" transform="translate(223.57)"/><path class="cls-5" d="M106.55,1040.09a71.51,71.51,0,0,1-7.22,15.43,9.4,9.4,0,0,1-3.9-2.67c-2.38-2.9-1.12-6.34-.47-13,1.43-14.53-2.32-26.15-9.8-49.4a207.81,207.81,0,0,0-12.79-31.08C65.31,945.69,59.71,935.07,48.12,925c-4.34-3.76-10.33-9-19.63-12.71-6.18-2.49-8.91-2.36-22.2-6.78C-.69,903.19-4.61,901.6-7,900c3.39-.64,6.47-1,8.78-1.23C33.63,895.33,58,918.5,65.07,925.22,81.18,940.53,87,956.36,98.48,988,111,1022.31,108.15,1034.82,106.55,1040.09Z" transform="translate(223.57)"/><path class="cls-7" d="M242.14,933.41c-1.71,6.2-2,16.09,3.6,21.58,9.67,9.47,34.28,3.36,49.42-8.82,12.46-10,13.54-20.24,25.6-22.95,7-1.57,16.46-.32,18.54,4.41,3.76,8.55-17.67,25.94-26.55,33.15-10.73,8.7-12.71,8.13-28.18,19.81-12.65,9.56-19.28,14.35-25.59,22.07-13.22,16.19-10.5,24.53-18.54,34.42-13.57,16.7-45,21.94-71.45,15.15-12.52-3.22-23.92-9.13-31.81-17.8-11.59-12.74-14.65-30.44-15-32.66-.88-5.5-2-13.12,1.77-15.88,4.32-3.15,11.73,2.38,22,6.66,4.17,1.74,33,13.78,46.78,4.41,10.69-7.28,9.75-25.84,8-60.5a208.07,208.07,0,0,0-4.14-34.92c-.08-.42-.17-.84-.27-1.27-4.4-20.22-8.08-21.45-9.78-36.58-1.31-11.68-.43-22.58.88-38.84.55-6.77,1.59-16.89-1.69-28.73-.46-1.66-.44-1.33-2.37-7.67-4.54-14.92-4.48-16.26-6.53-21.85-3.47-9.45-4.53-8.05-7.06-15.89-2.81-8.74-4.77-14.8-1.69-19.9,3-4.95,10-7.8,15.81-6.58,6.91,1.47,10.47,8.43,16.77,21.19a146.76,146.76,0,0,1,8.83,22.06c2.89,9.56,8.21,27.72,7.94,51.19-.18,16.35-1.69,29.53-1.69,29.53-1.59,13.93-3.41,18.83,0,23.83,4.69,6.87,15.69,10.14,24.71,7.06s12.86-11.86,15-16.77c4.91-11.21,4.12-23.13,3.46-33.05-.78-11.6-2.66-15,.07-18.14,4.77-5.48,18.76-4.61,24.71,2.65,4.5,5.48,3.24,13.16,1.69,22.55-2.34,14.24-8.16,23.45-6.17,24.71.64.41,1.73-.28,6.17-3.53,7.21-5.25,10.81-7.88,12.43-9.31,5.92-5.2,16.58-14.56,23.76-29.53,5.14-10.7,3.19-13.2,9.78-25.19,4.56-8.27,8.51-15.24,15-15.89,5.52-.56,11.3,3.61,14.05,8.43,5.5,9.68-1,22.57-7.06,34.42a148.76,148.76,0,0,1-24.72,34.42C312.36,872,294.4,890.93,266,909.1,256.13,915.44,245.44,921.39,242.14,933.41Z" transform="translate(223.57)"/><path class="cls-5" d="M210.36,989.9c-4.75,14.16-11.22,23.26-18.53,33.54-8.35,11.74-15.69,22-22.84,28.79-12.52-3.22-23.92-9.13-31.81-17.8-11.59-12.74-14.65-30.44-15-32.66-.88-5.5-2-13.12,1.77-15.88,4.32-3.15,11.73,2.38,22,6.66,4.17,1.74,33,13.78,46.78,4.41,10.69-7.28,9.75-25.84,8-60.5a208.07,208.07,0,0,0-4.14-34.92,11.16,11.16,0,0,1,6.72,1c5,2.58,6.5,9,7.94,21.19C215,955,216.83,970.61,210.36,989.9Z" transform="translate(223.57)"/><path class="cls-8" d="M547.37,950.17c-.16,3.72-2.17,7.67-6.17,15.43-5.7,11-8,13.13-11.31,20.57a82.57,82.57,0,0,0-5.14,16.45c-7.42,32.81,1.56,59-11.32,73-11.54,12.6-37.68,12.27-49,4.69a13,13,0,0,1-4.46-4.69c-2.36-4.57.31-8.81,3.08-17.48,6.07-19,4.38-35.66,1-68.91A283.44,283.44,0,0,0,455.84,944c-5.52-20.38-10-36.2-22.6-53-4.73-6.28-11.25-14.94-22.63-22.62-7.56-5.11-11.24-5.71-27.76-15.43-8.67-5.1-13.48-8.35-16.21-11.15a11.66,11.66,0,0,1-3.35-5.8c-1.36-5.61.47-12.8,5.14-16.45,7.73-6.06,21.95-.18,29.82,3.08,4,1.66,10.53,3.6,18.51,8.23,14.65,8.49,20.94,17.24,22.65,15.92,1.21-.95-1.6-5.74-9.26-24.68-1.54-3.82-2.32-5.75-2.74-7.09-1.25-4-2.76-9.7-2.42-23.23.31-12.55.69-27.76,7.2-47.31,5.35-16.08,7.44-12.83,12.34-27.76,2.8-8.56,8.67-27.16,5.14-50.4-1.28-8.44-2.77-18.26-9.25-28.79-5.75-9.35-9.57-9.74-13.37-18.51s-6.76-24.21,1-30.86c4.32-3.7,10.26-3.25,12.34-3.08,9.63.74,16,7.83,22.62,15.43,4.94,5.65,13.09,15,17.48,29.82,3.87,13,5,30.83,5.15,33.94.52,9.12.18,14.9,4.11,17.48,3.67,2.41,8.92.58,16.45-2.06,12-4.19,13.51-8.13,20.57-8.22.68,0,10.79,0,15.43,7.19,3.41,5.31,1.94,11.54,1,15.43a29.69,29.69,0,0,1-7.2,13.37c-5.32,5.59-9.56,5.48-25.71,11.31-20.47,7.38-24.09,11.32-25.71,13.37-1.8,2.26-3.6,6.65-7.2,15.43-3.87,9.41-5.8,14.12-7.2,19.54-2.57,9.89-2.42,17.53-2.06,30.85.08,2.86.36,11.56,2.08,26.2,1.56,13.34,2.65,17.33,7.2,45.25,2.08,12.76,1.91,12.26,4.11,25.71,4.74,29,5.95,34.07,7.18,38.59,1.18,4.34,9,33,15.45,32.37,1.41-.14,2-1.63,9.23-18,3.84-8.72,6.09-12.79,9.26-15.43,3.89-3.26,9.95-3.75,14.4-2.05C545.08,933.68,547.65,943.73,547.37,950.17Z" transform="translate(223.57)"/><path class="cls-9" d="M478.49,1061.74a97.29,97.29,0,0,1-14.07,18.59,13,13,0,0,1-4.46-4.69c-2.36-4.57.31-8.81,3.08-17.48,6.07-19,4.38-35.66,1-68.91A283.44,283.44,0,0,0,455.84,944c-5.52-20.38-10-36.2-22.6-53-4.73-6.28-11.25-14.94-22.63-22.62-7.56-5.11-11.24-5.71-27.76-15.43-8.67-5.1-13.48-8.35-16.21-11.15,4.71.11,8.94.55,12.09.87,43.62,4.48,69.58,42.45,77.13,53.47,17.18,25.11,20.37,47.94,26.74,93.59C489.51,1039.21,482.14,1055.14,478.49,1061.74Z" transform="translate(223.57)"/><path class="cls-8" d="M564.67,1020.72c.12,2.71,1.59,5.59,4.51,11.27,4.17,8.06,5.88,9.6,8.27,15a60.65,60.65,0,0,1,3.76,12c5.42,24-1.15,43.09,8.26,53.36,8.44,9.21,27.54,9,35.82,3.43a9.37,9.37,0,0,0,3.26-3.43c1.73-3.33-.23-6.44-2.25-12.77-4.43-13.91-3.2-26.06-.75-50.36a206.7,206.7,0,0,1,6-33.06c4-14.9,7.28-26.46,16.52-38.72,3.46-4.6,8.22-10.92,16.53-16.54,5.53-3.73,8.22-4.17,20.3-11.27,6.33-3.73,9.84-6.1,11.84-8.15a8.54,8.54,0,0,0,2.45-4.24c1-4.1-.35-9.35-3.76-12-5.65-4.43-16-.13-21.79,2.25-2.94,1.21-7.7,2.63-13.53,6-10.7,6.2-15.3,12.59-16.55,11.63-.89-.69,1.17-4.19,6.76-18,1.13-2.79,1.7-4.2,2-5.18.91-2.9,2-7.08,1.77-17-.23-9.17-.51-20.29-5.26-34.57-3.91-11.76-5.44-9.38-9-20.3-2.05-6.25-6.34-19.84-3.76-36.82.94-6.17,2-13.35,6.76-21,4.2-6.84,7-7.12,9.77-13.53s4.94-17.69-.75-22.55c-3.16-2.7-7.5-2.37-9-2.25-7,.54-11.68,5.72-16.53,11.27-3.61,4.13-9.57,11-12.78,21.79-2.82,9.53-3.62,22.54-3.75,24.81-.39,6.66-.14,10.89-3,12.77-2.68,1.76-6.52.42-12-1.5-8.76-3.07-9.86-5.95-15-6-.49,0-7.88,0-11.27,5.26-2.49,3.88-1.42,8.43-.75,11.27a21.63,21.63,0,0,0,5.26,9.77c3.89,4.09,7,4,18.79,8.27,14.95,5.39,17.6,8.26,18.79,9.77s2.63,4.85,5.26,11.27C618.6,879.54,620,883,621,886.94c1.88,7.23,1.77,12.81,1.5,22.55,0,2.09-.26,8.44-1.52,19.15-1.14,9.74-1.94,12.66-5.26,33.06-1.52,9.32-1.39,9-3,18.79-3.47,21.19-4.35,24.89-5.25,28.2s-6.6,24.14-11.29,23.66c-1-.11-1.49-1.2-6.75-13.14-2.8-6.37-4.45-9.34-6.76-11.27a11,11,0,0,0-10.52-1.5C566.35,1008.66,564.47,1016,564.67,1020.72Z" transform="translate(223.57)"/><path class="cls-8" d="M623.45,999.77c-.92,1.42-1.21,3.4-1.77,7.32-.79,5.57-.47,7-1.21,10.58a37.87,37.87,0,0,1-2.42,7.43c-5.87,14.08-16,21.39-15,30,1,7.68,10.71,14.42,16.89,14.59a6,6,0,0,0,2.88-.56c2.07-1.07,2.19-3.35,3.45-7.28,2.74-8.62,7.73-14.33,17.69-25.74a128.64,128.64,0,0,1,14.92-14.58c7.39-6.08,13.18-10.77,22.26-13.66a41.45,41.45,0,0,1,14.3-2.43c4.13.1,5.65.84,14.31,1.59,4.55.38,7.18.44,8.92.13a5.38,5.38,0,0,0,2.76-1.27,7.61,7.61,0,0,0,2.42-7.43c-1.27-4.27-8.07-5.83-11.84-6.69a54.44,54.44,0,0,0-9-1.81c-7.64-.7-12.27.88-12.55-.06-.2-.67,2.09-1.7,9.9-6.69,1.57-1,2.36-1.52,2.87-1.9,1.5-1.15,3.57-2.87,7-8,3.18-4.72,7-10.44,9.75-19.38,2.24-7.35.62-6.7,2.72-13.51a48.48,48.48,0,0,1,11.32-20c2.69-2.78,5.82-6,11-8.22,4.58-1.94,6.09-1.09,9.8-3.33s8.85-7.18,7.72-11.68c-.63-2.51-2.95-3.9-3.76-4.38-3.75-2.25-8-1.3-12.41-.23a34.74,34.74,0,0,0-14.29,6.44c-4.85,3.81-9.92,10.1-10.81,11.2-2.58,3.23-4,5.46-6.1,5.38s-3.45-2.12-5.55-5.08c-3.33-4.69-2.86-6.55-5.45-8.43-.24-.19-4-2.83-7.59-1.39-2.65,1.07-3.74,3.76-4.43,5.43a13.58,13.58,0,0,0-.84,6.84c.5,3.46,2.09,4.53,6.54,10.93,5.63,8.09,5.93,10.5,6,11.68s-.42,3.41-1.39,7.6a69.22,69.22,0,0,1-2.46,9.11c-1.65,4.33-3.71,7.12-7.34,11.95-.78,1-3.17,4.18-7.64,9.14-4.08,4.52-5.53,5.71-14.54,14.85-4.11,4.17-3.92,4-8.26,8.42-9.36,9.48-11.14,11-12.78,12.39s-12,9.84-14.21,7.91c-.48-.42-.32-1.14,1.3-9.07.87-4.23,1.11-6.32.63-8.13a6.86,6.86,0,0,0-4.78-4.54C628.62,994.27,625,997.31,623.45,999.77Z" transform="translate(223.57)"/><path class="cls-10" d="M472.54,985.34c.45,2.68-.38,5.8-2.06,12-2.38,8.75-3.74,10.62-4.94,16.43a61,61,0,0,0-1.16,12.55c-.28,24.57,10.13,41.89,3.08,53.91-6.32,10.76-25,14.52-34.31,10.84a9.7,9.7,0,0,1-3.91-2.67c-2.38-2.9-1.12-6.35-.46-13,1.42-14.52-2.32-26.15-9.8-49.39a205.79,205.79,0,0,0-12.8-31.08c-7.06-13.73-12.65-24.35-24.25-34.41-4.34-3.77-10.32-9-19.62-12.71-6.19-2.49-8.91-2.36-22.2-6.78-7-2.32-10.91-3.91-13.29-5.49a8.55,8.55,0,0,1-3.28-3.63c-1.83-3.81-1.62-9.23,1.16-12.55,4.6-5.51,15.66-3.48,21.78-2.35,3.13.57,8.08,1,14.49,3,11.76,3.83,17.59,9.12,18.61,7.91.73-.86-2-3.85-10.38-16.22-1.69-2.49-2.54-3.75-3.05-4.64-1.49-2.65-3.45-6.51-5.28-16.24-1.69-9-3.75-19.94-2.08-34.9,1.36-12.32,3.36-10.31,4.57-21.73.69-6.54,2.05-20.74-4-36.8-2.21-5.84-4.78-12.63-11-19.16-5.54-5.81-8.32-5.5-12.38-11.19s-8.53-16.27-4-22.2c2.52-3.31,6.83-3.89,8.34-4.09,7-.95,12.63,3.14,18.53,7.56,4.39,3.29,11.65,8.73,17.05,18.64,4.76,8.73,8.26,21.28,8.86,23.47,1.77,6.44,2.41,10.62,5.62,11.86,3,1.16,6.45-1,11.44-4,7.93-4.83,8.41-7.88,13.44-9,.48-.12,7.71-1.65,12.12,2.78,3.26,3.27,3.16,7.95,3.1,10.87a21.75,21.75,0,0,1-3.1,10.65c-2.95,4.81-6,5.38-16.65,12-13.5,8.39-15.48,11.76-16.33,13.48-.94,1.89-1.55,5.3-2.78,12.13-1.33,7.31-2,11-2.16,15.06-.33,7.46.95,12.9,3.24,22.36.49,2,2,8.21,5.49,18.41,3.16,9.29,4.55,12,12.06,31.24,3.44,8.79,3.24,8.46,6.87,17.74,7.82,20,9.46,23.43,11,26.48s11.5,22.22,16,20.77c1-.32,1.2-1.48,3.85-14.26,1.41-6.81,2.4-10.06,4.26-12.43a11,11,0,0,1,10-3.67C468.38,973.9,471.75,980.69,472.54,985.34Z" transform="translate(223.57)"/><path class="cls-11" d="M440.36,1075.59a71.18,71.18,0,0,1-7.21,15.44,9.7,9.7,0,0,1-3.91-2.67c-2.38-2.9-1.12-6.35-.46-13,1.42-14.52-2.32-26.15-9.8-49.39a205.79,205.79,0,0,0-12.8-31.08c-7.06-13.73-12.65-24.35-24.25-34.41-4.34-3.77-10.32-9-19.62-12.71-6.19-2.49-8.91-2.36-22.2-6.78-7-2.32-10.91-3.91-13.29-5.49,3.38-.64,6.47-1,8.77-1.23,31.86-3.46,56.22,19.7,63.3,26.43C415,976,420.76,991.87,432.3,1023.52,444.8,1057.81,442,1070.32,440.36,1075.59Z" transform="translate(223.57)"/><path class="cls-12" d="M576,968.92c-1.7,6.2-2,16.08,3.6,21.58,9.68,9.47,34.28,3.35,49.43-8.83,12.45-10,13.54-20.23,25.6-22.94,7-1.58,16.46-.32,18.53,4.41,3.76,8.54-17.67,25.94-26.55,33.14-10.72,8.7-12.71,8.14-28.17,19.82-12.65,9.55-19.29,14.35-25.6,22.06-13.22,16.2-10.49,24.54-18.53,34.42-13.58,16.7-45,22-71.45,15.16-12.52-3.22-23.93-9.14-31.82-17.8-11.59-12.75-14.64-30.45-15-32.66-.89-5.51-2-13.13,1.76-15.89,4.33-3.14,11.74,2.38,22,6.67,4.16,1.73,33,13.77,46.78,4.41,10.68-7.28,9.75-25.84,8-60.51a208.92,208.92,0,0,0-4.14-34.91l-.27-1.27c-4.41-20.22-8.08-21.45-9.78-36.59-1.32-11.67-.43-22.57.88-38.83.55-6.77,1.59-16.9-1.69-28.73-.46-1.66-.45-1.33-2.37-7.67-4.55-14.93-4.48-16.27-6.53-21.86-3.47-9.45-4.53-8-7.06-15.88-2.82-8.74-4.78-14.8-1.7-19.91,3-4.95,10-7.8,15.82-6.57,6.9,1.46,10.47,8.43,16.77,21.18A147.44,147.44,0,0,1,543.3,803c2.88,9.56,8.2,27.71,7.94,51.19-.19,16.35-1.7,29.52-1.7,29.52-1.58,13.94-3.4,18.84,0,23.83,4.7,6.88,15.7,10.14,24.72,7.06s12.86-11.86,15-16.77c4.92-11.2,4.12-23.12,3.46-33.05-.77-11.6-2.65-15,.07-18.14,4.78-5.48,18.77-4.6,24.72,2.65,4.5,5.48,3.24,13.17,1.69,22.55-2.35,14.25-8.16,23.45-6.18,24.72.65.41,1.73-.29,6.18-3.54,7.2-5.25,10.8-7.88,12.43-9.31,5.92-5.2,16.57-14.55,23.76-29.52,5.14-10.71,3.18-13.2,9.78-25.2,4.55-8.27,8.51-15.23,15-15.89,5.53-.55,11.31,3.61,14.05,8.43,5.51,9.68-.94,22.58-7.06,34.42a148.93,148.93,0,0,1-24.71,34.43c-16.28,17.15-34.24,36.07-62.6,54.23C590,951,579.25,956.9,576,968.92Z" transform="translate(223.57)"/><path class="cls-13" d="M1150.28,916.46c.16,3.71,2.17,7.66,6.17,15.42,5.7,11,8,13.14,11.31,20.57a82.63,82.63,0,0,1,5.14,16.46c7.42,32.8-1.56,58.95,11.32,73,11.53,12.6,37.68,12.27,49,4.69a12.94,12.94,0,0,0,4.46-4.69c2.36-4.56-.32-8.81-3.08-17.48-6.07-19-4.38-35.66-1-68.9a283.19,283.19,0,0,1,8.23-45.25c5.52-20.39,10-36.2,22.6-53,4.73-6.28,11.25-14.94,22.63-22.62,7.56-5.1,11.24-5.71,27.76-15.43,8.67-5.1,13.48-8.35,16.21-11.15a11.66,11.66,0,0,0,3.35-5.8c1.36-5.61-.47-12.8-5.14-16.45-7.73-6.06-22-.18-29.82,3.08-4,1.66-10.53,3.6-18.51,8.23-14.65,8.5-20.94,17.24-22.65,15.92-1.21-.94,1.6-5.74,9.26-24.68,1.54-3.82,2.32-5.75,2.74-7.09,1.25-4,2.76-9.69,2.42-23.23-.31-12.54-.69-27.75-7.2-47.3-5.35-16.09-7.45-12.84-12.34-27.77-2.8-8.56-8.67-27.16-5.14-50.39,1.28-8.45,2.77-18.27,9.25-28.8,5.75-9.35,9.57-9.74,13.37-18.51s6.76-24.21-1-30.85c-4.33-3.71-10.26-3.25-12.34-3.09-9.63.74-16,7.83-22.62,15.43-4.94,5.65-13.09,15-17.48,29.82-3.87,13-5,30.83-5.15,33.94-.52,9.12-.18,14.9-4.11,17.48-3.67,2.41-8.92.58-16.46-2-12-4.2-13.5-8.14-20.56-8.23-.68,0-10.79,0-15.43,7.2-3.41,5.3-1.94,11.54-1,15.42a29.69,29.69,0,0,0,7.2,13.37c5.32,5.6,9.56,5.48,25.71,11.31,20.47,7.38,24.09,11.32,25.71,13.37,1.8,2.27,3.6,6.65,7.2,15.43,3.87,9.41,5.8,14.12,7.2,19.54,2.57,9.89,2.42,17.53,2.06,30.85-.08,2.86-.36,11.56-2.08,26.21-1.56,13.33-2.65,17.32-7.2,45.25-2.08,12.75-1.91,12.25-4.11,25.71-4.74,29-5.95,34.06-7.18,38.58-1.18,4.34-9,33-15.45,32.38-1.41-.15-2-1.64-9.23-18-3.84-8.72-6.09-12.78-9.26-15.43-3.89-3.26-10-3.75-14.4-2.05C1152.57,900,1150,910,1150.28,916.46Z" transform="translate(223.57)"/><path class="cls-14" d="M1219.16,1028a97,97,0,0,0,14.07,18.59,12.94,12.94,0,0,0,4.46-4.69c2.36-4.56-.32-8.81-3.08-17.48-6.07-19-4.38-35.66-1-68.9a283.19,283.19,0,0,1,8.23-45.25c5.52-20.39,10-36.2,22.6-53,4.73-6.28,11.25-14.94,22.63-22.62,7.56-5.1,11.24-5.71,27.76-15.43,8.67-5.1,13.48-8.35,16.21-11.15-4.71.12-8.94.55-12.09.87-43.62,4.48-69.58,42.45-77.13,53.47-17.18,25.11-20.37,47.94-26.74,93.59C1208.14,1005.5,1215.51,1021.43,1219.16,1028Z" transform="translate(223.57)"/><path class="cls-13" d="M1133,987c-.12,2.71-1.59,5.6-4.51,11.27-4.17,8.06-5.88,9.6-8.27,15a60.51,60.51,0,0,0-3.76,12c-5.42,24,1.14,43.08-8.26,53.36-8.44,9.2-27.54,9-35.82,3.42a9.54,9.54,0,0,1-3.27-3.42c-1.72-3.34.24-6.44,2.26-12.78,4.43-13.9,3.2-26.06.75-50.35a206.66,206.66,0,0,0-6-33.07c-4-14.9-7.28-26.46-16.52-38.72-3.46-4.59-8.22-10.92-16.53-16.54-5.53-3.72-8.22-4.17-20.3-11.27-6.33-3.73-9.84-6.1-11.84-8.15a8.56,8.56,0,0,1-2.45-4.23c-1-4.11.35-9.36,3.76-12,5.65-4.43,16-.13,21.79,2.26,2.94,1.21,7.7,2.63,13.53,6,10.7,6.21,15.3,12.59,16.55,11.63.89-.69-1.17-4.19-6.76-18-1.13-2.79-1.7-4.21-2-5.18-.91-2.9-2-7.09-1.77-17,.23-9.17.51-20.28,5.26-34.57,3.91-11.76,5.44-9.38,9-20.29,2-6.26,6.34-19.85,3.76-36.83-.94-6.17-2-13.35-6.76-21-4.21-6.83-7-7.12-9.77-13.53s-4.94-17.69.75-22.55c3.16-2.7,7.5-2.37,9-2.25,7,.54,11.68,5.72,16.53,11.27,3.61,4.14,9.57,11,12.78,21.8,2.82,9.53,3.62,22.53,3.75,24.8.39,6.66.14,10.89,3,12.77,2.68,1.76,6.52.42,12-1.5,8.77-3.07,9.87-5.94,15-6,.49,0,7.88,0,11.27,5.26,2.49,3.88,1.42,8.43.75,11.27a21.63,21.63,0,0,1-5.26,9.77c-3.89,4.09-7,4-18.79,8.27-15,5.39-17.6,8.27-18.79,9.77-1.31,1.65-2.63,4.85-5.26,11.27-2.82,6.88-4.24,10.32-5.26,14.28-1.88,7.23-1.77,12.82-1.5,22.55.05,2.09.26,8.45,1.52,19.15,1.14,9.75,1.93,12.66,5.26,33.07,1.51,9.32,1.39,9,3,18.78,3.47,21.19,4.35,24.9,5.25,28.2s6.6,24.14,11.29,23.66c1-.1,1.48-1.19,6.75-13.14,2.8-6.37,4.44-9.34,6.76-11.27a11,11,0,0,1,10.52-1.5C1131.3,974.94,1133.18,982.29,1133,987Z" transform="translate(223.57)"/><path class="cls-13" d="M1074.2,966.05c.92,1.42,1.21,3.4,1.77,7.32.79,5.58.47,7,1.21,10.58a37.21,37.21,0,0,0,2.42,7.43c5.86,14.08,16.05,21.39,15,30-1,7.68-10.71,14.42-16.89,14.59a6,6,0,0,1-2.88-.56c-2.07-1.07-2.19-3.34-3.45-7.27-2.74-8.63-7.73-14.34-17.69-25.75a128.21,128.21,0,0,0-14.92-14.57c-7.39-6.09-13.18-10.78-22.26-13.66a41,41,0,0,0-14.3-2.43c-4.13.09-5.65.83-14.31,1.58-4.55.39-7.18.44-8.92.13a5.26,5.26,0,0,1-2.76-1.27,7.61,7.61,0,0,1-2.42-7.43c1.27-4.27,8.07-5.83,11.84-6.68a53.19,53.19,0,0,1,9-1.82c7.64-.7,12.26.88,12.55-.05.2-.67-2.09-1.71-9.9-6.7-1.57-1-2.37-1.52-2.87-1.9-1.5-1.14-3.57-2.86-7-8-3.18-4.72-7-10.44-9.75-19.38-2.24-7.35-.62-6.7-2.72-13.5a48.44,48.44,0,0,0-11.32-20c-2.69-2.78-5.82-6-11-8.21-4.58-1.95-6.09-1.1-9.8-3.34S934,868,935.11,863.5c.63-2.5,2.95-3.89,3.76-4.38,3.75-2.25,8-1.3,12.41-.23a35,35,0,0,1,14.29,6.44c4.85,3.81,9.92,10.1,10.81,11.2,2.58,3.24,4,5.46,6.1,5.38s3.45-2.12,5.55-5.07c3.33-4.7,2.86-6.55,5.44-8.44.25-.18,4-2.83,7.6-1.39,2.65,1.07,3.74,3.76,4.42,5.44a13.38,13.38,0,0,1,.85,6.83c-.5,3.46-2.09,4.53-6.54,10.93-5.63,8.09-5.94,10.5-6,11.69s.42,3.4,1.39,7.59a69.22,69.22,0,0,0,2.46,9.11c1.65,4.34,3.71,7.12,7.34,11.95.78,1,3.16,4.18,7.64,9.14,4.08,4.53,5.53,5.72,14.54,14.85,4.11,4.17,3.92,4,8.26,8.42,9.36,9.48,11.14,11,12.78,12.39s12,9.84,14.21,7.92c.48-.43.32-1.14-1.3-9.07-.87-4.24-1.11-6.33-.63-8.14a6.82,6.82,0,0,1,4.78-4.53C1069,960.55,1072.61,963.6,1074.2,966.05Z" transform="translate(223.57)"/><path class="cls-15" d="M1225.11,951.62c-.45,2.68.38,5.81,2.06,12,2.38,8.75,3.74,10.61,4.94,16.42a61,61,0,0,1,1.16,12.55c.28,24.58-10.13,41.89-3.08,53.91,6.32,10.76,25,14.52,34.31,10.84a9.6,9.6,0,0,0,3.91-2.67c2.38-2.9,1.12-6.35.46-13-1.42-14.53,2.32-26.15,9.8-49.4a206.29,206.29,0,0,1,12.8-31.08c7.06-13.72,12.65-24.35,24.25-34.41,4.34-3.77,10.32-9,19.62-12.71,6.18-2.49,8.91-2.36,22.2-6.78,7-2.32,10.91-3.91,13.29-5.49a8.55,8.55,0,0,0,3.28-3.63c1.83-3.81,1.62-9.22-1.16-12.55-4.6-5.51-15.66-3.48-21.78-2.35-3.13.57-8.08,1-14.49,3.05-11.76,3.83-17.59,9.12-18.61,7.92-.73-.87,2-3.86,10.38-16.23,1.69-2.49,2.54-3.75,3-4.64,1.49-2.65,3.45-6.51,5.28-16.23,1.69-9,3.75-19.95,2.08-34.91-1.36-12.31-3.36-10.31-4.57-21.73-.69-6.54-2-20.74,4-36.8,2.21-5.84,4.78-12.63,11-19.16,5.54-5.8,8.32-5.5,12.38-11.19s8.53-16.26,4-22.2c-2.52-3.31-6.83-3.89-8.34-4.09-7-1-12.63,3.15-18.53,7.56-4.39,3.29-11.65,8.73-17,18.64-4.76,8.73-8.26,21.28-8.86,23.47-1.77,6.44-2.41,10.62-5.62,11.87-3,1.15-6.46-1-11.44-4-7.93-4.83-8.41-7.88-13.44-9-.48-.11-7.71-1.65-12.13,2.78-3.25,3.28-3.15,8-3.09,10.87a21.81,21.81,0,0,0,3.1,10.66c3,4.81,6,5.37,16.65,12,13.5,8.4,15.48,11.76,16.33,13.48.94,1.9,1.55,5.3,2.78,12.13,1.33,7.31,2,11,2.16,15.06.33,7.46-1,12.9-3.24,22.36-.49,2-2,8.21-5.49,18.41-3.16,9.29-4.55,12-12.06,31.24-3.44,8.79-3.24,8.47-6.87,17.74-7.82,20-9.46,23.44-11,26.48s-11.5,22.23-16,20.77c-1-.31-1.2-1.48-3.85-14.25-1.41-6.82-2.4-10.07-4.26-12.44a11,11,0,0,0-10-3.67C1229.27,940.18,1225.9,947,1225.11,951.62Z" transform="translate(223.57)"/><path class="cls-15" d="M1257.29,1041.87a70.64,70.64,0,0,0,7.21,15.44,9.6,9.6,0,0,0,3.91-2.67c2.38-2.9,1.12-6.35.46-13-1.42-14.53,2.32-26.15,9.8-49.4a206.29,206.29,0,0,1,12.8-31.08c7.06-13.72,12.65-24.35,24.25-34.41,4.34-3.77,10.32-9,19.62-12.71,6.18-2.49,8.91-2.36,22.2-6.78,7-2.32,10.91-3.91,13.29-5.49-3.38-.64-6.47-1-8.77-1.23-31.86-3.46-56.22,19.7-63.3,26.43-16.11,15.31-21.87,31.14-33.41,62.79C1252.85,1024.09,1255.69,1036.6,1257.29,1041.87Z" transform="translate(223.57)"/><path class="cls-15" d="M1121.7,935.2c1.7,6.2,2,16.08-3.6,21.58-9.68,9.47-34.29,3.36-49.43-8.82-12.45-10-13.54-20.24-25.6-23-7-1.57-16.46-.32-18.53,4.41-3.76,8.54,17.67,25.94,26.55,33.14,10.72,8.71,12.71,8.14,28.17,19.82,12.65,9.56,19.29,14.35,25.6,22.06,13.22,16.2,10.49,24.54,18.53,34.43,13.58,16.69,45,21.94,71.45,15.15,12.52-3.22,23.93-9.13,31.82-17.8,11.59-12.75,14.64-30.44,15-32.66.89-5.51,2-13.12-1.76-15.89-4.33-3.14-11.74,2.39-22,6.67-4.16,1.74-33,13.78-46.78,4.41-10.68-7.28-9.75-25.84-8-60.5a208.9,208.9,0,0,1,4.14-34.92l.27-1.27c4.41-20.22,8.08-21.45,9.78-36.58,1.32-11.68.43-22.58-.88-38.84-.55-6.77-1.59-16.89,1.69-28.73.46-1.66.45-1.33,2.37-7.67C1185,775.32,1185,774,1187,768.39c3.47-9.46,4.53-8,7.06-15.89,2.82-8.74,4.78-14.8,1.7-19.9s-10-7.81-15.82-6.58c-6.9,1.47-10.47,8.43-16.77,21.18a147.44,147.44,0,0,0-8.83,22.07c-2.88,9.56-8.2,27.71-7.94,51.19.19,16.35,1.69,29.53,1.69,29.53,1.59,13.93,3.41,18.83,0,23.83-4.69,6.87-15.69,10.14-24.71,7.06s-12.86-11.87-15-16.77c-4.92-11.21-4.12-23.13-3.46-33.06.77-11.59,2.65-15-.07-18.13-4.78-5.49-18.77-4.61-24.72,2.64-4.5,5.48-3.24,13.17-1.69,22.55,2.35,14.25,8.16,23.46,6.18,24.72-.65.41-1.73-.29-6.18-3.53-7.2-5.25-10.8-7.88-12.43-9.31-5.92-5.2-16.57-14.56-23.76-29.53-5.14-10.7-3.19-13.2-9.78-25.2-4.55-8.27-8.51-15.23-15-15.88-5.53-.56-11.31,3.61-14.05,8.42-5.51,9.69.94,22.58,7.06,34.43a148.5,148.5,0,0,0,24.71,34.42c16.28,17.16,34.24,36.07,62.6,54.24C1107.7,917.23,1118.4,923.18,1121.7,935.2Z" transform="translate(223.57)"/><path class="cls-16" d="M1153.47,991.69c4.75,14.16,11.22,23.26,18.54,33.54,8.35,11.74,15.68,22,22.83,28.79,12.52-3.22,23.93-9.13,31.82-17.8,11.59-12.75,14.64-30.44,15-32.66.89-5.51,2-13.12-1.76-15.89-4.33-3.14-11.74,2.39-22,6.67-4.16,1.74-33,13.78-46.78,4.41-10.68-7.28-9.75-25.84-8-60.5a208.9,208.9,0,0,1,4.14-34.92,11.09,11.09,0,0,0-6.72,1c-5,2.58-6.49,9-7.94,21.18C1148.86,956.76,1147,972.4,1153.47,991.69Z" transform="translate(223.57)"/><path class="cls-17" d="M1467.18,870.75c-.16,3.71-2.17,7.66-6.17,15.42-5.69,11-8,13.14-11.31,20.57a82.63,82.63,0,0,0-5.14,16.46c-7.42,32.8,1.56,58.95-11.31,73-11.54,12.6-37.68,12.27-49,4.69a13,13,0,0,1-4.46-4.69c-2.36-4.56.32-8.81,3.08-17.48,6.07-19,4.39-35.65,1-68.9a284.86,284.86,0,0,0-8.22-45.25c-5.53-20.39-10-36.2-22.61-53-4.73-6.28-11.25-14.94-22.62-22.62-7.56-5.1-11.24-5.71-27.77-15.43-8.67-5.1-13.47-8.35-16.21-11.15a11.74,11.74,0,0,1-3.35-5.8c-1.36-5.61.47-12.8,5.14-16.45,7.73-6.06,22-.18,29.82,3.08,4,1.66,10.54,3.6,18.52,8.23,14.64,8.5,20.93,17.24,22.64,15.92,1.21-.94-1.59-5.74-9.25-24.68-1.55-3.82-2.33-5.75-2.75-7.09-1.24-4-2.76-9.69-2.42-23.23.31-12.54.69-27.75,7.2-47.3,5.35-16.09,7.45-12.84,12.34-27.77,2.8-8.56,8.67-27.16,5.14-50.39-1.28-8.45-2.77-18.27-9.25-28.8-5.75-9.35-9.57-9.74-13.37-18.51s-6.76-24.21,1-30.85c4.33-3.71,10.26-3.25,12.34-3.09,9.64.74,16,7.83,22.62,15.43,4.94,5.65,13.1,15,17.49,29.82,3.86,13,5,30.83,5.14,33.94.52,9.12.18,14.9,4.11,17.48,3.67,2.41,8.92.58,16.46-2.05,12-4.2,13.5-8.14,20.57-8.23.67,0,10.78,0,15.42,7.2,3.42,5.3,2,11.54,1,15.42a29.59,29.59,0,0,1-7.2,13.37c-5.32,5.6-9.55,5.48-25.71,11.32-20.46,7.37-24.08,11.31-25.71,13.36-1.8,2.27-3.6,6.65-7.2,15.43-3.87,9.41-5.8,14.12-7.2,19.54-2.57,9.89-2.41,17.53-2,30.85.07,2.86.36,11.56,2.07,26.21,1.57,13.33,2.66,17.33,7.2,45.25,2.08,12.75,1.91,12.26,4.12,25.71,4.74,29,5.94,34.06,7.17,38.58,1.19,4.34,9,33,15.45,32.38,1.41-.15,2-1.64,9.24-18,3.83-8.72,6.08-12.78,9.25-15.43,3.89-3.26,10-3.75,14.4-2C1464.89,854.25,1467.46,864.3,1467.18,870.75Z" transform="translate(223.57)"/><path class="cls-17" d="M1398.3,982.31a97,97,0,0,1-14.07,18.59,13,13,0,0,1-4.46-4.69c-2.36-4.56.32-8.81,3.08-17.48,6.07-19,4.39-35.65,1-68.9a284.86,284.86,0,0,0-8.22-45.25c-5.53-20.39-10-36.2-22.61-53-4.73-6.28-11.25-14.94-22.62-22.62-7.56-5.1-11.24-5.71-27.77-15.43-8.67-5.1-13.47-8.35-16.21-11.15,4.71.12,8.94.55,12.1.87,43.61,4.48,69.58,42.45,77.13,53.48,17.17,25.1,20.36,47.93,26.73,93.58C1409.33,959.79,1402,975.72,1398.3,982.31Z" transform="translate(223.57)"/><path class="cls-17" d="M1484.49,941.29c.12,2.71,1.58,5.6,4.5,11.27,4.17,8.06,5.88,9.6,8.27,15a59.86,59.86,0,0,1,3.76,12c5.42,24-1.14,43.08,8.27,53.36,8.43,9.2,27.53,9,35.82,3.42a9.59,9.59,0,0,0,3.26-3.42c1.72-3.34-.24-6.44-2.26-12.78-4.43-13.9-3.2-26.06-.75-50.35a209.11,209.11,0,0,1,6-33.07c4-14.9,7.29-26.46,16.52-38.72,3.46-4.59,8.22-10.92,16.54-16.53,5.52-3.73,8.21-4.18,20.29-11.28,6.33-3.73,9.84-6.1,11.84-8.14a8.62,8.62,0,0,0,2.45-4.24c1-4.11-.34-9.36-3.76-12-5.65-4.43-16-.13-21.79,2.26-2.94,1.21-7.7,2.63-13.53,6-10.7,6.21-15.3,12.59-16.55,11.63-.88-.69,1.17-4.19,6.77-18,1.12-2.79,1.7-4.21,2-5.18.91-2.9,2-7.09,1.77-17-.23-9.17-.5-20.28-5.26-34.57-3.91-11.76-5.44-9.38-9-20.29-2-6.26-6.34-19.85-3.76-36.83.94-6.17,2-13.35,6.77-21,4.2-6.83,7-7.12,9.77-13.53s4.93-17.69-.75-22.55c-3.17-2.7-7.51-2.37-9-2.25-7.05.54-11.69,5.72-16.54,11.27-3.6,4.14-9.56,11-12.77,21.8-2.83,9.53-3.63,22.53-3.76,24.8-.38,6.66-.14,10.89-3,12.77-2.68,1.76-6.51.43-12-1.5-8.77-3.07-9.87-5.94-15-6-.5,0-7.89,0-11.28,5.26-2.49,3.88-1.42,8.43-.75,11.27a21.73,21.73,0,0,0,5.26,9.77c3.89,4.09,7,4,18.79,8.27,15,5.39,17.6,8.27,18.79,9.77s2.63,4.86,5.26,11.27c2.83,6.88,4.24,10.32,5.26,14.28,1.88,7.23,1.77,12.82,1.5,22.55,0,2.09-.26,8.45-1.51,19.15-1.15,9.75-1.94,12.66-5.26,33.07-1.52,9.32-1.4,9-3,18.79-3.46,21.18-4.34,24.89-5.25,28.19s-6.59,24.14-11.28,23.66c-1-.1-1.49-1.19-6.75-13.13-2.81-6.38-4.45-9.35-6.77-11.28A11,11,0,0,0,1492,927C1486.16,929.23,1484.28,936.58,1484.49,941.29Z" transform="translate(223.57)"/><path class="cls-17" d="M1543.26,920.34c-.91,1.42-1.21,3.4-1.77,7.33-.78,5.57-.47,7-1.21,10.57a37.21,37.21,0,0,1-2.42,7.43c-5.86,14.08-16,21.39-15,30,1,7.68,10.71,14.42,16.89,14.59a5.94,5.94,0,0,0,2.88-.56c2.07-1.07,2.2-3.34,3.45-7.27,2.75-8.63,7.73-14.34,17.7-25.75a128.45,128.45,0,0,1,14.91-14.57c7.39-6.09,13.18-10.77,22.26-13.66a41,41,0,0,1,14.3-2.43c4.14.09,5.66.83,14.32,1.58,4.54.39,7.17.44,8.91.13a5.34,5.34,0,0,0,2.77-1.27,7.63,7.63,0,0,0,2.41-7.43c-1.27-4.27-8.07-5.83-11.83-6.68a53.35,53.35,0,0,0-9-1.82c-7.64-.7-12.26.88-12.55,0-.2-.67,2.1-1.71,9.9-6.7,1.57-1,2.37-1.52,2.87-1.9,1.51-1.14,3.57-2.86,7-8,3.18-4.72,7-10.44,9.75-19.38,2.25-7.35.62-6.7,2.73-13.5a48.44,48.44,0,0,1,11.32-20c2.69-2.78,5.82-6,11-8.21,4.58-1.95,6.1-1.1,9.8-3.34s8.85-7.18,7.72-11.68c-.63-2.5-2.94-3.89-3.75-4.38-3.76-2.25-8-1.3-12.42-.23a35,35,0,0,0-14.29,6.44c-4.85,3.81-9.92,10.1-10.8,11.2-2.59,3.24-4,5.46-6.11,5.39s-3.45-2.13-5.55-5.08c-3.33-4.7-2.85-6.55-5.44-8.44-.25-.18-4-2.83-7.6-1.39-2.65,1.07-3.74,3.76-4.42,5.44a13.38,13.38,0,0,0-.85,6.83c.5,3.46,2.1,4.53,6.54,10.93,5.63,8.09,5.94,10.5,6,11.69s-.41,3.4-1.39,7.59a69.22,69.22,0,0,1-2.46,9.11c-1.65,4.34-3.71,7.12-7.34,12-.77,1-3.16,4.18-7.64,9.14-4.08,4.53-5.53,5.72-14.53,14.85-4.12,4.17-3.93,4-8.27,8.42-9.36,9.48-11.14,11-12.78,12.39s-12,9.84-14.2,7.92c-.49-.43-.33-1.14,1.3-9.07.87-4.23,1.1-6.33.62-8.14a6.81,6.81,0,0,0-4.78-4.53C1548.43,914.84,1544.85,917.89,1543.26,920.34Z" transform="translate(223.57)"/><path class="cls-18" d="M1392.35,905.91c.45,2.68-.38,5.81-2,12-2.39,8.75-3.74,10.61-4.94,16.42a59.68,59.68,0,0,0-1.16,12.55c-.29,24.58,10.12,41.89,3.07,53.91-6.32,10.76-25,14.52-34.31,10.84a9.5,9.5,0,0,1-3.9-2.67c-2.39-2.9-1.12-6.35-.47-13,1.43-14.53-2.32-26.15-9.8-49.4A207.81,207.81,0,0,0,1326,915.49c-7.07-13.72-12.66-24.35-24.26-34.41-4.34-3.77-10.32-9-19.62-12.71-6.18-2.49-8.91-2.36-22.2-6.78-7-2.32-10.91-3.91-13.29-5.49a8.55,8.55,0,0,1-3.28-3.63c-1.83-3.81-1.62-9.22,1.16-12.55,4.6-5.51,15.66-3.48,21.78-2.35,3.13.57,8.08,1,14.49,3,11.76,3.83,17.6,9.12,18.62,7.92.72-.87-2-3.86-10.39-16.23-1.69-2.49-2.54-3.75-3-4.64-1.49-2.65-3.45-6.51-5.27-16.23-1.7-9-3.75-20-2.09-34.91,1.36-12.31,3.36-10.31,4.58-21.73.69-6.54,2-20.73-4-36.8-2.21-5.83-4.78-12.63-11-19.16-5.53-5.8-8.32-5.5-12.38-11.19s-8.53-16.26-4-22.2c2.53-3.31,6.84-3.89,8.35-4.09,7-1,12.62,3.15,18.52,7.56,4.39,3.29,11.65,8.73,17,18.64,4.76,8.73,8.26,21.28,8.87,23.47,1.77,6.44,2.41,10.62,5.61,11.87,3,1.15,6.46-.95,11.44-4,7.93-4.83,8.41-7.88,13.44-9,.49-.11,7.71-1.65,12.13,2.79,3.25,3.27,3.15,7.94,3.09,10.86a21.58,21.58,0,0,1-3.1,10.66c-3,4.81-6,5.37-16.65,12C1317,754.61,1315,758,1314.2,759.69c-1,1.9-1.56,5.3-2.79,12.13-1.33,7.31-2,11-2.16,15.06-.32,7.46,1,12.9,3.25,22.36.48,2,2,8.21,5.49,18.41,3.15,9.3,4.54,12,12.06,31.24,3.43,8.79,3.24,8.47,6.87,17.74,7.81,20,9.45,23.44,11,26.48s11.5,22.23,16,20.78c1-.32,1.2-1.48,3.85-14.26,1.41-6.82,2.4-10.07,4.26-12.44a11,11,0,0,1,10-3.67C1388.19,894.47,1391.56,901.26,1392.35,905.91Z" transform="translate(223.57)"/><path class="cls-19" d="M1360.17,996.16a70.64,70.64,0,0,1-7.21,15.44,9.5,9.5,0,0,1-3.9-2.67c-2.39-2.9-1.12-6.35-.47-13,1.43-14.53-2.32-26.15-9.8-49.4A207.81,207.81,0,0,0,1326,915.49c-7.07-13.72-12.66-24.35-24.26-34.41-4.34-3.77-10.32-9-19.62-12.71-6.18-2.49-8.91-2.36-22.2-6.78-7-2.32-10.91-3.91-13.29-5.49,3.38-.64,6.47-1,8.78-1.23,31.85-3.46,56.21,19.7,63.29,26.43,16.11,15.31,21.88,31.14,33.41,62.79C1364.61,978.38,1361.78,990.89,1360.17,996.16Z" transform="translate(223.57)"/><path class="cls-18" d="M1495.77,889.49c-1.71,6.2-2,16.08,3.6,21.58,9.67,9.47,34.28,3.36,49.42-8.82,12.46-10,13.54-20.24,25.6-23,7-1.57,16.46-.32,18.53,4.41,3.76,8.54-17.67,25.94-26.55,33.14-10.72,8.71-12.7,8.14-28.17,19.82-12.65,9.56-19.28,14.35-25.59,22.06-13.23,16.2-10.5,24.54-18.54,34.43-13.57,16.7-45,21.94-71.45,15.15-12.52-3.22-23.93-9.13-31.82-17.8-11.58-12.75-14.64-30.44-15-32.66-.88-5.51-2-13.12,1.76-15.89,4.33-3.14,11.74,2.39,22,6.67,4.17,1.74,33,13.78,46.78,4.41,10.69-7.28,9.75-25.84,8-60.5a208.9,208.9,0,0,0-4.14-34.92c-.08-.42-.17-.85-.27-1.27-4.4-20.22-8.08-21.45-9.78-36.58-1.31-11.68-.43-22.58.88-38.84.55-6.77,1.59-16.89-1.69-28.73-.46-1.66-.44-1.33-2.37-7.67-4.54-14.92-4.48-16.27-6.53-21.85-3.47-9.46-4.53-8-7.06-15.89-2.82-8.74-4.77-14.8-1.69-19.9,3-4.95,10-7.81,15.81-6.58,6.9,1.47,10.47,8.43,16.77,21.18a146.69,146.69,0,0,1,8.83,22.07c2.88,9.56,8.21,27.71,7.94,51.19-.18,16.35-1.69,29.53-1.69,29.53-1.59,13.93-3.41,18.83,0,23.83,4.69,6.87,15.69,10.14,24.71,7.06s12.86-11.87,15-16.77c4.91-11.21,4.12-23.13,3.45-33.06-.77-11.59-2.65-15,.08-18.13,4.77-5.49,18.76-4.61,24.71,2.64,4.5,5.48,3.24,13.17,1.69,22.55-2.34,14.25-8.16,23.46-6.17,24.72.64.41,1.73-.28,6.17-3.53,7.21-5.25,10.81-7.88,12.43-9.31,5.92-5.2,16.58-14.56,23.76-29.53,5.14-10.7,3.19-13.2,9.78-25.2,4.55-8.27,8.51-15.23,15-15.88,5.53-.56,11.31,3.61,14.06,8.43,5.5,9.68-1,22.57-7.06,34.42a148.76,148.76,0,0,1-24.72,34.42C1566,828.1,1548,847,1519.67,865.18,1509.76,871.52,1499.07,877.47,1495.77,889.49Z" transform="translate(223.57)"/><path class="cls-19" d="M1464,946c-4.75,14.16-11.22,23.26-18.53,33.54-8.35,11.74-15.69,22.05-22.84,28.79-12.52-3.22-23.93-9.13-31.82-17.8-11.58-12.75-14.64-30.44-15-32.66-.88-5.51-2-13.12,1.76-15.89,4.33-3.14,11.74,2.39,22,6.67,4.17,1.74,33,13.78,46.78,4.41,10.69-7.28,9.75-25.84,8-60.5a208.9,208.9,0,0,0-4.14-34.92,11.09,11.09,0,0,1,6.72,1c5,2.58,6.5,9,7.94,21.18C1468.6,911.05,1470.46,926.69,1464,946Z" transform="translate(223.57)"/><path class="cls-20" d="M785.08,1140.34c-10.94,9.53-38-5.92-52.82-14.41-19.54-11.18-29.32-16.76-34.71-28.65-7-15.41,1.21-23.36-7.24-46.57A70.94,70.94,0,0,0,676.92,1027c-7.13-8.16-14.6-12.56-26.91-19.67-18-10.39-20.13-8.32-26.37-14.16-3.71-3.47-8-8.95-14.71-37.51-7.62-32.5-4.95-37.86-12-53.07-8.61-18.48-21.56-27.87-20.81-28.59s20.1,12.58,36.75,35.41c20.94,28.7,15.95,42.23,34.33,53.71,8.88,5.54,23.29,10.69,34.78,14.74,12.28,4.33,18.16,5.49,23.36,11.67,6.21,7.38,4.08,13.17,9.26,24.13,2.9,6.15,5.8,9,18.77,21.84,23.43,23.23,35.16,35,36,42.42,1.34,11.44-5.91,15.36-1.89,23.82,4.81,10.12,17.13,8.57,21.26,18.81C791.29,1126.84,790.06,1136,785.08,1140.34Z" transform="translate(223.57)"/><path class="cls-20" d="M770,1070.69c-4.84-4.4.64-11.77-4.53-21.44-5.8-10.84-16.79-9.21-29.5-17.7-16.24-10.84-26.5-32.37-26-50.34.51-17.15,10.46-18.2,13-41.7.74-6.85,2-20-3.54-34.22-3.14-8.1-5.27-8.27-22.81-31.07-16.85-21.9-19.92-28.28-22-34.62a86.19,86.19,0,0,1-4.13-23.2c-.79-14.77,2.51-17,2.75-29.11.3-15.13-4.7-18.32-13.77-55.07-4.44-18-3.67-19-3.15-19.27,4.88-2.72,38,27.1,48,68.24,7.23,29.61-1.69,47.87,12.59,60.38,12.11,10.6,22.39,1.8,34.62,11.4,22.57,17.73-.77,57.89,22,84.77,14.29,16.85,28.23,6.7,46.81,23.4,34.75,31.24,25.62,102.37,13.77,105.22-5.11,1.23-7.29-11.09-19.27-13.57C795.59,1048.81,777.16,1077.2,770,1070.69Z" transform="translate(223.57)"/><path class="cls-21" d="M850.73,1144.57c-9.09-4.94-12.26-17-15.28-28.43-2-7.6-5.19-19.73-1.19-33.31,4.09-13.9,11.26-14.13,15.19-28.37a54.24,54.24,0,0,0-.07-27.71c-5.23-20.57-18.72-21.94-24.56-37.18-6.43-16.77,2.62-34.1,19.79-67,14.08-26.94,23.34-34,32-60.83,3.76-11.69,6.17-19.45,5.59-30.21-1-18.44-9.56-22.49-14.43-46.4-1.94-9.54-4.41-21.61-1.06-36.07s10.79-24,19.67-35.09c17.06-21.34,23.32-17.84,34.94-35.75a119.72,119.72,0,0,0,15.65-38c3-14.85,1.63-24.37,3.94-24.75,3.29-.54,13.23,17.53,13.44,38,.28,27.1-16.68,33.68-27,73.53-3.85,14.84-6.65,25.61-4.66,40,3.39,24.52,16.31,27.29,23.78,53.77,1.58,5.6,9.2,32.64-1.44,59.5-9.74,24.6-23.54,20.63-31.12,42.86-5.48,16.09-1.56,34.84,6.28,72.33,5.37,25.68,6.51,22,8.1,33.63.77,5.57,8.25,66.42-29.65,99.73C887.47,1138.58,865.16,1152.4,850.73,1144.57Z" transform="translate(223.57)"/><path class="cls-20" d="M884.48,1106.37c-5.14-5.64-4.58-15.87-4.05-25.61.35-6.45.92-16.77,6.77-26.91,6-10.38,11-9.24,16.93-19.92a52.41,52.41,0,0,0,6.27-22.22c1.08-17.46-7.89-21.05-8.45-34.34-.6-14.63,9.58-26.84,28.9-50,15.83-19,23.82-22.93,35.88-42.83,5.26-8.68,8.69-14.45,10.74-23.18,3.51-15-1.46-19.79.63-39.85.84-8,1.9-18.14,7.49-29.11s12.91-17.22,21.55-24.48c16.62-13.94,20.14-10,32.22-22.18a111.71,111.71,0,0,0,19.45-27.6c5.48-11.34,6.68-19.23,8.36-19.1,2.39.17,5.12,16.49.59,33-6,21.76-19.17,23.89-35.38,53.92-6,11.17-10.42,19.29-12.32,31.16-3.25,20.27,5,24.89,4.12,47.48-.19,4.79-1.1,27.86-14.55,47.42-12.31,17.92-20.92,12.18-31.2,28.59-7.45,11.88-9,27.63-12.17,59.13-2.15,21.57-.53,18.87-2.08,28.45-.74,4.6-9.45,54.75-43.16,74.43C911.15,1108.37,892.63,1115.32,884.48,1106.37Z" transform="translate(223.57)"/><path class="cls-21" d="M780.31,1139.7c-4.33-2.48-1.47-8.88-6.92-15.22-6.12-7.12-14-4.09-24.91-8.31-13.9-5.39-25.1-19.73-27.68-33.21-2.45-12.86,4.79-15.29,2.77-33.21-.59-5.22-1.82-15.21-8.3-24.91-3.69-5.51-5.3-5.29-22.14-19.37C677,992,673.61,987.7,671,983.33a65.81,65.81,0,0,1-6.92-16.61c-3-10.87-.94-13.06-2.77-22.14-2.28-11.32-6.54-12.87-19.37-38.75-6.29-12.67-5.88-13.53-5.54-13.83,3.18-2.83,32.76,13.9,47.05,42.89,10.28,20.87,6.66,36,19.37,42.9,10.78,5.9,17-2.36,27.68,2.77,19.75,9.47,9,43.25,30.44,59.5,13.44,10.19,22.14.32,38.75,9.69,31.06,17.52,36,72,27.68,76.11-3.61,1.76-7.28-7-16.61-6.92C795.74,1119.16,786.71,1143.36,780.31,1139.7Z" transform="translate(223.57)"/><path class="cls-22" d="M835.66,1146.62c16.7,2.51,25.21,3.66,33.21-1.39,17.31-10.92,21.86-44,11.07-65-5.88-11.47-12.92-12.77-16.6-26.29-.59-2.13-2.45-9.59,0-30.44,1.94-16.55,4.44-23.15,5.53-30.45,2.44-16.33-4.3-22.21-24.91-70.57-9.34-21.92-15.7-38.86-20.76-59.5-4.82-19.51-4.57-26.29-4.15-30.45,1.88-18.37,10.61-22,16.61-45.66,2.39-9.44,5.42-21.38,2.77-36s-9.65-24.47-18-36c-16-22.13-22.46-18.92-33.21-37.36a119.78,119.78,0,0,1-13.84-38.75c-2.33-15-.48-24.42-2.77-24.91-3.26-.7-14,16.88-15.22,37.36-1.56,27,15.07,34.43,23.52,74.73,3.15,15,5.43,25.89,2.77,40.13-4.55,24.33-17.58,26.49-26.29,52.58-1.85,5.53-10.74,32.17-1.39,59.51,8.57,25,22.55,21.72,29.06,44.28,4.72,16.33-.08,34.88-9.68,72-6,23.15-6.91,20.5-9.69,33.21-5,22.82-15.31,70.08,9.69,96.87C787.26,1139.34,806.76,1142.27,835.66,1146.62Z" transform="translate(223.57)"/><path class="cls-21" d="M890.23,1119.24c-2.64-5.12-.34-11.64,1.85-17.86,1.45-4.12,3.77-10.69,9.86-15.69s9.59-3,15.85-8.31a30.16,30.16,0,0,0,8.63-12.77c4-11.09-1.76-15.94.32-24.78,2.28-9.72,11.85-14.86,30-24.61,14.89-8,21.36-8.34,33.71-18,5.38-4.2,8.92-7,12-12.15,5.3-8.8,2.63-13.33,7.86-25.86,2.09-5,4.73-11.32,10.78-16.92s12.46-7.67,20-10c14.51-4.49,16.3-.92,27.24-5.53a66.74,66.74,0,0,0,19.09-12.61c6-5.89,8.36-10.7,9.55-10.15,1.68.77.61,12.19-5.71,21.69-8.34,12.55-18.19,10.28-35.41,25.38-6.4,5.62-11.06,9.71-14.63,16.93-6.09,12.34-1,17.65-5.86,32.16-1,3.07-6,17.89-19.25,26.93-12.17,8.27-17.28,2.13-27.71,10-7.55,5.69-11.6,15.54-19.71,35.24-5.55,13.49-3.89,12.18-6.78,18-1.39,2.8-17,33.13-44.8,36.61C909,1128,894.41,1127.35,890.23,1119.24Z" transform="translate(223.57)"/><path class="cls-23" d="M2070.13,821.19c.16,3.72,2.17,7.67,6.17,15.43,5.69,11,8,13.13,11.31,20.57a82.57,82.57,0,0,1,5.14,16.45c7.42,32.81-1.56,59,11.31,73,11.54,12.6,37.68,12.27,49,4.69a13.11,13.11,0,0,0,4.46-4.69c2.36-4.57-.32-8.81-3.08-17.48-6.07-19-4.39-35.66-1-68.91a285.11,285.11,0,0,1,8.22-45.25c5.53-20.38,10-36.2,22.61-53,4.73-6.28,11.25-14.94,22.62-22.62,7.56-5.11,11.24-5.71,27.77-15.43,8.67-5.1,13.47-8.35,16.21-11.15a11.74,11.74,0,0,0,3.35-5.8c1.36-5.61-.47-12.8-5.14-16.45-7.73-6.06-22-.18-29.82,3.08-4,1.66-10.54,3.6-18.52,8.23-14.64,8.49-20.93,17.23-22.64,15.92-1.21-1,1.59-5.74,9.25-24.68,1.55-3.82,2.33-5.75,2.75-7.09,1.24-4,2.76-9.7,2.42-23.23-.31-12.55-.69-27.76-7.2-47.31-5.35-16.08-7.45-12.83-12.34-27.76-2.8-8.56-8.67-27.17-5.14-50.4,1.28-8.44,2.77-18.26,9.25-28.79,5.75-9.35,9.57-9.74,13.37-18.51s6.76-24.21-1-30.86c-4.33-3.7-10.26-3.25-12.34-3.08-9.64.74-16,7.82-22.62,15.43-4.94,5.65-13.1,15-17.49,29.82-3.86,13-4.95,30.83-5.14,33.94-.52,9.12-.18,14.9-4.11,17.48-3.67,2.41-8.92.58-16.46-2.06-12-4.19-13.5-8.13-20.57-8.22-.67,0-10.78,0-15.42,7.19-3.42,5.31-1.95,11.54-1,15.43a29.59,29.59,0,0,0,7.2,13.37c5.32,5.59,9.55,5.48,25.71,11.31,20.46,7.38,24.08,11.31,25.71,13.37,1.8,2.26,3.6,6.64,7.2,15.43,3.86,9.41,5.8,14.12,7.2,19.54,2.57,9.89,2.41,17.53,2,30.85-.07,2.86-.36,11.56-2.07,26.2-1.57,13.34-2.66,17.33-7.2,45.25-2.08,12.76-1.92,12.26-4.12,25.71-4.74,29-5.94,34.06-7.17,38.59-1.19,4.34-9,33-15.45,32.37-1.41-.14-2-1.63-9.24-18-3.83-8.72-6.08-12.79-9.25-15.43-3.89-3.26-10-3.75-14.4-2.06C2072.42,804.7,2069.85,814.75,2070.13,821.19Z" transform="translate(223.57)"/><path class="cls-23" d="M2139,932.76a97.29,97.29,0,0,0,14.07,18.59,13.11,13.11,0,0,0,4.46-4.69c2.36-4.57-.32-8.81-3.08-17.48-6.07-19-4.39-35.66-1-68.91a285.11,285.11,0,0,1,8.22-45.25c5.53-20.38,10-36.2,22.61-53,4.73-6.28,11.25-14.94,22.62-22.62,7.56-5.11,11.24-5.71,27.77-15.43,8.67-5.1,13.47-8.35,16.21-11.15-4.71.11-8.94.55-12.1.86-43.61,4.49-69.58,42.46-77.13,53.48-17.17,25.11-20.36,47.94-26.73,93.59C2128,910.23,2135.36,926.16,2139,932.76Z" transform="translate(223.57)"/><path class="cls-23" d="M2052.82,891.74c-.12,2.71-1.58,5.59-4.51,11.27-4.16,8-5.87,9.6-8.26,15a60,60,0,0,0-3.76,12c-5.42,24,1.14,43.09-8.27,53.36-8.43,9.21-27.53,9-35.82,3.43a9.54,9.54,0,0,1-3.26-3.43c-1.72-3.33.24-6.44,2.26-12.77,4.43-13.91,3.2-26.06.75-50.36a209.14,209.14,0,0,0-6-33.06c-4-14.9-7.29-26.46-16.52-38.72-3.46-4.6-8.22-10.92-16.54-16.54-5.52-3.73-8.21-4.17-20.29-11.27-6.33-3.73-9.84-6.1-11.84-8.15a8.54,8.54,0,0,1-2.45-4.24c-1-4.1.34-9.35,3.75-12,5.66-4.43,16-.13,21.8,2.25,2.94,1.21,7.7,2.63,13.53,6,10.7,6.2,15.3,12.59,16.55,11.63.88-.69-1.17-4.19-6.77-18-1.12-2.79-1.7-4.2-2-5.18-.91-2.9-2-7.08-1.77-17,.23-9.17.5-20.29,5.26-34.57,3.91-11.76,5.44-9.38,9-20.3,2-6.25,6.33-19.84,3.76-36.82-.94-6.17-2-13.35-6.77-21-4.2-6.83-7-7.11-9.77-13.52s-4.93-17.69.75-22.55c3.17-2.71,7.51-2.37,9-2.25,7,.54,11.69,5.71,16.54,11.27,3.6,4.13,9.56,11,12.77,21.79,2.83,9.53,3.63,22.54,3.76,24.8.38,6.67.14,10.89,3,12.78,2.68,1.76,6.51.42,12-1.5,8.77-3.07,9.87-6,15-6,.5,0,7.89,0,11.28,5.26,2.49,3.87,1.42,8.43.75,11.27a21.73,21.73,0,0,1-5.26,9.77c-3.89,4.09-7,4-18.79,8.27-15,5.39-17.6,8.26-18.79,9.77s-2.63,4.85-5.26,11.27c-2.83,6.88-4.24,10.32-5.26,14.28-1.88,7.23-1.77,12.81-1.51,22.55.06,2.09.27,8.44,1.52,19.15,1.15,9.74,1.94,12.66,5.26,33.06,1.52,9.32,1.4,9,3,18.79,3.46,21.19,4.34,24.89,5.25,28.2s6.59,24.14,11.28,23.66c1-.11,1.49-1.2,6.75-13.14,2.81-6.37,4.45-9.34,6.77-11.27a11,11,0,0,1,10.52-1.5C2051.15,879.68,2053,887,2052.82,891.74Z" transform="translate(223.57)"/><path class="cls-23" d="M1994.05,870.79c.91,1.42,1.21,3.4,1.77,7.32.78,5.57.47,7,1.21,10.58a37.21,37.21,0,0,0,2.42,7.43c5.86,14.07,16,21.39,15,30-1,7.68-10.71,14.42-16.89,14.59a5.94,5.94,0,0,1-2.88-.56c-2.07-1.07-2.2-3.35-3.45-7.28-2.75-8.62-7.73-14.33-17.7-25.74a128.88,128.88,0,0,0-14.91-14.58c-7.39-6.09-13.18-10.77-22.26-13.66a41.45,41.45,0,0,0-14.3-2.43c-4.14.1-5.66.84-14.32,1.58-4.54.39-7.17.45-8.92.14a5.42,5.42,0,0,1-2.76-1.27,7.63,7.63,0,0,1-2.41-7.43c1.27-4.27,8.07-5.83,11.83-6.69a54.61,54.61,0,0,1,9-1.81c7.64-.7,12.26.88,12.55-.06.2-.67-2.1-1.7-9.9-6.7-1.57-1-2.37-1.51-2.87-1.89-1.51-1.15-3.57-2.87-7-8-3.18-4.72-7-10.44-9.75-19.38-2.25-7.35-.62-6.7-2.73-13.51a48.48,48.48,0,0,0-11.32-20c-2.69-2.78-5.82-6-11-8.22-4.58-2-6.1-1.09-9.8-3.33s-8.85-7.18-7.72-11.68c.63-2.51,2.94-3.9,3.75-4.38,3.76-2.26,8-1.3,12.42-.23a34.74,34.74,0,0,1,14.29,6.44c4.85,3.8,9.92,10.1,10.8,11.2,2.59,3.23,4,5.46,6.11,5.38s3.45-2.12,5.55-5.08c3.33-4.69,2.85-6.55,5.44-8.43.25-.19,4-2.83,7.59-1.39,2.66,1.07,3.75,3.76,4.43,5.43a13.42,13.42,0,0,1,.85,6.84c-.5,3.46-2.1,4.53-6.54,10.92-5.63,8.1-5.94,10.51-6,11.69s.41,3.4,1.39,7.6a69.22,69.22,0,0,0,2.46,9.11c1.65,4.33,3.71,7.12,7.34,11.95.77,1,3.16,4.18,7.64,9.14,4.08,4.52,5.53,5.71,14.53,14.84,4.12,4.17,3.93,4,8.27,8.43,9.36,9.48,11.14,11,12.78,12.39s12,9.84,14.2,7.91c.49-.42.33-1.14-1.3-9.07-.87-4.23-1.1-6.32-.62-8.13a6.84,6.84,0,0,1,4.78-4.54C1988.87,865.29,1992.46,868.33,1994.05,870.79Z" transform="translate(223.57)"/><path class="cls-24" d="M2145,856.36c-.45,2.68.38,5.8,2.05,12,2.39,8.75,3.74,10.62,4.94,16.43a59.62,59.62,0,0,1,1.16,12.55c.29,24.57-10.12,41.89-3.07,53.91,6.32,10.76,25.05,14.52,34.31,10.84a9.59,9.59,0,0,0,3.9-2.67c2.39-2.9,1.12-6.35.47-13-1.43-14.52,2.32-26.15,9.8-49.39a207.31,207.31,0,0,1,12.79-31.08c7.07-13.73,12.66-24.35,24.25-34.41,4.35-3.77,10.33-9,19.63-12.71,6.18-2.49,8.91-2.36,22.2-6.78,7-2.32,10.91-3.91,13.29-5.49a8.55,8.55,0,0,0,3.28-3.63c1.83-3.81,1.62-9.23-1.16-12.55-4.6-5.51-15.66-3.48-21.78-2.35-3.13.57-8.08,1-14.49,3.05-11.76,3.83-17.6,9.11-18.62,7.91-.72-.86,2-3.85,10.39-16.22,1.69-2.49,2.54-3.75,3-4.64,1.49-2.65,3.45-6.51,5.27-16.24,1.7-9,3.75-19.94,2.09-34.9-1.36-12.32-3.36-10.31-4.58-21.73-.69-6.55-2-20.74,4-36.8,2.21-5.84,4.78-12.63,11-19.16,5.53-5.81,8.32-5.5,12.38-11.19s8.53-16.27,4-22.2c-2.53-3.31-6.84-3.9-8.35-4.1-7-.94-12.62,3.15-18.52,7.57-4.39,3.29-11.65,8.73-17.05,18.64-4.76,8.73-8.26,21.28-8.87,23.47-1.77,6.44-2.41,10.62-5.61,11.86-3,1.16-6.46-1-11.44-4-7.93-4.83-8.41-7.88-13.44-9-.49-.12-7.71-1.65-12.13,2.78-3.25,3.27-3.15,8-3.09,10.87a21.53,21.53,0,0,0,3.1,10.65c3,4.81,6,5.38,16.64,12,13.5,8.39,15.49,11.76,16.33,13.48.94,1.89,1.56,5.3,2.79,12.12,1.33,7.32,2,11,2.16,15.07.32,7.46-.95,12.9-3.25,22.36-.48,2-2,8.21-5.49,18.41-3.15,9.29-4.54,12-12.06,31.24-3.43,8.79-3.24,8.46-6.87,17.74-7.81,20-9.45,23.43-11,26.48s-11.5,22.22-16,20.77c-1-.32-1.2-1.48-3.85-14.26-1.41-6.81-2.4-10.06-4.26-12.43a11,11,0,0,0-10-3.67C2149.12,844.92,2145.75,851.71,2145,856.36Z" transform="translate(223.57)"/><path class="cls-23" d="M2177.14,946.61a70.64,70.64,0,0,0,7.21,15.44,9.59,9.59,0,0,0,3.9-2.67c2.39-2.9,1.12-6.35.47-13-1.43-14.52,2.32-26.15,9.8-49.39a207.31,207.31,0,0,1,12.79-31.08c7.07-13.73,12.66-24.35,24.25-34.41,4.35-3.77,10.33-9,19.63-12.71,6.18-2.49,8.91-2.36,22.2-6.78,7-2.32,10.91-3.91,13.29-5.49-3.39-.64-6.47-1-8.78-1.23-31.85-3.46-56.21,19.7-63.29,26.42-16.11,15.32-21.88,31.15-33.41,62.8C2172.7,928.83,2175.53,941.34,2177.14,946.61Z" transform="translate(223.57)"/><path class="cls-24" d="M2041.54,839.94c1.71,6.2,2,16.08-3.6,21.58-9.67,9.47-34.28,3.35-49.42-8.83-12.46-10-13.54-20.24-25.6-22.94-7-1.58-16.46-.32-18.53,4.41-3.76,8.54,17.67,25.94,26.54,33.14,10.73,8.7,12.71,8.14,28.18,19.82,12.65,9.55,19.28,14.35,25.59,22.06,13.23,16.2,10.5,24.54,18.54,34.42,13.57,16.7,45,21.94,71.45,15.16,12.52-3.22,23.92-9.14,31.82-17.8,11.58-12.75,14.64-30.45,15-32.66.88-5.51,2-13.13-1.77-15.89-4.32-3.14-11.73,2.38-22,6.66-4.17,1.74-33.05,13.78-46.78,4.42-10.69-7.28-9.75-25.85-8-60.51a207.86,207.86,0,0,1,4.14-34.91c.08-.43.17-.85.27-1.27,4.4-20.22,8.08-21.45,9.78-36.59,1.31-11.67.43-22.58-.88-38.83-.55-6.77-1.59-16.9,1.69-28.73.46-1.66.44-1.33,2.37-7.67,4.54-14.93,4.48-16.27,6.53-21.86,3.47-9.45,4.53-8,7.06-15.88,2.81-8.74,4.77-14.8,1.69-19.91-3-5-10-7.8-15.81-6.57-6.9,1.46-10.47,8.43-16.77,21.18A146.25,146.25,0,0,0,2074.2,674c-2.88,9.56-8.21,27.71-7.94,51.19.18,16.34,1.69,29.52,1.69,29.52,1.59,13.94,3.41,18.84,0,23.83-4.69,6.88-15.69,10.14-24.71,7.06s-12.86-11.86-15-16.77c-4.91-11.2-4.12-23.12-3.46-33.05.78-11.6,2.66-15-.07-18.14-4.77-5.48-18.76-4.6-24.71,2.65-4.5,5.48-3.24,13.17-1.69,22.55,2.34,14.25,8.16,23.45,6.17,24.71-.64.42-1.73-.28-6.17-3.53-7.21-5.25-10.81-7.88-12.43-9.31-5.92-5.2-16.58-14.55-23.76-29.52-5.14-10.71-3.19-13.21-9.78-25.2-4.55-8.27-8.51-15.23-15-15.89-5.52-.55-11.3,3.61-14,8.43-5.5,9.68,1,22.58,7.06,34.42a148.88,148.88,0,0,0,24.72,34.43c16.27,17.15,34.23,36.07,62.59,54.23C2027.55,822,2038.24,827.92,2041.54,839.94Z" transform="translate(223.57)"/><path class="cls-25" d="M2073.32,896.43c4.75,14.15,11.22,23.25,18.53,33.54,8.35,11.74,15.69,22,22.84,28.79,12.52-3.22,23.92-9.14,31.82-17.8,11.58-12.75,14.64-30.45,15-32.66.88-5.51,2-13.13-1.77-15.89-4.32-3.14-11.73,2.38-22,6.66-4.17,1.74-33.05,13.78-46.78,4.42-10.69-7.28-9.75-25.85-8-60.51a207.86,207.86,0,0,1,4.14-34.91,11.09,11.09,0,0,0-6.72,1c-5,2.57-6.5,9-7.94,21.18C2068.71,861.49,2066.85,877.13,2073.32,896.43Z" transform="translate(223.57)"/><path class="cls-26" d="M1736.31,856.7c.16,3.71,2.17,7.66,6.17,15.43,5.7,11,8,13.13,11.31,20.56a82.75,82.75,0,0,1,5.15,16.46c7.41,32.8-1.57,59,11.31,73,11.54,12.59,37.68,12.26,49,4.69a13.1,13.1,0,0,0,4.46-4.69c2.36-4.57-.31-8.82-3.08-17.49-6.07-19-4.38-35.65-1-68.9a284.41,284.41,0,0,1,8.23-45.25c5.52-20.38,10-36.2,22.6-53,4.73-6.29,11.25-14.95,22.63-22.63,7.56-5.1,11.24-5.71,27.76-15.43,8.67-5.1,13.48-8.35,16.21-11.14a11.85,11.85,0,0,0,3.36-5.8c1.35-5.62-.48-12.81-5.15-16.46-7.73-6.06-22-.17-29.82,3.09-4,1.65-10.53,3.6-18.51,8.22-14.65,8.5-20.94,17.24-22.65,15.92-1.21-.94,1.6-5.73,9.26-24.68,1.54-3.81,2.32-5.75,2.74-7.08,1.25-4,2.76-9.7,2.42-23.24-.31-12.54-.69-27.75-7.2-47.3-5.35-16.09-7.44-12.84-12.34-27.77-2.8-8.56-8.67-27.16-5.14-50.39,1.28-8.44,2.78-18.27,9.25-28.8,5.75-9.35,9.57-9.74,13.37-18.51s6.76-24.21-1-30.85c-4.33-3.7-10.27-3.25-12.35-3.09-9.63.74-16,7.83-22.62,15.43-4.94,5.66-13.09,15-17.48,29.82-3.87,13-5,30.84-5.15,33.94-.52,9.12-.18,14.9-4.11,17.48-3.67,2.41-8.92.58-16.45-2-12-4.2-13.51-8.14-20.57-8.23-.68,0-10.79,0-15.43,7.2-3.41,5.31-1.94,11.54-1,15.43a29.79,29.79,0,0,0,7.2,13.37c5.32,5.59,9.56,5.48,25.71,11.31,20.47,7.37,24.09,11.31,25.71,13.37,1.8,2.26,3.6,6.64,7.2,15.42,3.87,9.41,5.8,14.12,7.2,19.54,2.57,9.9,2.42,17.54,2.06,30.86-.07,2.85-.36,11.55-2.08,26.2-1.56,13.34-2.65,17.33-7.2,45.25-2.08,12.75-1.91,12.26-4.11,25.71-4.74,29-5.95,34.06-7.18,38.59-1.18,4.33-9,33-15.45,32.37-1.41-.14-2-1.64-9.23-18-3.84-8.72-6.09-12.78-9.26-15.42-3.89-3.26-10-3.76-14.4-2.06C1738.6,840.2,1736,850.25,1736.31,856.7Z" transform="translate(223.57)"/><path class="cls-26" d="M1805.19,968.26a97.2,97.2,0,0,0,14.07,18.6,13.1,13.1,0,0,0,4.46-4.69c2.36-4.57-.31-8.82-3.08-17.49-6.07-19-4.38-35.65-1-68.9a284.41,284.41,0,0,1,8.23-45.25c5.52-20.38,10-36.2,22.6-53,4.73-6.29,11.25-14.95,22.63-22.63,7.56-5.1,11.24-5.71,27.76-15.43,8.67-5.1,13.48-8.35,16.21-11.14-4.71.11-8.93.54-12.09.86-43.62,4.48-69.58,42.45-77.13,53.48-17.18,25.1-20.36,47.93-26.74,93.58C1794.17,945.74,1801.54,961.67,1805.19,968.26Z" transform="translate(223.57)"/><path class="cls-26" d="M1719,927.24c-.12,2.71-1.59,5.6-4.51,11.27-4.16,8.06-5.88,9.6-8.27,15a60.71,60.71,0,0,0-3.76,12c-5.41,24,1.15,43.09-8.26,53.36-8.44,9.21-27.54,9-35.82,3.43a9.61,9.61,0,0,1-3.26-3.43c-1.72-3.34.23-6.44,2.25-12.78,4.44-13.9,3.2-26,.75-50.35a206.66,206.66,0,0,0-6-33.07c-4-14.89-7.28-26.45-16.52-38.72-3.46-4.59-8.22-10.92-16.53-16.53-5.53-3.73-8.22-4.17-20.29-11.28-6.34-3.72-9.85-6.1-11.85-8.14a8.66,8.66,0,0,1-2.45-4.24c-1-4.1.35-9.36,3.76-12,5.65-4.42,16-.12,21.79,2.26,2.94,1.21,7.7,2.63,13.53,6,10.7,6.21,15.3,12.6,16.55,11.63.89-.69-1.16-4.19-6.76-18-1.13-2.79-1.7-4.2-2-5.18-.91-2.9-2-7.09-1.77-17,.23-9.17.51-20.28,5.26-34.57,3.91-11.75,5.45-9.38,9-20.29,2.05-6.25,6.34-19.85,3.76-36.83-.94-6.17-2-13.34-6.76-21-4.2-6.83-7-7.12-9.77-13.53s-4.94-17.69.75-22.54c3.16-2.71,7.5-2.38,9-2.26,7,.54,11.68,5.72,16.53,11.27,3.61,4.14,9.57,11,12.78,21.8,2.82,9.53,3.62,22.53,3.76,24.8.38,6.67.13,10.89,3,12.78,2.68,1.76,6.52.42,12-1.51,8.76-3.06,9.86-5.94,15-6,.49,0,7.88,0,11.27,5.26,2.5,3.88,1.42,8.43.75,11.28a21.58,21.58,0,0,1-5.26,9.77c-3.88,4.08-7,4-18.79,8.26-15,5.39-17.6,8.27-18.79,9.77-1.31,1.66-2.63,4.86-5.26,11.28-2.82,6.87-4.24,10.31-5.26,14.28-1.88,7.23-1.76,12.81-1.5,22.54,0,2.09.26,8.45,1.52,19.15,1.14,9.75,1.94,12.66,5.26,33.07,1.52,9.32,1.4,9,3,18.79,3.47,21.18,4.35,24.89,5.25,28.2s6.6,24.14,11.29,23.65c1-.1,1.49-1.19,6.75-13.13,2.8-6.38,4.45-9.34,6.76-11.28a11,11,0,0,1,10.52-1.5C1717.33,915.19,1719.21,922.53,1719,927.24Z" transform="translate(223.57)"/><path class="cls-27" d="M1811.15,891.86c-.45,2.68.38,5.81,2,12,2.38,8.75,3.74,10.61,4.94,16.43a60.9,60.9,0,0,1,1.16,12.54c.28,24.58-10.13,41.9-3.08,53.91,6.32,10.77,25,14.53,34.31,10.84a9.5,9.5,0,0,0,3.91-2.67c2.38-2.9,1.12-6.34.47-13-1.43-14.52,2.31-26.15,9.79-49.4a207.42,207.42,0,0,1,12.8-31.08c7.06-13.72,12.65-24.34,24.25-34.41,4.34-3.76,10.32-9,19.63-12.71,6.18-2.49,8.9-2.36,22.2-6.78,7-2.32,10.9-3.91,13.28-5.49a8.55,8.55,0,0,0,3.28-3.63c1.83-3.8,1.62-9.22-1.16-12.54-4.6-5.51-15.66-3.48-21.78-2.36-3.13.57-8.08,1-14.49,3.05-11.76,3.84-17.59,9.12-18.61,7.92-.72-.86,2-3.86,10.38-16.23,1.69-2.49,2.54-3.75,3-4.64,1.5-2.65,3.45-6.51,5.28-16.23,1.69-9,3.75-19.94,2.08-34.91-1.36-12.31-3.36-10.31-4.57-21.73-.69-6.54-2-20.73,4-36.8,2.2-5.83,4.77-12.62,11-19.16,5.54-5.8,8.32-5.5,12.38-11.18s8.53-16.27,4-22.21c-2.52-3.31-6.83-3.89-8.34-4.09-7-.94-12.63,3.15-18.53,7.57-4.39,3.28-11.65,8.73-17,18.64-4.76,8.72-8.26,21.27-8.86,23.46-1.77,6.44-2.41,10.62-5.61,11.87-3,1.16-6.46-1-11.45-4-7.93-4.83-8.4-7.87-13.44-9-.48-.11-7.71-1.65-12.12,2.79-3.26,3.27-3.16,8-3.1,10.86a21.81,21.81,0,0,0,3.1,10.66c3,4.81,6,5.38,16.65,12,13.5,8.4,15.48,11.77,16.33,13.49.94,1.89,1.56,5.29,2.79,12.12,1.32,7.32,2,11,2.15,15.06.33,7.47-1,12.9-3.24,22.37-.49,2-2,8.2-5.49,18.4-3.16,9.3-4.55,12-12.06,31.24-3.44,8.8-3.24,8.47-6.87,17.75-7.82,20-9.46,23.43-11,26.47s-11.5,22.23-16,20.78c-1-.32-1.2-1.48-3.85-14.26-1.41-6.82-2.39-10.07-4.25-12.44a11,11,0,0,0-10-3.67C1815.31,880.42,1811.93,887.21,1811.15,891.86Z" transform="translate(223.57)"/><path class="cls-27" d="M1707.73,875.44c1.7,6.2,2,16.09-3.6,21.58-9.68,9.48-34.28,3.36-49.43-8.82-12.45-10-13.54-20.24-25.6-23-7-1.57-16.46-.32-18.53,4.41-3.76,8.55,17.67,25.94,26.55,33.15,10.72,8.7,12.71,8.13,28.17,19.81,12.65,9.56,19.29,14.35,25.6,22.07,13.22,16.19,10.49,24.53,18.53,34.42,13.58,16.7,45,21.94,71.45,15.15,12.53-3.22,23.93-9.13,31.82-17.8,11.59-12.74,14.64-30.44,15-32.66.89-5.5,2-13.12-1.76-15.88-4.33-3.15-11.74,2.38-22,6.66-4.16,1.74-33,13.78-46.77,4.41-10.69-7.28-9.76-25.84-8-60.5a209.13,209.13,0,0,1,4.14-34.92l.27-1.27c4.41-20.22,8.08-21.45,9.78-36.58,1.32-11.68.44-22.58-.88-38.84-.55-6.77-1.59-16.89,1.7-28.73.45-1.66.44-1.33,2.36-7.67,4.55-14.92,4.48-16.26,6.53-21.85,3.47-9.45,4.53-8,7.06-15.89,2.82-8.74,4.78-14.8,1.7-19.9s-10-7.8-15.82-6.58c-6.9,1.47-10.47,8.43-16.77,21.19a147.4,147.4,0,0,0-8.82,22.06c-2.89,9.56-8.21,27.72-8,51.19.19,16.35,1.7,29.53,1.7,29.53,1.59,13.93,3.4,18.83,0,23.83-4.7,6.87-15.7,10.14-24.72,7.06s-12.86-11.86-15-16.77c-4.92-11.21-4.12-23.12-3.46-33.05.78-11.6,2.66-15-.07-18.14-4.78-5.48-18.77-4.61-24.72,2.65-4.5,5.48-3.23,13.16-1.69,22.55,2.35,14.24,8.16,23.45,6.18,24.71-.65.41-1.73-.28-6.18-3.53-7.2-5.25-10.8-7.88-12.43-9.31-5.92-5.2-16.57-14.56-23.76-29.53-5.13-10.7-3.18-13.2-9.78-25.19-4.55-8.27-8.51-15.24-15-15.89-5.53-.56-11.31,3.61-14,8.43-5.51,9.68.94,22.57,7.06,34.42a148.81,148.81,0,0,0,24.71,34.42c16.28,17.16,34.24,36.07,62.6,54.24C1693.73,857.47,1704.43,863.42,1707.73,875.44Z" transform="translate(223.57)"/><path class="cls-28" d="M2446.79,1401.94c-22.68,108.42-70,211.57-146.92,284.72-138.62,131.77-321.2,116.47-604.36,110.2C652.84,1773.76,340.18,1919.39,140,1817.24c-17.45-8.9-52.13-35-93-73-43.38-40.28-82.77-86.82-117.25-136.75C-219.19,1391.9-276.3,1113.18-166,1002c87.31-88,270.88-62.34,359.13-50,95.54,13.36,107.44,38.42,260.75,58.77,76.32,10.13,191.34,24.9,343.61,20.82,80.64-2.16,143.31-8.85,209.58-15.92,119.07-12.7,136.58-20.62,229.07-31.84,156.68-19,186.62-6,407-20.81,118.09-7.95,207.45-18.27,229.07-20.82,343.63-40.42,386.52-92.31,453.27-57.54C2438.21,943.36,2492.51,1183.36,2446.79,1401.94Z" transform="translate(223.57)"/><circle class="cls-29" cx="432.11" cy="254.55" r="13.55"/><circle class="cls-30" cx="670.82" cy="422.75" r="15.25"/><circle class="cls-29" cx="2376.79" cy="74.06" r="11.13"/><circle class="cls-29" cx="653.73" cy="74.55" r="13.55"/><circle class="cls-29" cx="1179.21" cy="437.45" r="13.55"/><circle class="cls-29" cx="1771.47" cy="114.23" r="13.55"/><circle class="cls-29" cx="2237.92" cy="354.23" r="13.55"/><circle class="cls-30" cx="282.78" cy="216.34" r="15.25"/><circle class="cls-30" cx="2184.81" cy="157.43" r="15.25"/><circle class="cls-30" cx="957.12" cy="206.85" r="15.25"/><circle class="cls-30" cx="1594.12" cy="206.85" r="15.25"/><circle class="cls-30" cx="1974.71" cy="381.71" r="15.25"/><path class="cls-31" d="M2446.79,1401.94c-22.68,108.42-70,211.57-146.92,284.72-138.62,131.77-321.2,116.47-604.36,110.2C652.84,1773.76,340.18,1919.39,140,1817.24c-17.45-8.9-52.13-35-93-73-43.38-40.28-82.77-86.82-117.25-136.75,248-78.22,464-120.84,634.34-145.46,44.81-6.48,101.72-13.91,485-47,370.28-32,555.42-48,638-51C1866.85,1357.35,2126.35,1359.14,2446.79,1401.94Z" transform="translate(223.57)"/><path class="cls-32" d="M128.73,1472.1c-.15,3.37-2,7-5.59,14-5.17,10-7.3,11.91-10.26,18.65a74.58,74.58,0,0,0-4.67,14.92c-6.72,29.75,1.42,53.47-10.26,66.22-10.46,11.42-34.17,11.13-44.44,4.25a11.89,11.89,0,0,1-4-4.25c-2.14-4.14.29-8,2.8-15.85,5.5-17.26,4-32.34.93-62.49a257.77,257.77,0,0,0-7.46-41c-5-18.49-9-32.83-20.5-48-4.29-5.7-10.2-13.55-20.52-20.52-6.85-4.63-10.19-5.18-25.18-14-7.86-4.62-12.22-7.57-14.7-10.11a10.7,10.7,0,0,1-3-5.26c-1.23-5.09.43-11.61,4.67-14.92,7-5.49,19.91-.16,27,2.8,3.65,1.5,9.55,3.26,16.79,7.46,13.28,7.7,19,15.63,20.54,14.44,1.1-.86-1.45-5.21-8.4-22.39-1.4-3.46-2.11-5.21-2.49-6.42-1.13-3.6-2.5-8.8-2.19-21.07.28-11.38.62-25.17,6.53-42.9,4.85-14.59,6.75-11.64,11.19-25.18,2.54-7.76,7.86-24.63,4.66-45.7-1.16-7.66-2.52-16.56-8.39-26.11-5.21-8.48-8.67-8.83-12.12-16.79s-6.13-22,.93-28c3.92-3.36,9.31-3,11.19-2.8,8.74.68,14.5,7.1,20.52,14,4.47,5.13,11.87,13.62,15.85,27,3.51,11.82,4.5,28,4.66,30.77.48,8.28.17,13.52,3.73,15.86,3.33,2.18,8.09.52,14.93-1.87,10.87-3.8,12.24-7.37,18.65-7.46.61,0,9.78,0,14,6.53,3.09,4.81,1.76,10.47.93,14a26.81,26.81,0,0,1-6.53,12.12c-4.82,5.08-8.66,5-23.31,10.26-18.56,6.69-21.84,10.26-23.32,12.13-1.63,2-3.26,6-6.53,14-3.5,8.53-5.26,12.8-6.53,17.72-2.33,9-2.19,15.9-1.86,28,.06,2.6.33,10.49,1.88,23.77,1.42,12.09,2.41,15.71,6.53,41,1.89,11.57,1.74,11.12,3.73,23.32,4.3,26.29,5.39,30.89,6.51,35,1.07,3.94,8.19,30,14,29.36,1.28-.13,1.85-1.48,8.37-16.3,3.48-7.91,5.53-11.6,8.4-14,3.52-3,9-3.41,13.05-1.87C126.65,1457.14,129,1466.25,128.73,1472.1Z" transform="translate(223.57)"/><path class="cls-33" d="M66.26,1573.27a87.8,87.8,0,0,1-12.75,16.86,11.89,11.89,0,0,1-4-4.25c-2.14-4.14.29-8,2.8-15.85,5.5-17.26,4-32.34.93-62.49a257.77,257.77,0,0,0-7.46-41c-5-18.49-9-32.83-20.5-48-4.29-5.7-10.2-13.55-20.52-20.52-6.85-4.63-10.19-5.18-25.18-14-7.86-4.62-12.22-7.57-14.7-10.11,4.27.1,8.11.5,11,.78,39.55,4.07,63.1,38.5,70,48.5C61.32,1445.89,64.21,1466.59,70,1508,76.26,1552.85,69.58,1567.29,66.26,1573.27Z" transform="translate(223.57)"/><path class="cls-34" d="M144.42,1536.07c.11,2.46,1.44,5.08,4.09,10.22,3.78,7.31,5.33,8.71,7.5,13.64a55.33,55.33,0,0,1,3.41,10.9c4.91,21.74-1,39.07,7.49,48.39,7.65,8.35,25,8.13,32.48,3.11a8.7,8.7,0,0,0,3-3.11c1.56-3-.21-5.84-2-11.59-4-12.61-2.91-23.63-.68-45.66a188.1,188.1,0,0,1,5.45-30c3.66-13.51,6.6-24,15-35.11,3.13-4.16,7.45-9.9,15-15,5-3.39,7.45-3.79,18.4-10.23,5.75-3.38,8.93-5.53,10.75-7.39a7.79,7.79,0,0,0,2.22-3.84c.9-3.72-.32-8.48-3.41-10.9-5.13-4-14.55-.12-19.77,2A80.52,80.52,0,0,0,231,1457c-9.71,5.63-13.88,11.43-15,10.55-.8-.62,1.06-3.8,6.13-16.35,1-2.53,1.54-3.81,1.82-4.7.83-2.63,1.83-6.43,1.6-15.4-.2-8.31-.45-18.39-4.77-31.35-3.54-10.66-4.93-8.5-8.17-18.4-1.86-5.67-5.75-18-3.41-33.39.85-5.6,1.84-12.11,6.13-19.09,3.81-6.19,6.34-6.45,8.86-12.26s4.48-16-.68-20.45c-2.87-2.45-6.8-2.15-8.18-2.05-6.38.49-10.6,5.19-15,10.23-3.27,3.75-8.68,10-11.59,19.76-2.56,8.64-3.28,20.43-3.41,22.49-.34,6.05-.12,9.88-2.72,11.59-2.44,1.59-5.91.38-10.91-1.36-7.94-2.78-9-5.4-13.63-5.46-.45,0-7.15,0-10.22,4.77-2.26,3.52-1.29,7.65-.68,10.23a19.54,19.54,0,0,0,4.77,8.86c3.52,3.71,6.33,3.63,17,7.49,13.56,4.89,16,7.5,17,8.86s2.38,4.41,4.77,10.23c2.56,6.23,3.84,9.36,4.77,13,1.7,6.55,1.6,11.62,1.36,20.44-.05,1.9-.24,7.66-1.38,17.37-1,8.84-1.76,11.48-4.77,30-1.37,8.45-1.27,8.12-2.72,17-3.15,19.21-3.94,22.57-4.76,25.57s-6,21.89-10.24,21.45c-.93-.09-1.35-1.08-6.12-11.91-2.54-5.78-4-8.47-6.13-10.22a10,10,0,0,0-9.54-1.37C145.94,1525.14,144.24,1531.8,144.42,1536.07Z" transform="translate(223.57)"/><path class="cls-34" d="M197.72,1517.08c-.83,1.28-1.1,3.08-1.6,6.64-.71,5-.43,6.31-1.1,9.59a34.64,34.64,0,0,1-2.19,6.74c-5.32,12.76-14.56,19.39-13.58,27.17.87,7,9.71,13.08,15.32,13.24a5.52,5.52,0,0,0,2.61-.51c1.87-1,2-3,3.12-6.6,2.5-7.82,7-13,16-23.35a115.78,115.78,0,0,1,13.53-13.21c6.7-5.53,12-9.77,20.18-12.39a37.53,37.53,0,0,1,13-2.21c3.75.09,5.13.77,13,1.44,4.12.35,6.5.4,8.08.12a4.85,4.85,0,0,0,2.51-1.15,6.93,6.93,0,0,0,2.19-6.74c-1.15-3.87-7.32-5.28-10.74-6.06a49.42,49.42,0,0,0-8.16-1.65c-6.93-.63-11.12.8-11.38-.05-.18-.6,1.9-1.54,9-6.07,1.43-.91,2.15-1.38,2.61-1.72,1.36-1,3.23-2.6,6.34-7.22a61.31,61.31,0,0,0,8.84-17.58c2-6.66.56-6.07,2.47-12.24A43.81,43.81,0,0,1,298,1445.15c2.44-2.53,5.27-5.47,10-7.46,4.15-1.76,5.52-1,8.89-3s8-6.51,7-10.59a6.93,6.93,0,0,0-3.4-4c-3.41-2-7.22-1.18-11.26-.21a31.67,31.67,0,0,0-13,5.84,72,72,0,0,0-9.79,10.15c-2.35,2.94-3.61,5-5.54,4.89s-3.13-1.93-5-4.61c-3-4.26-2.59-5.94-4.94-7.65-.23-.17-3.62-2.57-6.89-1.26-2.4,1-3.39,3.41-4,4.93a12.13,12.13,0,0,0-.77,6.2c.45,3.14,1.9,4.11,5.93,9.91,5.11,7.34,5.38,9.52,5.44,10.6s-.37,3.08-1.26,6.88a61.59,61.59,0,0,1-2.23,8.27c-1.49,3.93-3.36,6.45-6.65,10.83-.71.94-2.87,3.79-6.93,8.29-3.7,4.11-5,5.18-13.18,13.46-3.74,3.79-3.56,3.66-7.5,7.65-8.49,8.59-10.1,10-11.59,11.23s-10.89,8.92-12.88,7.18c-.44-.39-.3-1,1.18-8.23.79-3.83,1-5.73.57-7.37a6.22,6.22,0,0,0-4.34-4.12C202.41,1512.09,199.16,1514.85,197.72,1517.08Z" transform="translate(223.57)"/><path class="cls-34" d="M60.87,1504c.4,2.43-.35,5.26-1.86,10.85-2.17,7.94-3.4,9.63-4.48,14.9a55,55,0,0,0-1.06,11.37c-.25,22.29,9.19,38,2.79,48.89-5.73,9.77-22.72,13.18-31.11,9.83a8.54,8.54,0,0,1-3.54-2.42c-2.16-2.63-1-5.75-.43-11.75,1.3-13.17-2.1-23.72-8.88-44.8A188.68,188.68,0,0,0,.7,1512.68c-6.41-12.45-11.48-22.08-22-31.21-3.93-3.41-9.36-8.12-17.8-11.52-5.6-2.26-8.07-2.14-20.13-6.15-6.32-2.11-9.89-3.55-12.05-5a7.79,7.79,0,0,1-3-3.29c-1.66-3.46-1.47-8.37,1-11.38,4.17-5,14.2-3.16,19.75-2.14a80.11,80.11,0,0,1,13.14,2.77c10.67,3.48,16,8.27,16.88,7.18.66-.78-1.83-3.5-9.42-14.71-1.53-2.26-2.3-3.41-2.76-4.21-1.35-2.4-3.13-5.91-4.78-14.73-1.54-8.17-3.41-18.08-1.9-31.65,1.24-11.17,3-9.35,4.15-19.71.63-5.93,1.86-18.8-3.65-33.37-2-5.29-4.33-11.45-10-17.37-5-5.27-7.55-5-11.23-10.15s-7.73-14.75-3.61-20.13c2.29-3,6.2-3.53,7.57-3.71,6.35-.86,11.45,2.85,16.8,6.86,4,3,10.57,7.91,15.47,16.9,4.31,7.92,7.48,19.3,8,21.28,1.61,5.84,2.19,9.63,5.09,10.76,2.71,1,5.86-.86,10.38-3.61,7.19-4.38,7.62-7.14,12.19-8.18.44-.1,7-1.5,11,2.52,3,3,2.86,7.21,2.81,9.86a19.67,19.67,0,0,1-2.81,9.66c-2.67,4.36-5.44,4.88-15.1,10.89-12.24,7.62-14,10.67-14.81,12.23-.85,1.72-1.41,4.81-2.52,11-1.21,6.63-1.81,9.95-2,13.66-.3,6.77.86,11.7,2.94,20.28.45,1.84,1.84,7.44,5,16.69,2.86,8.43,4.12,10.86,10.94,28.33,3.11,8,2.94,7.68,6.23,16.09,7.09,18.13,8.57,21.25,10,24s10.43,20.16,14.49,18.84c.9-.29,1.1-1.34,3.5-12.93,1.28-6.18,2.17-9.13,3.86-11.28a10,10,0,0,1,9-3.33C57.09,1493.62,60.15,1499.77,60.87,1504Z" transform="translate(223.57)"/><path class="cls-33" d="M31.69,1585.83a64,64,0,0,1-6.54,14,8.54,8.54,0,0,1-3.54-2.42c-2.16-2.63-1-5.75-.43-11.75,1.3-13.17-2.1-23.72-8.88-44.8A188.68,188.68,0,0,0,.7,1512.68c-6.41-12.45-11.48-22.08-22-31.21-3.93-3.41-9.36-8.12-17.8-11.52-5.6-2.26-8.07-2.14-20.13-6.15-6.32-2.11-9.89-3.55-12.05-5,3.07-.58,5.87-.89,8-1.12,28.89-3.14,51,17.87,57.4,24,14.61,13.89,19.84,28.24,30.3,56.94C35.71,1569.71,33.14,1581.06,31.69,1585.83Z" transform="translate(223.57)"/><path class="cls-35" d="M154.65,1489.1c-1.54,5.62-1.82,14.58,3.27,19.57,8.77,8.59,31.08,3,44.82-8C214,1491.6,215,1482.31,226,1479.86c6.35-1.43,14.93-.29,16.81,4,3.41,7.75-16,23.52-24.08,30.05-9.72,7.89-11.52,7.38-25.55,18-11.47,8.67-17.49,13-23.21,20-12,14.69-9.51,22.25-16.81,31.22-12.31,15.14-40.79,19.9-64.79,13.74-11.36-2.92-21.7-8.28-28.85-16.14-10.51-11.56-13.28-27.61-13.61-29.62-.8-5-1.84-11.9,1.6-14.41,3.92-2.84,10.65,2.17,19.95,6,3.77,1.57,30,12.49,42.42,4,9.69-6.6,8.84-23.44,7.27-54.87a189.15,189.15,0,0,0-3.76-31.66c-.08-.39-.16-.77-.25-1.15-4-18.34-7.32-19.45-8.87-33.18-1.19-10.59-.39-20.48.81-35.22.49-6.14,1.44-15.32-1.54-26.05-.42-1.51-.4-1.21-2.15-7-4.12-13.53-4.06-14.75-5.92-19.82-3.15-8.57-4.11-7.3-6.4-14.4-2.56-7.93-4.33-13.43-1.54-18.05s9.1-7.08,14.34-6c6.26,1.33,9.5,7.65,15.21,19.21a134.17,134.17,0,0,1,8,20,150.15,150.15,0,0,1,7.2,46.43c-.17,14.82-1.54,26.77-1.54,26.77-1.44,12.64-3.09,17.08,0,21.61,4.26,6.24,14.23,9.2,22.41,6.41s11.67-10.76,13.61-15.21c4.46-10.17,3.74-21,3.14-30-.71-10.51-2.41-13.6.06-16.45,4.33-5,17-4.17,22.41,2.41,4.09,5,2.94,11.94,1.54,20.45-2.13,12.91-7.4,21.26-5.6,22.41.58.37,1.57-.26,5.6-3.2,6.53-4.77,9.8-7.15,11.27-8.45,5.37-4.71,15-13.2,21.55-26.77,4.65-9.71,2.89-12,8.87-22.85,4.13-7.5,7.71-13.82,13.6-14.41,5-.51,10.26,3.27,12.74,7.64,5,8.78-.85,20.48-6.4,31.22a134.86,134.86,0,0,1-22.41,31.21c-14.76,15.56-31.05,32.72-56.76,49.19C167.34,1472.8,157.64,1478.2,154.65,1489.1Z" transform="translate(223.57)"/><path class="cls-33" d="M125.84,1540.33c-4.31,12.83-10.18,21.09-16.81,30.41-7.57,10.65-14.23,20-20.71,26.11-11.36-2.92-21.7-8.28-28.85-16.14-10.51-11.56-13.28-27.61-13.61-29.62-.8-5-1.84-11.9,1.6-14.41,3.92-2.84,10.65,2.17,19.95,6,3.77,1.57,30,12.49,42.42,4,9.69-6.6,8.84-23.44,7.27-54.87a189.15,189.15,0,0,0-3.76-31.66,10,10,0,0,1,6.09.89c4.5,2.33,5.89,8.18,7.21,19.21C130,1508.65,131.7,1522.83,125.84,1540.33Z" transform="translate(223.57)"/><path class="cls-20" d="M2078.54,1434.5c-8.28,7.21-28.71-4.48-39.94-10.9-14.79-8.45-22.18-12.68-26.26-21.67-5.29-11.65.92-17.67-5.47-35.22a54,54,0,0,0-10.13-18c-5.39-6.17-11-9.49-20.35-14.87-13.6-7.86-15.23-6.29-20-10.71-2.81-2.63-6.07-6.77-11.13-28.37-5.76-24.58-3.74-28.63-9.1-40.14-6.51-14-16.3-21.08-15.73-21.62s15.2,9.51,27.79,26.78c15.84,21.71,12.06,31.94,26,40.62,6.71,4.19,17.61,8.09,26.3,11.15,9.29,3.27,13.74,4.15,17.67,8.82,4.69,5.59,3.08,10,7,18.26,2.2,4.65,4.39,6.79,14.2,16.51,17.72,17.57,26.59,26.47,27.25,32.09,1,8.65-4.47,11.61-1.43,18,3.64,7.66,13,6.48,16.08,14.23C2083.24,1424.29,2082.31,1431.21,2078.54,1434.5Z" transform="translate(223.57)"/><path class="cls-20" d="M2067.14,1381.82c-3.66-3.33.49-8.9-3.42-16.21-4.39-8.2-12.7-7-22.31-13.39-12.29-8.2-20.05-24.48-19.64-38.08.39-13,7.91-13.76,9.81-31.53.56-5.18,1.51-15.11-2.67-25.88-2.39-6.13-4-6.26-17.26-23.5-12.74-16.56-15.06-21.39-16.66-26.18a65.28,65.28,0,0,1-3.13-17.55c-.59-11.18,1.9-12.85,2.09-22,.22-11.45-3.56-13.85-10.42-41.65-3.36-13.61-2.78-14.35-2.38-14.58,3.69-2,28.71,20.5,36.3,51.62,5.46,22.4-1.28,36.2,9.52,45.66,9.15,8,16.93,1.36,26.18,8.63,17.07,13.4-.58,43.78,16.66,64.11,10.81,12.74,21.35,5.07,35.41,17.7,26.27,23.62,19.37,77.42,10.41,79.58-3.87.93-5.52-8.39-14.58-10.27C2086.49,1365.27,2072.55,1386.74,2067.14,1381.82Z" transform="translate(223.57)"/><path class="cls-21" d="M2128.19,1437.7c-6.88-3.74-9.27-12.84-11.55-21.51-1.52-5.74-3.93-14.92-.91-25.19,3.1-10.51,8.52-10.69,11.5-21.45a41,41,0,0,0-.06-21c-4-15.56-14.16-16.6-18.58-28.12-4.86-12.69,2-25.79,15-50.64,10.65-20.37,17.66-25.71,24.18-46,2.85-8.84,4.67-14.71,4.23-22.85-.76-14-7.23-17-10.91-35.09-1.47-7.22-3.33-16.35-.81-27.28s8.17-18.15,14.88-26.54c12.91-16.14,17.64-13.5,26.42-27a90.33,90.33,0,0,0,11.84-28.78c2.3-11.23,1.24-18.43,3-18.72,2.48-.41,10,13.26,10.16,28.77.21,20.49-12.62,25.47-20.44,55.62-2.92,11.21-5,19.36-3.53,30.21,2.57,18.55,12.34,20.65,18,40.67,1.2,4.24,7,24.69-1.08,45-7.37,18.61-17.8,15.61-23.54,32.42-4.15,12.17-1.18,26.35,4.75,54.71,4.06,19.42,4.93,16.67,6.13,25.43.58,4.21,6.24,50.23-22.43,75.43C2156,1433.17,2139.1,1443.62,2128.19,1437.7Z" transform="translate(223.57)"/><path class="cls-20" d="M2153.71,1408.81c-3.88-4.27-3.46-12-3.05-19.37.26-4.88.69-12.68,5.11-20.35,4.53-7.86,8.31-7,12.81-15.07a39.7,39.7,0,0,0,4.74-16.81c.82-13.2-6-15.92-6.39-26-.46-11.06,7.25-20.3,21.86-37.81,12-14.35,18-17.34,27.14-32.39,4-6.56,6.57-10.93,8.12-17.53,2.65-11.32-1.11-15,.48-30.14.63-6.06,1.43-13.72,5.66-22s9.76-13,16.3-18.52c12.57-10.55,15.23-7.55,24.36-16.78a84.45,84.45,0,0,0,14.72-20.87c4.14-8.58,5-14.54,6.32-14.45,1.81.13,3.87,12.47.44,24.94-4.53,16.46-14.49,18.07-26.76,40.78-4.56,8.45-7.87,14.59-9.31,23.56-2.46,15.34,3.79,18.83,3.12,35.92-.15,3.62-.84,21.07-11,35.86-9.31,13.55-15.82,9.21-23.6,21.63-5.63,9-6.82,20.89-9.2,44.71-1.63,16.32-.4,14.28-1.57,21.52-.56,3.48-7.15,41.41-32.64,56.3C2173.89,1410.32,2159.88,1415.58,2153.71,1408.81Z" transform="translate(223.57)"/><path class="cls-21" d="M2074.93,1434c-3.28-1.87-1.11-6.71-5.23-11.51-4.63-5.38-10.62-3.09-18.84-6.28-10.51-4.08-19-14.92-20.93-25.12-1.86-9.72,3.62-11.56,2.09-25.12-.44-4-1.38-11.5-6.28-18.83-2.79-4.17-4-4-16.75-14.66-12.23-10.22-14.76-13.44-16.74-16.74a49.85,49.85,0,0,1-5.23-12.56c-2.3-8.22-.71-9.88-2.1-16.75-1.72-8.56-4.94-9.73-14.65-29.3-4.75-9.58-4.45-10.24-4.19-10.47,2.41-2.14,24.78,10.52,35.59,32.45,7.78,15.78,5,27.18,14.65,32.44,8.15,4.46,12.84-1.79,20.93,2.09,14.94,7.17,6.82,32.72,23,45,10.16,7.7,16.74.24,29.3,7.32,23.49,13.26,27.25,54.48,20.93,57.57-2.72,1.33-5.5-5.34-12.55-5.24C2086.61,1418.48,2079.77,1436.78,2074.93,1434Z" transform="translate(223.57)"/><path class="cls-22" d="M2116.79,1439.25c12.64,1.9,19.07,2.77,25.12-1,13.09-8.26,16.53-33.26,8.37-49.19-4.44-8.68-9.77-9.66-12.55-19.89-.44-1.61-1.86-7.25,0-23,1.47-12.52,3.36-17.51,4.18-23,1.84-12.35-3.25-16.8-18.84-53.37-7.06-16.58-11.87-29.4-15.7-45-3.65-14.75-3.46-19.87-3.14-23,1.42-13.9,8-16.65,12.56-34.54,1.81-7.14,4.1-16.17,2.1-27.21s-7.3-18.51-13.61-27.21c-12.13-16.74-17-14.31-25.12-28.26a90.42,90.42,0,0,1-10.46-29.3c-1.76-11.33-.36-18.47-2.1-18.84-2.46-.53-10.62,12.77-11.51,28.26-1.17,20.45,11.4,26,17.79,56.51,2.38,11.34,4.11,19.59,2.1,30.35-3.45,18.4-13.3,20-19.89,39.77-1.39,4.18-8.12,24.33-1.05,45,6.48,18.93,17.05,16.43,22,33.49,3.57,12.35-.06,26.37-7.32,54.42-4.54,17.51-5.23,15.51-7.33,25.12-3.77,17.26-11.58,53,7.33,73.26C2080.19,1433.74,2094.94,1436,2116.79,1439.25Z" transform="translate(223.57)"/><path class="cls-21" d="M2158.06,1418.54c-2-3.87-.25-8.8,1.41-13.51,1.1-3.11,2.85-8.09,7.45-11.87s7.26-2.25,12-6.28a22.82,22.82,0,0,0,6.53-9.65c3-8.4-1.33-12.06.24-18.75,1.72-7.35,9-11.24,22.7-18.61,11.27-6,16.16-6.31,25.5-13.61,4.07-3.18,6.75-5.31,9.08-9.19,4-6.66,2-10.08,5.95-19.55,1.58-3.78,3.57-8.56,8.15-12.81s9.43-5.79,15.14-7.55c11-3.4,12.33-.7,20.6-4.19a50.26,50.26,0,0,0,14.44-9.54c4.57-4.45,6.33-8.09,7.22-7.68,1.27.59.46,9.23-4.31,16.42-6.31,9.49-13.76,7.77-26.78,19.19-4.85,4.25-8.37,7.34-11.07,12.8-4.61,9.33-.77,13.35-4.43,24.33-.77,2.32-4.51,13.53-14.56,20.36-9.2,6.26-13.07,1.62-20.95,7.56-5.72,4.3-8.78,11.75-14.92,26.65-4.2,10.2-2.94,9.21-5.12,13.62-1.05,2.11-12.83,25-33.89,27.69C2172.26,1425.14,2161.23,1424.67,2158.06,1418.54Z" transform="translate(223.57)"/><path class="cls-36" d="M2269.6,1460.63c0,1.54-.14,7.25-4.14,11.38-3.38,3.49-7.74,4-15,4.66-17.56,1.49-30.72,1.55-32.07,1.55-11.74,0-16.71-.16-21.73-.52-7.33-.52-11.09-.8-16-2.06-5.48-1.4-6.45-2.42-11.39-3.11-6.37-.89-7.85.36-11.89-1a20,20,0,0,1-9.32-7.25c-.58-.77-6.62-9.06-4.14-18.62a16.84,16.84,0,0,1,.74-2.21,35.79,35.79,0,0,1,4.44-7.1,54.65,54.65,0,0,1,8.79-9.31c12.12-9.72,31.88-8.69,39.84-8.28,4.5.23,11.79,1.71,26.38,4.66,16.56,3.34,21.44,5.12,26.38,8.79a44.64,44.64,0,0,1,9.19,9.49c.72.93,1.44,1.91,2.2,2.93C2266.73,1451.17,2269.54,1455.06,2269.6,1460.63Z" transform="translate(223.57)"/><path class="cls-37" d="M2269.6,1460.63c0,1.54-.14,7.25-4.14,11.38-3.38,3.49-7.74,4-15,4.66-17.56,1.49-30.72,1.55-32.07,1.55-11.74,0-16.71-.16-21.73-.52-7.33-.52-11.09-.8-16-2.06-5.48-1.4-6.45-2.42-11.39-3.11-6.37-.89-7.85.36-11.89-1a20,20,0,0,1-9.32-7.25c-.58-.77-6.62-9.06-4.14-18.62a16.84,16.84,0,0,1,.74-2.21,112.77,112.77,0,0,0,14.27,7.9c6.86,3.14,15.61,5.37,33.11,9.83,17.05,4.35,21.54,4.66,25.35,4.66,6.54,0,12-1,18.1-2.07,9.12-1.63,13.69-2.44,16.56-4.66,6.54-5.06,6.3-13.13,7.63-17.41.72.93,1.44,1.91,2.2,2.93C2266.73,1451.17,2269.54,1455.06,2269.6,1460.63Z" transform="translate(223.57)"/><path class="cls-36" d="M2167,1465.41c0,3.11-.28,14.66-8.37,23-6.83,7-15.65,8.17-30.35,9.42-35.54,3-62.16,3.12-64.89,3.14-23.76,0-33.81-.33-44-1-14.83-1.06-22.44-1.63-32.44-4.19-11.09-2.82-13-4.87-23-6.28-12.9-1.81-15.9.74-24.07-2.09-10.57-3.65-16.64-11.73-18.84-14.65-1.17-1.56-13.4-18.35-8.37-37.68a34.44,34.44,0,0,1,1.49-4.47c1.92-4.64,4.81-8.61,9-14.37a112,112,0,0,1,17.8-18.84c24.52-19.65,64.48-17.58,80.58-16.74,9.11.47,23.87,3.45,53.38,9.42,33.5,6.77,43.37,10.36,53.38,17.79,7.7,5.71,13,11.82,18.57,19.2,1.46,1.89,2.91,3.85,4.45,5.92C2161.23,1446.27,2166.93,1454.14,2167,1465.41Z" transform="translate(223.57)"/><path class="cls-38" d="M2167,1465.41c0,3.11-.28,14.66-8.37,23-6.83,7-15.65,8.17-30.35,9.42-35.54,3-62.16,3.12-64.89,3.14-23.76,0-33.81-.33-44-1-14.83-1.06-22.44-1.63-32.44-4.19-11.09-2.82-13-4.87-23-6.28-12.9-1.81-15.9.74-24.07-2.09-10.57-3.65-16.64-11.73-18.84-14.65-1.17-1.56-13.4-18.35-8.37-37.68a34.44,34.44,0,0,1,1.49-4.47,227.94,227.94,0,0,0,28.86,16c13.89,6.36,31.59,10.87,67,19.89,34.5,8.79,43.58,9.43,51.28,9.42,13.24,0,24.24-2,36.64-4.19,18.45-3.29,27.68-4.93,33.49-9.42,13.24-10.23,12.75-26.57,15.43-35.22,1.46,1.89,2.91,3.85,4.45,5.92C2161.23,1446.27,2166.93,1454.14,2167,1465.41Z" transform="translate(223.57)"/></g></g></g></svg>