<svg xmlns="http://www.w3.org/2000/svg" viewBox="0 0 364.25 839.64"><defs><style>.cls-1{fill:#967263;}.cls-2{fill:#dbc1bd;}.cls-3{fill:#e5c8c2;}.cls-4{fill:#d8c0bc;}.cls-5{fill:#fff;}.cls-6{fill:#264226;}.cls-7{fill:#916c5a;}.cls-8{fill:#9c7765;}.cls-9{fill:#f4eaeb;}.cls-10{fill:#f0d3d5;}.cls-11,.cls-14{fill:none;stroke-miterlimit:10;}.cls-11{stroke:#020202;}.cls-12{fill:#ede4e5;}.cls-13{fill:#d87e80;}.cls-14{stroke:#000;stroke-linecap:round;}</style></defs><g id="Camada_2" data-name="Camada 2"><g id="Pronto"><path class="cls-1" d="M189.14,8.88c-10.14,4.55-29,14.85-41.62,35.67C133,68.6,135,93.11,136.82,115.89c3,36.88-15.34,57.17-10.7,59.45,2.16,1.06,7.53-1.79,22.59-22.59-23.11,55.7-20.82,76.83-11.89,84.42,5,4.27,14.65,4.22,17.84,11.89,2.61,6.28-1.73,10.93-3.57,21.4-1.75,10-1.58,27.43,5.95,33.29,10.47,8.15,24.19-14.7,60.64-19,16-1.9,36.26-2.13,76.09,3.56h0c4.22-.54,8.53-.65,9.33,1.14,2,4.6-21.15,16.94-20,19.08s29.65-3.68,35.67-21.41c.89-2.6,2.89-5.38-1.19-21.4-3.16-12.43-7.59-35-3.56-36.86,3.79-1.77,11.43,16.44,22.59,15.46,5.5-.48,10.47-5.54,11.89-10.7,3.49-12.68-16.31-27.63-16.65-27.35-.18.15,5,4.48,5.95,11.89.51,4-.1,10-2.38,10.7-4.31,1.31-16.41-15.66-21.4-34.48-5.19-19.51.42-28,2.37-67.77.7-14.11,1.14-23.17,0-34.48C314.44,73,311.28,41.74,289,20.77,262.17-4.52,218.77-4.44,189.14,8.88Z"/><path d="M287.64,386.36c4.38,8.1,5.32,20.31,6.9,73.14,2.55,85.21,3.82,127.81,2.9,156.2-2.93,89.78-4.45,136.39-15.69,166.67-1.61,4.33-10.08,26.26-7.12,37.29,1.69,6.3,6.29,6,6.39,8.76.13,4-9.07,5.59-15.06,5.63-7.44,0-9.09-2.36-9.92-3.93-3.84-7.23-3.77-21.83-3.79-27.34-.1-30.34-5.93-60.9-8.15-91.45-4.68-64.56-6.33-55.14-8.46-96-1.9-36.53-.32-39-2.38-91.84-2.15-54.9-4-55.39-2.75-68.81C235.75,396.93,273.67,360.61,287.64,386.36Z"/><path d="M174.09,385.89c-4.38,8.09-5.32,20.31-6.9,73.13-2.55,85.21-3.83,127.82-2.9,156.21C167.22,705,168.74,751.62,180,781.9c1.61,4.32,10.08,26.25,7.12,37.28-1.69,6.31-6.29,6-6.39,8.77-.13,3.95,9.07,5.58,15.06,5.62,7.44,0,9.09-2.36,9.92-3.93,3.84-7.23,3.77-21.82,3.79-27.34.1-30.34,5.93-60.89,8.15-91.45,4.68-64.56,6.33-55.14,8.46-96,1.9-36.54.32-39,2.38-91.84,2.14-54.91,4-55.39,2.75-68.82C226,396.45,188.06,360.13,174.09,385.89Z"/><path class="cls-2" d="M211.73,175.34c-4.62,6.69,2.08,13.5,0,35.67-.55,5.87-1.59,11.46-5.44,16.52-2.89,3.8-6.54,6.09-9.13,7.88-12.6,8.7-13.8,7.67-17.53,12.46-5.69,7.3-5.85,16.77-5.95,22.59a47.37,47.37,0,0,0,1.19,11.89c1.2,5.14,2.62,7.14,4.76,14.27,0,0,1.23,4.1,2.38,9.51a98.11,98.11,0,0,1,1.18,33.29c-3.68,21.47-15.71,27-13.07,45.18.21,1.47.64,3.19,1.51,6.63,2.74,10.91,7,27.46,12.52,33.7,17.48,19.78,61.36,23,84.74,3.86C283.25,417,289,400.06,289,400.06a45.14,45.14,0,0,0,2.37-9.51c2.25-18-9.9-24.89-14.26-45.19-3.28-15.24-.11-28.7,1.19-34.48,3.85-17.11,8.93-17.83,9.82-30.39.26-3.66,1.95-21.55-8.64-32.62-1.32-1.39-5.24-3.7-13.07-8.33-10.93-6.45-14.47-7.43-17.84-11.89-2.3-3-3.69-6.6-4.76-14.26-3.37-24.36,4.39-33.89-1.19-40.43C236.39,165.62,217.53,166.94,211.73,175.34Z"/><path class="cls-3" d="M288.42,40.38c18.93,29.12,8.27,63.58,1.19,86.8-5.3,17.41-12.13,27.64-14.86,31.51-7.45,10.53-22.45,31.28-44.59,32.7-31,2-52.61-35.51-56.48-42.21a81.19,81.19,0,0,1-8.32-21.4,67.6,67.6,0,0,1-1.19-8.33c-3.38-40.51-5.27-63.14,7.13-82C183,19.53,206.24,7,230.75,7.69,256.7,8.38,277.54,23.64,288.42,40.38Z"/><path class="cls-4" d="M220.74,134.62c-1-1.63,3-7.7,8.45-8.29,5.78-.63,11.12,5.16,10.43,6.89-.37.92-2.3.3-8.39.7C223.76,134.4,221.36,135.66,220.74,134.62Z"/><path class="cls-3" d="M291.34,102c2.39-3.42,4.36-4.45,5.86-4.89,4.15-1.2,8.47,1.07,10.88,3.51,3.75,3.81,3.69,8.86,3.65,11.53a19,19,0,0,1-5.17,13.25,17.32,17.32,0,0,1-10.93,5.15c-2.25.15-4.51.3-6.42-.94C283.16,125.7,285.2,110.83,291.34,102Z"/><path class="cls-3" d="M167.27,102.27c-2.2-3.54-4.12-4.67-5.59-5.19-4.08-1.42-8.51.62-11.05,2.93-3.95,3.61-4.15,8.65-4.25,11.32a19,19,0,0,0,4.46,13.51,17.38,17.38,0,0,0,10.65,5.72c2.23.27,4.48.54,6.45-.6C174.19,126.35,172.94,111.39,167.27,102.27Z"/><path class="cls-5" d="M241.47,104.69a16.48,16.48,0,0,1,2.06-8.27,17.7,17.7,0,0,1,11.22-8.23A18,18,0,0,1,266,89.31a18.61,18.61,0,0,1,10.15,12.42,19.46,19.46,0,0,1,.42,6.06c-.18,2.06-.43,5.15-2.07,7.23-2.26,2.87-6.34,2.83-13.92,2.65-8.72-.2-13.08-.31-16-3.53S241.49,106.14,241.47,104.69Z"/><path class="cls-6" d="M252.22,94.85a11.52,11.52,0,0,1,9-1.13,12.51,12.51,0,0,1,5.64,3.38,13.11,13.11,0,0,1,3.39,6.77,10.85,10.85,0,0,1-1.13,7.9c-2.43,3.82-6.86,4.38-7.9,4.52a12.19,12.19,0,0,1-6.77-1.13,12.54,12.54,0,0,1-5.64-5.64,11.54,11.54,0,0,1-1.13-9A10.68,10.68,0,0,1,252.22,94.85Z"/><path d="M255.12,101.35a5.74,5.74,0,0,1,4.5-.56,6.33,6.33,0,0,1,2.82,1.69,6.63,6.63,0,0,1,1.68,3.37,5.37,5.37,0,0,1-.56,3.94,5.42,5.42,0,0,1-3.94,2.25,6,6,0,0,1-6.18-3.38,5.77,5.77,0,0,1-.57-4.49A5.41,5.41,0,0,1,255.12,101.35Z"/><path class="cls-5" d="M254.87,107.44a1.81,1.81,0,0,0-2.09,1.74,1.68,1.68,0,0,0,1.45,1.46,1.8,1.8,0,0,0,1.92-1.88A1.61,1.61,0,0,0,254.87,107.44Z"/><path d="M240.83,107.05c-.62-.12-.68-3.65.07-6.72a16.87,16.87,0,0,1,3.1-6.2,21.11,21.11,0,0,1,7.24-6.2,16.68,16.68,0,0,1,9.3-2.07c2.66.25,4.87,1.57,9.3,4.14a70.72,70.72,0,0,0,9,4.85,10.07,10.07,0,0,0,4.57.91c2.19-.14,3.57-1.08,3.65-.91s-2.24,2.29-5.48,2.73c-2.11.3-3.58-.24-3.65,0s2.15,1.59,4.76,1.72c3.77.2,6.2-2.1,6.39-1.82.37.53-8.13,9.46-12.78,7.3-2-.91-1.41-2.94-3.66-6.39-.27-.43-5.28-7.85-13.69-8.22a17,17,0,0,0-11.87,4.57C241.8,99.82,241.74,107.22,240.83,107.05Z"/><path class="cls-5" d="M263.77,100a3.28,3.28,0,0,0-3.79,3.16,3,3,0,0,0,2.63,2.63,3.25,3.25,0,0,0,3.47-3.4A2.94,2.94,0,0,0,263.77,100Z"/><path class="cls-5" d="M215.45,105.94a16.63,16.63,0,0,0-2.07-8.27,17.7,17.7,0,0,0-11.22-8.23,17.9,17.9,0,0,0-11.28,1.13A18.59,18.59,0,0,0,180.72,103a19.26,19.26,0,0,0-.41,6.06c.18,2.06.42,5.15,2.07,7.23,2.25,2.87,6.34,2.83,13.91,2.65,8.72-.2,13.08-.31,16-3.53S215.43,107.39,215.45,105.94Z"/><path class="cls-6" d="M204.69,96.1a11.55,11.55,0,0,0-9-1.13A12.58,12.58,0,0,0,190,98.35a13.21,13.21,0,0,0-3.38,6.78,10.78,10.78,0,0,0,1.13,7.89c2.42,3.82,6.86,4.38,7.9,4.52a12.12,12.12,0,0,0,6.77-1.13,12.6,12.6,0,0,0,5.64-5.64c.64-1.25,2.51-4.85,1.13-9A10.73,10.73,0,0,0,204.69,96.1Z"/><path d="M201.79,102.6a5.78,5.78,0,0,0-4.5-.56,6.27,6.27,0,0,0-2.81,1.69,6.54,6.54,0,0,0-1.69,3.37,4.84,4.84,0,0,0,4.5,6.19,6,6,0,0,0,3.38-.56,6.28,6.28,0,0,0,2.81-2.81,5.76,5.76,0,0,0,.56-4.5A5.36,5.36,0,0,0,201.79,102.6Z"/><path class="cls-5" d="M192.91,108.69a1.81,1.81,0,0,0-2.09,1.74,1.67,1.67,0,0,0,1.45,1.46,1.8,1.8,0,0,0,1.92-1.88A1.63,1.63,0,0,0,192.91,108.69Z"/><path d="M216.08,108.3c.63-.11.69-3.65-.07-6.72a16.87,16.87,0,0,0-3.1-6.2,21.34,21.34,0,0,0-7.23-6.2,16.62,16.62,0,0,0-9.31-2.06c-2.66.24-4.87,1.56-9.3,4.13a69.38,69.38,0,0,1-9,4.85,9.91,9.91,0,0,1-4.57.91c-2.19-.14-3.56-1.08-3.65-.91s2.25,2.29,5.48,2.74c2.11.29,3.59-.25,3.65,0s-2.15,1.58-4.75,1.71c-3.77.2-6.21-2.09-6.4-1.82-.36.53,8.13,9.46,12.79,7.3,2-.91,1.4-2.94,3.65-6.39.28-.42,5.28-7.85,13.7-8.22A17,17,0,0,1,209.8,96C215.12,101.07,215.18,108.47,216.08,108.3Z"/><path class="cls-5" d="M201.81,101.2a3.28,3.28,0,0,0-3.79,3.16,3,3,0,0,0,2.63,2.63,3.24,3.24,0,0,0,3.47-3.39A2.94,2.94,0,0,0,201.81,101.2Z"/><path class="cls-7" d="M215.24,83.79c2.22-1.44,4.38-4.2,3.75-6.25-.29-1-1.43-2.6-12.51-3.76-4.38-.45-11.22-.93-25,0-8.19.56-8.71.92-8.76,1.25-.18,1.21,5.89,2.16,25,7.51C206.35,85,211.15,86.45,215.24,83.79Z"/><path class="cls-7" d="M245.48,92.56c-2.22-1.44-4.38-4.2-3.75-6.26.29-1,1.43-2.59,12.51-3.75,4.38-.46,11.23-.94,25,0,8.19.55,8.71.92,8.76,1.25.18,1.21-5.88,2.15-25,7.51C254.37,93.72,249.57,95.22,245.48,92.56Z"/><path class="cls-8" d="M245.27,47.51c-1,.26-1.91,1.26-4.15,8.72-4.05,13.5-3,16.38-5.72,21-5.17,8.83-16.65,11.33-17.17,10.49s9.93-4.61,14.53-15.15a40.67,40.67,0,0,0,2.69-18.46c0-.23,0-.39,0-.46-.86-5.92-4.6-10.8-5.73-10.48-1.29.36,2.23,7.26,0,15.72-2.18,8.27-8.66,13.48-11.44,15.72-5.61,4.51-11.37,6.5-22.9,10.49-12.25,4.23-15.3,3.91-20,7.86a28.58,28.58,0,0,0-8.58,13.1c-3.32,9.36-1.44,17.61,0,23.58,3.27,13.58,8.33,14.35,8.58,23.59.33,11.66-7.43,21.32-8.58,21-1-.3,3-7.42,2.86-18.34-.17-10.67-4.14-13.25-8.58-28.83-4-14.16-5.13-26.28-5.73-26.2-.42,0,1.29,6-1.8,11.54-.17.3-4,6.94-8.32,5.94-3.77-.86-5.21-6.84-4.76-7.13s2.15,3.63,4.76,3.57,4.64-4.48,4.75-4.76c2.61-6.25-1.5-13.37-3.21-17-6.64-14.18-2.69-30.24,0-39.31,6.08-20.48,22.64-32.48,28.61-36.69C202-1.85,232.06.2,241.12,1.2c9.7,1.07,26.56,3.24,42.92,15.72,1.69,1.29,27.48,21.59,29.95,53.78.69,9.13-.67,16.69-2.38,26.16-3.05,16.86-4.57,25.29-10.7,33.29-11.69,15.27-29.41,15-29.73,25-.12,3.89,2.45,8.15,4.76,8.33,3.7.28,6-10,8.32-9.52,2,.39,3.76,8.43,0,14.27-2.17,3.37-6.51,6.52-10.7,6-6.93-1-13-12.08-11.89-21.4,1.81-15.41,22-16.16,28.1-36.25.76-2.52,3.35-11.49,0-21-4.54-12.8-14.77-11.85-28.62-28.83C252.46,56.05,249.06,46.55,245.27,47.51Z"/><path class="cls-9" d="M201,224.09c-2.94,2.18-4.88,4.5-10.7,8.32-10.27,6.73-10.91,7.19-13.08,9.51-5.11,5.48-5.49,13-4.76,29.73.93,21.06-1.11-2.71,2.38,33.29,2.53,26.08,3,26.46,2.38,30.91-1.76,13.54-6.28,14.54-9.51,32.11-2.12,11.47-.32,10.66-2.38,23.78-3.57,22.75-10,29.28-6,38,2.06,4.49,6.09,7.9,15.46,11.89,10.6,4.52,32.32,11.6,97.5,1.19,16.63-2.65,24-4.52,27.35-10.7,4.33-8.08-4-13.05-6-38.05-.4-5-.8-14-4.75-25-.93-2.57-1.08-2.57-2.38-5.95a142.9,142.9,0,0,1-7.14-25c-1.72-9.82.89-11.08,4.76-40.43,0,0,1.46-11.07,2.38-27.34,1.07-19.08.14-24.4-3.57-27.35-2.68-2.13-5-2.48-14.27-7.13-8-4-8.31-8.38-14.26-13.08C240.19,211.56,213.79,214.6,201,224.09Z"/><path class="cls-10" d="M173.87,775.79c2.5-2.29,6.88,2.6,17.84,3.56,14.65,1.29,23.06-6,26.15-2.37,2.28,2.67-2.34,6.56-3.56,17.83-.35,3.18.16,9.3,1.19,21.4,1,11.63,1.33,13.19,0,15.46-.81,1.38-3.64,5.41-19,7.13-9.09,1-30.76,2.16-32.1-3.56-1.1-4.69,13.22-6.35,17.83-17.84C188.84,800.85,168.66,780.56,173.87,775.79Z"/><path class="cls-10" d="M291.24,775.39c-2.5-2.28-6.88,2.6-17.84,3.57-14.65,1.29-23.06-6-26.16-2.38-2.27,2.68,2.35,6.56,3.57,17.84.35,3.18-.16,9.29-1.19,21.4-1,11.62-1.33,13.18,0,15.46.81,1.37,3.64,5.4,19,7.13,9.08,1,30.76,2.16,32.1-3.57,1.1-4.69-13.22-6.35-17.83-17.83C276.27,800.46,296.45,780.16,291.24,775.39Z"/><circle class="cls-11" cx="263.45" cy="105.78" r="28.54"/><circle class="cls-11" cx="195.68" cy="105.78" r="28.54"/><path class="cls-11" d="M224.22,105.78a12.55,12.55,0,0,1,5.94-1.19,12.69,12.69,0,0,1,4.76,1.19"/><path class="cls-12" d="M203.41,199.36c2.57-1.21,5.91,8.1,15.45,11.89,7.8,3.1,18.66,2.11,25-3.57,4.32-3.87,5.08-8.66,7.14-8.32s1.66,4.83,4.75,13.08c2.89,7.69,5,8.57,4.76,11.89-.42,6.76-9.56,11.32-13.08,13.08-17.48,8.73-35.3,1.75-42.8-1.19-7.24-2.84-9-5.07-9.52-7.13-1-4.58,4.82-6.92,7.14-15.46C204.36,205.74,201.37,200.32,203.41,199.36Z"/><path class="cls-13" d="M220.3,153.43c0-2.48,2.24-4.73,4.34-5.56a4,4,0,0,1,3.11-.27c1.49.66,1.57,2.45,2.5,2.5s1.22-1.92,2.51-2.5c2.27-1,7.55,2.51,7.5,5.83,0,3.67-6.65,7.23-12.15,6.34C224.68,159.22,220.35,156.74,220.3,153.43Z"/><path class="cls-14" d="M215.57,153.71a20.21,20.21,0,0,1,6.17-1.65c4.14-.41,5.28.83,12.67,1.39,2.46.18,4.83.23,6.16.26q3.26.06,6,0"/><path class="cls-3" d="M185.59,253.49c2.5.92-3.37,4.65-5.62,7.78-5.56,7.75-7.72,18.22-12.94,29-5.9,12.23-21.72,19.25-34.6,26.66-17.2,9.9-39.32,22.35-59.95,20.9-10-.69-17-3.08-25,1.83C42,343,40.63,349.58,35.73,353.46c-3.5,2.77-7.11,3.92-10.46,7-5.58,5.11-8,13.59-14.32,18-2.22,1.57-4.57,5.55-8,2.92-6.83-5.3-.12-21.67,2.07-28.21,3.15-9.37,20.25-20.92,24.9-22.61,9.94-3.6,12.75-3.16,18.87-5.26,8-2.73,16.58-9.46,21-13.27,14.53-12.47,36-21.81,49.92-29.26C132.21,276.16,176.45,250.12,185.59,253.49Z"/><path class="cls-9" d="M83.67,300.28C77.57,305,71.38,309.69,65,314.09c-7.71,5.32-8.65,7.23-16.87,9.11-1,.21-9.2,0-9.92,2.66-.11.42,0,1.2-.31,1.54s-.86.25-.93.65.56.55.66,1-.34,1.08-.24,1.55.45.59.68,1,.24,1,.46,1.49c.35.71,1.16.77,1.55,1.47s-.13,2,.4,2.54,1.11-.13,1.63.44-.12,1.94.39,2.5,1.06,0,1.66.44.78,1.78,1.4,2.1,1.06-.12,1.55.2.24.62.73,1,.85.19,1.77.36c2.3.44,8.89-2.37,10.3-2.71a21.52,21.52,0,0,1,12.27.15c6.89,1.88,20.47-4.5,25.76-5.27,11.74-1.71,49.44-26.44,50.83-27.52,16.2-12.53,24.94-21.91,32.22-31.28C187.61,269,194,260,192,252a16.24,16.24,0,0,0-7.91-9.77C168.75,234,140.11,256.32,83.67,300.28Z"/><path class="cls-3" d="M34.55,349.43c.92-.41,1.69-2.62,2.58-1.4,3.15,4.27-2.75,14.17-6.09,17.53-.86.86-3.09,4.37-4.92,2.93-4.27-3.37-3-14.08,1.75-17.15C29.45,350.31,32.9,350.17,34.55,349.43Z"/><path class="cls-3" d="M273.57,250c-4.05.93,3.07,5.31,4.6,8.54,3.78,8,10.19,18.35,14.19,28.84,4.54,11.86,19.49,22.56,28.14,31.45,11.54,11.87,3.89,26,3.91,41.52,0,7.48-3.6,12.49-11.18,15.49-5.14,2-12.62,1.88-17.33,6.57-3.38,3.36-4.84,7.41-8,10.89-5.21,5.78-13.6,7.71-18.59,13.54-1.76,2.06-5.48,3.95-3.23,7.38,4.55,6.92,21.44,2.35,27.41.14,8.54-3.17,19.39-16.68,22-21,5.6-9.14,6.81-9.72,13.24-14.2,8.33-5.81,16.12-10.91,22.94-17.73,22.31-22.3,8.18-46.32-6-63.5C333.05,282.69,288.39,246.63,273.57,250Z"/><path class="cls-9" d="M363,344.26a70.36,70.36,0,0,1-8.29,14.83,73.28,73.28,0,0,1-6.22,7.34c-8.15,8.63-11.15,6.36-18.28,14-.83.9-5.62,7.57-8.33,7.32-.42,0-1.37-.53-1.82-.37s-.6.66-1,.57-.46-.75-.88-1-1.22-.12-1.61-.4-.44-.62-.7-1-.69-.56-1-.92c-.42-.56-.1-1.24-.53-1.81s-1.77-.57-2-1.2.62-.79.36-1.44-1.76-.46-2.07-1.06.47-.81.33-1.43-1.31-1.12-1.3-1.7.65-.6.6-1.08-.5-.34-.56-.83.16-.56.58-1.27c1.05-1.78,6.44-4.78,7.57-5.49,4-2.52,2.37-3.78,3.32-7.23,1.42-5.2,2.16-14.23,2.36-18.55.44-9.78-11.52-14.25-28.5-32.37a159.52,159.52,0,0,1-23-34s-9.61-19-4.51-27.07a9.6,9.6,0,0,1,1.69-2c4.25-3.53,11-1.74,13.82-1,41.8,11.18,68,55,68,55C353.36,304,368.58,330,363,344.26Z"/><path class="cls-3" d="M300.14,383.13c.52-.92,3-1.12,1.91-2.32-3.86-4.19-14.5,1.47-18,4.93-.89.89-4.56,3.09-3.33,5.21,2.88,4.92,13.53,3.46,16.69-1.21C298.49,388.17,299.21,384.78,300.14,383.13Z"/></g></g></svg>