<svg xmlns="http://www.w3.org/2000/svg" viewBox="0 0 223.51 839.64"><defs><style>.cls-1{fill:#967263;}.cls-2{fill:#dbc1bd;}.cls-3{fill:#e5c8c2;}.cls-4{fill:#d8c0bc;}.cls-5{fill:#fff;}.cls-6{fill:#264226;}.cls-7{fill:#916c5a;}.cls-8{fill:#f4eaeb;}.cls-9{fill:#f0d3d5;}.cls-10{fill:#ede4e5;}.cls-11{fill:#d87e80;}.cls-12,.cls-14{fill:none;stroke-miterlimit:10;}.cls-12{stroke:#000;stroke-linecap:round;}.cls-13{fill:#9c7765;}.cls-14{stroke:#020202;}</style></defs><g id="Camada_2" data-name="Camada 2"><g id="Pronto"><path class="cls-1" d="M63.77,8.88c-10.14,4.55-29,14.85-41.61,35.67-14.58,24-12.57,48.56-10.7,71.34,3,36.88-15.35,57.17-10.7,59.45,2.16,1.06,7.53-1.79,22.59-22.59C.24,208.45,2.53,229.58,11.46,237.17c5,4.27,14.65,4.22,17.83,11.89,2.62,6.28-1.73,10.93-3.56,21.4-1.76,10-1.58,27.43,5.94,33.29,10.48,8.15,24.2-14.7,60.64-19,16-1.9,36.26-2.13,76.1,3.56h0c4.21-.54,8.53-.65,9.33,1.14,2,4.6-21.15,16.94-20,19.08s29.65-3.68,35.67-21.41c.88-2.6,2.88-5.38-1.19-21.4-3.17-12.43-7.6-35-3.57-36.86,3.79-1.77,11.44,16.44,22.59,15.46,5.5-.48,10.47-5.54,11.89-10.7,3.49-12.68-16.3-27.63-16.64-27.35-.18.15,5,4.48,5.94,11.89.52,4-.09,10-2.38,10.7-4.31,1.31-16.4-15.66-21.4-34.48-5.18-19.51.42-28,2.38-67.77.69-14.11,1.14-23.17,0-34.48-1.93-19.11-5.08-50.37-27.35-71.34C136.81-4.52,93.41-4.44,63.77,8.88Z"/><path d="M162.27,386.36c4.39,8.1,5.32,20.31,6.9,73.14,2.55,85.21,3.83,127.81,2.9,156.2-2.92,89.78-4.44,136.39-15.69,166.67-1.6,4.33-10.07,26.26-7.11,37.29,1.69,6.3,6.29,6,6.38,8.76.14,4-9.07,5.59-15.06,5.63-7.44,0-9.08-2.36-9.92-3.93-3.84-7.23-3.77-21.83-3.79-27.34-.1-30.34-5.93-60.9-8.14-91.45-4.69-64.56-6.33-55.14-8.46-96-1.91-36.53-.33-39-2.39-91.84-2.14-54.9-4-55.39-2.75-68.81C110.39,396.93,148.31,360.61,162.27,386.36Z"/><path d="M48.73,385.89C44.34,394,43.41,406.2,41.83,459c-2.55,85.21-3.83,127.82-2.9,156.21C41.85,705,43.37,751.62,54.62,781.9c1.6,4.32,10.07,26.25,7.11,37.28-1.69,6.31-6.29,6-6.38,8.77-.14,3.95,9.07,5.58,15.06,5.62,7.44,0,9.08-2.36,9.92-3.93,3.84-7.23,3.77-21.82,3.79-27.34.1-30.34,5.93-60.89,8.14-91.45,4.69-64.56,6.33-55.14,8.46-96,1.91-36.54.33-39,2.39-91.84,2.14-54.91,4-55.39,2.75-68.82C100.61,396.45,62.69,360.13,48.73,385.89Z"/><path class="cls-2" d="M86.37,175.34c-4.62,6.69,2.08,13.5,0,35.67-.55,5.87-1.59,11.46-5.44,16.52-2.89,3.8-6.55,6.09-9.13,7.88-12.6,8.7-13.81,7.67-17.54,12.46-5.69,7.3-5.85,16.77-5.94,22.59a46.89,46.89,0,0,0,1.19,11.89c1.2,5.14,2.62,7.14,4.75,14.27,0,0,1.23,4.1,2.38,9.51a98,98,0,0,1,1.19,33.29c-3.68,21.47-15.72,27-13.08,45.18.21,1.47.65,3.19,1.51,6.63,2.75,10.91,7,27.46,12.52,33.7,17.49,19.78,61.36,23,84.74,3.86,14.36-11.76,20.13-28.73,20.13-28.73a45.09,45.09,0,0,0,2.38-9.51c2.24-18-9.91-24.89-14.27-45.19-3.27-15.24-.11-28.7,1.19-34.48,3.85-17.11,8.94-17.83,9.83-30.39.26-3.66,1.95-21.55-8.64-32.62-1.33-1.39-5.24-3.7-13.08-8.33-10.93-6.45-14.47-7.43-17.83-11.89-2.3-3-3.7-6.6-4.76-14.26-3.38-24.36,4.38-33.89-1.19-40.43C111,165.62,92.16,166.94,86.37,175.34Z"/><path class="cls-3" d="M163.06,40.38c18.92,29.12,8.27,63.58,1.19,86.8-5.31,17.41-12.13,27.64-14.87,31.51-7.45,10.53-22.44,31.28-44.58,32.7-31,2-52.61-35.51-56.48-42.21A81,81,0,0,1,40,127.78a69.26,69.26,0,0,1-1.18-8.33c-3.39-40.51-5.28-63.14,7.13-82C57.68,19.53,80.87,7,105.39,7.69,131.33,8.38,152.17,23.64,163.06,40.38Z"/><path class="cls-4" d="M95.37,134.62c-1-1.63,3-7.7,8.46-8.29,5.78-.63,11.12,5.16,10.42,6.89-.37.92-2.29.3-8.39.7C98.39,134.4,96,135.66,95.37,134.62Z"/><path class="cls-3" d="M41.91,102.27c-2.2-3.54-4.12-4.67-5.59-5.19-4.08-1.42-8.52.62-11,2.93-3.95,3.61-4.15,8.65-4.26,11.32a19,19,0,0,0,4.46,13.51,17.38,17.38,0,0,0,10.65,5.72c2.24.27,4.48.54,6.46-.6C48.83,126.35,47.58,111.39,41.91,102.27Z"/><path class="cls-5" d="M116.1,104.69a16.63,16.63,0,0,1,2.07-8.27,17.7,17.7,0,0,1,11.22-8.23,17.94,17.94,0,0,1,11.28,1.12,18.6,18.6,0,0,1,10.16,12.42,19.26,19.26,0,0,1,.41,6.06c-.18,2.06-.42,5.15-2.07,7.23-2.25,2.87-6.34,2.83-13.91,2.65-8.72-.2-13.08-.31-16-3.53S116.12,106.14,116.1,104.69Z"/><path class="cls-6" d="M126.86,94.85a11.5,11.5,0,0,1,9-1.13,12.58,12.58,0,0,1,5.65,3.38,13.21,13.21,0,0,1,3.38,6.77,10.8,10.8,0,0,1-1.13,7.9c-2.42,3.82-6.86,4.38-7.9,4.52a12.21,12.21,0,0,1-6.77-1.13,12.6,12.6,0,0,1-5.64-5.64c-.64-1.25-2.51-4.85-1.13-9A10.69,10.69,0,0,1,126.86,94.85Z"/><path d="M129.76,101.35a5.74,5.74,0,0,1,4.5-.56,6.27,6.27,0,0,1,2.81,1.69,6.54,6.54,0,0,1,1.69,3.37,4.84,4.84,0,0,1-4.5,6.19,6,6,0,0,1-6.19-3.38,5.73,5.73,0,0,1-.56-4.49A5.36,5.36,0,0,1,129.76,101.35Z"/><path class="cls-5" d="M129.51,107.44a1.82,1.82,0,0,0-2.1,1.74,1.69,1.69,0,0,0,1.46,1.46,1.81,1.81,0,0,0,1.92-1.88A1.63,1.63,0,0,0,129.51,107.44Z"/><path d="M115.47,107.05c-.63-.12-.69-3.65.07-6.72a16.87,16.87,0,0,1,3.1-6.2,21.21,21.21,0,0,1,7.23-6.2,16.69,16.69,0,0,1,9.31-2.07c2.66.25,4.87,1.57,9.3,4.14a69.38,69.38,0,0,0,9,4.85,10,10,0,0,0,4.57.91c2.19-.14,3.56-1.08,3.65-.91s-2.25,2.29-5.48,2.73c-2.11.3-3.59-.24-3.65,0s2.15,1.59,4.75,1.72c3.77.2,6.21-2.1,6.4-1.82.36.53-8.13,9.46-12.79,7.3-2-.91-1.4-2.94-3.65-6.39-.28-.43-5.28-7.85-13.7-8.22a17,17,0,0,0-11.87,4.57C116.43,99.82,116.37,107.22,115.47,107.05Z"/><path class="cls-5" d="M138.4,100a3.29,3.29,0,0,0-3.79,3.16,3,3,0,0,0,2.64,2.63,3.25,3.25,0,0,0,3.47-3.4A2.94,2.94,0,0,0,138.4,100Z"/><path class="cls-5" d="M90.08,105.94A16.48,16.48,0,0,0,88,97.67,17.7,17.7,0,0,0,76.8,89.44a17.93,17.93,0,0,0-11.29,1.13A18.6,18.6,0,0,0,55.36,103a19.46,19.46,0,0,0-.42,6.06c.18,2.06.43,5.15,2.07,7.23,2.26,2.87,6.34,2.83,13.92,2.65,8.72-.2,13.08-.31,16-3.53S90.06,107.39,90.08,105.94Z"/><path class="cls-6" d="M79.33,96.1a11.57,11.57,0,0,0-9-1.13,12.51,12.51,0,0,0-5.64,3.38,13.11,13.11,0,0,0-3.39,6.78A10.83,10.83,0,0,0,62.4,113c2.43,3.82,6.86,4.38,7.9,4.52a12.1,12.1,0,0,0,6.77-1.13,12.54,12.54,0,0,0,5.64-5.64,11.54,11.54,0,0,0,1.13-9A10.73,10.73,0,0,0,79.33,96.1Z"/><path d="M76.43,102.6a5.79,5.79,0,0,0-4.5-.56,6.33,6.33,0,0,0-2.82,1.69,6.63,6.63,0,0,0-1.68,3.37A5.36,5.36,0,0,0,68,111a5.42,5.42,0,0,0,3.94,2.25,6,6,0,0,0,3.37-.56,6.23,6.23,0,0,0,2.81-2.81,5.8,5.8,0,0,0,.57-4.5A5.41,5.41,0,0,0,76.43,102.6Z"/><path class="cls-5" d="M67.55,108.69a1.82,1.82,0,0,0-2.1,1.74,1.67,1.67,0,0,0,1.46,1.46A1.79,1.79,0,0,0,68.82,110,1.62,1.62,0,0,0,67.55,108.69Z"/><path d="M90.72,108.3c.62-.11.68-3.65-.07-6.72a16.87,16.87,0,0,0-3.1-6.2,21.24,21.24,0,0,0-7.24-6.2A16.6,16.6,0,0,0,71,87.12c-2.66.24-4.87,1.56-9.3,4.13a70.72,70.72,0,0,1-9,4.85A9.94,9.94,0,0,1,48.1,97c-2.19-.14-3.57-1.08-3.65-.91s2.24,2.29,5.48,2.74c2.11.29,3.58-.25,3.65,0s-2.15,1.58-4.76,1.71c-3.77.2-6.2-2.09-6.39-1.82-.36.53,8.13,9.46,12.78,7.3,2-.91,1.41-2.94,3.66-6.39.27-.42,5.28-7.85,13.69-8.22A17,17,0,0,1,84.43,96C89.75,101.07,89.81,108.47,90.72,108.3Z"/><path class="cls-5" d="M76.44,101.2a3.29,3.29,0,0,0-3.79,3.16A3,3,0,0,0,75.28,107a3.25,3.25,0,0,0,3.48-3.39A3,3,0,0,0,76.44,101.2Z"/><path class="cls-7" d="M89.88,83.79c2.21-1.44,4.37-4.2,3.75-6.25-.29-1-1.43-2.6-12.51-3.76-4.39-.45-11.23-.93-25,0-8.19.56-8.71.92-8.76,1.25-.18,1.21,5.88,2.16,25,7.51C81,85,85.78,86.45,89.88,83.79Z"/><path class="cls-7" d="M121.12,83.56c-2.22-1.44-4.38-4.2-3.76-6.26.29-1,1.43-2.59,12.51-3.75,4.39-.46,11.23-.94,25,0,8.19.55,8.71.92,8.76,1.25.18,1.21-5.89,2.15-25,7.51C130,84.72,125.21,86.22,121.12,83.56Z"/><path class="cls-8" d="M75.67,224.09c-2.94,2.18-4.88,4.5-10.71,8.32-10.26,6.73-10.91,7.19-13.08,9.51-5.1,5.48-5.49,13-4.75,29.73.92,21.06-1.12-2.71,2.38,33.29,2.53,26.08,3,26.46,2.37,30.91-1.75,13.54-6.27,14.54-9.51,32.11-2.11,11.47-.32,10.66-2.38,23.78-3.57,22.75-10,29.28-5.94,38,2.06,4.49,6.08,7.9,15.46,11.89,10.6,4.52,32.32,11.6,97.5,1.19,16.62-2.65,24-4.52,27.34-10.7,4.34-8.08-4-13.05-5.94-38.05-.4-5-.8-14-4.76-25-.92-2.57-1.07-2.57-2.38-5.95a143.48,143.48,0,0,1-7.13-25c-1.72-9.82.88-11.08,4.76-40.43,0,0,1.46-11.07,2.37-27.34,1.08-19.08.15-24.4-3.56-27.35-2.68-2.13-5-2.48-14.27-7.13-8-4-8.31-8.38-14.27-13.08C114.83,211.56,88.43,214.6,75.67,224.09Z"/><path class="cls-9" d="M165.87,775.39C163.38,773.11,159,778,148,779c-14.65,1.29-23.07-6-26.16-2.38-2.28,2.68,2.34,6.56,3.57,17.84.34,3.18-.16,9.29-1.19,21.4-1,11.62-1.33,13.18,0,15.46.81,1.37,3.63,5.4,19,7.13,9.09,1,30.77,2.16,32.11-3.57,1.09-4.69-13.23-6.35-17.84-17.83C150.9,800.46,171.09,780.16,165.87,775.39Z"/><path class="cls-10" d="M78,199.36c2.57-1.21,5.92,8.1,15.46,11.89,7.79,3.1,18.66,2.11,25-3.57,4.31-3.87,5.08-8.66,7.13-8.32s1.66,4.83,4.76,13.08c2.89,7.69,5,8.57,4.76,11.89-.43,6.76-9.57,11.32-13.08,13.08-17.49,8.73-35.31,1.75-42.81-1.19-7.24-2.84-9-5.07-9.51-7.13-1-4.58,4.82-6.92,7.13-15.46C79,205.74,76,200.32,78,199.36Z"/><path class="cls-11" d="M94.94,153.43c0-2.48,2.24-4.73,4.33-5.56a4.05,4.05,0,0,1,3.12-.27c1.48.66,1.56,2.45,2.5,2.5s1.21-1.92,2.5-2.5c2.28-1,7.55,2.51,7.51,5.83-.05,3.67-6.65,7.23-12.15,6.34C99.31,159.22,95,156.74,94.94,153.43Z"/><path class="cls-12" d="M92,149.17a18.87,18.87,0,0,0,4.34,2.89A19.52,19.52,0,0,0,109,153.45c3.13-.8,5.72-2.42,8.69-4.28.92-.58,1.66-1.09,2.17-1.45"/><path class="cls-3" d="M49.94,247.81c1.16.13.76,3.29,1.68,9.51,2.26,15.41,8.64,22.74,11.76,30.46,3.53,8.73.65,20.41-5.11,43.75-7.7,31.18-11.55,46.77-23.35,60.28-5.7,6.53-13.37,13.16-12.85,21.68.36,5.77,4.2,7.93,5.71,17.89,1.09,7.14-.78,6.71.32,12.75,1.84,10,7.19,12.18,7.73,22.08.19,3.49.41,7.33-1.7,8.56-4.24,2.47-16.34-6.64-22.91-17.35-9.4-15.34-6.42-32.28-5.68-36,1.57-7.85,3.52-8.29,5.75-18.25A87.36,87.36,0,0,0,13,376.56c-.8-12.89,3.43-28.57,11.89-59.91C32.42,288.74,45.69,247.32,49.94,247.81Z"/><path class="cls-8" d="M12.84,358.44c-.08,8.34-.84,16.65-1.19,25-.58,13.59-.54,15.65-2.38,19-.21.39-5.17,9.46-3.57,10.7.25.19,1,.49,1.19,1.19.12.54-.22,1,0,1.19s.65-.19,1.19,0,.53.92,1.19,1.19c.39.15.5-.07,1.19,0s.89.39,1.51.49c1,.15,1.15-.57,2.06-.49,1.2.1,1.59,1.38,2.37,1.18s.57-1,1.19-1.18c.85-.2,1.5,1.37,2.38,1.18.58-.12.46-.84,1.19-1.18,1-.46,1.82.53,2.6,0,.53-.34.37-1,1-1.22.44-.18.69.11,1.19,0,.25-.06.53-.39,1.18-1.19,1.64-2,3.26-9.44,3.57-10.7,1.09-4.43,4.15-6.41,7.14-9.52,4.79-5,7.16-11.25,11.89-23.78,10.49-27.8,14-57.53,14.26-59.45,2.56-22.36,1.23-35.1,0-42.8s-4-25.33-10.7-26.16c-4.27-.53-8.48,5.93-11.89,11.89C23.31,285.38,13.1,328.08,12.84,358.44Z"/><path class="cls-3" d="M23.63,430c.07-2-.4-2.72,0-3,1.41-1,9.75,5.66,12,15,.58,2.4,1.22,5.05,0,6-2.83,2.23-14.69-5.5-14-11C21.87,435.1,23.51,433.63,23.63,430Z"/><path class="cls-3" d="M158.46,247.62c-1.16.14-.76,3.3-1.67,9.52-2.26,15.41-8.65,22.74-11.77,30.46-3.53,8.73-.65,20.4,5.12,43.75,7.69,31.18,11.54,46.77,23.35,60.28,5.7,6.52,13.37,13.15,12.84,21.67-.35,5.78-4.2,7.93-5.71,17.89-1.08,7.14.79,6.71-.32,12.75-1.84,10-7.18,12.19-7.73,22.08-.19,3.49-.4,7.34,1.7,8.56,4.24,2.47,16.34-6.63,22.91-17.34,9.41-15.34,6.43-32.29,5.69-36-1.58-7.86-3.53-8.29-5.76-18.26a87.63,87.63,0,0,1-1.72-26.63c.8-12.89-3.43-28.57-11.88-59.92C176,288.55,162.72,247.13,158.46,247.62Z"/><path class="cls-8" d="M195.57,358.26c.07,8.33.83,16.64,1.19,25,.57,13.59.54,15.65,2.37,19,.22.4,5.17,9.47,3.57,10.71-.25.19-1,.49-1.19,1.18s.23,1,0,1.19-.65-.18-1.19,0-.52.93-1.19,1.19c-.39.16-.5-.07-1.19,0s-.88.4-1.51.5c-1,.15-1.14-.58-2.05-.5-1.2.11-1.6,1.38-2.38,1.19-.63-.15-.57-1-1.19-1.19-.85-.19-1.5,1.38-2.38,1.19-.58-.12-.46-.85-1.19-1.19-1-.46-1.82.54-2.59,0-.54-.35-.38-1-1-1.23-.44-.17-.7.12-1.19,0-.26-.06-.54-.38-1.19-1.19-1.63-2-3.26-9.44-3.57-10.7-1.09-4.43-4.15-6.41-7.13-9.51-4.8-5-7.17-11.25-11.89-23.78-10.5-27.81-14.05-57.54-14.27-59.45-2.56-22.37-1.23-35.11,0-42.8s4-25.33,10.7-26.16c4.27-.54,8.48,5.93,11.89,11.89C185.1,285.2,195.3,327.9,195.57,358.26Z"/><path class="cls-3" d="M184.66,428.6c-.07-2.05.4-2.73,0-3-1.4-1-9.74,5.66-12,15-.58,2.4-1.22,5,0,6,2.84,2.22,14.69-5.5,14-11C186.43,433.74,184.78,432.28,184.66,428.6Z"/><path class="cls-3" d="M167,102c2.38-3.42,4.36-4.45,5.86-4.89,4.14-1.2,8.46,1.07,10.87,3.51,3.76,3.81,3.69,8.86,3.66,11.53a19,19,0,0,1-5.17,13.25,17.35,17.35,0,0,1-10.94,5.15c-2.25.15-4.5.3-6.41-.94C158.79,125.7,160.83,110.83,167,102Z"/><path class="cls-13" d="M119.9,47.51c-1,.26-1.91,1.26-4.15,8.72-4,13.5-3,16.38-5.72,21C104.86,86,93.38,88.52,92.86,87.68s9.93-4.61,14.53-15.15a40.56,40.56,0,0,0,2.7-18.46l-.06-.46c-.85-5.92-4.6-10.8-5.72-10.48-1.3.36,2.23,7.26,0,15.72-2.18,8.27-8.66,13.48-11.45,15.72-5.6,4.51-11.37,6.5-22.89,10.49-12.25,4.23-15.31,3.91-20,7.86A28.62,28.62,0,0,0,41.35,106c-3.31,9.36-1.44,17.61,0,23.58,3.28,13.58,8.33,14.35,8.59,23.59.32,11.66-7.43,21.32-8.59,21-1-.3,3-7.42,2.87-18.34C44,145.14,40.07,142.56,35.63,127c-4-14.16-5.12-26.28-5.72-26.2-.42,0,1.28,6-1.81,11.54-.16.3-4,6.94-8.32,5.94-3.77-.86-5.21-6.84-4.75-7.13s2.15,3.63,4.75,3.57,4.64-4.48,4.76-4.76c2.61-6.25-1.5-13.37-3.22-17-6.63-14.18-2.69-30.24,0-39.31C27.4,33.13,44,21.13,49.94,16.92,76.59-1.85,106.69.2,115.75,1.2c9.7,1.07,26.56,3.24,42.93,15.72,1.68,1.29,27.47,21.59,29.94,53.78.7,9.13-.67,16.69-2.38,26.16-3,16.86-4.57,25.29-10.7,33.29-11.69,15.27-29.4,15-29.72,25-.13,3.89,2.45,8.15,4.75,8.33,3.7.28,6-10,8.33-9.52,1.95.39,3.76,8.43,0,14.27-2.17,3.37-6.52,6.52-10.71,6-6.93-1-13-12.08-11.89-21.4,1.82-15.41,22-16.16,28.1-36.25.77-2.52,3.36-11.49,0-21-4.54-12.8-14.77-11.85-28.61-28.83C127.09,56.05,123.69,46.55,119.9,47.51Z"/><circle class="cls-14" cx="138.09" cy="105.78" r="28.54"/><circle class="cls-14" cx="70.31" cy="105.78" r="28.54"/><path class="cls-14" d="M98.85,105.78a12.48,12.48,0,0,1,10.7,0"/><path class="cls-9" d="M48.51,775.79c2.49-2.29,6.87,2.6,17.83,3.56,14.65,1.29,23.07-6,26.16-2.37,2.28,2.67-2.34,6.56-3.57,17.83-.34,3.18.16,9.3,1.19,21.4,1,11.63,1.33,13.19,0,15.46-.81,1.38-3.63,5.41-19,7.13C62,839.82,40.33,841,39,835.24c-1.09-4.69,13.23-6.35,17.84-17.84C63.48,800.85,43.29,780.56,48.51,775.79Z"/></g></g></svg>