<svg xmlns="http://www.w3.org/2000/svg" viewBox="0 0 121.12 120.99"><defs><style>.cls-1{fill:#fff;}</style></defs><g id="Camada_2" data-name="Camada 2"><g id="Camada_1-2" data-name="Camada 1"><path class="cls-1" d="M121.12,60.5a60.15,60.15,0,0,1-10.91,34.64l-.77,1.08A60.5,60.5,0,0,1,66,120.75c-.75.07-1.5.12-2.26.16-1,.06-2.12.08-3.19.08A60.48,60.48,0,0,1,17,18.43h0c.44-.47.89-.93,1.36-1.37A60.39,60.39,0,0,1,58.75,0c.47,0,.94,0,1.41,0h.4a60.47,60.47,0,0,1,60.56,60.5Z"/><path d="M76,66.25c-3,1.37-2,3.72-7.07,11.06-3.51,5.14-5.25,7.42-5.25,7.42-2.23,2.92-3.39,4.17-3.42,6.16s1.05,3.36,2.73,5.47c3.55,4.46,5.43,3.61,9.58,8.21,1.52,1.69,2.3,2.94,4.11,3.42a7.32,7.32,0,0,0,4.79-.68,61.08,61.08,0,0,0,10.26-5.48c8.69-5.71,9.1-4.89,10.27-6.84,1-1.71,1.1-2.91,1.37-12.31.33-11.67.29-12.61-.69-13.69-2.31-2.57-5-.57-16.42-2C79.69,66.08,78.38,65.14,76,66.25Z"/><path d="M56.11,5.35a15.22,15.22,0,0,0-5.47,1.37c-4.31,1.68-3.25,1.1-5.48,2.05A78.78,78.78,0,0,0,37,12.88l-5.47,2.74a44.14,44.14,0,0,0,1.37,21.21c2.31,0,28.88.86,29.42.68,1.29-.42,1.8-2,2-2.73.33-.91-.08.56,4.11-6.16,3.72-6,6.84-11.64,6.84-11.64s-5.45-4.17-11.63-8.21C59.27,5.92,57.89,5.32,56.11,5.35Z"/><path d="M2.74,61.46V77.89a49.61,49.61,0,0,0,2.05,5.47C6.41,87,9.52,93.78,16.42,99.1a34.09,34.09,0,0,0,5.48,3.42,52.25,52.25,0,0,0,3.42-4.79,53.64,53.64,0,0,0,4.79-9.58q-2.74-5.4-5.48-11-3.9-8-7.52-15.74H2.74Z"/><path d="M120.37,51c-.42-.21-1.11-.58-2.47-1.25-1.79-.87-3.29-1.52-4.31-1.95l-13.68-26c.08-1.4.43-3.66,2-4.79a2.86,2.86,0,0,1,.42-.24A60.31,60.31,0,0,1,120.37,51Z"/><path d="M47.22,24.51c-.23-.24-13.41,8.41-23.95,24.64C15.33,61.36,12.06,73,12.32,73.1S16,62.74,24,50.51C35.07,33.49,47.43,24.75,47.22,24.51Z"/><path d="M78.3,80.18c.32-.07-.62-15.82-9.44-33-6.64-13-15.1-21.58-15.32-21.41S60.7,34,67.33,47.06C76.56,65.18,78,80.25,78.3,80.18Z"/><path d="M14.37,83.55c-.1.31,14,7.32,33.35,8.22,14.56.68,26.24-2.38,26.2-2.65S63.15,91.2,48.56,90.49C28.25,89.49,14.46,83.24,14.37,83.55Z"/><path d="M109.5,26.13c.1-.31-13.83-7.7-33.12-9.14-14.53-1.08-26.29,1.65-26.26,1.92S61,17.13,75.51,18.25C95.79,19.81,109.4,26.44,109.5,26.13Z"/><path d="M64.26,18.28c-.05.32-14.62-3.81-34.84-1.78a118.38,118.38,0,0,0-12.37,1.93c.44-.47.89-.93,1.36-1.37a96.17,96.17,0,0,1,11.64-1.95C49.3,13.13,64.31,18,64.26,18.28Z"/><path d="M85.43,89.83c.24.21,12.59-9.6,21.62-26.71,6.79-12.89,9-24.76,8.72-24.85s-2.69,10.65-9.53,23.55C96.71,79.78,85.2,89.61,85.43,89.83Z"/><path d="M73.59,114a92.3,92.3,0,0,1-7.58,6.8c-.75.07-1.5.12-2.26.16a113.58,113.58,0,0,0,9.46-8.44c10.33-10.32,15.82-19.86,16-19.7S83.88,103.63,73.59,114Z"/><path d="M110.21,95.14l-.77,1.08a98.17,98.17,0,0,1-10-.89C80.33,92.58,66.94,84.24,67.07,83.94s13.24,7.25,33.36,10.2C103.94,94.65,107.23,95,110.21,95.14Z"/><path d="M60.16,0A114.33,114.33,0,0,0,48.54,17.39c-1.68,3.11-3.1,6.09-4.3,8.83-.25-.35-.51-.72-.75-1.09A92.86,92.86,0,0,1,58.75,0C59.22,0,59.69,0,60.16,0Z"/></g></g></svg>