<svg xmlns="http://www.w3.org/2000/svg" viewBox="0 0 177 176.82"><defs><style>.cls-1{fill:#fff;}</style></defs><g id="Camada_2" data-name="Camada 2"><g id="Camada_1-2" data-name="Camada 1"><path class="cls-1" d="M177,88.41A87.91,87.91,0,0,1,161.06,139c-.36.53-.74,1.06-1.12,1.58a88.42,88.42,0,0,1-63.48,35.85c-1.09.1-2.18.18-3.29.23-1.54.09-3.1.13-4.67.13A88.39,88.39,0,0,1,24.9,26.93h0c.65-.68,1.31-1.35,2-2A88.23,88.23,0,0,1,85.86,0c.68,0,1.37,0,2.06,0h.58A88.33,88.33,0,0,1,177,88.41Z"/><path d="M111,96.82c-4.32,2-3,5.43-10.32,16.16C95.54,120.49,93,123.82,93,123.82c-3.26,4.27-5,6.1-5,9s1.54,4.91,4,8c5.19,6.52,7.93,5.27,14,12,2.22,2.46,3.35,4.29,6,5s5.09-.2,7-1a91.25,91.25,0,0,0,15-8c12.69-8.35,13.3-7.15,15-10,1.5-2.5,1.61-4.25,2-18,.48-17,.42-18.42-1-20-3.38-3.76-7.36-.83-24-3C116.45,96.57,114.54,95.19,111,96.82Z"/><path d="M82,7.82c-1.88,0-4,.44-8,2-6.29,2.46-4.74,1.61-8,3a112.43,112.43,0,0,0-12,6l-8,4a64.83,64.83,0,0,0,2,31c3.38,0,42.21,1.26,43,1,1.88-.61,2.63-3,3-4,.48-1.32-.11.82,6-9,5.44-8.74,10-17,10-17s-8-6.09-17-12C86.61,8.65,84.61,7.78,82,7.82Z"/><path d="M4,89.82v24a71.46,71.46,0,0,0,3,8c2.37,5.31,6.92,15.23,17,23a48.92,48.92,0,0,0,8,5,79.11,79.11,0,0,0,5-7,77.84,77.84,0,0,0,7-14q-4-7.87-8-16-5.72-11.62-11-23H4Z"/><path d="M175.91,74.5c-.62-.3-1.62-.85-3.61-1.82-2.62-1.27-4.81-2.23-6.3-2.86l-20-38c.13-2.05.64-5.35,3-7a4.08,4.08,0,0,1,.61-.36A88.18,88.18,0,0,1,175.91,74.5Z"/><path d="M69,35.82c-.32-.35-19.59,12.3-35,36-11.6,17.85-16.37,34.84-16,35s5.33-15.13,17-33C51.25,48.94,69.32,36.16,69,35.82Z"/><path d="M114.43,117.17c.47-.1-.91-23.11-13.8-48.27C90.92,50,78.57,37.35,78.24,37.6S88.71,49.75,98.4,68.77C111.89,95.25,114,117.28,114.43,117.17Z"/><path d="M21,122.09c-.14.46,20.51,10.7,48.75,12,21.27,1,38.34-3.47,38.29-3.87s-15.75,3-37.07,2C41.28,130.78,21.13,121.65,21,122.09Z"/><path d="M160,38.19c.15-.45-20.21-11.26-48.4-13.36-21.23-1.58-38.42,2.41-38.38,2.81s15.83-2.61,37.11-1C140,28.94,159.87,38.63,160,38.19Z"/><path d="M93.91,26.72c-.07.46-21.36-5.58-50.92-2.6a173.42,173.42,0,0,0-18.08,2.81c.65-.68,1.31-1.35,2-2a139.29,139.29,0,0,1,17-2.85C72,19.19,94,26.25,93.91,26.72Z"/><path d="M124.85,131.27c.35.32,18.4-14,31.58-39,9.94-18.83,13.14-36.18,12.76-36.31s-3.93,15.55-13.93,34.41C141.33,116.59,124.5,131,124.85,131.27Z"/><path d="M107.55,166.52a133.42,133.42,0,0,1-11.09,9.94c-1.09.1-2.18.18-3.29.23A166,166,0,0,0,107,164.36c15.1-15.08,23.11-29,23.43-28.79S122.58,151.44,107.55,166.52Z"/><path d="M161.06,139c-.36.53-.74,1.06-1.12,1.58a139.36,139.36,0,0,1-14.56-1.3c-28-4-47.55-16.2-47.37-16.64s19.36,10.6,48.76,14.9C151.89,138.32,156.7,138.77,161.06,139Z"/><path d="M87.92,0a167.71,167.71,0,0,0-17,25.4C68.48,30,66.4,34.32,64.65,38.32c-.37-.52-.74-1.06-1.1-1.59A135.28,135.28,0,0,1,85.86,0C86.54,0,87.23,0,87.92,0Z"/></g></g></svg>