<svg xmlns="http://www.w3.org/2000/svg" viewBox="0 0 312.19 440.43"><defs><style>.cls-1{fill:#683b2d;}.cls-2{fill:#2f7734;}.cls-3{fill:#feddb2;}.cls-4{fill:#f4d3ab;}.cls-5{fill:#fcfcfc;}.cls-6{fill:#eacca7;}.cls-7{fill:none;stroke-linecap:round;}.cls-7,.cls-9{stroke:#000;stroke-miterlimit:10;}.cls-8{fill:#5f2c17;}.cls-10{fill:#822b23;}.cls-11{fill:#f47946;}.cls-12{fill:#964a32;}.cls-13{fill:#5e352a;}.cls-14{fill:#fff;}.cls-15{fill:#5d1000;}.cls-16{fill:#320406;}.cls-17{fill:#f7f7f7;}.cls-18{fill:#14223c;}.cls-19{fill:#5576a5;}</style></defs><g id="Camada_2" data-name="Camada 2"><g id="Pronto"><path class="cls-1" d="M213.11,173.78c.24.63-1.49,1.49-4.44,4-7.31,6.33-9.38,12-12.51,16.18-3.54,4.72-10.31,7.2-23.83,12.15-18.06,6.62-27.09,9.93-37.17,8.53-4.87-.68-10.32-2.31-14.55.82-2.87,2.12-3,4.79-7.67,8.9-3.38,2.95-3.66,1.86-6.46,4.45-4.67,4.31-4.35,7.72-9.29,11.33-1.74,1.27-3.66,2.67-4.84,2-2.4-1.3-.94-10.46,2.81-17.38,5.37-9.9,14.87-14.1,17-15,4.45-1.85,5.19-1,10.9-3.24a57.15,57.15,0,0,0,14.14-8.1c6.41-4.74,15.58-7.89,33.93-14.18C187.43,178.73,212.23,171.47,213.11,173.78Z"/><path class="cls-1" d="M119,201.11c.68.47.65,1.54.6,3.21-.11,3-.19,5.3-2,7-1,.93-3.11,2.21-4.37,1.47-2-1.16-1.76-7.28,1.41-10.2C115.85,201.48,118,200.38,119,201.11Z"/><path class="cls-2" d="M212.87,173.78c-1.18-2.35-6.43-2.55-24.13.9-14.35,2.8-21.53,4.2-24.3,6.37-11,8.67-14.3,28.23-8.13,33.17,4.69,3.75,15.15-2.61,36.07-15.33,0,0,15.78-9.59,20.4-22.38A3.5,3.5,0,0,0,212.87,173.78Z"/><path class="cls-3" d="M159.3,297.27c1,.92,2.88,3.28,1.31,21a226.76,226.76,0,0,1-4.59,29.5c-8.37,37.49-12.69,56.35-19,62.28-1.33,1.24-8,7.3-6.56,10.49.86,1.83,4,1.82,3.93,2.62-.09,1.13-6.41,1.41-10.48,1.31-5.06-.13-6.07-.85-6.56-1.31-2.28-2.14-1.55-6.3-1.31-7.87,1.33-8.65-1.22-17.47-1.31-26.22-.2-18.49-1.75-15.84-1.31-27.53.39-10.45,1.58-11.12,2.62-26.22,1.08-15.7-.14-15.87,1.31-19.67C123.57,299.28,151,289.66,159.3,297.27Z"/><path class="cls-3" d="M76.62,293c-1,.62-3.62,2.64-5.29,20.34a206.93,206.93,0,0,0-.53,30.51c2.2,50.49.75,56.53,6.19,64.08,1.09,1.51,6.51,8.71,4.44,11.55-1.19,1.63-4.27,1-4.36,1.82-.13,1.13,6,2.62,10,3.29,5,.84,6.12.32,6.69,0,2.64-1.66,2.72-5.88,2.79-7.47.34-8.74,4.52-16.92,6.28-25.49,3.73-18.11,4.75-15.21,6.54-26.78,1.61-10.33.57-11.21,2.43-26.24C113.77,322.93,115,323,114.3,319,111.3,301.75,86.21,287.08,76.62,293Z"/><path class="cls-4" d="M118.65,170.1c-1.11,9.89,0,11.8,0,11.8,2.18,3.27,6,2.33,9.18,5.24,4.27,3.91,3.14,10.47,3.28,16.39.11,4.95,3.57,12.92,10.49,28.85,6.4,14.74,10.75,21.76,14.42,35.4.67,2.48,1.11,4.37,1.31,5.24,1.91,8.51,3.62,16.16,2.62,24.91-.47,4.08-2.12,18.53-12.45,24.26a13.89,13.89,0,0,1-2.24,1c-4.19,1.51-10.84,1.3-35.79-1-11-1-12.87-1.29-15.73-2.63-11.32-5.28-15.89-16.78-17-19.66-4-10.17-2.83-19-1.31-30.16,1-7.18,1.78-7.34,6.55-24.91,6.67-24.55,10-36.82,9.18-42-.7-4.36-2.65-12.1,1.31-15.74,2.29-2.1,4.95-1.36,6.56-3.93s-.27-4.51,0-10.49c.17-3.77.32-7.11,2.62-9.17,3-2.68,8.31-2.07,11.8,0A12.46,12.46,0,0,1,118.65,170.1Z"/><path class="cls-3" d="M122.24,191.59c-.19.57,1.4,1.28,4.15,3.45,6.83,5.4,8.92,10.42,11.9,14,3.38,4.1,9.56,6,21.91,10,16.5,5.22,24.75,7.83,33.76,6.17,4.35-.81,9.17-2.49,13.11.15,2.66,1.79,2.85,4.18,7.25,7.69,3.16,2.52,3.36,1.53,6,3.74,4.36,3.68,4.22,6.77,8.8,9.81,1.62,1.07,3.4,2.25,4.44,1.62,2.1-1.27.42-9.44-3.23-15.51-5.23-8.68-13.93-12.07-15.85-12.77-4.07-1.48-4.71-.7-9.93-2.48a51.21,51.21,0,0,1-13-6.7c-6-4-14.33-6.47-31.08-11.38C145.52,195,122.94,189.48,122.24,191.59Z"/><path class="cls-3" d="M94.94,185.94c.5.35-.37,1.86-1.31,5.25-2.32,8.38-1,13.66-1.31,18.35-.3,5.3-4.13,10.53-11.8,21-10.23,13.95-15.35,20.93-23.6,24.91-4,1.92-8.87,3.41-10.49,7.86-1.09,3,.17,5.06-1.31,10.49-1.06,3.9-1.81,3.22-2.62,6.56-1.35,5.55.59,8-1.31,13.11-.67,1.82-1.41,3.82-2.62,3.93C36.12,297.6,32.65,290,32,283c-.91-10.1,4.12-18,5.25-19.67,2.41-3.6,3.39-3.35,6.55-7.86a51.74,51.74,0,0,0,6.56-13.11c2.44-6.75,7.74-13.68,18.35-27.54C78.17,202.45,93.13,184.65,94.94,185.94Z"/><path class="cls-3" d="M44.67,270.12c.75,0,1.29.76,2.14,2,1.5,2.21,2.68,3.95,2.25,6.15-.23,1.21-1.08,3.26-2.38,3.39-2.08.22-5.15-4.36-4.39-8.16C42.57,272.07,43.53,270.14,44.67,270.12Z"/><path class="cls-3" d="M70.22,35.21A49.83,49.83,0,0,0,54,56.79C53,59.61,51.18,65,52.69,89.15c1.65,26.57,3.27,61.66,8.09,67.43,2.51,3,8,5.15,18.88,9.44,0,0,13.69,5.38,22.92,5.39H112c4,0,11.47-1.48,18.88-4a92,92,0,0,0,14.83-6.75c5.93-3.33,8.8-5.16,10.79-8.09,2.78-4.06,3.63-33.35,4-40.45,1-16.7,1.46-17.19,1.35-22.93,0-2.21-.29-14.08-2.7-22.92-4.8-17.59-22.31-38.13-47.2-41.81C109.07,24,88.08,21.23,70.22,35.21Z"/><path class="cls-5" d="M142.47,111.58a8.93,8.93,0,0,1-2.81,2.42c-2.45,1.47-4.8,1.55-7.62,1.61a16.19,16.19,0,0,1-6.82-.81,10.62,10.62,0,0,1-5.22-3.62c-2.26-3.18-1.6-7-1.2-9.26a13.67,13.67,0,0,1,3.61-7.65,10.4,10.4,0,0,1,4.41-2.82,11.34,11.34,0,0,1,8,.8,14.94,14.94,0,0,1,7.23,7.25C142.52,100.43,145.65,107.15,142.47,111.58Z"/><path class="cls-5" d="M69.55,111.45a8.84,8.84,0,0,0,2.77,2.43c2.42,1.49,4.77,1.61,7.59,1.72a16.53,16.53,0,0,0,6.83-.68A10.52,10.52,0,0,0,92,111.44c2.32-3.09,1.72-6.86,1.36-9.11a13.4,13.4,0,0,0-3.47-7.61,10.57,10.57,0,0,0-4.37-2.86,11.47,11.47,0,0,0-8,.66,14.66,14.66,0,0,0-7.35,7C69.69,100.45,66.45,107,69.55,111.45Z"/><path class="cls-6" d="M114.72,117.66a10.23,10.23,0,0,0-6.56-5.25c-5.13-1.2-8.92,2.38-9.17,2.63"/><path class="cls-7" d="M120,139.92a17.41,17.41,0,0,1-4,2.68,18,18,0,0,1-11.72,1.28c-2.9-.73-5.28-2.23-8-4-.85-.53-1.54-1-2-1.34"/><path class="cls-8" d="M52.53,34.17c.74-.79-.9-2.46-1.37-6.41a18.64,18.64,0,0,1,1.37-9.13c2.37-5.89,8-10.92,9.89-9.89.75.4.81,1.66,0,8.47C61.08,28.59,60.06,32.32,61,32.76c1.47.67,4.7-8,12.72-14.13,2.61-2,7.8-5.31,19.78-7.07,22.62-3.31,42.45,2.88,46.62,4.24,18.06,5.88,25.66,13.37,38.15,9.89,5.25-1.46,8.73-4.13,9.9-2.82,2.06,2.31-4.58,15.6-15.55,19.78-3.81,1.45-6.62,1.22-7.06,2.82-.81,3,8.23,5.67,15.54,12.72,9.49,9.15,11.52,21.25,14.13,36.74,1.45,8.62,2.94,23.18,0,24-5.8,1.64-14.75-19.08-11.3-14.13,0,0-3.18-7.32-4.24-7.07-1.44.35.81,14.6,1.41,18.37,2.17,13.7,3.58,16.37,4.24,25.43.64,8.79.92,13.28-1.41,18.37-4.06,8.87-13.47,14.31-15.55,12.72-1.09-.84.37-3.25,1.42-11.31.34-2.64,1.41-10.89,0-11.3-1.16-.34-2.2,5.07-7.07,9.89A26.15,26.15,0,0,1,147.2,167c-7.46.68-15.54-2-15.54-4.24s8.55-1,15.54-7.07c5.31-4.58,6.91-12,10.13-26.88,1.79-8.29,2.69-12.44,2.62-17A50.74,50.74,0,0,0,151.44,85s-2.89-5.68-24-29.67l-5.65-8.47c-.88.29.75,5.31,1.41,14.12.69,9.25-.35,13.87-1.41,17-.66,1.89-2.49,7.23-4.24,7.06-3.53-.32-4.17-22.66-5.65-22.6-1,0-.08,9.29-5.66,18.37-.84,1.37-3.81,6.2-5.65,5.65-2.4-.72,2-10.86-1.41-22.61C96.28,53.79,89,46.9,87.84,47.52c-.65.34.83,2.85,0,6.55a13.6,13.6,0,0,1-3.93,6.56c-9.42,9.69-16.49,10.56-21.49,18.75-2.28,3.74-3.41,7.71-4.73,7.47C55.83,86.51,55.86,79,55.06,79c-.62,0-1.1,4.78-1.31,9.18a96.73,96.73,0,0,0,0,10.49c.9,9.55,7.56,13.25,17.15,30.19,5.91,10.44,5.77,12.58,5.14,13.07s-1.53-.13-9.18-3.93c-3.49-1.74-5.25-2.6-5.85-2.08-.84.73.15,3.14,1.92,7.32a40.7,40.7,0,0,0,3.93,7.87A29.43,29.43,0,0,0,74,158.67c1.35,1,1.35.83,7.71,4,2.48,1.25,5.8,3,10.37,5.7,4.86,2.85,5.81,3.61,5.66,4.24-.53,2.14-13.78,1.77-25.44-1.42-6.12-1.67-20.78-5.67-31.08-18.36-6.78-8.36-8.06-16-9.89-15.55s-2.63,9.77,1.41,17c2.58,4.59,6,6.49,5.65,7.06-.62.89-9.29-3-16.95-9.89-4.57-4.08-8.27-7.39-9.89-12.71-1.79-5.89.47-9.27,2.82-19.78,3.21-14.35,3.41-27.76,1.42-28.26-1.23-.31-2.46,4.47-8.48,9.89-.74.66-5.8,5.21-7.07,4.24s2.41-6.44,5.66-15.55a101.49,101.49,0,0,0,4.23-17c2.92-15.42,1.14-19.47,5.66-25.43,1.12-1.49,4.45-5.89,9.89-7.07,4.31-.94,8.35.5,8.47,0,.2-.76-9.72-2.54-9.89-5.65-.12-2.25,4.85-5.22,9.89-5.65C43.53,27.72,50.93,35.88,52.53,34.17Z"/><path class="cls-9" d="M125.31,100.76a14.87,14.87,0,0,0,0,5.64,4.78,4.78,0,0,0,1.21,2.83c1.36,1.25,3.73,1.07,5.24.4,3.3-1.48,4.26-6.16,4-9.27-.29-4-2.77-8.53-5.24-8.47-1.14,0-2,1-2.82,2C126.06,95.87,125.74,98,125.31,100.76Z"/><path d="M118.24,108.55a18.26,18.26,0,0,1,.4-6.86,19.62,19.62,0,0,1,2.82-6.85c1.31-2,3.19-4.76,6.86-6a12.57,12.57,0,0,1,8.86.4,14.59,14.59,0,0,1,6.86,6c.38.65,1.39,2.51,2.42,4.83.94,2.14,1.1,2.86,2,3.63a6.08,6.08,0,0,0,4.43,1.21,7.84,7.84,0,0,0,2.83-1.21c.12.17-3,3.31-7.86,5.44-.44.2-5.29,2.32-6.05,1.21-.13-.18-.06-.34,0-1.21,0-.41,0-1.21,0-2.82a33.8,33.8,0,0,0-.2-3.43,13.49,13.49,0,0,0-7.86-10.27,9.41,9.41,0,0,0-4.84-1.21A8.74,8.74,0,0,0,124.49,93a12.71,12.71,0,0,0-4.44,5.24A20.69,20.69,0,0,0,118.24,108.55Z"/><path class="cls-9" d="M85.42,100.93a14.94,14.94,0,0,1,0,5.65,4.78,4.78,0,0,1-1.21,2.82c-1.36,1.25-3.73,1.08-5.24.4-3.3-1.48-4.25-6.16-4-9.27.3-4,2.77-8.53,5.24-8.47,1.14,0,2,1,2.83,2C84.67,96,85,98.17,85.42,100.93Z"/><path d="M93.87,108.72a18.21,18.21,0,0,0-.4-6.85A19.64,19.64,0,0,0,90.64,95c-1.31-2-3.18-4.75-6.85-6a12.61,12.61,0,0,0-8.87.4,14.5,14.5,0,0,0-6.85,6c-.38.65-1.39,2.51-2.42,4.83-.94,2.14-1.1,2.86-2,3.63a6,6,0,0,1-4.44,1.21,7.64,7.64,0,0,1-2.82-1.21c-.12.17,3,3.31,7.86,5.44.44.2,5.29,2.32,6.05,1.21.12-.18.06-.33,0-1.21,0-.4,0-1.21,0-2.82a30.76,30.76,0,0,1,.2-3.42A13.42,13.42,0,0,1,78.35,92.8a9.45,9.45,0,0,1,4.84-1.21,8.88,8.88,0,0,1,4.43,1.61,12.71,12.71,0,0,1,4.43,5.24A20.63,20.63,0,0,1,93.87,108.72Z"/><path class="cls-8" d="M93.09,86.85c-1.61,1.27-23.59-1-27.54-1.31-2.95-.21-6.49-1.32-6.55-2.63,0-1.13,2.56-2.11,3.93-2.62,5.25-1.92,9.94-1.69,14.42-1.31C88.17,79.89,94.15,86,93.09,86.85Z"/><path class="cls-8" d="M118.13,87.07c1.6,1.27,23.58-1,27.53-1.31,3-.2,6.49-1.32,6.56-2.62.05-1.14-2.56-2.12-3.94-2.62-5.25-1.93-9.93-1.69-14.42-1.31C123.05,80.12,117.07,86.24,118.13,87.07Z"/><path class="cls-10" d="M116.16,190c1.11-2.58,6.71-3.14,25.85-.59,15.53,2.07,23.29,3.1,26.39,5.25,12.34,8.55,17.11,29.25,10.84,34.92-4.77,4.32-16.36-1.8-39.55-14,0,0-17.49-9.24-23.26-22.61A3.78,3.78,0,0,1,116.16,190Z"/><path class="cls-11" d="M120.62,181.25c-1.38.46-1.57,3.21-5.25,5.24a14.25,14.25,0,0,1-9.17,1.31c-6-1.2-7.58-5.82-10.49-5.24-3.74.73-5,9.06-5.25,10.48-2.82,18.13-8.1,35.79-11.8,53.76-4.13,20.1-6.85,17.16-11.8,40.64-4.24,20.17-6.26,30.44-1.31,39.33,6.69,12,22.13,18.06,34.09,18.36,13.28.33,15.79-6.6,27.53-3.93,9.08,2.06,11.64,7.13,23.6,9.17,5.56.95,10.77,1.84,14.42,0,15-7.53,2.71-60.46,0-72.11C151.34,218.61,126.42,179.29,120.62,181.25Z"/><path class="cls-10" d="M94.86,184c-2.36-1.53-7.32,1.12-21.82,13.88-11.76,10.34-17.64,15.51-19,19-5.51,14,2,33.83,10.39,35.06,6.37.94,12.6-10.59,25.08-33.66,0,0,9.4-17.4,6.77-31.72A3.74,3.74,0,0,0,94.86,184Z"/><path class="cls-10" d="M72.25,401.32c1.66,3,3.21,5.92,2.31,8.32-.39,1.05-1,1.39-5,4.16-4.49,3.17-4.92,3.62-5,4.17-.1,1.35,2.28,2.34,9.23,4.56,7.92,2.53,12.14,3.57,17.57,3.73,4.47.13,5.57-.46,6.38-1.26,2.55-2.51,1.49-6.34,3.18-15,1.83-9.39,4.51-12.2,3.17-15-.44-.92-1.5-2.19-9.76-2.07-10.33.15-12.23,2.2-18.62,1.27-5.56-.81-9.31-3.1-9.76-2.07S68.92,395.27,72.25,401.32Z"/><path class="cls-10" d="M141,407c-2.41,2.45-4.7,4.83-4.48,7.38.09,1.12.61,1.61,3.64,5.35,3.46,4.27,3.76,4.82,3.65,5.36-.27,1.32-2.83,1.64-10.12,1.89-8.31.28-12.65.14-17.92-1.18-4.34-1.09-5.24-1.95-5.81-2.94-1.77-3.11.29-6.51,1-15.28.79-9.53-1-13,1-15.27.67-.77,2-1.7,9.95.65,9.9,2.95,11.18,5.43,17.58,6.28,5.57.73,9.8-.46,10,.65S145.8,402.09,141,407Z"/><path class="cls-5" d="M125.86,98.65c.74-.5,2.19.26,2.62,1.31a1.48,1.48,0,0,1,0,1.31,1.85,1.85,0,0,1-2.62,0A1.89,1.89,0,0,1,125.86,98.65Z"/><path class="cls-5" d="M75.79,98.88c.74-.5,2.19.26,2.63,1.31a1.55,1.55,0,0,1,0,1.31,1.86,1.86,0,0,1-2.63-2.62Z"/><path d="M176.87,23.43c-2.4,1.05-4-1.81-7.19-1.79C161.16,21.67,150.3,41.83,149,54a14.34,14.34,0,0,1-3.59,8.1c-1.45,1.47-4,2.71-5.4,1.79a3.06,3.06,0,0,1-.9-3.59c1.15-2.5,6.19-1.75,6.3-2.7s-4.91-3.72-8.1-1.8-3.45,7.79-.9,10.79c3,3.5,9.53,2.73,12.59,0,2.3-2,2.16-4.76,4.5-5.39,2.06-.57,4.55.91,4.5,1.79s-2.82.6-5.4,2.7a9.17,9.17,0,0,0-3.19,5.44c-.5,4.29,4.27,5.42,4.1,9.57-.16,3.91-3.54,4.35-6.84,10.94-1.68,3.35-3.06,6.11-2.74,9.58.52,5.52,5.14,10.42,8.21,13.67,2.44,2.59,3.78,3.38,4.1,5.48.46,2.94-1.42,6.39-4.1,8.2-3.62,2.45-6.79.6-8.21,2.74s.17,6.14,2.74,8.2,6.44,2.25,6.84,1.37c.52-1.14-4.73-3.88-4.1-5.47.42-1.08,2.92-.08,5.47-1.37,4.16-2.11,4.48-8.35,5.47-8.2s-.87,7.42,2.73,10.94c2.94,2.87,8.16,1.87,8.21,2.73s-6.74.74-8.21,4.11c-1,2.22.47,5.77,2.74,6.84,2.66,1.24,5.68-1.29,6.84,0,1,1.11-.59,3.77,0,4.1s2.49-3.86,5.47-4.1c0,0,1.25-.11,6.84,4.1-.63,3.51-2,7.85-5.47,9.57-3.79,1.89-8.13-.31-8.21,0s8.68,5.74,16.41,2.74c4.07-1.58,4.59-4.18,8.21-6.84,6-4.41,12.4-2.94,21.88-2.73,22.84.49,39.62-2.08,39.67-1.37s-24,3.09-23.92,4.19c.05.63,8.07,1.46,26.08,3.6,2.75.33,6.76.84,7.2,2.7.29,1.25-1.07,3-2.7,3.59-3.12,1.07-6.35-2.6-7.2-1.79-.65.62.45,3.62,2.7,5.39,3.15,2.49,8.19,2.32,11.69,0,2.61-1.72,5.46-5.36,4.5-8.09-1.29-3.68-8.73-3.44-8.78-5.49,0-1.17,2.38-2.24,4.11-2.73,6.24-1.77,9.67,3.06,15,1.36,3.58-1.13,6-4.51,5.47-5.47s-3.33.56-8.2,0c-2.76-.32-6.77-1.35-6.84-2.73-.07-1.16,2.61-2.17,4.1-2.74,7.25-2.75,10.19-.22,13.68-2.73,3.07-2.22,4.18-6.62,4.1-9.58-.1-3.91-2.27-5.9-1.37-6.84,1.15-1.19,6.27.36,8.21,4.11,2.1,4-2.28,9-1.37,9.57s5.13-3,6.84-8.21c.57-1.7,1.7-5.13,0-8.2-1.27-2.3-3.47-3.25-5.47-4.11-4.33-1.86-8-.56-8.21-1.36s4.52-1.7,8.21-5.48c2.56-2.61,5.26-7.63,4.1-12.31-1-4.22-5.55-9.37-8.44-10.81-.37-.18-1.67-.78-1.8-1.8a2.35,2.35,0,0,1,.9-1.79c1.23-1,2.46-.15,3.87-.64,2.51-.88,4.12-5.53,2.74-8.21-.89-1.72-2.92-2.16-2.74-2.73.27-.84,4.49.75,6.84-1.37a4.5,4.5,0,0,0,1.37-2.74c.42-3.22-3.26-6.71-6.84-8.2s-5.75-.46-7-2.19c-.93-1.26-.33-2.73.2-6,0,0,.09-.55.22-2,0,0,.42-4.09.48-7.28.09-4.76-8.05-28.19-24.28-28.78-6.28-.23-12.81,3-12.59,4.49.37,2.55,20.88,5.6,25.18-2.69C290,14.91,286.21,7.26,283,3.65A10,10,0,0,0,279.4,1c-2.44-1-6.47-1.52-9,.9a5.84,5.84,0,0,0-1.8,3.6c-.29,3.54,3.24,6.78,4.5,6.29s-.08-4.29,1.8-5.39c1.16-.69,3.22-.12,3.6.9.69,1.86-3.66,6.8-7.2,6.29C267.48,13,267.55,7,261.55,2.75A13.37,13.37,0,0,0,253.69,0h-.34a16.65,16.65,0,0,0-8.13,2.74c-6.6,4.17-57.18-4.72-64.75,9C178.11,16,180.22,22,176.87,23.43Z"/><path class="cls-12" d="M168.91,297.31c-1.11,1-3.21,3.64-1.46,23.32a250.84,250.84,0,0,0,5.1,32.78c9.31,41.67,14.1,62.63,21.13,69.22,1.48,1.38,8.95,8.11,7.29,11.66-1,2-4.45,2-4.38,2.91.11,1.26,7.14,1.57,11.66,1.46,5.62-.15,6.74-1,7.29-1.46,2.53-2.37,1.72-7,1.45-8.74-1.47-9.62,1.36-19.42,1.46-29.15.22-20.55,2-17.6,1.46-30.6-.44-11.61-1.76-12.35-2.92-29.14-1.2-17.44.16-17.63-1.45-21.86C208.61,299.54,178.13,288.85,168.91,297.31Z"/><path class="cls-12" d="M260.8,292.53c1.12.68,4,2.94,5.88,22.61a232.19,232.19,0,0,1,.59,33.9c-2.45,56.12-.84,62.83-6.89,71.23-1.2,1.67-7.23,9.67-4.93,12.83,1.32,1.82,4.75,1.14,4.85,2,.14,1.25-6.7,2.9-11.17,3.65-5.54.93-6.79.36-7.43,0-2.93-1.85-3-6.54-3.1-8.3-.38-9.72-5-18.81-7-28.33-4.14-20.14-5.27-16.91-7.27-29.77-1.78-11.48-.63-12.46-2.7-29.16-2.14-17.35-3.51-17.28-2.73-21.73C222.25,302.29,250.14,286,260.8,292.53Z"/><path class="cls-13" d="M214.08,156c1.24,11,0,13.12,0,13.12-2.42,3.63-6.66,2.59-10.2,5.82-4.74,4.34-3.49,11.64-3.64,18.22-.13,5.5-4,14.35-11.66,32.06-7.11,16.38-12,24.18-16,39.34-.74,2.76-1.24,4.87-1.46,5.83-2.12,9.45-4,18-2.91,27.68.52,4.54,2.36,20.59,13.84,27a15.61,15.61,0,0,0,2.48,1.15c4.66,1.67,12.06,1.45,39.78-1.15,12.29-1.15,14.31-1.43,17.49-2.91,12.58-5.88,17.66-18.65,18.94-21.86,4.49-11.3,3.14-21.17,1.46-33.52-1.1-8-2-8.15-7.29-27.68-7.41-27.28-11.11-40.93-10.2-46.63.77-4.85,2.94-13.45-1.46-17.49-2.54-2.33-5.5-1.51-7.28-4.37s.3-5,0-11.65c-.19-4.19-.36-7.91-2.92-10.2-3.31-3-9.24-2.3-13.11,0A13.83,13.83,0,0,0,214.08,156Z"/><path class="cls-1" d="M240.43,173.58c-.55.39.41,2.06,1.46,5.82,2.58,9.32,1.15,15.2,1.45,20.4.34,5.89,4.6,11.7,13.12,23.32,11.37,15.51,17.06,23.27,26.23,27.68,4.42,2.14,9.86,3.79,11.65,8.75,1.22,3.35-.18,5.62,1.46,11.65,1.18,4.33,2,3.58,2.92,7.29,1.49,6.17-.66,8.83,1.45,14.57.75,2,1.57,4.25,2.92,4.37,2.72.24,6.58-8.19,7.28-16,1-11.22-4.57-20-5.83-21.85-2.68-4-3.76-3.73-7.28-8.75A57.43,57.43,0,0,1,290,236.23c-2.71-7.5-8.6-15.2-20.4-30.6C259.07,191.92,242.44,172.14,240.43,173.58Z"/><path class="cls-1" d="M296.3,267.13c-.83,0-1.43.85-2.37,2.24-1.67,2.46-3,4.39-2.51,6.84.26,1.34,1.2,3.61,2.66,3.76,2.3.25,5.72-4.84,4.87-9.07C298.64,269.3,297.58,267.16,296.3,267.13Z"/><path class="cls-1" d="M284.17,91.32c1.8-2.58,3.3-3.37,4.43-3.7,3.14-.91,6.4.81,8.23,2.66,2.84,2.88,2.79,6.7,2.76,8.71a14.38,14.38,0,0,1-3.91,10,13.09,13.09,0,0,1-8.27,3.89c-1.7.12-3.41.23-4.85-.71C278,109.23,279.52,98,284.17,91.32Z"/><path class="cls-1" d="M285.46,103.73c-.22,1.7-.91,8.47-1,15.22,0,1.5,0,3.1.09,5,.19,4,.5,5.42,0,8.27-1.39,8-6.73,14-7.84,15.17l-.42.44A51.61,51.61,0,0,1,263.42,157c-.34.17-2.09,1.07-4.53,2.06a80,80,0,0,1-11.08,3.45,90.28,90.28,0,0,1-22,1.84,105.08,105.08,0,0,1-13.77-.92s-14.42-2-25.71-7.35c-1.53-.72-2.92-1.44-4.17-2.14a59.39,59.39,0,0,1-6.85-4.28A26,26,0,0,1,167,137.71c-1.23-3.73-1.2-6.75-.92-11.94.21-3.83.38-5.59.68-9.32.14-1.78.22-3.38.27-4.85.18-5.24,0-9.55,0-10.62-.47-11-1.48-34.26,1.84-45.92,5.91-20.76,35.43-39.43,65.2-36.73,22.34,2,46.4,16.28,52.34,35.82C290.22,66.77,287.79,85.62,285.46,103.73Z"/><path class="cls-1" d="M167.84,94.21c-1.66-2.68-3.11-3.54-4.23-3.93-3.08-1.08-6.44.47-8.35,2.22-3,2.72-3.14,6.54-3.22,8.56a14.34,14.34,0,0,0,3.37,10.21,13.11,13.11,0,0,0,8.06,4.33c1.69.21,3.38.41,4.88-.45C173.08,112.42,172.13,101.11,167.84,94.21Z"/><path class="cls-13" d="M213.74,113.37c-1.24-2.09,3.87-9.9,10.88-10.66,7.43-.81,14.3,6.64,13.41,8.86-.48,1.18-3,.39-10.8.9C217.63,113.09,214.55,114.71,213.74,113.37Z"/><path class="cls-7" d="M211.28,130.81a20.08,20.08,0,0,0,4.67,3.11,20.94,20.94,0,0,0,13.62,1.49c3.37-.85,6.15-2.6,9.34-4.6,1-.62,1.79-1.17,2.34-1.56"/><path class="cls-14" d="M246,98.17a13.41,13.41,0,0,1,0-4.73c.58-2.92,2.13-4.78,3.88-6.89a19.27,19.27,0,0,1,6-5.16,19.78,19.78,0,0,1,4.73-1.72,16.93,16.93,0,0,1,6-.43,13.08,13.08,0,0,1,6.88,2.58,12.6,12.6,0,0,1,4.31,6.46,13.91,13.91,0,0,1-.43,8.17,21.08,21.08,0,0,1-6,9,13.59,13.59,0,0,1-10.33,4.3,16,16,0,0,1-7.31-1.29,12.69,12.69,0,0,1-5.59-4.3A13,13,0,0,1,246,98.17Z"/><path class="cls-15" d="M265.74,82.49a11.77,11.77,0,0,0-6.89,0,10.61,10.61,0,0,0-4.73,2.58,10.9,10.9,0,0,0-2.58,4.31,13.09,13.09,0,0,0-.86,7.31,11.54,11.54,0,0,0,3,6,11.83,11.83,0,0,0,8.61,3.44,11.69,11.69,0,0,0,8.6-4.74,12.83,12.83,0,0,0,2.15-9,11.11,11.11,0,0,0-2.15-6.46A10.37,10.37,0,0,0,265.74,82.49Z"/><path class="cls-16" d="M264.78,84.35a9.54,9.54,0,0,0-5.63,0,8.58,8.58,0,0,0-3.88,2.11A9,9,0,0,0,253.16,90a10.73,10.73,0,0,0-.7,6,9.43,9.43,0,0,0,2.46,4.93,9.13,9.13,0,0,0,14.08-1,10.51,10.51,0,0,0,1.76-7.4A9.07,9.07,0,0,0,269,87.16,8.47,8.47,0,0,0,264.78,84.35Z"/><path class="cls-14" d="M253.55,93.39a3.69,3.69,0,0,0-1.72,2.15,4,4,0,0,0,.86,3.87,3.61,3.61,0,0,0,2.58,1.29,3.75,3.75,0,0,0,3-1.72,4.07,4.07,0,0,0,.43-3.44A3.7,3.7,0,0,0,257,93.39,3.62,3.62,0,0,0,253.55,93.39Z"/><path class="cls-14" d="M269.81,87a1.33,1.33,0,0,0-.62.79,1.44,1.44,0,0,0,.31,1.4,1.32,1.32,0,0,0,.94.47,1.37,1.37,0,0,0,1.09-.62,1.46,1.46,0,0,0,.16-1.25,1.36,1.36,0,0,0-.63-.79A1.32,1.32,0,0,0,269.81,87Z"/><path d="M204.75,15.34C216.88,9.55,237.6,6.54,247,18c7,8.53,3.21,20.81,2.7,22.48-2.88,9.37-10.75,16.95-19.79,18.89-2.25.48-8.38,1.8-13.49-1.8-3.59-2.54-7-7.66-5.39-10.79,1.35-2.59,5.91-3.35,6.29-2.7.18.3-.64.72-.9,1.8-.48,2,1.18,5,3.6,5.39a4.26,4.26,0,0,0,4.5-2.69c.88-3.54-5.79-10.62-12.59-9.9a11.1,11.1,0,0,0-8.1,5.4c-2.76,4.73.42,8-1.8,11.69C199.5,60,193.9,57.69,185,61.21c-3.74,1.46-13,5.11-16.19,13.49-2.42,6.38,3.74,9.44,2.7,18.88-.75,6.71-4.4,12.91-6.3,12.59s-1.32-7.26-3.6-20.68c-1.86-11-3.2-11.88-3.59-16.19-1.41-15.29,14.47-28,33.27-44.07C197.38,20,200.53,17.36,204.75,15.34Z"/><path d="M248.82,14.44c-4.22,1.78-7,7.44-6.3,11.69.91,5.66,7.94,9,11.69,10.79,4.43,2.11,5.12,1.25,10.8,3.6,5.89,2.44,12.13,5,12.59,9s-5.71,5.33-7.2,12.6c-.22,1.09-1.33,6.51,1.8,9,2.62,2.07,7.6,1.59,9-.9a4.33,4.33,0,0,0,0-3.6c-1.07-2.36-4.13-3.17-4.49-2.7s2.34,2.44,1.8,3.6-3.46,1.26-4.5,0c-1.47-1.77.54-6.92,2.7-7.19,3-.38,8,8.39,9,17.08,1.51,13.76-7.57,23.25-4.5,26.08,1.62,1.49,6.17-.07,9-2.69,4.22-3.92,4.55-10.16,3.6-20.69-1.57-17.25-2.36-25.88-6.3-34.17C278.66,27.34,258.87,10.2,248.82,14.44Z"/><path d="M245.17,96.88A6.13,6.13,0,0,0,245.6,99c.17,0,.05-1.81.43-3.87a16.47,16.47,0,0,1,1.73-4.73,18.28,18.28,0,0,1,5.16-6.89,16.84,16.84,0,0,1,6.45-3,16.06,16.06,0,0,1,6.89-.43,14.88,14.88,0,0,1,5.59,2.15,11.16,11.16,0,0,1,3.87,3.87A11,11,0,0,1,277,90.43a16,16,0,0,1-.86,7.74c-2,5.33-6.25,7.92-6,8.18s3.22-1.57,5.59-4.74a17.34,17.34,0,0,0,3-6.45,14.37,14.37,0,0,0,0-7.74,13.75,13.75,0,0,0-2.59-4.74A14.9,14.9,0,0,0,268.41,78a17.18,17.18,0,0,0-6.46-.43,17.57,17.57,0,0,0-7.74,3,20.75,20.75,0,0,0-6.45,6.89C246.82,89,244.81,92.6,245.17,96.88Z"/><path d="M205.65,72c.61,1.18,1,3.26,0,4.49-2.24,2.74-8.68-1.91-18.89-1.79-8.51.09-13.13,3.43-13.49,2.69-.43-.9,10.34-10.18,22.94-9C198.71,68.64,204,68.72,205.65,72Z"/><path class="cls-14" d="M208,99.08a13.48,13.48,0,0,0,0-4.74c-.57-2.92-2.12-4.78-3.87-6.88a19.45,19.45,0,0,0-6-5.17,19.78,19.78,0,0,0-4.73-1.72,17.11,17.11,0,0,0-6-.43,13.13,13.13,0,0,0-6.89,2.58,12.56,12.56,0,0,0-4.3,6.46,13.82,13.82,0,0,0,.43,8.17,21,21,0,0,0,6,9,15.5,15.5,0,0,0,2.58,2.15,14.69,14.69,0,0,0,7.75,2.15,16,16,0,0,0,7.31-1.29,12.7,12.7,0,0,0,5.6-4.3A13.1,13.1,0,0,0,208,99.08Z"/><path class="cls-15" d="M196.49,83.29a11.77,11.77,0,0,0-6.89,0,10.55,10.55,0,0,0-4.73,2.59,10.8,10.8,0,0,0-2.58,4.3,13,13,0,0,0-.86,7.31,11.54,11.54,0,0,0,3,6,11.17,11.17,0,0,0,17.21-1.29,12.86,12.86,0,0,0,2.15-9,11.07,11.07,0,0,0-2.15-6.45A10.5,10.5,0,0,0,196.49,83.29Z"/><path class="cls-16" d="M196.52,85.15a9.56,9.56,0,0,0-5.63,0A8.71,8.71,0,0,0,187,87.26a8.92,8.92,0,0,0-2.11,3.52,10.76,10.76,0,0,0-.7,6,9.36,9.36,0,0,0,2.46,4.92,9.13,9.13,0,0,0,14.08-1,10.54,10.54,0,0,0,1.76-7.39A9.1,9.1,0,0,0,200.75,88,8.49,8.49,0,0,0,196.52,85.15Z"/><path class="cls-14" d="M184.3,94.19a3.69,3.69,0,0,0-1.72,2.15,4,4,0,0,0,.86,3.87,3.58,3.58,0,0,0,2.58,1.3,3.75,3.75,0,0,0,3-1.73,4.07,4.07,0,0,0,.43-3.44,3.72,3.72,0,0,0-1.72-2.15A3.62,3.62,0,0,0,184.3,94.19Z"/><path class="cls-14" d="M199.56,88.8a1.4,1.4,0,0,0-.63.79,1.47,1.47,0,0,0,.32,1.41,1.28,1.28,0,0,0,.94.46,1.34,1.34,0,0,0,1.09-.62,1.5,1.5,0,0,0,.16-1.25,1.36,1.36,0,0,0-.63-.79A1.32,1.32,0,0,0,199.56,88.8Z"/><path d="M246.68,71.92c-.61,1.18-1,3.25,0,4.49,2.24,2.74,8.69-1.91,18.89-1.8,8.51.1,13.13,3.44,13.49,2.7.43-.9-10.34-10.18-22.94-9C253.62,68.56,248.37,68.64,246.68,71.92Z"/><path class="cls-2" d="M240.2,172.1c2.2-1.43,6.83,1,20.37,13,11,9.66,16.47,14.49,17.76,17.76,5.15,13-1.89,31.59-9.7,32.74-5.95.88-11.77-9.89-23.41-31.43,0,0-8.79-16.25-6.33-29.62A3.52,3.52,0,0,1,240.2,172.1Z"/><path d="M266.61,432.76c.07,1.07-1.82,1.87-7.36,3.64-6.3,2-9.66,2.83-14,3-3.57.1-4.44-.36-5.08-1-2-2-1.19-5.05-2.53-11.93-1.46-7.47-3.59-9.71-2.53-11.92.35-.73,1.2-1.75,7.77-1.65,8.23.13,9.74,1.76,14.83,1,4.43-.65,7.41-2.47,7.77-1.65s-2.3,2.46-4.95,7.28c-1.33,2.4-2.56,4.71-1.85,6.62.24.63.58.93,2.05,2l.44.31,1.14.79h0l.31.24.3.21C266.25,432,266.57,432.33,266.61,432.76Z"/><path class="cls-17" d="M261.19,428.42a2.65,2.65,0,0,0-.69,0,3.74,3.74,0,0,0-2.14,1.23,5.1,5.1,0,0,0-1.05,1.47c-.27-.3,1.16-2.9,3.22-3h.22Z"/><path class="cls-17" d="M263,429.66a2.65,2.65,0,0,0-.6-.13,3.65,3.65,0,0,0-2.36.72,5,5,0,0,0-1.35,1.17c-.2-.33,1.7-2.45,3.69-2.21h0l.31.24Z"/><path d="M192.34,437.43c.13,1.06,2.13,1.5,7.9,2.23,6.56.84,10,1,14.29.37,3.52-.54,4.29-1.16,4.81-1.9,1.63-2.33.25-5.18.32-12.19.08-7.61,1.76-10.2.32-12.18-.48-.66-1.49-1.5-7.94-.21-8.07,1.62-9.26,3.49-14.4,3.69-4.47.17-7.73-1.07-7.94-.2s2.71,2,6.2,6.25c1.73,2.12,3.36,4.17,3,6.17-.11.67-.39,1-1.66,2.32-.11.12-.23.26-.37.39l-1,1h0l-.27.29-.25.26C192.56,436.59,192.3,437,192.34,437.43Z"/><path class="cls-17" d="M196.88,432.17a2.93,2.93,0,0,1,.68-.12,3.69,3.69,0,0,1,2.33.82,5.21,5.21,0,0,1,1.3,1.25c.21-.34-1.67-2.64-3.71-2.38l-.23,0C197.14,431.9,197,432,196.88,432.17Z"/><path class="cls-17" d="M195.38,433.71a3.63,3.63,0,0,1,.56-.24,3.72,3.72,0,0,1,2.46.28,5.39,5.39,0,0,1,1.54.91c.13-.36-2.12-2.1-4-1.5h0l-.27.29Z"/><path class="cls-18" d="M166.08,286.94c6.41-9.14,22.79-1.18,53.06-1.8,25.72-.53,43.26-6.89,47.67.9.37.66.44,1,.89,6.29,1.58,18.1,1.8,23.39,1.8,23.39.59,13.86.89,20.79.9,24.28.09,19.45-1.86,18.58-1.8,35.07,0,0,1.9,24.47,0,36a8.82,8.82,0,0,1-2.69,5.39c-2,1.7-4.44,1.73-6.3,1.8-12.48.48-13.88,3.38-22.48,1.8-3.43-.63-5.15-1-6.3-1.8-5.51-4.09-1.59-12.46-4.49-28.78-1.5-8.39-2.22-8.3-3.6-17.09-.89-5.63-1.09-8.87-1.8-17.08-1.06-12.21-2.5-27-2.7-27s0,13.53,1.8,30.57c1.66,16.18.85,32.73,4.5,48.57.6,2.62,2.61,10.92-.9,13.49-.67.49-1.48.73-5.4.9-4.54.19-7.23,0-9.89,0a99.56,99.56,0,0,0-14.39.9c-5.71.72-5.31,1.15-6.3.9-6.53-1.67-7.2-16.07-11.69-40.47-1.63-8.88-1-3.78-4.49-21.59-3.42-17.23-7.39-38.83-7.2-63.85C164.33,291,164.65,289,166.08,286.94Z"/><path class="cls-19" d="M182.27,412.84c-2.33,2.9,1.15,11.43,7.19,15.29,1.59,1,3.29,1.67,22.49.9,8.33-.33,10.85-.57,12.59-2.7,2.17-2.67,2-7,1.8-11.69-.14-3.12-.2-4.69-.9-5.39-3.13-3.15-10.95,4.5-23.39,5.39C190.64,415.46,184.61,409.93,182.27,412.84Z"/><path class="cls-19" d="M227.25,409c-2.33,2.9,1.15,11.42,7.19,15.29,1.59,1,3.29,1.67,22.48.9,8.33-.33,10.86-.57,12.6-2.7,2.17-2.67,2-7,1.79-11.69-.13-3.13-.19-4.69-.9-5.39-3.12-3.15-10.94,4.5-23.38,5.39C235.62,411.61,229.59,406.08,227.25,409Z"/><path class="cls-2" d="M210.44,168.55c1.45.3,3.08,1.95,8.12,3.44,3.53,1,6.1,1.89,9.06,1.29,5.95-1.18,7.47-5.73,10.35-5.17,3.68.73,4.95,8.95,5.17,10.35,2.78,17.88,8,35.3,11.64,53,4.08,19.83,6.76,16.93,11.64,40.09,5.51,26.16,5.12,33.4,1.29,38.81-4.84,6.84-12.94,8.8-22.19,11-11.29,2.74-13,.17-37.78.9-12.87.38-16.52,1.2-25.18,0C173,321,166,320.05,161.88,316c-8.46-8.26-1.6-26.7,7.54-53.51C183.49,221.25,200.8,166.55,210.44,168.55Z"/><path d="M208.88,97.78a6.27,6.27,0,0,1-.43,2.16c-.17,0,0-1.82-.43-3.88a16.79,16.79,0,0,0-1.72-4.73,18.29,18.29,0,0,0-5.16-6.88,16.84,16.84,0,0,0-6.46-3A16,16,0,0,0,187.8,81a15,15,0,0,0-5.6,2.15A11.2,11.2,0,0,0,178.33,87a10.86,10.86,0,0,0-1.29,4.3,16.27,16.27,0,0,0,.86,7.75c2,5.32,6.25,7.92,6,8.17s-3.22-1.57-5.59-4.73a17.36,17.36,0,0,1-3-6.46,14.36,14.36,0,0,1,0-7.74,13.66,13.66,0,0,1,2.58-4.74,14.9,14.9,0,0,1,7.74-4.73,17,17,0,0,1,14.2,2.58,20.75,20.75,0,0,1,6.46,6.89C207.24,89.93,209.25,93.5,208.88,97.78Z"/></g></g></svg>