<svg width="252" height="296" viewBox="0 0 252 296" fill="none" xmlns="http://www.w3.org/2000/svg">
<path d="M26.1307 167.166C20.2799 168.514 16.3148 171.376 14.15 172.972C9.73937 176.234 7.19201 179.618 5.34224 182.121C2.20079 186.345 0.540055 188.587 0.0539858 191.432C-0.508595 194.726 3.32595 199.57 10.626 209.2C11.9042 210.885 13.2994 212.674 15.5767 213.074C17.764 213.46 19.9288 212.408 22.8047 210.081C29.0426 205.034 28.8446 201.884 35.1365 195.126C38.3725 191.652 40.6723 189.18 44.6509 187.037C48.5034 184.961 50.5017 185.019 51.3478 183.343C53.2786 179.42 48.3774 171.731 42.1845 168.568C38.0934 166.474 33.6333 166.46 32.1391 166.456C30.1159 166.466 28.1004 166.704 26.1307 167.166Z" fill="#9BCC75"/>
<path d="M55.6819 178.705C50.2812 178.175 45.0289 170.042 34.7405 153.792C29.1102 144.899 25.3251 137.736 18.0026 123.77C6.93099 102.726 5.37376 98.2458 7.49807 94.0038C10.0364 88.9214 16.9224 86.0364 22.6337 86.5397C27.0489 86.9262 30.7034 89.3303 46.2846 109.556C55.8665 121.986 54.7323 121.402 62.3339 131.248C74.9582 147.596 77.8836 148.962 78.1762 154.305C78.7882 165.907 66.1009 179.748 55.6819 178.705Z" fill="#9BCC75"/>
<path d="M40.5056 45.5708C42.0059 42.0297 41.0892 39.3485 37.7557 37.527L37.6882 37.4641L37.7422 37.2709C40.9887 38.7508 43.5061 37.9285 45.2943 34.8038L45.3573 34.7364L45.4248 34.7949L45.4923 34.8578C44.8683 36.2598 44.7782 37.5225 45.2223 38.646C45.4975 39.406 45.9622 40.0834 46.5725 40.6142C47.0928 41.1151 47.688 41.532 48.3368 41.85L49.0614 42.2679L49.0073 42.4611C47.4693 41.7448 45.7137 41.6482 44.1062 42.1915C43.7959 42.3386 43.4952 42.5052 43.206 42.6903C42.9185 42.8715 42.6474 43.0775 42.3959 43.3059C42.1484 43.5306 41.9458 43.7553 41.7478 43.9485C41.5724 44.1365 41.41 44.3362 41.2617 44.5462C41.1177 44.7484 40.9962 44.9237 40.8972 45.0764C40.8065 45.2153 40.7367 45.3667 40.6902 45.5258L40.5686 45.6606L40.5056 45.5708ZM62.9143 14.9821L62.8513 15.0495L62.7883 15.117C59.1878 13.5681 55.9578 13.3734 53.0984 14.5328C52.585 14.7337 52.0922 14.9835 51.6267 15.2787C51.1497 15.5798 50.7266 15.8809 50.317 16.1775C49.9269 16.4733 49.5542 16.7914 49.2009 17.1301C48.8779 17.4445 48.5771 17.7808 48.3007 18.1367C48.0352 18.4737 47.7922 18.8018 47.5716 19.1343C47.3511 19.4669 47.1576 19.7634 47.0001 20.0331C46.8425 20.3027 46.703 20.5408 46.5815 20.761C46.4862 20.9281 46.4078 21.1042 46.3475 21.2868L46.226 21.4216L46.0324 21.3632C48.0907 16.5969 47.7907 12.4732 45.1323 8.99204C44.5292 8.20744 43.8493 7.48487 43.1025 6.83506C42.5388 6.33915 41.9369 5.88839 41.3022 5.48695L40.5056 5.13644L40.5641 4.94321C44.9058 6.92943 48.7178 6.71223 52.0003 4.29163C52.3273 4.01602 52.6469 3.73291 52.9589 3.44232C53.2695 3.15023 53.535 2.88061 53.76 2.63345C53.9851 2.3863 54.2101 2.13016 54.3991 1.86503C54.5882 1.5999 54.7862 1.35275 54.9482 1.13256C55.1102 0.912366 55.2407 0.723631 55.3398 0.566351C55.4296 0.435113 55.4994 0.291231 55.5468 0.13945L55.6683 0.00463867H55.8078C55.1926 1.15555 54.8301 2.42422 54.7448 3.72603C54.6594 5.02784 54.853 6.33287 55.3128 7.55405C55.5239 8.0853 55.7736 8.60045 56.0599 9.09539C56.3389 9.58136 56.6629 10.0402 57.0275 10.466C57.365 10.8569 57.7296 11.2479 58.1121 11.6388C58.4601 11.9982 58.8298 12.3359 59.2193 12.6499C59.5794 12.933 59.9439 13.2071 60.322 13.4678C60.7 13.7284 61.0286 13.9486 61.3166 14.1283C61.5806 14.2967 61.8557 14.4469 62.1402 14.5777C62.3573 14.6657 62.5592 14.787 62.7388 14.9372L62.9143 14.9821ZM53.8275 25.6142L53.8905 25.5468L53.9491 25.4794C55.2474 26.1396 56.6919 26.4612 58.1482 26.4141C59.3486 26.3736 60.4988 25.9231 61.4066 25.1379C62.0236 24.618 62.6013 24.0532 63.1349 23.4483C63.4468 23.0507 63.7281 22.63 63.9765 22.19L64.0395 22.1226L64.233 22.1766C63.3329 23.974 63.1964 25.6532 63.8235 27.214C64.0218 27.6509 64.2567 28.0703 64.5256 28.4677C64.7904 28.8676 65.0917 29.2422 65.4257 29.5867C65.7407 29.9147 66.0558 30.2203 66.3708 30.4854C66.6616 30.7542 66.9747 30.9978 67.307 31.2134C67.613 31.4156 67.892 31.5864 68.1351 31.7212C68.3377 31.8413 68.5466 31.9508 68.7607 32.0492L69.0217 32.166L68.9002 32.3009C66.5719 31.2493 64.4191 31.1325 62.4418 31.9503C62.0146 32.1512 61.6025 32.3825 61.2086 32.6424C60.8302 32.8799 60.476 33.1539 60.1509 33.4602C59.8509 33.7598 59.5629 34.0594 59.2868 34.359C59.0213 34.6511 58.7963 34.9162 58.6162 35.1589C58.4503 35.3804 58.2999 35.6131 58.1662 35.8554C58.069 36.0215 57.9905 36.1978 57.9321 36.3811L57.7476 36.5834L57.5541 36.5294C58.2149 35.0852 58.5234 33.5052 58.4542 31.9189C58.3962 30.6392 57.9096 29.416 57.0725 28.4453C56.5038 27.7926 55.895 27.1757 55.2497 26.5984C54.8237 26.2643 54.3722 25.9638 53.8996 25.6996L53.8275 25.6142Z" fill="url(#paint0_linear)"/>
<path d="M22.5031 193.836C21.225 195.409 22.6292 199.853 25.4196 200.859C27.2198 201.511 28.9481 200.509 31.5989 198.976C33.4712 197.894 35.0734 196.963 35.0284 195.723C34.9744 194.2 32.4811 193.153 31.2569 192.811C30.0327 192.47 28.6375 192.631 25.9371 192.982C23.8983 193.229 22.8722 193.386 22.5031 193.836Z" fill="#7A76B5"/>
<path d="M38.8044 186.071C25.145 197.224 24.6904 201.565 25.0775 203.888C25.5275 206.499 27.4853 209.389 35.7215 213.55C53.382 222.474 61.7667 220.632 85.4761 224.389C102.493 227.085 103.605 228.909 115.329 229.332C124.056 229.655 131.194 228.927 142.072 227.786C161.816 225.705 166.191 225.472 169.157 224.312C169.526 224.168 169.877 223.998 170.367 223.759C183.082 217.608 187.438 204.706 187.785 203.637C188.523 201.322 191.115 192.852 187.785 183.199C183.469 170.734 172.28 165.13 166.326 162.146C156.622 157.28 148.071 156.525 140.514 155.963C135.762 155.612 130.487 155.585 104.136 159.369C82.3797 162.515 86.0657 161.041 77.0824 163.706C59.998 168.766 49.687 177.187 38.8044 186.071Z" fill="#C3A75E"/>
<path d="M140.839 14.7034C130.468 14.4265 120.124 15.8831 110.234 19.0128C101.41 21.7744 93.0708 25.8921 85.5166 31.2177C78.1716 36.5464 71.7303 43.0172 66.4384 50.3833C61.5642 57.1643 58.8773 63.0466 55.4433 70.569C49.759 83.0166 51.7573 82.4908 47.4637 90.2874C42.1304 99.9982 37.8053 103.063 37.2157 110.464C37.0056 113.842 37.0236 117.231 37.2697 120.606C37.2697 120.606 37.5443 124.592 38.0888 127.765C40.0556 139.201 55.1913 151.514 55.8169 152.031C56.0194 152.202 56.2669 152.404 56.5505 152.633C66.1819 160.34 81.6506 166.698 81.6506 166.698C97.1553 172.944 104.91 176.068 112.705 178.472C127.935 183.168 138.039 186.286 152.068 187.432C166.695 188.632 179.319 189.679 192.861 182.961C204.032 177.429 210.576 169.233 215.104 163.553C221.81 154.998 226.883 145.284 230.068 134.896C236.68 113.596 233.525 95.8011 232.184 88.6741C231.151 82.7988 229.502 77.0482 227.264 71.5172C222.721 60.6985 216.055 50.897 207.66 42.6901C195.031 30.265 182.073 24.931 175.142 22.1584C158.004 15.2785 143.777 14.7797 140.839 14.7034Z" fill="#A5DC7E"/>
<path d="M116.207 233.735C118.425 234.436 125.073 236.526 128.57 233.133C132.283 229.538 129.519 221.656 128.93 219.953C127.981 217.244 126.462 214.769 124.474 212.696C123.124 211.231 121.477 209.519 118.839 208.625C117.255 208.09 117.039 208.436 115.545 207.933C112.205 206.809 111.494 204.508 109.604 203.533C106.139 201.763 99.2301 204.648 97.2363 208.926C93.7843 216.331 104.284 229.979 116.207 233.735Z" fill="#92BC6D"/>
<path d="M28.642 213.59C23.6238 217.1 29.9562 234.104 32.2425 240.233C35.1185 247.945 39.5516 259.493 50.5332 271.065C62.3969 283.571 74.9671 288.792 77.8161 289.938C87.938 293.983 95.9807 294.531 107.52 295.331C119.672 296.171 130.348 296.912 143.795 293.237C150.695 291.349 163.054 287.844 174.377 277.369C182.501 269.874 186.259 262.351 193.28 248.331C196.953 240.962 199.867 233.24 201.975 225.283C204.676 215.145 206.026 210.076 204.073 207.919C198.919 202.194 180.597 219.396 152.203 227.377C119.38 236.576 68.5897 234.787 41.8559 217.783C39.079 216.03 32.0265 211.204 28.642 213.59Z" fill="#746CAB"/>
<path d="M21.1531 194.429C17.3231 196.64 16.4409 201.889 16.3599 202.518C14.8522 213.649 28.8897 223.337 30.4379 224.366C33.5074 226.429 37.4814 227.835 45.4296 230.657C53.3777 233.479 60.5337 236.009 69.7331 237.847C74.7738 238.854 80.5346 239.672 94.0365 240.242C110.356 240.93 120.694 241.366 134.812 240.242C146.901 239.276 162.617 237.915 181.281 230.963C196.417 225.323 203.069 219.895 207.066 213.298C208.483 210.966 212.147 204.724 210.666 197.435C209.622 192.304 206.076 186.862 203.465 187.257C200.999 187.626 201.273 192.919 197.767 199.228C194.405 205.281 189.666 208.463 185.166 211.505C173.077 219.652 155.889 221.841 142.594 222.879C121.238 224.582 107.133 223.661 81.4302 221.98C72.2534 221.382 55.529 220.124 39.7588 211.99C29.1733 206.535 25.4242 201.318 26.2433 198.622C26.6934 197.206 28.6467 195.638 28.0436 194.429C27.6655 193.683 26.5269 193.53 25.7933 193.427C24.1788 193.253 22.5514 193.605 21.1531 194.429Z" fill="#7A76B5"/>
<path d="M177.609 212.592C182.866 213.941 190.589 208.099 205.824 196.339C214.163 189.908 220.181 184.471 231.869 173.87C249.484 157.882 252.482 154.206 251.942 149.492C251.298 143.852 245.821 138.788 240.276 137.305C235.996 136.159 231.725 137.17 210.162 150.849C196.903 159.257 198.168 159.09 187.659 165.746C170.183 176.778 166.974 177.052 164.859 181.995C160.286 192.667 167.469 209.995 177.609 212.592Z" fill="#9BCC75"/>
<path d="M126.517 217.9C126.198 218.461 125.496 218.866 124.429 219.491C123.658 219.938 122.836 220.293 121.981 220.547C110.752 223.971 104.734 227.121 104.734 227.121C95.022 232.698 93.1002 235.659 89.3422 237.551C88.3056 238.04 87.229 238.44 86.1242 238.746C78.3381 240.916 70.75 236.998 68.6572 235.919C65.3182 234.229 62.344 231.901 59.9035 229.067C58.2472 227.071 55.4793 223.746 55.0338 219.94C53.9626 210.863 66.5104 202.936 71.6006 199.772C75.8132 197.157 84.891 191.683 97.2543 192.748C101.039 193.072 110.882 193.912 121.04 207.151C124.587 211.779 127.733 215.783 126.517 217.9Z" fill="#9BCC75"/>
<path d="M68.6438 132.317C70.563 136.474 73.6877 139.961 77.6136 142.325C78.8062 143.035 86.2323 147.447 93.5053 144.953C101.435 142.235 103.195 133.396 106.215 134.11C109.343 134.843 106.134 144.643 112.426 151.941C117.624 157.972 124.222 160.178 125.397 160.457C130.438 161.586 135.713 161.007 140.389 158.812" stroke="#92BC6D" stroke-width="3" stroke-miterlimit="10" stroke-linecap="round"/>
<path d="M103.461 98.0975C102.191 99.7152 99.9637 99.9354 98.5505 100.034C93.0867 100.421 90.3548 100.614 85.7371 99.6433C82.6497 98.9917 78.086 97.9851 73.1578 95.1496C72.0964 94.5405 71.0687 93.8744 70.0794 93.1544C66.7039 90.7053 64.8181 89.3393 63.8055 86.6925C61.9512 81.8213 64.6471 76.8063 67.1315 72.1958C69.4402 67.8916 72.7113 64.1766 76.6908 61.339C79.2022 59.6 80.4939 58.7012 82.3301 58.5484C83.8378 58.4181 85.6741 58.7911 89.5672 61.694L90.8229 62.6287C94.0768 65.0868 97.5738 68.0481 100.396 73.2069C102.43 76.9546 103.015 79.8935 104.113 85.3399C104.113 85.3399 104.779 88.6562 104.401 95.0238C104.421 96.1218 104.091 97.1978 103.461 98.0975Z" fill="white"/>
<path d="M103.461 98.0976C102.192 99.7154 99.9638 99.9356 98.5506 100.034C93.0868 100.421 90.3549 100.614 85.7373 99.6435C82.6498 98.9919 78.0862 97.9853 73.158 95.1498C70.039 90.5437 72.0373 84.0009 73.3695 79.642C74.1121 77.1929 75.3768 73.1981 78.7703 69.2032C80.467 67.2079 81.9207 65.4824 84.5221 64.2601C85.4762 63.8107 87.3845 63.3344 90.823 62.5974C94.077 65.0555 97.574 68.0168 100.396 73.1756C102.43 76.9233 103.015 79.8622 104.113 85.3086C104.113 85.3086 104.779 88.6249 104.401 94.9925C104.428 96.1012 104.098 97.1893 103.461 98.0976Z" fill="#A30104"/>
<path d="M90.6383 72.506C89.4591 73.0138 87.0918 74.0294 85.8676 76.2942C84.0179 79.7364 85.287 85.1738 89.0181 87.2274C91.7725 88.7328 94.7294 87.8026 95.4225 87.5599C97.3428 86.8755 98.9602 85.5375 99.9906 83.7807C100.714 82.5359 101.107 81.1276 101.134 79.6888C101.161 78.25 100.82 76.8281 100.144 75.5573C99.8871 75.1079 98.1994 72.1555 94.9949 71.6657C93.2352 71.3961 91.813 72.0027 90.6383 72.506Z" fill="white"/>
<path d="M82.4562 82.0103C81.624 82.3015 80.915 82.8654 80.4444 83.61C79.6613 85.0615 80.1969 87.3578 81.7946 88.2251C82.212 88.429 82.6665 88.5465 83.1306 88.5705C83.5946 88.5944 84.0588 88.5243 84.495 88.3644C85.3064 88.0758 85.99 87.511 86.4258 86.7691C86.7286 86.2431 86.8932 85.6492 86.9042 85.0426C86.9152 84.4361 86.7723 83.8366 86.4888 83.3C86.3247 82.9383 86.0866 82.615 85.7898 82.3508C85.493 82.0866 85.1441 81.8873 84.7655 81.7658C84.387 81.6443 83.9871 81.6033 83.5917 81.6454C83.1963 81.6875 82.8141 81.8118 82.4697 82.0103H82.4562Z" fill="white"/>
<path d="M145.992 109.979C145.942 112.037 147.527 113.614 148.557 114.585C152.536 118.342 154.525 120.225 158.715 122.395C161.515 123.847 165.7 125.968 171.281 126.889C172.489 127.091 173.708 127.229 174.931 127.302C179.094 127.545 181.421 127.68 183.883 126.273C188.41 123.68 189.509 118.095 190.517 112.958C190.947 110.801 191.149 108.606 191.12 106.407C191.093 103.737 190.723 101.082 190.017 98.5066C189.185 95.5767 188.753 94.0623 187.434 92.7816C186.349 91.7256 184.688 90.8538 179.846 90.6202C179.333 90.5977 178.811 90.5707 178.279 90.5528C174.206 90.391 169.602 90.4539 164.161 92.6693C160.209 94.2825 157.887 96.1789 153.575 99.7109C153.575 99.7109 150.952 101.854 147.203 107.013C146.495 107.849 146.071 108.887 145.992 109.979Z" fill="white"/>
<path d="M145.992 109.979C145.942 112.037 147.527 113.614 148.557 114.585C152.536 118.342 154.525 120.225 158.715 122.395C161.515 123.847 165.7 125.968 171.281 126.889C176.619 125.303 179.229 118.98 180.966 114.756C181.948 112.392 183.509 108.501 183.41 103.261C183.365 100.641 183.325 98.3763 182.092 95.8103C181.641 94.8622 180.462 93.2804 178.279 90.5437C174.206 90.382 169.602 90.4449 164.161 92.6603C160.209 94.2735 157.887 96.1698 153.575 99.7019C153.575 99.7019 150.952 101.845 147.203 107.004C146.493 107.842 146.069 108.884 145.992 109.979Z" fill="#A30104"/>
<path d="M173.23 97.4865C171.97 97.7472 169.449 98.2774 167.802 100.264C165.309 103.27 165.484 108.851 168.756 111.601C171.155 113.619 174.238 113.286 174.967 113.187C176.985 112.894 178.835 111.899 180.192 110.379C181.145 109.299 181.808 107.996 182.118 106.59C182.428 105.185 182.376 103.724 181.965 102.344C181.803 101.836 180.728 98.6279 177.681 97.518C175.975 96.9068 174.485 97.2214 173.23 97.4865Z" fill="white"/>
<path d="M163.333 105.198C162.458 105.317 161.65 105.731 161.042 106.371C159.989 107.638 160.065 109.992 161.447 111.156C161.816 111.438 162.238 111.643 162.688 111.757C163.139 111.871 163.607 111.893 164.066 111.821C164.919 111.701 165.7 111.282 166.272 110.64C166.673 110.183 166.952 109.633 167.083 109.039C167.214 108.446 167.192 107.829 167.019 107.247C166.93 106.86 166.761 106.496 166.522 106.178C166.283 105.861 165.98 105.597 165.632 105.404C165.285 105.21 164.901 105.092 164.505 105.057C164.108 105.021 163.709 105.069 163.333 105.198Z" fill="white"/>
<path d="M105.693 123.676C106.702 123.676 107.52 122.589 107.52 121.249C107.52 119.909 106.702 118.823 105.693 118.823C104.684 118.823 103.866 119.909 103.866 121.249C103.866 122.589 104.684 123.676 105.693 123.676Z" fill="#81A55E"/>
<path d="M117.99 125.645C118.558 124.431 118.278 123.101 117.363 122.675C116.449 122.248 115.247 122.886 114.679 124.1C114.111 125.315 114.391 126.645 115.305 127.071C116.22 127.498 117.421 126.86 117.99 125.645Z" fill="#81A55E"/>
<defs>
<linearGradient id="paint0_linear" x1="35.1114" y1="10.9014" x2="64.1839" y2="37.4706" gradientUnits="userSpaceOnUse">
<stop offset="0.11" stop-color="#D7406E"/>
<stop offset="0.14" stop-color="#D94969"/>
<stop offset="0.29" stop-color="#E06F54"/>
<stop offset="0.43" stop-color="#E68B45"/>
<stop offset="0.55" stop-color="#E99C3C"/>
<stop offset="0.65" stop-color="#EAA239"/>
</linearGradient>
</defs>
</svg>
