<svg xmlns="http://www.w3.org/2000/svg" viewBox="0 0 541.84 469.38"><defs><style>.cls-1{fill:#683b2d;}.cls-2{fill:#2f7734;}.cls-3{fill:#feddb2;}.cls-4{fill:#822b23;}.cls-5{fill:#ef0750;}.cls-6{fill:#964a32;}.cls-7{fill:#f4ebd4;}.cls-8{fill:#050100;}.cls-9{fill:#d28f63;}.cls-10,.cls-14,.cls-19{fill:none;stroke-linecap:round;}.cls-10{stroke:#050100;}.cls-10,.cls-14,.cls-19,.cls-30{stroke-miterlimit:10;}.cls-11{fill:#c68561;}.cls-12{fill:#14223c;}.cls-13{fill:#ce733e;}.cls-14,.cls-30{stroke:#000;}.cls-15{fill:#fff;}.cls-16{fill:#60270a;}.cls-17{fill:#fce5bc;}.cls-18{fill:#efd7af;}.cls-19{stroke:#efd7af;}.cls-20{fill:#1a2927;}.cls-21{fill:#87412e;}.cls-22{fill:#923524;}.cls-23{fill:#351406;}.cls-24{fill:#1e2a28;}.cls-25{fill:#f7f7f7;}.cls-26{fill:#f4d3ab;}.cls-27{fill:#fcfcfc;}.cls-28{fill:#eacca7;}.cls-29{fill:#5f2c17;}.cls-31{fill:#f47946;}.cls-32{fill:#5e352a;}.cls-33{fill:#5576a5;}.cls-34{fill:#5d1000;}.cls-35{fill:#320406;}</style></defs><g id="Camada_2" data-name="Camada 2"><g id="Pronto"><path class="cls-1" d="M452.41,204.35c.13.66-1.71,1.22-5.05,3.25-8.26,5-11.25,10.28-15,13.87-4.28,4.06-11.37,5.37-25.53,8-18.91,3.52-28.36,5.28-38.07,2.22-4.69-1.48-9.78-4-14.48-1.62-3.19,1.62-3.71,4.23-9.05,7.5-3.82,2.35-3.91,1.23-7.11,3.31-5.31,3.47-5.57,6.89-11,9.62-1.93,1-4.05,2-5.12,1.19-2.14-1.68.82-10.47,5.67-16.67,6.95-8.86,17-11.42,19.22-11.93,4.7-1.09,5.29-.14,11.29-1.38a57.49,57.49,0,0,0,15.29-5.63c7.11-3.61,16.68-5.18,35.82-8.33C426.26,205,451.93,201.93,452.41,204.35Z"/><path class="cls-1" d="M344.67,237.07c.68.47.66,1.53.6,3.2-.11,3-.19,5.3-2,7-1,.94-3.11,2.21-4.37,1.48-2-1.16-1.76-7.29,1.42-10.21C341.51,237.44,343.62,236.34,344.67,237.07Z"/><path class="cls-2" d="M452.17,204.31c-.77-2.51-5.91-3.59-23.94-3.13-14.62.36-21.92.55-25,2.23-12.31,6.71-18.8,25.45-13.55,31.34,4,4.49,15.38,0,38.12-9.1,0,0,17.16-6.82,23.85-18.66A3.48,3.48,0,0,0,452.17,204.31Z"/><path class="cls-3" d="M323.47,228.29c.16.59-1.46,1.21-4.33,3.25-7.09,5-9.43,9.94-12.6,13.41-3.58,3.92-9.85,5.55-22.39,8.83-16.74,4.37-25.12,6.55-34,4.43-4.3-1-9-2.95-13.1-.51-2.76,1.65-3.06,4-7.64,7.31-3.28,2.35-3.43,1.35-6.17,3.43-4.55,3.45-4.56,6.54-9.29,9.34-1.67,1-3.51,2.08-4.52,1.4-2-1.38.06-9.46,4-15.33,5.66-8.4,14.53-11.35,16.48-11.94,4.14-1.28,4.74-.47,10.05-2a51.5,51.5,0,0,0,13.35-6c6.15-3.69,14.64-5.72,31.62-9.77C300,230.52,322.88,226.15,323.47,228.29Z"/><path class="cls-3" d="M235.05,266.75c.52.53.32,1.46,0,2.93-.59,2.61-1.06,4.65-3,5.85-1,.66-3.11,1.43-4.1.57-1.58-1.36-.33-6.74,3-8.78C232.19,266.54,234.25,265.93,235.05,266.75Z"/><path class="cls-4" d="M329.62,227c-1-2.63-6.54-3.48-25.79-1.91-15.61,1.27-23.41,1.91-26.62,3.89-12.76,7.91-18.58,28.35-12.61,34.33,4.55,4.56,16.44-1,40.22-12,0,0,17.94-8.33,24.38-21.38A3.78,3.78,0,0,0,329.62,227Z"/><path class="cls-5" d="M6.18,441.41a2.68,2.68,0,0,0-.37.41.32.32,0,0,1,.05-.3Z"/><path class="cls-6" d="M117.42,274.8c.7.27.91,1.21,1.22,2.7.55,2.64,1,4.71-.26,6.61-.68,1-2.25,2.62-3.53,2.24-2-.59-3.13-6-1-9.3C114.71,275.81,116.34,274.38,117.42,274.8Z"/><path class="cls-6" d="M213.33,226.58c.26.56-1.25,1.45-3.75,4-6.2,6.22-7.69,11.5-10.25,15.49-2.9,4.51-8.86,7.2-20.78,12.59-15.91,7.19-23.87,10.79-33.09,10.2-4.46-.29-9.5-1.41-13.12,1.71-2.46,2.11-2.36,4.53-6.36,8.57-2.86,2.9-3.18,1.93-5.55,4.46-3.94,4.21-3.42,7.29-7.66,10.88-1.49,1.27-3.13,2.66-4.25,2.16-2.26-1-1.55-9.42,1.39-15.93,4.2-9.33,12.52-13.76,14.36-14.69,3.91-2,4.64-1.26,9.66-3.66A51.88,51.88,0,0,0,146.19,254c5.49-4.72,13.59-8.18,29.79-15.1C190.4,232.78,212.38,224.55,213.33,226.58Z"/><path class="cls-7" d="M116.71,261.09a2.48,2.48,0,0,0-.59,1.85c.15.57.66.75,1.25.95.4.15.64.23.92.11a2.28,2.28,0,0,0,1-1.8c.08-.78-.23-1.79-1-1.92S116.8,261,116.71,261.09Z"/><path class="cls-5" d="M350.88,449.33a4.27,4.27,0,0,0-.37.41.3.3,0,0,1,.05-.29A2.08,2.08,0,0,1,350.88,449.33Z"/><path class="cls-8" d="M74.44,466.78c0,.42-.68.8-.93.93-3.16,1.69-21.76-1.43-21.4-3.72.1-.65,1.92-.91,2.79-.93,1.69,0,2.57.72,5.58,1.86a18.79,18.79,0,0,0,2.8.93c3.64.77,5.44-.83,9.3,0C74.3,466.22,74.43,466.64,74.44,466.78Z"/><path class="cls-8" d="M93.82,464.9c-.11.4.52.91.75,1.09,2.79,2.24,21.64,2.63,21.72.32,0-.66-1.72-1.25-2.57-1.44-1.66-.35-2.66.24-5.84.8a20.41,20.41,0,0,1-2.91.39c-3.72.08-5.19-1.83-9.14-1.73C94.06,464.37,93.86,464.76,93.82,464.9Z"/><path class="cls-9" d="M139.67,334.64c1,.95,3,3.39,1.36,21.71a234.46,234.46,0,0,1-4.75,30.54c-8.67,38.8-13.13,58.32-19.68,64.45-1.37,1.29-8.33,7.56-6.78,10.86.88,1.89,4.13,1.89,4.07,2.71-.1,1.17-6.64,1.47-10.86,1.36-5.23-.14-6.27-.88-6.78-1.36-2.36-2.21-1.61-6.51-1.36-8.14,1.38-8.95-1.26-18.08-1.36-27.14-.2-19.14-1.81-16.39-1.35-28.5.41-10.81,1.63-11.5,2.71-27.14,1.12-16.24-.14-16.42,1.36-20.35C102.7,336.72,131.09,326.76,139.67,334.64Z"/><path class="cls-9" d="M54.1,330.19c-1,.63-3.74,2.73-5.47,21.05a213.46,213.46,0,0,0-.55,31.57c2.28,52.26.77,58.51,6.41,66.33,1.12,1.56,6.73,9,4.59,11.95-1.23,1.69-4.42,1.07-4.52,1.89-.13,1.17,6.25,2.71,10.4,3.4,5.16.87,6.33.34,6.92,0,2.74-1.72,2.82-6.09,2.89-7.74.35-9.05,4.68-17.51,6.5-26.38,3.86-18.75,4.91-15.75,6.77-27.72,1.66-10.69.59-11.6,2.51-27.15,2-16.16,3.27-16.1,2.55-20.24C90,339.27,64,324.09,54.1,330.19Z"/><path class="cls-10" d="M55.12,463.77c.06-.13,1.92-.64,2.73-1.83"/><path class="cls-10" d="M55.36,463.93a10.22,10.22,0,0,1,3.9-.2A10.89,10.89,0,0,1,65.4,467"/><path class="cls-10" d="M113.36,465.7c0-.14-1.77-1-2.35-2.31"/><path class="cls-10" d="M113.1,465.65a10.11,10.11,0,0,0-3.79-.93,10.83,10.83,0,0,0-6.64,2"/><path class="cls-11" d="M97.6,203c-1.15,10.23,0,12.21,0,12.21,2.26,3.38,6.21,2.41,9.5,5.43,4.42,4,3.25,10.83,3.4,17,.12,5.12,3.69,13.37,10.85,29.85,6.63,15.26,11.13,22.52,14.93,36.64.69,2.57,1.15,4.53,1.36,5.43,2,8.8,3.75,16.72,2.71,25.78-.49,4.23-2.2,19.18-12.89,25.1a14.43,14.43,0,0,1-2.31,1.08c-4.34,1.55-11.23,1.34-37-1.08-11.45-1.07-13.33-1.33-16.29-2.71-11.72-5.47-16.45-17.37-17.64-20.35-4.18-10.52-2.93-19.72-1.36-31.21,1-7.44,1.85-7.6,6.79-25.79,6.9-25.4,10.35-38.11,9.5-43.42-.72-4.52-2.74-12.52,1.36-16.28,2.36-2.18,5.12-1.41,6.78-4.07s-.28-4.68,0-10.86c.18-3.9.33-7.36,2.71-9.5,3.09-2.77,8.61-2.13,12.22,0A12.91,12.91,0,0,1,97.6,203Z"/><path class="cls-8" d="M106.12,47.5c2.08,0,3-1,6.71-1,1.93,0,3.34.07,4.8,1s1.8,1.94,2.88,1.93,1.39-1.2,2.87-1.93c1.65-.82,3.39-.37,4.8,0a10.82,10.82,0,0,1,5.76,3.86,12.32,12.32,0,0,1,1.91,3.86,20.41,20.41,0,0,1,1,4.83c.07,0-1.13-6.34,0-6.76.92-.34,3.39,3.17,4.8,6.76a27.08,27.08,0,0,1,1,15.44c-1.44,5.3-3.86,6.76-2.88,9.66.88,2.57,3.6,3.83,5.76,4.82,3.85,1.78,8.94,2.4,9.59,1,.79-1.74-5.53-5.26-4.8-6.76.6-1.22,5.81-1,8.64,1.93,2.41,2.53,2.24,6.17,1.92,11.59-.45,7.46-2.31,9-1.92,15.44.22,3.6.8,3.1,1,6.76,0,1.27,0,2.8-1.92,13.51-1.3,7.07-2.27,7.9-2.88,8.69-.8,1-3.12,4.06-5.22,3.65-2.4-.47-3.49-6.52-5.59-18.61-2.57-14.85-2.55-14.85-2.79-15.82-2.53-10.3-4.3-17.51-10.38-22.31a47.46,47.46,0,0,0-13.43-6.76c-4.65-1.54-6.25-1.37-25.9-2.9a192.8,192.8,0,0,0-20.15-1c-5.34.08-8.09.14-11.51,1A36.93,36.93,0,0,0,43.76,88c-2.35,2.2-5.12,6.64-10.55,15.45-4,6.53-6.05,9.79-6.72,11.58-2.67,7.16-2.35,13.55-1.92,22.21.3,5.89.95,8.68,1,16.41,0,9.62-1,11-1.92,11.58-3.82,2.45-11.95-4.32-15.34-7.72-5-5.05-10-13.09-7.68-16.41,1.25-1.79,3.71-.94,4.8-2.9,1.3-2.35-1.68-4.57-2.88-9.65-1.11-4.73,1-4.74,1.92-16.41.33-4.26.22-6.52,1.92-7.73,2.38-1.69,6.12.24,6.71-1s-2.74-2.69-2.88-5.79c-.08-1.92,1.14-2.23,1.92-4.83,1.28-4.26-1.31-5.64,0-8.69.58-1.34,1-.82,6.72-5.79,1.35-1.17,2.49-2.21,2.88-1.93.57.41-1.61,3-1,5.79.52,2.31,2.81,4.28,3.83,3.86,1.28-.51-.32-4.33,1-9.65a21.59,21.59,0,0,1,3.84-7.72,26.78,26.78,0,0,1,11.51-9.66c2.54-1,6-2.5,8.64-1,.76.44,1.56,1.21,1.92,1,.55-.39-1-2.56-1-4.82,0-2.52,2-4.62,4.79-6.76C62,42.34,69.21,36.76,80.21,36.88c4.4,0,11.65.12,17.27,4.83C100.44,44.18,102.42,47.49,106.12,47.5Z"/><path class="cls-12" d="M141.44,318.83c1.16-.06,3.44,14.64,4.65,28.6,2,23.16,3.46,41.94-5.58,45.28-1.64.6-2.53.29-6.51,0-23.5-1.76-38.39,5.54-41.88.79-.74-1-.49-3.59,0-8.74.22-2.26.41-2.69.93-6.35.1-.71,1.34-9.48.93-9.54S92.08,374,91.19,380c-1.4,9.49.37,11.58-1.86,13.5-3.73,3.21-10.46-1.13-24.19-1.59-14.7-.49-17.74,4.13-22.34,1.59-6.86-3.79-3.42-19.79,3.73-51.63.46-2.07,5.09-22.49,7.44-22.25.76.08.45,2.22,1.86,4,3.89,4.82,17,2,25.13.8,32.08-4.7,55.12,6.18,59.55-1.59C141.6,320.9,141,318.85,141.44,318.83Z"/><path class="cls-9" d="M102.85,223.2c-.18.6,1.49,1.27,4.41,3.43,7.25,5.34,9.58,10.46,12.8,14.11,3.63,4.12,10.09,5.92,23,9.54,17.25,4.83,25.87,7.24,35.13,5.21,4.47-1,9.41-2.9,13.57-.3,2.82,1.76,3.09,4.23,7.77,7.7,3.35,2.49,3.53,1.47,6.32,3.67,4.64,3.65,4.6,6.85,9.44,9.83,1.71,1.06,3.6,2.22,4.65,1.53,2.13-1.39.11-9.79-3.87-15.93-5.72-8.8-14.84-12-16.84-12.66-4.27-1.4-4.9-.57-10.36-2.22a53.34,53.34,0,0,1-13.72-6.49c-6.29-3.93-15-6.19-32.53-10.69C127.05,225.92,103.49,221,102.85,223.2Z"/><path class="cls-9" d="M73.07,219.41c.51.37-.39,1.92-1.36,5.43-2.41,8.67-1.08,14.15-1.36,19-.31,5.48-4.28,10.89-12.21,21.71C47.55,280,42.25,287.22,33.71,291.33c-4.12,2-9.18,3.53-10.85,8.14-1.13,3.13.17,5.24-1.36,10.86-1.1,4-1.87,3.33-2.71,6.78-1.4,5.74.61,8.23-1.36,13.57-.69,1.89-1.46,4-2.71,4.07-2.53.23-6.13-7.63-6.79-14.92-.94-10.45,4.26-18.61,5.43-20.36,2.5-3.73,3.51-3.47,6.78-8.14a53.43,53.43,0,0,0,6.79-13.57c2.52-7,8-14.15,19-28.5C55.71,236.49,71.19,218.07,73.07,219.41Z"/><path class="cls-9" d="M21,306.54c.77,0,1.33.79,2.21,2.08,1.55,2.29,2.77,4.09,2.33,6.37-.24,1.25-1.12,3.36-2.47,3.5-2.14.23-5.33-4.51-4.54-8.45C18.86,308.55,19.85,306.56,21,306.54Z"/><path class="cls-9" d="M23.16,150.06c-2.44-1.63-4-1.8-5.09-1.7-3,.27-5.28,2.88-6.23,5.1-1.49,3.46-.15,6.75.56,8.49a13.39,13.39,0,0,0,6.8,7.37,12.22,12.22,0,0,0,8.5.56c1.51-.48,3-1,4-2.26C34.62,163.48,29.46,154.26,23.16,150.06Z"/><path class="cls-9" d="M54.39,74.71c-6.51,2.18-10.4,4.36-13.63,6.82A45.7,45.7,0,0,0,29.08,95.16a60,60,0,0,0-7.79,19.47c-1.06,4.88-2.86,15.13-1,35.05,2,21.52,3.09,32.28,9.74,38.94a16.65,16.65,0,0,0,1.64,1.4,125.19,125.19,0,0,0,12,6.39c8.94,4.16,15.9,6.05,29.83,9.82,8.94,2.43,11.62,2.83,14.89,2.8a45.63,45.63,0,0,0,14.67-2.89c5.23-1.73,9.06-3.79,16.55-7.78,3.12-1.68,5.21-2.93,6.83-3.9a66.5,66.5,0,0,0,6.36-4.13,52.33,52.33,0,0,0,5.32-4.63c3.68-3.66,9.63-9.58,11.67-18.5.62-2.74.42-7.34,0-16.55-.16-3.4-.36-7.82-1-13.63a147.93,147.93,0,0,0-3.89-23.36c-1.69-6.36-3.7-14-7.79-20.45-12.45-19.8-39.82-22.65-46.73-23.37C74,68.14,61.53,72.32,54.39,74.71Z"/><path class="cls-9" d="M144,144.66c1.55-2.49,2.91-3.29,3.94-3.65,2.88-1,6,.43,7.78,2.06,2.79,2.54,2.93,6.09,3,8a13.33,13.33,0,0,1-3.14,9.51,12.17,12.17,0,0,1-7.5,4c-1.57.19-3.16.38-4.55-.42C139.14,161.62,140,151.09,144,144.66Z"/><path class="cls-8" d="M137.72,117.83c1.08.51,3.63-1.43,4.65-3.72.63-1.41.6-2.78.93-2.79s.59,1,.93,2.79c.85,4.54.28,5.51.93,8.38.74,3.2,1.7,3.05,1.86,5.58.12,1.79-.31,2.59-.93,5.58,0,0-.31,1.52-.93,6.52-.71,5.73-.53,15.57.93,15.82s5.07-10.89,6.52-22.34c1-7.61,1.74-14.43-.93-22.33-1.71-5-2.5-3.13-8.38-14-4.58-8.44-5.49-12.06-10.23-16.75A33.31,33.31,0,0,0,125.62,75c-9.25-5-20.74-5-21.4-2.79-.92,3.12,20.23,8.61,28.85,23.26,2,3.45,4.39,7.47,4.65,13C137.94,113.42,136.42,117.23,137.72,117.83Z"/><path class="cls-8" d="M26.05,116c.53-.13,1,1.09,1.87.93a1.36,1.36,0,0,0,.93-.93c.27-1-.82-1.53-1.86-3.72-.62-1.28-.69-2-1-2s-.73,1.72-.93,2.79c-.85,4.54-.28,5.51-.93,8.37-.73,3.21-1.7,3-1.86,5.59-.12,1.79.31,2.59.93,5.58,0,0,.31,1.52.93,6.51.71,5.73.53,15.57-.93,15.82S18.14,144,16.69,132.56c-1-7.62-1.74-14.43.94-22.33,1.7-5,2.5-3.14,8.37-14,4.58-8.44,5.5-12.06,10.24-16.75a33.11,33.11,0,0,1,7.44-5.58c6.43-3.48,18-6.91,21.4-2.8,4.32,5.17-3.61,22.79-13,24.36-3.62.61-7.48-1.19-14,.93a9.85,9.85,0,0,0-4.65,2.79,9,9,0,0,0-1.92,8.22c.82,2.66,2.53,2.56,2.85,4.81.45,3.17-2.53,6.15-4.65,7.44-.93.57-2.66,1.63-3.73.93C24.62,119.7,25.22,116.18,26.05,116Z"/><path class="cls-13" d="M97,152.64a15.57,15.57,0,0,0-10.87-6.76c-8-.9-13.09,5.2-13.43,5.62"/><path class="cls-14" d="M98.54,172a18.41,18.41,0,0,1-4.35,2.9,19.43,19.43,0,0,1-12.69,1.39c-3.13-.79-5.72-2.42-8.7-4.29-.91-.57-1.66-1.08-2.17-1.45"/><path class="cls-15" d="M99.81,136.74a14.88,14.88,0,0,1,2.07-8.28,16.22,16.22,0,0,1,10.35-7.24,16.63,16.63,0,0,1,10.35,1,16.46,16.46,0,0,1,9.32,11.39,17.73,17.73,0,0,1,.2,4.39c-.07,1.19-.28,4.9-1.89,7.59-3.25,5.41-11.47,5.59-12.8,5.61-1.8,0-9.71-.08-14.49-6.21A15.23,15.23,0,0,1,99.81,136.74Z"/><path class="cls-16" d="M109.91,127.33a10.6,10.6,0,0,1,8.28-1,11.63,11.63,0,0,1,5.18,3.11,12.11,12.11,0,0,1,3.1,6.21,9.91,9.91,0,0,1-1,7.24c-2.23,3.5-6.3,4-7.25,4.14a11.17,11.17,0,0,1-6.21-1,11.5,11.5,0,0,1-5.17-5.18,10.53,10.53,0,0,1-1-8.28A9.81,9.81,0,0,1,109.91,127.33Z"/><path class="cls-15" d="M68.59,138a15.21,15.21,0,0,0-1.9-7.58,16.23,16.23,0,0,0-10.29-7.56,16.57,16.57,0,0,0-10.35,1,17,17,0,0,0-9.31,11.38,17.54,17.54,0,0,0-.38,5.57,15.5,15.5,0,0,0,1.89,6.63c3.33,5.32,11.38,5.39,13,5.4S61,153,65.71,146.7A15.3,15.3,0,0,0,68.59,138Z"/><path class="cls-16" d="M58.72,129a10.62,10.62,0,0,0-8.28-1,11.55,11.55,0,0,0-5.17,3.1,12.1,12.1,0,0,0-3.11,6.21,9.91,9.91,0,0,0,1,7.25c2.22,3.5,6.29,4,7.24,4.14a11,11,0,0,0,6.21-1,11.53,11.53,0,0,0,5.18-5.17,10.58,10.58,0,0,0,1-8.28A9.85,9.85,0,0,0,58.72,129Z"/><path d="M112.59,133.25a5.23,5.23,0,0,1,4.13-.52,5.77,5.77,0,0,1,2.58,1.55,6,6,0,0,1,1.54,3.09,4.44,4.44,0,0,1-4.12,5.68,5.51,5.51,0,0,1-3.1-.52A5.7,5.7,0,0,1,111,140a5.27,5.27,0,0,1-.51-4.13A4.87,4.87,0,0,1,112.59,133.25Z"/><path d="M56.06,135a5.25,5.25,0,0,0-4.13-.51A5.71,5.71,0,0,0,49.35,136a6.07,6.07,0,0,0-1.54,3.1,4.43,4.43,0,0,0,4.12,5.67,5.62,5.62,0,0,0,3.1-.51,5.75,5.75,0,0,0,2.58-2.58,5.28,5.28,0,0,0,.51-4.13A4.91,4.91,0,0,0,56.06,135Z"/><path class="cls-8" d="M85.61,47.11c4.48.81,8.33,2.9,15.82,7.45,8.9,5.4,11,8.23,12.1,10.23A22.42,22.42,0,0,1,116.32,75a22.16,22.16,0,0,1-2.79,12.1c-1.19,2.06-4.8,8.33-10.24,8.37-4.18,0-7.85-3.64-7.45-4.65s5.26.94,6.52-.93c1-1.45-.53-4.68-2.79-6.52-3.57-2.89-8.68-2.06-10.24-1.86C76.22,83.22,54.58,72.43,54,63.86,53.39,55.75,71.32,44.53,85.61,47.11Z"/><path d="M69.6,140.4c.47-.06.66-3.23-.06-6.16a15.3,15.3,0,0,0-2.85-5.69,19.6,19.6,0,0,0-6.63-5.69A15.3,15.3,0,0,0,51.52,121,16.62,16.62,0,0,0,43,124.76a23.3,23.3,0,0,0-1.89,1.9,27.6,27.6,0,0,0-2.85,3.79c-2.37,3.91-3.1,8.45-2.84,8.53s.67-3.2,2.84-6.64c.51-.8,6.68-10.31,16.12-9.48,5.85.52,9.61,4.72,10.43,5.69C69.21,133.77,68.92,140.5,69.6,140.4Z"/><path d="M99.69,138.62c-.47-.06-.66-3.23.06-6.16a15.3,15.3,0,0,1,2.85-5.69,19.39,19.39,0,0,1,6.63-5.68,15.2,15.2,0,0,1,8.54-1.9A16.62,16.62,0,0,1,126.3,123a25.15,25.15,0,0,1,1.89,1.9,27.6,27.6,0,0,1,2.85,3.79c2.37,3.91,3.1,8.45,2.84,8.53s-.67-3.19-2.84-6.63c-.51-.81-6.68-10.32-16.12-9.48-5.85.51-9.6,4.71-10.43,5.68C100.08,132,100.37,138.72,99.69,138.62Z"/><path class="cls-15" d="M110.94,134.71c1.85.19,3.88,1.18,3.79,1.9s-2.15,1.11-3.79.95c-1.86-.19-3.89-1.18-3.8-1.9S109.29,134.55,110.94,134.71Z"/><path class="cls-15" d="M47.55,135.84c1.85.18,3.88,1.18,3.79,1.89s-2.14,1.11-3.79,1c-1.85-.19-3.88-1.18-3.79-1.9S45.9,135.67,47.55,135.84Z"/><path class="cls-15" d="M121,138.89a1.67,1.67,0,0,1,1.92,1.6,1.54,1.54,0,0,1-1.33,1.34,1.65,1.65,0,0,1-1.76-1.72A1.52,1.52,0,0,1,121,138.89Z"/><path class="cls-15" d="M56.29,140.55a1.67,1.67,0,0,1,1.92,1.6,1.54,1.54,0,0,1-1.33,1.34,1.65,1.65,0,0,1-1.76-1.72A1.5,1.5,0,0,1,56.29,140.55Z"/><path class="cls-8" d="M71.3,106.22c2.31,2.27,2.81,6.71,1,8.56-.71.71-1.72,1-9,.14-6.17-.73-6.18-1-8.64-1.13-4.27-.18-7.5.57-11.48,1.5a62.07,62.07,0,0,0-10.57,3.14c-1.87.77-3.29,1.48-3.74,1-.63-.71,1.1-3.48,2.94-5.35a17.9,17.9,0,0,1,5.93-3.8,62,62,0,0,1,10.12-4,52.27,52.27,0,0,1,17.12-1.93C68.68,104.59,70.17,105.11,71.3,106.22Z"/><path class="cls-8" d="M95.21,106.29c-2.31,2.28-2.81,6.71-1,8.56.7.71,1.72,1,9,.15,6.17-.73,6.17-1,8.64-1.13,4.27-.19,7.49.56,11.48,1.49A63.34,63.34,0,0,1,134,118.5c1.87.77,3.29,1.48,3.73,1,.64-.71-1.1-3.48-2.93-5.36a17.85,17.85,0,0,0-5.94-3.8,62.87,62.87,0,0,0-10.12-4,52.25,52.25,0,0,0-17.12-1.92C97.83,104.66,96.34,105.18,95.21,106.29Z"/><path class="cls-15" d="M170.24,387.5a2.82,2.82,0,0,1-.36,2.18c-.44.5-1.06.41-1.76.32-.49-.07-.76-.1-1-.38a2.58,2.58,0,0,1-.09-2.35c.33-.82,1.16-1.69,2-1.41S170.21,387.34,170.24,387.5Z"/><path class="cls-17" d="M100.5,215.44a12.4,12.4,0,0,1-.93-2.28c-.37-1.2-.33-1.7-.59-1.8-.65-.25-1.21,2.38-3.14,4.08-2.2,1.95-4.32,1-4.65,2.28-.42,1.62,3.13,3.43,2.79,5.69-.21,1.41-1.74,1.26-2.79,3.41s-.53,4.48-.93,4.55-.57-4-2.79-5.69c-1.63-1.21-3.09-.08-3.72-1.13-1.08-1.82,2.8-5.85,1.86-8-1.2-2.7-8.74.89-10.24-2.28-.64-1.36.09-3.39,0-3.41s-.24,3.87-1.86,6.83c-1.81,3.29-4.14,2.06-5.58,4.55-1.76,3,.39,6.63.93,13.66.26,3.38,0,6.42-.93,12.52-1.72,11.86-4.94,14.27-11.17,34.09-2.14,6.83-3,10.44-4.65,17.68a63.89,63.89,0,0,0-1.86,11.16c-.3,4.73.27,5.49,0,9.91-.56,8.91-3,9.76-1.86,12.52,1.82,4.51,7.54,5.33,26.05,5.69,5,.1,6.48-.18,8.66-.14,1.29,0,1.62.12,3.07.22,4.06.3,6.08.45,6.88-.28,1-.95.41-2.45,0-7.44-.3-3.69-.4-8.33,0-8.38s1.47,3.45,1.86,7.45c.5,5.05-.51,7.3.93,8.57s3.44.49,5.59,0c3.27-.74,14.52-1.28,23.69-2a70.31,70.31,0,0,1,7.95-.24,10.6,10.6,0,0,0,6.51-2.28c3.76-3,3.25-9.59,2.79-13.33a104.3,104.3,0,0,0-10.23-33.5,264.86,264.86,0,0,1-19.55-46.5h0c-2.09-17.55-5-22.29-7.44-22.76-.9-.16-2.74.28-3.72-1.13h0A9.89,9.89,0,0,0,100.5,215.44Z"/><path class="cls-17" d="M99.3,223.28c.85-2.05,4.38-2.37,11.43-3,13.35-1.22,26.13-2.39,32.5,5.88,5.93,7.7,5.21,22.1-1.17,26C130.12,259.35,96,231.18,99.3,223.28Z"/><path class="cls-17" d="M73.08,218.86c-2-1-4.92,1-10.78,5.15-11.07,7.77-21.68,15.21-21.19,25.75.45,9.8,10.41,20.43,17.86,19.23C72.89,266.77,80.79,222.79,73.08,218.86Z"/><path class="cls-18" d="M81,223.91c-1.83.06-2.1-2.34-6.52-4.65-1.65-.86-2.49-1-2.79-1.86s.76-2.37,2.79-5.58c.32-.5.53-.83.93-.93,1.13-.29,1.93,1.68,3.73,2.79,2.81,1.73,5.35-.35,6.51.93C87.34,216.51,84.12,223.82,81,223.91Z"/><path class="cls-18" d="M94.64,223c2,.41,2.62-2,7.31-3.26,1.63-.43,2.78-.46,3.1-1.27s-.6-1.45-1.76-3.88-1-3.3-1.86-3.72c-1.2-.57-2.8.38-3.72.93-2,1.21-2.12,2.39-3.73,2.79s-2.2-.47-2.79,0C89.79,215.72,91.56,222.38,94.64,223Z"/><path class="cls-19" d="M92.7,323.63q-.09-3-.11-6.32c-.12-16.21,1.18-16.32.93-29.59-.3-16-2.34-23.73-1.86-35.29.14-3.41-.26-6.84,0-10.24.28-3.66.88-7.42-.93-10.25a6.72,6.72,0,0,0-.44-.6"/><ellipse class="cls-12" cx="93.52" cy="283.47" rx="1.4" ry="1.86"/><ellipse class="cls-12" cx="91.11" cy="231.53" rx="1.4" ry="1.86"/><ellipse class="cls-12" cx="93.52" cy="308.59" rx="1.4" ry="1.86"/><ellipse class="cls-12" cx="91.66" cy="257.41" rx="1.4" ry="1.86"/><path class="cls-20" d="M250.77,99.08l.28.29c3.94,4,9.53,5.95,12.23,5.85,9-.33,18-24.15,11.45-30.7-5.38-5.37-21.58.57-21.4,2.42.21,2.29,26.34,5.64,32.06-4,3.05-5.14.46-14.25-4.74-17.44-6-3.68-14.31-2.39-14.62-.76-.25,1.29,4.36,4.25,8.08,3.47,5.92-1.24,9.5-11.9,8.4-19.67C280.14,22,254.87,8.29,240.59,15c-7.22,3.38-13,12.59-10.94,16,1.38,2.3,6.93,2.67,9.12.31,4-4.34-1.33-19.83-11.31-26.66C210.94-6.74,180.72,5,178.2,17.84c-1.74,8.89,9.48,19.59,10.24,19.13.93-.57-6.56-22.36-19.32-24.56-9-1.55-16.7,7.31-17.63,8.39-7.73,9.13-9,24.61-1.1,32.49,6.45,6.46,18.08,6.87,18.91,4.8.93-2.32-9.86-12.16-19.63-10.18S134,63.57,136.18,74.56c2,10.25,11.32,19.47,19.46,18.91,8.58-.59,14.56-12,15.79-11,1.44,1.09-8.14,12.94-4.6,18.09,1.92,2.78,6.87,2.44,9,2.3,11.76-.76,33.24-.55,64.66.65"/><path class="cls-6" d="M162.22,336.75c-1,.92-2.92,3.3-1.33,21.17a226.07,226.07,0,0,0,4.64,29.77c8.44,37.84,12.8,56.88,19.18,62.86,1.34,1.25,8.13,7.36,6.62,10.58-.87,1.85-4,1.84-4,2.65.09,1.14,6.47,1.43,10.58,1.32,5.11-.13,6.12-.86,6.62-1.32,2.3-2.16,1.57-6.35,1.32-7.94-1.34-8.73,1.23-17.63,1.33-26.47.2-18.66,1.77-16,1.32-27.78-.4-10.55-1.6-11.23-2.65-26.47-1.09-15.84.14-16-1.32-19.85C198.27,338.77,170.59,329.07,162.22,336.75Z"/><path class="cls-6" d="M245.66,332.4c1,.62,3.65,2.67,5.34,20.53a209.31,209.31,0,0,1,.53,30.79c-2.22,51-.75,57.06-6.25,64.68-1.09,1.52-6.57,8.79-4.48,11.65,1.21,1.65,4.32,1,4.41,1.85.12,1.13-6.09,2.63-10.14,3.31-5,.85-6.17.33-6.75,0-2.67-1.68-2.75-5.94-2.81-7.55-.35-8.82-4.57-17.07-6.35-25.72-3.75-18.28-4.78-15.36-6.6-27-1.62-10.43-.57-11.32-2.45-26.48-1.94-15.76-3.19-15.69-2.48-19.74C210.65,341.26,236,326.46,245.66,332.4Z"/><path class="cls-21" d="M203.24,208.39c1.12,10,0,11.91,0,11.91-2.2,3.3-6.06,2.36-9.27,5.3-4.3,3.94-3.16,10.56-3.3,16.54-.12,5-3.61,13-10.59,29.11-6.46,14.88-10.85,22-14.55,35.73-.68,2.5-1.13,4.41-1.33,5.29-1.92,8.58-3.66,16.31-2.64,25.14.47,4.12,2.14,18.7,12.57,24.48a14.13,14.13,0,0,0,2.25,1.05c4.23,1.51,11,1.31,36.12-1.05,11.16-1.05,13-1.3,15.88-2.65,11.42-5.33,16-16.93,17.2-19.85,4.08-10.25,2.86-19.22,1.32-30.43-1-7.25-1.8-7.41-6.61-25.14C233.56,259,230.2,246.66,231,241.48c.71-4.41,2.67-12.22-1.32-15.88-2.31-2.12-5-1.38-6.61-4s.27-4.56,0-10.59c-.18-3.8-.33-7.18-2.65-9.26-3-2.7-8.39-2.08-11.91,0A12.56,12.56,0,0,0,203.24,208.39Z"/><path class="cls-7" d="M162,325.69c-1.13-.06-3.35,13.92-4.53,27.18-2,22-3.36,39.86,5.44,43,1.6.58,2.47.28,6.34,0,22.89-1.67,37.39,5.27,40.78.76.73-1,.49-3.42,0-8.31-.21-2.15-.39-2.56-.9-6-.1-.67-1.31-9-.91-9.06s1.86,4.88,2.72,10.57c1.37,9-.36,11,1.81,12.84,3.64,3,10.19-1.08,23.57-1.51,14.31-.47,17.27,3.92,21.75,1.51,6.68-3.6,3.33-18.81-3.63-49.08-.45-2-5-21.36-7.25-21.13-.74.07-.43,2.11-1.81,3.77-3.79,4.57-16.59,1.88-24.47.76-31.25-4.47-53.69,5.87-58-1.51C161.89,327.66,162.46,325.71,162,325.69Z"/><path class="cls-6" d="M227.07,230.3c-.41.45.76,1.75,2.41,4.89,4.07,7.78,3.92,13.27,5.18,17.84,1.42,5.16,6.31,9.51,16.09,18.2,13.05,11.6,19.58,17.41,28.56,19.58,4.34,1.05,9.48,1.48,12,5.54,1.72,2.75.9,5,3.52,10.07,1.87,3.62,2.46,2.79,4,5.91,2.51,5.19,1.1,8,4.07,12.66,1.05,1.66,2.21,3.48,3.43,3.33,2.46-.3,4.28-8.53,3.41-15.62-1.24-10.15-7.87-16.87-9.34-18.3-3.15-3-4.06-2.58-8.14-6.37A52.12,52.12,0,0,1,283,276.48c-3.83-6.14-10.53-11.85-23.94-23.28C247.12,243,228.58,228.64,227.07,230.3Z"/><path class="cls-6" d="M290.32,297.47c-.74.15-1.11,1-1.68,2.44-1,2.5-1.81,4.47-.92,6.55.48,1.15,1.75,3,3.07,2.84,2.09-.22,4.16-5.39,2.61-9C292.81,299,291.46,297.26,290.32,297.47Z"/><path class="cls-6" d="M271.19,154.84c2.38-1.59,3.91-1.76,5-1.66,3,.27,5.15,2.81,6.08,5,1.45,3.38.14,6.59-.55,8.29a13.07,13.07,0,0,1-6.63,7.18,12,12,0,0,1-8.29.55c-1.47-.47-2.95-.94-3.86-2.21C260,167.93,265.05,158.93,271.19,154.84Z"/><path class="cls-6" d="M243.74,87.37A43.69,43.69,0,0,1,257,94a44.81,44.81,0,0,1,11.39,13.29,58.94,58.94,0,0,1,7.59,19,99.26,99.26,0,0,1,1,34.18c-1.25,6.64-3.24,16.68-10.34,26.39a61.25,61.25,0,0,1-8.16,9,59.82,59.82,0,0,1-13.07,9,62.41,62.41,0,0,1-13.88,4.9,86.8,86.8,0,0,1-17.15,2.45c-1.92.09-3.71.17-5.82.12,0,0-1.19,0-2.35-.12-10-.68-21.23-5.71-21.24-5.71a75.42,75.42,0,0,1-13.88-8.17,58.06,58.06,0,0,1-11.43-10.62,37.93,37.93,0,0,1-7.35-13.06c-1.45-4.68-1.52-8.45-1.59-13.2a108.18,108.18,0,0,1,.95-13.29,145.18,145.18,0,0,1,3.79-22.78c1.65-6.2,3.61-13.6,7.6-19.94,12.14-19.3,38.83-22.08,45.57-22.78C224.62,81,236.78,85,243.74,87.37Z"/><path class="cls-6" d="M171.35,157.57c-1.51-2.43-2.83-3.21-3.84-3.56-2.81-1-5.85.42-7.59,2-2.71,2.48-2.85,5.94-2.92,7.77a13,13,0,0,0,3.06,9.28,11.88,11.88,0,0,0,7.31,3.93c1.54.19,3.08.37,4.44-.41C176.1,174.11,175.24,163.84,171.35,157.57Z"/><path class="cls-5" d="M153.87,74.64c-1.35,5.32.76,13.24,4.27,14.23s6.68-5.78,13.51-11.38c10.77-8.83,23.94-9,39.13-9.25,8.44-.12,22.05-.33,37,6.4,11.62,5.24,18.12,12,20.63,10s-.64-11.85-5-17.78C242.5,38.19,159.8,51.27,153.87,74.64Z"/><path class="cls-22" d="M202.93,166.44c-1.13-1.89,3.51-9,9.87-9.68,6.76-.73,13,6,12.18,8.05-.43,1.07-2.68.35-9.8.81C206.46,166.19,203.66,167.66,202.93,166.44Z"/><path class="cls-15" d="M199.45,147.85a14.41,14.41,0,0,0-2-8.07,15.77,15.77,0,0,0-10.09-7.06,16,16,0,0,0-19.18,12.11,17.85,17.85,0,0,0-.2,4.28c.13,2.15.28,5.37,1.85,7.39,1.78,2.29,4.86,2.43,10.25,2.59,8.31.24,13.09.38,16.36-3.16A13,13,0,0,0,199.45,147.85Z"/><path class="cls-23" d="M189.6,138.67a10.35,10.35,0,0,0-8.07-1,11.4,11.4,0,0,0-5.05,3,11.76,11.76,0,0,0-3,6.06,9.61,9.61,0,0,0,1,7.06c2.17,3.42,6.14,3.92,7.07,4a10.83,10.83,0,0,0,6.05-1,11.18,11.18,0,0,0,5-5.05,10.28,10.28,0,0,0,1-8.07A9.65,9.65,0,0,0,189.6,138.67Z"/><path class="cls-15" d="M229.9,149.11a14.82,14.82,0,0,1,1.85-7.4,15.81,15.81,0,0,1,10-7.36,16.09,16.09,0,0,1,10.1,1,16.66,16.66,0,0,1,9.08,11.1,17.37,17.37,0,0,1,.37,5.42c-.16,1.85-.38,4.61-1.85,6.47-2,2.57-5.67,2.53-12.45,2.37-7.8-.18-11.7-.28-14.33-3.16S229.92,150.4,229.9,149.11Z"/><path class="cls-23" d="M239.52,140.31a10.26,10.26,0,0,1,8.07-1,11.2,11.2,0,0,1,5,3,11.7,11.7,0,0,1,3,6,9.7,9.7,0,0,1-1,7.07c-2.17,3.41-6.14,3.91-7.07,4a10.74,10.74,0,0,1-6.05-1,11.18,11.18,0,0,1-5-5,10.35,10.35,0,0,1-1-8.08A9.57,9.57,0,0,1,239.52,140.31Z"/><path d="M187,144.44a5.15,5.15,0,0,0-4-.5,5.61,5.61,0,0,0-2.52,1.51,5.87,5.87,0,0,0-1.51,3,4.34,4.34,0,0,0,4,5.53,5.47,5.47,0,0,0,3-.5A5.62,5.62,0,0,0,188.5,151a5.11,5.11,0,0,0,.5-4A4.76,4.76,0,0,0,187,144.44Z"/><path d="M242.11,146.13a5.15,5.15,0,0,1,4-.51,5.65,5.65,0,0,1,2.51,1.51,5.84,5.84,0,0,1,1.51,3,4.33,4.33,0,0,1-4,5.53,5.38,5.38,0,0,1-3-.5,5.64,5.64,0,0,1-2.52-2.51,5.22,5.22,0,0,1-.5-4A4.81,4.81,0,0,1,242.11,146.13Z"/><path d="M199.57,149.69c.56-.11.61-3.27-.06-6a14.93,14.93,0,0,0-2.78-5.55,18.79,18.79,0,0,0-6.47-5.54,14.8,14.8,0,0,0-8.32-1.85,16.36,16.36,0,0,0-8.32,3.69c-2.76,2.08-3.44,3.69-6.62,5.06a8,8,0,0,1-4.09.82c-2.39-.28-3.89-1.87-4.08-1.64s.82,1.66,2.45,2.45,3.24.54,3.27.82-1.14.71-2.45.82c-3.29.27-5.59-1.83-5.72-1.64-.33.48,7.27,8.47,11.43,6.54,1.76-.82,1.26-2.64,3.27-5.72.25-.38,4.73-7,12.25-7.35A15.22,15.22,0,0,1,194,138.67C198.71,143.22,198.76,149.84,199.57,149.69Z"/><path class="cls-15" d="M178.83,150a1.62,1.62,0,0,0-1.87,1.56,1.48,1.48,0,0,0,1.3,1.3,1.6,1.6,0,0,0,1.71-1.68A1.45,1.45,0,0,0,178.83,150Z"/><path class="cls-15" d="M241.89,151.57a1.61,1.61,0,0,0-1.87,1.56,1.48,1.48,0,0,0,1.3,1.3,1.6,1.6,0,0,0,1.71-1.68A1.44,1.44,0,0,0,241.89,151.57Z"/><path d="M229.33,151.22c-.56-.1-.61-3.27.07-6a14.88,14.88,0,0,1,2.77-5.54,18.75,18.75,0,0,1,6.47-5.55,14.91,14.91,0,0,1,8.32-1.85c2.38.22,4.36,1.4,8.32,3.7a62.17,62.17,0,0,0,8.09,4.34,8.85,8.85,0,0,0,4.08.81,16.44,16.44,0,0,0,3.27-.81c.1.2-2,2.05-4.9,2.45-1.89.26-3.21-.23-3.27,0s1.92,1.41,4.25,1.53c3.37.17,5.55-1.87,5.72-1.63.33.47-7.27,8.46-11.43,6.53-1.76-.81-1.26-2.63-3.27-5.72-.25-.38-4.72-7-12.25-7.35A15.28,15.28,0,0,0,235,140.21C230.19,144.75,230.14,151.38,229.33,151.22Z"/><path class="cls-15" d="M249.85,144.87a2.94,2.94,0,0,0-3.39,2.83,2.69,2.69,0,0,0,2.35,2.35,2.91,2.91,0,0,0,3.11-3A2.64,2.64,0,0,0,249.85,144.87Z"/><path class="cls-15" d="M189,143.62a2.93,2.93,0,0,0-3.38,2.82A2.71,2.71,0,0,0,188,148.8a2.9,2.9,0,0,0,3.1-3A2.61,2.61,0,0,0,189,143.62Z"/><path class="cls-24" d="M192.67,86.77c1.58-.34,2.4,4.89,7.15,7.15,3.31,1.57,8.2,1.53,10.71-.9,1.63-1.57,1.67-3.55,2.68-3.57,1.19,0,1.42,2.66,3.58,5.36.56.71,3.54,4.44,7.14,4.46,3.86,0,4.85-4.25,9.82-4.46a7.58,7.58,0,0,1,3.57.89c4.1,2.2,6.28,8.5,4,12.75-1.63,3-5.61,5.19-7.35,4.09-1.26-.8-1.29-3.25-.82-4.9.94-3.31,4.25-4.64,4.08-4.9s-7.22,1-9,6.53a8.32,8.32,0,0,0,1.63,8.17c3.29,3.38,8.47,1.8,9,1.63,3-1,4.67-3.22,6.53-5.72,3.56-4.78,4.26-8.91,5.32-8.72.73.13.67,2.08,1.79,6.25.88,3.29,1.33,5,2.68,6.25,3.09,2.91,7.82.58,8.93,2.68.61,1.18-.7,2.25-2.68,7.15-1.65,4.07-2.51,6.09-1.79,7.14,1.9,2.8,11.59-2.28,13.52.49,1.52,2.19-3.51,6.85-1.64,9.8,1.29,2,4.42,1,5.72,3.27.71,1.25.37,2.61-.63,6.09-1.94,6.73-1.92,7.82-2.68,8.93a13.2,13.2,0,0,1-4,3.76,12.26,12.26,0,0,0,.66,7.83l.16.34c1.6,3.27,6.53,6.65,10.61,4.9a7,7,0,0,0,4.09-5.72c.33-3.85-2.78-6.75-3.27-6.53-.19.08.06.64,0,1.63-.15,2.55-2.22,5.15-3.27,4.9s-1.73-3.3-.81-5.72c1.05-2.79,3.76-3.41,7.35-5.71a35.47,35.47,0,0,0,8.17-7.72c2.81-3.8,2.55-11.25.89-25.9-3-26.61-1.15-23.93-2.68-28.57-6.28-19.09-25.9-28.44-39.29-34.83-9.59-4.57-28.29-13.18-52.69-9.82A76.73,76.73,0,0,0,162.31,70.7c-18.26,14.13-24,32.31-26.79,41.08-2,6.2-8.24,26-.89,33.93a36.14,36.14,0,0,1,5.36,7.14c4.09,3.48,7.26,3.19,9,6.24,1.18,2,.67,3.61,0,9-1.31,10.57-2,15.85,0,18.79,2.72,4,7,2.75,9,7.35,1.15,2.63,1.35,6.71-.81,8.16a3.78,3.78,0,0,1-4.09,0c-2.55-1.83-1-7.25-1.63-7.35s-3,4.24-1.63,8.17c1.71,4.88,8.84,7.75,12.25,5.72,4.1-2.46,3.75-12.61-.82-18-3.48-4.08-7.28-2.9-9-6.53-2.06-4.41,3.22-6.83,3.26-15.52a63.27,63.27,0,0,0-2.18-15.14c-.52-1.94-1.26-4.44,0-6.25s3.44-.91,5.36-2.68,1.94-5.17,1.79-9.83c-.2-5.92-1.53-8.06,0-9.82,1.17-1.35,2.63-.87,5.35-1.79,3.28-1.09,5.19-3.13,8-6.25,15.54-17,16.43-19,17-21.43C191.93,91.1,191.29,87.07,192.67,86.77Z"/><path class="cls-22" d="M207,187.53c0-2.42,2.56-4.06,3.17-4.44a8.24,8.24,0,0,1,7-.63c1.86.75,4.52,2.7,4.44,5.07-.1,3.13-4.95,5.77-8.88,5.07C210.21,192.16,207.05,190.18,207,187.53Z"/><path class="cls-14" d="M200.69,182.28a18.12,18.12,0,0,0,4.24,2.82,19.09,19.09,0,0,0,12.38,1.36c3.05-.78,5.58-2.36,8.48-4.18.89-.56,1.62-1.06,2.12-1.42"/><path class="cls-7" d="M134.41,263a2.44,2.44,0,0,0-.59,1.84c.15.57.66.75,1.24,1,.41.14.65.22.93.1a2.25,2.25,0,0,0,1-1.8c.07-.78-.23-1.78-1-1.92S134.5,262.89,134.41,263Z"/><path class="cls-5" d="M202.12,217.07c2.93.26,5.17.72,5.68.79,2.31.33,4.76.66,6.57.85,0,0,5.78.59,8.18-.55a3.82,3.82,0,0,1,.8-.27,5.17,5.17,0,0,1,1.63,0c2,.41,3.27,4.08,3.27,4.08,6.24,26.07,9.13,40.12,10.62,48.19.38,2.1,1.36,7.53,3.26,14.7,2.93,11,4.5,10.82,5.7,17.85,1.42,8.28.06,12.15,3.29,14.81,2.93,2.43,5.6.52,8.16,3.27,3.06,3.28,2.15,9.11.82,12.25a6.79,6.79,0,0,1-2.45,3.27,5.72,5.72,0,0,1-5.51.54c-2.87-1.54-2.63-6.28-3.47-6.26-1.1,0-.06,7.93-4.09,10.62a7.46,7.46,0,0,1-7.35,0c-4.15-2.33-4-8.19-5.71-8.17s-1.22,5.58-4.9,8.17c-3.52,2.47-9.74,1.49-13.07-1.64-2.92-2.73-3.13-6.66-4.08-6.53s.13,5-2.45,8.17c-3.26,4-11.44,4-14.7.81-2.95-2.87.42-10.17-.82-10.61s-2.71,6-8.17,9c-5.27,2.85-12.31,1.47-13.07-.82-.58-1.77,2.61-4.15,1.64-5.71-.09-.14-.43-.64-1.64-.82-4.84-.72-8.36,6.09-13.06,5.72-3.06-.25-5.78-3.37-6.54-6.54a8.3,8.3,0,0,1,1.64-7.35c2-2.19,3.93-1,6.53-3.26,2-1.74,2.71-4.05,3.56-6.75.71-2.23.49-2.72,1.34-6.32.57-2.39,1.12-4.1,1.63-5.72,2.29-7.09,5.08-12.54,8-20.11,1.55-4.06,2.5-7.08,3.46-10.1,1.09-3.42,6.89-25.44,9-31.85,3.16-9.69,1.59-3,9.8-19.6.46-.92,1.72-3.49,4.09-4.09A7.18,7.18,0,0,1,202.12,217.07Z"/><path class="cls-5" d="M206.1,226.74a14.52,14.52,0,0,0-6.9-4.44,20.23,20.23,0,0,0-12.78-.12c-2.25.67-8.95,2.63-9.92,6.85a15.87,15.87,0,0,1-.76,3.28c-1,2.65-3,4.91-3.33,4.72s.2-2,1.12-2.18a1.6,1.6,0,0,1,1.45.74c.75,1-.31,2.22.34,2.93.82.89,2.71-.1,3.28.76.26.4-.09.68,0,1.82a3.22,3.22,0,0,0,.71,2.2c1,.81,2.57-.69,3.66,0,.89.61.29,1.95,1.06,3.3.92,1.62,3.08,2,4.36,2.23,13.66,2.43,18.69-6,18.69-6A14.62,14.62,0,0,0,206.1,226.74Z"/><path class="cls-5" d="M229.23,222.37a14.48,14.48,0,0,1,8.21.2,20.25,20.25,0,0,1,10.64,7.09c1.48,1.82,5.93,7.2,4.36,11.24a15.94,15.94,0,0,0-1.22,3.14c-.64,2.77-.26,5.75.11,5.77a2.11,2.11,0,0,0,.3-2.43,1.59,1.59,0,0,0-1.62-.2c-1.21.44-1,2-1.92,2.23-1.19.28-2.19-1.61-3.15-1.22-.44.19-.3.63-1,1.52-.41.53-1.06,1.36-1.82,1.42-1.28.11-1.73-2-3-2-1.08,0-1.34,1.44-2.73,2.13-1.67.82-3.68-.08-4.87-.61-12.66-5.66-12.06-15.49-12.06-15.49A14.62,14.62,0,0,1,229.23,222.37Z"/><path class="cls-5" d="M207,465.34c-2.86,3.49-9.23,2.33-13.07,1.64-4.4-.8-9.13-2.67-9-4.09.08-.67,1.25-1,2.43-1.42a.38.38,0,0,0,0,.3,2.79,2.79,0,0,1,.38-.41,5.42,5.42,0,0,0,1.57-.83h0a1.7,1.7,0,0,0,.34-.37,1.12,1.12,0,0,0,.21-.47.11.11,0,0,0,0-.05,1.53,1.53,0,0,0,0-.3c-.06-1.51-2.73-2.55-2.46-3.79.4-1.88,6.64-.09,13.88-3.26,3.07-1.35,5.65-3.29,6.53-2.45.4.38.12,1,0,2.45-.25,3,.69,4.06.82,6.53C208.69,459.54,208.88,463.08,207,465.34Z"/><path class="cls-25" d="M194.83,460.44a5.5,5.5,0,0,0-1.62-.92,3.84,3.84,0,0,0-2.54-.24,3.48,3.48,0,0,0-.82.4.11.11,0,0,0,0-.05,1.53,1.53,0,0,0,0-.3,3.34,3.34,0,0,1,.62-.33C192.49,458.22,195,460.05,194.83,460.44Z"/><path class="cls-5" d="M187.72,461.36a2.79,2.79,0,0,0-.38.41.38.38,0,0,1,0-.3Z"/><path class="cls-25" d="M193.12,461.77a5.48,5.48,0,0,0-1.62-.93,4.12,4.12,0,0,0-2.2-.32,1.7,1.7,0,0,0,.34-.37C191.42,460,193.22,461.43,193.12,461.77Z"/><path class="cls-5" d="M227.37,466.19c3.49,2.85,9.5.44,13.13-1,4.14-1.66,8.42-4.42,8-5.79-.21-.65-1.42-.74-2.66-.91a.36.36,0,0,1,.11.28,3.77,3.77,0,0,0-.45-.33,5.63,5.63,0,0,1-1.71-.49h0a1.55,1.55,0,0,1-.41-.3,1.12,1.12,0,0,1-.3-.41.14.14,0,0,1,0-.06,1,1,0,0,1-.08-.28c-.23-1.49,2.18-3,1.67-4.2-.78-1.77-6.54,1.22-14.26-.45-3.28-.71-6.19-2.1-6.89-1.1-.31.46.08,1,.49,2.4.85,2.93.13,4.12.5,6.57C224.57,460.83,225.09,464.34,227.37,466.19Z"/><path class="cls-25" d="M238.33,459a5.42,5.42,0,0,1,1.4-1.22,3.84,3.84,0,0,1,2.46-.74,2.85,2.85,0,0,1,.87.23.14.14,0,0,1,0-.06,1,1,0,0,1-.08-.28,3,3,0,0,0-.67-.2C240.18,456.32,238.14,458.6,238.33,459Z"/><path class="cls-25" d="M240.28,459.92a5.83,5.83,0,0,1,1.4-1.23,4,4,0,0,1,2.09-.75,1.55,1.55,0,0,1-.41-.3C241.6,457.88,240.11,459.61,240.28,459.92Z"/><path class="cls-24" d="M194,125.6c0,1.47-4.68,3-8.58,3.27-3.75.3-4.88-.63-8.57-.82-7.44-.36-12,3-12.25,2.45-.39-.82,9.39-9.24,20.82-8.16C189.2,122.7,194,124.16,194,125.6Z"/><path class="cls-24" d="M233.63,126c0,1.47,4.68,3,8.58,3.27,3.75.3,4.88-.64,8.57-.82,7.44-.36,12,3,12.25,2.45.4-.82-9.38-9.24-20.82-8.17C238.38,123.06,233.62,124.53,233.63,126Z"/><path class="cls-7" d="M134.9,266.36a2.48,2.48,0,0,0-.59,1.85c.15.57.66.75,1.25,1,.4.14.64.22.92.1a2.25,2.25,0,0,0,1-1.8c.08-.78-.23-1.79-1-1.92S135,266.26,134.9,266.36Z"/><path class="cls-7" d="M133.27,260a2.53,2.53,0,0,0-.59,1.85c.15.57.66.75,1.25.95.41.15.64.23.93.11a2.26,2.26,0,0,0,1-1.8c.07-.78-.23-1.79-1-1.92S133.36,259.9,133.27,260Z"/><path class="cls-3" d="M284.56,334.2c-1,.91-2.89,3.27-1.31,21a225.26,225.26,0,0,0,4.59,29.5c8.37,37.48,12.68,56.35,19,62.27,1.33,1.25,8,7.3,6.55,10.49-.85,1.83-4,1.82-3.93,2.62.09,1.13,6.42,1.42,10.49,1.31,5.05-.13,6.06-.84,6.55-1.31,2.28-2.13,1.56-6.29,1.31-7.86-1.33-8.65,1.22-17.47,1.32-26.23.19-18.49,1.75-15.83,1.31-27.53-.4-10.45-1.58-11.12-2.63-26.22-1.08-15.69.14-15.86-1.31-19.66C320.28,336.2,292.85,326.59,284.56,334.2Z"/><path class="cls-3" d="M367.24,329.89c1,.62,3.61,2.65,5.28,20.35a207.15,207.15,0,0,1,.54,30.5c-2.21,50.49-.75,56.53-6.2,64.09-1.08,1.5-6.51,8.7-4.43,11.54,1.19,1.64,4.27,1,4.36,1.83.12,1.13-6,2.61-10.05,3.29-5,.83-6.11.32-6.68,0-2.65-1.66-2.73-5.88-2.79-7.47-.34-8.75-4.53-16.92-6.29-25.49-3.72-18.12-4.74-15.22-6.54-26.78-1.6-10.34-.56-11.22-2.42-26.24-1.93-15.61-3.16-15.55-2.47-19.56C332.55,338.68,357.64,324,367.24,329.89Z"/><path class="cls-26" d="M325.2,207c1.12,9.89,0,11.8,0,11.8-2.17,3.26-6,2.33-9.17,5.24-4.27,3.9-3.14,10.47-3.28,16.39-.12,4.95-3.58,12.91-10.49,28.84-6.4,14.75-10.76,21.76-14.42,35.4-.67,2.49-1.12,4.38-1.31,5.25-1.91,8.5-3.63,16.15-2.63,24.91.47,4.08,2.13,18.52,12.46,24.25a14.29,14.29,0,0,0,2.23,1c4.19,1.5,10.85,1.3,35.79-1,11.06-1,12.88-1.29,15.73-2.62,11.32-5.29,15.9-16.78,17.05-19.67,4-10.16,2.83-19.05,1.31-30.15-1-7.19-1.79-7.34-6.56-24.91-6.66-24.55-10-36.82-9.17-42,.69-4.36,2.64-12.1-1.32-15.73-2.28-2.1-4.95-1.36-6.55-3.93s.27-4.52,0-10.49c-.17-3.77-.32-7.11-2.62-9.18-3-2.68-8.32-2.06-11.8,0A12.49,12.49,0,0,0,325.2,207Z"/><path class="cls-3" d="M348.91,222.87c-.49.35.37,1.86,1.31,5.24,2.33,8.38,1,13.67,1.31,18.36.31,5.29,4.14,10.52,11.8,21,10.24,14,15.35,20.94,23.6,24.91,4,1.92,8.88,3.41,10.49,7.87,1.09,3-.17,5.06,1.31,10.49,1.06,3.89,1.81,3.21,2.62,6.55,1.35,5.55-.59,7.95,1.31,13.11.67,1.82,1.41,3.83,2.63,3.94,2.44.21,5.92-7.38,6.55-14.42.91-10.1-4.11-18-5.24-19.67-2.42-3.61-3.39-3.35-6.56-7.87a51.43,51.43,0,0,1-6.55-13.11c-2.44-6.74-7.75-13.67-18.36-27.53C365.68,239.37,350.72,221.57,348.91,222.87Z"/><path class="cls-3" d="M399.18,307c-.74,0-1.29.77-2.13,2-1.5,2.22-2.68,4-2.26,6.16.23,1.21,1.08,3.25,2.39,3.39,2.07.22,5.14-4.36,4.39-8.17C401.28,309,400.33,307.07,399.18,307Z"/><path class="cls-3" d="M373.64,72.14a49.86,49.86,0,0,1,16.18,21.57c1.05,2.82,2.86,8.16,1.35,32.37-1.66,26.56-3.28,61.65-8.09,67.42-2.52,3-8,5.16-18.88,9.44,0,0-13.7,5.38-22.93,5.4h-9.44c-4,0-11.47-1.49-18.88-4.05a92.43,92.43,0,0,1-14.83-6.74c-5.92-3.34-8.79-5.17-10.79-8.09-2.77-4.07-3.62-33.35-4-40.46-1-16.7-1.47-17.18-1.35-22.92,0-2.22.28-14.09,2.7-22.93,4.8-17.58,22.3-38.12,47.19-41.8C334.78,60.91,355.77,58.15,373.64,72.14Z"/><path class="cls-27" d="M301.39,148.51a8.64,8.64,0,0,0,2.81,2.41c2.45,1.47,4.79,1.55,7.62,1.61a16.37,16.37,0,0,0,6.82-.8,10.52,10.52,0,0,0,5.21-3.63c2.27-3.17,1.61-7,1.21-9.26a13.77,13.77,0,0,0-3.61-7.65,10.62,10.62,0,0,0-4.42-2.82,11.28,11.28,0,0,0-8,.81,14.82,14.82,0,0,0-7.22,7.25C301.34,137.36,298.21,144.07,301.39,148.51Z"/><path class="cls-27" d="M374.3,148.37a8.69,8.69,0,0,1-2.76,2.43c-2.43,1.49-4.77,1.61-7.6,1.72a16.56,16.56,0,0,1-6.83-.67,10.63,10.63,0,0,1-5.28-3.48c-2.31-3.1-1.72-6.86-1.36-9.12a13.52,13.52,0,0,1,3.48-7.61,10.5,10.5,0,0,1,4.36-2.85,11.44,11.44,0,0,1,8,.65,14.76,14.76,0,0,1,7.34,7C374.16,137.38,377.41,143.94,374.3,148.37Z"/><path class="cls-28" d="M329.14,154.58a10.2,10.2,0,0,1,6.55-5.24c5.13-1.2,8.92,2.37,9.18,2.62"/><path class="cls-14" d="M323.89,176.85a17.29,17.29,0,0,0,4,2.68,18,18,0,0,0,11.71,1.27c2.9-.73,5.29-2.23,8-4,.84-.53,1.53-1,2-1.34"/><path class="cls-29" d="M391.32,71.09c-.74-.79.91-2.45,1.37-6.41a18.57,18.57,0,0,0-1.37-9.13c-2.37-5.88-8-10.92-9.89-9.89-.74.4-.8,1.67,0,8.48,1.34,11.37,2.36,15.1,1.41,15.54-1.47.68-4.69-8-12.71-14.13-2.62-2-7.8-5.31-19.78-7.06-22.62-3.31-42.46,2.88-46.63,4.24-18.05,5.87-25.65,13.37-38.15,9.89-5.25-1.47-8.73-4.13-9.89-2.83-2.06,2.31,4.58,15.6,15.54,19.78,3.81,1.46,6.63,1.23,7.07,2.83.81,2.94-11.05,4.64-15.55,12.71-3.08,5.54.51,8.45,1.32,21.23,1,15.31-5.09,19.75,0,33,4.49,11.68,16.56,18.2,18,17,.83-.69-1.75-4-4-12a65.59,65.59,0,0,1-2-10c.33-2.67.67-5.34,1-8a32.36,32.36,0,0,1,0-7c.33-3,1.28-4.87,1-5-.43-.2-3.23,3.86-5,8-5.78,13.5,2.62,20.3-3,29-2.59,4-5.88,5.91-10,13.2a17.91,17.91,0,0,0-1.59,3.94,27.79,27.79,0,0,0,1.41,18.37c4.06,8.87,13.47,14.3,15.54,12.71,1.1-.84-.37-3.24-1.41-11.3-.34-2.64-1.41-10.89,0-11.3,1.15-.34,2.2,5.06,7.06,9.89a26.11,26.11,0,0,0,15.55,7.06c7.45.69,15.54-2,15.54-4.24s-8.55-1-15.54-7.06c-5.31-4.58-6.92-12-10.13-26.88-1.8-8.3-2.69-12.44-2.63-17A50.78,50.78,0,0,1,292.42,122s2.88-5.68,24-29.67l5.65-8.48c.88.3-.76,5.32-1.41,14.13-.69,9.24.35,13.87,1.41,17,.65,1.89,2.48,7.22,4.24,7.06,3.53-.32,4.17-22.66,5.65-22.61.95,0,.08,9.3,5.65,18.37.85,1.38,3.81,6.21,5.65,5.65,2.4-.72-1.95-10.86,1.42-22.6,2.88-10.06,10.13-17,11.31-16.33.66.34-.82,2.85,0,6.56A13.62,13.62,0,0,0,360,97.55c9.42,9.69,16.48,10.57,21.48,18.76,2.28,3.73,3.41,7.71,4.74,7.46,1.86-.34,1.83-7.88,2.62-7.86.63,0,1.11,4.78,1.31,9.17a91.8,91.8,0,0,1,0,10.49c-.9,9.55-7.55,13.25-17.15,30.19-5.91,10.44-5.76,12.59-5.14,13.08s1.54-.13,9.18-3.94c3.5-1.73,5.26-2.59,5.85-2.07.84.73-.15,3.14-1.92,7.32A40.42,40.42,0,0,1,377,188a29.6,29.6,0,0,1-7.15,7.57c-1.35,1-1.35.83-7.7,4-2.49,1.25-5.8,3-10.38,5.7-4.86,2.86-5.8,3.62-5.65,4.24.52,2.15,13.78,1.77,25.43-1.41,6.12-1.67,20.79-5.67,31.09-18.37,6.77-8.35,8.06-16,9.89-15.54s2.62,9.77-1.42,16.95c-2.58,4.59-6.05,6.5-5.65,7.07.62.88,9.29-3,17-9.89,4.57-4.09,8.27-7.39,9.89-12.72,1.79-5.88-.47-9.26-2.83-19.78-3.21-14.34-3.41-27.76-1.41-28.26,1.23-.31,2.46,4.47,8.48,9.89.73.66,5.79,5.22,7.06,4.24s-2.4-6.44-5.65-15.54a102.38,102.38,0,0,1-4.24-17c-2.92-15.41-1.13-19.47-5.65-25.43-1.12-1.48-4.46-5.88-9.89-7.06-4.31-.94-8.35.49-8.48,0-.2-.77,9.72-2.54,9.89-5.66.12-2.25-4.85-5.22-9.89-5.65C400.32,64.64,392.93,72.8,391.32,71.09Z"/><path class="cls-30" d="M318.55,137.69a15.34,15.34,0,0,1,0,5.64,4.87,4.87,0,0,1-1.21,2.82c-1.37,1.25-3.74,1.08-5.24.4-3.31-1.47-4.26-6.16-4-9.27.29-4,2.76-8.52,5.24-8.46,1.13,0,2,1,2.82,2C317.79,132.79,318.12,134.92,318.55,137.69Z"/><path d="M325.62,145.47a18.35,18.35,0,0,0-.41-6.85,19.62,19.62,0,0,0-2.82-6.85c-1.31-2-3.18-4.76-6.85-6.05a12.67,12.67,0,0,0-8.87.4,14.5,14.5,0,0,0-6.85,6c-.38.65-1.39,2.52-2.42,4.84-.95,2.14-1.1,2.85-2,3.63a6,6,0,0,1-4.43,1.2,7.73,7.73,0,0,1-2.82-1.2c-.13.17,3,3.3,7.86,5.44.44.19,5.29,2.31,6.05,1.21.12-.19,0-.34,0-1.21,0-.41,0-1.22,0-2.82a31,31,0,0,1,.2-3.43,13.47,13.47,0,0,1,7.86-10.28,9.54,9.54,0,0,1,4.83-1.21,8.92,8.92,0,0,1,4.44,1.61,12.86,12.86,0,0,1,4.43,5.24A20.65,20.65,0,0,1,325.62,145.47Z"/><path class="cls-30" d="M358.43,137.86a15.33,15.33,0,0,0,0,5.64,4.75,4.75,0,0,0,1.21,2.82c1.36,1.25,3.73,1.08,5.24.41,3.3-1.48,4.26-6.17,4-9.28-.29-4-2.76-8.52-5.24-8.46-1.14,0-2,1-2.82,2C359.19,133,358.86,135.09,358.43,137.86Z"/><path d="M350,145.64a18.21,18.21,0,0,1,.4-6.85,19.62,19.62,0,0,1,2.82-6.85c1.31-2,3.19-4.76,6.85-6a12.58,12.58,0,0,1,8.87.41,14.59,14.59,0,0,1,6.86,6,53.4,53.4,0,0,1,2.41,4.84c.95,2.14,1.11,2.86,2,3.63a6.08,6.08,0,0,0,4.43,1.21,8.05,8.05,0,0,0,2.83-1.21c.12.17-3.05,3.3-7.87,5.44-.43.19-5.28,2.31-6,1.21-.13-.18-.06-.34,0-1.21,0-.41,0-1.21,0-2.82,0-1.25-.1-2.63-.2-3.43a13.59,13.59,0,0,0-3-6.65,13.81,13.81,0,0,0-4.83-3.63,9.61,9.61,0,0,0-4.84-1.21,8.92,8.92,0,0,0-4.44,1.61,12.92,12.92,0,0,0-4.43,5.25A20.53,20.53,0,0,0,350,145.64Z"/><path class="cls-29" d="M350.77,123.77c1.61,1.27,23.59-1,27.53-1.31,2.95-.2,6.5-1.32,6.56-2.62.05-1.14-2.56-2.12-3.94-2.62-5.25-1.93-9.93-1.69-14.42-1.31C355.69,116.82,349.71,122.93,350.77,123.77Z"/><path class="cls-29" d="M325.73,124c-1.61,1.27-23.59-1-27.54-1.31-2.94-.21-6.49-1.32-6.55-2.62-.05-1.14,2.56-2.12,3.93-2.63,5.26-1.92,9.94-1.68,14.42-1.31C320.81,117,326.79,123.16,325.73,124Z"/><path class="cls-31" d="M323.24,218.17c1.37.46,1.56,3.21,5.24,5.24a14.31,14.31,0,0,0,9.18,1.32c6-1.21,7.57-5.82,10.49-5.25,3.74.74,5,9.07,5.24,10.49,2.82,18.13,8.11,35.78,11.8,53.75,4.13,20.1,6.86,17.16,11.8,40.65,4.25,20.17,6.27,30.43,1.31,39.33-6.68,12-22.13,18.06-34.09,18.35-13.27.34-15.79-6.6-27.53-3.93-9.08,2.07-11.64,7.14-23.6,9.18-5.56.95-10.77,1.83-14.42,0-15-7.54-2.7-60.47,0-72.11C292.52,255.53,317.43,216.22,323.24,218.17Z"/><path class="cls-4" d="M349,220.94c2.35-1.53,7.31,1.11,21.82,13.87,11.75,10.35,17.63,15.52,19,19,5.51,14-2,33.83-10.4,35.06-6.36.93-12.6-10.6-25.07-33.67,0,0-9.41-17.39-6.78-31.71A3.78,3.78,0,0,1,349,220.94Z"/><path class="cls-4" d="M371.61,438.25c-1.66,3-3.21,5.92-2.32,8.31.39,1.06,1,1.39,5,4.17,4.49,3.17,4.92,3.62,5,4.16.1,1.35-2.28,2.35-9.23,4.57-7.92,2.53-12.13,3.56-17.56,3.72-4.48.13-5.58-.45-6.39-1.25-2.55-2.51-1.49-6.34-3.17-15-1.83-9.39-4.51-12.2-3.17-15,.44-.92,1.5-2.19,9.75-2.07,10.34.16,12.23,2.2,18.63,1.27,5.55-.8,9.31-3.09,9.76-2.06S374.94,432.2,371.61,438.25Z"/><path class="cls-4" d="M302.9,443.94c2.42,2.45,4.7,4.82,4.49,7.38-.09,1.11-.61,1.61-3.65,5.35-3.46,4.27-3.75,4.82-3.64,5.35.27,1.33,2.83,1.64,10.12,1.89,8.31.29,12.65.14,17.92-1.18,4.34-1.08,5.24-2,5.8-2.94,1.77-3.1-.28-6.5-1-15.27-.78-9.54,1-13-1-15.28-.68-.76-2-1.7-10,.66-9.9,3-11.17,5.43-17.58,6.27-5.56.73-9.8-.46-9.95.66S298.06,439,302.9,443.94Z"/><path class="cls-27" d="M318,135.57c-.73-.49-2.19.27-2.62,1.31a1.48,1.48,0,0,0,0,1.31,1.85,1.85,0,0,0,2.62-2.62Z"/><path class="cls-27" d="M368.06,135.8c-.73-.5-2.19.27-2.62,1.31a1.48,1.48,0,0,0,0,1.31,1.85,1.85,0,1,0,2.62-2.62Z"/><path d="M406.52,52.39c-2.4,1-4-1.81-7.19-1.8-8.52,0-19.37,20.19-20.69,32.38a14.32,14.32,0,0,1-3.59,8.09c-1.45,1.48-4,2.72-5.4,1.8a3.1,3.1,0,0,1-.9-3.6c1.15-2.5,6.19-1.74,6.3-2.7s-4.91-3.72-8.1-1.8-3.45,7.8-.9,10.8c3,3.5,9.53,2.73,12.59,0,2.3-2,2.16-4.76,4.5-5.4,2.06-.56,4.55.91,4.5,1.8s-2.82.59-5.4,2.7a9.22,9.22,0,0,0-3.19,5.43c-.5,4.3,4.27,5.42,4.1,9.58-.16,3.9-3.54,4.34-6.84,10.94-1.68,3.35-3.06,6.11-2.73,9.57.51,5.53,5.13,10.42,8.2,13.68,2.44,2.58,3.78,3.38,4.11,5.47.45,2.94-1.43,6.4-4.11,8.21-3.62,2.45-6.79.6-8.2,2.73s.16,6.15,2.73,8.21,6.44,2.25,6.84,1.37c.52-1.14-4.72-3.89-4.1-5.47.42-1.08,2.93-.08,5.47-1.37,4.16-2.11,4.48-8.36,5.47-8.21s-.87,7.43,2.73,10.94c2.94,2.87,8.16,1.88,8.21,2.74s-6.73.73-8.21,4.1c-1,2.22.47,5.78,2.74,6.84,2.66,1.25,5.68-1.29,6.84,0,1,1.12-.59,3.77,0,4.1s2.49-3.85,5.47-4.1c0,0,1.25-.1,6.84,4.1-.62,3.51-2,7.85-5.47,9.58-3.79,1.89-8.13-.31-8.21,0s8.68,5.73,16.41,2.73c4.07-1.57,4.59-4.18,8.21-6.83,6-4.42,12.4-2.94,21.88-2.74,22.84.49,39.62-2.08,39.67-1.37s-24,3.1-23.92,4.2c.05.63,8.08,1.45,26.08,3.59,2.75.33,6.76.84,7.2,2.7.29,1.26-1.06,3-2.7,3.6-3.12,1.07-6.35-2.61-7.2-1.8-.65.63.45,3.62,2.7,5.4,3.15,2.48,8.19,2.31,11.69,0,2.61-1.73,5.46-5.37,4.5-8.1-1.29-3.68-8.73-3.43-8.78-5.48,0-1.17,2.38-2.25,4.11-2.74,6.24-1.77,9.67,3.07,15,1.37,3.58-1.13,6-4.52,5.47-5.47s-3.33.56-8.2,0c-2.75-.32-6.76-1.35-6.84-2.74-.07-1.15,2.61-2.17,4.1-2.73,7.25-2.76,10.19-.23,13.68-2.74,3.08-2.21,4.18-6.62,4.1-9.57-.1-3.91-2.27-5.91-1.37-6.84,1.15-1.19,6.27.36,8.21,4.1,2.11,4.05-2.28,9-1.37,9.57s5.13-3.05,6.84-8.2c.57-1.71,1.7-5.13,0-8.21-1.26-2.29-3.47-3.24-5.47-4.1-4.33-1.87-8-.56-8.21-1.37s4.52-1.7,8.21-5.47c2.56-2.61,5.26-7.63,4.1-12.31-1-4.23-5.55-9.37-8.44-10.81-.37-.19-1.67-.79-1.8-1.8a2.35,2.35,0,0,1,.9-1.8c1.23-1,2.46-.14,3.87-.64,2.52-.88,4.12-5.52,2.74-8.2-.89-1.72-2.91-2.17-2.74-2.74.27-.84,4.49.76,6.84-1.37a4.51,4.51,0,0,0,1.37-2.73c.42-3.23-3.26-6.71-6.84-8.21s-5.75-.45-7-2.19c-.93-1.26-.33-2.73.2-6,0,0,.09-.56.23-2,0,0,.41-4.09.47-7.29.09-4.75-8.05-28.18-24.28-28.78-6.28-.23-12.81,3-12.59,4.5.37,2.55,20.88,5.59,25.18-2.7,2.55-4.93-1.28-12.57-4.5-16.19a9.91,9.91,0,0,0-3.59-2.69c-2.44-1.05-6.47-1.52-9,.89a5.82,5.82,0,0,0-1.79,3.6c-.3,3.55,3.23,6.78,4.49,6.3s-.07-4.3,1.8-5.4c1.16-.68,3.22-.12,3.6.9.69,1.87-3.66,6.8-7.2,6.3C497.13,42,497.2,36,491.2,31.7A13.28,13.28,0,0,0,483.34,29H483a16.69,16.69,0,0,0-8.13,2.73c-6.6,4.18-57.18-4.71-64.75,9C407.76,45,409.87,50.94,406.52,52.39Z"/><path class="cls-6" d="M398.56,326.27c-1.11,1-3.21,3.64-1.46,23.31a251.1,251.1,0,0,0,5.1,32.79c9.31,41.66,14.1,62.63,21.13,69.21,1.48,1.39,8.95,8.12,7.29,11.66-.95,2-4.45,2-4.37,2.91.1,1.26,7.13,1.58,11.65,1.46,5.62-.14,6.74-.94,7.29-1.46,2.53-2.37,1.73-7,1.46-8.74-1.48-9.61,1.35-19.42,1.45-29.14.22-20.55,1.95-17.6,1.46-30.6-.44-11.62-1.76-12.36-2.91-29.14-1.21-17.44.15-17.64-1.46-21.86C438.26,328.5,407.78,317.81,398.56,326.27Z"/><path class="cls-6" d="M490.45,321.48c1.12.69,4,2.94,5.88,22.61a232.33,232.33,0,0,1,.59,33.91c-2.45,56.11-.84,62.83-6.89,71.22-1.2,1.67-7.23,9.68-4.93,12.83,1.32,1.82,4.75,1.15,4.85,2,.14,1.25-6.7,2.91-11.17,3.66-5.54.92-6.79.35-7.43-.05-2.93-1.84-3-6.53-3.09-8.3-.39-9.72-5-18.8-7-28.33-4.14-20.13-5.27-16.91-7.27-29.76-1.78-11.49-.63-12.47-2.69-29.16-2.15-17.35-3.52-17.28-2.74-21.74C451.9,331.24,479.79,314.94,490.45,321.48Z"/><path class="cls-32" d="M443.73,184.93c1.24,11,0,13.11,0,13.11-2.42,3.63-6.66,2.59-10.2,5.83-4.74,4.34-3.49,11.63-3.64,18.21-.13,5.51-4,14.36-11.66,32.06-7.11,16.39-12,24.19-16,39.34-.74,2.77-1.24,4.87-1.45,5.83-2.13,9.46-4,18-2.92,27.69.52,4.54,2.36,20.59,13.84,26.95a15.69,15.69,0,0,0,2.48,1.16c4.66,1.67,12.06,1.44,39.78-1.16,12.29-1.15,14.31-1.43,17.49-2.91,12.58-5.87,17.66-18.65,18.94-21.86,4.5-11.29,3.14-21.17,1.46-33.51-1.09-8-2-8.16-7.29-27.69-7.41-27.28-11.11-40.92-10.2-46.63.78-4.84,2.94-13.44-1.46-17.48-2.54-2.34-5.5-1.51-7.28-4.37s.3-5,0-11.66c-.19-4.19-.36-7.91-2.92-10.2-3.31-3-9.24-2.29-13.11,0A13.89,13.89,0,0,0,443.73,184.93Z"/><path class="cls-1" d="M470.08,202.53c-.55.39.41,2.07,1.46,5.83,2.58,9.32,1.16,15.19,1.46,20.4.33,5.89,4.59,11.7,13.11,23.31,11.37,15.52,17.06,23.27,26.23,27.69,4.43,2.13,9.86,3.79,11.66,8.74,1.21,3.36-.19,5.62,1.45,11.66,1.18,4.33,2,3.57,2.92,7.28,1.5,6.17-.66,8.84,1.45,14.58.75,2,1.57,4.25,2.92,4.37,2.72.24,6.58-8.2,7.28-16,1-11.22-4.57-20-5.82-21.86-2.69-4-3.77-3.72-7.29-8.74a57.59,57.59,0,0,1-7.29-14.57c-2.71-7.5-8.6-15.2-20.4-30.6C488.72,220.88,472.09,201.1,470.08,202.53Z"/><path class="cls-1" d="M526,296.09c-.82,0-1.43.85-2.37,2.23-1.67,2.46-3,4.39-2.51,6.84.26,1.35,1.2,3.62,2.66,3.77,2.3.24,5.72-4.85,4.88-9.08C528.29,298.25,527.23,296.12,526,296.09Z"/><path class="cls-1" d="M513.82,120.27c1.8-2.58,3.3-3.36,4.43-3.69,3.14-.92,6.4.8,8.23,2.65,2.84,2.88,2.79,6.7,2.76,8.72a14.36,14.36,0,0,1-3.91,10,13.13,13.13,0,0,1-8.27,3.9c-1.7.11-3.41.23-4.85-.71C507.63,138.18,509.17,126.94,513.82,120.27Z"/><path class="cls-1" d="M515.11,132.69c-.22,1.7-.91,8.47-1,15.21,0,1.5,0,3.11.09,5,.2,4,.5,5.41,0,8.26-1.39,8-6.73,14-7.84,15.17l-.42.44A51.63,51.63,0,0,1,493.07,186c-.33.17-2.09,1.06-4.53,2.05a80.86,80.86,0,0,1-11.08,3.46,90.67,90.67,0,0,1-22,1.83,104.77,104.77,0,0,1-13.77-.91s-14.42-2-25.71-7.35q-2.29-1.09-4.17-2.15a59.39,59.39,0,0,1-6.85-4.28,26,26,0,0,1-8.27-11.94c-1.23-3.72-1.19-6.75-.92-11.93.21-3.84.38-5.59.68-9.32.14-1.79.22-3.39.27-4.86.18-5.24,0-9.54,0-10.62-.47-11-1.48-34.26,1.84-45.91,5.91-20.77,35.43-39.44,65.2-36.73,22.34,2,46.4,16.28,52.34,35.81C519.87,95.72,517.44,114.57,515.11,132.69Z"/><path class="cls-1" d="M397.49,123.16c-1.66-2.67-3.11-3.53-4.23-3.92-3.08-1.08-6.43.46-8.35,2.21-3,2.73-3.14,6.54-3.22,8.56a14.36,14.36,0,0,0,3.37,10.22,13.21,13.21,0,0,0,8.06,4.33c1.69.2,3.39.4,4.88-.46C402.73,141.37,401.78,130.06,397.49,123.16Z"/><path class="cls-32" d="M443.4,142.32c-1.25-2.08,3.86-9.9,10.87-10.66,7.44-.8,14.3,6.64,13.41,8.86-.48,1.18-3,.4-10.79.9C447.28,142,444.2,143.66,443.4,142.32Z"/><path class="cls-14" d="M440.93,159.76a20.28,20.28,0,0,0,4.67,3.12,21,21,0,0,0,13.62,1.48c3.37-.85,6.15-2.59,9.34-4.6,1-.62,1.79-1.16,2.34-1.55"/><path class="cls-15" d="M475.69,127.13a13.24,13.24,0,0,1,0-4.74c.57-2.92,2.12-4.78,3.87-6.88a18.2,18.2,0,0,1,10.76-6.89,17.08,17.08,0,0,1,6-.43,13.2,13.2,0,0,1,6.88,2.59,12.58,12.58,0,0,1,4.31,6.45,13.86,13.86,0,0,1-.43,8.18,21,21,0,0,1-6,9,14.3,14.3,0,0,1-2.58,2.15,14.66,14.66,0,0,1-7.74,2.15,15.91,15.91,0,0,1-7.32-1.29,12.69,12.69,0,0,1-5.59-4.3A13,13,0,0,1,475.69,127.13Z"/><path d="M434.4,44.29c12.13-5.79,32.85-8.8,42.27,2.7,7,8.53,3.21,20.81,2.7,22.49-2.88,9.37-10.74,16.94-19.79,18.88-2.25.49-8.38,1.8-13.49-1.8-3.59-2.53-7-7.65-5.39-10.79,1.35-2.59,5.91-3.35,6.29-2.7.18.3-.64.73-.9,1.8-.47,2,1.19,5,3.6,5.4,1.83.27,4.08-1,4.5-2.7C455.07,74,448.4,67,441.6,67.68a11.09,11.09,0,0,0-8.1,5.39c-2.76,4.74.42,8.05-1.8,11.69-2.55,4.21-8.15,1.89-17.08,5.4-3.74,1.47-13,5.12-16.19,13.49-2.42,6.39,3.74,9.44,2.7,18.89-.75,6.7-4.4,12.9-6.3,12.59s-1.32-7.26-3.6-20.69c-1.86-11-3.2-11.87-3.59-16.19-1.41-15.28,14.47-28,33.27-44.06C427,49,430.18,46.31,434.4,44.29Z"/><path d="M478.47,43.4c-4.21,1.78-7,7.43-6.3,11.69.91,5.65,7.94,9,11.7,10.79,4.43,2.11,5.11,1.25,10.79,3.6,5.89,2.44,12.13,5,12.59,9s-5.71,5.32-7.2,12.59c-.22,1.1-1.33,6.52,1.8,9,2.63,2.08,7.6,1.6,9-.9a4.39,4.39,0,0,0,0-3.59c-1.08-2.36-4.14-3.18-4.5-2.7s2.34,2.44,1.8,3.6-3.46,1.25-4.5,0c-1.47-1.77.54-6.92,2.7-7.2,3-.38,8,8.39,9,17.09,1.51,13.76-7.57,23.25-4.49,26.08,1.61,1.49,6.16-.08,9-2.7,4.22-3.91,4.55-10.16,3.6-20.68-1.57-17.26-2.36-25.89-6.3-34.18C508.31,56.3,488.52,39.15,478.47,43.4Z"/><path d="M474.82,125.84a5.94,5.94,0,0,0,.44,2.15c.17,0,.05-1.82.43-3.88a16.6,16.6,0,0,1,1.72-4.73,18.18,18.18,0,0,1,5.16-6.88,16.54,16.54,0,0,1,6.45-3,15.87,15.87,0,0,1,6.89-.44,14.66,14.66,0,0,1,5.59,2.16,10.17,10.17,0,0,1,5.17,8.17,16.26,16.26,0,0,1-.86,7.75c-2,5.32-6.25,7.92-6,8.17s3.22-1.57,5.6-4.73a17.46,17.46,0,0,0,3-6.46,14.36,14.36,0,0,0,0-7.74,13.64,13.64,0,0,0-2.58-4.73,14.88,14.88,0,0,0-7.75-4.74,17.36,17.36,0,0,0-6.45-.43,17.56,17.56,0,0,0-7.75,3,20.79,20.79,0,0,0-6.45,6.88C476.47,118,474.46,121.55,474.82,125.84Z"/><path d="M435.3,101c.61,1.18,1,3.26,0,4.5-2.23,2.74-8.68-1.92-18.88-1.8-8.52.1-13.14,3.44-13.49,2.7-.44-.91,10.33-10.18,22.93-9C428.36,97.59,433.61,97.68,435.3,101Z"/><path class="cls-15" d="M437.67,128a13.18,13.18,0,0,0,0-4.73c-.57-2.92-2.12-4.79-3.87-6.89A18.17,18.17,0,0,0,423,109.53a16.87,16.87,0,0,0-6-.43,13.13,13.13,0,0,0-6.89,2.58,12.54,12.54,0,0,0-4.3,6.45,13.86,13.86,0,0,0,.43,8.18,21,21,0,0,0,6,9,13.6,13.6,0,0,0,10.33,4.31,16,16,0,0,0,7.32-1.29,12.8,12.8,0,0,0,5.59-4.31A13,13,0,0,0,437.67,128Z"/><path d="M476.33,100.87c-.61,1.18-1,3.26,0,4.5,2.24,2.74,8.69-1.92,18.89-1.8,8.51.1,13.13,3.44,13.49,2.7.43-.91-10.34-10.18-22.93-9C483.27,97.51,478,97.6,476.33,100.87Z"/><path class="cls-2" d="M469.85,201.05c2.2-1.43,6.83,1,20.37,13,11,9.65,16.47,14.48,17.76,17.76,5.15,13-1.89,31.58-9.7,32.73-5.95.88-11.77-9.89-23.41-31.43,0,0-8.79-16.24-6.33-29.61A3.52,3.52,0,0,1,469.85,201.05Z"/><path d="M496.26,461.72c.07,1.07-1.82,1.86-7.36,3.63-6.3,2-9.66,2.83-14,3-3.56.11-4.44-.36-5.08-1-2-2-1.19-5-2.53-11.92-1.46-7.48-3.59-9.72-2.53-11.93.35-.73,1.2-1.74,7.77-1.64,8.23.12,9.74,1.75,14.83,1,4.43-.64,7.41-2.46,7.77-1.64s-2.3,2.45-4.95,7.27c-1.32,2.4-2.56,4.71-1.85,6.62.24.63.58.94,2,2,.14.1.28.21.44.31l1.14.8h0l.31.23a3.3,3.3,0,0,1,.3.22C495.9,460.94,496.22,461.29,496.26,461.72Z"/><path class="cls-25" d="M490.84,457.37a4,4,0,0,0-.69,0,3.75,3.75,0,0,0-2.14,1.24,5.08,5.08,0,0,0-1.05,1.46c-.27-.29,1.16-2.89,3.22-3h.22C490.54,457.16,490.68,457.27,490.84,457.37Z"/><path class="cls-25" d="M492.6,458.62a2.64,2.64,0,0,0-.6-.14,3.71,3.71,0,0,0-2.36.72,5,5,0,0,0-1.35,1.18c-.2-.33,1.7-2.46,3.69-2.21h0l.31.23A3.3,3.3,0,0,1,492.6,458.62Z"/><path d="M422,466.38c.12,1.07,2.12,1.5,7.89,2.24,6.57.83,10,1,14.29.37,3.52-.54,4.29-1.16,4.81-1.91,1.63-2.33.25-5.18.32-12.18.08-7.62,1.77-10.21.32-12.19-.48-.65-1.49-1.5-7.94-.21-8.07,1.62-9.26,3.5-14.4,3.7-4.47.16-7.73-1.08-7.94-.21s2.71,2,6.2,6.26c1.73,2.12,3.37,4.16,3,6.17-.11.66-.39,1-1.65,2.32l-.38.39-1,1h0l-.27.29-.25.27C422.21,465.55,422,466,422,466.38Z"/><path class="cls-25" d="M426.53,461.13a2.93,2.93,0,0,1,.68-.13,3.72,3.72,0,0,1,2.33.82,5,5,0,0,1,1.3,1.25c.21-.34-1.67-2.63-3.71-2.37l-.22,0Z"/><path class="cls-25" d="M425,462.67a2.36,2.36,0,0,1,.56-.24,3.72,3.72,0,0,1,2.46.27,5.16,5.16,0,0,1,1.54.92c.13-.37-2.12-2.11-4-1.51h0l-.27.29Z"/><path class="cls-12" d="M395.73,315.89c6.41-9.14,22.79-1.17,53.06-1.8,25.72-.53,43.26-6.89,47.67.9.37.66.44,1.06.9,6.3,1.57,18.09,1.79,23.38,1.79,23.38.59,13.87.89,20.8.9,24.28.09,19.46-1.85,18.58-1.79,35.08,0,0,1.9,24.47,0,36a8.9,8.9,0,0,1-2.7,5.4c-2,1.69-4.44,1.72-6.3,1.79-12.48.49-13.87,3.38-22.48,1.8-3.43-.63-5.15-.94-6.3-1.8-5.51-4.09-1.59-12.45-4.49-28.77-1.5-8.39-2.22-8.3-3.6-17.09-.89-5.64-1.09-8.88-1.8-17.09-1.06-12.21-2.5-27-2.7-27s.06,13.53,1.8,30.58c1.66,16.17.85,32.72,4.5,48.56.6,2.62,2.61,10.92-.9,13.49-.67.49-1.48.73-5.4.9-4.54.2-7.23,0-9.89,0a101.18,101.18,0,0,0-14.39.9c-5.71.73-5.31,1.15-6.29.9-6.53-1.67-7.21-16.06-11.7-40.47-1.63-8.87-1-3.77-4.49-21.58-3.42-17.23-7.39-38.83-7.2-63.86C394,320,394.3,317.94,395.73,315.89Z"/><path class="cls-33" d="M411.92,441.8c-2.33,2.89,1.15,11.42,7.19,15.29,1.59,1,3.29,1.66,22.49.9,8.33-.34,10.85-.57,12.59-2.7,2.17-2.68,2-7,1.8-11.69-.13-3.13-.2-4.69-.9-5.4-3.13-3.14-10.95,4.5-23.39,5.4C420.29,444.42,414.26,438.89,411.92,441.8Z"/><path class="cls-33" d="M456.9,438c-2.33,2.89,1.15,11.42,7.19,15.29,1.59,1,3.29,1.66,22.49.89,8.33-.33,10.85-.56,12.59-2.69,2.17-2.68,2-7,1.8-11.69-.14-3.13-.2-4.69-.9-5.4-3.13-3.14-10.95,4.5-23.39,5.4C465.27,440.57,459.24,435,456.9,438Z"/><path class="cls-2" d="M439.09,197.5c1.45.3,3.08,1.95,8.13,3.45,3.52,1,6.09,1.88,9,1.29,6-1.19,7.47-5.74,10.35-5.17,3.69.72,4.95,8.94,5.17,10.34,2.78,17.89,8,35.31,11.64,53,4.08,19.83,6.76,16.93,11.64,40.1,5.51,26.15,5.12,33.39,1.3,38.8-4.85,6.84-12.95,8.81-22.2,11.05-11.29,2.73-13,.17-37.77.9-12.88.38-16.53,1.19-25.19,0-9.52-1.32-16.58-2.29-20.68-6.3-8.45-8.26-1.6-26.69,7.54-53.51C412.14,250.21,429.45,195.5,439.09,197.5Z"/><path d="M438.53,126.74a6.13,6.13,0,0,1-.43,2.15c-.17,0-.05-1.82-.43-3.87a16.67,16.67,0,0,0-1.72-4.74,18.26,18.26,0,0,0-5.16-6.88,16.63,16.63,0,0,0-6.46-3,16,16,0,0,0-6.88-.43,14.68,14.68,0,0,0-5.6,2.15A11.15,11.15,0,0,0,408,116a10.91,10.91,0,0,0-1.29,4.3,16.26,16.26,0,0,0,.86,7.75c2,5.33,6.25,7.92,6,8.18s-3.22-1.58-5.59-4.74a17.34,17.34,0,0,1-3-6.45,14.4,14.4,0,0,1,0-7.75,13.64,13.64,0,0,1,2.58-4.73,14.81,14.81,0,0,1,7.75-4.73,17.09,17.09,0,0,1,6.45-.43,17.51,17.51,0,0,1,7.75,3,20.79,20.79,0,0,1,6.45,6.88C436.89,118.89,438.9,122.45,438.53,126.74Z"/><path class="cls-34" d="M495.31,111.42a11.6,11.6,0,0,0-6.89,0,10.41,10.41,0,0,0-4.73,2.58,10.8,10.8,0,0,0-2.58,4.3,13.13,13.13,0,0,0-.86,7.32,11.52,11.52,0,0,0,3,6,11.17,11.17,0,0,0,17.21-1.29,12.86,12.86,0,0,0,2.15-9,11.07,11.07,0,0,0-2.15-6.45A10.34,10.34,0,0,0,495.31,111.42Z"/><path class="cls-35" d="M494.35,113.27a9.72,9.72,0,0,0-5.63,0,8.62,8.62,0,0,0-3.88,2.12,8.83,8.83,0,0,0-2.11,3.51,10.76,10.76,0,0,0-.7,6,9.49,9.49,0,0,0,2.46,4.93,9.14,9.14,0,0,0,14.08-1.06,10.54,10.54,0,0,0,1.76-7.39,9,9,0,0,0-1.76-5.28A8.58,8.58,0,0,0,494.35,113.27Z"/><path class="cls-15" d="M483.12,122.31a3.75,3.75,0,0,0-1.72,2.15,4.07,4.07,0,0,0,.86,3.88,3.62,3.62,0,0,0,2.58,1.29,3.77,3.77,0,0,0,3-1.72,4.09,4.09,0,0,0,.43-3.45,3.72,3.72,0,0,0-1.72-2.15A3.62,3.62,0,0,0,483.12,122.31Z"/><path class="cls-15" d="M499.38,115.93a1.29,1.29,0,0,0-.62.78,1.46,1.46,0,0,0,.31,1.41,1.32,1.32,0,0,0,.94.47,1.35,1.35,0,0,0,1.09-.63,1.46,1.46,0,0,0,.16-1.25,1.35,1.35,0,0,0-.63-.78A1.32,1.32,0,0,0,499.38,115.93Z"/><path class="cls-34" d="M426.05,112.22a11.74,11.74,0,0,0-6.88,0,10.41,10.41,0,0,0-4.73,2.58,10.75,10.75,0,0,0-2.58,4.3,13,13,0,0,0-.87,7.32,11.61,11.61,0,0,0,3,6,11.17,11.17,0,0,0,17.21-1.29,12.9,12.9,0,0,0,2.15-9,11.07,11.07,0,0,0-2.15-6.45A10.43,10.43,0,0,0,426.05,112.22Z"/><path class="cls-35" d="M426.09,114.08a9.56,9.56,0,0,0-5.63,0,8.51,8.51,0,0,0-3.87,2.11,8.79,8.79,0,0,0-2.11,3.52,10.71,10.71,0,0,0-.71,6,9.53,9.53,0,0,0,2.47,4.93,9.14,9.14,0,0,0,14.08-1.06,10.54,10.54,0,0,0,1.76-7.39,9.12,9.12,0,0,0-1.76-5.28A8.45,8.45,0,0,0,426.09,114.08Z"/><path class="cls-15" d="M413.87,123.11a3.73,3.73,0,0,0-1.72,2.16,4,4,0,0,0,.86,3.87,3.62,3.62,0,0,0,2.58,1.29,3.77,3.77,0,0,0,3-1.72,4.07,4.07,0,0,0,.43-3.44,3.71,3.71,0,0,0-1.72-2.16A3.65,3.65,0,0,0,413.87,123.11Z"/><path class="cls-15" d="M429.13,117.73a1.36,1.36,0,0,0-.63.78,1.46,1.46,0,0,0,.32,1.41,1.31,1.31,0,0,0,.93.47,1.37,1.37,0,0,0,1.1-.63,1.54,1.54,0,0,0,.16-1.25,1.42,1.42,0,0,0-.63-.78A1.32,1.32,0,0,0,429.13,117.73Z"/></g></g></svg>