<svg xmlns="http://www.w3.org/2000/svg" viewBox="0 0 226.47 94.8"><defs><style>.cls-1{fill:#f2af19;}.cls-2{fill:#a2e3db;}.cls-3{fill:#fff;opacity:0.5;}</style></defs><g id="Camada_2" data-name="Camada 2"><g id="Camada_1-2" data-name="Camada 1"><path class="cls-1" d="M198.54,88.52c-16.89-5.7-40.24-6.9-58.83-7.84-5.56-.28-9.88-.4-13.08-.47-12.36-.26-23.66,0-39.86.47,0,0-23.75.64-62.75,7.84C21.69,89,5,94.89,2.45,94.41c-3.22-.62-2.55-9.17-2-11.77C.76,81.46,2,77.28,4.41,68.91s2.47-11.6,3.93-11.76c1.14-.13,1.56,1.79,3.92,3.92A16.86,16.86,0,0,0,22.06,65c6,.61,10.53-2,13.73-3.92A33.78,33.78,0,0,0,47.55,49.31c3.87-6.69,2.93-10.8,5.89-11.77,2.65-.88,4.27,2.17,11.76,5.88,4.51,2.23,8.76,4.34,13.73,3.92,4.48-.37,7.52-2.63,11.76-5.88a47.87,47.87,0,0,0,13.73-15.68c6-11.17,5.83-21.65,7.84-21.57.83,0,1.33,1.81,2,3.92,1,3.28,4.55,15.17,7.85,21.57a33.38,33.38,0,0,0,9.8,11.76c3.4,2.52,10.76,8,17.65,5.88,5.43-1.63,11.78-4.87,15.69-9.8,1.78-2.25,2.48-3.93,3.92-3.92,2.5,0,3.46,5.16,7.84,13.72,3.48,6.82,5.59,10.61,9.8,13.73,1.16.86,5.91,4.37,11.77,3.92,9.56-.73,14.33-11.45,17.65-9.8,1.16.57.93,2.07,2,9.8a95.74,95.74,0,0,0,2,11.77A133.09,133.09,0,0,0,226,90.48a3,3,0,0,1,.34,2.39c-.57,1.38-2.74,1.7-3.64,1.82a16.41,16.41,0,0,1-9.11-1.82C208.88,90.59,203.48,90.19,198.54,88.52Z"/><ellipse class="cls-2" cx="112.26" cy="50.29" rx="7.84" ry="14.71"/><path class="cls-2" d="M59.32,68.91c1.6,0,2.76-2,3.92-3.92a13.52,13.52,0,0,0,2-9.8c-.67-3.12-3-7.88-5.88-7.85-3.07,0-5.61,5.47-5.88,9.81C53.07,62.82,56.43,69,59.32,68.91Z"/><path class="cls-2" d="M166.18,44.88c1.6,0,2.76,2,3.92,3.92a13.57,13.57,0,0,1,2,9.81c-.67,3.12-3,7.87-5.88,7.84-3.07,0-5.61-5.47-5.88-9.8C159.94,51,163.29,44.81,166.18,44.88Z"/><path class="cls-2" d="M9.78,81.8c1.16,0,2-1.43,2.83-2.83A9.77,9.77,0,0,0,14,71.89c-.48-2.25-2.16-5.68-4.25-5.66s-4,4-4.24,7.08C5.28,77.4,7.7,81.85,9.78,81.8Z"/><path class="cls-2" d="M211.53,78.8c1.16,0,2-1.43,2.83-2.83a9.74,9.74,0,0,0,1.42-7.07c-.49-2.26-2.17-5.69-4.25-5.67s-4.05,4-4.25,7.08C207,74.41,209.44,78.85,211.53,78.8Z"/><ellipse class="cls-1" cx="112.57" cy="6.9" rx="5.18" ry="6.9"/><ellipse class="cls-1" cx="169.5" cy="29.33" rx="5.18" ry="6.9"/><path class="cls-1" d="M221.25,51.75c0,3.55-2.89,7.22-5.17,6.91s-3.45-4.14-3.45-6.91,1.27-6.6,3.45-6.9S221.25,48.21,221.25,51.75Z"/><path class="cls-1" d="M3.25,53.74c0-3.54,2.89-7.21,5.18-6.9s3.45,4.14,3.45,6.9-1.28,6.61-3.45,6.9S3.25,57.29,3.25,53.74Z"/><ellipse class="cls-1" cx="52.19" cy="32.78" rx="5.18" ry="6.9"/><path class="cls-3" d="M109.47,40.11c-.35-.14-2.26,2.49-3,6-1,4.55.39,9,1,9s.91-3.12,1-5c0-.91,0-1.47,0-2C108.37,43.45,109.85,40.25,109.47,40.11Z"/><path class="cls-3" d="M57.41,49.14c-.34-.13-2.17,2.39-2.88,5.76-.91,4.37.38,8.65,1,8.63s.88-3,1-4.8c0-.86,0-1.4,0-1.91C56.36,52.35,57.77,49.28,57.41,49.14Z"/><path class="cls-3" d="M164.47,46.83c-.33-.13-2.17,2.39-2.87,5.76-.92,4.37.37,8.65,1,8.63s.87-3,1-4.79c0-.87,0-1.41,0-1.92C163.42,50,164.83,47,164.47,46.83Z"/><path class="cls-3" d="M212,64.11c-.31-.12-2,2.21-2.66,5.32-.84,4,.35,8,.89,8s.81-2.77.89-4.44c0-.8,0-1.3,0-1.77C211,67.08,212.3,64.24,212,64.11Z"/><path class="cls-3" d="M10.43,66.84c-.32-.12-2,2.21-2.66,5.32-.85,4,.34,8,.88,8s.81-2.77.89-4.44c0-.8,0-1.3,0-1.77C9.45,69.81,10.76,67,10.43,66.84Z"/></g></g></svg>