<svg xmlns="http://www.w3.org/2000/svg" viewBox="0 0 301.1 148.69"><defs><style>.cls-1{fill:#454047;}.cls-2{fill:#4a454c;}.cls-3{fill:#fff;}</style></defs><g id="Camada_2" data-name="Camada 2"><g id="Camada_1-2" data-name="Camada 1"><polygon class="cls-1" points="0 106.1 54.89 148.69 267.08 136.95 227.1 96.42 0 106.1"/><polygon class="cls-2" points="88.07 0 54.89 148.69 267.08 136.95 301.1 0 88.07 0"/><path class="cls-3" d="M191.1,58.38c-2.27,0-3.29-1.17-5.63-2a13.49,13.49,0,0,0-6.09-.67,14.07,14.07,0,0,0-8.11,3.83c-6.55,6.28-3.46,18.26-2.48,22.08.73,2.82,2.71,9,7.66,13.07,1.45,1.18,3.65,2.92,6.29,2.68,1.44-.14,1.76-.75,4.3-1.33a15.16,15.16,0,0,1,5.19-.45c2.66.29,2.84,1.25,5.63,1.8a11,11,0,0,0,6.08-.22c.91-.35,2.1-1,5.41-5.64s5.11-7.16,4.51-8.78c-.71-1.93-2.88-1.17-5.41-4.06a10.75,10.75,0,0,1-2.64-6.78,10,10,0,0,1,.86-4c1.93-4.31,5.9-4.75,5.84-7,0-1.58-2-2.7-4.06-3.83a11.9,11.9,0,0,0-7.43-1.8c-1.31.17-1.1.43-6.94,2.39A9.42,9.42,0,0,1,191.1,58.38Z"/><path class="cls-3" d="M198.54,42.83a7.71,7.71,0,0,0-4.06,2.71c-1.86,2-5.44,6.81-4.06,8.56,1,1.22,4,.51,5.64-.23,5-2.19,7.84-8.72,6.31-10.59C201.46,42.18,199,42.72,198.54,42.83Z"/></g></g></svg>