<svg xmlns="http://www.w3.org/2000/svg" viewBox="0 0 562.72 448.34"><defs><style>.cls-1{fill:#f4f9fd;}.cls-2{fill:#fff;}.cls-3{fill:#f4d52d;}.cls-4{fill:#475ece;}</style></defs><g id="Camada_2" data-name="Camada 2"><g id="Camada_2-2" data-name="Camada 2"><path class="cls-1" d="M560.43,73.66c-8.88,13-38,1.08-63.26,1.13-42.1.08-80.42,33.28-98.29,63.26a135.21,135.21,0,0,0-16.21,43.78c-6.35,33.59-.22,64.88,12.82,70.32,2.19.92,4.15.92,7.95-.48,6-2.19,16.44-7.81,39.5-18.72,39.44-18.68,46.23-20,49.71-16.95,6.35,5.53-4.49,20-9,48.58-6.81,42.76,8.46,66.82-1.13,72.3-9,5.16-31.16-11.16-66.65-37.28-3.26-2.39-7.47-5.54-11.7-8.27-6.69-4.32-13.42-7.61-16.55-5.28-2.18,1.61-1,4.83-2.26,12.42-.47,3-1.45,7.46-6.78,19.21-9.88,21.79-14.82,32.69-22.59,42.93a122.35,122.35,0,0,1-45.19,37.28c-1.28.6-2.69,1.28-4.26,2-8.73,4-21.91,9.05-38.67,9.31-9.81.15-20.09-1.36-20.33,0-.31,1.68,9.84,4.52,21.46,10.16,9.89,4.81,34.22,18.16,32.76,23.73-2.25,8.57-68.31,9.14-132.79-17.4a260.42,260.42,0,0,1-33.28-16.49c-7.18-4.25-13.51-8-19.12-11.47C98.8,386.72,88.07,378.2,79.17,364,68,346.18,64.65,327.72,46.4,319.94c-11.7-5-24.76-3.55-26-9s11.64-11.13,10.17-15.82c-1.88-6-23.94.23-29.37-9C-1.63,281.2.94,273.56,4.6,269.1,12,260.05,23.23,264.9,34,257.8c7.76-5.13,10.14-13.1,14.68-29.37,9.43-33.79,13.14-49.61,15.82-58.75,6.91-23.62,17.6-39.25,29.37-56.48a266.91,266.91,0,0,1,36.39-42.69A240.33,240.33,0,0,1,235.39,11.16C241.72,9.41,247.32,8.1,252,7,279.63.61,302.57-.59,328.85.23c12.82.39,26.44,1.27,41.79,2.25,8.68.57,24.29,1.72,44.61,4.69A570.17,570.17,0,0,1,496,25.08c51.83,15.57,66.05,28.24,66.65,39.54A14.68,14.68,0,0,1,560.43,73.66Z"/><ellipse cx="100.86" cy="237.47" rx="20.56" ry="29.37"/><path class="cls-2" d="M117.58,242c-.12,2.63-7.69,5.59-13,3.39-.4-.17-4-1.64-4-4s3.72-3.86,4-3.95C110,235.37,117.7,239.28,117.58,242Z"/><path class="cls-3" d="M240.72,263.45C230.05,290.33,216.78,287.15,191,329c-14.14,22.94-24.18,39.23-26,62.13a94,94,0,0,0,3.9,34.57,260.42,260.42,0,0,1-33.28-16.49c-7.18-4.25-13.51-8-19.12-11.47,4.78-16.47,15.94-38.16,27-75.52,12.69-42.73,21.8-73.42,18.08-111.85-3.82-39.37-16.93-43.56-26-100.54-2.52-15.87-4.54-28.52-5.41-39.3A240.33,240.33,0,0,1,235.39,11.16c-8.26,18.12-19.5,43.44-17.27,78.31,2.15,33.44,14.06,34.63,22.6,88.12C247,216.92,250.49,238.84,240.72,263.45Z"/><path class="cls-3" d="M377.41,83.83c-3,13-9.51,42.91-2.25,76.82,2.3,10.73,4.74,16.08,7.51,21.18-6.35,33.59-.22,64.88,12.82,70.32,2.19.92,4.15.92,7.95-.48a232.4,232.4,0,0,1,1.09,34.38c-.06,1.51-.15,3.07-.4,5.28-6.69-4.32-13.42-7.61-16.55-5.28-2.18,1.61-1,4.83-2.26,12.42-.47,3-1.45,7.46-6.78,19.21-9.88,21.79-14.82,32.69-22.59,42.93a122.35,122.35,0,0,1-45.19,37.28c-1.28.6-2.69,1.28-4.26,2-6.2-8.48-14.39-25.84-17.2-98-2.32-59.51-3.26-89.74,7.9-113,10.5-21.84,20.89-27,23.73-48.58,3.32-25.21-8.77-34.43-11.3-63.26-.25-2.82-3.08-40.3,16.17-72.1,1-1.61,2-3.19,3.05-4.72,12.82.39,26.44,1.27,41.79,2.25,8.68.57,24.29,1.72,44.61,4.69-.19.33-.37.66-.55,1C404.55,26,396.76,31.43,387.58,52.19A165.26,165.26,0,0,0,377.41,83.83Z"/><path class="cls-4" d="M183.82,238.83c3.88-15.9,14.55-36.11,70.6-75.28,39.29-27.46,85.4-59.68,101.31-50.18,12.58,7.51,1.22,38.11,0,41.4-9.24,24.88-25.05,27.22-26.1,45.17-1.08,18.57,15.52,21.8,13.82,40.15-1.81,19.51-21.13,21.65-24.56,40.15-5,26.92,31.46,46.49,24.56,53.95-3.88,4.18-17.69.54-70.61-17.57-67.3-23-80.5-29.31-87.49-42.66C178.45,260.79,181.52,248.25,183.82,238.83Z"/></g></g></svg>