<svg xmlns="http://www.w3.org/2000/svg" xmlns:xlink="http://www.w3.org/1999/xlink" viewBox="0 0 608.16 715.45"><defs><style>.cls-1{fill:#9bcc75;}.cls-2{fill:url(#Gradiente_sem_nome_20);}.cls-3{fill:#7a76b5;}.cls-4{fill:#c3a75e;}.cls-5{fill:#a5dc7e;}.cls-6{fill:#92bc6d;}.cls-7{fill:#746cab;}.cls-8{fill:none;stroke:#92bc6d;stroke-linecap:round;stroke-miterlimit:10;stroke-width:3px;}.cls-9{fill:#fff;}.cls-10{fill:#a30104;}.cls-11{fill:#81a55e;}</style><linearGradient id="Gradiente_sem_nome_20" x1="-565.78" y1="315.52" x2="-470.67" y2="315.52" gradientTransform="translate(715.35 174.64) rotate(42.38)" gradientUnits="userSpaceOnUse"><stop offset="0.11" stop-color="#d7406e"/><stop offset="0.14" stop-color="#d94969"/><stop offset="0.29" stop-color="#e06f54"/><stop offset="0.43" stop-color="#e68b45"/><stop offset="0.55" stop-color="#e99c3c"/><stop offset="0.65" stop-color="#eaa239"/></linearGradient></defs><g id="Camada_2" data-name="Camada 2"><g id="Camada_2-2" data-name="Camada 2"><path class="cls-1" d="M63.07,404c-14.14,3.24-23.7,10.17-28.92,14-10.64,7.88-16.79,16.06-21.26,22.11C5.31,450.41,1.3,455.83.13,462.7c-1.36,8,7.9,19.67,25.52,42.95,3.07,4.07,6.44,8.38,11.9,9.35,5.27.94,10.5-1.6,17.44-7.23C70,495.57,69.57,488,84.75,471.63c7.82-8.4,13.36-14.37,23-19.56,9.29-5,14.16-4.88,16.16-8.93,4.66-9.49-7.18-28.07-22.12-35.72-9.87-5.06-20.6-5.1-24.24-5.11A65.77,65.77,0,0,0,63.07,404Z"/><path class="cls-1" d="M134.38,432c-13-1.29-25.71-20.95-50.53-60.22-13.6-21.5-22.73-38.81-40.46-72.57-26.71-50.87-30.47-61.69-25.35-72,6.13-12.28,22.74-19.25,36.53-18,10.66.93,19.47,6.75,57.08,55.63,23.12,30.05,20.39,28.64,38.73,52.43,30.46,39.52,37.53,42.82,38.23,55.74C190.14,401,159.52,434.43,134.38,432Z"/><path class="cls-2" d="M97.78,110.15q5.48-12.86-6.64-19.44L91,90.56l.13-.47q11.74,5.35,18.23-6l.15-.16.16.15.16.14q-2.25,5.09-.67,9.21a11.55,11.55,0,0,0,3.25,4.75,16.64,16.64,0,0,0,4.26,3l1.76,1-.14.47a15.84,15.84,0,0,0-11.85-.7,21.29,21.29,0,0,0-2.12,1.18,13.93,13.93,0,0,0-2,1.49c-.6.55-1.12,1.06-1.56,1.55a14.75,14.75,0,0,0-1.18,1.45c-.34.49-.63.91-.88,1.29a3.65,3.65,0,0,0-.49,1l-.3.33Zm54.07-73.93-.15.16-.14.16q-13-5.62-23.39-1.42a20.6,20.6,0,0,0-3.57,1.8c-1.16.72-2.21,1.45-3.17,2.16a29.87,29.87,0,0,0-2.69,2.3,23.25,23.25,0,0,0-2.22,2.44c-.64.81-1.22,1.61-1.75,2.41s-1,1.52-1.38,2.16-.73,1.23-1,1.76a6.57,6.57,0,0,0-.57,1.27l-.29.32-.47-.13q7.44-17.3-2.15-29.91a36.82,36.82,0,0,0-4.9-5.22,34.66,34.66,0,0,0-4.35-3.22l-1.9-.84.13-.48q15.72,7.22,27.6-1.57c.8-.66,1.57-1.34,2.32-2s1.39-1.36,1.93-1.95,1.06-1.22,1.55-1.86.93-1.24,1.31-1.77.71-1,1-1.37a4,4,0,0,0,.49-1l.3-.33h.31a22.15,22.15,0,0,0-1.19,18.24,25.88,25.88,0,0,0,1.8,3.73,21.89,21.89,0,0,0,2.33,3.31c.82.95,1.7,1.9,2.62,2.84a28.8,28.8,0,0,0,2.68,2.44c.86.69,1.74,1.35,2.65,2s1.71,1.17,2.41,1.6a16.4,16.4,0,0,0,2,1.07,5.65,5.65,0,0,1,1.44.87ZM129.9,61.91l.15-.17.15-.16a20.7,20.7,0,0,0,10.13,2.26,12.69,12.69,0,0,0,7.87-3.08,39.46,39.46,0,0,0,4.16-4.08,23.73,23.73,0,0,0,2-3l.15-.16.47.14q-3.27,6.53-1,12.17a21.42,21.42,0,0,0,1.7,3,18.43,18.43,0,0,0,2.14,2.7c.76.8,1.52,1.54,2.28,2.23a17.15,17.15,0,0,0,2.26,1.76c.75.49,1.41.9,2,1.23a16.35,16.35,0,0,0,1.51.79l.64.28-.3.32q-8.42-3.81-15.59-.84a22.36,22.36,0,0,0-2.95,1.62,16.85,16.85,0,0,0-2.56,2c-.74.7-1.43,1.41-2.08,2.11s-1.18,1.35-1.62,1.94a13.61,13.61,0,0,0-1.09,1.69,6.64,6.64,0,0,0-.56,1.26l-.44.49-.48-.13A24.33,24.33,0,0,0,141,77.1a13.77,13.77,0,0,0-3.34-8.4,46.26,46.26,0,0,0-4.4-4.46,24.71,24.71,0,0,0-3.21-2.18Z"/><path class="cls-3" d="M54.31,468.52c-3.09,3.8.31,14.54,7,17,4.34,1.57,8.52-.86,14.91-4.56,4.52-2.62,8.39-4.86,8.28-7.87-.14-3.67-6.15-6.21-9.11-7s-6.32-.44-12.84.41C57.68,467.09,55.2,467.43,54.31,468.52Z"/><path class="cls-4" d="M93.65,449.75c-33,27-34.06,37.45-33.13,43.06,1,6.31,5.81,13.3,25.69,23.36,42.62,21.57,62.85,17.11,120.07,26.19,41.07,6.52,43.75,10.93,72,12,21.06.78,38.28-1,64.54-3.74,47.65-5,58.21-5.59,65.37-8.39.89-.35,1.73-.76,2.92-1.34,30.68-14.86,41.2-46.05,42-48.64,1.79-5.59,8-26.1,0-49.39C442.78,412.7,415.78,399.15,401.4,392c-23.42-11.75-44.07-13.62-62.28-15-11.48-.86-24.2-.92-87.81,8.23-52.49,7.55-43.6,4-65.29,10.48C144.8,407.92,119.91,428.27,93.65,449.75Z"/><path class="cls-5" d="M339.89,35.54A224.83,224.83,0,0,0,266.07,46a215.43,215.43,0,0,0-59.65,29.5,205.32,205.32,0,0,0-46,46.33c-11.76,16.39-18.24,30.61-26.53,48.79-13.72,30.09-8.89,28.82-19.26,47.66C101.68,241.7,91.2,249.11,89.82,267a182.3,182.3,0,0,0,.12,24.52s.67,9.63,2,17.3c4.75,27.64,41.29,57.41,42.79,58.67.49.42,1.07.9,1.77,1.46,23.24,18.63,60.57,34,60.57,34C234.47,418,253.18,425.59,272,431.4c36.76,11.35,61.15,18.89,95,21.66,35.3,2.9,65.77,5.39,98.45-10.81,27-13.37,42.75-33.18,53.68-46.91a214.2,214.2,0,0,0,36.12-69.26c15.95-51.49,8.34-94.52,5.1-111.73a205.65,205.65,0,0,0-11.88-41.46,212.12,212.12,0,0,0-47.29-69.76c-30.47-30-61.74-42.92-78.47-49.62C381.32,36.94,347,35.72,339.89,35.54Z"/><path class="cls-6" d="M280.44,565c5.37,1.7,21.4,6.75,29.84-1.44,9-8.71,2.29-27.75.87-31.87A48.73,48.73,0,0,0,300.4,514.1c-3.29-3.53-7.23-7.68-13.6-9.83-3.82-1.3-4.33-.46-7.95-1.68-8.06-2.71-9.73-8.28-14.34-10.64-8.36-4.28-25,2.7-29.84,13C226.34,522.89,251.67,555.88,280.44,565Z"/><path class="cls-7" d="M69.12,516.26c-12.11,8.49,3.17,49.58,8.68,64.4,6.94,18.65,17.65,46.56,44.14,74.53,28.64,30.22,59,42.84,65.84,45.58,24.43,9.75,43.84,11.1,71.64,13,29.29,2,55.09,3.83,87.55-5.06,16.65-4.56,46.47-13.09,73.8-38.35,19.61-18.12,28.68-36.3,45.58-70.18a293.2,293.2,0,0,0,21-55.72c6.5-24.5,9.75-36.75,5.06-42-12.43-13.84-56.65,27.73-125.17,47-79.13,22.27-201.7,18-266.27-23.16C94.32,522.17,77.29,510.54,69.12,516.26Z"/><path class="cls-3" d="M51,470c-9.25,5.34-11.37,18-11.58,19.53-3.58,26.92,30.27,50.3,34,52.82,7.4,5,17,8.39,36.18,15.2s36.45,12.93,58.61,17.36c12.16,2.43,26.09,4.41,58.61,5.79,39.38,1.66,64.33,2.72,98.4,0,29.18-2.33,67.11-5.63,112.15-22.43,36.53-13.63,52.58-26.75,62.23-42.69,3.41-5.64,12.25-20.72,8.68-38.35-2.52-12.4-11.07-25.55-17.37-24.6-5.94.9-5.28,13.69-13.74,28.94-8.12,14.63-19.5,22.32-30.39,29.67-29.18,19.7-70.66,24.93-102.75,27.49-51.53,4.12-85.57,1.89-147.6-2.17C174.31,535.07,134,532,95.89,512.37c-25.49-13.16-34.53-25.81-32.56-32.28,1-3.43,5.8-7.22,4.34-10.13-.9-1.81-3.65-2.19-5.42-2.43A18.11,18.11,0,0,0,51,470Z"/><path class="cls-1" d="M428.64,513.85c12.68,3.26,31.32-10.88,68.08-39.28,20.13-15.55,34.65-28.69,62.86-54.34,42.51-38.65,49.74-47.54,48.44-58.92-1.55-13.64-14.77-25.88-28.15-29.47-10.33-2.76-20.6-.32-72.67,32.74-32,20.32-29,19.93-54.34,36-42.14,26.7-49.91,27.38-55,39.28C386.83,465.7,404.16,507.58,428.64,513.85Z"/><path class="cls-1" d="M305.33,526.68c-.77,1.36-2.46,2.34-5,3.84a27.29,27.29,0,0,1-5.91,2.56C267.29,541.36,252.76,549,252.76,549c-23.44,13.48-28.08,20.68-37.14,25.21a49.56,49.56,0,0,1-7.77,2.89c-18.79,5.24-37.11-4.22-42.16-6.84a69,69,0,0,1-21.12-16.56c-4-4.82-10.67-12.86-11.76-22.06-2.58-21.94,27.7-41.1,40-48.74,10.17-6.33,32.09-19.53,61.89-17,9.14.78,32.9,2.81,57.41,34.81C300.67,511.89,308.26,521.56,305.33,526.68Z"/><path class="cls-8" d="M165.66,319.82A55.31,55.31,0,0,0,187.3,344c2.89,1.72,20.81,12.38,38.36,6.36,19.14-6.58,23.38-27.94,30.68-26.22,7.55,1.78-.2,25.46,15,43.1,12.55,14.58,28.47,19.91,31.31,20.58a56,56,0,0,0,36.18-4"/><path class="cls-9" d="M249.69,237.11c-3.07,3.91-8.44,4.44-11.85,4.68-13.19.94-19.78,1.41-30.93-.94-7.45-1.58-18.51-4-30.35-10.81a81.29,81.29,0,0,1-7.44-4.82C161,219.3,156.43,216,154,209.6c-4.48-11.77,2-23.9,8-35a76.76,76.76,0,0,1,23.08-26.25c6-4.2,9.17-6.37,13.6-6.74,3.64-.32,8.08.59,17.47,7.57l3,2.26c7.86,5.94,16.35,13.1,23.11,25.57,4.91,9.06,6.33,16.16,9,29.36,0,0,1.6,8,.7,23.4A12.6,12.6,0,0,1,249.69,237.11Z"/><path class="cls-10" d="M249.69,237.11c-3.07,3.91-8.44,4.44-11.85,4.68-13.19.94-19.78,1.41-30.93-.94-7.45-1.58-18.51-4-30.35-10.81-7.53-11.13-2.71-26.95.5-37.49,1.8-5.91,4.85-15.57,13.06-25.22,4.1-4.83,7.65-9,13.88-11.91,2.31-1.07,6.92-2.24,15.18-4,7.86,5.94,16.35,13.1,23.11,25.57,4.91,9.06,6.33,16.16,9,29.36,0,0,1.6,8,.7,23.4A12.6,12.6,0,0,1,249.69,237.11Z"/><path class="cls-9" d="M218.75,175.26c-2.85,1.22-8.57,3.67-11.52,9.15-4.47,8.32-1.4,21.46,7.65,26.42,6.64,3.64,13.77,1.39,15.45.81a20.94,20.94,0,0,0,11-9.13,20.54,20.54,0,0,0,.37-19.89c-.63-1.13-4.7-8.21-12.44-9.4C225,172.57,221.6,174,218.75,175.26Z"/><path class="cls-9" d="M199,198.23c-1.2.52-3.62,1.55-4.86,3.86-1.89,3.51-.59,9.06,3.23,11.15a8.29,8.29,0,0,0,6.52.34,8.82,8.82,0,0,0,4.65-3.85,8.65,8.65,0,0,0,.15-8.39c-.26-.48-2-3.47-5.24-4A7.81,7.81,0,0,0,199,198.23Z"/><path class="cls-9" d="M352.33,265.83c-.12,5,3.71,8.78,6.19,11.13,9.6,9.08,14.4,13.63,24.52,18.88,6.75,3.51,16.85,8.64,30.32,10.89a84.36,84.36,0,0,0,8.81,1c10.05.58,15.66.91,21.6-2.49,10.93-6.26,13.59-19.76,16-32.18a77.12,77.12,0,0,0,1.45-15.84,75.33,75.33,0,0,0-2.66-19.09c-2-7.09-3.06-10.74-6.24-13.84-2.62-2.55-6.62-4.66-18.31-5.22l-3.77-.17c-9.84-.39-20.95-.24-34.08,5.13-9.54,3.88-15.14,8.48-25.55,17,0,0-6.33,5.18-15.38,17.66A12.53,12.53,0,0,0,352.33,265.83Z"/><path class="cls-10" d="M352.33,265.83c-.12,5,3.71,8.78,6.19,11.13,9.6,9.08,14.4,13.63,24.52,18.88,6.75,3.51,16.85,8.64,30.32,10.89,12.88-3.84,19.18-19.13,23.38-29.31,2.36-5.71,6.13-15.12,5.89-27.78-.11-6.34-.21-11.82-3.18-18-1.1-2.3-3.93-6.12-9.19-12.74-9.84-.39-20.95-.24-34.08,5.13-9.54,3.88-15.14,8.48-25.55,17,0,0-6.33,5.18-15.38,17.66A12.53,12.53,0,0,0,352.33,265.83Z"/><path class="cls-9" d="M418.06,235.63c-3,.64-9.12,1.92-13.09,6.71-6,7.28-5.6,20.76,2.3,27.41,5.79,4.88,13.23,4.07,15,3.83a21,21,0,0,0,12.61-6.78,20.52,20.52,0,0,0,4.27-19.43c-.39-1.23-3-9-10.34-11.66C424.73,234.23,421.1,235,418.06,235.63Z"/><path class="cls-9" d="M394.18,254.27a9.44,9.44,0,0,0-5.53,2.83c-2.54,3.07-2.36,8.76,1,11.57a8.28,8.28,0,0,0,6.33,1.61,8.79,8.79,0,0,0,5.32-2.86,8.63,8.63,0,0,0,1.8-8.19c-.16-.52-1.26-3.79-4.36-4.92A7.76,7.76,0,0,0,394.18,254.27Z"/><ellipse class="cls-11" cx="255.07" cy="293.07" rx="4.41" ry="5.87"/><ellipse class="cls-11" cx="280.75" cy="301.83" rx="5.87" ry="4.41" transform="translate(-111.56 428.38) rotate(-64.95)"/></g></g></svg>