<svg xmlns="http://www.w3.org/2000/svg" viewBox="0 0 536 329.5"><defs><style>.cls-1{fill:#fff;stroke:#707070;stroke-linecap:round;stroke-linejoin:round;stroke-width:4px;}</style></defs><g id="Camada_2" data-name="Camada 2"><g id="Camada_1-2" data-name="Camada 1"><path class="cls-1" d="M456.33,297.65a159.34,159.34,0,0,0,38-31.61"/><path class="cls-1" d="M455.21,297.49l.4.25c3.17,2,7.19,4.48,12.27,7.6,16.2,10,28.77,17.84,35.62,22.16a417.84,417.84,0,0,0-7.91-54.61c-.56-2.6-1.07-4.84-1.56-6.77l.33-.08.63-.71A158.4,158.4,0,0,0,534,161h0A159,159,0,0,0,375,2H161A159,159,0,0,0,2,161H2A159,159,0,0,0,161,320H375a158.2,158.2,0,0,0,81.33-22.35"/></g></g></svg>