<svg xmlns="http://www.w3.org/2000/svg" viewBox="0 0 199.53 467.73"><defs><style>.cls-1{fill:#1a2927;}.cls-2{fill:#964a32;}.cls-3{fill:#87412e;}.cls-4{fill:#f4ebd4;}.cls-5{fill:#ef0750;}.cls-6{fill:#923524;}.cls-7{fill:#fff;}.cls-8{fill:#351406;}.cls-9{fill:#1e2a28;}.cls-10{fill:none;stroke:#000;stroke-linecap:round;stroke-miterlimit:10;}.cls-11{fill:#f7f7f7;}</style></defs><g id="Camada_2" data-name="Camada 2"><g id="Pronto"><path class="cls-1" d="M154.59,99.08l.28.29c3.94,4,9.52,5.95,12.23,5.85,9-.33,18-24.15,11.45-30.7-5.39-5.37-21.59.57-21.41,2.42.22,2.29,26.34,5.64,32.06-4,3.05-5.14.47-14.25-4.74-17.44-6-3.68-14.31-2.39-14.62-.76-.24,1.29,4.36,4.25,8.08,3.47,5.92-1.24,9.51-11.9,8.4-19.67C184,22,158.69,8.29,144.41,15c-7.23,3.38-13,12.59-10.95,16,1.39,2.3,6.93,2.67,9.13.31,4-4.34-1.34-19.83-11.32-26.66C114.76-6.74,84.54,5,82,17.84,80.27,26.73,91.49,37.43,92.25,37c.94-.57-6.55-22.36-19.31-24.56-9-1.55-16.71,7.31-17.63,8.39-7.74,9.13-9,24.61-1.11,32.49,6.45,6.46,18.09,6.87,18.92,4.8.93-2.32-9.87-12.16-19.63-10.18S37.84,63.57,40,74.56C42,84.81,51.31,94,59.45,93.47c8.58-.59,14.56-12,15.79-11,1.45,1.09-8.13,12.94-4.59,18.09,1.91,2.78,6.86,2.44,9,2.3,11.77-.76,33.25-.55,64.66.65"/><path class="cls-2" d="M66,336.75c-1,.92-2.91,3.3-1.32,21.17a228.49,228.49,0,0,0,4.63,29.77c8.45,37.84,12.8,56.88,19.19,62.86,1.33,1.25,8.12,7.36,6.61,10.58-.86,1.85-4,1.84-4,2.65.09,1.14,6.48,1.43,10.59,1.32,5.1-.13,6.12-.86,6.61-1.32,2.3-2.16,1.57-6.35,1.33-7.94-1.35-8.73,1.23-17.63,1.32-26.47.2-18.66,1.77-16,1.32-27.78-.4-10.55-1.59-11.23-2.64-26.47-1.09-15.84.14-16-1.33-19.85C102.09,338.77,74.4,329.07,66,336.75Z"/><path class="cls-2" d="M149.47,332.4c1,.62,3.65,2.67,5.34,20.53a209.65,209.65,0,0,1,.54,30.79c-2.23,51-.76,57.06-6.26,64.68-1.09,1.52-6.56,8.79-4.47,11.65,1.2,1.65,4.31,1,4.4,1.85.13,1.13-6.09,2.63-10.14,3.31-5,.85-6.17.33-6.75,0-2.66-1.68-2.75-5.94-2.81-7.55-.35-8.82-4.57-17.07-6.35-25.72-3.75-18.28-4.78-15.36-6.59-27-1.62-10.43-.58-11.32-2.45-26.48-2-15.76-3.19-15.69-2.49-19.74C114.47,341.26,139.79,326.46,149.47,332.4Z"/><path class="cls-3" d="M107.05,208.39c1.13,10,0,11.91,0,11.91-2.2,3.3-6,2.36-9.26,5.3-4.31,3.94-3.17,10.56-3.31,16.54-.12,5-3.61,13-10.59,29.11C77.43,286.13,73,293.21,69.34,307c-.68,2.5-1.13,4.41-1.32,5.29-1.93,8.58-3.66,16.31-2.65,25.14.47,4.12,2.14,18.7,12.57,24.48a14.13,14.13,0,0,0,2.25,1.05c4.23,1.51,11,1.31,36.12-1.05,11.16-1.05,13-1.3,15.88-2.65,11.43-5.33,16-16.93,17.2-19.85,4.09-10.25,2.86-19.22,1.33-30.43-1-7.25-1.8-7.41-6.62-25.14-6.73-24.78-10.09-37.16-9.26-42.34.7-4.41,2.67-12.22-1.33-15.88-2.3-2.12-5-1.38-6.61-4s.27-4.56,0-10.59c-.17-3.8-.32-7.18-2.65-9.26-3-2.7-8.39-2.08-11.91,0A12.61,12.61,0,0,0,107.05,208.39Z"/><path class="cls-4" d="M65.86,325.69c-1.13-.06-3.35,13.92-4.54,27.18-2,22-3.36,39.86,5.44,43,1.6.58,2.47.28,6.35,0,22.88-1.67,37.38,5.27,40.78.76.72-1,.48-3.42,0-8.31-.21-2.15-.4-2.56-.91-6-.1-.67-1.3-9-.9-9.06s1.85,4.88,2.71,10.57c1.37,9-.35,11,1.82,12.84,3.63,3,10.18-1.08,23.56-1.51,14.31-.47,17.27,3.92,21.75,1.51,6.68-3.6,3.34-18.81-3.62-49.08-.46-2-5-21.36-7.26-21.13-.73.07-.43,2.11-1.81,3.77-3.78,4.57-16.59,1.88-24.47.76-31.25-4.47-53.68,5.87-58-1.51C65.71,327.66,66.28,325.71,65.86,325.69Z"/><path class="cls-2" d="M106.15,227.58c.26.56-1.25,1.45-3.76,4C96.19,237.76,94.7,243,92.14,247c-2.9,4.51-8.86,7.2-20.77,12.59-15.92,7.19-23.88,10.79-33.1,10.2-4.45-.29-9.49-1.41-13.12,1.71-2.46,2.11-2.36,4.53-6.35,8.57-2.87,2.9-3.19,1.93-5.56,4.46-3.94,4.21-3.42,7.29-7.65,10.88-1.49,1.27-3.14,2.66-4.26,2.16-2.26-1-1.55-9.42,1.39-15.93,4.21-9.33,12.53-13.76,14.36-14.69,3.91-2,4.64-1.26,9.66-3.66A52,52,0,0,0,39,255c5.49-4.72,13.59-8.18,29.78-15.1C83.22,233.78,105.19,225.55,106.15,227.58Z"/><path class="cls-2" d="M131,224.38c-.5.36.37,1.88,1.32,5.29,2.35,8.46,1,13.8,1.32,18.53.31,5.35,4.18,10.62,11.91,21.17,10.33,14.09,15.5,21.13,23.82,25.14,4,1.94,9,3.44,10.59,7.94,1.1,3.05-.17,5.11,1.32,10.59,1.07,3.93,1.83,3.24,2.65,6.61,1.36,5.6-.6,8,1.32,13.24.68,1.83,1.42,3.86,2.65,4,2.47.21,6-7.45,6.61-14.56.92-10.19-4.15-18.14-5.29-19.85-2.44-3.64-3.42-3.38-6.62-7.94A52,52,0,0,1,176,281.28c-2.46-6.81-7.82-13.8-18.53-27.79C147.91,241,132.8,223.08,131,224.38Z"/><path class="cls-2" d="M181.71,309.34c-.75,0-1.3.77-2.15,2-1.51,2.23-2.7,4-2.28,6.21.24,1.22,1.09,3.28,2.41,3.42,2.09.22,5.2-4.4,4.43-8.24C183.84,311.31,182.87,309.37,181.71,309.34Z"/><path class="cls-2" d="M17.23,276.8c.7.27.91,1.21,1.22,2.7.56,2.64,1,4.71-.25,6.61-.68,1-2.26,2.62-3.53,2.24-2-.59-3.13-6-1-9.3C14.52,277.81,16.15,276.38,17.23,276.8Z"/><path class="cls-2" d="M178,160.84c2.38-1.59,3.9-1.76,5-1.66,3,.27,5.14,2.81,6.07,5,1.45,3.38.14,6.59-.55,8.29a13.07,13.07,0,0,1-6.63,7.18,11.94,11.94,0,0,1-8.28.55c-1.48-.47-3-.94-3.87-2.21C166.84,173.93,171.87,164.93,178,160.84Z"/><path class="cls-2" d="M147.56,87.37A43.73,43.73,0,0,1,160.85,94a44.51,44.51,0,0,1,11.39,13.29,59.12,59.12,0,0,1,7.6,19,99.55,99.55,0,0,1,.95,34.18c-1.25,6.64-3.24,16.68-10.34,26.39a61.73,61.73,0,0,1-8.17,9,59.82,59.82,0,0,1-13.07,9,62.24,62.24,0,0,1-13.88,4.9,86.8,86.8,0,0,1-17.15,2.45c-1.92.09-3.7.17-5.82.12,0,0-1.19,0-2.35-.12-10-.68-21.23-5.71-21.23-5.71a75.08,75.08,0,0,1-13.89-8.17,58.06,58.06,0,0,1-11.43-10.62,38.26,38.26,0,0,1-7.35-13.06c-1.45-4.68-1.51-8.45-1.59-13.2a108.18,108.18,0,0,1,.95-13.29,144.18,144.18,0,0,1,3.8-22.78c1.64-6.2,3.6-13.6,7.59-19.94C79,86.1,105.7,83.32,112.43,82.62,128.43,81,140.6,85,147.56,87.37Z"/><path class="cls-2" d="M60.16,155.57c-1.51-2.43-2.83-3.21-3.84-3.56-2.8-1-5.85.42-7.59,2-2.71,2.48-2.85,5.94-2.92,7.77a13,13,0,0,0,3.06,9.28A11.88,11.88,0,0,0,56.19,175c1.53.19,3.07.37,4.43-.41C64.92,172.11,64.06,161.84,60.16,155.57Z"/><path class="cls-5" d="M57.68,74.64C56.33,80,58.44,87.88,62,88.87s6.68-5.78,13.52-11.38c10.77-8.83,23.93-9,39.12-9.25,8.44-.12,22-.33,37,6.4,11.61,5.24,18.12,12,20.63,10s-.65-11.85-5-17.78C146.31,38.19,63.61,51.27,57.68,74.64Z"/><path class="cls-6" d="M106.75,166.44c-1.13-1.89,3.51-9,9.87-9.68,6.75-.73,13,6,12.18,8.05-.44,1.07-2.69.35-9.8.81C110.27,166.19,107.47,167.66,106.75,166.44Z"/><path class="cls-7" d="M103.26,147.85a14.33,14.33,0,0,0-2-8.07,15.77,15.77,0,0,0-10.09-7.06A16,16,0,0,0,72,144.83a16.85,16.85,0,0,0-.2,4.28c.12,2.15.28,5.37,1.85,7.39,1.77,2.29,4.86,2.43,10.25,2.59,8.31.24,13.08.38,16.36-3.16A12.92,12.92,0,0,0,103.26,147.85Z"/><path class="cls-8" d="M93.42,138.67a10.38,10.38,0,0,0-8.08-1,11.34,11.34,0,0,0-5,3,11.74,11.74,0,0,0-3,6.06,9.62,9.62,0,0,0,1,7.06c2.17,3.42,6.14,3.92,7.06,4a10.89,10.89,0,0,0,6.06-1,11.2,11.2,0,0,0,5-5.05,10.28,10.28,0,0,0,1-8.07A9.65,9.65,0,0,0,93.42,138.67Z"/><path class="cls-7" d="M133.71,149.11a14.82,14.82,0,0,1,1.85-7.4,15.82,15.82,0,0,1,10-7.36,16.06,16.06,0,0,1,10.09,1,16.61,16.61,0,0,1,9.08,11.1,17,17,0,0,1,.37,5.42c-.16,1.85-.38,4.61-1.85,6.47-2,2.57-5.67,2.53-12.44,2.37-7.8-.18-11.7-.28-14.34-3.16S133.73,150.4,133.71,149.11Z"/><path class="cls-8" d="M143.33,140.31a10.28,10.28,0,0,1,8.08-1,11.13,11.13,0,0,1,5,3,11.7,11.7,0,0,1,3,6,9.7,9.7,0,0,1-1,7.07c-2.17,3.41-6.14,3.91-7.06,4a10.78,10.78,0,0,1-6.06-1,11.29,11.29,0,0,1-5-5,10.39,10.39,0,0,1-1-8.08A9.57,9.57,0,0,1,143.33,140.31Z"/><path d="M90.8,144.44a5.15,5.15,0,0,0-4-.5,5.6,5.6,0,0,0-2.51,1.51,5.79,5.79,0,0,0-1.51,3,4.33,4.33,0,0,0,4,5.53,5.4,5.4,0,0,0,5.53-3,5.14,5.14,0,0,0,.51-4A4.76,4.76,0,0,0,90.8,144.44Z"/><path d="M145.93,146.13a5.13,5.13,0,0,1,4-.51,5.61,5.61,0,0,1,2.52,1.51,5.92,5.92,0,0,1,1.51,3,4.34,4.34,0,0,1-4,5.53,5.38,5.38,0,0,1-3-.5,5.6,5.6,0,0,1-2.51-2.51,5.13,5.13,0,0,1-.5-4A4.72,4.72,0,0,1,145.93,146.13Z"/><path d="M103.39,149.69c.56-.11.61-3.27-.07-6a14.94,14.94,0,0,0-2.77-5.55,19,19,0,0,0-6.47-5.54,14.85,14.85,0,0,0-8.32-1.85,16.28,16.28,0,0,0-8.32,3.69c-2.76,2.08-3.45,3.69-6.63,5.06a8,8,0,0,1-4.08.82c-2.4-.28-3.9-1.87-4.09-1.64s.83,1.66,2.45,2.45,3.24.54,3.27.82-1.14.71-2.45.82c-3.28.27-5.58-1.83-5.72-1.64-.32.48,7.28,8.47,11.44,6.54,1.75-.82,1.25-2.64,3.26-5.72.25-.38,4.73-7,12.25-7.35a15.22,15.22,0,0,1,10.62,4.08C102.52,143.22,102.58,149.84,103.39,149.69Z"/><path class="cls-7" d="M82.64,150a1.62,1.62,0,0,0-1.87,1.56,1.49,1.49,0,0,0,1.3,1.3,1.59,1.59,0,0,0,1.71-1.68A1.45,1.45,0,0,0,82.64,150Z"/><path class="cls-7" d="M145.7,151.57a1.61,1.61,0,0,0-1.87,1.56,1.49,1.49,0,0,0,1.3,1.3,1.61,1.61,0,0,0,1.72-1.68A1.46,1.46,0,0,0,145.7,151.57Z"/><path d="M133.14,151.22c-.56-.1-.61-3.27.07-6a14.88,14.88,0,0,1,2.77-5.54,18.84,18.84,0,0,1,6.47-5.55,14.91,14.91,0,0,1,8.32-1.85c2.38.22,4.36,1.4,8.32,3.7a62.17,62.17,0,0,0,8.09,4.34,8.85,8.85,0,0,0,4.08.81,16.2,16.2,0,0,0,3.27-.81c.1.2-2,2.05-4.9,2.45-1.89.26-3.21-.23-3.27,0s1.93,1.41,4.26,1.53c3.37.17,5.55-1.87,5.71-1.63.33.47-7.27,8.46-11.43,6.53-1.75-.81-1.26-2.63-3.27-5.72-.24-.38-4.72-7-12.25-7.35a15.25,15.25,0,0,0-10.61,4.09C134,144.75,134,151.38,133.14,151.22Z"/><path class="cls-7" d="M153.66,144.87a2.94,2.94,0,0,0-3.39,2.83,2.7,2.7,0,0,0,2.35,2.35,2.91,2.91,0,0,0,3.11-3A2.64,2.64,0,0,0,153.66,144.87Z"/><path class="cls-7" d="M92.8,143.62a2.94,2.94,0,0,0-3.39,2.82,2.72,2.72,0,0,0,2.35,2.36,2.92,2.92,0,0,0,3.11-3A2.63,2.63,0,0,0,92.8,143.62Z"/><path class="cls-9" d="M96.49,86.77c1.57-.34,2.4,4.89,7.14,7.15,3.32,1.57,8.21,1.53,10.72-.9C116,91.45,116,89.47,117,89.45c1.18,0,1.41,2.66,3.57,5.36.56.71,3.54,4.44,7.14,4.46,3.86,0,4.85-4.25,9.83-4.46a7.6,7.6,0,0,1,3.57.89c4.1,2.2,6.27,8.5,4,12.75-1.63,3-5.61,5.19-7.35,4.09-1.25-.8-1.29-3.25-.82-4.9.94-3.31,4.25-4.64,4.09-4.9s-7.23,1-9,6.53a8.32,8.32,0,0,0,1.64,8.17c3.28,3.38,8.47,1.8,9,1.63,3-1,4.67-3.22,6.53-5.72,3.56-4.78,4.26-8.91,5.32-8.72.73.13.67,2.08,1.79,6.25.88,3.29,1.34,5,2.68,6.25,3.09,2.91,7.83.58,8.93,2.68.62,1.18-.7,2.25-2.68,7.15-1.65,4.07-2.5,6.09-1.79,7.14,1.9,2.8,11.59-2.28,13.52.49,1.52,2.19-3.51,6.85-1.63,9.8,1.29,2,4.41,1,5.71,3.27.72,1.25.37,2.61-.63,6.09-1.94,6.73-1.92,7.82-2.68,8.93a13.09,13.09,0,0,1-4,3.76,12.34,12.34,0,0,0,.67,7.83c.05.13.1.23.15.34,1.6,3.27,6.54,6.65,10.62,4.9a7,7,0,0,0,4.08-5.72c.33-3.85-2.78-6.75-3.27-6.53-.19.08.06.64,0,1.63-.15,2.55-2.22,5.15-3.26,4.9s-1.73-3.3-.82-5.72c1.05-2.79,3.76-3.41,7.35-5.71a35.47,35.47,0,0,0,8.17-7.72c2.81-3.8,2.55-11.25.89-25.9-3-26.61-1.15-23.93-2.68-28.57-6.28-19.09-25.89-28.44-39.29-34.83-9.58-4.57-28.28-13.18-52.69-9.82A76.76,76.76,0,0,0,66.12,70.7c-18.25,14.13-24,32.31-26.79,41.08-2,6.2-8.23,26-.89,33.93a36.14,36.14,0,0,1,5.36,7.14c4.09,3.48,7.26,3.19,9,6.24,1.18,2,.67,3.61,0,9-1.31,10.57-2,15.85,0,18.79,2.73,4,7,2.75,9,7.35,1.14,2.63,1.34,6.71-.82,8.16a3.77,3.77,0,0,1-4.08,0c-2.56-1.83-1-7.25-1.64-7.35s-3,4.24-1.63,8.17c1.71,4.88,8.85,7.75,12.25,5.72,4.11-2.46,3.75-12.61-.82-18-3.47-4.08-7.28-2.9-9-6.53-2.06-4.41,3.22-6.83,3.27-15.52a63.94,63.94,0,0,0-2.19-15.14c-.51-1.94-1.25-4.44,0-6.25s3.44-.91,5.36-2.68,2-5.17,1.79-9.83c-.2-5.92-1.53-8.06,0-9.82,1.17-1.35,2.63-.87,5.36-1.79,3.27-1.09,5.19-3.13,8-6.25,15.54-17,16.43-19,17-21.43C95.75,91.1,95.1,87.07,96.49,86.77Z"/><path class="cls-6" d="M110.83,187.53c0-2.42,2.56-4.06,3.17-4.44a8.26,8.26,0,0,1,7-.63c1.85.75,4.51,2.7,4.44,5.07-.11,3.13-5,5.77-8.88,5.07C114,192.16,110.87,190.18,110.83,187.53Z"/><path class="cls-10" d="M104.51,182.28a18.12,18.12,0,0,0,4.24,2.82,19.05,19.05,0,0,0,12.37,1.36c3.06-.78,5.58-2.36,8.48-4.18.89-.56,1.62-1.06,2.12-1.42"/><path class="cls-4" d="M22.22,264a2.48,2.48,0,0,0-.59,1.84c.15.57.66.75,1.25,1,.41.14.64.22.93.1a2.28,2.28,0,0,0,1-1.8c.07-.78-.23-1.78-1-1.92S22.31,263.89,22.22,264Z"/><path class="cls-5" d="M105.93,217.07c2.94.26,5.18.72,5.68.79,2.31.33,4.76.66,6.57.85,0,0,5.78.59,8.18-.55a4.08,4.08,0,0,1,.8-.27,5.24,5.24,0,0,1,1.64,0c2,.41,3.26,4.08,3.26,4.08,6.24,26.07,9.14,40.12,10.62,48.19.39,2.1,1.36,7.53,3.27,14.7,2.92,11,4.5,10.82,5.7,17.85,1.41,8.28,0,12.15,3.28,14.81,2.93,2.43,5.6.52,8.17,3.27,3.05,3.28,2.15,9.11.81,12.25a6.79,6.79,0,0,1-2.45,3.27,5.71,5.71,0,0,1-5.51.54c-2.87-1.54-2.63-6.28-3.47-6.26-1.09,0-.06,7.93-4.08,10.62a7.46,7.46,0,0,1-7.35,0c-4.16-2.33-4-8.19-5.72-8.17s-1.21,5.58-4.9,8.17c-3.52,2.47-9.74,1.49-13.07-1.64-2.92-2.73-3.13-6.66-4.08-6.53s.13,5-2.45,8.17c-3.26,4-11.44,4-14.7.81-2.94-2.87.42-10.17-.82-10.61s-2.71,6-8.17,9c-5.26,2.85-12.31,1.47-13.06-.82-.59-1.77,2.6-4.15,1.63-5.71-.08-.14-.43-.64-1.63-.82-4.84-.72-8.37,6.09-13.07,5.72-3.06-.25-5.77-3.37-6.53-6.54a8.27,8.27,0,0,1,1.63-7.35c2-2.19,3.93-1,6.53-3.26,2-1.74,2.72-4.05,3.57-6.75.7-2.23.49-2.72,1.33-6.32.57-2.39,1.12-4.1,1.64-5.72,2.28-7.09,5.07-12.54,8-20.11,1.55-4.06,2.49-7.08,3.45-10.1,1.09-3.42,6.9-25.44,9-31.85,3.15-9.69,1.58-3,9.8-19.6.45-.92,1.71-3.49,4.08-4.09A7.2,7.2,0,0,1,105.93,217.07Z"/><path class="cls-5" d="M109.92,226.74a14.57,14.57,0,0,0-6.9-4.44,20.22,20.22,0,0,0-12.78-.12c-2.26.67-8.95,2.63-9.93,6.85a15.24,15.24,0,0,1-.76,3.28c-1,2.65-3,4.91-3.33,4.72s.2-2,1.12-2.18a1.59,1.59,0,0,1,1.45.74c.75,1-.31,2.22.34,2.93.82.89,2.71-.1,3.28.76.27.4-.09.68,0,1.82a3.12,3.12,0,0,0,.71,2.2c1,.81,2.56-.69,3.65,0,.9.61.3,1.95,1.07,3.3.91,1.62,3.07,2,4.36,2.23,13.65,2.43,18.68-6,18.68-6A14.6,14.6,0,0,0,109.92,226.74Z"/><path class="cls-5" d="M133.05,222.37a14.45,14.45,0,0,1,8.2.2,20.25,20.25,0,0,1,10.64,7.09c1.49,1.82,5.93,7.2,4.36,11.24A15.41,15.41,0,0,0,155,244c-.65,2.77-.27,5.75.1,5.77a2.11,2.11,0,0,0,.3-2.43,1.59,1.59,0,0,0-1.62-.2c-1.2.44-1,2-1.92,2.23-1.18.28-2.19-1.61-3.14-1.22-.44.19-.31.63-1,1.52-.42.53-1.06,1.36-1.83,1.42-1.28.11-1.73-2-3-2-1.08,0-1.34,1.44-2.73,2.13-1.67.82-3.67-.08-4.86-.61-12.66-5.66-12.06-15.49-12.06-15.49A14.6,14.6,0,0,1,133.05,222.37Z"/><path class="cls-5" d="M110.83,465.34c-2.86,3.49-9.23,2.33-13.07,1.64-4.39-.8-9.13-2.67-9-4.09.07-.67,1.24-1,2.42-1.42a.38.38,0,0,0,0,.3,3.48,3.48,0,0,1,.38-.41,5.48,5.48,0,0,0,1.58-.83h0a1.53,1.53,0,0,0,.35-.37,1.1,1.1,0,0,0,.2-.47.11.11,0,0,0,0-.05,1.53,1.53,0,0,0,0-.3c-.06-1.51-2.73-2.55-2.46-3.79.41-1.88,6.65-.09,13.88-3.26,3.07-1.35,5.65-3.29,6.54-2.45.4.38.12,1,0,2.45-.26,3,.68,4.06.81,6.53C112.5,459.54,112.69,463.08,110.83,465.34Z"/><path class="cls-11" d="M98.64,460.44a5.29,5.29,0,0,0-1.61-.92,3.87,3.87,0,0,0-2.55-.24,3.48,3.48,0,0,0-.82.4.11.11,0,0,0,0-.05,1.53,1.53,0,0,0,0-.3,3.13,3.13,0,0,1,.63-.33C96.31,458.22,98.77,460.05,98.64,460.44Z"/><path class="cls-5" d="M91.53,461.36a3.48,3.48,0,0,0-.38.41.38.38,0,0,1,0-.3Z"/><path class="cls-11" d="M96.93,461.77a5.48,5.48,0,0,0-1.62-.93,4.11,4.11,0,0,0-2.2-.32,1.53,1.53,0,0,0,.35-.37C95.23,460,97,461.43,96.93,461.77Z"/><path class="cls-5" d="M131.18,466.19c3.49,2.85,9.51.44,13.13-1,4.15-1.66,8.42-4.42,8-5.79-.2-.65-1.42-.74-2.66-.91a.33.33,0,0,1,.11.28,3.77,3.77,0,0,0-.45-.33,5.63,5.63,0,0,1-1.71-.49h0a1.73,1.73,0,0,1-.41-.3,1.09,1.09,0,0,1-.29-.41s0,0,0-.06a1.43,1.43,0,0,1-.07-.28c-.24-1.49,2.17-3,1.66-4.2-.77-1.77-6.53,1.22-14.26-.45-3.27-.71-6.19-2.1-6.89-1.1-.31.46.09,1,.49,2.4.85,2.93.14,4.12.5,6.57C128.38,460.83,128.9,464.34,131.18,466.19Z"/><path class="cls-11" d="M142.15,459a5.25,5.25,0,0,1,1.4-1.22A3.79,3.79,0,0,1,146,457a3,3,0,0,1,.88.23s0,0,0-.06a1.43,1.43,0,0,1-.07-.28,3,3,0,0,0-.68-.2C144,456.32,142,458.6,142.15,459Z"/><path class="cls-11" d="M144.09,459.92a5.83,5.83,0,0,1,1.4-1.23,4.07,4.07,0,0,1,2.09-.75,1.73,1.73,0,0,1-.41-.3C145.41,457.88,143.92,459.61,144.09,459.92Z"/><path class="cls-9" d="M97.76,125.6c0,1.47-4.68,3-8.57,3.27s-4.89-.63-8.58-.82c-7.44-.36-12,3-12.25,2.45-.39-.82,9.39-9.24,20.83-8.16C93,122.7,97.78,124.16,97.76,125.6Z"/><path class="cls-9" d="M137.45,126c0,1.47,4.68,3,8.57,3.27s4.89-.64,8.58-.82c7.44-.36,12,3,12.25,2.45.39-.82-9.39-9.24-20.83-8.17C142.19,123.06,137.43,124.53,137.45,126Z"/><path class="cls-4" d="M23.52,267.09a2.53,2.53,0,0,0-.59,1.85c.15.57.66.75,1.25.95.41.15.64.23.93.11a2.28,2.28,0,0,0,1-1.8c.07-.78-.23-1.79-1-1.92S23.61,267,23.52,267.09Z"/><path class="cls-4" d="M24.71,269.36a2.53,2.53,0,0,0-.59,1.85c.15.57.66.75,1.25,1,.41.14.64.22.93.1a2.25,2.25,0,0,0,1-1.8c.07-.78-.23-1.79-1-1.92S24.8,269.26,24.71,269.36Z"/></g></g></svg>