<svg xmlns="http://www.w3.org/2000/svg" xmlns:xlink="http://www.w3.org/1999/xlink" viewBox="0 0 2945.74 1592.07"><defs><style>.cls-1{fill:none;}.cls-2{clip-path:url(#clip-path);}.cls-3{stroke-miterlimit:10;fill:url(#Gradiente_sem_nome_7);stroke:url(#Gradiente_sem_nome_2);}.cls-4,.cls-5{fill:#fff;}.cls-14,.cls-4{opacity:0.2;}.cls-5{opacity:0.3;}.cls-6{fill:#7ec2cb;}.cls-7{fill:#badce8;opacity:0.4;}.cls-8{fill:#f3dda4;}.cls-9{fill:#ecf2f0;}.cls-10{fill:#cfb197;}.cls-11{fill:#d6b8a1;}.cls-12{fill:#61907c;}.cls-13{fill:#789ea1;}.cls-14,.cls-15{fill:#ffefaa;}.cls-16{fill:#282828;}.cls-17{fill:#8a643f;}.cls-18{fill:#7a5028;}.cls-19{fill:#1f9855;}.cls-20{fill:#2dab6a;}.cls-21{fill:#2cac6d;}.cls-22{fill:#22a263;}.cls-23{fill:#1d9959;}.cls-24{fill:#23a96a;}.cls-25{fill:#189859;}.cls-26{fill:#f84f28;}</style><clipPath id="clip-path" transform="translate(361.74)"><rect class="cls-1" width="2266" height="1523"/></clipPath><linearGradient id="Gradiente_sem_nome_7" x1="1135.92" y1="1257.35" x2="1127.41" y2="-322.26" gradientUnits="userSpaceOnUse"><stop offset="0.28" stop-color="#b1f0e8"/><stop offset="0.49" stop-color="#a4d8e1"/><stop offset="0.82" stop-color="#92b7d8"/><stop offset="1" stop-color="#8babd4"/></linearGradient><linearGradient id="Gradiente_sem_nome_2" y1="761.75" x2="2266.5" y2="761.75" gradientUnits="userSpaceOnUse"><stop offset="0" stop-color="#fff"/><stop offset="1"/></linearGradient></defs><g id="Camada_2" data-name="Camada 2"><g id="Camada_1-2" data-name="Camada 1"><g class="cls-2"><path class="cls-3" d="M.5.5V1523H2266V.5Z" transform="translate(361.74)"/><path class="cls-4" d="M1528.49,619.89c5.72-15.08,58.48-8.35,73.15-5.87,96.43,16.3,158,121.26,164.69,132.85,76,132.23,38.26,282.2,52.77,283.88,17,2,8.69-209.51,141-338.48,18-17.58,113.71-106.73,237.48-92.8,155,17.43,233.15,182.92,252,222.92,43.88,92.92,41.14,175.76,40,196.53,0,0-4.44,83.4-42.76,159.23-120.38,238.23-806.88,320.33-891.29,144.74-39-81.22,21.71-278.32,37.36-398.89,2.5-19.22,3.77-35.9,4-39,.18-2.43,2.18-29.61,2-51-.23-26.56-.55-63.63-16-103-26.43-67.34-47-93-47-93C1532.51,633.64,1526.15,626.06,1528.49,619.89Z" transform="translate(361.74)"/><path class="cls-5" d="M-96.09,917.5c-10.2-77,70.84-174.35,132.85-222C62.44,675.75,161,600,277,631.8,380.82,660.22,429.18,755.71,436.2,770.1c28.58,58.66,27.46,115.95,31.84,115.56,7.76-.7-43.6-175.44,37.31-297.54,40.71-61.43,123.15-122,211.09-110.09,95.84,13,148.87,105.29,164.69,132.84,76,132.23,38.27,282.2,52.78,283.89,16.94,2,8.69-209.51,141-338.48,18-17.59,113.71-106.73,237.48-92.81,155,17.44,233.15,182.93,252,222.92,43.88,92.92,41.14,175.77,40,196.54,0,0-4.45,83.4-42.77,159.23C1434.59,1293.78-55.58,1223.34-96.09,917.5Z" transform="translate(361.74)"/><path class="cls-6" d="M-71.68,879H2359.18q.63,314.32,1.27,628.66l-99.82,1.46-2329.78-1.46Q-70.41,1193.32-71.68,879Z" transform="translate(361.74)"/><path class="cls-7" d="M-189.79,918.12c20.18-16.34,52.44-8.56,63.35-6.17,93.62,20.51,192.94-1.17,287.78,13.38,81.08,12.44,76.63,2.26,642.12,3.09,179.86.26,382.18.56,382.27,5.15.09,5.36-216.93,30.38-458.51,24.71-62.52-1.47-186.7-6.4-353.28,15.44-36.76,4.82-28.38,4.76-56.91,8.24-193.61,23.62-226.2-16.49-390.85-2.06-65.63,5.75-113.86,16.81-128.86-6.18C-212.63,958.47-206,931.25-189.79,918.12Z" transform="translate(361.74)"/><path class="cls-7" d="M2566.42,1020.17c-20.18-16.35-52.44-8.57-63.35-6.18-93.62,20.52-192.94-1.16-287.77,13.39-17.64,2.7-30.39,3.8-34.21,4.3-194.7,25.55-500.35-8.59-686.11-20.89-115.61-7.66-219.17-6.82-426.3-5.15-225.75,1.82-466.08,11.16-466,17.5.08,7.67,351.78,11.79,576.62,14.42,346.55,4,521.63,1.23,693,25.44,31.87,4.5,71.77,11.09,130.42,12.77,142.8,4.1,166.6-27.48,282.59-16.59,38.39,3.61,48.29,8.24,165.18,22.77,79.7,9.91,116.35,13,128.85-6.18C2589.26,1060.52,2582.63,1033.3,2566.42,1020.17Z" transform="translate(361.74)"/><path class="cls-8" d="M2485.38,1506.65c-55.8,83.08-192.64,78.09-252.52,76.34-549.9-16.11-1100.3,15.24-1650.39,8-424.34-5.6-723.39,20.08-791.37-132.16-27.66-61.93-5.14-126.54,0-141.28,11.34-32.56,31.29-62.58,57.53-89.3,116.46-118.62,357-172.78,520.78-98.69,96.26,43.52,124.65,112.59,213.06,107.09,84.51-5.25,108.32-71.41,207.43-85.45,72.67-10.29,107.6,18.52,199.53,46.72,167.6,51.42,315,36.52,405.84,27.34,189-19.11,334.79-86.45,348.34-57,8.19,17.85-41,51.49-31.57,67.22,9.32,15.47,62-8.51,159-29.62,39.43-8.58,81.14-14.07,164.58-25.06,114.67-15.1,142.23-13.76,157.83-12.54,55.21,4.31,96.36,17.51,122.88,26.21,72.34,23.71,112.65,36.92,144.29,71.78a177.93,177.93,0,0,1,23.32,32.7C2519.42,1362.47,2522.74,1451,2485.38,1506.65Z" transform="translate(361.74)"/><path class="cls-9" d="M2490.66,1293.25c-18.49,7.49-38.75,10.71-53.75,3.76-12.68-5.88-13-15-29.31-29.62-23.66-21.2-46.11-22.56-89.06-33-69.27-16.9-63.49-26.18-109.35-34.19-27.65-4.83-54.52-3.66-107.09-1.13-114.37,5.49-173.31,8.32-239,28.48-21.89,6.72-44.41,11.09-66.51,17.09-49,13.31-70.22,20.69-83.42,9.11-11-9.66-10.28-27.11-10.14-29.62,1.48-27,29.36-41.92,27-45.57-3.53-5.6-67.13,32.09-120.62,55.83-59.76,26.5-107.73,35.93-156.7,45.57-105.89,20.83-301.77,59.36-439.65-28.48-5.33-3.4-53.34-34.23-121.75-61.53-44.14-17.61-76.31-25.59-110.48-17.09-5.11,1.28-9.71,2.77-51.86,25.07-82.58,43.67-81.78,46.82-99.2,51.27-50.85,13-96-4.06-109.35-9.12-24.6-9.29-23.71-14.72-72.15-45.57-42.67-27.18-77.7-49.19-126.26-64.94a390,390,0,0,0-81.16-17.1c-8.18-.82-39.39-3.68-86.81,1.14-74.42,7.57-129.48,13.16-179.24,50.14-26.67,19.81-34.46,35.75-66.51,47.85-14.15,5.34-35.76,11-52.94,11,116.45-118.62,356.94-172.77,520.77-98.69,96.27,43.52,124.65,112.59,213.07,107.1,84.5-5.26,108.31-71.42,207.42-85.45,72.67-10.29,107.61,18.51,199.54,46.71,167.6,51.42,315,36.53,405.83,27.34,189-19.1,334.79-86.45,348.34-57,8.2,17.84-41,51.48-31.56,67.22,9.31,15.46,61.94-8.51,159-29.63,39.43-8.57,81.14-14.07,164.59-25.06,114.67-15.1,142.22-13.75,157.82-12.53,55.22,4.3,96.37,17.51,122.88,26.2,72.34,23.71,112.65,36.93,144.3,71.78A177.41,177.41,0,0,1,2490.66,1293.25Z" transform="translate(361.74)"/><path class="cls-8" d="M1280.28,1277.64a5.1,5.1,0,0,0-3.38,1.14c-.14.13-1.42,1.32-1.13,2.28.35,1.14,3.62,1.15,10.15,1.14,2.22,0,3.86-.06,4.51-1.14a2.45,2.45,0,0,0,0-2.28C1289.57,1277.17,1286.47,1277.33,1280.28,1277.64Z" transform="translate(361.74)"/><path class="cls-8" d="M1213.41,1258.31c-2.85.14-7.05.42-10.36,3.49-.42.38-4.34,4-3.45,7,1.06,3.49,11.08,3.54,31.06,3.49,6.81,0,11.84-.18,13.8-3.49a7.41,7.41,0,0,0,0-7C1241.83,1256.86,1232.36,1257.34,1213.41,1258.31Z" transform="translate(361.74)"/><path class="cls-8" d="M1123.48,1261.38a7.69,7.69,0,0,0-5.15,1.74c-.21.19-2.16,2-1.72,3.47.53,1.73,5.51,1.76,15.46,1.73,3.38,0,5.89-.09,6.87-1.73a3.7,3.7,0,0,0,0-3.47C1137.63,1260.66,1132.91,1260.9,1123.48,1261.38Z" transform="translate(361.74)"/><path class="cls-8" d="M1353.58,1247.27a7.71,7.71,0,0,0-5.15,1.73c-.21.2-2.16,2-1.71,3.47.52,1.74,5.51,1.76,15.45,1.74,3.39,0,5.89-.09,6.87-1.74a3.7,3.7,0,0,0,0-3.47C1367.73,1246.55,1363,1246.79,1353.58,1247.27Z" transform="translate(361.74)"/><path class="cls-8" d="M2322.77,1215.45a5.89,5.89,0,0,0-3.75,1.18c-.15.13-1.57,1.36-1.25,2.35.39,1.18,4,1.2,11.24,1.18,2.47,0,4.29-.06,5-1.18a2.37,2.37,0,0,0,0-2.35C2333.06,1215,2329.63,1215.12,2322.77,1215.45Z" transform="translate(361.74)"/><path class="cls-8" d="M2268.74,1192.7c-2.09.12-5.16.34-7.58,2.86-.31.32-3.18,3.31-2.53,5.73.78,2.86,8.11,2.9,22.73,2.86,5,0,8.66-.15,10.1-2.86a6.75,6.75,0,0,0,0-5.73C2289.54,1191.51,2282.6,1191.91,2268.74,1192.7Z" transform="translate(361.74)"/><path class="cls-8" d="M2217.59,1180.41a5.26,5.26,0,0,0-3.77,1.42c-.16.16-1.59,1.65-1.26,2.85.39,1.43,4,1.45,11.31,1.43,2.48,0,4.31-.08,5-1.43a3.42,3.42,0,0,0,0-2.85C2227.94,1179.82,2224.49,1180,2217.59,1180.41Z" transform="translate(361.74)"/><path class="cls-10" d="M1017.67,1441.34c-4.42.81-7.35,1.79-10,4-1.49,1.23-4.18,3.47-4,6,.32,4.53,9.67,7.09,13,8,8.7,2.38,15.5,1.32,24,0,9.94-1.55,12.67-3.64,14-6a6.92,6.92,0,0,0,1-5c-1.54-6.1-14.44-7.36-21-8A55.26,55.26,0,0,0,1017.67,1441.34Z" transform="translate(361.74)"/><path class="cls-11" d="M1027.67,1442.34a4.38,4.38,0,0,0-3,1c-.83.78-1.48,2.21-1,3,.65,1.06,2.8,0,7,0,4.61,0,6.46,1.36,8,0a3,3,0,0,0,1-3C1039.15,1442.06,1035.32,1442.13,1027.67,1442.34Z" transform="translate(361.74)"/><path class="cls-10" d="M1086,1407.58a10.54,10.54,0,0,0-5.24,2.09c-.78.65-2.19,1.83-2.09,3.15.16,2.37,5.06,3.71,6.81,4.19,4.56,1.25,8.12.7,12.58,0,5.21-.81,6.64-1.91,7.34-3.14a3.67,3.67,0,0,0,.52-2.62c-.81-3.2-7.57-3.86-11-4.2A29.08,29.08,0,0,0,1086,1407.58Z" transform="translate(361.74)"/><path class="cls-11" d="M1091.25,1408.1a2.3,2.3,0,0,0-1.58.53c-.43.4-.77,1.16-.52,1.57s1.46,0,3.67,0c2.41,0,3.38.71,4.19,0a1.55,1.55,0,0,0,.52-1.57C1097.26,1408,1095.25,1408,1091.25,1408.1Z" transform="translate(361.74)"/><path class="cls-10" d="M1187.7,1441.1c-4.42.81-7.35,1.8-10,4-1.48,1.24-4.18,3.48-4,6,.32,4.53,9.67,7.09,13,8,8.7,2.39,15.5,1.33,24,0,9.94-1.54,12.67-3.64,14-6a6.89,6.89,0,0,0,1-5c-1.54-6.09-14.44-7.35-21-8A55.29,55.29,0,0,0,1187.7,1441.1Z" transform="translate(361.74)"/><path class="cls-11" d="M1197.7,1442.1a4.43,4.43,0,0,0-3,1c-.83.78-1.48,2.22-1,3,.66,1.07,2.8,0,7,0,4.61,0,6.46,1.36,8,0a3,3,0,0,0,1-3C1209.18,1441.83,1205.35,1441.9,1197.7,1442.1Z" transform="translate(361.74)"/><path class="cls-10" d="M944.21,1435.61a9.37,9.37,0,0,0-4.67,1.87c-.69.58-1.95,1.62-1.86,2.8.15,2.11,4.5,3.3,6.06,3.73,4.06,1.11,7.23.62,11.19,0,4.64-.72,5.91-1.7,6.53-2.8a3.22,3.22,0,0,0,.47-2.33c-.72-2.84-6.74-3.43-9.8-3.73A25.78,25.78,0,0,0,944.21,1435.61Z" transform="translate(361.74)"/><path class="cls-11" d="M948.87,1436.08a2,2,0,0,0-1.4.47c-.39.36-.69,1-.47,1.4s1.31,0,3.27,0c2.15,0,3,.63,3.73,0a1.4,1.4,0,0,0,.47-1.4C954.23,1436,952.44,1436,948.87,1436.08Z" transform="translate(361.74)"/><path class="cls-12" d="M1086.09,1466.86c-2.15-7.23,5.46-14.78,6.64-15.91a26.43,26.43,0,0,1,13.26-6.64c6.88-1.48,12.36-.16,18.57,1.33,3.49.84,8.08,2.77,17.25,6.63,10.34,4.36,15.37,6.88,18.57,11.94.7,1.11,2.27,3.68,1.32,5.31-1.07,1.84-4.81,1.48-6.63,1.32-7-.59-14.17.6-21.22,0-15.58-1.32-23.37-2-27.86-1.32-7.88,1.14-15.21,3.78-18.57,0A6.44,6.44,0,0,1,1086.09,1466.86Z" transform="translate(361.74)"/><path class="cls-13" d="M1099.36,1452.27c-.6-1.66,2.24-4.2,4-5.3,3.33-2.13,6.89-1.74,10.61-1.33a30,30,0,0,1,9.29,2.65c.66.3,8.4,3.72,8,5.31-.33,1.17-4.83.27-14.59,0C1105,1453.28,1100.07,1454.25,1099.36,1452.27Z" transform="translate(361.74)"/><path class="cls-10" d="M331.25,1359.34c2.16-7.23-5.45-14.78-6.63-15.92a26.5,26.5,0,0,0-13.27-6.63c-6.88-1.48-12.36-.16-18.57,1.33-3.49.84-8.07,2.77-17.24,6.63-10.35,4.36-15.38,6.87-18.57,11.94-.7,1.11-2.28,3.68-1.33,5.3,1.08,1.85,4.81,1.48,6.63,1.33,7.05-.59,14.18.6,21.23,0,15.57-1.32,23.36-2,27.85-1.33,7.89,1.15,15.22,3.79,18.57,0A6.41,6.41,0,0,0,331.25,1359.34Z" transform="translate(361.74)"/><path class="cls-11" d="M318,1344.75c.59-1.66-2.25-4.2-4-5.31-3.34-2.12-6.9-1.73-10.62-1.32a30,30,0,0,0-9.28,2.65c-.66.29-8.41,3.72-8,5.31.33,1.17,4.84.27,14.59,0C312.32,1345.76,317.28,1346.72,318,1344.75Z" transform="translate(361.74)"/><path class="cls-10" d="M345.21,1318.56a7,7,0,0,0-4.11,3.38,11.17,11.17,0,0,0-1.89,5.32c-.12,4.1,3.37,6.63,4.62,7.53,3.26,2.36,6,1.56,9.35.57,3.95-1.16,5.13-3,5.78-5.08a13.61,13.61,0,0,0,.67-4.49c-.27-5.54-5.22-7-7.74-7.73A9.84,9.84,0,0,0,345.21,1318.56Z" transform="translate(361.74)"/><path class="cls-11" d="M349.05,1319.7c-.28,0-.78,0-1.22.83a5.07,5.07,0,0,0-.56,2.69c.2,1,1.09,0,2.73.17,1.79.13,2.44,1.38,3.12.19a5.18,5.18,0,0,0,.55-2.69C353.54,1319.72,352,1319.7,349.05,1319.7Z" transform="translate(361.74)"/><path class="cls-10" d="M338.8,1370.2c-4.16.21-6.93.61-9.48,1.71-1.44.62-4,1.75-3.95,3.2.14,2.6,8.79,4.59,11.87,5.3,8.05,1.85,14.44,1.64,22.44,1.37,9.34-.31,12-1.35,13.29-2.62.4-.38,1.56-1.49,1.11-2.8-1.23-3.56-13.24-5-19.35-5.76A84.57,84.57,0,0,0,338.8,1370.2Z" transform="translate(361.74)"/><path class="cls-11" d="M344.1,1371.07a30.33,30.33,0,0,0-4.93,0c-1.37.18-2.47.6-1.7.91,1,.42,4.58.27,11.46.7,7.54.47,10.54,1.1,13.09.8,1.33-.16,2.32-.55,1.7-.91C362.9,1372.12,356.62,1371.77,344.1,1371.07Z" transform="translate(361.74)"/><path class="cls-12" d="M376.38,1342.81c-4.42.81-7.35,1.8-10,4-1.48,1.24-4.18,3.48-4,6,.32,4.53,9.67,7.09,13,8,8.7,2.38,15.5,1.33,24,0,9.94-1.54,12.67-3.64,14-6a6.91,6.91,0,0,0,1-5c-1.54-6.09-14.44-7.36-21-8A55.29,55.29,0,0,0,376.38,1342.81Z" transform="translate(361.74)"/><path class="cls-13" d="M386.38,1343.81a4.38,4.38,0,0,0-3,1c-.83.78-1.48,2.22-1,3,.66,1.06,2.8,0,7,0,4.61,0,6.46,1.36,8,0a3,3,0,0,0,1-3C397.86,1343.53,394,1343.61,386.38,1343.81Z" transform="translate(361.74)"/><circle class="cls-14" cx="2191.16" cy="300.58" r="218.37"/><circle class="cls-14" cx="2190.74" cy="301" r="279"/><circle class="cls-15" cx="2191.58" cy="301" r="172.15"/><path class="cls-16" d="M955,275c-1.32,2.23,18.91,9.9,31.1,31.76,8.4,15,7.53,26.72,12.32,27.22,6.44.67,8.32-20.39,24-38.24,20.8-23.72,51.32-22.95,50.54-26.57-.71-3.34-26.63-4.59-46,9.07-1.29.91-2.27,1.69-2.59,2-18.08,14.45-17.3,32-23.33,32.4-5.32.37-6-13.24-18.79-25.27C970.71,276.56,956.05,273.21,955,275Z" transform="translate(361.74)"/><path class="cls-16" d="M1058.62,205.92c-.64,1.08,9.23,4.83,15.18,15.49,4.09,7.34,3.67,13,6,13.28,3.15.33,4.07-9.95,11.7-18.65,10.16-11.58,25-11.2,24.67-13s-13-2.24-22.45,4.43c-.63.44-1.11.82-1.27.95-8.82,7.05-8.44,15.6-11.38,15.81-2.59.18-2.93-6.46-9.17-12.33C1066.3,206.66,1059.15,205,1058.62,205.92Z" transform="translate(361.74)"/><path class="cls-17" d="M255.47,860.15c-1,2-5.36,11-11.83,23.73-71.44,140.73-143,236.18-162.55,261.88a1165.76,1165.76,0,0,1-94.44,109.72c-13.77,14.12-28.81,28.8-45.12,43.74a1080.62,1080.62,0,0,1-101.87,82.64c-37.06,26.45-64.47,42.38-89,46.46a71.73,71.73,0,0,1-17.83.84,68.56,68.56,0,0,1-13.19-2.36c-22.85-6.42-43.31-24.13-58-46.33a149.15,149.15,0,0,1-10-17.71c-13.33-27.86-17.82-59.43-8.14-84.18a57.12,57.12,0,0,1,7.51-13.17c26.66-34.51,89.74-10.4,153-21.41,55.46-9.65,92.27-43,132-79,33.8-30.63,39.09-46.59,117-128,26-27.21,22-21.78,33-34,35.52-39.32,59.56-75.38,103.6-141.47,6.87-10.3,9.76-14.69,13.07-20.29,17.55-29.64,23.06-46.57,36.44-69.65a340.61,340.61,0,0,1,21-31.73C277.41,715.27,297.61,655,313,503c20.19,43.2,25,78.91,26,102C342.34,681.87,309.25,749.78,255.47,860.15Z" transform="translate(361.74)"/><path class="cls-18" d="M255.47,860.15c-4.08,8.33-8.06,16.29-11.83,23.73-71.44,140.73-143,236.18-162.55,261.88a1165.76,1165.76,0,0,1-94.44,109.72,147.11,147.11,0,0,0-25.84,20.36,125,125,0,0,0-19.28,23.38,1080.62,1080.62,0,0,1-101.87,82.64c-37.06,26.45-64.47,42.38-89,46.46a28.64,28.64,0,0,0-5.83-1.21c-3.42-.35-6.17-.07-12,2.05a68.56,68.56,0,0,1-13.19-2.36c-22.85-6.42-43.31-24.13-58-46.33a71.79,71.79,0,0,1,2.81-8.89,76.36,76.36,0,0,1,7.51-13.17C-309.38,1332.81-93.53,1240-47,1217,65.72,1161.33,39.76,1093.41,255.47,860.15Z" transform="translate(361.74)"/><path class="cls-19" d="M385.89,661.67c-6.89,14.42-46.74,9.27-68.27,6.48C289.25,664.49,266.69,656.82,245,648c-36.35-14.76-85.5-34.72-135.17-76.59-29.48-24.84-31.6-34.19-65.68-59.27C27.59,500,10.74,489.42,12.87,483.94c1.78-4.57,15.71-2.89,29.75-1.53,59.27,5.77,53.28-.68,86.73,4.5,61.38,9.51,106.83,35.14,127.7,47.14,39.09,22.49,63.39,45.14,80.71,61.48C364.17,620.46,392.71,647.4,385.89,661.67Z" transform="translate(361.74)"/><path class="cls-20" d="M122.72,532c.35-.78,13.42,5.48,96.14,38.5,24.88,9.93,48.24,24.67,74.42,30.3a141.72,141.72,0,0,1,48.83,21.35c2.68,1.86,10.12,7,9.38,8.47-1.45,2.87-33.27-10.44-51.64-18.23C228.22,582,121.72,534.18,122.72,532Z" transform="translate(361.74)"/><path class="cls-21" d="M350.68,628.14c-20.82,2.42-47.83-33.58-62.42-53-19.23-25.63-29.51-48.69-37.88-71.66-14-38.52-33-90.6-29.24-155.48,2.22-38.51,10.36-45.54,9.07-88-.62-20.62-3.2-40.57,4.32-41.9,6.28-1.11,15.84,11.41,25.83,23.84,42.18,52.46,44.1,43.85,65.87,74.55,39.94,56.33,49.9,108.53,54.22,132.64,8.09,45.16,4,78.12.83,101.73C376.48,586.83,371.28,625.74,350.68,628.14Z" transform="translate(361.74)"/><path class="cls-22" d="M264.79,345.79c1.1-.14,5.13,14.24,37.64,101.57,9.78,26.26,13.24,54,28.62,78.9,1.69,2.73,15.28,24.59,17.21,52.59.23,3.28.85,12.36-1.29,12.58-4.21.41-16.07-33.52-22.81-53.18C297.88,461.64,261.67,346.2,264.79,345.79Z" transform="translate(361.74)"/><path class="cls-19" d="M333.53,610.72c-1.09-12.47,23.58-26.91,36.9-34.7,17.56-10.28,33.19-15.36,48.71-19.3,26-6.61,61.21-15.55,104.36-10.45,25.61,3,30.09,8.17,58.43,9.3,13.76.54,27.12-.1,27.82,4.42.58,3.77-8,8.9-16.54,14.28-36,22.7-30.32,24.23-51.33,35.78-38.54,21.21-73.59,24.8-89.76,26.3-30.3,2.79-52.17-1.11-67.82-4C360.42,627.87,334.62,623.06,333.53,610.72Z" transform="translate(361.74)"/><path class="cls-20" d="M529.91,577.72c.07.66-9.62,2.41-68.64,17.83C443.53,600.19,425,601,408,609a85.87,85.87,0,0,1-35.48,7.88c-2.19,0-8.26,0-8.35-1.33-.17-2.52,22.74-8.05,36-11.18C451.87,592.22,529.71,575.85,529.91,577.72Z" transform="translate(361.74)"/><path class="cls-19" d="M354.49,603.19c21.7,2.22,43.68,40.21,55.54,60.72a219.61,219.61,0,0,1,15.19,31.15c4.48,11.39,14.45,39.58,15.79,107.24a673.31,673.31,0,0,1-5.82,104.6c-4.2,30.84-11.93,87.58-26.57,88.51-3.65.23-11-8.14-22.69-26.83-34.89-56-38.23-48.63-55.66-80.76-32-58.94-33.95-107.86-34.56-130.38-1.15-42.2,8.27-70.89,15.23-91.39C321.55,634.78,333,601,354.49,603.19Z" transform="translate(361.74)"/><path class="cls-20" d="M387.67,881.12c-1.15-.1-3-13.86-22.5-99-5.86-25.61-5-51.2-16.84-76.79C347,702.5,336.57,680,339,654.52c.29-3,1.09-11.26,3.32-11,4.37.51,11.15,33.45,15,52.49C372.09,770.25,390.92,881.41,387.67,881.12Z" transform="translate(361.74)"/><path class="cls-23" d="M333.28,640.74c2.85,6.86-14,18.42-23.17,24.67-12,8.22-23.38,13.26-34.83,17.64-19.2,7.34-45.16,17.28-79.57,20.42-20.42,1.86-24.74-.41-47,2.91-10.8,1.61-21.1,3.83-22.37,1.39-1-2,4.81-6.12,10.59-10.34,24.41-17.79,19.73-17.86,34.24-27.29,26.61-17.3,53.32-24.2,65.67-27.29,23.14-5.8,40.79-6.65,53.44-7.19C309.6,634.84,330.46,634,333.28,640.74Z" transform="translate(361.74)"/><path class="cls-20" d="M185.68,686.67c-.16-.36,7.11-2.7,50.58-19.6,13.08-5.08,27.4-8.13,39.34-15A83.47,83.47,0,0,1,302,642.68c1.7-.3,6.43-1.12,6.71-.41.53,1.39-16.42,7.69-26.25,11.3C244.12,667.64,186.13,687.69,185.68,686.67Z" transform="translate(361.74)"/><path class="cls-24" d="M318.11,611.44c10.08-21.31,60.5-25.67,87.73-28,35.89-3.1,64,.81,90.9,6.5,45.09,9.54,106,22.44,165.73,64.6,35.41,25,37.29,37,78.56,61,20.05,11.67,40.62,21.09,37.41,29.05-2.67,6.65-20.3,8.32-38.11,10.46-75.14,9-68.07,16-110.31,18.49-77.5,4.59-133.23-17-158.8-27.18-47.9-19.15-76.9-42.68-97.55-59.73C342.18,660.62,308.15,632.52,318.11,611.44Z" transform="translate(361.74)"/><path class="cls-25" d="M642.51,711.12c-.52,1.14-16.65-3.57-119.3-24.51-30.87-6.29-59.38-19.48-92.3-19.63-3.61,0-32.55-.05-60.42-14.87-3.26-1.74-12.3-6.54-11.22-8.72,2.1-4.26,41.54,4.61,64.29,9.87C512.29,673.77,644,707.9,642.51,711.12Z" transform="translate(361.74)"/><path class="cls-26" d="M2056.77,1416.82l-14.85-16.68a3.77,3.77,0,0,0-3.28-1.23,27.66,27.66,0,0,0-8.64-.91,28.3,28.3,0,0,0-13,4c-3.75,1.21-4.77.26-5,0-1.26-1.43.33-5.39,4-10a23.35,23.35,0,0,0,8-15.23,15.6,15.6,0,0,0,.51-1.73,18.15,18.15,0,0,0,.46-3l-10.31-19c-2.63-3.36-2.21-7-.69-8,1.29-.84,3.91-.11,6,2,2.84,2.25,10.83,8,20,6a20.17,20.17,0,0,0,4.1-1.39c3.2-1.41,10.15-5.23,15.9-15.61,3.92-3.77,7.72-5.12,9-4,1.11,1,.51,4-1,7a25.12,25.12,0,0,0,.93,21.93,3.87,3.87,0,0,0,.61,1.7,3.68,3.68,0,0,0,1.32,1.22l19.57,10.78c3.56,2.4,5.24,5.08,4.57,6.37s-3.28,1.06-4,1a42.76,42.76,0,0,0-10,2c-3.74,1.23-7.77,2.61-11.33,6.35-.54.57-1.88,1.23-2.19,2.74-.21,1-7.42,11.14-4.48,21.91.71,2.59,1.74,4.34,1,5C2063,1420.91,2059.63,1418.85,2056.77,1416.82Z" transform="translate(361.74)"/></g></g></g></svg>