<svg xmlns="http://www.w3.org/2000/svg" viewBox="0 0 182.32 431.32"><defs><style>.cls-1{fill:#d28f63;}.cls-2{fill:#050100;}.cls-12,.cls-3,.cls-7{fill:none;stroke-linecap:round;stroke-miterlimit:10;}.cls-3{stroke:#050100;}.cls-4{fill:#c68561;}.cls-5{fill:#14223c;}.cls-6{fill:#ce733e;}.cls-7{stroke:#000;}.cls-8{fill:#fff;}.cls-9{fill:#60270a;}.cls-10{fill:#fce5bc;}.cls-11{fill:#efd7af;}.cls-12{stroke:#efd7af;}</style></defs><g id="Camada_2" data-name="Camada 2"><g id="Pronto"><path class="cls-1" d="M149.78,240c2.72-5.29-6.36-13.81-17.29-26.18-14.4-16.3-22.33-28.3-23.85-27.49-.51.28.24,1.67.94,4.74,1.71,7.59.09,12.16,0,16.33,0,1.66.21,4.41,10.18,19.44C130,242.1,134.67,250,139.51,249.2c1-.16,1.92-.87,3.86-2.3A23.74,23.74,0,0,0,149.78,240Z"/><path class="cls-1" d="M34.06,239.28C30.74,234.61,43,220,52.82,208.67c12.93-14.91,25.34-29.17,27-27.94.48.36-.42,1.84-1.46,5.18-2.56,8.28-1.44,13.58-1.85,18.24,0,.22,0,.46-.09.74-1.58,8.9-7.83,15.06-12.28,19.8-12.24,13.05-15.19,23.2-19.8,22-.81-.2-2.4-1.37-5.59-3.72C35.91,240.93,34.5,239.9,34.06,239.28Z"/><path class="cls-2" d="M107.87,429.91c0,.41.68.79.94.93,3.15,1.68,21.75-1.44,21.4-3.73-.1-.65-1.92-.9-2.79-.93-1.7,0-2.57.73-5.59,1.87A21.52,21.52,0,0,1,119,429c-3.64.76-5.44-.83-9.3,0C108,429.35,107.89,429.77,107.87,429.91Z"/><path class="cls-2" d="M88.49,428c.12.4-.52.91-.74,1.09-2.79,2.24-21.64,2.63-21.72.32,0-.66,1.71-1.25,2.57-1.43,1.65-.36,2.66.23,5.83.79a19.27,19.27,0,0,0,2.92.39c3.72.08,5.19-1.82,9.14-1.73C88.25,427.5,88.45,427.89,88.49,428Z"/><path class="cls-1" d="M42.65,297.77c-1,.94-3,3.38-1.36,21.71A233.88,233.88,0,0,0,46,350c8.66,38.8,13.13,58.32,19.68,64.45,1.37,1.29,8.33,7.56,6.78,10.86-.89,1.89-4.14,1.89-4.07,2.71.09,1.17,6.64,1.47,10.86,1.36,5.23-.13,6.27-.88,6.78-1.36,2.36-2.21,1.61-6.51,1.36-8.14-1.38-8.95,1.26-18.08,1.35-27.14.21-19.14,1.82-16.39,1.36-28.49-.41-10.82-1.64-11.51-2.71-27.14-1.12-16.24.14-16.42-1.36-20.36C79.62,299.84,51.23,289.89,42.65,297.77Z"/><path class="cls-1" d="M128.22,293.31c1,.64,3.74,2.73,5.47,21.05a213.59,213.59,0,0,1,.55,31.58c-2.28,52.25-.78,58.51-6.41,66.33-1.12,1.55-6.73,9-4.59,12,1.23,1.69,4.42,1.06,4.51,1.88.13,1.17-6.24,2.71-10.4,3.41-5.16.86-6.32.33-6.91,0-2.74-1.72-2.82-6.09-2.89-7.74-.35-9.05-4.68-17.51-6.51-26.38-3.85-18.75-4.9-15.74-6.76-27.71-1.66-10.7-.59-11.61-2.51-27.16-2-16.16-3.28-16.09-2.55-20.24C92.32,302.4,118.29,287.21,128.22,293.31Z"/><path class="cls-3" d="M127.2,426.89c-.06-.13-1.92-.63-2.73-1.83"/><path class="cls-3" d="M127,427.06a10.17,10.17,0,0,0-3.9-.21,10.79,10.79,0,0,0-6.13,3.25"/><path class="cls-3" d="M69,428.82c0-.14,1.77-1,2.35-2.3"/><path class="cls-3" d="M69.22,428.77a9.89,9.89,0,0,1,3.79-.92,10.8,10.8,0,0,1,6.63,2"/><path class="cls-4" d="M84.71,166.14c1.16,10.24,0,12.21,0,12.21-2.25,3.38-6.2,2.42-9.5,5.43-4.41,4-3.24,10.83-3.39,17-.12,5.13-3.7,13.37-10.85,29.86C54.34,245.86,49.83,253.12,46,267.23c-.69,2.58-1.16,4.54-1.36,5.43-2,8.81-3.75,16.73-2.71,25.78.48,4.23,2.2,19.18,12.89,25.11a15.27,15.27,0,0,0,2.31,1.07c4.34,1.56,11.23,1.34,37-1.07,11.45-1.07,13.33-1.34,16.29-2.72,11.71-5.47,16.45-17.36,17.64-20.35,4.18-10.52,2.92-19.72,1.35-31.21-1-7.44-1.84-7.6-6.78-25.78-6.9-25.41-10.35-38.11-9.5-43.43.72-4.51,2.74-12.52-1.36-16.28-2.37-2.17-5.12-1.41-6.78-4.07s.28-4.67,0-10.86c-.18-3.9-.33-7.36-2.72-9.5-3.09-2.77-8.6-2.13-12.21,0A12.9,12.9,0,0,0,84.71,166.14Z"/><path class="cls-2" d="M76.2,10.62c-2.08,0-3-1-6.71-1-1.93,0-3.34.07-4.8,1s-1.8,1.94-2.88,1.93-1.39-1.2-2.88-1.93c-1.65-.81-3.38-.36-4.79,0a10.94,10.94,0,0,0-5.76,3.86,12.38,12.38,0,0,0-1.92,3.86,21.7,21.7,0,0,0-1,4.83c-.06,0,1.14-6.34,0-6.76-.92-.34-3.38,3.17-4.79,6.76a27.13,27.13,0,0,0-1,15.45c1.44,5.3,3.86,6.75,2.88,9.65-.88,2.58-3.61,3.83-5.76,4.83-3.85,1.77-8.94,2.4-9.59,1-.79-1.74,5.53-5.25,4.79-6.76-.6-1.21-5.8-1-8.63,1.94C21,51.76,21.19,55.4,21.52,60.82c.45,7.46,2.31,9,1.92,15.45-.22,3.59-.8,3.09-1,6.75-.05,1.27-.05,2.81,1.92,13.52,1.3,7.06,2.27,7.89,2.88,8.69.79,1,3.11,4.06,5.22,3.64,2.4-.47,3.49-6.52,5.58-18.61,2.58-14.85,2.56-14.85,2.8-15.82,2.53-10.3,4.29-17.5,10.38-22.31a47.85,47.85,0,0,1,13.43-6.76c4.64-1.54,6.25-1.36,25.9-2.89a195.79,195.79,0,0,1,20.15-1c5.34.08,8.08.14,11.51,1a36.77,36.77,0,0,1,16.31,8.69c2.35,2.19,5.11,6.64,10.55,15.44,4,6.53,6,9.79,6.71,11.59,2.68,7.15,2.36,13.54,1.92,22.2-.29,5.9-.94,8.68-1,16.41,0,9.62,1,11,1.92,11.58,3.83,2.45,12-4.32,15.35-7.72,5-5,10-13.09,7.68-16.41-1.26-1.78-3.72-.93-4.8-2.9-1.3-2.35,1.68-4.57,2.88-9.65,1.11-4.73-1-4.74-1.92-16.41-.33-4.25-.22-6.52-1.92-7.72-2.38-1.69-6.12.24-6.72-1s2.75-2.68,2.88-5.79c.08-1.92-1.13-2.22-1.92-4.83-1.28-4.25,1.32-5.63,0-8.69-.57-1.34-1-.82-6.71-5.79-1.36-1.17-2.5-2.2-2.88-1.93-.57.41,1.61,3,1,5.79-.53,2.32-2.81,4.28-3.84,3.87-1.27-.52.33-4.34-1-9.66A21.75,21.75,0,0,0,153,31.86a26.83,26.83,0,0,0-11.52-9.65c-2.53-1.06-6-2.5-8.63-1-.76.45-1.56,1.21-1.92,1-.55-.39,1-2.57,1-4.83,0-2.52-2-4.61-4.79-6.76C120.35,5.46,113.11-.11,102.1,0,97.71.05,90.46.12,84.84,4.83,81.88,7.3,79.9,10.62,76.2,10.62Z"/><path class="cls-5" d="M40.88,282c-1.16-.06-3.44,14.65-4.66,28.6-2,23.16-3.45,41.94,5.59,45.28,1.64.6,2.53.3,6.51,0,23.5-1.76,38.39,5.54,41.87.79.75-1,.5-3.59,0-8.74-.21-2.26-.41-2.69-.93-6.35-.1-.71-1.34-9.48-.93-9.53s1.91,5.13,2.8,11.12c1.4,9.49-.37,11.58,1.86,13.5,3.73,3.22,10.46-1.13,24.19-1.59,14.69-.49,17.74,4.13,22.33,1.59,6.86-3.78,3.43-19.79-3.72-51.63-.46-2.07-5.1-22.48-7.44-22.24-.76.07-.45,2.22-1.86,4-3.89,4.81-17,2-25.13.79-32.09-4.7-55.12,6.19-59.55-1.59C40.72,284,41.31,282,40.88,282Z"/><path class="cls-1" d="M159.15,113.18c2.44-1.63,4-1.8,5.1-1.7,3,.28,5.28,2.88,6.23,5.1,1.48,3.46.14,6.76-.57,8.5a13.35,13.35,0,0,1-6.79,7.36,12.28,12.28,0,0,1-8.5.57c-1.51-.48-3-1-4-2.27C147.7,126.61,152.86,117.38,159.15,113.18Z"/><path class="cls-1" d="M127.93,37.84a44.9,44.9,0,0,1,13.63,6.81,45.82,45.82,0,0,1,11.68,13.63A60.6,60.6,0,0,1,161,77.75c1.06,4.88,2.86,15.14,1,35.05-2,21.52-3.08,32.28-9.73,38.94a17.24,17.24,0,0,1-1.64,1.41,127.87,127.87,0,0,1-12,6.38c-8.94,4.16-15.91,6.05-29.83,9.83-9,2.42-11.62,2.82-14.89,2.79a45.92,45.92,0,0,1-14.67-2.88c-5.23-1.74-9.06-3.79-16.55-7.79-3.13-1.67-5.21-2.92-6.83-3.9a66.8,66.8,0,0,1-6.37-4.13,51.07,51.07,0,0,1-5.31-4.63c-3.69-3.66-9.63-9.57-11.67-18.5-.63-2.74-.42-7.34,0-16.55.15-3.39.36-7.82,1-13.63a148.28,148.28,0,0,1,3.9-23.36c1.68-6.36,3.69-13.94,7.79-20.45C57.63,36.54,85,33.69,91.91,33,108.31,31.26,120.79,35.44,127.93,37.84Z"/><path class="cls-1" d="M38.3,107.78c-1.55-2.49-2.9-3.29-3.94-3.65-2.87-1-6,.43-7.78,2.06-2.78,2.54-2.92,6.09-3,8a13.37,13.37,0,0,0,3.15,9.52,12.27,12.27,0,0,0,7.5,4c1.57.19,3.15.38,4.54-.43C43.18,124.74,42.3,114.21,38.3,107.78Z"/><path class="cls-2" d="M44.6,81c-1.08.5-3.63-1.44-4.65-3.73-.64-1.41-.6-2.77-.93-2.79s-.59,1-.94,2.79c-.85,4.54-.27,5.52-.93,8.38-.73,3.2-1.69,3-1.86,5.58-.11,1.79.32,2.59.93,5.59,0,0,.32,1.51.93,6.51.71,5.73.54,15.57-.93,15.82s-5.07-10.89-6.51-22.33c-1-7.62-1.75-14.43.93-22.34,1.71-5,2.5-3.13,8.38-14,4.57-8.43,5.49-12.06,10.23-16.74a33.48,33.48,0,0,1,7.45-5.59c9.25-5,20.74-5,21.4-2.79C79,38.49,57.87,44,49.25,58.62c-2,3.45-4.4,7.47-4.65,13C44.37,76.55,45.89,80.35,44.6,81Z"/><path class="cls-2" d="M156.26,79.1c-.53-.14-1,1.08-1.86.93a1.36,1.36,0,0,1-.93-.93c-.28-1,.82-1.54,1.86-3.73.61-1.28.69-2,1-2,.45,0,.73,1.72.93,2.79.85,4.54.27,5.51.93,8.38.73,3.2,1.69,3,1.86,5.58.12,1.79-.32,2.59-.93,5.58,0,0-.31,1.52-.93,6.52-.71,5.73-.54,15.57.93,15.82s5.07-10.89,6.51-22.34c1-7.61,1.75-14.42-.93-22.33-1.71-5-2.5-3.13-8.37-14-4.58-8.44-5.5-12.06-10.24-16.75a33.58,33.58,0,0,0-7.44-5.58c-6.44-3.48-18-6.91-21.41-2.79-4.31,5.17,3.62,22.79,13,24.35,3.62.61,7.48-1.18,14,.93a9.78,9.78,0,0,1,4.65,2.8,9,9,0,0,1,1.91,8.21c-.81,2.66-2.52,2.56-2.84,4.81-.46,3.18,2.53,6.15,4.65,7.45.93.57,2.65,1.62,3.72.93C157.7,82.82,157.1,79.31,156.26,79.1Z"/><path class="cls-6" d="M85.32,115.77A15.6,15.6,0,0,1,96.2,109c8-.9,13.09,5.2,13.43,5.63"/><path class="cls-7" d="M83.78,135.17a18.73,18.73,0,0,0,4.35,2.9,19.49,19.49,0,0,0,12.68,1.38c3.14-.79,5.73-2.41,8.7-4.28.92-.58,1.66-1.09,2.18-1.45"/><path class="cls-8" d="M82.5,99.87a14.69,14.69,0,0,0-2.07-8.28,16.27,16.27,0,0,0-10.35-7.25A16.45,16.45,0,0,0,50.42,96.76a17.74,17.74,0,0,0-.2,4.39c.06,1.19.28,4.9,1.89,7.59,3.24,5.41,11.46,5.59,12.8,5.62,1.8,0,9.7-.08,14.49-6.21A15.2,15.2,0,0,0,82.5,99.87Z"/><path class="cls-9" d="M72.41,90.45a10.58,10.58,0,0,0-8.28-1A11.41,11.41,0,0,0,59,92.52a12,12,0,0,0-3.1,6.21,9.94,9.94,0,0,0,1,7.25c2.23,3.5,6.3,4,7.25,4.14a11.15,11.15,0,0,0,6.21-1,11.49,11.49,0,0,0,5.17-5.17,10.62,10.62,0,0,0,1-8.28A9.94,9.94,0,0,0,72.41,90.45Z"/><path class="cls-8" d="M113.73,101.15a15.12,15.12,0,0,1,1.9-7.58A16.21,16.21,0,0,1,125.92,86a16.47,16.47,0,0,1,10.35,1,17.08,17.08,0,0,1,9.31,11.39A17.79,17.79,0,0,1,146,104a15.4,15.4,0,0,1-1.9,6.63c-3.33,5.32-11.37,5.39-13,5.4s-9.81.06-14.49-6.21A15.27,15.27,0,0,1,113.73,101.15Z"/><path class="cls-9" d="M123.59,92.13a10.6,10.6,0,0,1,8.28-1,11.57,11.57,0,0,1,5.18,3.11,12,12,0,0,1,3.1,6.21,9.86,9.86,0,0,1-1,7.24c-2.22,3.5-6.29,4-7.25,4.14a11.17,11.17,0,0,1-6.21-1,11.5,11.5,0,0,1-5.17-5.18,10.62,10.62,0,0,1-1-8.28A9.86,9.86,0,0,1,123.59,92.13Z"/><path d="M69.73,96.37a5.32,5.32,0,0,0-4.13-.52A5.77,5.77,0,0,0,63,97.4a6.09,6.09,0,0,0-1.55,3.1,4.45,4.45,0,0,0,4.13,5.67,5.51,5.51,0,0,0,3.1-.52,5.81,5.81,0,0,0,2.58-2.58A5.29,5.29,0,0,0,71.79,99,4.86,4.86,0,0,0,69.73,96.37Z"/><path d="M126.26,98.1a5.2,5.2,0,0,1,4.12-.52A5.72,5.72,0,0,1,133,99.13a5.93,5.93,0,0,1,1.55,3.09,4.46,4.46,0,0,1-4.13,5.68,5.58,5.58,0,0,1-3.09-.52,5.7,5.7,0,0,1-2.58-2.58,5.26,5.26,0,0,1-.52-4.13A4.83,4.83,0,0,1,126.26,98.1Z"/><path class="cls-2" d="M96.71,10.24c-4.49.81-8.34,2.9-15.82,7.44-8.9,5.4-11,8.24-12.1,10.24A22.22,22.22,0,0,0,66,38.15a22.16,22.16,0,0,0,2.79,12.1C70,52.31,73.59,58.59,79,58.62c4.18,0,7.84-3.64,7.44-4.65S81.22,54.91,80,53c-1-1.44.53-4.68,2.79-6.51,3.57-2.9,8.67-2.06,10.24-1.86,13.11,1.67,34.75-9.12,35.36-17.68C128.92,18.87,111,7.66,96.71,10.24Z"/><path d="M112.71,103.52c-.47-.06-.65-3.23.07-6.16a15.3,15.3,0,0,1,2.85-5.69A19.39,19.39,0,0,1,122.26,86a15.18,15.18,0,0,1,8.53-1.9,16.59,16.59,0,0,1,8.53,3.79,26.09,26.09,0,0,1,1.9,1.9,27,27,0,0,1,2.84,3.79c2.38,3.91,3.1,8.45,2.85,8.53s-.68-3.19-2.85-6.63c-.5-.8-6.67-10.32-16.11-9.48-5.85.51-9.61,4.71-10.43,5.68C113.11,96.9,113.4,103.62,112.71,103.52Z"/><path d="M82.63,101.75c.47-.07.66-3.23-.07-6.17a15.32,15.32,0,0,0-2.84-5.68,19.33,19.33,0,0,0-6.64-5.69,15.27,15.27,0,0,0-8.53-1.9A16.72,16.72,0,0,0,56,86.1c-.87.77-1.8,1.79-1.9,1.9a27.89,27.89,0,0,0-2.84,3.79c-2.37,3.91-3.1,8.45-2.84,8.53s.67-3.19,2.84-6.63c.5-.8,6.68-10.31,16.12-9.48,5.85.52,9.6,4.72,10.42,5.69C82.23,95.12,82,101.84,82.63,101.75Z"/><path class="cls-8" d="M71.38,97.84C69.53,98,67.5,99,67.59,99.73s2.15,1.11,3.79,1c1.85-.19,3.88-1.18,3.79-1.9S73,97.67,71.38,97.84Z"/><path class="cls-8" d="M134.77,99c-1.85.18-3.88,1.18-3.79,1.89s2.14,1.12,3.79,1c1.85-.18,3.88-1.18,3.79-1.89S136.41,98.79,134.77,99Z"/><path class="cls-8" d="M61.36,102a1.66,1.66,0,0,0-1.92,1.6A1.52,1.52,0,0,0,60.77,105a1.64,1.64,0,0,0,1.76-1.72A1.49,1.49,0,0,0,61.36,102Z"/><path class="cls-8" d="M126,103.68a1.66,1.66,0,0,0-1.92,1.6,1.54,1.54,0,0,0,1.34,1.33,1.65,1.65,0,0,0,1.76-1.72A1.49,1.49,0,0,0,126,103.68Z"/><path class="cls-2" d="M111,69.34c-2.31,2.28-2.81,6.71-1,8.56.71.71,1.72,1,9,.15,6.17-.73,6.17-1,8.64-1.14,4.27-.18,7.49.57,11.48,1.5a63.34,63.34,0,0,1,10.57,3.14c1.87.77,3.29,1.48,3.73,1,.64-.71-1.1-3.49-2.93-5.36a17.9,17.9,0,0,0-5.93-3.8,63.32,63.32,0,0,0-10.13-4,52.16,52.16,0,0,0-17.11-1.93C113.64,67.71,112.15,68.23,111,69.34Z"/><path class="cls-2" d="M87.11,69.42c2.31,2.27,2.81,6.71,1,8.56-.71.7-1.72,1-9,.14-6.17-.73-6.17-1-8.64-1.13-4.27-.18-7.5.57-11.48,1.5a62.93,62.93,0,0,0-10.57,3.13c-1.87.77-3.29,1.49-3.74,1-.63-.71,1.1-3.48,2.94-5.36a17.88,17.88,0,0,1,5.93-3.79,61.06,61.06,0,0,1,10.12-4,52.27,52.27,0,0,1,17.12-1.93C84.49,67.79,86,68.31,87.11,69.42Z"/><path class="cls-8" d="M.08,346.62a2.77,2.77,0,0,0,.36,2.18c.44.5,1.05.42,1.75.32.49-.06.77-.1,1-.37a2.58,2.58,0,0,0,.09-2.35c-.33-.83-1.16-1.69-2-1.42S.11,346.47.08,346.62Z"/><path class="cls-10" d="M81.82,178.56a13,13,0,0,0,.93-2.27c.37-1.21.33-1.71.59-1.81.64-.25,1.21,2.38,3.13,4.08,2.2,1.95,4.33,1,4.66,2.28.42,1.62-3.13,3.44-2.8,5.69.21,1.42,1.75,1.26,2.8,3.41s.53,4.49.93,4.56.57-4,2.79-5.69c1.63-1.22,3.09-.08,3.72-1.14,1.08-1.82-2.8-5.85-1.86-8,1.19-2.69,8.73.89,10.23-2.28.65-1.35-.09-3.39,0-3.41s.24,3.87,1.87,6.83c1.8,3.29,4.14,2.07,5.58,4.55,1.76,3-.39,6.63-.93,13.66-.26,3.38.05,6.42.93,12.52,1.71,11.86,4.94,14.27,11.16,34.09,2.15,6.83,3,10.45,4.66,17.68a64,64,0,0,1,1.86,11.17c.3,4.73-.28,5.48,0,9.91.55,8.91,3,9.75,1.86,12.52-1.82,4.5-7.54,5.33-26.06,5.69-5,.09-6.47-.19-8.66-.15-1.29,0-1.61.12-3.06.23-4.06.3-6.09.44-6.89-.29-1-.95-.4-2.45,0-7.44.31-3.69.4-8.32,0-8.38s-1.46,3.45-1.86,7.45c-.49,5.05.52,7.3-.93,8.58-1.29,1.14-3.43.48-5.58,0-3.27-.75-14.52-1.28-23.69-2a68.12,68.12,0,0,0-8-.25,10.6,10.6,0,0,1-6.51-2.28c-3.76-3-3.25-9.59-2.79-13.33a104.3,104.3,0,0,1,10.23-33.5,264.2,264.2,0,0,0,19.54-46.5h0c2.09-17.54,5-22.29,7.44-22.75.89-.17,2.74.28,3.72-1.14h0A10.08,10.08,0,0,1,81.82,178.56Z"/><path class="cls-10" d="M79.25,181.42c-1.89-1.16-4.94.64-11,4.25C56.67,192.48,45.62,199,45.29,209.44c-.32,9.71,8.68,21,16.13,20.38C75.33,228.7,86.55,185.9,79.25,181.42Z"/><path class="cls-10" d="M109.24,182c2-1,4.92,1,10.77,5.15,11.08,7.77,21.68,15.22,21.2,25.75-.46,9.8-10.41,20.43-17.86,19.24C109.43,229.89,101.53,185.91,109.24,182Z"/><path class="cls-11" d="M101.36,187c1.83.05,2.1-2.35,6.51-4.66,1.66-.86,2.5-1,2.8-1.86s-.76-2.37-2.8-5.58c-.31-.5-.53-.83-.93-.93-1.12-.29-1.92,1.69-3.72,2.79-2.81,1.74-5.35-.34-6.51.93C95,179.63,98.2,187,101.36,187Z"/><path class="cls-11" d="M87.68,186.14c-2,.41-2.62-2-7.31-3.26-1.63-.43-2.78-.46-3.1-1.27s.6-1.44,1.76-3.88,1-3.3,1.86-3.72c1.2-.56,2.8.39,3.72.93,2,1.21,2.12,2.39,3.72,2.79s2.21-.46,2.8,0C92.53,178.85,90.76,185.5,87.68,186.14Z"/><path class="cls-12" d="M89.62,286.75q.07-3,.11-6.32c.12-16.21-1.18-16.32-.93-29.59.3-16,2.33-23.73,1.86-35.29-.14-3.41.26-6.84,0-10.24-.28-3.66-.89-7.42.93-10.24.15-.23.3-.43.44-.61"/><ellipse class="cls-5" cx="88.8" cy="246.59" rx="1.4" ry="1.86"/><ellipse class="cls-5" cx="91.21" cy="194.65" rx="1.4" ry="1.86"/><ellipse class="cls-5" cx="88.8" cy="271.72" rx="1.4" ry="1.86"/><ellipse class="cls-5" cx="90.66" cy="220.54" rx="1.4" ry="1.86"/><path class="cls-1" d="M128.29,243.07c-4.49,5.23-2,8.79-6,11.35-2.88,1.85-4.57.45-10,2.87-3.61,1.62-2.84,2.24-6,3.53-5.16,2.15-7.78.64-12.48,3.27-1.66.93-3.49,2-3.41,3.14.17,2.4,8,4.6,15,4.14,9.9-.66,16.76-6.72,18.22-8.07,3.13-2.88,2.73-3.79,6.62-7.54,3.51-3.39,6.8-4.31,11.68-8.34.4-.33.75-.63,1.09-.94a20.35,20.35,0,0,0,3.26-3.22c1-1.52,1.59-4.12.4-5.55a4.09,4.09,0,0,0-2.63-1.14,11.25,11.25,0,0,0-5.13.29A20.67,20.67,0,0,0,128.29,243.07Z"/><path class="cls-1" d="M52.71,240.83c4.37,5.48,1.72,9,5.67,11.76,2.86,2,4.63.63,10,3.3,3.6,1.79,2.8,2.39,5.91,3.82,5.16,2.39,7.88,1,12.56,3.81,1.65,1,3.47,2.11,3.34,3.31-.26,2.44-8.35,4.37-15.36,3.64-10-1.05-16.78-7.48-18.21-8.91-3.06-3.05-2.62-3.95-6.43-7.92-3.44-3.58-6.75-4.64-11.55-8.93-.39-.34-.74-.67-1.08-1a20.6,20.6,0,0,1-3.18-3.41c-.93-1.57-1.46-4.24-.2-5.65a4.2,4.2,0,0,1,2.73-1,11.27,11.27,0,0,1,5.2.49C44.55,234.9,49.19,236.41,52.71,240.83Z"/><path class="cls-1" d="M116.36,256.9c-.1-.73-1-1.15-2.31-1.79-2.41-1.13-4.3-2-6.41-1.26-1.15.41-3,1.56-3,2.87.11,2.07,5.09,4.39,8.72,3.06C114.77,259.27,116.51,258,116.36,256.9Z"/><path class="cls-1" d="M65.74,255.52c.25-.69,1.18-.91,2.64-1.23,2.6-.58,4.64-1,6.53.16,1,.66,2.61,2.2,2.26,3.46-.56,2-5.93,3.17-9.17,1.07C66.77,258.19,65.34,256.6,65.74,255.52Z"/></g></g></svg>