<svg xmlns="http://www.w3.org/2000/svg" viewBox="0 0 484.88 234.68"><defs><style>.cls-1{fill:#422a17;}.cls-2{fill:#a04432;}.cls-3{fill:#ef5527;}.cls-4{fill:#fcfcfc;}</style></defs><g id="Camada_2" data-name="Camada 2"><g id="Camada_1-2" data-name="Camada 1"><path class="cls-1" d="M112.93,204.27c-1,1.1-.49,1.89-.44,10.53,0,4.8,0,7.2,0,7.47-.23,1.57-.48,2.34,0,3.07,1.1,1.66,5.29,1.88,7.47,0,1.63-1.41,1.14-3.16,1.32-11.85.13-6.9.5-8.47-.88-9.66A6,6,0,0,0,112.93,204.27Z"/><path class="cls-1" d="M43.87,208.91c-1.44.79-1.3,1.86-5.15,11.17-2.14,5.18-3.21,7.77-3.37,8-.91,1.6-1.5,2.34-1.39,3.31.27,2.21,4,4.07,6.9,2.88,2.14-.89,2.47-3,6.56-12.25,3.23-7.37,4.27-8.92,3.54-10.74A5.33,5.33,0,0,0,43.87,208.91Z"/><path class="cls-1" d="M239.68,201.81c-1.44.8-1.3,1.86-5.16,11.18-2.14,5.17-3.21,7.76-3.36,8-.91,1.61-1.5,2.34-1.39,3.31.27,2.21,4,4.07,6.89,2.88,2.15-.89,2.48-3,6.56-12.25,3.24-7.37,4.28-8.92,3.55-10.74A5.34,5.34,0,0,0,239.68,201.81Z"/><path class="cls-1" d="M381.13,193.46c-.4,2,.51,3.09,5,16.44,2.48,7.42,3.72,11.12,3.82,11.55.6,2.5.75,3.78,1.58,4.75,1.89,2.22,6,1.26,7.09-2.34.83-2.7-.53-5.24-4.82-18.75-3.4-10.71-3.86-13.25-5.78-14.67C385.36,188.49,381.82,190,381.13,193.46Z"/><path class="cls-2" d="M0,204.1c0,.3,41.86.22,219.25-1.31H404.19c-66.57-1.1-160.49-2-274.13-.88C66.63,202.53,0,203.74,0,204.1Z"/><path class="cls-3" d="M7.91,211V204.1l221.68-1.31.22,6.58Z"/><path class="cls-3" d="M484.15,15.54l-5.95,16q-7,18.88-14,37.76Q460,80.52,455.86,91.72q-7,18.87-14,37.75l-8.31,22.39q-7,18.88-14,37.76-1.65,4.42-3.29,8.86A11.55,11.55,0,0,1,405.6,206L230,209.13a11.54,11.54,0,0,1-10.89-15.89l2.4-5.86L236,151.86q4.59-11.19,9.16-22.39,7.71-18.89,15.43-37.75l9.16-22.39,15.44-37.76q4.9-12,9.82-24A11.54,11.54,0,0,1,305.65.38L473.3,0A11.53,11.53,0,0,1,484.15,15.54Z"/><path class="cls-4" d="M478.2,31.57q-7,18.88-14,37.76H269.73l15.44-37.76Z"/><path class="cls-4" d="M455.86,91.72q-7,18.87-14,37.75H245.14q7.71-18.89,15.43-37.75Z"/><path class="cls-4" d="M433.53,151.86q-7,18.88-14,37.76h-198v-2.24L236,151.86Z"/></g></g></svg>