<svg xmlns="http://www.w3.org/2000/svg" viewBox="0 0 324.85 467.99"><defs><style>.cls-1{fill:#feddb2;}.cls-2{fill:#1a2927;}.cls-3{fill:#964a32;}.cls-4{fill:#87412e;}.cls-5{fill:#f4ebd4;}.cls-6{fill:#ef0750;}.cls-7{fill:#923524;}.cls-8{fill:#fff;}.cls-9{fill:#351406;}.cls-10{fill:#1e2a28;}.cls-11{fill:none;stroke-linecap:round;}.cls-11,.cls-17{stroke:#000;stroke-miterlimit:10;}.cls-12{fill:#f7f7f7;}.cls-13{fill:#f4d3ab;}.cls-14{fill:#fcfcfc;}.cls-15{fill:#eacca7;}.cls-16{fill:#5f2c17;}.cls-18{fill:#822b23;}.cls-19{fill:#f47946;}</style></defs><g id="Camada_2" data-name="Camada 2"><g id="Pronto"><path class="cls-1" d="M209.57,237.63c-.07.6-1.8.6-5.21,1.46C195.93,241.22,192,245,187.77,247c-4.76,2.35-11.2,1.61-24.07.13-17.2-2-25.79-3-33.33-8.17-3.64-2.51-7.36-6-12-5.21-3.16.54-4.31,2.65-9.76,4.05-3.91,1-3.69,0-7,1-5.49,1.57-6.62,4.45-12,5.35-1.92.32-4,.67-4.72-.33-1.4-2,3.48-8.79,9.28-12.83,8.33-5.79,17.66-5.33,19.69-5.19,4.33.31,4.59,1.29,10.08,1.8a51.63,51.63,0,0,0,14.63-.79c7.07-1.23,15.72,0,33,2.31C186.92,231.23,209.79,235.42,209.57,237.63Z"/><path class="cls-1" d="M108.17,235.57c.46.58.16,1.49-.34,2.91C107,241,106.27,243,104.25,244c-1.1.54-3.25,1.08-4.14.11-1.41-1.53.41-6.73,3.91-8.4C105.35,235.05,107.46,234.66,108.17,235.57Z"/><path class="cls-2" d="M44.94,99.08l-.28.29c-3.94,4-9.52,5.95-12.23,5.85-9-.33-18-24.15-11.45-30.7,5.39-5.37,21.59.57,21.41,2.42-.22,2.29-26.34,5.64-32.06-4-3-5.14-.47-14.25,4.74-17.44,6-3.68,14.31-2.39,14.62-.76.24,1.29-4.36,4.25-8.08,3.47-5.92-1.24-9.51-11.9-8.4-19.67C15.57,22,40.84,8.29,55.12,15c7.23,3.38,13,12.59,10.95,16-1.39,2.3-6.93,2.67-9.13.31-4-4.34,1.34-19.83,11.32-26.66C84.77-6.74,115,5,117.52,17.84,119.26,26.73,108,37.43,107.28,37c-.94-.57,6.55-22.36,19.31-24.56,9-1.55,16.71,7.31,17.63,8.39,7.73,9.13,9,24.61,1.11,32.49-6.45,6.46-18.09,6.87-18.92,4.8-.93-2.32,9.87-12.16,19.63-10.18s15.65,15.66,13.5,26.65c-2,10.25-11.32,19.47-19.46,18.91-8.58-.59-14.56-12-15.79-11-1.45,1.09,8.13,12.94,4.59,18.09-1.91,2.78-6.86,2.44-9,2.3-11.77-.76-33.25-.55-64.66.65"/><path class="cls-3" d="M133.5,336.75c1,.92,2.91,3.3,1.32,21.17a228.49,228.49,0,0,1-4.63,29.77c-8.45,37.84-12.8,56.88-19.19,62.86-1.34,1.25-8.12,7.36-6.61,10.58.86,1.85,4,1.84,4,2.65-.09,1.14-6.48,1.43-10.59,1.32-5.1-.13-6.12-.86-6.61-1.32-2.3-2.16-1.57-6.35-1.33-7.94,1.35-8.73-1.23-17.63-1.32-26.47-.2-18.66-1.77-16-1.32-27.78.39-10.55,1.59-11.23,2.64-26.47,1.09-15.84-.14-16,1.33-19.85C97.44,338.77,125.13,329.07,133.5,336.75Z"/><path class="cls-3" d="M50.05,332.4c-1,.62-3.64,2.67-5.33,20.53a209.65,209.65,0,0,0-.54,30.79c2.23,51,.76,57.06,6.26,64.68,1.09,1.52,6.56,8.79,4.47,11.65-1.2,1.65-4.31,1-4.4,1.85-.13,1.13,6.09,2.63,10.14,3.31,5,.85,6.17.33,6.75,0,2.66-1.68,2.75-5.94,2.81-7.55.35-8.82,4.57-17.07,6.35-25.72,3.75-18.28,4.78-15.36,6.59-27,1.62-10.43.58-11.32,2.45-26.48,2-15.76,3.19-15.69,2.49-19.74C85.06,341.26,59.74,326.46,50.05,332.4Z"/><path class="cls-4" d="M92.48,208.39c-1.13,10,0,11.91,0,11.91,2.2,3.3,6,2.36,9.26,5.3,4.31,3.94,3.17,10.56,3.31,16.54.12,5,3.61,13,10.59,29.11,6.46,14.88,10.85,22,14.55,35.73.68,2.5,1.13,4.41,1.32,5.29,1.93,8.58,3.66,16.31,2.65,25.14-.47,4.12-2.14,18.7-12.57,24.48a14.13,14.13,0,0,1-2.25,1.05c-4.23,1.51-11,1.31-36.12-1.05-11.16-1.05-13-1.3-15.88-2.65-11.43-5.33-16-16.93-17.2-19.85-4.09-10.25-2.86-19.22-1.33-30.43,1-7.25,1.8-7.41,6.62-25.14,6.73-24.78,10.09-37.16,9.26-42.34C64,237.07,62,229.26,66,225.6c2.31-2.12,5-1.38,6.62-4s-.27-4.56,0-10.59c.17-3.8.32-7.18,2.65-9.26,3-2.7,8.39-2.08,11.91,0A12.61,12.61,0,0,1,92.48,208.39Z"/><path class="cls-5" d="M133.67,325.69c1.13-.06,3.35,13.92,4.54,27.18,1.95,22,3.36,39.86-5.44,43-1.6.58-2.47.28-6.35,0-22.88-1.67-37.38,5.27-40.78.76-.72-1-.48-3.42,0-8.31.21-2.15.4-2.56.91-6,.1-.67,1.3-9,.9-9.06s-1.85,4.88-2.71,10.57c-1.37,9,.35,11-1.82,12.84-3.63,3-10.18-1.08-23.56-1.51-14.31-.47-17.27,3.92-21.75,1.51-6.68-3.6-3.34-18.81,3.62-49.08.46-2,5-21.36,7.25-21.13.74.07.44,2.11,1.82,3.77,3.78,4.57,16.59,1.88,24.47.76,31.25-4.47,53.68,5.87,58-1.51C133.82,327.66,133.25,325.71,133.67,325.69Z"/><path class="cls-3" d="M93.38,227.58c-.26.56,1.25,1.45,3.76,4,6.2,6.22,7.69,11.5,10.25,15.49,2.9,4.51,8.85,7.2,20.77,12.59,15.92,7.19,23.88,10.79,33.1,10.2,4.45-.29,9.49-1.41,13.12,1.71,2.46,2.11,2.36,4.53,6.35,8.57,2.87,2.9,3.19,1.93,5.56,4.46,3.94,4.21,3.42,7.29,7.65,10.88,1.49,1.27,3.14,2.66,4.26,2.16,2.25-1,1.55-9.42-1.39-15.93-4.21-9.33-12.53-13.76-14.36-14.69-3.91-2-4.64-1.26-9.66-3.66A52,52,0,0,1,160.52,255c-5.49-4.72-13.59-8.18-29.78-15.1C116.31,233.78,94.33,225.55,93.38,227.58Z"/><path class="cls-3" d="M68.55,224.38c.5.36-.37,1.88-1.32,5.29-2.35,8.46-1,13.8-1.32,18.53-.31,5.35-4.18,10.62-11.91,21.17-10.33,14.09-15.5,21.13-23.82,25.14-4,1.94-9,3.44-10.59,7.94-1.1,3.05.17,5.11-1.32,10.59-1.07,3.93-1.83,3.24-2.65,6.61-1.36,5.6.6,8-1.32,13.24-.68,1.83-1.42,3.86-2.65,4-2.47.21-6-7.45-6.61-14.56-.92-10.19,4.15-18.14,5.29-19.85,2.44-3.64,3.42-3.38,6.62-7.94a52,52,0,0,0,6.61-13.23c2.46-6.81,7.82-13.8,18.53-27.79C51.62,241,66.73,223.08,68.55,224.38Z"/><path class="cls-3" d="M17.82,309.34c.75,0,1.3.77,2.15,2,1.51,2.23,2.7,4,2.28,6.21-.24,1.22-1.09,3.28-2.41,3.42-2.09.22-5.2-4.4-4.43-8.24C15.69,311.31,16.66,309.37,17.82,309.34Z"/><path class="cls-3" d="M182.3,276.8c-.7.27-.91,1.21-1.22,2.7-.56,2.64-1,4.71.25,6.61.68,1,2.26,2.62,3.53,2.24,2-.59,3.13-6,1-9.3C185,277.81,183.38,276.38,182.3,276.8Z"/><path class="cls-3" d="M21.52,160.84c-2.38-1.59-3.9-1.76-5-1.66-3,.27-5.14,2.81-6.07,5-1.45,3.38-.14,6.59.55,8.29a13.07,13.07,0,0,0,6.63,7.18,11.94,11.94,0,0,0,8.28.55c1.48-.47,3-.94,3.87-2.21C32.69,173.93,27.66,164.93,21.52,160.84Z"/><path class="cls-3" d="M52,87.37A43.61,43.61,0,0,0,38.68,94,44.51,44.51,0,0,0,27.29,107.3a59.12,59.12,0,0,0-7.6,19,99.55,99.55,0,0,0-1,34.18C20,167.11,22,177.15,29.08,186.86a61.73,61.73,0,0,0,8.17,9,59.82,59.82,0,0,0,13.07,9,62.24,62.24,0,0,0,13.88,4.9,86.8,86.8,0,0,0,17.15,2.45c1.92.09,3.7.17,5.82.12,0,0,1.19,0,2.35-.12,10-.68,21.23-5.71,21.23-5.71a75.09,75.09,0,0,0,13.88-8.17,57.8,57.8,0,0,0,11.44-10.62,38.26,38.26,0,0,0,7.35-13.06c1.45-4.68,1.51-8.45,1.59-13.2a108.18,108.18,0,0,0-.95-13.29,144.18,144.18,0,0,0-3.8-22.78c-1.64-6.2-3.6-13.6-7.59-19.94C120.52,86.1,93.83,83.32,87.1,82.62,71.1,81,58.93,85,52,87.37Z"/><path class="cls-3" d="M139.37,155.57c1.51-2.43,2.83-3.21,3.84-3.56,2.8-1,5.85.42,7.59,2,2.71,2.48,2.85,5.94,2.92,7.77a13,13,0,0,1-3.06,9.28,11.88,11.88,0,0,1-7.32,3.93c-1.53.19-3.07.37-4.43-.41C134.61,172.11,135.47,161.84,139.37,155.57Z"/><path class="cls-6" d="M141.85,74.64c1.35,5.32-.76,13.24-4.27,14.23s-6.68-5.78-13.52-11.38c-10.77-8.83-23.93-9-39.12-9.25-8.44-.12-22-.33-37,6.4-11.61,5.24-18.12,12-20.63,10s.65-11.85,5-17.78C53.22,38.19,135.92,51.27,141.85,74.64Z"/><path class="cls-7" d="M92.78,166.44c1.13-1.89-3.51-9-9.87-9.68-6.75-.73-13,6-12.18,8.05.44,1.07,2.69.35,9.8.81C89.26,166.19,92.06,167.66,92.78,166.44Z"/><path class="cls-8" d="M96.27,147.85a14.33,14.33,0,0,1,2-8.07,15.77,15.77,0,0,1,10.09-7.06,16,16,0,0,1,19.17,12.11,16.85,16.85,0,0,1,.2,4.28c-.12,2.15-.28,5.37-1.85,7.39-1.77,2.29-4.86,2.43-10.25,2.59-8.31.24-13.08.38-16.36-3.16A12.92,12.92,0,0,1,96.27,147.85Z"/><path class="cls-9" d="M106.11,138.67a10.38,10.38,0,0,1,8.08-1,11.34,11.34,0,0,1,5,3,11.74,11.74,0,0,1,3,6.06,9.62,9.62,0,0,1-1,7.06c-2.17,3.42-6.14,3.92-7.06,4a10.89,10.89,0,0,1-6.06-1,11.2,11.2,0,0,1-5-5.05,10.28,10.28,0,0,1-1-8.07A9.6,9.6,0,0,1,106.11,138.67Z"/><path class="cls-8" d="M65.82,149.11a14.82,14.82,0,0,0-1.85-7.4,15.82,15.82,0,0,0-10-7.36,16.06,16.06,0,0,0-10.09,1,16.61,16.61,0,0,0-9.08,11.1,17,17,0,0,0-.37,5.42c.16,1.85.38,4.61,1.85,6.47,2,2.57,5.67,2.53,12.44,2.37,7.8-.18,11.7-.28,14.34-3.16S65.8,150.4,65.82,149.11Z"/><path class="cls-9" d="M56.2,140.31a10.28,10.28,0,0,0-8.08-1,11.13,11.13,0,0,0-5,3,11.7,11.7,0,0,0-3,6,9.7,9.7,0,0,0,1,7.07c2.17,3.41,6.14,3.91,7.06,4a10.8,10.8,0,0,0,6.06-1,11.29,11.29,0,0,0,5-5,10.36,10.36,0,0,0,1-8.08A9.52,9.52,0,0,0,56.2,140.31Z"/><path d="M108.72,144.44a5.18,5.18,0,0,1,4-.5,5.65,5.65,0,0,1,2.51,1.51,5.79,5.79,0,0,1,1.51,3,4.33,4.33,0,0,1-4,5.53,5.4,5.4,0,0,1-5.53-3,5.14,5.14,0,0,1-.51-4A4.81,4.81,0,0,1,108.72,144.44Z"/><path d="M53.6,146.13a5.13,5.13,0,0,0-4-.51,5.61,5.61,0,0,0-2.52,1.51,5.92,5.92,0,0,0-1.51,3,4.34,4.34,0,0,0,4,5.53,5.38,5.38,0,0,0,3-.5,5.6,5.6,0,0,0,2.51-2.51,5.13,5.13,0,0,0,.5-4A4.72,4.72,0,0,0,53.6,146.13Z"/><path d="M96.14,149.69c-.56-.11-.61-3.27.07-6A14.94,14.94,0,0,1,99,138.13a19,19,0,0,1,6.47-5.54,14.85,14.85,0,0,1,8.32-1.85,16.28,16.28,0,0,1,8.32,3.69c2.76,2.08,3.45,3.69,6.63,5.06a8,8,0,0,0,4.08.82c2.4-.28,3.9-1.87,4.09-1.64s-.83,1.66-2.45,2.45-3.24.54-3.27.82,1.14.71,2.45.82c3.28.27,5.58-1.83,5.72-1.64.32.48-7.28,8.47-11.44,6.54-1.75-.82-1.25-2.64-3.27-5.72-.24-.38-4.72-7-12.25-7.35a15.21,15.21,0,0,0-10.61,4.08C97,143.22,97,149.84,96.14,149.69Z"/><path class="cls-8" d="M116.89,150a1.62,1.62,0,0,1,1.87,1.56,1.49,1.49,0,0,1-1.3,1.3,1.61,1.61,0,0,1-1.72-1.68A1.47,1.47,0,0,1,116.89,150Z"/><path class="cls-8" d="M53.83,151.57a1.62,1.62,0,0,1,1.87,1.56,1.49,1.49,0,0,1-1.3,1.3,1.61,1.61,0,0,1-1.72-1.68A1.46,1.46,0,0,1,53.83,151.57Z"/><path d="M66.39,151.22c.56-.1.61-3.27-.07-6a14.88,14.88,0,0,0-2.77-5.54,18.84,18.84,0,0,0-6.47-5.55,14.94,14.94,0,0,0-8.32-1.85c-2.38.22-4.36,1.4-8.32,3.7a62.17,62.17,0,0,1-8.09,4.34,8.85,8.85,0,0,1-4.08.81,16.2,16.2,0,0,1-3.27-.81c-.1.2,2,2.05,4.9,2.45,1.89.26,3.21-.23,3.27,0s-1.93,1.41-4.26,1.53c-3.37.17-5.55-1.87-5.71-1.63-.33.47,7.27,8.46,11.43,6.53,1.75-.81,1.26-2.63,3.27-5.72.24-.38,4.72-7,12.25-7.35a15.25,15.25,0,0,1,10.61,4.09C65.52,144.75,65.58,151.38,66.39,151.22Z"/><path class="cls-8" d="M45.87,144.87a2.94,2.94,0,0,1,3.39,2.83,2.7,2.7,0,0,1-2.35,2.35,2.91,2.91,0,0,1-3.11-3A2.64,2.64,0,0,1,45.87,144.87Z"/><path class="cls-8" d="M106.73,143.62a2.94,2.94,0,0,1,3.39,2.82,2.72,2.72,0,0,1-2.35,2.36,2.92,2.92,0,0,1-3.11-3A2.63,2.63,0,0,1,106.73,143.62Z"/><path class="cls-10" d="M103,86.77c-1.57-.34-2.4,4.89-7.14,7.15-3.32,1.57-8.21,1.53-10.72-.9-1.62-1.57-1.66-3.55-2.68-3.57-1.18,0-1.41,2.66-3.57,5.36-.57.71-3.55,4.44-7.14,4.46-3.86,0-4.85-4.25-9.83-4.46a7.6,7.6,0,0,0-3.57.89c-4.1,2.2-6.27,8.5-4,12.75,1.63,3,5.61,5.19,7.35,4.09,1.25-.8,1.29-3.25.82-4.9-.94-3.31-4.25-4.64-4.09-4.9s7.23,1,9,6.53a8.32,8.32,0,0,1-1.64,8.17c-3.28,3.38-8.47,1.8-9,1.63-3-1-4.67-3.22-6.53-5.72-3.56-4.78-4.26-8.91-5.32-8.72-.73.13-.67,2.08-1.79,6.25-.88,3.29-1.34,5-2.68,6.25-3.09,2.91-7.83.58-8.93,2.68-.62,1.18.7,2.25,2.68,7.15,1.65,4.07,2.5,6.09,1.79,7.14-1.9,2.8-11.59-2.28-13.52.49-1.52,2.19,3.51,6.85,1.63,9.8-1.29,2-4.41,1-5.71,3.27-.72,1.25-.37,2.61.63,6.09,1.94,6.73,1.92,7.82,2.68,8.93a13.09,13.09,0,0,0,4,3.76,12.34,12.34,0,0,1-.67,7.83c0,.13-.1.23-.15.34-1.6,3.27-6.54,6.65-10.62,4.9a7,7,0,0,1-4.08-5.72c-.34-3.85,2.78-6.75,3.27-6.53.19.08-.06.64,0,1.63.15,2.55,2.22,5.15,3.26,4.9s1.73-3.3.82-5.72c-1-2.79-3.76-3.41-7.35-5.71a35.47,35.47,0,0,1-8.17-7.72c-2.81-3.8-2.55-11.25-.89-25.9,3-26.61,1.15-23.93,2.68-28.57C10.2,81.08,29.81,71.73,43.21,65.34c9.58-4.57,28.28-13.18,52.69-9.82A76.7,76.7,0,0,1,133.4,70.7c18.26,14.13,24,32.31,26.8,41.08,2,6.2,8.23,26,.89,33.93a36.14,36.14,0,0,0-5.36,7.14c-4.09,3.48-7.26,3.19-9,6.24-1.18,2-.67,3.61,0,9,1.31,10.57,2,15.85,0,18.79-2.73,4-7,2.75-9,7.35-1.14,2.63-1.34,6.71.82,8.16a3.77,3.77,0,0,0,4.08,0c2.56-1.83,1-7.25,1.64-7.35s3,4.24,1.63,8.17c-1.71,4.88-8.85,7.75-12.25,5.72-4.11-2.46-3.75-12.61.82-18,3.47-4.08,7.28-2.9,9-6.53,2.06-4.41-3.22-6.83-3.27-15.52a64.33,64.33,0,0,1,2.18-15.14c.52-1.94,1.26-4.44,0-6.25s-3.43-.91-5.35-2.68-1.95-5.17-1.79-9.83c.2-5.92,1.53-8.06,0-9.82-1.17-1.35-2.63-.87-5.36-1.79-3.27-1.09-5.19-3.13-8-6.25-15.54-17-16.43-19-17-21.43C103.78,91.1,104.43,87.07,103,86.77Z"/><path class="cls-7" d="M88.7,187.53c0-2.42-2.57-4.06-3.17-4.44a8.26,8.26,0,0,0-7-.63c-1.85.75-4.51,2.7-4.44,5.07.11,3.13,5,5.77,8.88,5.07C85.5,192.16,88.66,190.18,88.7,187.53Z"/><path class="cls-11" d="M95,182.28a18.12,18.12,0,0,1-4.24,2.82,19.05,19.05,0,0,1-12.37,1.36c-3.06-.78-5.58-2.36-8.48-4.18-.89-.56-1.62-1.06-2.12-1.42"/><path class="cls-5" d="M177.31,264a2.48,2.48,0,0,1,.59,1.84c-.15.57-.66.75-1.25,1-.41.14-.64.22-.93.1a2.28,2.28,0,0,1-1-1.8c-.07-.78.23-1.78,1-1.92S177.22,263.89,177.31,264Z"/><path class="cls-6" d="M93.6,217.07c-2.94.26-5.18.72-5.68.79-2.31.33-4.76.66-6.57.85,0,0-5.78.59-8.18-.55a4.08,4.08,0,0,0-.8-.27,5.24,5.24,0,0,0-1.64,0c-2,.41-3.26,4.08-3.26,4.08-6.24,26.07-9.14,40.12-10.62,48.19-.39,2.1-1.36,7.53-3.27,14.7-2.93,11-4.5,10.82-5.7,17.85-1.41,8.28-.05,12.15-3.28,14.81-2.93,2.43-5.6.52-8.17,3.27-3,3.28-2.15,9.11-.81,12.25a6.79,6.79,0,0,0,2.45,3.27,5.71,5.71,0,0,0,5.51.54c2.87-1.54,2.63-6.28,3.47-6.26,1.09,0,.06,7.93,4.08,10.62a7.46,7.46,0,0,0,7.35,0c4.16-2.33,4-8.19,5.72-8.17s1.21,5.58,4.9,8.17c3.52,2.47,9.74,1.49,13.07-1.64,2.92-2.73,3.13-6.66,4.08-6.53s-.13,5,2.45,8.17c3.26,4,11.44,4,14.7.81,2.94-2.87-.42-10.17.82-10.61s2.71,6,8.16,9c5.27,2.85,12.32,1.47,13.07-.82.59-1.77-2.6-4.15-1.63-5.71.08-.14.43-.64,1.63-.82,4.84-.72,8.37,6.09,13.07,5.72,3.06-.25,5.77-3.37,6.53-6.54a8.27,8.27,0,0,0-1.63-7.35c-2-2.19-3.93-1-6.53-3.26-2-1.74-2.72-4.05-3.57-6.75-.7-2.23-.49-2.72-1.34-6.32-.56-2.39-1.11-4.1-1.63-5.72-2.28-7.09-5.07-12.54-8-20.11-1.55-4.06-2.49-7.08-3.45-10.1-1.09-3.42-6.9-25.44-9-31.85-3.15-9.69-1.58-3-9.8-19.6-.45-.92-1.71-3.49-4.08-4.09A7.2,7.2,0,0,0,93.6,217.07Z"/><path class="cls-6" d="M89.61,226.74a14.57,14.57,0,0,1,6.9-4.44,20.22,20.22,0,0,1,12.78-.12c2.26.67,8.95,2.63,9.93,6.85a15.24,15.24,0,0,0,.76,3.28c1,2.65,3,4.91,3.33,4.72s-.2-2-1.12-2.18a1.59,1.59,0,0,0-1.45.74c-.75,1,.31,2.22-.34,2.93-.82.89-2.71-.1-3.28.76-.27.4.09.68,0,1.82a3.12,3.12,0,0,1-.71,2.2c-1,.81-2.56-.69-3.65,0-.9.61-.3,1.95-1.07,3.3-.91,1.62-3.07,2-4.36,2.23-13.65,2.43-18.68-6-18.68-6A14.6,14.6,0,0,1,89.61,226.74Z"/><path class="cls-6" d="M66.48,222.37a14.45,14.45,0,0,0-8.2.2,20.25,20.25,0,0,0-10.64,7.09c-1.49,1.82-5.93,7.2-4.36,11.24A15.41,15.41,0,0,1,44.49,244c.65,2.77.27,5.75-.1,5.77a2.11,2.11,0,0,1-.3-2.43,1.59,1.59,0,0,1,1.62-.2c1.2.44,1,2,1.92,2.23,1.18.28,2.19-1.61,3.14-1.22.44.19.31.63,1,1.52.42.53,1.06,1.36,1.83,1.42,1.28.11,1.73-2,3-2,1.08,0,1.34,1.44,2.73,2.13,1.67.82,3.67-.08,4.86-.61C76.9,245,76.3,235.14,76.3,235.14A14.6,14.6,0,0,0,66.48,222.37Z"/><path class="cls-6" d="M88.7,465.34c2.86,3.49,9.23,2.33,13.07,1.64,4.39-.8,9.13-2.67,9-4.09-.07-.67-1.24-1-2.42-1.42a.34.34,0,0,1,0,.3,2.68,2.68,0,0,0-.37-.41,5.48,5.48,0,0,1-1.58-.83h0a1.7,1.7,0,0,1-.34-.37,1.1,1.1,0,0,1-.2-.47.11.11,0,0,1,0-.05,1.56,1.56,0,0,1,0-.3c.07-1.51,2.74-2.55,2.47-3.79-.41-1.88-6.65-.09-13.88-3.26-3.07-1.35-5.65-3.29-6.54-2.45-.4.38-.12,1,0,2.45.26,3-.68,4.06-.81,6.53C87,459.54,86.84,463.08,88.7,465.34Z"/><path class="cls-12" d="M100.89,460.44a5.29,5.29,0,0,1,1.61-.92,3.87,3.87,0,0,1,2.55-.24,3.48,3.48,0,0,1,.82.4.11.11,0,0,1,0-.05,1.56,1.56,0,0,1,0-.3,3,3,0,0,0-.62-.33C103.22,458.22,100.76,460.05,100.89,460.44Z"/><path class="cls-6" d="M108,461.36a2.68,2.68,0,0,1,.37.41.34.34,0,0,0,0-.3Z"/><path class="cls-12" d="M102.6,461.77a5.48,5.48,0,0,1,1.62-.93,4.08,4.08,0,0,1,2.19-.32,1.7,1.7,0,0,1-.34-.37C104.3,460,102.49,461.43,102.6,461.77Z"/><path class="cls-6" d="M68.35,466.19c-3.49,2.85-9.51.44-13.13-1-4.15-1.66-8.42-4.42-8-5.79.2-.65,1.42-.74,2.66-.91a.33.33,0,0,0-.11.28,3.77,3.77,0,0,1,.45-.33,5.63,5.63,0,0,0,1.71-.49h0a1.73,1.73,0,0,0,.41-.3,1.09,1.09,0,0,0,.29-.41s0,0,0-.06a1.43,1.43,0,0,0,.07-.28c.24-1.49-2.17-3-1.66-4.2.77-1.77,6.53,1.22,14.25-.45,3.28-.71,6.2-2.1,6.89-1.1.32.46-.08,1-.48,2.4-.85,2.93-.14,4.12-.5,6.57C71.15,460.83,70.63,464.34,68.35,466.19Z"/><path class="cls-12" d="M57.38,459a5.25,5.25,0,0,0-1.4-1.22,3.79,3.79,0,0,0-2.45-.74,3,3,0,0,0-.88.23s0,0,0-.06a1.43,1.43,0,0,0,.07-.28,3,3,0,0,1,.68-.2C55.54,456.32,57.58,458.6,57.38,459Z"/><path class="cls-12" d="M55.44,459.92a5.83,5.83,0,0,0-1.4-1.23,4.1,4.1,0,0,0-2.09-.75,1.73,1.73,0,0,0,.41-.3C54.12,457.88,55.61,459.61,55.44,459.92Z"/><path class="cls-10" d="M101.77,125.6c0,1.47,4.68,3,8.57,3.27s4.89-.63,8.58-.82c7.44-.36,12,3,12.25,2.45.39-.82-9.39-9.24-20.83-8.16C106.52,122.7,101.75,124.16,101.77,125.6Z"/><path class="cls-10" d="M62.08,126c0,1.47-4.68,3-8.57,3.27s-4.89-.64-8.58-.82c-7.44-.36-12,3-12.25,2.45-.39-.82,9.39-9.24,20.83-8.17C57.34,123.06,62.1,124.53,62.08,126Z"/><path class="cls-5" d="M176,267.09a2.53,2.53,0,0,1,.59,1.85c-.15.57-.66.75-1.25.95-.41.15-.64.23-.93.11a2.28,2.28,0,0,1-1-1.8c-.07-.78.23-1.79,1-1.92S175.92,267,176,267.09Z"/><path class="cls-5" d="M174.82,269.36a2.53,2.53,0,0,1,.59,1.85c-.15.57-.66.75-1.25,1-.41.14-.64.22-.93.1a2.25,2.25,0,0,1-1-1.8c-.07-.78.23-1.79,1-1.92S174.73,269.26,174.82,269.36Z"/><path class="cls-1" d="M165.56,338.15c-1,.91-2.89,3.27-1.32,21a227.08,227.08,0,0,0,4.59,29.5c8.37,37.48,12.69,56.35,19,62.27,1.33,1.25,8,7.3,6.56,10.49-.86,1.83-4,1.83-3.93,2.62.09,1.13,6.41,1.42,10.48,1.31,5.06-.13,6.07-.84,6.56-1.31,2.28-2.13,1.55-6.29,1.31-7.86-1.33-8.65,1.22-17.47,1.31-26.22.2-18.5,1.75-15.84,1.31-27.54-.39-10.45-1.58-11.12-2.62-26.22-1.08-15.69.14-15.86-1.31-19.66C201.28,340.16,173.85,330.54,165.56,338.15Z"/><path class="cls-1" d="M248.23,333.85c1,.61,3.62,2.64,5.29,20.34a206.81,206.81,0,0,1,.53,30.5c-2.2,50.49-.75,56.53-6.19,64.09-1.09,1.5-6.51,8.7-4.44,11.54,1.19,1.64,4.27,1,4.36,1.83.13,1.13-6,2.61-10,3.29-5,.83-6.12.32-6.69,0-2.64-1.66-2.72-5.88-2.79-7.47-.34-8.75-4.52-16.92-6.28-25.49-3.73-18.12-4.74-15.22-6.54-26.78-1.61-10.33-.57-11.22-2.43-26.24-1.93-15.61-3.16-15.55-2.46-19.56C213.55,342.63,238.64,328,248.23,333.85Z"/><path class="cls-13" d="M206.2,211c1.11,9.89,0,11.8,0,11.8-2.18,3.26-6,2.33-9.18,5.24-4.26,3.9-3.14,10.47-3.28,16.39-.11,5-3.57,12.91-10.49,28.84-6.4,14.75-10.75,21.76-14.42,35.4-.67,2.49-1.11,4.38-1.31,5.25-1.91,8.5-3.62,16.15-2.62,24.91.47,4.08,2.12,18.52,12.45,24.25a14,14,0,0,0,2.24,1c4.19,1.5,10.85,1.3,35.79-1,11.05-1,12.87-1.29,15.73-2.62,11.32-5.29,15.89-16.78,17-19.67,4-10.16,2.83-19,1.31-30.15-1-7.19-1.78-7.34-6.55-24.91-6.67-24.55-10-36.82-9.18-42,.7-4.36,2.65-12.1-1.31-15.73-2.29-2.1-4.95-1.36-6.56-3.93s.27-4.52,0-10.49c-.16-3.77-.32-7.11-2.62-9.18-3-2.68-8.31-2.06-11.8,0A12.51,12.51,0,0,0,206.2,211Z"/><path class="cls-1" d="M229.91,226.82c-.5.35.37,1.86,1.31,5.24,2.32,8.38,1,13.67,1.31,18.36.3,5.3,4.13,10.52,11.8,21,10.23,14,15.35,20.94,23.6,24.91,4,1.92,8.87,3.41,10.49,7.87,1.09,3-.17,5.06,1.31,10.49,1.06,3.89,1.81,3.22,2.62,6.55,1.35,5.55-.59,8,1.31,13.11.67,1.82,1.41,3.83,2.62,3.94,2.45.21,5.92-7.38,6.56-14.42.91-10.1-4.12-18-5.25-19.67-2.41-3.61-3.39-3.35-6.55-7.87a51.58,51.58,0,0,1-6.56-13.11c-2.44-6.74-7.74-13.67-18.35-27.53C246.68,243.32,231.72,225.53,229.91,226.82Z"/><path class="cls-1" d="M280.18,311c-.75,0-1.29.77-2.14,2-1.5,2.21-2.68,3.95-2.25,6.15.23,1.21,1.08,3.25,2.38,3.39,2.08.22,5.15-4.36,4.39-8.17C282.28,312.94,281.32,311,280.18,311Z"/><path class="cls-1" d="M254.63,76.09a49.78,49.78,0,0,1,16.18,21.57c1.06,2.82,2.86,8.17,1.35,32.37-1.65,26.56-3.27,61.65-8.09,67.42-2.51,3-8,5.16-18.88,9.44,0,0-13.69,5.38-22.92,5.4h-9.44c-4,0-11.47-1.49-18.88-4a90.68,90.68,0,0,1-14.83-6.74c-5.93-3.34-8.8-5.17-10.79-8.09-2.78-4.07-3.63-33.35-4.05-40.46-1-16.69-1.46-17.18-1.35-22.92,0-2.22.29-14.09,2.7-22.93,4.8-17.58,22.31-38.12,47.2-41.8C215.78,64.87,236.77,62.1,254.63,76.09Z"/><path class="cls-14" d="M182.38,152.46a8.74,8.74,0,0,0,2.81,2.41c2.45,1.47,4.8,1.55,7.62,1.61a16.42,16.42,0,0,0,6.83-.8,10.64,10.64,0,0,0,5.21-3.62c2.26-3.18,1.6-7,1.2-9.27a13.7,13.7,0,0,0-3.61-7.65,10.5,10.5,0,0,0-4.41-2.82,11.28,11.28,0,0,0-8,.81,14.86,14.86,0,0,0-7.22,7.25C182.34,141.31,179.2,148,182.38,152.46Z"/><path class="cls-14" d="M255.3,152.32a8.71,8.71,0,0,1-2.77,2.43c-2.42,1.49-4.77,1.61-7.59,1.73a16.7,16.7,0,0,1-6.83-.68,10.59,10.59,0,0,1-5.28-3.48c-2.32-3.1-1.72-6.86-1.36-9.12a13.37,13.37,0,0,1,3.47-7.6,10.55,10.55,0,0,1,4.37-2.86,11.47,11.47,0,0,1,8,.65,14.71,14.71,0,0,1,7.35,7C255.16,141.33,258.4,147.89,255.3,152.32Z"/><path class="cls-15" d="M210.13,158.53a10.23,10.23,0,0,1,6.56-5.24c5.13-1.2,8.92,2.37,9.17,2.62"/><path class="cls-11" d="M204.89,180.8a17.41,17.41,0,0,0,4,2.68,18.12,18.12,0,0,0,11.72,1.28c2.9-.74,5.28-2.24,8-4,.85-.53,1.54-1,2-1.34"/><path class="cls-16" d="M272.32,75c-.74-.78.9-2.45,1.37-6.41a18.69,18.69,0,0,0-1.37-9.13c-2.37-5.88-8-10.92-9.89-9.89-.75.4-.81,1.67,0,8.48,1.34,11.37,2.36,15.11,1.41,15.54-1.47.68-4.7-8-12.72-14.13-2.61-2-7.8-5.31-19.78-7.06-22.62-3.31-42.45,2.88-46.62,4.24-18.06,5.88-25.66,13.37-38.15,9.89-5.25-1.46-8.73-4.13-9.89-2.83-2.07,2.31,4.58,15.6,15.54,19.78,3.81,1.46,6.62,1.23,7.06,2.83.82,3-8.23,5.67-15.54,12.71-9.49,9.16-11.52,21.26-14.13,36.74-1.45,8.63-2.94,23.19,0,24,5.8,1.64,14.75-19.08,11.3-14.13,0,0,3.18-7.32,4.24-7.06,1.44.34-.81,14.6-1.41,18.37-2.17,13.7-3.58,16.37-4.24,25.43-.64,8.78-.91,13.28,1.41,18.37,4.06,8.87,13.47,14.3,15.55,12.71,1.09-.84-.37-3.24-1.42-11.3-.34-2.64-1.41-10.89,0-11.3,1.16-.34,2.2,5.06,7.07,9.89a26,26,0,0,0,15.54,7.06c7.46.69,15.54-2,15.54-4.24s-8.55-1-15.54-7.06c-5.31-4.58-6.91-12-10.13-26.88-1.79-8.3-2.69-12.44-2.62-17.05a50.73,50.73,0,0,1,8.51-26.72s2.89-5.68,24-29.67l5.65-8.48c.88.3-.75,5.32-1.41,14.13-.69,9.24.35,13.87,1.41,17,.66,1.89,2.49,7.22,4.24,7.06,3.53-.32,4.17-22.66,5.65-22.61,1,0,.08,9.3,5.66,18.37.84,1.38,3.81,6.21,5.65,5.65,2.4-.72-2-10.86,1.41-22.6,2.88-10.06,10.14-17,11.32-16.33.65.34-.83,2.85,0,6.56a13.61,13.61,0,0,0,3.93,6.55c9.42,9.69,16.49,10.57,21.49,18.76,2.28,3.73,3.41,7.71,4.73,7.46,1.86-.34,1.83-7.88,2.63-7.86.62,0,1.1,4.78,1.31,9.18a96.54,96.54,0,0,1,0,10.48c-.9,9.55-7.56,13.25-17.15,30.19-5.91,10.44-5.77,12.59-5.14,13.08s1.53-.13,9.18-3.93c3.49-1.74,5.25-2.6,5.85-2.08.84.73-.15,3.14-1.92,7.32A40.42,40.42,0,0,1,258,192a29.76,29.76,0,0,1-7.15,7.58c-1.35,1-1.35.82-7.71,4-2.48,1.25-5.8,3-10.37,5.7-4.86,2.86-5.81,3.62-5.66,4.24.53,2.15,13.78,1.77,25.44-1.41,6.12-1.67,20.78-5.67,31.08-18.37,6.78-8.35,8.06-16,9.89-15.54s2.63,9.77-1.41,17c-2.58,4.58-6.05,6.49-5.65,7.06.62.88,9.29-3,16.95-9.89,4.57-4.09,8.27-7.39,9.89-12.72,1.79-5.88-.47-9.26-2.82-19.78-3.21-14.34-3.41-27.76-1.42-28.26,1.23-.3,2.46,4.48,8.48,9.89.74.67,5.8,5.22,7.07,4.24s-2.41-6.44-5.65-15.54a100.43,100.43,0,0,1-4.24-17c-2.92-15.41-1.14-19.46-5.66-25.43-1.12-1.48-4.45-5.88-9.89-7.06-4.31-.94-8.34.49-8.47,0-.2-.77,9.72-2.54,9.89-5.66.12-2.24-4.85-5.22-9.89-5.65C281.32,68.59,273.92,76.75,272.32,75Z"/><path class="cls-17" d="M199.54,141.64a14.88,14.88,0,0,1,0,5.64,4.75,4.75,0,0,1-1.21,2.82c-1.36,1.25-3.73,1.08-5.24.41-3.3-1.48-4.26-6.17-4-9.28.29-4,2.77-8.52,5.24-8.46,1.14,0,2,1,2.82,2C198.79,136.75,199.11,138.87,199.54,141.64Z"/><path d="M206.61,149.42a18.21,18.21,0,0,0-.4-6.85,19.62,19.62,0,0,0-2.82-6.85c-1.31-2-3.19-4.76-6.86-6.05a12.63,12.63,0,0,0-8.86.4,14.59,14.59,0,0,0-6.86,6.05A53.4,53.4,0,0,0,178.4,141c-1,2.14-1.11,2.86-2,3.63A6.08,6.08,0,0,1,172,145.8a7.84,7.84,0,0,1-2.83-1.21c-.12.17,3,3.3,7.86,5.44.44.19,5.29,2.31,6.05,1.21.13-.19.06-.34,0-1.21,0-.41,0-1.21,0-2.82,0-1.25.1-2.63.2-3.43a13.53,13.53,0,0,1,7.86-10.28,9.61,9.61,0,0,1,4.84-1.21,8.84,8.84,0,0,1,4.43,1.61,12.86,12.86,0,0,1,4.44,5.24A20.71,20.71,0,0,1,206.61,149.42Z"/><path class="cls-17" d="M239.43,141.81a14.88,14.88,0,0,0,0,5.64,4.75,4.75,0,0,0,1.21,2.82c1.36,1.25,3.73,1.08,5.24.41,3.3-1.48,4.26-6.17,4-9.27-.3-4-2.77-8.53-5.24-8.47-1.14,0-2,1-2.83,2C240.18,136.92,239.85,139,239.43,141.81Z"/><path d="M231,149.6a18.16,18.16,0,0,1,.41-6.86,19.42,19.42,0,0,1,2.82-6.85c1.31-2,3.18-4.76,6.85-6a12.59,12.59,0,0,1,8.87.41,14.5,14.5,0,0,1,6.85,6c.38.65,1.39,2.52,2.42,4.84.95,2.14,1.1,2.86,2,3.63a6.1,6.1,0,0,0,4.44,1.21,7.84,7.84,0,0,0,2.82-1.21c.12.17-3,3.31-7.86,5.44-.44.19-5.29,2.31-6.05,1.21-.12-.18-.06-.34,0-1.21,0-.41,0-1.21,0-2.82a31,31,0,0,0-.2-3.43,13.47,13.47,0,0,0-7.86-10.28,9.55,9.55,0,0,0-4.84-1.21,8.81,8.81,0,0,0-4.43,1.62,12.71,12.71,0,0,0-4.43,5.24A20.63,20.63,0,0,0,231,149.6Z"/><path class="cls-16" d="M231.76,127.72c1.61,1.27,23.59-1,27.54-1.31,2.95-.2,6.49-1.32,6.55-2.62.06-1.14-2.56-2.12-3.93-2.62-5.25-1.93-9.94-1.69-14.42-1.31C236.68,120.77,230.7,126.89,231.76,127.72Z"/><path class="cls-16" d="M206.72,128c-1.6,1.27-23.58-1-27.53-1.31-2.95-.21-6.49-1.32-6.56-2.62,0-1.14,2.56-2.12,3.94-2.63,5.25-1.92,9.94-1.68,14.42-1.31C201.8,121,207.78,127.11,206.72,128Z"/><path class="cls-18" d="M215.76,238.66c.05-2.81-4.83-5.61-23.35-11.11-15-4.46-22.52-6.69-26.22-6-14.76,2.76-27.58,19.7-24.17,27.44,2.59,5.89,15.67,5,41.84,3.34,0,0,19.74-1.28,30.47-11.13A3.72,3.72,0,0,0,215.76,238.66Z"/><path class="cls-19" d="M204.23,222.12c1.38.46,1.57,3.22,5.25,5.25a14.32,14.32,0,0,0,9.17,1.31c6-1.21,7.58-5.82,10.49-5.25,3.74.74,5,9.07,5.25,10.49,2.82,18.13,8.1,35.79,11.8,53.75,4.13,20.1,6.85,17.16,11.8,40.65,4.24,20.17,6.27,30.43,1.31,39.33-6.69,12-22.13,18.06-34.09,18.35-13.28.34-15.79-6.6-27.53-3.93-9.08,2.07-11.64,7.14-23.6,9.18-5.56.95-10.77,1.83-14.42,0-15-7.54-2.71-60.47,0-72.11C173.51,259.48,198.43,220.17,204.23,222.12Z"/><path class="cls-18" d="M230,224.89c2.36-1.53,7.32,1.11,21.82,13.87,11.76,10.35,17.64,15.52,19,19,5.51,14-2,33.83-10.39,35.06-6.37.94-12.6-10.6-25.08-33.67,0,0-9.4-17.39-6.77-31.71A3.72,3.72,0,0,1,230,224.89Z"/><path class="cls-18" d="M252.6,442.2c-1.66,3-3.21,5.92-2.31,8.32.39,1.05,1,1.38,5,4.16,4.49,3.17,4.92,3.62,5,4.16.1,1.35-2.28,2.35-9.23,4.57-7.92,2.53-12.14,3.56-17.57,3.72-4.47.13-5.57-.45-6.38-1.25-2.55-2.51-1.49-6.34-3.18-15-1.83-9.39-4.51-12.2-3.17-15,.44-.92,1.5-2.19,9.76-2.06,10.33.15,12.23,2.19,18.62,1.27,5.56-.81,9.31-3.1,9.76-2.07S255.93,436.15,252.6,442.2Z"/><path class="cls-18" d="M183.9,447.89c2.41,2.45,4.7,4.83,4.48,7.38-.09,1.12-.61,1.61-3.64,5.35-3.46,4.27-3.76,4.82-3.65,5.35.27,1.33,2.83,1.64,10.12,1.9,8.31.28,12.65.13,17.92-1.19,4.34-1.08,5.24-1.94,5.81-2.93,1.77-3.11-.29-6.51-1-15.28-.79-9.54,1-13-1-15.28-.67-.76-2-1.7-9.95.66-9.9,2.95-11.18,5.43-17.58,6.27-5.57.73-9.8-.46-10,.66S179.05,443,183.9,447.89Z"/><path class="cls-14" d="M199,139.52c-.74-.49-2.19.27-2.62,1.31a1.5,1.5,0,0,0,0,1.32,1.87,1.87,0,0,0,2.62,0A1.9,1.9,0,0,0,199,139.52Z"/><path class="cls-14" d="M249.06,139.75c-.74-.49-2.19.27-2.62,1.31a1.48,1.48,0,0,0,0,1.31,1.85,1.85,0,0,0,2.62,0A1.89,1.89,0,0,0,249.06,139.75Z"/></g></g></svg>