<svg xmlns="http://www.w3.org/2000/svg" viewBox="0 0 479.36 797.37"><defs><style>.cls-1{fill:#fff;}.cls-2{fill:#9d805e;}.cls-3{fill:none;stroke:#000;stroke-linecap:round;stroke-miterlimit:10;stroke-width:4px;}</style></defs><g id="Camada_2" data-name="Camada 2"><g id="Camada_2-2" data-name="Camada 2"><path d="M149.07,422.15c12.68,6.39,10.27,35,7.82,64-2.74,32.39-5.45,64.51-28.52,94.24-21.63,27.87-63.71,56.93-82.54,45.18C22.62,611,37.25,536.2,70.35,484.82,92.59,450.32,131.58,413.33,149.07,422.15Z"/><path d="M355.84,587.78c-25.42-7.32-54.29,25.4-59.51,30.54-36.75,36.1-26.51,81.28-22.93,95.75,3.16,12.78,10.17,68.08,48.47,80.65,16.64,5.46,37.27,2.36,51.76-8.2C427.34,747.39,402.74,601.3,355.84,587.78Z"/><path d="M155.19,587.78c25.42-7.32,54.28,25.4,59.51,30.54,36.75,36.1,26.5,81.28,22.93,95.75-3.17,12.78-10.17,68.08-48.47,80.65-16.64,5.46-37.28,2.36-51.76-8.2C83.69,747.39,108.29,601.3,155.19,587.78Z"/><path d="M351.69,427.28c-12.68,6.39-10.27,35-7.82,64,2.73,32.39,5.45,64.51,28.52,94.24,21.63,27.87,63.71,56.93,82.54,45.18,23.2-14.48,8.58-89.33-24.53-140.7C408.17,455.45,369.17,418.47,351.69,427.28Z"/><path d="M411.41,513.36c-64-10.4-145-4.38-197.69-.47C164.65,516.53,112.39,520.42,71.6,530a160.11,160.11,0,0,1,4.59-28.77C80,486.08,85.32,465.35,100.84,448c19.38-21.64,40.09-21.62,42.3-37.9.21-1.61.63-9.12,1.54-24.12.58-9.51.91-13,1.11-15.59.71-9.19,1.45-16.71,2-21.83a80.81,80.81,0,0,1,16.54-33.75c30.73-36.54,96.56-42.78,130.51-14.21,22.34,18.8,31.16,52.93,32.95,59.86,1,3.68,1.19,5.31,2.29,10.77.18.87.37,1.84.61,3,1.3,6.26,2.9,13.37,3.06,14.06,3,13.24,4.52,19.87,4.76,20.46,4.67,11.9,15.87,11.39,30.05,22,13.8,10.37,20.09,23.22,30.05,45.41A220.93,220.93,0,0,1,411.41,513.36Z"/><path class="cls-1" d="M382.69,647.45c-19.95,19.56-41.64,25.53-71,33.22-20.38,5.33-55.35,14.16-101.92,9.81-33.57-3.13-64.07-6-92.86-28.69C95.28,644.71,85,624.62,80.27,615c-21-42.39-12.34-77.32-11.91-78.75a54.44,54.44,0,0,1,2.86-7.74c.12-.27.26-.54.38-.8,40.79-9.55,93.05-13.45,142.12-17.09,52.74-3.91,133.69-9.93,197.69.47,4.7,15.15,14.4,54.08-2.3,95.56C406,614.54,398.9,631.55,382.69,647.45Z"/><path d="M43.06,124.12C23.55,119,6.68,101.74,1.62,81.2-6.32,49,15.82,12.79,49,2.76,87.79-9,129.41,18.83,134.83,48.64,142,88.27,86,135.45,43.06,124.12Z"/><path d="M428.75,126c19.5-5.15,36.38-22.38,41.44-42.92,7.93-32.2-14.21-68.41-47.37-78.45C384-7.11,342.4,20.72,337,50.53,329.77,90.16,385.8,137.34,428.75,126Z"/><path class="cls-1" d="M375.59,51.47C371.7,48.73,363,43,345.18,36.27S304.63,23,272.54,21.07C237.94,19,211.87,17.42,178,26.14,151.65,32.89,134.39,41,130.2,43.2A187.47,187.47,0,0,0,96.87,65c-40.45,33.42-55.25,77.36-60.82,94.59-1.54,4.8.08.3-8.71,35.94-15,60.71-17.64,65.42-20,84C3.73,307.9,1.28,325.92,9,347.09c10.2,27.86,30.8,43.57,49,57.43,31.19,23.77,60.64,33,91.22,42.23,27.08,8.19,56.27,17,96.29,16.89,44.91-.15,78.11-11.51,103-20.27,24.09-8.47,51.86-18.51,81.08-42.23,16.55-13.43,34.39-28.29,43.92-54.05,6.95-18.8,6.2-34.55,5.07-54.06-1.12-19.19-4.59-38-22-91.22C438.3,145.52,426,117.39,411.06,92,403.81,79.7,393.73,64.28,375.59,51.47Z"/><path d="M221.47,338c-6.36-9.24-5.49-13.14-4.48-14.86,2.83-4.83,11.75-.94,35.89-2,10.3-.43,14.56-1.39,16.55,1.41,3.39,4.77-3.58,15.23-7.57,19.91-3.62,4.25-9.15,10.73-17.67,11.22C235.23,354.21,226.26,347.89,221.47,338Z"/><path d="M116,141.82c-25.39,4.54-40.74,23-54.23,39.13s-22.56,27.06-26,45c-5.16,27.27,7,49.56,10.38,55.38,20.49,34.79,64.17,48.06,99,43.45,8.55-1.14,42.18-5.6,62.39-34.32,14.29-20.32,14.21-41.89,14-51.46-.64-36-21.49-60.27-29.63-68.63-6.27-6.44-23.1-23.26-49.91-28.07A71,71,0,0,0,116,141.82Z"/><ellipse class="cls-2" cx="128.06" cy="241.58" rx="43.28" ry="41.53"/><ellipse cx="128.06" cy="241.58" rx="31.74" ry="30.45"/><ellipse class="cls-1" cx="108.05" cy="235.49" rx="6.34" ry="6.09"/><ellipse class="cls-1" cx="152.44" cy="266.5" rx="6.34" ry="6.09"/><path d="M367.06,141.82c25.39,4.54,40.74,23,54.23,39.13s22.56,27.06,26,45c5.16,27.27-6.95,49.56-10.38,55.38-20.49,34.79-64.17,48.06-99,43.45-8.55-1.14-42.18-5.6-62.39-34.32-14.29-20.32-14.21-41.89-14-51.46.64-36,21.49-60.27,29.63-68.63,6.27-6.44,23.1-23.26,49.91-28.07A71,71,0,0,1,367.06,141.82Z"/><ellipse class="cls-2" cx="354.95" cy="241.58" rx="43.28" ry="41.53"/><ellipse cx="354.95" cy="241.58" rx="31.74" ry="30.45"/><ellipse class="cls-1" cx="374.96" cy="235.49" rx="6.34" ry="6.09"/><ellipse class="cls-1" cx="330.57" cy="266.5" rx="6.34" ry="6.09"/><path class="cls-3" d="M200.48,352.16c-1.13,1.42-5.27,6.91-3.86,12.86,2.33,9.83,17.53,11.39,19.29,11.57,11.47,1.18,24.3-4.55,25.72-11.57.36-1.77.12-4.26.38-4.28s-.11,4.86,2.28,8.47,6.82,4.53,11.72,5.53c5.05,1,12.32,2.51,20.19-1,3.46-1.53,8.83-3.91,10.41-9.44,1.37-4.75-.85-9.06-1.62-10.42"/><line class="cls-3" x1="241.93" y1="337.18" x2="242.05" y2="365.02"/><path class="cls-1" d="M161.83,55C157.36,40.84,194.11,11.51,230.25,6c19.49-3,37.15,1.17,37.18,3s-15,.51-28.2,10.53c-6.18,4.67-14.12,13.41-12,17.73,2.75,5.49,22.51,5.27,35.7-4.46C279.19,20.77,278,0,283.79,0c6.17,0,17.4,23.63,10.41,40.16C278.3,77.81,168.72,76.94,161.83,55Z"/><path class="cls-1" d="M140.51,56.37c-3.42-2.28-25.14-16.27-52.22-9.06-18.6,4.95-36.72,18-34.76,23.89,3.19,9.6,58.93-1.26,59.28,1.08.26,1.73-79.71,10.38-80.18,24.3-.21,6.35,16.34,8.12,22,22.42,4.06,10.28.41,21.73-4.33,31"/><path class="cls-1" d="M344.3,56.37c3.42-2.28,25.13-16.27,52.22-9.06,18.59,4.95,36.71,18,34.75,23.89-3.18,9.6-58.93-1.26-59.28,1.08-.39,2.65,80.89,16.27,80.18,24.3-.39,4.46-25.56,1.16-34,15-5.89,9.66-1.12,23.6,4.66,34.93"/></g></g></svg>