<svg xmlns="http://www.w3.org/2000/svg" viewBox="0 0 240.26 418.51"><defs><style>.cls-1{fill:#feddb2;}.cls-2{fill:#f4d3ab;}.cls-3{fill:#fcfcfc;}.cls-4{fill:#eacca7;}.cls-5{fill:none;stroke-linecap:round;}.cls-5,.cls-7{stroke:#000;stroke-miterlimit:10;}.cls-6{fill:#5f2c17;}.cls-8{fill:#822b23;}.cls-9{fill:#f47946;}</style></defs><g id="Camada_2" data-name="Camada 2"><g id="Pronto"><path class="cls-1" d="M81,288.67c-1,.92-2.89,3.28-1.31,21a225.56,225.56,0,0,0,4.58,29.5c8.38,37.49,12.69,56.35,19,62.28,1.33,1.24,8,7.29,6.56,10.48-.86,1.83-4,1.83-3.93,2.63.09,1.13,6.41,1.41,10.49,1.31,5-.13,6.06-.85,6.55-1.31,2.28-2.14,1.55-6.3,1.31-7.87-1.33-8.65,1.22-17.47,1.31-26.22.2-18.49,1.76-15.84,1.31-27.53-.39-10.45-1.58-11.12-2.62-26.23-1.08-15.69.14-15.86-1.31-19.66C116.69,290.68,89.26,281.06,81,288.67Z"/><path class="cls-1" d="M163.64,284.37c1,.61,3.62,2.64,5.29,20.34a205.53,205.53,0,0,1,.53,30.51c-2.2,50.48-.75,56.53-6.19,64.08-1.09,1.5-6.51,8.71-4.44,11.55,1.19,1.63,4.27,1,4.36,1.82.13,1.13-6,2.61-10,3.29-5,.83-6.12.32-6.69,0-2.64-1.66-2.72-5.88-2.79-7.47-.34-8.75-4.52-16.92-6.28-25.49-3.72-18.11-4.74-15.21-6.54-26.78-1.61-10.33-.57-11.21-2.43-26.24-1.93-15.61-3.16-15.55-2.46-19.55C129,293.15,154.05,278.48,163.64,284.37Z"/><path class="cls-2" d="M121.61,161.5c1.12,9.89,0,11.8,0,11.8-2.18,3.27-6,2.33-9.18,5.24-4.26,3.91-3.14,10.47-3.28,16.39-.11,4.95-3.57,12.92-10.48,28.85-6.41,14.74-10.76,21.76-14.43,35.39-.66,2.49-1.11,4.38-1.31,5.25-1.91,8.51-3.62,16.16-2.62,24.91.47,4.08,2.13,18.53,12.46,24.25a13.49,13.49,0,0,0,2.23,1c4.19,1.5,10.85,1.3,35.79-1,11.05-1,12.87-1.28,15.73-2.62,11.32-5.28,15.9-16.78,17-19.66,4.05-10.17,2.83-19.06,1.31-30.16-1-7.19-1.78-7.34-6.55-24.91-6.67-24.55-10-36.82-9.18-41.95.7-4.37,2.65-12.1-1.31-15.74-2.29-2.1-5-1.36-6.55-3.93s.26-4.51,0-10.49c-.17-3.77-.32-7.11-2.63-9.18-3-2.67-8.31-2.06-11.8,0A12.51,12.51,0,0,0,121.61,161.5Z"/><path class="cls-1" d="M125,188.15c-.06.6-1.8.6-5.21,1.46-8.43,2.13-12.39,5.86-16.59,7.95-4.76,2.36-11.2,1.62-24.07.13-17.19-2-25.79-3-33.33-8.16-3.64-2.51-7.36-6-12-5.22-3.16.55-4.31,2.65-9.76,4.05-3.91,1-3.69,0-7,1-5.49,1.58-6.62,4.45-12,5.35-1.92.32-4,.67-4.72-.33-1.4-2,3.48-8.79,9.29-12.83,8.32-5.79,17.65-5.33,19.68-5.18,4.33.31,4.59,1.28,10.08,1.8a52,52,0,0,0,14.64-.8c7.06-1.22,15.71,0,33,2.31C102.33,181.75,125.2,185.94,125,188.15Z"/><path class="cls-1" d="M145.32,177.34c-.5.35.37,1.86,1.31,5.24,2.32,8.39,1,13.67,1.31,18.36.3,5.3,4.14,10.52,11.8,21,10.23,14,15.35,20.93,23.6,24.91,4,1.91,8.87,3.4,10.49,7.86,1.09,3-.17,5.06,1.31,10.49,1.06,3.89,1.81,3.22,2.62,6.56,1.35,5.54-.59,7.94,1.31,13.11.67,1.82,1.41,3.82,2.62,3.93,2.45.22,5.92-7.37,6.56-14.42.91-10.1-4.11-18-5.25-19.67-2.41-3.61-3.38-3.35-6.55-7.86a51.74,51.74,0,0,1-6.56-13.11c-2.43-6.75-7.74-13.68-18.35-27.54C162.09,193.84,147.13,176.05,145.32,177.34Z"/><path class="cls-1" d="M195.59,261.52c-.75,0-1.29.76-2.14,2-1.5,2.21-2.68,4-2.25,6.15.23,1.21,1.08,3.25,2.39,3.39,2.07.22,5.14-4.36,4.39-8.16C197.69,263.47,196.74,261.54,195.59,261.52Z"/><path class="cls-1" d="M170,26.61a49.84,49.84,0,0,1,16.19,21.58c1.05,2.82,2.85,8.16,1.34,32.36-1.65,26.57-3.27,61.66-8.09,67.43-2.51,3-8,5.15-18.88,9.44,0,0-13.69,5.38-22.92,5.39h-9.44c-4,0-11.47-1.48-18.88-4.05A90.68,90.68,0,0,1,94.53,152c-5.93-3.33-8.79-5.17-10.79-8.09-2.78-4.06-3.63-33.35-4-40.45-1-16.7-1.46-17.19-1.35-22.93,0-2.22.29-14.09,2.7-22.92,4.8-17.59,22.31-38.13,47.2-41.81C131.19,15.39,152.18,12.62,170,26.61Z"/><path class="cls-3" d="M97.79,103a9,9,0,0,0,2.81,2.42c2.45,1.46,4.8,1.54,7.63,1.61a16.39,16.39,0,0,0,6.82-.81,10.64,10.64,0,0,0,5.21-3.62c2.26-3.18,1.6-7,1.21-9.26a13.72,13.72,0,0,0-3.62-7.66,10.41,10.41,0,0,0-4.41-2.81,11.3,11.3,0,0,0-8,.8A14.86,14.86,0,0,0,98.2,90.9C97.75,91.83,94.61,98.55,97.79,103Z"/><path class="cls-3" d="M170.71,102.84a8.76,8.76,0,0,1-2.77,2.44c-2.42,1.49-4.77,1.61-7.59,1.72a16.55,16.55,0,0,1-6.83-.68,10.52,10.52,0,0,1-5.28-3.48c-2.32-3.1-1.72-6.86-1.36-9.11a13.4,13.4,0,0,1,3.47-7.61,10.55,10.55,0,0,1,4.37-2.86,11.43,11.43,0,0,1,8,.66,14.68,14.68,0,0,1,7.34,7C170.57,91.85,173.81,98.42,170.71,102.84Z"/><path class="cls-4" d="M125.54,109.06a10.23,10.23,0,0,1,6.56-5.25c5.13-1.2,8.92,2.38,9.18,2.62"/><path class="cls-5" d="M120.3,131.32a17.29,17.29,0,0,0,4,2.68A18,18,0,0,0,136,135.28c2.9-.73,5.29-2.23,8-4,.85-.53,1.54-1,2-1.34"/><path class="cls-6" d="M187.73,25.57c-.74-.79.9-2.46,1.37-6.42A18.57,18.57,0,0,0,187.73,10c-2.37-5.88-8-10.91-9.89-9.89-.74.41-.8,1.67,0,8.48,1.34,11.37,2.36,15.11,1.41,15.54-1.47.68-4.7-8-12.72-14.13-2.61-2-7.8-5.31-19.78-7.06C124.13-.35,104.3,5.84,100.13,7.2,82.07,13.08,74.48,20.57,62,17.09c-5.25-1.46-8.73-4.13-9.89-2.83C50,16.57,56.67,29.86,67.63,34c3.81,1.46,6.62,1.23,7.06,2.83.82,3-8.23,5.67-15.54,12.72C49.66,58.74,47.63,70.84,45,86.32c-1.45,8.63-2.94,23.19,0,24C50.83,112,59.77,91.26,56.33,96.21c0,0,3.17-7.32,4.23-7.06,1.44.35-.81,14.6-1.41,18.37C57,121.22,55.57,123.89,54.91,133c-.64,8.78-.91,13.28,1.42,18.37,4.05,8.87,13.46,14.3,15.54,12.72,1.09-.84-.37-3.25-1.42-11.31-.34-2.64-1.41-10.89,0-11.3,1.16-.34,2.2,5.07,7.07,9.89a26,26,0,0,0,15.54,7.06c7.46.69,15.55-2,15.54-4.23s-8.55-1-15.54-7.07c-5.31-4.58-6.91-12-10.13-26.88-1.79-8.29-2.69-12.44-2.62-17a50.83,50.83,0,0,1,8.51-26.73s2.89-5.68,24-29.67l5.65-8.48c.88.3-.75,5.32-1.41,14.13-.69,9.25.35,13.87,1.41,17,.66,1.89,2.49,7.22,4.24,7.06,3.53-.32,4.17-22.66,5.66-22.6,1,0,.07,9.29,5.65,18.36.84,1.38,3.81,6.21,5.65,5.66,2.4-.73-2-10.86,1.41-22.61C144,45.19,151.24,38.3,152.42,38.91c.65.35-.83,2.86,0,6.56A13.51,13.51,0,0,0,156.35,52c9.42,9.7,16.49,10.57,21.49,18.76,2.28,3.74,3.41,7.71,4.73,7.47,1.87-.35,1.83-7.89,2.63-7.87.62,0,1.1,4.78,1.31,9.18a94.19,94.19,0,0,1,0,10.49c-.9,9.54-7.56,13.25-17.15,30.18-5.91,10.44-5.77,12.59-5.14,13.08s1.53-.13,9.18-3.93c3.49-1.74,5.25-2.6,5.85-2.08.84.73-.15,3.14-1.92,7.32a40.14,40.14,0,0,1-3.93,7.87,29.76,29.76,0,0,1-7.15,7.58c-1.35,1-1.35.83-7.7,4-2.49,1.25-5.8,3-10.38,5.7-4.86,2.85-5.81,3.61-5.66,4.24.53,2.14,13.78,1.76,25.44-1.42C174.07,161,188.73,157,199,144.25c6.78-8.35,8.07-16,9.89-15.54s2.63,9.77-1.41,17c-2.58,4.59-6,6.49-5.65,7.06.62.89,9.29-3,16.95-9.89,4.57-4.08,8.27-7.39,9.89-12.71,1.8-5.89-.47-9.27-2.82-19.79-3.21-14.34-3.41-27.75-1.41-28.26,1.22-.3,2.45,4.48,8.47,9.9.74.66,5.8,5.21,7.07,4.23s-2.41-6.43-5.65-15.54a100.56,100.56,0,0,1-4.24-17C227.2,48.3,229,44.25,224.47,38.28c-1.13-1.48-4.46-5.88-9.89-7.06-4.31-.94-8.35.5-8.48,0-.2-.76,9.72-2.54,9.89-5.65.12-2.25-4.85-5.22-9.89-5.65C196.73,19.12,189.33,27.28,187.73,25.57Z"/><path class="cls-7" d="M115,92.16a14.87,14.87,0,0,1,0,5.64,4.72,4.72,0,0,1-1.21,2.82c-1.36,1.26-3.73,1.08-5.24.41-3.3-1.48-4.26-6.16-4-9.27.3-4,2.77-8.53,5.24-8.47,1.14,0,2,1,2.82,2C114.2,87.27,114.53,89.4,115,92.16Z"/><path d="M122,100a18.27,18.27,0,0,0-.4-6.86,19.62,19.62,0,0,0-2.82-6.85c-1.31-2-3.19-4.76-6.85-6a12.58,12.58,0,0,0-8.87.41,14.64,14.64,0,0,0-6.86,6c-.38.66-1.39,2.52-2.41,4.84-1,2.14-1.11,2.86-2,3.63a6.08,6.08,0,0,1-4.43,1.21,8.05,8.05,0,0,1-2.83-1.21c-.12.17,3,3.31,7.87,5.44.43.19,5.28,2.31,6,1.21.13-.18.06-.34,0-1.21,0-.41,0-1.21,0-2.82,0-1.25.1-2.63.2-3.43a13.59,13.59,0,0,1,3-6.65A13.81,13.81,0,0,1,106.5,84a9.61,9.61,0,0,1,4.84-1.21,8.91,8.91,0,0,1,4.44,1.62,12.79,12.79,0,0,1,4.43,5.24A20.56,20.56,0,0,1,122,100Z"/><path class="cls-7" d="M154.84,92.33a14.87,14.87,0,0,0,0,5.64,4.78,4.78,0,0,0,1.21,2.83c1.36,1.25,3.73,1.07,5.24.4,3.3-1.48,4.26-6.16,4-9.27-.29-4-2.77-8.53-5.24-8.47-1.14,0-2,1-2.82,2C155.59,87.44,155.26,89.57,154.84,92.33Z"/><path d="M146.39,100.12a18.4,18.4,0,0,1,.41-6.86,19.62,19.62,0,0,1,2.82-6.85c1.31-2,3.18-4.76,6.85-6a12.61,12.61,0,0,1,8.87.4,14.55,14.55,0,0,1,6.85,6c.38.66,1.39,2.52,2.42,4.84.95,2.14,1.1,2.86,2,3.63a6.07,6.07,0,0,0,4.43,1.21,7.84,7.84,0,0,0,2.82-1.21c.13.17-3,3.31-7.86,5.44-.44.2-5.29,2.32-6.05,1.21-.12-.18-.05-.34,0-1.21,0-.41,0-1.21,0-2.82a31.11,31.11,0,0,0-.2-3.43,13.47,13.47,0,0,0-7.86-10.28,9.44,9.44,0,0,0-4.83-1.2,8.82,8.82,0,0,0-4.44,1.61,12.71,12.71,0,0,0-4.43,5.24A20.63,20.63,0,0,0,146.39,100.12Z"/><path class="cls-6" d="M147.18,78.25c1.6,1.27,23.58-1,27.53-1.31,2.95-.21,6.49-1.32,6.55-2.63.06-1.13-2.56-2.12-3.93-2.62-5.25-1.93-9.94-1.69-14.42-1.31C152.1,71.29,146.11,77.41,147.18,78.25Z"/><path class="cls-6" d="M122.13,78.47c-1.6,1.27-23.58-1-27.53-1.31-2.95-.21-6.49-1.32-6.55-2.62C88,73.4,90.61,72.42,92,71.92c5.25-1.93,9.94-1.69,14.42-1.31C117.21,71.51,123.19,77.63,122.13,78.47Z"/><path class="cls-8" d="M131.17,189.18c.05-2.81-4.83-5.61-23.35-11.11-15-4.45-22.51-6.68-26.22-6C66.84,174.84,54,191.79,57.43,199.52c2.59,5.89,15.67,5,41.84,3.34,0,0,19.74-1.28,30.47-11.12A3.73,3.73,0,0,0,131.17,189.18Z"/><path class="cls-9" d="M119.64,172.64c1.38.47,1.57,3.22,5.25,5.25a14.32,14.32,0,0,0,9.17,1.31c6-1.2,7.58-5.82,10.49-5.25,3.74.74,5,9.07,5.25,10.49,2.82,18.13,8.1,35.79,11.8,53.76,4.13,20.1,6.85,17.16,11.8,40.64,4.24,20.17,6.27,30.44,1.31,39.33-6.69,12-22.13,18.06-34.09,18.36-13.28.33-15.79-6.61-27.53-3.94-9.08,2.07-11.64,7.14-23.6,9.18-5.56,1-10.77,1.84-14.42,0-15-7.54-2.71-60.46,0-72.11C88.92,210,113.84,170.69,119.64,172.64Z"/><path class="cls-8" d="M145.4,175.41c2.36-1.53,7.32,1.12,21.82,13.88,11.76,10.34,17.64,15.51,19,19,5.51,14-2,33.83-10.39,35.06-6.37.94-12.6-10.6-25.07-33.66,0,0-9.41-17.4-6.78-31.72A3.82,3.82,0,0,1,145.4,175.41Z"/><path class="cls-8" d="M168,392.72c-1.65,3-3.21,5.92-2.31,8.32.39,1,1,1.38,5,4.16,4.49,3.17,4.92,3.62,5,4.17.1,1.34-2.28,2.34-9.23,4.56-7.92,2.53-12.14,3.56-17.57,3.72-4.47.13-5.57-.45-6.38-1.25-2.55-2.51-1.49-6.34-3.17-15-1.83-9.39-4.51-12.2-3.18-15,.45-.93,1.5-2.2,9.76-2.07,10.33.15,12.23,2.19,18.62,1.27,5.56-.81,9.31-3.1,9.76-2.07S171.34,386.67,168,392.72Z"/><path class="cls-8" d="M99.31,398.41c2.41,2.45,4.7,4.83,4.49,7.38-.1,1.12-.62,1.61-3.65,5.35-3.46,4.27-3.76,4.82-3.65,5.36.27,1.32,2.83,1.64,10.12,1.89,8.32.28,12.65.14,17.92-1.18,4.34-1.09,5.24-1.95,5.81-2.94,1.77-3.11-.29-6.51-1-15.28-.78-9.54,1-13-1-15.27-.67-.77-2-1.71-10,.65-9.9,2.95-11.18,5.43-17.58,6.27-5.57.74-9.8-.45-10,.66S94.46,393.49,99.31,398.41Z"/><path class="cls-3" d="M114.4,90.05c-.74-.5-2.19.26-2.62,1.31a1.48,1.48,0,0,0,0,1.31,1.86,1.86,0,0,0,2.62,0A1.89,1.89,0,0,0,114.4,90.05Z"/><path class="cls-3" d="M164.47,90.27c-.74-.49-2.19.27-2.62,1.31a1.5,1.5,0,0,0,0,1.32,1.87,1.87,0,0,0,2.62,0A1.9,1.9,0,0,0,164.47,90.27Z"/></g></g></svg>