<svg xmlns="http://www.w3.org/2000/svg" xmlns:xlink="http://www.w3.org/1999/xlink" viewBox="0 0 893.42 1094.1"><defs><style>.cls-1{fill:#9bcc75;}.cls-2{fill:#7f579f;}.cls-3{fill:#fefefe;}.cls-4{fill:#f9f7f7;}.cls-13,.cls-5,.cls-7{fill:none;}.cls-6{fill:#f66386;}.cls-7{stroke:#f66386;}.cls-13,.cls-7{stroke-linecap:round;stroke-miterlimit:10;stroke-width:3px;}.cls-8{fill:#7a76b5;}.cls-9{fill:url(#Gradiente_sem_nome_20);}.cls-10{fill:#c3a75e;}.cls-11{fill:#746cab;}.cls-12{fill:#a5dc7e;}.cls-13{stroke:#92bc6d;}.cls-14{fill:#fff;}.cls-15{fill:#a30104;}.cls-16{fill:#81a55e;}</style><linearGradient id="Gradiente_sem_nome_20" x1="1782.12" y1="-332.27" x2="1869.69" y2="-332.27" gradientTransform="translate(-948.51 982.31) rotate(-7.03)" gradientUnits="userSpaceOnUse"><stop offset="0.11" stop-color="#d7406e"/><stop offset="0.14" stop-color="#d94969"/><stop offset="0.29" stop-color="#e06f54"/><stop offset="0.43" stop-color="#e68b45"/><stop offset="0.55" stop-color="#e99c3c"/><stop offset="0.65" stop-color="#eaa239"/></linearGradient></defs><g id="Camada_2" data-name="Camada 2"><g id="Camada_1-2" data-name="Camada 1"><path class="cls-1" d="M579.08,775.07c-8.54-8.51-29.93-6-72.37-.7-23.24,2.92-40.9,6.55-75.26,13.7-51.79,10.77-61.69,14.42-66,24.06-5.15,11.54-.39,27.44,8.54,36.53,6.9,7,16.19,9.9,72.94,8,34.89-1.15,32.29-2.26,59.94-3.14,45.91-1.46,52.39,1.63,62-5.43C589.7,832.81,595.55,791.5,579.08,775.07Z"/><path class="cls-2" d="M130.75,402.44q-21,28.08-27.94,41.27-19.82,38-20.53,75.22a52.88,52.88,0,0,0,.19,6.61,41.58,41.58,0,0,1-.24,9,10.34,10.34,0,0,1-2.63,5.57Q72.51,547,56.49,543.7,36.91,540,28.57,527.25a19.91,19.91,0,0,1-2.26-5.53,18,18,0,0,1-.22-6.78q.53-3.77.88-6.46a39,39,0,0,1,2.11-7.39q1.76-4.69,2.34-6.21c.39-1,1.26-2.92,2.6-5.73q18-42.21,44-73.32a150.5,150.5,0,0,1,37.13-31.45q20.1-12.17,35.95-17.23a67.27,67.27,0,0,0-14.24.57,253.94,253.94,0,0,0-32.65,6.82q-19.56,5.77-31.37,11.83a67.47,67.47,0,0,0-6.59,4q-4.35,2.91-5.57,3.84a51.33,51.33,0,0,1-5.91,3.91q-7.27,4.15-18.13,4.1-11.19,0-24.59-7.11T.16,377.61q.88-6.47,19.62-11,6.28-1.87,20.36-5.21a308.45,308.45,0,0,1,45.28-8.5q26.86-2.24,47.8,1.18,24.56,4.15,33.52,10.86a2,2,0,0,1,1,1.9l-.33.06a83.22,83.22,0,0,1-10.27,9.62q-7.11,5.89-9.5,8.08Q134.93,396.77,130.75,402.44Z"/><path class="cls-3" d="M164.83,736.73C133.36,827.61,127.8,846,129.15,875c.73,15.71,2.54,46.78,21.51,79.77,28.68,49.85,76,68.27,89.39,73.29,59.7,22.46,112.25,4.91,132.29-1.79,25-8.36,64.75-21.63,89.38-59,26-39.49,21.5-83.35,17.88-118-2.32-22.19-11.87-50.62-30.87-106.58-19.61-57.77-29.57-86.82-37.16-95.13-47.61-52.16-161.42-54.87-211.07-3C195.68,649.61,194,652.54,164.83,736.73Z"/><path class="cls-4" d="M467.64,920.88c9.22-9.62,43.12-1.22,52.45,19.53,3.59,8,2.67,15.86,1.94,22.21-.57,4.87-2.47,19.47-13.92,31.62-1.32,1.4-22.79,23.62-41.74,15.18-11.55-5.15-18-19.85-17.31-31.7.91-14.76,12.58-18.17,16-38.86C466.94,927.64,464.21,924.45,467.64,920.88Z"/><path class="cls-5" d="M180.94,474.36c-11.12,18.9-10.59,38-9.38,47.63,1.25,9.9,2.83,22.43,13.13,32.53,1.47,1.45,15.9,15.23,30.92,11.52,17.29-4.27,23.06-28.69,26.88-44.85,3.06-13,11.51-48.76-8-65.22-.79-.66-11-9.05-24.12-7.37C194.92,450.58,186.3,465.24,180.94,474.36Z"/><path class="cls-4" d="M137.25,919.73c-11.31-7-42.08,9.47-46,31.87-1.51,8.63,1.33,16,3.61,22,1.75,4.57,7.19,18.25,21.28,27.21,1.63,1,27.92,17.26,44.2,4.4,9.93-7.84,12.58-23.68,8.95-35-4.52-14.08-16.67-14.5-25.11-33.71C139.6,926.12,141.45,922.35,137.25,919.73Z"/><path class="cls-4" d="M160.69,882.85c0,11.63,10,17.45,40.11,40.95,46,35.82,51.56,44.89,77.57,56.84,21.05,9.66,39.47,18.12,49,10.33,12.87-10.56,1.78-44.86-6.16-62-4.41-9.5-9.55-17.46-29.95-40.82-56.4-64.59-69.79-64.23-74.86-63.5-8.32,1.19-15.41,7.92-29.59,21.39C171.36,860.72,160.7,870.84,160.69,882.85Z"/><path class="cls-4" d="M420.46,756.42c8.06-8.38,19.29-5.64,57.29-1.64,57.94,6.11,68.28,3.47,95.29,12.92,21.86,7.65,41,14.35,42.42,26.54,1.93,16.54-29.86,33.53-47.44,40.32-9.76,3.78-19,6-49.89,8.6-85.43,7.35-94.83-2.2-98-6.24-5.16-6.64-5.59-16.41-6.45-35.94C412.77,779.75,412.12,765.07,420.46,756.42Z"/><path class="cls-3" d="M505.81,500.2c36.18,26.21,42.77,52.33,44.39,63.39,1.72,11.78.6,25.43-3.53,26.5-7.18,1.86-23.61-20.52-23.61-20.53h0c1.93,4.12,5,10.32,9.22,17.61,9.82,17,20.15,29.8,19,30.81-1,.82-6.78-8.46-17.16-10-8.31-1.2-17.08,2.94-17.16,6.21-.07,3,7,3.31,15.07,11,3.47,3.32,6.46,6,7.34,9.63,4,16.25-28.27,36.36-34.75,40.4a128.29,128.29,0,0,1-23.12,11.36"/><path class="cls-4" d="M119.48,754.2c-1.1,2.19,3.9,8.4,10.47,10.48,7.37,2.32,13.66-1.52,14.5,0,1.32,2.36-15.3,9.07-16.11,17.72-1.41,15.16,46.15,31.68,62.74,37.44,53.38,18.54,65.42,11.45,81.34,27.11,26.22,25.79,20,71.37,25.42,71.17,5-.18-2-38.89,20.33-64.39a43.59,43.59,0,0,1,5.82-5.59c21-16.49,44.64-19,53.5-19.83,53-5.07,111.2-36.83,109.36-46.72-.73-3.93-11.27-6-10.74-7.79s9.26,1.64,12.6-1.93c5.45-5.81-7.66-25.35-5.75-26.55,1.66-1,11.48,13.65,12.75,12.91,1.79-1-7.56-35.88-31.8-53.63-17.33-12.69-33.58-9.63-86.42-6.78-109,5.89-163.48,8.83-166.08,8.47-13.71-1.89-34.29-7-54.23,3.39-21.17,11.09-32.54,34.54-30.45,36.47s18.08-16.18,22.56-12.89c3.17,2.32.63,15.38-7.25,20.14C133.07,758.8,121,751.15,119.48,754.2Z"/><path class="cls-3" d="M101.42,497.76C65.23,524,58.65,550.09,57,561.15c-1.73,11.78-.61,25.43,3.53,26.5,7.17,1.86,23.6-20.52,23.6-20.53h0c-1.93,4.12-5,10.32-9.21,17.61-9.82,16.95-20.15,29.8-19,30.81,1,.82,6.78-8.46,17.16-9.95,8.31-1.2,17.08,2.94,17.16,6.21.07,3-7,3.31-15.07,11-3.48,3.32-6.46,6-7.34,9.63-4,16.25,28.26,36.36,34.75,40.4a127.27,127.27,0,0,0,23.11,11.36"/><path class="cls-3" d="M313.66,301.42a16.28,16.28,0,0,0,9.76.62c7.38-2,13-10.43,9.76-15.37s-16.49-1.25-16.85-2.9,11-8,21-4.47c9,3.16,14.54,13.52,11.16,21.51a16.25,16.25,0,0,1-7,7.37"/><path class="cls-3" d="M219.38,310.52c-15,7.29-47.95,23.34-67.85,57.87-4.71,8.17-1.48,4.88-20.31,51.54-4.55,11.26-14.8,35.85-29.76,65.8C81.61,525.47,76.83,527.52,75,542.91c-2.34,20.12,5.2,22,10.62,58,6.7,44.64-3,54.59,8.87,72.09,11.17,16.55,29.7,22.31,49.21,28.38,14.63,4.55,18.42,1.72,69.67,6.8,50.4,5,59.73,6.33,75.79,2,10.63-2.87,20-7.09,37.4-8.8,15.39-1.51,26.47,0,34.4.82,21,2.21,57.72,6.08,91.75-4,21.7-6.42,45.69-12.48,54.06-31.5,11.28-25.63-12.85-57.3-1.18-66.38,7.3-5.68,20.93,3.51,24.34-1.55s-10.7-13.83-15.8-32.12c-5.67-20.28,6.62-27.68,1.74-48.77-3.55-15.32-12.73-16-20.57-34.27-9.81-22.83-9.44-38.8-12-56.57-1.77-12.32-9.71-58.63-36.41-88.86C422.86,311,390.51,304.68,356.05,298,331.83,293.28,276.79,282.58,219.38,310.52Z"/><path class="cls-6" d="M228.09,180.72C199.1,96.55,195.8,70,164.53,41.25c-7-6.45-39.06-35.87-58.25-26.48C84.54,25.4,91,80,94.55,110.15c3.22,27.32,8.79,47.56,25.85,98.82,39.7,119.26,49.4,129.31,62.24,133.38,26.06,8.27,61.84-9.05,75.46-34.52C270.31,285,258.15,268,228.09,180.72Z"/><path d="M351.22,478.12c-4.88,12.27-2.13,23.09,1.32,36.73,3.72,14.66,6.76,26.65,16.25,31.09,11.6,5.44,25.77-3.75,41-13.65,17.28-11.21,38.88-25.23,37.29-43.32C446,476.21,433.86,467.65,426,462.09c-6.86-4.86-21.1-14.91-40-11.6C370.91,453.14,357,463.65,351.22,478.12Z"/><ellipse class="cls-6" cx="177.49" cy="584.5" rx="31.46" ry="17.83"/><ellipse class="cls-6" cx="412.56" cy="584.5" rx="31.46" ry="17.83"/><path class="cls-6" d="M283.16,578.7c1.61-5,11.41-5.82,24.14-6.9,10-.85,15-1.21,17.24,1.72,3.18,4.19-.81,11.94-4.68,19.46-4,7.74-9.41,18.28-15.53,17.75C301,610.45,300.48,607.2,291,593,284.25,582.82,282.35,581.21,283.16,578.7Z"/><path class="cls-3" d="M219.63,382.26c-3.64,4.56-29.27-4.61-49.17-23.84-24.37-23.55-27.7-50.15-37.25-89.4-22.9-94.08-42.58-93.55-47.67-157.93-2.18-27.48-6.44-81.38,20.74-96.32,13.89-7.64,30.68-2.18,40.34,1,14.26,4.64,40.31,17.21,68.54,68.53,16.36,29.76,23.58,55.57,37.24,107.64,6.66,25.39,10.18,43.21,15.54,70.36,8.08,40.91,16.61,84.1,11.28,85.72-4.33,1.32-16.21-25.44-17.88-29.8-14.09-36.89-16.85-62.62-25.11-101.31-4.66-21.88-8.11-38-15.11-59.6-7.83-24.09-16.18-49.21-34.27-76-15-22.21-46.94-60.71-63.85-53.63-1.45.6-5.65,2.74-10.43,17.88a126.17,126.17,0,0,0-3.2,61.08c12.57,59.32,31,79.28,46.19,140,8.76,35,5.79,36.27,13.41,55.13C189.39,352.3,224.28,376.41,219.63,382.26Z"/><path class="cls-6" d="M394,169.83c29-84.17,32.29-110.76,63.55-139.47,7-6.46,39.06-35.87,58.26-26.48,21.74,10.63,15.29,65.27,11.73,95.38-3.22,27.32-8.79,47.56-25.85,98.82C462,317.34,452.25,327.39,439.4,331.46c-26,8.27-61.83-9-75.45-34.52C351.74,274.13,363.9,257.09,394,169.83Z"/><path class="cls-3" d="M402.42,371.36c3.63,4.56,29.26-4.6,49.17-23.83,24.37-23.55,27.69-50.15,37.25-89.4,22.89-94.08,42.58-93.55,47.67-157.93,2.18-27.48,6.44-81.38-20.74-96.32-13.89-7.64-30.68-2.18-40.34,1-14.26,4.63-40.31,17.21-68.54,68.53-9.79,17.8-22.38,44.38-37.24,107.64C351,260.29,342.83,337.08,342.83,337.1h0s15.73-24.2,17.87-29.8c14.1-36.89,16.86-62.62,25.11-101.32,4.67-21.87,8.12-38,15.12-59.59,7.83-24.09,16.18-49.21,34.27-76,15-22.21,46.94-60.71,63.85-53.63,1.44.6,5.65,2.74,10.43,17.88a126.11,126.11,0,0,1,3.19,61.08c-12.56,59.32-30.95,79.28-46.18,140.05-8.76,35-5.79,36.27-13.41,55.13C432.66,341.41,397.77,365.52,402.42,371.36Z"/><path d="M249.14,478.12c4.88,12.27,2.13,23.09-1.32,36.73-3.72,14.66-6.76,26.65-16.24,31.09-11.61,5.44-25.78-3.75-41-13.65-17.27-11.21-38.88-25.23-37.29-43.32,1.12-12.76,13.23-21.32,21.11-26.88,6.87-4.86,21.1-14.91,40-11.6C229.45,453.14,243.4,463.65,249.14,478.12Z"/><path class="cls-3" d="M211,466.56c-7.57,2.78-13.41,11.26-11.44,17.79,2.48,8.16,16.84,12.16,25.41,6.35,5.21-3.53,9.21-11.32,6.35-17.79C228.1,465.65,218,464,211,466.56Z"/><path class="cls-3" d="M391.31,464.73c-7.57,2.77-13.41,11.25-11.43,17.78,2.48,8.17,16.84,12.17,25.41,6.35,5.2-3.53,9.21-11.32,6.35-17.78C408.42,463.81,398.27,462.18,391.31,464.73Z"/><path class="cls-7" d="M259.15,636.55c1.9,1.72,9,7.76,19.09,7.56,11.15-.23,21.49-8,26.1-19.56"/><path class="cls-7" d="M349.52,636.55c-1.89,1.72-9,7.76-19.09,7.56-11.15-.23-21.48-8-26.09-19.56"/><path class="cls-3" d="M247,330.8c4.23,1.76,13.57,4.88,23.73,1.69,17.93-5.62,31.6-28.75,23.72-42.36-7.65-13.23-40.06-3.45-40.95-8-.86-4.34,26.82-22,51.12-12.34,21.83,8.71,35.32,37.29,27.12,59.31-4,10.7-12.09,17.14-16.95,20.34"/><path class="cls-2" d="M485.36,402.91c-4.07.11-10.66.3-18.76.62-43,1.7-58.88,4.3-94.31,5.58-.75,0-13.74.23-39.7.62-62.12.95-66.13.93-72,.82-22.44-.43-40.44-1.62-65.78-3.3-15.49-1-28.48-2.05-37.86-2.84-21.54-6.1-33.2-24.46-30.38-36.87,3.16-13.94,26.09-26.92,51.05-17.23,31.61,3.2,65.52,5.36,101.49,5.92A1196.81,1196.81,0,0,0,455.38,346c15.32,1.15,19.84,5.14,21.14,8.56,2.32,6-4.6,12.51-1.24,18,2.53,4.11,7.67,2.51,11.17,6.2C489.3,381.72,490.92,388.09,485.36,402.91Z"/></g><g id="Camada_2-2" data-name="Camada 2"><path class="cls-8" d="M587.45,1039.08c-2.85,3.5.28,13.38,6.48,15.63,4,1.44,7.84-.79,13.72-4.2,4.16-2.41,7.73-4.47,7.62-7.24-.12-3.39-5.66-5.72-8.38-6.48s-5.82-.4-11.82.38C590.54,1037.76,588.26,1038.07,587.45,1039.08Z"/><path class="cls-1" d="M630.91,1021.87c-.72,1.25-2.27,2.15-4.65,3.54a25,25,0,0,1-5.44,2.35c-24.94,7.62-38.32,14.63-38.32,14.63-21.58,12.41-25.85,19-34.19,23.21a45.32,45.32,0,0,1-7.16,2.66c-17.29,4.83-34.16-3.89-38.81-6.29a63.6,63.6,0,0,1-19.44-15.25c-3.69-4.44-9.83-11.84-10.83-20.31-2.38-20.2,25.5-37.85,36.81-44.88,9.36-5.82,29.54-18,57-15.63,8.41.72,30.29,2.59,52.86,32.05C626.61,1008.25,633.6,1017.16,630.91,1021.87Z"/><path class="cls-9" d="M845.91,475.37q-5.7-11.52-17.57-7l-.2,0-.25-.38q10.79-5,6.75-16.32l0-.2.2,0,.2,0q2.21,4.62,6,6a10.62,10.62,0,0,0,5.27.58,15.48,15.48,0,0,0,4.64-1.19l1.76-.62.25.37a14.59,14.59,0,0,0-7.59,7.87,16.64,16.64,0,0,0-.44,2.19,11.52,11.52,0,0,0-.13,2.26c0,.74.07,1.41.14,2a13.36,13.36,0,0,0,.32,1.69c.13.53.25,1,.37,1.38a3.53,3.53,0,0,0,.42,1l.05.4Zm-19.3-82.09,0,.2,0,.21q-11.73,5.71-15,15.5a18.65,18.65,0,0,0-.89,3.57c-.18,1.25-.31,2.42-.38,3.51a27.27,27.27,0,0,0,0,3.26,22.31,22.31,0,0,0,.37,3c.18.93.39,1.82.64,2.67s.46,1.61.68,2.26.42,1.24.63,1.76a5.66,5.66,0,0,0,.55,1.15l0,.41-.38.25q-7.63-15.57-22.2-16.42a33.26,33.26,0,0,0-6.58.31,31.21,31.21,0,0,0-4.86,1.1l-1.73.83-.25-.38q14.46-6.68,15.43-20.24c0-.95,0-1.9,0-2.85s-.12-1.78-.21-2.52-.22-1.47-.37-2.19-.31-1.39-.45-2-.27-1.09-.39-1.49a3.94,3.94,0,0,0-.42-1l-.05-.4.17-.23a20.39,20.39,0,0,0,12,11.76,23.78,23.78,0,0,0,3.68,1,20.83,20.83,0,0,0,3.71.36c1.16,0,2.34,0,3.55-.13a27.37,27.37,0,0,0,3.32-.41c1-.19,2-.42,3-.68s1.84-.49,2.56-.72a14.31,14.31,0,0,0,1.94-.75,4.92,4.92,0,0,1,1.47-.49ZM831.43,424l0-.2,0-.2a19.12,19.12,0,0,0,7.64-5.73,11.65,11.65,0,0,0,2.56-7.35,36,36,0,0,0-.36-5.36,21.82,21.82,0,0,0-.91-3.24l0-.21.38-.25q2.6,6.21,7.91,8a19.92,19.92,0,0,0,3.13.64,18.13,18.13,0,0,0,3.18.11c1-.05,2-.14,2.92-.26a14.71,14.71,0,0,0,2.58-.52c.79-.23,1.48-.45,2.06-.66a14.54,14.54,0,0,0,1.46-.59l.57-.27,0,.4q-7.71,3.6-9.92,10.39a20.51,20.51,0,0,0-.64,3,15.09,15.09,0,0,0-.15,3c0,.95.13,1.85.24,2.72a21.6,21.6,0,0,0,.38,2.3,11.65,11.65,0,0,0,.53,1.77,5.4,5.4,0,0,0,.55,1.15l.07.6-.38.25a22.31,22.31,0,0,0-6.5-8.16,12.69,12.69,0,0,0-7.88-2.7,42,42,0,0,0-5.75.41,23.32,23.32,0,0,0-3.45.93Z"/><path class="cls-10" d="M782.33,865.79c-4.35,92-68.86,194-147,199.49-33,2.32-58.66-13.3-72-21.45C469,986.4,469.45,851.22,469.62,794.39c.19-63.53,14.7-88.06,26.12-101.76,25.48-30.56,61.76-38.56,74.74-41.42,3.54-.78,53.1-11,102.66,11.71C746.53,696.57,786.06,787,782.33,865.79Z"/><path class="cls-11" d="M672.27,1057.22c5.66,12.38,45.42,5.38,59.75,2.85,18-3.17,45.1-8.22,74.83-27.56,32.14-20.9,48.61-46.28,52.23-52,12.9-20.5,17.35-37.85,23.72-62.7,6.71-26.18,12.62-49.25,10-80.12-1.36-15.83-4.12-44.25-22.45-73.21-13.15-20.77-28.1-32-56-53a269.4,269.4,0,0,0-47-28.27c-21.1-10-31.65-14.94-37.15-11.57-14.6,9,15.69,55.92,21.76,121.17,7,75.35-17.31,185.63-65.27,237.26C681.8,1035.39,668.45,1048.88,672.27,1057.22Z"/><path class="cls-8" d="M590.69,1068.14c10.72,5,28.35,13.23,52.4,11.49,7.72-.56,34.1-2.18,53.49-22,5.74-5.87,10.42-14,19.77-30.23s17.78-30.85,25.48-50.18c4.22-10.6,8.34-22.89,15-52.1C764.88,889.72,770,867.3,773.2,836c2.74-26.81,6.07-61.71-1.65-105.29-6.27-35.34-15.48-52.05-28.31-63.45-4.54-4-16.72-14.54-33.28-14.24-11.65.22-25,5.78-25.16,11.63-.18,5.53,11.51,7.07,23.92,17.27,11.89,9.78,17,21.37,21.8,32.45,13,29.7,10.82,68.13,7.81,97.61-4.85,47.35-12.53,77.81-26.53,133.3-5,19.82-14.46,55.85-38.6,87-11.41,14.76-23.16,21.13-34.66,24.11-9.23,2.4-16.77,1.74-30.17.45-30.77-3-44.43-10.86-45.53-8.57S575.35,1061,590.69,1068.14Z"/><path class="cls-12" d="M638.22,378.66a207.31,207.31,0,0,0-68,9.59,198.37,198.37,0,0,0-54.92,27.16A188.93,188.93,0,0,0,473,458.07c-10.83,15.08-16.79,28.17-24.43,44.92-12.63,27.7-8.18,26.53-17.73,43.87-11.89,21.61-21.53,28.43-22.81,44.9a169.68,169.68,0,0,0,.12,22.58s.61,8.86,1.82,15.93c4.37,25.45,38,52.85,39.39,54l1.63,1.34c21.4,17.15,55.77,31.3,55.77,31.3,34.45,13.89,51.68,20.84,69,26.19,33.84,10.46,56.3,17.4,87.46,20,32.5,2.66,60.55,5,90.64-10,24.83-12.31,39.36-30.56,49.43-43.19a197.42,197.42,0,0,0,33.25-63.77c14.68-47.41,7.67-87,4.69-102.87a189.1,189.1,0,0,0-10.93-38.17,195.42,195.42,0,0,0-43.54-64.23c-28.06-27.65-56.84-39.51-72.25-45.68C676.36,380,644.75,378.83,638.22,378.66Z"/><path class="cls-13" d="M477.82,640.39a50.85,50.85,0,0,0,19.92,22.28c2.66,1.58,19.15,11.39,35.31,5.85,17.63-6,21.53-25.72,28.25-24.14,6.94,1.64-.19,23.44,13.79,39.69,11.55,13.42,26.21,18.33,28.82,18.94a51.55,51.55,0,0,0,33.31-3.66"/><path class="cls-14" d="M555.17,564.24c-2.82,3.61-7.77,4.09-10.91,4.32-12.13.86-18.21,1.29-28.47-.87-6.86-1.45-17-3.69-27.95-10A74.5,74.5,0,0,1,481,553.3c-7.5-5.45-11.68-8.49-13.93-14.38-4.13-10.84,1.86-22,7.38-32.26a70.44,70.44,0,0,1,8.21-12.13,69.44,69.44,0,0,1,13-12c5.57-3.87,8.45-5.86,12.52-6.21,3.35-.29,7.44.55,16.08,7,.92.68,1.85,1.37,2.79,2.09,7.23,5.46,15,12.06,21.27,23.54,4.52,8.33,5.83,14.87,8.26,27,0,0,1.48,7.38.64,21.55A11.48,11.48,0,0,1,555.17,564.24Z"/><path class="cls-15" d="M555.17,564.24c-2.82,3.61-7.77,4.09-10.91,4.32-12.13.86-18.21,1.29-28.47-.87-6.86-1.45-17-3.69-27.95-10-6.93-10.24-2.49-24.81.47-34.51,1.65-5.44,4.46-14.34,12-23.22,3.77-4.45,7.05-8.29,12.78-11,2.12-1,6.37-2.06,14-3.7,7.23,5.46,15,12.06,21.27,23.54,4.52,8.33,5.83,14.87,8.26,27,0,0,1.48,7.38.64,21.55A11.48,11.48,0,0,1,555.17,564.24Z"/><path class="cls-14" d="M526.69,507.3c-2.63,1.12-7.89,3.38-10.6,8.43-4.12,7.66-1.3,19.75,7,24.32,6.11,3.36,12.68,1.28,14.22.74a19.24,19.24,0,0,0,10.16-8.4,18.87,18.87,0,0,0,.33-18.31c-.57-1-4.32-7.56-11.44-8.65C532.45,504.83,529.31,506.17,526.69,507.3Z"/><path class="cls-14" d="M508.5,528.45A8.67,8.67,0,0,0,504,532c-1.74,3.23-.55,8.33,3,10.26a7.61,7.61,0,0,0,6,.31,8.07,8.07,0,0,0,4.29-3.54,8,8,0,0,0,.14-7.73,6.31,6.31,0,0,0-8.93-2.86Z"/><path class="cls-14" d="M649.67,590.69c-.1,4.57,3.42,8.08,5.7,10.25,8.84,8.36,13.26,12.54,22.57,17.38,6.22,3.23,15.52,7.95,27.92,10a74.41,74.41,0,0,0,8.11.91c9.25.54,14.42.84,19.89-2.29,10.06-5.76,12.51-18.19,14.75-29.63a70.91,70.91,0,0,0-1.11-32.16c-1.86-6.52-2.82-9.89-5.75-12.73-2.41-2.35-6.1-4.3-16.86-4.81l-3.47-.16c-9.06-.36-19.29-.22-31.38,4.72-8.78,3.58-13.93,7.81-23.52,15.66,0,0-5.82,4.77-14.16,16.26A11.56,11.56,0,0,0,649.67,590.69Z"/><path class="cls-15" d="M649.67,590.69c-.1,4.57,3.42,8.08,5.7,10.25,8.84,8.36,13.26,12.54,22.57,17.38,6.22,3.23,15.52,7.95,27.92,10,11.86-3.53,17.66-17.61,21.53-27,2.17-5.26,5.64-13.92,5.42-25.58-.1-5.84-.19-10.88-2.93-16.58-1-2.11-3.62-5.63-8.46-11.73-9.06-.36-19.29-.22-31.38,4.72-8.78,3.58-13.93,7.81-23.52,15.66,0,0-5.82,4.77-14.16,16.26A11.56,11.56,0,0,0,649.67,590.69Z"/><path class="cls-14" d="M710.19,562.88c-2.79.59-8.4,1.77-12.05,6.18-5.55,6.7-5.16,19.12,2.11,25.24,5.34,4.49,12.19,3.75,13.8,3.52a19.28,19.28,0,0,0,11.62-6.24,18.91,18.91,0,0,0,3.93-17.89c-.36-1.13-2.75-8.26-9.52-10.73C716.33,561.59,713,562.29,710.19,562.88Z"/><path class="cls-14" d="M688.2,580a8.71,8.71,0,0,0-5.09,2.61c-2.33,2.83-2.17,8.07.9,10.65a7.65,7.65,0,0,0,5.82,1.49,8.11,8.11,0,0,0,4.9-2.64,7.94,7.94,0,0,0,1.66-7.54A6.32,6.32,0,0,0,688.2,580Z"/><ellipse class="cls-16" cx="560.13" cy="615.77" rx="4.06" ry="5.4"/><ellipse class="cls-16" cx="583.77" cy="623.83" rx="5.4" ry="4.06" transform="translate(-228.56 888.56) rotate(-64.95)"/><path class="cls-1" d="M705.28,1046.28c-.71,1.24-2.27,2.15-4.64,3.53a24.68,24.68,0,0,1-5.44,2.36c-25,7.62-38.32,14.62-38.32,14.62-21.58,12.41-25.85,19-34.19,23.21a44.12,44.12,0,0,1-7.16,2.67c-17.3,4.82-34.16-3.89-38.81-6.3a63.5,63.5,0,0,1-19.44-15.24c-3.69-4.45-9.83-11.85-10.83-20.31-2.38-20.2,25.5-37.85,36.81-44.88,9.36-5.83,29.53-18,57-15.63,8.41.72,30.28,2.58,52.85,32.05C701,1032.66,708,1041.56,705.28,1046.28Z"/><path class="cls-1" d="M747.55,806.84c-8.53-8.51-29.93-6-72.37-.7-23.23,2.92-40.89,6.55-75.26,13.7-51.79,10.76-61.68,14.42-66,24.06-5.14,11.54-.38,27.43,8.55,36.53,6.9,7,16.19,9.9,72.94,8,34.88-1.14,32.28-2.25,59.93-3.13,45.91-1.46,52.39,1.63,62-5.43C758.18,864.58,764,823.27,747.55,806.84Z"/></g></g></svg>