<svg xmlns="http://www.w3.org/2000/svg" viewBox="0 0 218.3 835.84"><defs><style>.cls-1{fill:#683b2d;}.cls-2{fill:#f4eaeb;}.cls-3{fill:#5e352a;}.cls-4{fill:#fff;}.cls-5{fill:#351406;}.cls-6{fill:#2f7734;}.cls-7{fill:#2d6d2f;}.cls-8{fill:#722419;}.cls-9{fill:none;stroke:#000;stroke-linecap:round;stroke-miterlimit:10;}</style></defs><g id="Camada_2" data-name="Camada 2"><g id="Pronto"><path d="M67.59,8.24C57.45,12.79,38.59,23.1,26,43.91c-14.77,24.36,2.63,44.14-10.71,71.34-2.15,4.4-8.38,15.82-3.82,23.75,2.52,4.38,9.5,17.52,10,19,.78,2.27-4.35,8.12-4,12,.2,2.11,4.83,3.24,16,10a6.12,6.12,0,0,1,3,3c1.34,3.68-3.7,6.09-4,11-.36,6,6.48,12.27,12,15,2,1,3.9,2.13,8,4,7.2,3.27,10.84,4.93,15,6,12.51,3.22,19.9-1.38,23,3,1.94,2.73-.5,5.13,1,7,5.14,6.39,32.58-22.78,61-18,2.65.45,18.6,2.58,25-1,4.59-2.56,4.9-4.24,11-8,8.34-5.08,12.23-5.32,15-11,4.9-10.22-.63-24.1-1-25-1.32-3.21-2.7-5.05-5-11a71.33,71.33,0,0,1-4-13c-2.21-12.07,10.69-17.73,7-28-2.42-6.77-7.33-8-7-13,.43-6.34,8.58-8.06,12-13,8.55-12.31-10-47.89-38-67.87C141.44,1.53,102.29-7.35,67.59,8.24Z"/><path class="cls-1" d="M66.7,789.39c2,7.4,3.33,15.64,1.85,21.15-1.69,6.31-6.29,6-6.39,8.77-.13,4,9.07,5.58,15.06,5.62,7.44.05,9.09-2.36,9.92-3.92,3.84-7.23,3.77-21.83,3.79-27.35,0-1.19,0-2.39,0-3.58"/><path class="cls-1" d="M151.91,788.63c-1.95,7.41-3.32,15.65-1.84,21.16,1.69,6.31,6.29,6,6.38,8.77.14,4-9.07,5.58-15.06,5.62-7.44.05-9.08-2.36-9.92-3.93-3.84-7.23-3.77-21.82-3.79-27.34,0-1.19,0-2.39,0-3.59"/><path class="cls-2" d="M127.65,789.32c-12.78-8.37-4.26-28.39-8.11-87.86-1.84-28.4-3.92-45.55-3.92-45.55-2-18.5-3.15-23.71-4.54-50.47-1.91-36.54-.33-39-2.39-91.84-2.14-54.91-4-55.39-2.75-68.82,5.25-57.72,43.17-94,57.13-68.28,4.39,8.09,5.32,20.3,6.9,73.13,2.55,85.21,3.83,127.82,2.9,156.2-7.85,240.78-15.38,178-21,182.8C146.1,793.68,134.67,793.93,127.65,789.32Z"/><path class="cls-2" d="M91,790.08c12.77-8.38,4.26-28.4,8.11-87.86,1.84-28.41,3.91-45.56,3.91-45.56,2-18.5,3.16-23.71,4.55-50.47,1.9-36.54.32-39,2.38-91.84,2.15-54.91,4-55.39,2.75-68.81-5.25-57.73-43.16-94.05-57.13-68.29-4.38,8.09-5.32,20.31-6.9,73.13-2.55,85.21-3.82,127.82-2.9,156.21,7.85,240.77,15.39,178,21,182.8C72.51,794.43,83.94,794.68,91,790.08Z"/><path class="cls-3" d="M90.18,167.7c-4.62,6.69,2.08,13.5,0,35.67-.55,5.87-1.59,11.46-5.44,16.52-2.89,3.8-6.54,6.1-9.13,7.88-12.6,8.7-13.8,7.67-17.53,12.46-5.69,7.3-5.85,16.77-5.95,22.59a47.37,47.37,0,0,0,1.19,11.89c1.2,5.14,2.62,7.15,4.76,14.27,0,0,1.23,4.1,2.38,9.51a98.28,98.28,0,0,1,1.19,33.29C58,353.25,45.93,358.79,48.57,377c.21,1.47.64,3.19,1.51,6.63,2.74,10.91,7,27.46,12.52,33.71,17.48,19.77,61.36,23,84.74,3.85,14.36-11.76,20.13-28.73,20.13-28.73a45.54,45.54,0,0,0,2.38-9.51c2.24-18-9.91-24.89-14.27-45.18-3.28-15.25-.11-28.71,1.19-34.48,3.85-17.12,8.94-17.84,9.83-30.4.25-3.66,2-21.55-8.64-32.62-1.33-1.39-5.25-3.7-13.08-8.32C134,225.45,130.41,224.47,127,220c-2.3-3-3.69-6.6-4.76-14.26-3.37-24.36,4.39-33.89-1.18-40.43C114.84,158,96,159.3,90.18,167.7Z"/><path class="cls-1" d="M166.87,39.75c18.93,29.11,8.27,63.57,1.19,86.79-5.3,17.41-12.13,27.65-14.86,31.51-7.45,10.53-22.45,31.29-44.59,32.7-31,2-52.61-35.5-56.48-42.21a81.19,81.19,0,0,1-8.32-21.4,69.75,69.75,0,0,1-1.19-8.32c-3.38-40.51-5.27-63.15,7.14-82C61.49,18.89,84.69,6.39,109.21,7.05,135.15,7.75,156,23,166.87,39.75Z"/><path class="cls-3" d="M93.33,137.83c-1.48-2.48,4.61-11.79,13-12.69,8.86-1,17,7.91,16,10.55-.57,1.41-3.52.47-12.86,1.07C98,137.5,94.28,139.43,93.33,137.83Z"/><path class="cls-1" d="M169.79,101.38c2.39-3.41,4.36-4.45,5.86-4.88,4.15-1.21,8.47,1.06,10.88,3.51,3.75,3.8,3.69,8.85,3.65,11.52A18.94,18.94,0,0,1,185,124.78a17.32,17.32,0,0,1-10.93,5.15c-2.25.16-4.51.31-6.42-.94C161.61,125.06,163.65,110.19,169.79,101.38Z"/><path class="cls-1" d="M45.72,101.63c-2.2-3.53-4.12-4.67-5.59-5.19-4.08-1.42-8.51.62-11.05,2.93-3.95,3.61-4.15,8.65-4.25,11.32a19,19,0,0,0,4.46,13.51,17.38,17.38,0,0,0,10.65,5.72c2.23.27,4.48.54,6.45-.6C52.64,125.71,51.39,110.76,45.72,101.63Z"/><path class="cls-4" d="M119.92,104.05A16.52,16.52,0,0,1,122,95.78a17.66,17.66,0,0,1,11.22-8.23,18,18,0,0,1,11.28,1.13,18.6,18.6,0,0,1,10.15,12.41,19.46,19.46,0,0,1,.42,6.06c-.18,2.06-.43,5.15-2.07,7.24-2.26,2.86-6.34,2.82-13.92,2.64-8.72-.2-13.08-.31-16-3.53S119.94,105.5,119.92,104.05Z"/><path class="cls-5" d="M130.67,94.21a11.57,11.57,0,0,1,9-1.13,12.47,12.47,0,0,1,5.64,3.39,13.06,13.06,0,0,1,3.39,6.77,10.78,10.78,0,0,1-1.13,7.89c-2.43,3.82-6.86,4.39-7.9,4.52a12.1,12.1,0,0,1-6.77-1.13,12.54,12.54,0,0,1-5.64-5.64,11.53,11.53,0,0,1-1.13-9A10.73,10.73,0,0,1,130.67,94.21Z"/><path d="M133.58,100.72a5.73,5.73,0,0,1,4.49-.57,6.33,6.33,0,0,1,2.82,1.69,6.63,6.63,0,0,1,1.68,3.37,4.84,4.84,0,0,1-4.5,6.19,6,6,0,0,1-3.37-.56,6.28,6.28,0,0,1-2.81-2.81,5.76,5.76,0,0,1-.56-4.5A5.24,5.24,0,0,1,133.58,100.72Z"/><path class="cls-4" d="M133.32,106.8a1.81,1.81,0,0,0-2.09,1.74,1.67,1.67,0,0,0,1.45,1.46,1.8,1.8,0,0,0,1.92-1.88A1.62,1.62,0,0,0,133.32,106.8Z"/><path d="M119.28,106.41c-.62-.11-.68-3.65.07-6.71a16.83,16.83,0,0,1,3.11-6.21,21.15,21.15,0,0,1,7.23-6.2,16.6,16.6,0,0,1,9.3-2.06c2.66.24,4.87,1.56,9.3,4.13a70.25,70.25,0,0,0,9.05,4.85,9.86,9.86,0,0,0,4.56.91c2.19-.14,3.57-1.08,3.65-.91s-2.24,2.29-5.48,2.74c-2.11.29-3.58-.25-3.65,0s2.15,1.58,4.76,1.71c3.77.2,6.2-2.09,6.39-1.82.37.53-8.13,9.46-12.78,7.3-2-.91-1.41-2.94-3.65-6.39-.28-.42-5.29-7.85-13.7-8.22a17,17,0,0,0-11.87,4.57C120.25,99.18,120.19,106.58,119.28,106.41Z"/><path class="cls-4" d="M142.22,99.31a3.28,3.28,0,0,0-3.79,3.16,3,3,0,0,0,2.63,2.63,3.24,3.24,0,0,0,3.47-3.39A2.94,2.94,0,0,0,142.22,99.31Z"/><path class="cls-4" d="M93.9,105.3A16.63,16.63,0,0,0,91.83,97,17.7,17.7,0,0,0,80.61,88.8a18,18,0,0,0-11.28,1.13,18.61,18.61,0,0,0-10.16,12.41,19.26,19.26,0,0,0-.41,6.06c.18,2.06.42,5.15,2.07,7.24,2.25,2.86,6.34,2.82,13.91,2.65,8.72-.21,13.08-.32,16-3.54S93.88,106.75,93.9,105.3Z"/><path class="cls-5" d="M83.14,95.46a11.54,11.54,0,0,0-9-1.13,12.53,12.53,0,0,0-5.65,3.39,13.16,13.16,0,0,0-3.38,6.77,10.8,10.8,0,0,0,1.13,7.9c2.42,3.81,6.86,4.38,7.9,4.51a12.12,12.12,0,0,0,6.77-1.13,12.6,12.6,0,0,0,5.64-5.64,11.58,11.58,0,0,0,1.13-9A10.73,10.73,0,0,0,83.14,95.46Z"/><path d="M80.24,102a5.8,5.8,0,0,0-4.5-.57,6.27,6.27,0,0,0-2.81,1.69,6.54,6.54,0,0,0-1.69,3.38,4.85,4.85,0,0,0,4.5,6.18,6,6,0,0,0,3.38-.56,6.28,6.28,0,0,0,2.81-2.81,5.76,5.76,0,0,0,.56-4.5A5.28,5.28,0,0,0,80.24,102Z"/><path class="cls-4" d="M71.36,108.05a1.81,1.81,0,0,0-2.09,1.75,1.67,1.67,0,0,0,1.45,1.45,1.8,1.8,0,0,0,1.92-1.88A1.62,1.62,0,0,0,71.36,108.05Z"/><path d="M94.54,107.66c.62-.11.68-3.65-.08-6.71a16.55,16.55,0,0,0-3.1-6.2,21.11,21.11,0,0,0-7.23-6.21,16.62,16.62,0,0,0-9.31-2.06c-2.65.24-4.87,1.56-9.3,4.13a69.38,69.38,0,0,1-9,4.85,9.89,9.89,0,0,1-4.56.91c-2.2-.13-3.57-1.08-3.66-.91s2.25,2.29,5.48,2.74c2.11.29,3.59-.25,3.65,0s-2.15,1.58-4.75,1.71c-3.77.2-6.21-2.09-6.39-1.82-.37.53,8.13,9.46,12.78,7.3,2-.91,1.4-2.94,3.65-6.39.28-.42,5.28-7.85,13.7-8.22a17,17,0,0,1,11.87,4.57C93.57,100.43,93.63,107.83,94.54,107.66Z"/><path class="cls-4" d="M80.26,100.56a3.28,3.28,0,0,0-3.79,3.16,3,3,0,0,0,2.63,2.63A3.24,3.24,0,0,0,82.57,103,3,3,0,0,0,80.26,100.56Z"/><path d="M60.45,15c-3.59,6.15-2.59,14.31-2,21,.7,7.86,2,22.57,10,26,10.64,4.57,23.5-15,34-10,6.68,3.16,3.93,12.21,11,16,9.46,5.07,18.55-8.91,33-6,11.83,2.38,20.11,14.65,23,24,2.34,7.57,1.48,14.3,1,18-1.56,12.21-6.44,14.33-7,24-.69,12,6,22.43,8,22,2.29-.49-3.5-14.62,4-28,4-7.09,8.25-7.82,10-15,1.8-7.36-2.07-9.13-1-17,1.48-10.87,9.62-13,10-21s-7.17-14-13-19c-33.71-28.75-25.92-34.6-43-42C110.32-4.2,70.89-2.89,60.45,15Z"/><path d="M67.45,34c.49,10.84.74,16.25-1,20-3.6,7.78-9.44,5.36-15,13-7.6,10.45-.46,20.22-8,28-4.78,4.94-13.58,7.12-18,4-7-4.94-2.14-22.57,1-34,2-7.33,3.91-14.18,9-22,9.08-13.92,24.74-25.42,30-22C66.88,21.93,67.09,26,67.45,34Z"/><path d="M119.67,94.58c-2.22-1.44-4.38-4.2-3.75-6.26s3.92-1.95,12.51-3.75c10.32-2.16,11.81-3.66,16.76-2.91a26.77,26.77,0,0,1,8.26,2.91c5.41,2.61,13.57,7.91,12.74,10.09-1,2.58-12.55-4.57-29-1.33C129.92,94.76,124.46,97.69,119.67,94.58Z"/><path d="M95.39,95.58c2.22-1.44,4.38-4.2,3.75-6.26s-3.92-1.95-12.51-3.75c-10.32-2.16-11.81-3.66-16.76-2.91a26.77,26.77,0,0,0-8.26,2.91C56.2,88.18,48,93.48,48.87,95.66c1,2.58,12.55-4.57,29-1.33C85.14,95.76,90.6,98.69,95.39,95.58Z"/><path d="M154.45,798c-3.68-1.78-9.24,9.91-16,9-7.47-1-13-17-13-17v.07c-.82,4.53-2.1,11.6-2.37,13.11-1.37,7.85-.25,8.07-1.62,16.82-1.34,8.58-3,12.23-1,14,1.45,1.27,4.2,1.06,6,0,3.9-2.3,2.58-8.13,5-9,2.71-1,5.48,6,11,9,11.3,6.24,32.1-4.8,31.75-11.8-.29-5.78-15-6.63-17.83-17.83C155.6,801.27,156.05,798.78,154.45,798Z"/><path class="cls-2" d="M80.06,218.48c-2.94,2.19-4.88,4.51-10.71,8.33-10.26,6.73-10.91,7.18-13.07,9.51-5.11,5.48-5.5,13-4.76,29.72.92,21.07-1.12-2.71,2.38,33.3,2.53,26.08,3,26.46,2.38,30.91-1.76,13.54-6.28,14.54-9.52,32.1-2.11,11.47-.32,10.67-2.37,23.78-3.58,22.76-10,29.28-6,38.05,2.06,4.49,6.08,7.9,15.46,11.89,10.6,4.52,32.32,11.6,97.5,1.19,16.62-2.65,24-4.52,27.34-10.7,4.34-8.08-4-13.05-5.94-38.05-.4-5-.8-14-4.76-25-.92-2.56-1.07-2.56-2.38-5.94a144,144,0,0,1-7.13-25c-1.72-9.83.88-11.08,4.76-40.43,0,0,1.46-11.07,2.37-27.34,1.08-19.08.15-24.4-3.56-27.35-2.68-2.13-5-2.49-14.27-7.14-8-4-8.31-8.37-14.27-13.08C119.22,206,92.82,209,80.06,218.48Z"/><path class="cls-6" d="M168,248.27c.25-2.38.94-9.72-3.51-15.27a18,18,0,0,0-7-5c-19.29-9.27-24.68-15.47-28-13-1.83,1.37-1.3,4.1-1,11,.37,8.42-.71,16.85-.49,25.27.33,12.51-.6,44-7.51,71.73-4.62,18.54-7,15.67-16,42-9.48,27.72-24.27,71-10,82,4.34,3.35,6.16,1.6,32.51-2.73,47.49-7.8,51.27-10.3,53-13,11.21-17.44-7.42-30.3-11-74C165.74,317.85,167.41,253.67,168,248.27Z"/><path class="cls-6" d="M51,248.38c-.25-2.49-1.16-10.25,3.45-16.38a18.93,18.93,0,0,1,6-5c16.24-9.68,25.26-15.06,29.07-11.89,1.82,1.52,1.3,4.06,1,11-.38,8.42.72,16.85.48,25.27-.84,29.69-1.27,47,4.45,64.62,2.59,8,12.39,34.26,37,50,17.32,11.08,27.14,7.45,32,17,8.14,16-8.84,46.57-33,58-5.49,2.6-16.8,3-39.45,3.38-31,.47-44.08-2.95-52.46-12.28a6.75,6.75,0,0,1-.54-.72c-11.2-17.44,7.43-30.3,11-74C50,357.38,58.05,317.64,51,248.38Z"/><path class="cls-7" d="M151.45,232.55c.57,5.58-1.91,10-3,12-.31.58-4.5,17.07-13,50-4.86,18.8-4.74,18.93-6,22.45-5.7,16-14.61,31.88-17,31-1.88-.7,1.57-11.42,6-36,3.34-18.52,6.06-33.58,7-51,1.79-32.84-4.21-46.44,2-49.45C134.2,208.28,150.16,220,151.45,232.55Z"/><path class="cls-7" d="M71.28,232.73c-.58,5.57,1.91,10,3,12,.31.58,4.5,17.07,13,50,4.86,18.8,4.74,18.93,6,22.45,5.69,16,14.61,31.88,17,31,1.88-.7-1.57-11.42-6-36-3.34-18.52-6.06-33.58-7-51-1.79-32.84,4.21-46.44-2-49.45C88.53,208.46,72.57,220.21,71.28,232.73Z"/><circle class="cls-2" cx="111.95" cy="362.5" r="3.5"/><circle class="cls-2" cx="111.95" cy="389.5" r="3.5"/><circle class="cls-2" cx="111.95" cy="416.5" r="3.5"/><path d="M65,797.33c3.69-1.79,9.25,9.91,16,9,7.48-1,13-17,13-17l0,.06c.82,4.54,2.1,11.6,2.36,13.12,1.38,7.84.25,8.07,1.62,16.82,1.35,8.58,3,12.22,1,14-1.44,1.26-4.19,1.06-6,0-3.89-2.3-2.57-8.14-5-9-2.71-1-5.47,5.94-11,9-11.29,6.24-32.1-4.81-31.74-11.8.29-5.79,15-6.63,17.83-17.83C63.87,800.6,63.41,798.1,65,797.33Z"/><path class="cls-8" d="M95.35,155c0-3,2.7-5.69,5.23-6.7a4.88,4.88,0,0,1,3.75-.32c1.79.79,1.89,3,3,3s1.46-2.32,3-3c2.74-1.23,9.1,3,9,7-.07,4.44-8,8.72-14.65,7.66C100.62,162,95.41,159,95.35,155Z"/><path class="cls-9" d="M91.84,158.94a22.73,22.73,0,0,1,5.24-3.49,23.42,23.42,0,0,1,15.28-1.67c3.77.95,6.89,2.91,10.47,5.16,1.11.69,2,1.3,2.62,1.74"/><path class="cls-1" d="M55.34,237.49c4.83-1.82-.51,6.62-1.58,9.93a112.7,112.7,0,0,0-4.92,30.4c-.19,11.86-4.4,24.84,2.93,36.15,9.79,15.11,27.36,27.55,37.54,41.45,4.91,6.72,4.15,11,11.09,14.17,4.7,2.13,8.39-2.76,13.22-2.36,3.46.29,5.54,1.78,9.53,2,6.63.31,13.39-1.09,20.46,1.46,2.49.9,5.63.33,4.85,4.69-1.58,8.81-14,11.18-19.63,13.53-8,3.35-19.93-1.19-24.05-2.65-8.8-3.11-8-6.15-14.1-9.86-7.85-4.8-14.24-10.1-24-11-32-3-49.51-26.81-58.87-53.22C-.55,288.6,37.65,244.12,55.34,237.49Z"/><path class="cls-1" d="M108.54,372c-.82-.17-2.53,1-1.87-.59,2.33-5.62,7.06-7.77,13-8.38,1.53-.15,4.24-.42,3.92,1.85a11.2,11.2,0,0,1-11,9.45C110.78,374.28,110,372.31,108.54,372Z"/><path class="cls-6" d="M101.54,367.8c-.45-2.65-3.54-2.51-4.94-4.38s-2.36-5.05-3.63-6.75A116.32,116.32,0,0,0,78.9,340.89c-9.87-9.59-23.09-21.52-26-35.68-2.53-12.49,7.92-21.55,10.8-36.2.87-4.42,3-21.43-2-28.95-.4-.59-.85-4.85-4.27-6-7.88-2.71-6.31.12-15.1,6.18-46.55,32.12-66.21,105.77,1.32,123,18.53,4.72,16.15,2,25.21,4.73,14.79,4.43,10.72,6,21.15,11.75.09,0-.47-.18-.28,0,1.19,1.15,2.51,6,4.68,5C101,381.69,102.67,374.38,101.54,367.8Z"/><path class="cls-1" d="M156.48,233.83c-6.67-.73,1.66,6.2,2.89,9.39,3,7.88,7.51,19.06,9.15,29.12,1.85,11.38,6.87,24.11,1.59,35.58C163,323.22,149,335.5,142.53,350.35c-3.12,7.17-1.65,11.06-8.42,14.95-4.59,2.63-10.32-1.13-15.55-.09-3.75.75-6.18,2.63-10.51,3.4-7.21,1.29-15.37.93-22.66,4.51-2.57,1.26-5.91.77-4.61,5.35,2.64,9.26,16.57,9.38,23,10.61,9.21,1.76,23.38-4.75,27.68-6.81,9.16-4.39,8.89-7.69,14.24-12.11,7-5.73,9.81-10.05,18.64-11.73,28.89-5.47,40.42-24.64,45.49-52.72C214.35,280.7,180.88,236.5,156.48,233.83Z"/><path class="cls-1" d="M125.15,369c.83-.3,3.13.59,2.11-.9-3.61-5.27-9.88-6.41-16-6.1-1.58.08-4.81,0-4.13,2.43,1.58,5.61,8.18,8.52,13.74,7.52C122.71,371.63,123.65,369.55,125.15,369Z"/><path class="cls-6" d="M132.61,363.75c.08-2.79,3.48-3,4.56-5s1.3-5.06,2.14-6.84a84.83,84.83,0,0,1,9.57-16.09c7.64-10.58,18.1-22.28,18.88-36.72.68-12.73-10-18.85-15.78-32.38-1.72-4.09-5.73-21.5-1.85-29.55.3-.63.35-4.85,3.39-6.56,7-4,7.27-.37,16,3.93,46.4,22.77,74.6,101.26,14.62,121.23-16.46,5.48-13.22,2-21,4.94-12.68,4.88-7.53,6.51-16.06,12.34-.07.05.46-.26.28,0-1.14,1.48-1.92,6.31-4.34,5.8C135.76,377.28,132.39,370.67,132.61,363.75Z"/></g></g></svg>