<svg xmlns="http://www.w3.org/2000/svg" viewBox="0 0 404.8 363.05"><defs><style>.cls-1{fill:#7d532b;}.cls-2{fill:#fcfefd;}.cls-3{fill:#95cdc2;}.cls-4{fill:#c9638a;}</style></defs><g id="Camada_2" data-name="Camada 2"><g id="Camada_1-2" data-name="Camada 1"><path class="cls-1" d="M183.23,26.43h11l60.93,336.62a33.89,33.89,0,0,0-5.34-.51c-3,0-3.7.36-4.6,0-2.75-1.09-2.46-7.23-2.56-13.81-.06-4-.67-10.71-1.88-24.16a66.56,66.56,0,0,0-1.55-13.6Z"/><path class="cls-2" d="M404.8,37.32c-.06.64-.89,1.08-6.22,2.72-19.43,6-29.14,8.92-45.09,9.71l-1.4.08c-32,1.8-63.15,10.72-94.74,16l-1.43.24c-24.43,4-11.46,2.39-117.78,22.55,0,0-3.95.75-11,2-14.37,2.56-41.63,7.22-74.88,12C42.7,104,34.93,105,28.58,105.84,1.7,109.23.5,108.12.15,107.28c-3.93-9.57,69.14-67.93,167.47-90.61q7.95-1.85,16.11-3.35h0l1-.17q4.32-.78,8.67-1.47c1.8-.28,3.6-.54,5.41-.8C302.53-3.65,405.46,29.82,404.8,37.32Z"/><path class="cls-3" d="M184.31,16.2c-2.15,2.73-7.74,7.63-16.63,17.62a300.83,300.83,0,0,0-40.56,56.81c-14.37,2.56-41.63,7.22-74.88,12C42.7,104,34.93,105,28.58,105.84c14.24-17.66,46.48-38.38,68-52.2,25.35-16.3,53.41-30.4,71.07-37C176,13.55,182,12.14,184.33,13a1.8,1.8,0,0,1,.37.17,1.39,1.39,0,0,1,.48.45C185.55,14.22,185.26,15,184.31,16.2Z"/><path class="cls-3" d="M352.09,49.83c-32,1.8-63.15,10.72-94.74,16a303.73,303.73,0,0,0-51.49-37.66c-12-7.11-18.88-10-21.55-12-1-.74-1.41-1.34-1.26-2a1.74,1.74,0,0,1,.68-.91h0a4,4,0,0,1,.59-.34c1.64-.79,4.76-1.21,9-1.3,17.18-.33,53,4.82,86.28,13.78C301.14,31.24,332,39.53,352.09,49.83Z"/><circle class="cls-4" cx="183.04" cy="8.75" r="8.75"/></g></g></svg>