<svg xmlns="http://www.w3.org/2000/svg" viewBox="0 0 183.66 440.43"><defs><style>.cls-1{fill:#964a32;}.cls-2{fill:#5e352a;}.cls-3{fill:#683b2d;}.cls-4{fill:none;stroke:#000;stroke-linecap:round;stroke-miterlimit:10;}.cls-5{fill:#fff;}.cls-6{fill:#2f7734;}.cls-7{fill:#f7f7f7;}.cls-8{fill:#14223c;}.cls-9{fill:#5576a5;}.cls-10{fill:#5d1000;}.cls-11{fill:#320406;}</style></defs><g id="Camada_2" data-name="Camada 2"><g id="Pronto"><path d="M48.34,23.43c-2.4,1.05-4-1.81-7.2-1.79-8.52,0-19.37,20.19-20.68,32.37a14.38,14.38,0,0,1-3.6,8.1c-1.44,1.47-4,2.71-5.39,1.79a3.06,3.06,0,0,1-.9-3.59c1.15-2.5,6.19-1.75,6.29-2.7S12,53.89,8.77,55.81,5.31,63.6,7.87,66.6c3,3.5,9.52,2.73,12.59,0,2.3-2,2.16-4.76,4.5-5.39,2.06-.57,4.54.91,4.49,1.79s-2.82.6-5.39,2.7a9.17,9.17,0,0,0-3.2,5.44c-.49,4.29,4.28,5.42,4.1,9.57-.16,3.91-3.53,4.35-6.83,10.94-1.68,3.35-3.06,6.11-2.74,9.58.51,5.52,5.13,10.42,8.21,13.67,2.43,2.59,3.78,3.38,4.1,5.48.46,2.94-1.42,6.39-4.1,8.2-3.63,2.45-6.79.6-8.21,2.74s.16,6.14,2.74,8.2,6.43,2.25,6.83,1.37c.52-1.14-4.72-3.88-4.1-5.47.42-1.08,2.93-.08,5.47-1.37,4.17-2.11,4.48-8.35,5.47-8.2s-.86,7.42,2.74,10.94c2.94,2.87,8.16,1.87,8.21,2.73s-6.74.74-8.21,4.11c-1,2.22.47,5.77,2.73,6.84,2.66,1.24,5.69-1.29,6.84,0,1,1.11-.58,3.77,0,4.1s2.49-3.86,5.47-4.1c0,0,1.25-.11,6.84,4.1-.62,3.51-2,7.85-5.47,9.57-3.79,1.89-8.12-.31-8.2,0s8.67,5.74,16.41,2.74c4.07-1.58,4.59-4.18,8.21-6.84,6-4.41,12.39-2.94,21.88-2.73,22.84.49,39.62-2.08,39.66-1.37s-24,3.09-23.91,4.19c0,.63,8.07,1.46,26.08,3.6,2.75.33,6.75.84,7.19,2.7.3,1.25-1.06,3-2.7,3.59-3.12,1.07-6.35-2.6-7.19-1.79-.65.62.45,3.62,2.7,5.39,3.14,2.49,8.19,2.32,11.69,0,2.6-1.72,5.45-5.36,4.49-8.09-1.29-3.68-8.73-3.44-8.77-5.49,0-1.17,2.37-2.24,4.1-2.73,6.25-1.77,9.68,3.06,15,1.36,3.58-1.13,6-4.51,5.47-5.47s-3.33.56-8.21,0c-2.75-.32-6.76-1.35-6.84-2.73-.06-1.16,2.62-2.17,4.11-2.74,7.24-2.75,10.19-.22,13.67-2.73,3.08-2.22,4.18-6.62,4.11-9.58-.1-3.91-2.28-5.9-1.37-6.84,1.15-1.19,6.26.36,8.21,4.11,2.1,4-2.28,9-1.37,9.57s5.13-3,6.84-8.21c.56-1.7,1.7-5.13,0-8.2-1.27-2.3-3.48-3.25-5.47-4.11-4.33-1.86-8-.56-8.21-1.36s4.52-1.7,8.21-5.48c2.55-2.61,5.25-7.63,4.1-12.31-1-4.22-5.55-9.37-8.44-10.81-.37-.18-1.67-.78-1.8-1.8a2.32,2.32,0,0,1,.9-1.79c1.23-1,2.46-.15,3.87-.64,2.51-.88,4.11-5.53,2.73-8.21-.88-1.72-2.91-2.16-2.73-2.73.26-.84,4.48.75,6.84-1.37a4.62,4.62,0,0,0,1.37-2.74c.42-3.22-3.26-6.71-6.84-8.2s-5.75-.46-7-2.19c-.94-1.26-.34-2.73.2-6,0,0,.09-.55.22-2,0,0,.42-4.09.48-7.28.09-4.76-8.06-28.19-24.28-28.78-6.28-.23-12.81,3-12.6,4.49.37,2.55,20.89,5.6,25.19-2.69,2.55-4.93-1.29-12.58-4.5-16.19a10.05,10.05,0,0,0-3.6-2.7c-2.43-1-6.46-1.52-9,.9a5.74,5.74,0,0,0-1.8,3.6c-.29,3.54,3.23,6.78,4.5,6.29s-.08-4.29,1.8-5.39c1.16-.69,3.21-.12,3.59.9.7,1.86-3.65,6.8-7.19,6.29C138.94,13,139,7,133,2.75A13.41,13.41,0,0,0,125.15,0h-.34a16.55,16.55,0,0,0-8.12,2.74c-6.6,4.17-57.19-4.72-64.75,9C49.57,16,51.68,22,48.34,23.43Z"/><path class="cls-1" d="M40.38,297.31c-1.11,1-3.21,3.64-1.46,23.32A250.84,250.84,0,0,0,44,353.41c9.3,41.67,14.1,62.63,21.13,69.22,1.47,1.38,8.94,8.11,7.28,11.66-1,2-4.44,2-4.37,2.91.1,1.26,7.13,1.57,11.66,1.46,5.62-.15,6.74-1,7.28-1.46,2.53-2.37,1.73-7,1.46-8.74C87,418.84,89.81,409,89.92,399.31c.22-20.55,2-17.6,1.46-30.6-.44-11.61-1.76-12.35-2.92-29.14-1.2-17.44.15-17.63-1.46-21.86C80.08,299.54,49.59,288.85,40.38,297.31Z"/><path class="cls-1" d="M132.26,292.53c1.12.68,4,2.94,5.88,22.61a229.33,229.33,0,0,1,.59,33.9c-2.45,56.12-.83,62.83-6.88,71.23-1.21,1.67-7.23,9.67-4.93,12.83,1.32,1.82,4.74,1.14,4.84,2,.14,1.25-6.7,2.9-11.16,3.65-5.54.93-6.8.36-7.43,0-2.94-1.85-3-6.54-3.1-8.3-.38-9.72-5-18.81-7-28.33C99,382,97.81,385.2,95.82,372.34c-1.79-11.48-.63-12.46-2.7-29.16-2.15-17.35-3.51-17.28-2.74-21.73C93.71,302.29,121.6,286,132.26,292.53Z"/><path class="cls-2" d="M85.55,156c1.24,11,0,13.12,0,13.12-2.42,3.63-6.67,2.59-10.2,5.82-4.74,4.34-3.49,11.64-3.65,18.22-.13,5.5-4,14.35-11.65,32.06-7.12,16.38-12,24.18-16,39.34-.74,2.76-1.24,4.87-1.46,5.83-2.12,9.45-4,18-2.91,27.68.52,4.54,2.36,20.59,13.84,27A15.21,15.21,0,0,0,56,326.15C60.63,327.82,68,327.6,95.75,325c12.29-1.15,14.31-1.43,17.48-2.91,12.58-5.88,17.67-18.65,19-21.86,4.49-11.3,3.14-21.17,1.45-33.52-1.09-8-2-8.15-7.28-27.68-7.41-27.28-11.11-40.93-10.2-46.63.77-4.85,2.94-13.45-1.46-17.49-2.54-2.33-5.5-1.51-7.29-4.37s.3-5,0-11.65c-.18-4.19-.35-7.91-2.91-10.2-3.32-3-9.24-2.3-13.11,0A13.77,13.77,0,0,0,85.55,156Z"/><path class="cls-3" d="M79.62,172c.51.44-.6,2-2,5.67-3.44,9-2.56,15-3.34,20.18-.88,5.83-5.66,11.22-15.21,22C46.32,234.28,39.94,241.48,30.4,245c-4.61,1.71-10.18,2.86-12.42,7.63-1.52,3.23-.33,5.61-2.53,11.47-1.57,4.2-2.33,3.37-3.57,7-2.07,6-.17,8.86-2.8,14.38-.93,1.94-2,4.09-3.31,4.08C3,289.56,0,280.8,0,272.94c0-11.27,6.4-19.47,7.83-21.23,3-3.74,4.09-3.36,8.06-8a57.51,57.51,0,0,0,8.6-13.83c3.39-7.22,10-14.34,23.14-28.59C59.36,188.58,77.75,170.43,79.62,172Z"/><path class="cls-3" d="M111.9,173.58c-.55.39.41,2.06,1.45,5.82,2.59,9.32,1.16,15.2,1.46,20.4.34,5.89,4.6,11.7,13.11,23.32,11.38,15.51,17.06,23.27,26.23,27.68,4.43,2.14,9.87,3.79,11.66,8.75,1.21,3.35-.19,5.62,1.46,11.65,1.18,4.33,2,3.58,2.91,7.29,1.5,6.17-.66,8.83,1.46,14.57.74,2,1.57,4.25,2.91,4.37,2.72.24,6.58-8.19,7.29-16,1-11.22-4.57-20-5.83-21.85-2.68-4-3.77-3.73-7.29-8.75a57.28,57.28,0,0,1-7.28-14.57c-2.71-7.5-8.61-15.2-20.4-30.6C130.54,191.92,113.91,172.14,111.9,173.58Z"/><path class="cls-3" d="M13.58,258.08c.82-.05,1.46.8,2.44,2.16,1.74,2.41,3.11,4.3,2.71,6.76-.21,1.35-1.09,3.65-2.53,3.85-2.3.31-5.87-4.67-5.16-8.92C11.31,260.32,12.3,258.15,13.58,258.08Z"/><path class="cls-3" d="M155.63,91.32c1.81-2.58,3.3-3.37,4.44-3.7,3.13-.91,6.4.81,8.22,2.66,2.84,2.88,2.79,6.7,2.77,8.71a14.38,14.38,0,0,1-3.91,10,13.09,13.09,0,0,1-8.28,3.89c-1.69.12-3.4.23-4.85-.71C149.44,109.23,151,98,155.63,91.32Z"/><path class="cls-3" d="M156.93,103.73c-.22,1.7-.91,8.47-1,15.22,0,1.5,0,3.1.09,5,.19,4,.49,5.42,0,8.27-1.39,8-6.74,14-7.85,15.17-.18.2-.31.33-.42.44A51.36,51.36,0,0,1,134.89,157c-.34.17-2.1,1.07-4.53,2.06a80,80,0,0,1-11.08,3.45,90.28,90.28,0,0,1-22,1.84,105.22,105.22,0,0,1-13.78-.92s-14.42-2-25.71-7.35c-1.52-.72-2.91-1.44-4.17-2.14a60.26,60.26,0,0,1-6.85-4.28,26.08,26.08,0,0,1-8.26-11.94c-1.23-3.73-1.2-6.75-.92-11.94.21-3.83.38-5.59.67-9.32.14-1.78.23-3.38.28-4.85.18-5.24,0-9.55,0-10.62C38,90,37,66.72,40.3,55.06c5.92-20.76,35.44-39.43,65.2-36.73,22.35,2,46.41,16.28,52.34,35.82C161.68,66.77,159.26,85.62,156.93,103.73Z"/><path class="cls-3" d="M39.31,94.21c-1.67-2.68-3.12-3.54-4.23-3.93-3.09-1.08-6.44.47-8.36,2.22-3,2.72-3.14,6.54-3.22,8.56a14.36,14.36,0,0,0,3.38,10.21,13.07,13.07,0,0,0,8.05,4.33c1.69.21,3.39.41,4.88-.45C44.54,112.42,43.6,101.11,39.31,94.21Z"/><path class="cls-2" d="M85.21,113.37c-1.24-2.09,3.87-9.9,10.87-10.66,7.44-.81,14.31,6.64,13.41,8.86-.47,1.18-2.95.39-10.79.9C89.09,113.09,86,114.71,85.21,113.37Z"/><path class="cls-4" d="M82.74,130.81a20.4,20.4,0,0,0,4.68,3.11A20.92,20.92,0,0,0,101,135.41c3.37-.85,6.14-2.6,9.34-4.6,1-.62,1.78-1.17,2.34-1.56"/><path class="cls-5" d="M117.5,98.17a13.41,13.41,0,0,1,0-4.73c.57-2.92,2.12-4.78,3.87-6.89a19.45,19.45,0,0,1,6-5.16,19.78,19.78,0,0,1,4.73-1.72,16.87,16.87,0,0,1,6-.43A13.13,13.13,0,0,1,145,81.82a12.56,12.56,0,0,1,4.3,6.46,13.83,13.83,0,0,1-.43,8.17,21.08,21.08,0,0,1-6,9,15.5,15.5,0,0,1-2.58,2.15,14.79,14.79,0,0,1-7.75,2.15,16,16,0,0,1-7.31-1.29,12.7,12.7,0,0,1-5.6-4.3A13.09,13.09,0,0,1,117.5,98.17Z"/><path d="M76.22,15.34c12.13-5.79,32.84-8.8,42.27,2.7,7,8.53,3.21,20.81,2.69,22.48-2.88,9.37-10.74,16.95-19.78,18.89-2.26.48-8.39,1.8-13.49-1.8-3.6-2.54-7-7.66-5.4-10.79,1.36-2.59,5.91-3.35,6.3-2.7.18.3-.64.72-.9,1.8-.48,2,1.18,5,3.6,5.39A4.24,4.24,0,0,0,96,48.62c.89-3.54-5.79-10.62-12.59-9.9a11.06,11.06,0,0,0-8.09,5.4c-2.76,4.73.42,8-1.8,11.69C71,60,65.37,57.69,56.43,61.21c-3.73,1.46-13,5.11-16.19,13.49-2.42,6.38,3.75,9.44,2.7,18.88-.74,6.71-4.4,12.91-6.29,12.59s-1.33-7.26-3.6-20.68c-1.86-11-3.2-11.88-3.6-16.19-1.4-15.29,14.47-28,33.28-44.07C68.85,20,72,17.36,76.22,15.34Z"/><path d="M120.28,14.44c-4.21,1.78-7,7.44-6.29,11.69.91,5.66,7.93,9,11.69,10.79,4.43,2.11,5.12,1.25,10.79,3.6,5.9,2.44,12.14,5,12.59,9s-5.7,5.33-7.19,12.6c-.23,1.09-1.34,6.51,1.8,9,2.62,2.07,7.59,1.59,9-.9a4.38,4.38,0,0,0,0-3.6c-1.08-2.36-4.13-3.17-4.5-2.7s2.35,2.44,1.8,3.6-3.45,1.26-4.49,0c-1.47-1.77.53-6.92,2.69-7.19,3-.38,8.05,8.39,9,17.08,1.5,13.76-7.57,23.25-4.5,26.08,1.62,1.49,6.17-.07,9-2.69,4.22-3.92,4.56-10.16,3.6-20.69-1.57-17.25-2.35-25.88-6.29-34.17C150.12,27.34,130.33,10.2,120.28,14.44Z"/><path d="M116.64,96.88a6.13,6.13,0,0,0,.43,2.15c.17,0,.05-1.81.43-3.87a16.79,16.79,0,0,1,1.72-4.73,18.39,18.39,0,0,1,5.16-6.89,16.94,16.94,0,0,1,6.46-3,16,16,0,0,1,6.88-.43,15,15,0,0,1,5.6,2.15,11.24,11.24,0,0,1,3.87,3.87,11,11,0,0,1,1.29,4.31,16.23,16.23,0,0,1-.86,7.74c-2,5.33-6.25,7.92-6,8.18s3.22-1.57,5.59-4.74a17.27,17.27,0,0,0,3-6.45,14.37,14.37,0,0,0,0-7.74,13.66,13.66,0,0,0-2.58-4.74A14.9,14.9,0,0,0,139.88,78a17.18,17.18,0,0,0-6.46-.43,17.52,17.52,0,0,0-7.74,3,20.75,20.75,0,0,0-6.46,6.89C118.28,89,116.27,92.6,116.64,96.88Z"/><path d="M77.12,72c.61,1.18,1,3.26,0,4.49-2.24,2.74-8.69-1.91-18.89-1.79-8.52.09-13.13,3.43-13.49,2.69-.43-.9,10.34-10.18,22.93-9C70.18,68.64,75.43,68.72,77.12,72Z"/><path class="cls-5" d="M79.49,99.08a13.48,13.48,0,0,0,0-4.74c-.58-2.92-2.13-4.78-3.88-6.88a19.28,19.28,0,0,0-6-5.17,19.78,19.78,0,0,0-4.73-1.72,17.17,17.17,0,0,0-6-.43A13.08,13.08,0,0,0,52,82.72a12.6,12.6,0,0,0-4.31,6.46,13.9,13.9,0,0,0,.43,8.17,21,21,0,0,0,6,9,13.59,13.59,0,0,0,10.33,4.3,16,16,0,0,0,7.31-1.29,12.69,12.69,0,0,0,5.59-4.3A13,13,0,0,0,79.49,99.08Z"/><path d="M118.15,71.92c-.61,1.18-1,3.25,0,4.49,2.23,2.74,8.68-1.91,18.88-1.8,8.52.1,13.14,3.44,13.49,2.7.44-.9-10.33-10.18-22.93-9C125.09,68.56,119.84,68.64,118.15,71.92Z"/><path class="cls-6" d="M111.66,172.1c2.21-1.43,6.84,1,20.38,13,11,9.66,16.47,14.49,17.76,17.76,5.14,13-1.9,31.59-9.71,32.74-5.94.88-11.76-9.89-23.41-31.43,0,0-8.78-16.25-6.32-29.62A3.5,3.5,0,0,1,111.66,172.1Z"/><path d="M138.07,432.76c.08,1.07-1.81,1.87-7.35,3.64-6.31,2-9.66,2.83-14,3-3.56.1-4.43-.36-5.08-1-2-2-1.19-5.05-2.53-11.93-1.45-7.47-3.58-9.71-2.52-11.92.35-.73,1.19-1.75,7.77-1.65,8.23.13,9.74,1.76,14.83,1,4.42-.65,7.41-2.47,7.77-1.65s-2.3,2.46-5,7.28c-1.32,2.4-2.55,4.71-1.84,6.62.23.63.57.93,2.05,2l.44.31,1.13.79h0l.32.24.29.21C137.71,432,138,432.33,138.07,432.76Z"/><path class="cls-6" d="M78.3,170.74c-2.16-1.51-6.87.8-20.82,12.24-11.3,9.27-16.95,13.91-18.36,17.14-5.59,12.85.81,31.63,8.57,33,5.91,1.08,12.1-9.48,24.48-30.61,0,0,9.34-15.93,7.35-29.38A3.51,3.51,0,0,0,78.3,170.74Z"/><path class="cls-7" d="M132.66,428.42a2.66,2.66,0,0,0-.69,0,3.71,3.71,0,0,0-2.14,1.23,5.17,5.17,0,0,0-1.06,1.47c-.27-.3,1.16-2.9,3.22-3h.23Z"/><path class="cls-7" d="M134.41,429.66a2.56,2.56,0,0,0-.59-.13,3.66,3.66,0,0,0-2.37.72,5.12,5.12,0,0,0-1.34,1.17c-.2-.33,1.7-2.45,3.68-2.21h0l.32.24Z"/><path d="M63.81,437.43c.12,1.06,2.13,1.5,7.89,2.23,6.57.84,10,1,14.29.37,3.53-.54,4.3-1.16,4.82-1.9,1.63-2.33.25-5.18.32-12.19.07-7.61,1.76-10.2.32-12.18-.48-.66-1.5-1.5-7.94-.21-8.07,1.62-9.26,3.49-14.4,3.69-4.47.17-7.74-1.07-7.94-.2s2.71,2,6.19,6.25c1.74,2.12,3.37,4.17,3,6.17-.12.67-.4,1-1.66,2.32-.11.12-.24.26-.38.39-.28.29-.59.62-1,1h0l-.27.29a2,2,0,0,0-.25.26C64,436.59,63.77,437,63.81,437.43Z"/><path class="cls-7" d="M68.34,432.17a2.92,2.92,0,0,1,.69-.12,3.64,3.64,0,0,1,2.32.82,5.28,5.28,0,0,1,1.31,1.25c.21-.34-1.67-2.64-3.72-2.38l-.22,0C68.61,431.9,68.48,432,68.34,432.17Z"/><path class="cls-7" d="M66.85,433.71a3.25,3.25,0,0,1,.56-.24,3.68,3.68,0,0,1,2.45.28,5.12,5.12,0,0,1,1.54.91c.14-.36-2.12-2.1-4-1.5h0l-.27.29A2,2,0,0,0,66.85,433.71Z"/><path class="cls-8" d="M37.55,286.94c6.41-9.14,22.79-1.18,53.06-1.8,25.71-.53,43.26-6.89,47.66.9.38.66.44,1,.9,6.29,1.57,18.1,1.8,23.39,1.8,23.39.59,13.86.88,20.79.9,24.28.09,19.45-1.86,18.58-1.8,35.07,0,0,1.9,24.47,0,36a8.79,8.79,0,0,1-2.7,5.39c-2,1.7-4.43,1.73-6.29,1.8-12.48.48-13.88,3.38-22.49,1.8-3.43-.63-5.14-1-6.29-1.8-5.51-4.09-1.59-12.46-4.5-28.78-1.49-8.39-2.22-8.3-3.6-17.09-.88-5.63-1.08-8.87-1.79-17.08-1.06-12.21-2.51-27-2.7-27s.05,13.53,1.8,30.57c1.65,16.18.84,32.73,4.49,48.57.61,2.62,2.61,10.92-.9,13.49-.66.49-1.47.73-5.39.9-4.55.19-7.23,0-9.9,0a99.39,99.39,0,0,0-14.38.9c-5.72.72-5.32,1.15-6.3.9-6.53-1.67-7.21-16.07-11.69-40.47-1.63-8.88-1-3.78-4.5-21.59-3.42-17.23-7.38-38.83-7.19-63.85C35.8,291,36.11,289,37.55,286.94Z"/><path class="cls-9" d="M53.73,412.84c-2.33,2.9,1.16,11.43,7.2,15.29,1.59,1,3.28,1.67,22.48.9,8.33-.33,10.86-.57,12.59-2.7,2.18-2.67,2-7,1.8-11.69-.13-3.12-.2-4.69-.9-5.39-3.12-3.15-10.94,4.5-23.38,5.39C62.11,415.46,56.08,409.93,53.73,412.84Z"/><path class="cls-9" d="M98.71,409c-2.33,2.9,1.16,11.42,7.2,15.29,1.59,1,3.28,1.67,22.48.9,8.33-.33,10.86-.57,12.59-2.7,2.18-2.67,2-7,1.8-11.69-.13-3.13-.2-4.69-.9-5.39-3.12-3.15-10.94,4.5-23.38,5.39C107.08,411.61,101.06,406.08,98.71,409Z"/><path class="cls-6" d="M82.91,168.55c1.45.3,3.07,1.95,8.12,3.44,3.53,1,6.1,1.89,9,1.29,6-1.18,7.47-5.73,10.35-5.17,3.69.73,5,8.95,5.18,10.35,2.78,17.88,8,35.3,11.64,53,4.07,19.83,6.76,16.93,11.64,40.09,5.5,26.16,5.12,33.4,1.29,38.81-4.84,6.84-12.94,8.8-22.2,11-11.28,2.74-13,.17-37.77.9-12.87.38-16.52,1.2-25.18,0C45.5,321,38.45,320.05,34.34,316c-8.45-8.26-1.6-26.7,7.54-53.51C56,221.25,73.27,166.55,82.91,168.55Z"/><path d="M80.35,97.78a6.27,6.27,0,0,1-.43,2.16c-.17,0,0-1.82-.43-3.88a16.47,16.47,0,0,0-1.73-4.73,18.18,18.18,0,0,0-5.16-6.88,16.75,16.75,0,0,0-6.45-3A16.06,16.06,0,0,0,59.26,81a14.88,14.88,0,0,0-5.59,2.15A11.11,11.11,0,0,0,49.8,87a10.86,10.86,0,0,0-1.29,4.3,16,16,0,0,0,.86,7.75c2,5.32,6.25,7.92,6,8.17s-3.22-1.57-5.59-4.73a17.43,17.43,0,0,1-3-6.46,14.36,14.36,0,0,1,0-7.74,13.75,13.75,0,0,1,2.59-4.74,14.9,14.9,0,0,1,7.74-4.73,17.4,17.4,0,0,1,6.46-.43,17.57,17.57,0,0,1,7.74,3,20.75,20.75,0,0,1,6.45,6.89C78.7,89.93,80.71,93.5,80.35,97.78Z"/><path class="cls-10" d="M136.94,82.9a11.57,11.57,0,0,0-6.88,0,10.41,10.41,0,0,0-4.73,2.58,10.84,10.84,0,0,0-2.59,4.3,13.13,13.13,0,0,0-.86,7.32,11.64,11.64,0,0,0,3,6,11.17,11.17,0,0,0,17.21-1.29,12.92,12.92,0,0,0,2.15-9,11.07,11.07,0,0,0-2.15-6.45A10.36,10.36,0,0,0,136.94,82.9Z"/><path class="cls-11" d="M136,84.75a9.73,9.73,0,0,0-5.63,0,8.65,8.65,0,0,0-3.87,2.12,8.83,8.83,0,0,0-2.11,3.51,10.75,10.75,0,0,0-.71,6,9.53,9.53,0,0,0,2.47,4.93,9.14,9.14,0,0,0,14.08-1.06A10.54,10.54,0,0,0,142,92.85a9.12,9.12,0,0,0-1.76-5.28A8.6,8.6,0,0,0,136,84.75Z"/><path class="cls-5" d="M124.76,93.79A3.75,3.75,0,0,0,123,95.94a4,4,0,0,0,.86,3.88,3.62,3.62,0,0,0,2.58,1.29,3.77,3.77,0,0,0,3-1.72,4.09,4.09,0,0,0,.43-3.45,3.77,3.77,0,0,0-1.72-2.15A3.62,3.62,0,0,0,124.76,93.79Z"/><path class="cls-5" d="M141,87.41a1.36,1.36,0,0,0-.63.78,1.46,1.46,0,0,0,.32,1.41,1.31,1.31,0,0,0,.93.47,1.37,1.37,0,0,0,1.1-.63,1.54,1.54,0,0,0,.16-1.25,1.39,1.39,0,0,0-.63-.78A1.32,1.32,0,0,0,141,87.41Z"/><path class="cls-10" d="M67.69,83.7a11.74,11.74,0,0,0-6.88,0,10.48,10.48,0,0,0-4.74,2.58,11,11,0,0,0-2.58,4.3,13.14,13.14,0,0,0-.86,7.32,11.57,11.57,0,0,0,3,6,11.18,11.18,0,0,0,17.22-1.29,12.9,12.9,0,0,0,2.15-9,11.21,11.21,0,0,0-2.15-6.45A10.43,10.43,0,0,0,67.69,83.7Z"/><path class="cls-11" d="M67.73,85.56a9.56,9.56,0,0,0-5.63,0,8.41,8.41,0,0,0-3.87,2.11,8.79,8.79,0,0,0-2.11,3.52,10.62,10.62,0,0,0-.71,6,9.45,9.45,0,0,0,2.47,4.93A9.13,9.13,0,0,0,72,101a10.49,10.49,0,0,0,1.76-7.39A9,9,0,0,0,72,88.37,8.47,8.47,0,0,0,67.73,85.56Z"/><path class="cls-5" d="M55.5,94.59a3.78,3.78,0,0,0-1.72,2.16,4.05,4.05,0,0,0,.86,3.87,3.67,3.67,0,0,0,2.59,1.29,3.79,3.79,0,0,0,3-1.72,4.11,4.11,0,0,0,.43-3.44A3.8,3.8,0,0,0,59,94.59,3.67,3.67,0,0,0,55.5,94.59Z"/><path class="cls-5" d="M70.77,89.21a1.32,1.32,0,0,0-.63.78,1.48,1.48,0,0,0,.31,1.41,1.32,1.32,0,0,0,.94.47,1.37,1.37,0,0,0,1.1-.63A1.48,1.48,0,0,0,72.64,90a1.35,1.35,0,0,0-.62-.78A1.32,1.32,0,0,0,70.77,89.21Z"/></g></g></svg>