<svg xmlns="http://www.w3.org/2000/svg" xmlns:xlink="http://www.w3.org/1999/xlink" viewBox="0 0 2782.95 1630.97"><defs><style>.cls-1{fill:none;}.cls-2{clip-path:url(#clip-path);}.cls-3{fill:url(#Gradiente_sem_nome_11);}.cls-4{opacity:0.3;}.cls-5{fill:#fff;}.cls-6,.cls-7{fill:#45282a;}.cls-16,.cls-6{opacity:0.1;}.cls-8{fill:#221117;}.cls-9{fill:#6d452f;}.cls-10,.cls-11{fill:#ffefaa;}.cls-10{opacity:0.2;}.cls-12{fill:#0f440f;}.cls-13{fill:#282828;}.cls-14{fill:#4d4713;}.cls-15{fill:#815822;}.cls-17{fill:#6b6737;}.cls-18{fill:#0d350d;}</style><clipPath id="clip-path" transform="translate(252.87)"><rect class="cls-1" width="2265" height="1522"/></clipPath><linearGradient id="Gradiente_sem_nome_11" x1="1377.77" y1="-352.04" x2="1393.05" y2="1885.44" gradientUnits="userSpaceOnUse"><stop offset="0" stop-color="#f8b589"/><stop offset="0.17" stop-color="#f7b287"/><stop offset="0.29" stop-color="#f4a882"/><stop offset="0.4" stop-color="#ee987a"/><stop offset="0.5" stop-color="#e7816e"/><stop offset="0.6" stop-color="#dd645e"/><stop offset="0.7" stop-color="#d1404c"/><stop offset="0.75" stop-color="#c9283f"/></linearGradient></defs><g id="Camada_2" data-name="Camada 2"><g id="Camada_1-2" data-name="Camada 1"><g class="cls-2"><rect class="cls-3" x="252.87" width="2265" height="1522"/><g class="cls-4"><path class="cls-5" d="M645.9,640c-1.08-.72-3.88-1.44-7.84-2.21l-3.18-.59-3.57-.52-8.1-1.11c-2.87-.37-5.89-.82-9-1.19s-6.31-.73-9.52-1.14-6.43-.89-9.61-1.32-6.3-.87-9.3-1.37l-15.25-2.08c-4.79-.67-9.26-1.42-13.28-2.2l11.71.65c-2.94-2.4-5.32-4.22-5.93-4.35a11,11,0,0,0-4.68.15A38.18,38.18,0,0,0,554,624.2c-2.8,1-5.45,1.82-8.16.18-4.65-2.82-4.94-14.22,2.9-16.76,3.17-.25-.9,3.35.52,4.07,6.41-4,6.59-10.11,3.39-14.85a16,16,0,0,0-6.89-5.63,14.7,14.7,0,0,0-9.48-.89c-5.53,1.37-13,7.11-15.32,13.62-1.45,4,.91,10.93-.7,14.48-2.59,5.81-6.18,5.54-10.2,3.25s-8.48-6.56-12.59-8.44c-2.28.27-3.9,2.21-5.47,4.32-2-3.55,3.93-4.19,4.91-7.72,1.55-5.53-6.08-9.6-13.24-12.15-4.46-1.66-10.25-1.76-15.6-1.72s-10.25.25-13-.33c-6.05-1.42-9.84-5-10.17-9.52-.89-12.15,14.28-10.54,7.81-.09a7.16,7.16,0,0,0,5.2-.66,10.9,10.9,0,0,0,4-3.76,17.43,17.43,0,0,0,2.65-11.52c-.8-5.3-4.9-9.05-10.16-11a28.83,28.83,0,0,0-16.94-.7,21,21,0,0,0-8.3,4.84,32.34,32.34,0,0,0-6.6,8.43c-3.56,6.46-5.13,14.27-3.33,21.47.86,3.46,4.09,8.74,6.6,13.89s4.32,10.18,2.56,13.12c-2,3.37-6.64,1.43-9.58-.94-9.29-7.55-9.5-20.4-16.82-29.23a27.76,27.76,0,0,0-6.9-5.84,33.25,33.25,0,0,0-8.9-3.66c-6.32-1.54-13.16-1.25-18.59,2.34s-9.82,10.81-11.85,18.57-1.65,16,2.33,20.88c2.76,3.38,8.33,6.21,13.64,6.78s10.44-1,12.55-6.18c-3.73,1.63-6.37,1.37-8,0a6.81,6.81,0,0,1-2.08-6.12,8.46,8.46,0,0,1,3.65-6.17c2.14-1.36,5.22-1.62,9.08.16,5.85,2.71,6.22,12.08,4.5,17.85-.55,1.85-2.69,3.67-6.07,5.46-1.69.87-3.68,1.8-5.93,2.74s-4.77,1.85-7.51,2.77c-3.85.73-7.71,1.37-11.53,2.22-5.23,5.71-12.26,14.11-13.18,14.82l14.48-4a801.17,801.17,0,0,1,223.43-13q34,2.87,67.71,8.58A21.44,21.44,0,0,0,645.9,640Z" transform="translate(252.87)"/></g><g class="cls-4"><path class="cls-5" d="M1640.08,407.79c-1.37-.31-4.54,0-8.93.59l-3.51.53-3.94.54-8.9,1.29c-3.16.44-6.47,1-9.89,1.39s-7,.79-10.5,1.15-7.1.74-10.62.92-7,.31-10.34.36q-4.38.22-8.56.37c-2.79,0-5.5,0-8.13,0-5.25-.07-10.14-.18-14.54-.53,4.22-.22,8.43-.54,12.64-.81-3.46-2-6.19-3.51-6.85-3.56a12.61,12.61,0,0,0-5,.74c-1.56.49-3,1.18-4.5,1.8-2.9,1.25-5.71,2.22-8.74.79-5.21-2.47-6-13.83,1.89-16.93,3.25-.48-.68,3.4.84,4,6.36-4.46,5.87-10.56,2.32-15a16.41,16.41,0,0,0-7.24-5.13,15.83,15.83,0,0,0-9.39-.38c-5.36,1.47-12.7,7.35-15.14,13.91-1.51,4,.92,10.91-.78,14.49-2.78,5.83-6.71,5.35-10.93,2.95a63.93,63.93,0,0,1-6.47-4.57,52.33,52.33,0,0,0-6.41-4.41c-2.39.07-4.23,1.86-6,3.83-1.77-3.71,4.45-3.83,5.69-7.27,1.94-5.38-5.56-10.1-12.43-13.25-4.3-1.91-10-2.94-15.28-3.61s-10.15-1.1-12.7-2.28c-5.68-2.55-8.62-6.8-8.06-11.26.75-6.05,4.56-8,7.2-7.27s4.17,4.09.24,8.63a6.64,6.64,0,0,0,5.06.31,10.63,10.63,0,0,0,4.35-3.19,17.87,17.87,0,0,0,4.15-11.05c0-5.38-3.2-9.53-7.56-12.33a23.76,23.76,0,0,0-14.86-3.71,20.69,20.69,0,0,0-8.31,3,33.14,33.14,0,0,0-7.8,6.68c-4.72,5.46-8.22,12.65-8.39,20-.08,3.56,1.65,9.44,2.84,15s1.81,10.92-.72,13.34c-2.87,2.73-7.19-.15-9.46-3.36-7.17-10-3.62-22.34-7.83-32.88a29.18,29.18,0,0,0-4.54-7.54,32.64,32.64,0,0,0-6.75-6.37c-5.07-3.55-11.08-5.34-17-4.17s-12.57,6.36-17.54,12.67-8.11,13.75-6.46,19.95c1.12,4.36,5.32,9,10.26,11.69s10.58,3.28,14.52-.92c-4.26.31-6.7-1.11-7.79-3a6.66,6.66,0,0,1,.34-6.48,8.4,8.4,0,0,1,5.71-4.29c2.5-.45,5.48.27,8.53,3.28,4.63,4.53,1.94,13.5-1.81,18.32-1.19,1.54-4,2.5-8,3a47,47,0,0,1-7,.28c-2.6,0-5.47-.2-8.58-.45-4.11-.91-8.25-1.74-12.33-2.78-7.52,2.81-18.46,7.11-19.75,7.32l16.32,3.05c20.17,4.75,40.49,9,61,12.11l7.69,1.23,7.72,1c5.15.67,10.29,1.44,15.46,2l15.5,1.63,3.88.4,3.89.3,7.77.6,7.78.59c2.59.21,5.19.28,7.79.43l15.58.73c10.4.2,20.8.55,31.21.35,10.4,0,20.8-.47,31.19-.83,5.2-.28,10.39-.65,15.58-1,2.59-.18,5.19-.3,7.78-.54l7.77-.71q38.22-3.37,75.94-10.5A24.68,24.68,0,0,0,1640.08,407.79Z" transform="translate(252.87)"/></g><path class="cls-6" d="M156.66,888.68a41.22,41.22,0,0,0,1.21,12.92c1.62,6.21,4.73,7.95,3.62,9.69-.67,1.05-2.15,1.07-9.56.83-9.81-.32-10.37-.44-10.87-1-2.68-3.19,4.79-9.16,7.19-21.18.05-.3.11-.59.16-.89" transform="translate(252.87)"/><path class="cls-6" d="M129.61,867l4.71-8.16,10.76-18.63a7.69,7.69,0,0,1,13.32,0l10.76,18.63,4.7,8.15" transform="translate(252.87)"/><path class="cls-6" d="M173.86,867l6.06,10.49A7.69,7.69,0,0,1,173.26,889h-43a7.69,7.69,0,0,1-6.66-11.54L129.61,867" transform="translate(252.87)"/><path class="cls-6" d="M795.05,968.85c29.07-125.12,63.73-274.31,139.63-288.69,42-7.95,59.12,25.69,98.12,9.43,54.71-22.81,61.23-108.74,98.11-107.55,13.45.44,16.81,12,44.34,17,13.86,2.5,29.72,5.43,43.4-1.89,21.76-11.64,12.95-35.51,36.79-62.27,22.83-25.61,54-29.67,58.5-30.19,7.85-.9,38.49-4.43,59.43,14.15,18.89,16.77,9.63,33.56,31.13,57.55,14.58,16.27,31.77,23,40.57,26.42,31.74,12.4,57.81,6.76,71.7,6.6,70.56-.78,131,136.71,140.57,158.5,9.12,20.75,84.48,192.2,24.53,313.21-129.9,262.22-846.63,190-904.74,5.66C771.67,1069.48,779.47,1035.93,795.05,968.85Z" transform="translate(252.87)"/><path class="cls-7" d="M1620.3,664.66C1649.37,539.54,1684,390.35,1759.93,376c42-8,59.12,25.69,98.11,9.43,54.72-22.81,61.23-108.74,98.12-107.55,13.45.44,16.81,12,44.34,17,13.86,2.51,29.71,5.43,43.4-1.88,21.76-11.64,12.94-35.51,36.79-62.27,22.83-25.61,54-29.67,58.49-30.19,7.85-.9,38.5-4.43,59.44,14.15,18.89,16.77,9.62,33.56,31.13,57.55,14.58,16.27,31.77,23,40.57,26.42,31.74,12.4,57.81,6.76,71.7,6.6,70.56-.78,131,136.71,140.57,158.5,9.12,20.75,84.48,192.2,24.53,313.21-129.9,262.22-846.64,190-904.74,5.66C1596.92,765.28,1604.71,731.74,1620.3,664.66Z" transform="translate(252.87)"/><path class="cls-8" d="M1214.9,827.51c36.91-158.88,80.93-348.32,177.3-366.58,51.56-9.77,87.19,36.46,124.6,12,35.66-23.35,14-72.12,57.9-103.83,24.42-17.65,67.37-28.73,99.54-18.12,5.75,1.89,12.09,4.88,23.45,6.94,17.6,3.18,37.73,6.89,55.11-2.4,27.63-14.77,16.44-45.09,46.72-79.07,29-32.52,68.59-37.68,74.28-38.33,10-1.15,48.88-5.64,75.47,18,24,21.29,12.22,42.61,39.54,73.08,18.51,20.65,40.34,29.18,51.51,33.54,40.31,15.74,73.41,8.58,91,8.39,89.6-1,166.34,173.6,178.5,201.26,11.58,26.36,107.27,244.06,31.15,397.73-165,333-1075.09,241.21-1148.88,7.19C1185.21,955.29,1195.11,912.7,1214.9,827.51Z" transform="translate(252.87)"/><path class="cls-9" d="M73.9,883.05c2.24-4.61,14.1,1.76,25-5.41,3.85-2.53,8.88-7.61,7.92-11.67-.42-1.78-1.57-4-1.25-4.17s1.94,2.78,2.92,2.5c1.38-.4.5-7,.83-7.08s.64,1.8.83,4.16c.3,3.7-.23,5,.42,5.42,1.54,1,6.72-4.92,7.08-4.58s-3.79,5.18-8.75,11.66c-4.61,6-4.32,6.1-5.83,7.51-3,2.78-4.27,2.63-13.75,7.5-6.46,3.31-7.59,4.26-9.59,3.75C75.83,891.63,72.47,886,73.9,883.05Z" transform="translate(252.87)"/><circle class="cls-10" cx="585.64" cy="651.2" r="123.23"/><circle class="cls-10" cx="585.41" cy="651.44" r="157.44"/><circle class="cls-11" cx="585.88" cy="651.44" r="97.15"/><path class="cls-9" d="M76.48,870.58c-1.37-3.06-8.62,1.16-15.28-3.59-2.9-2.07-5.7-5.56-4.84-7.73,1.31-3.28,10.47-2.29,10.46-2.88s-4.66-.47-6.67-.41a5.64,5.64,0,0,0-3.33.83c-1,.67-1.17,1.43-1.47,1.36-1-.23.2-8-.2-8s-.76,3.72-1.67,3.75c-.71,0-1.2-2.29-3.33-7.91a24.19,24.19,0,0,0-1.25-2.92C48.71,843.12,51,854,51.4,856a.91.91,0,0,1,0,.41c-.22.93-1.87,1.06-3.33,1.67-2.21.92-3.46,2.71-3.34,2.92s4.07-2.92,6.67-1.67c.71.34.53.63,3.69,5.21,1.27,1.83,1.18,1.68,1.59,2.28a14.53,14.53,0,0,0,2,2.68c1.83,1.85,2.61,1.75,8.4,5,4,2.2,4.64,2.82,5.85,2.48C75.3,876.26,77.35,872.53,76.48,870.58Z" transform="translate(252.87)"/><path class="cls-9" d="M207.05,855.7c2.24-4.62,14.1,1.76,25-5.42,3.84-2.53,8.88-7.6,7.92-11.66-.42-1.78-1.57-4-1.25-4.17s1.94,2.78,2.92,2.5c1.38-.4.5-7.05.83-7.09.18,0,.64,1.81.83,4.17.3,3.7-.23,5,.42,5.42,1.54,1,6.72-4.92,7.08-4.58S247,840,242.05,846.53c-4.61,6-4.32,6.1-5.83,7.5-3,2.78-4.27,2.64-13.75,7.5-6.46,3.32-7.59,4.27-9.59,3.75C209,864.28,205.62,858.64,207.05,855.7Z" transform="translate(252.87)"/><path class="cls-9" d="M209.63,843.22c-1.37-3.05-8.62,1.17-15.28-3.58-2.9-2.07-5.7-5.57-4.84-7.73,1.31-3.28,10.47-2.29,10.46-2.88s-4.66-.47-6.67-.42a5.72,5.72,0,0,0-3.33.84c-1,.67-1.18,1.43-1.48,1.36-.94-.23.21-8-.19-8s-.76,3.72-1.67,3.75c-.71,0-1.2-2.29-3.33-7.92a24,24,0,0,0-1.25-2.91c-.19.06,2.13,10.9,2.5,12.91a1.16,1.16,0,0,1,0,.42c-.22.93-1.88,1.06-3.34,1.67-2.2.92-3.45,2.71-3.33,2.91s4.07-2.91,6.67-1.66c.71.34.53.63,3.69,5.2,1.27,1.84,1.18,1.69,1.58,2.29a15.44,15.44,0,0,0,2,2.68c1.84,1.84,2.61,1.75,8.41,5,3.94,2.19,4.64,2.82,5.85,2.48C208.45,848.91,210.5,845.18,209.63,843.22Z" transform="translate(252.87)"/><path class="cls-9" d="M341.05,895.7c2.24-4.62,14.1,1.76,25-5.42,3.84-2.53,8.88-7.6,7.92-11.66-.42-1.78-1.57-4-1.25-4.17s1.94,2.78,2.92,2.5c1.38-.4.5-7.05.83-7.09.18,0,.64,1.81.83,4.17.3,3.7-.23,5,.42,5.42,1.54,1,6.72-4.92,7.08-4.58S381,880,376.05,886.53c-4.61,6-4.32,6.1-5.83,7.5-3,2.78-4.27,2.64-13.75,7.5-6.46,3.32-7.59,4.27-9.59,3.75C343,904.28,339.62,898.64,341.05,895.7Z" transform="translate(252.87)"/><path class="cls-9" d="M343.63,883.22c-1.37-3.05-8.62,1.17-15.28-3.58-2.9-2.07-5.7-5.57-4.84-7.73,1.31-3.28,10.47-2.29,10.46-2.88s-4.66-.47-6.67-.42a5.72,5.72,0,0,0-3.33.84c-1,.67-1.18,1.43-1.48,1.36-.94-.23.21-8-.19-8s-.76,3.72-1.67,3.75c-.71,0-1.2-2.29-3.33-7.92a24,24,0,0,0-1.25-2.91c-.19.06,2.13,10.9,2.5,12.91a1.16,1.16,0,0,1,0,.42c-.22.93-1.88,1.06-3.34,1.67-2.2.92-3.45,2.71-3.33,2.91s4.07-2.91,6.67-1.66c.71.34.53.63,3.69,5.2,1.27,1.84,1.18,1.69,1.58,2.29a15.44,15.44,0,0,0,2,2.68c1.84,1.84,2.61,1.75,8.41,5,3.94,2.19,4.64,2.82,5.85,2.48C342.45,888.91,344.5,885.18,343.63,883.22Z" transform="translate(252.87)"/><path class="cls-6" d="M274.74,891.68A41.52,41.52,0,0,0,276,904.6c1.62,6.21,4.73,7.95,3.62,9.69-.67,1.05-2.15,1.07-9.56.83-9.81-.32-10.37-.44-10.87-1-2.67-3.19,4.79-9.16,7.19-21.18.06-.3.11-.59.16-.89" transform="translate(252.87)"/><path class="cls-6" d="M247.69,870l4.71-8.16,10.76-18.63a7.69,7.69,0,0,1,13.32,0l10.76,18.63,4.7,8.15" transform="translate(252.87)"/><path class="cls-9" d="M1234.46,863.47c2.69-5.55,17,2.12,30.1-6.52,4.62-3,10.68-9.15,9.52-14-.5-2.14-1.88-4.8-1.5-5s2.33,3.35,3.51,3c1.67-.48.6-8.49,1-8.52.21,0,.78,2.17,1,5,.36,4.45-.28,6,.5,6.52,1.85,1.2,8.08-5.92,8.52-5.51s-4.56,6.23-10.53,14c-5.55,7.26-5.2,7.34-7,9-3.61,3.34-5.14,3.17-16.55,9-7.78,4-9.14,5.13-11.53,4.52C1236.79,873.8,1232.75,867,1234.46,863.47Z" transform="translate(252.87)"/><path class="cls-9" d="M1237.56,848.46c-1.64-3.68-10.36,1.4-18.38-4.32-3.49-2.49-6.86-6.7-5.82-9.3,1.57-4,12.59-2.75,12.58-3.47,0-.54-5.61-.56-8-.5a6.82,6.82,0,0,0-4,1c-1.15.8-1.41,1.72-1.77,1.63-1.13-.28.25-9.58-.24-9.66-.33-.05-.91,4.47-2,4.51-.86,0-1.45-2.75-4-9.52a28.54,28.54,0,0,0-1.51-3.51c-.23.08,2.56,13.12,3,15.54a1.17,1.17,0,0,1,0,.5c-.26,1.12-2.25,1.28-4,2-2.66,1.1-4.16,3.26-4,3.51s4.89-3.51,8-2c.85.41.64.76,4.44,6.27,1.53,2.21,1.42,2,1.91,2.75a18.41,18.41,0,0,0,2.38,3.23c2.21,2.22,3.15,2.1,10.12,6,4.75,2.64,5.58,3.4,7,3C1236.15,855.3,1238.61,850.8,1237.56,848.46Z" transform="translate(252.87)"/><path class="cls-9" d="M2274.6,1181.36c11.46-23.66,72.3,9,128.22-27.78,19.7-13,45.51-39,40.6-59.83-2.16-9.12-8-20.45-6.41-21.37,1.88-1.07,9.95,14.27,15,12.82,7.09-2,2.56-36.17,4.27-36.33.9-.08,3.29,9.27,4.27,21.37,1.54,19-1.18,25.63,2.14,27.78,7.89,5.12,34.44-25.21,36.33-23.5,1.7,1.54-19.45,26.56-44.88,59.83-23.66,31-22.15,31.28-29.92,38.47-15.4,14.26-21.9,13.53-70.51,38.46-33.15,17-39,21.86-49.15,19.23C2284.49,1225.36,2267.28,1196.46,2274.6,1181.36Z" transform="translate(252.87)"/><path class="cls-9" d="M2287.81,1117.39c-7-15.68-44.17,6-78.34-18.4-14.87-10.61-29.22-28.53-24.81-39.63,6.69-16.83,53.68-11.73,53.61-14.76-.05-2.33-23.88-2.41-34.19-2.14-6.16.17-11.84.57-17.1,4.28-4.89,3.44-6,7.34-7.54,7-4.83-1.17,1.06-40.81-1-41.15-1.44-.24-3.89,19.06-8.55,19.23-3.68.13-6.18-11.74-17.1-40.6,0,0-5.75-15.2-6.41-15-1,.35,10.91,55.93,12.82,66.24a5,5,0,0,1,0,2.14c-1.11,4.77-9.6,5.44-17.09,8.55-11.32,4.7-17.71,13.89-17.1,15,.83,1.43,20.85-15,34.19-8.55,3.64,1.74,2.72,3.23,18.93,26.69,6.51,9.42,6,8.65,8.13,11.73,6.22,9.15,6.57,10.15,10.15,13.75,9.42,9.45,13.39,9,43.09,25.47,20.25,11.26,23.79,14.48,30,12.74C2281.76,1146.52,2292.28,1127.39,2287.81,1117.39Z" transform="translate(252.87)"/><path class="cls-8" d="M1836.1,274.74c-3.53-4.21,6.32-12.09,9.48-28,3.24-16.21-2.64-30.07,2.41-32.27,1.83-.8,3.28.7,8.92,0,4.45-.55,5.55-1.73,6.53-1,2.18,1.57-2.46,8.4-5.5,23-.39,1.9-.64,3.1-.88,4.88a54.8,54.8,0,0,0,1.23,20.87c2.13,8.19,6.23,10.49,4.77,12.78-.89,1.39-2.84,1.41-12.62,1.1C1837.5,275.7,1836.77,275.53,1836.1,274.74Z" transform="translate(252.87)"/><path class="cls-8" d="M1879.42,221.77c2.76,5.44-.69,12.23-6.2,12.23h-40c-5.51,0-9-6.79-6.2-12.23L1837,202l10-19.76c2.75-5.44,9.64-5.44,12.39,0l10,19.76Z" transform="translate(252.87)"/><path class="cls-8" d="M1880,194.73c2.75,5.43-.69,12.23-6.19,12.23h-40c-5.51,0-8.95-6.8-6.2-12.23l10-19.77,10-19.76c2.75-5.43,9.63-5.43,12.38,0L1870,175Z" transform="translate(252.87)"/><path class="cls-8" d="M1880,170.44c2.75,5.44-.69,12.23-6.19,12.23h-40c-5.5,0-8.94-6.79-6.19-12.23l10-19.76,10-19.76c2.75-5.44,9.63-5.44,12.38,0l10,19.76Z" transform="translate(252.87)"/><path class="cls-8" d="M1654.31,355c-1.35-1.61,2.42-4.63,3.64-10.7s-1-11.52.92-12.37c.7-.3,1.25.27,3.41,0,1.71-.21,2.13-.66,2.5-.39.84.6-.94,3.22-2.1,8.81-.15.73-.25,1.19-.34,1.87a21,21,0,0,0,.47,8c.82,3.14,2.39,4,1.83,4.9-.34.53-1.09.54-4.83.42C1654.85,355.36,1654.57,355.3,1654.31,355Z" transform="translate(252.87)"/><path class="cls-8" d="M1672.28,337.3c1.26,2.48-.31,5.57-2.82,5.57h-18.24c-2.51,0-4.08-3.09-2.82-5.57l4.56-9,4.56-9a3.07,3.07,0,0,1,5.64,0l4.56,9Z" transform="translate(252.87)"/><path class="cls-8" d="M1672.56,325c1.25,2.47-.31,5.57-2.82,5.57h-18.22c-2.51,0-4.07-3.1-2.82-5.57l4.55-9,4.56-9a3.07,3.07,0,0,1,5.64,0l4.55,9Z" transform="translate(252.87)"/><path class="cls-8" d="M1672.56,313.93c1.25,2.47-.31,5.57-2.82,5.57h-18.21c-2.5,0-4.07-3.1-2.82-5.57l4.56-9,4.55-9a3.07,3.07,0,0,1,5.63,0l4.56,9Z" transform="translate(252.87)"/><path class="cls-6" d="M291.94,870,298,880.46A7.69,7.69,0,0,1,291.34,892h-43a7.69,7.69,0,0,1-6.66-11.54L247.69,870" transform="translate(252.87)"/><path class="cls-9" d="M1201.35,905v.09a26.63,26.63,0,0,0,.59,10.11c1,4,3,5.09,2.32,6.2-.43.67-1.38.68-6.12.53-6.27-.2-6.63-.28-7-.67-1.71-2,3.06-5.86,4.6-13.54a24.66,24.66,0,0,0,.38-2.72" transform="translate(252.87)"/><path class="cls-12" d="M1210.4,885.7l6.88,11.92A4.92,4.92,0,0,1,1213,905h-27.53a4.92,4.92,0,0,1-4.25-7.38l6.88-11.92" transform="translate(252.87)"/><path class="cls-12" d="M1212.91,870.64l4.4,7.63a4.91,4.91,0,0,1-4.26,7.37h-27.52a4.91,4.91,0,0,1-4.26-7.37l4.45-7.72" transform="translate(252.87)"/><path class="cls-12" d="M1217.33,863.17a4.92,4.92,0,0,1-4.26,7.38h-27.52a4.92,4.92,0,0,1-4.26-7.38l6.88-11.92,6.88-11.92a4.92,4.92,0,0,1,8.52,0l6.88,11.92Z" transform="translate(252.87)"/><path class="cls-13" d="M797.53,239.07c-.78,1.31,11.14,5.83,18.32,18.7,4.94,8.86,4.43,15.73,7.25,16,3.79.39,4.91-12,14.12-22.52,12.26-14,30.23-13.52,29.77-15.65-.42-2-15.68-2.7-27.1,5.35-.75.53-1.33,1-1.52,1.14-10.65,8.51-10.19,18.83-13.74,19.08-3.13.22-3.53-7.8-11.07-14.88C806.8,240,798.17,238,797.53,239.07Z" transform="translate(252.87)"/><path class="cls-13" d="M793.52,165.61c-.43.73,6.15,3.22,10.12,10.34,2.73,4.89,2.44,8.69,4,8.85,2.1.22,2.71-6.63,7.8-12.44,6.77-7.72,16.7-7.47,16.45-8.64s-8.66-1.5-15,2.95c-.42.29-.74.55-.84.63-5.89,4.7-5.63,10.41-7.59,10.54-1.73.12-2-4.31-6.12-8.22C798.64,166.11,793.87,165,793.52,165.61Z" transform="translate(252.87)"/><path class="cls-9" d="M110.48,919.38c-3.07-3.66,5.5-10.53,8.26-24.34,2.81-14.11-2.31-26.18,2.09-28.1,1.6-.69,2.86.61,7.77,0,3.88-.48,4.83-1.51,5.68-.89,1.9,1.36-2.13,7.31-4.78,20-.35,1.65-.56,2.7-.77,4.25a47.71,47.71,0,0,0,1.07,18.18c1.86,7.13,5.42,9.13,4.15,11.13-.77,1.21-2.47,1.23-11,1C111.69,920.22,111.06,920.08,110.48,919.38Z" transform="translate(252.87)"/><path class="cls-12" d="M157.37,875.54a8.83,8.83,0,0,1-7.65,13.25H100.26a8.83,8.83,0,0,1-7.65-13.25L105,854.12l12.37-21.41a8.83,8.83,0,0,1,15.3,0L145,854.12Z" transform="translate(252.87)"/><path class="cls-12" d="M157.43,842.14a8.83,8.83,0,0,1-7.66,13.25H100.32a8.83,8.83,0,0,1-7.65-13.25L105,820.72l12.36-21.42a8.84,8.84,0,0,1,15.31,0l12.36,21.42Z" transform="translate(252.87)"/><path class="cls-12" d="M157.46,815a8.84,8.84,0,0,1-7.65,13.26H100.35A8.84,8.84,0,0,1,92.7,815l12.37-21.41,12.36-21.42a8.84,8.84,0,0,1,15.31,0L145.1,793.6Z" transform="translate(252.87)"/><path class="cls-9" d="M187.22,903.62c-3.07-3.66,5.5-10.53,8.26-24.34,2.82-14.12-2.31-26.18,2.09-28.1,1.6-.7,2.86.61,7.77,0,3.88-.48,4.83-1.51,5.68-.9,1.9,1.37-2.13,7.32-4.78,20-.34,1.65-.56,2.7-.77,4.25a47.66,47.66,0,0,0,1.07,18.17c1.86,7.14,5.43,9.14,4.15,11.14-.77,1.21-2.47,1.22-11,1C188.43,904.46,187.8,904.31,187.22,903.62Z" transform="translate(252.87)"/><path class="cls-14" d="M234.11,859.77A8.84,8.84,0,0,1,226.46,873H177a8.84,8.84,0,0,1-7.65-13.26l12.36-21.41,12.37-21.42a8.83,8.83,0,0,1,15.3,0l12.37,21.42Z" transform="translate(252.87)"/><path class="cls-14" d="M234.17,826.37a8.84,8.84,0,0,1-7.65,13.26H177.06a8.84,8.84,0,0,1-7.65-13.26L181.77,805l12.36-21.42a8.84,8.84,0,0,1,15.31,0L221.81,805Z" transform="translate(252.87)"/><path class="cls-14" d="M234.21,799.25a8.84,8.84,0,0,1-7.66,13.25H177.1a8.83,8.83,0,0,1-7.66-13.25l12.37-21.42,12.36-21.41a8.84,8.84,0,0,1,15.31,0l12.36,21.41Z" transform="translate(252.87)"/><path class="cls-9" d="M264.45,926.67c-3.07-3.66,5.5-10.53,8.26-24.34,2.82-14.11-2.31-26.18,2.09-28.1,1.6-.7,2.86.61,7.77,0,3.88-.48,4.83-1.51,5.68-.9,1.9,1.37-2.13,7.32-4.78,20-.34,1.65-.56,2.7-.77,4.25a48.12,48.12,0,0,0,1.07,18.18c1.86,7.13,5.43,9.13,4.15,11.13-.77,1.21-2.47,1.23-11,1C265.67,927.51,265,927.36,264.45,926.67Z" transform="translate(252.87)"/><path class="cls-15" d="M311.35,882.83a8.84,8.84,0,0,1-7.66,13.25H254.24a8.83,8.83,0,0,1-7.66-13.25L259,861.41,271.31,840a8.83,8.83,0,0,1,15.31,0L299,861.41Z" transform="translate(252.87)"/><path class="cls-15" d="M311.4,849.43a8.83,8.83,0,0,1-7.65,13.25H254.29a8.83,8.83,0,0,1-7.65-13.25L259,828l12.37-21.42a8.83,8.83,0,0,1,15.3,0L299,828Z" transform="translate(252.87)"/><path class="cls-15" d="M311.44,822.3a8.84,8.84,0,0,1-7.66,13.26H254.33a8.84,8.84,0,0,1-7.66-13.26L259,800.89l12.36-21.42a8.84,8.84,0,0,1,15.31,0l12.36,21.42Z" transform="translate(252.87)"/><path class="cls-9" d="M400,943.58c-3-3.58,5.38-10.29,8.08-23.79,2.75-13.79-2.26-25.59,2-27.46,1.56-.68,2.79.6,7.6,0,3.78-.47,4.71-1.48,5.55-.88,1.85,1.34-2.09,7.15-4.68,19.58-.33,1.61-.55,2.64-.75,4.15a46.87,46.87,0,0,0,1.05,17.76c1.81,7,5.3,8.93,4.05,10.88-.75,1.18-2.41,1.2-10.73.93C401.23,944.4,400.61,944.26,400,943.58Z" transform="translate(252.87)"/><path class="cls-12" d="M445.87,900.73a8.63,8.63,0,0,1-7.48,12.95H390.06a8.63,8.63,0,0,1-7.48-12.95l12.09-20.93,12.08-20.93a8.64,8.64,0,0,1,15,0l12.08,20.93Z" transform="translate(252.87)"/><path class="cls-12" d="M445.93,868.09A8.64,8.64,0,0,1,438.45,881H390.12a8.63,8.63,0,0,1-7.48-12.95l12.08-20.93,12.08-20.93a8.64,8.64,0,0,1,15,0l12.08,20.93Z" transform="translate(252.87)"/><path class="cls-12" d="M446,841.58a8.64,8.64,0,0,1-7.48,13H390.15a8.64,8.64,0,0,1-7.48-13l12.08-20.93,12.09-20.93a8.64,8.64,0,0,1,15,0l12.08,20.93Z" transform="translate(252.87)"/><path class="cls-9" d="M475,928.17c-3-3.58,5.38-10.29,8.07-23.78,2.76-13.8-2.25-25.59,2.05-27.47,1.56-.68,2.79.6,7.59,0,3.79-.47,4.72-1.47,5.55-.87,1.86,1.33-2.08,7.15-4.67,19.57-.34,1.61-.55,2.64-.75,4.15a46.62,46.62,0,0,0,1,17.76c1.82,7,5.31,8.93,4.06,10.88-.75,1.19-2.41,1.2-10.73.94C476.23,929,475.61,928.85,475,928.17Z" transform="translate(252.87)"/><path class="cls-14" d="M520.87,885.32a8.64,8.64,0,0,1-7.48,13H465.06a8.64,8.64,0,0,1-7.48-13l12.08-20.93,12.09-20.92a8.63,8.63,0,0,1,14.95,0l12.09,20.92Z" transform="translate(252.87)"/><path class="cls-14" d="M520.93,852.68a8.64,8.64,0,0,1-7.48,13H465.11a8.63,8.63,0,0,1-7.48-13l12.09-20.93,12.08-20.93a8.64,8.64,0,0,1,15,0l12.08,20.93Z" transform="translate(252.87)"/><path class="cls-14" d="M521,826.18a8.64,8.64,0,0,1-7.48,13H465.15a8.63,8.63,0,0,1-7.48-13l12.08-20.93,12.09-20.93a8.63,8.63,0,0,1,15,0l12.09,20.93Z" transform="translate(252.87)"/><path class="cls-9" d="M550.52,950.7c-3-3.58,5.38-10.29,8.07-23.78,2.75-13.8-2.25-25.59,2-27.47,1.57-.68,2.8.6,7.6,0,3.79-.47,4.72-1.47,5.55-.87,1.86,1.33-2.08,7.15-4.67,19.57-.34,1.61-.55,2.64-.75,4.15a46.62,46.62,0,0,0,1,17.76c1.82,7,5.3,8.93,4.06,10.88-.76,1.19-2.42,1.2-10.74.94C551.71,951.52,551.09,951.38,550.52,950.7Z" transform="translate(252.87)"/><path class="cls-15" d="M596.35,907.85a8.64,8.64,0,0,1-7.48,13H540.53a8.64,8.64,0,0,1-7.47-13l12.08-20.93L557.22,866a8.64,8.64,0,0,1,15,0l12.08,20.92Z" transform="translate(252.87)"/><path class="cls-15" d="M596.4,875.21a8.64,8.64,0,0,1-7.48,13H540.59a8.64,8.64,0,0,1-7.48-13l12.08-20.93,12.09-20.93a8.64,8.64,0,0,1,15,0l12.08,20.93Z" transform="translate(252.87)"/><path class="cls-15" d="M596.44,848.71A8.64,8.64,0,0,1,589,861.66H540.62a8.63,8.63,0,0,1-7.47-12.95l12.08-20.93,12.08-20.93a8.64,8.64,0,0,1,15,0l12.08,20.93Z" transform="translate(252.87)"/><path class="cls-9" d="M51.4,946c-5.33-6.35,9.55-18.27,14.33-42.22,4.89-24.49-4-45.43,3.63-48.76,2.77-1.21,5,1.06,13.49,0,6.72-.84,8.37-2.62,9.85-1.56,3.3,2.37-3.7,12.69-8.3,34.75-.59,2.87-1,4.69-1.33,7.37a83,83,0,0,0,1.85,31.54c3.23,12.38,9.42,15.85,7.21,19.31-1.34,2.11-4.29,2.13-19.06,1.66C53.51,947.43,52.41,947.18,51.4,946Z" transform="translate(252.87)"/><path class="cls-12" d="M132.76,869.9a15.33,15.33,0,0,1-13.27,23H33.68a15.33,15.33,0,0,1-13.28-23l21.45-37.16L63.3,795.59a15.34,15.34,0,0,1,26.56,0l21.45,37.15Z" transform="translate(252.87)"/><path class="cls-12" d="M132.86,812a15.33,15.33,0,0,1-13.28,23H33.77a15.34,15.34,0,0,1-13.28-23L42,774.79,63.4,737.64a15.33,15.33,0,0,1,26.56,0l21.45,37.15Z" transform="translate(252.87)"/><path class="cls-12" d="M132.92,764.89a15.33,15.33,0,0,1-13.28,23H33.83a15.33,15.33,0,0,1-13.27-23L42,727.74l21.45-37.16a15.34,15.34,0,0,1,26.56,0l21.45,37.16Z" transform="translate(252.87)"/><path class="cls-9" d="M184.55,918.62c-5.33-6.35,9.55-18.27,14.33-42.23,4.89-24.49-4-45.43,3.63-48.75,2.77-1.21,5,1.06,13.49,0,6.72-.84,8.37-2.62,9.85-1.56,3.3,2.37-3.7,12.69-8.3,34.75-.59,2.86-1,4.69-1.33,7.37a83,83,0,0,0,1.85,31.53c3.22,12.39,9.42,15.86,7.21,19.32-1.34,2.1-4.29,2.13-19.06,1.66C186.66,920.08,185.56,919.82,184.55,918.62Z" transform="translate(252.87)"/><path class="cls-14" d="M265.91,842.55a15.33,15.33,0,0,1-13.28,23h-85.8a15.33,15.33,0,0,1-13.28-23L175,805.39l21.45-37.15a15.33,15.33,0,0,1,26.56,0l21.45,37.15Z" transform="translate(252.87)"/><path class="cls-14" d="M266,784.6a15.33,15.33,0,0,1-13.28,23H166.92a15.33,15.33,0,0,1-13.28-23l21.46-37.16,21.45-37.16a15.34,15.34,0,0,1,26.56,0l21.45,37.16Z" transform="translate(252.87)"/><path class="cls-14" d="M266.07,737.54a15.33,15.33,0,0,1-13.28,23H167a15.33,15.33,0,0,1-13.27-23l21.45-37.16,21.45-37.15a15.33,15.33,0,0,1,26.56,0l21.45,37.15Z" transform="translate(252.87)"/><path class="cls-9" d="M318.55,958.62c-5.33-6.35,9.55-18.27,14.33-42.23,4.89-24.49-4-45.43,3.63-48.75,2.77-1.21,5,1.06,13.49,0,6.72-.84,8.37-2.62,9.85-1.56,3.3,2.37-3.7,12.69-8.3,34.75-.59,2.86-1,4.69-1.33,7.37a83,83,0,0,0,1.85,31.53c3.22,12.39,9.42,15.86,7.21,19.32-1.34,2.1-4.29,2.13-19.06,1.66C320.66,960.08,319.56,959.82,318.55,958.62Z" transform="translate(252.87)"/><path class="cls-15" d="M399.91,882.55a15.33,15.33,0,0,1-13.28,23h-85.8a15.33,15.33,0,0,1-13.28-23L309,845.39l21.45-37.15a15.33,15.33,0,0,1,26.56,0l21.45,37.15Z" transform="translate(252.87)"/><path class="cls-15" d="M400,824.6a15.33,15.33,0,0,1-13.28,23H300.92a15.33,15.33,0,0,1-13.28-23l21.46-37.16,21.45-37.16a15.34,15.34,0,0,1,26.56,0l21.45,37.16Z" transform="translate(252.87)"/><path class="cls-15" d="M400.07,777.54a15.33,15.33,0,0,1-13.28,23H301a15.33,15.33,0,0,1-13.27-23l21.45-37.16,21.45-37.15a15.33,15.33,0,0,1,26.56,0l21.45,37.15Z" transform="translate(252.87)"/><path class="cls-13" d="M705.67,217.09c-.44.74,6.22,3.3,10.23,10.59,2.77,5,2.48,8.9,4.06,9.07,2.11.23,2.74-6.8,7.89-12.75,6.84-7.91,16.88-7.65,16.63-8.86s-8.76-1.53-15.14,3a10.51,10.51,0,0,0-.85.65c-6,4.81-5.7,10.66-7.68,10.8-1.75.12-2-4.41-6.19-8.43C710.85,217.6,706,216.48,705.67,217.09Z" transform="translate(252.87)"/><g class="cls-16"><path class="cls-7" d="M619.93,919.56c-1.58-1.8,2.83-5.19,4.25-12s-1.19-12.92,1.08-13.86c.82-.35,1.47.3,4,0,2-.24,2.48-.75,2.92-.45,1,.68-1.1,3.61-2.46,9.88-.18.82-.29,1.34-.4,2.1a22.76,22.76,0,0,0,.55,9c1,3.53,2.8,4.51,2.14,5.5-.4.59-1.27.6-5.65.47C620.55,920,620.23,919.91,619.93,919.56Z" transform="translate(252.87)"/><path class="cls-7" d="M644.07,897.94a4.37,4.37,0,0,1-3.94,6.54H614.67a4.37,4.37,0,0,1-3.94-6.54l6.36-10.57,6.37-10.56a4.65,4.65,0,0,1,7.88,0l6.36,10.56Z" transform="translate(252.87)"/><path class="cls-7" d="M644.1,881.46a4.36,4.36,0,0,1-3.94,6.54H614.7a4.36,4.36,0,0,1-3.94-6.54l6.36-10.56,6.37-10.57a4.66,4.66,0,0,1,7.88,0l6.36,10.57Z" transform="translate(252.87)"/><path class="cls-7" d="M644.12,868.08a4.36,4.36,0,0,1-3.94,6.54H614.72a4.36,4.36,0,0,1-3.94-6.54l6.36-10.56L623.51,847a4.65,4.65,0,0,1,7.88,0l6.36,10.56Z" transform="translate(252.87)"/></g><g class="cls-16"><path class="cls-7" d="M659.43,911.79c-1.58-1.81,2.84-5.2,4.26-12s-1.19-12.91,1.07-13.86c.83-.34,1.48.3,4,0,2-.24,2.48-.74,2.92-.44,1,.67-1.1,3.61-2.46,9.88-.18.81-.29,1.33-.4,2.09a22.81,22.81,0,0,0,.55,9c1,3.52,2.8,4.51,2.14,5.49-.4.6-1.27.61-5.66.47C660.06,912.2,659.73,912.13,659.43,911.79Z" transform="translate(252.87)"/><path class="cls-7" d="M683.58,890.16a4.36,4.36,0,0,1-3.94,6.54H654.18a4.36,4.36,0,0,1-3.94-6.54l6.36-10.56L663,869a4.66,4.66,0,0,1,7.88,0l6.36,10.57Z" transform="translate(252.87)"/><path class="cls-7" d="M683.61,873.68a4.36,4.36,0,0,1-3.94,6.54H654.2a4.36,4.36,0,0,1-3.94-6.54l6.37-10.56L663,852.56a4.65,4.65,0,0,1,7.88,0l6.36,10.56Z" transform="translate(252.87)"/><path class="cls-7" d="M683.62,860.31a4.36,4.36,0,0,1-3.94,6.54H654.22a4.37,4.37,0,0,1-3.94-6.54l6.37-10.57L663,839.18a4.65,4.65,0,0,1,7.88,0l6.37,10.56Z" transform="translate(252.87)"/></g><g class="cls-16"><path class="cls-7" d="M699.19,923.16c-1.58-1.81,2.84-5.19,4.26-12s-1.19-12.91,1.07-13.86c.83-.34,1.47.3,4,0,2-.23,2.48-.74,2.92-.44,1,.67-1.1,3.61-2.46,9.88-.18.81-.29,1.33-.4,2.1a22.77,22.77,0,0,0,.55,9c1,3.52,2.79,4.51,2.14,5.49-.4.6-1.27.61-5.66.47C699.82,923.57,699.49,923.5,699.19,923.16Z" transform="translate(252.87)"/><path class="cls-7" d="M723.34,901.53a4.36,4.36,0,0,1-3.94,6.54H693.94a4.36,4.36,0,0,1-3.94-6.54L696.36,891l6.37-10.56a4.65,4.65,0,0,1,7.88,0L717,891Z" transform="translate(252.87)"/><path class="cls-7" d="M723.37,885.06a4.37,4.37,0,0,1-3.94,6.54H694a4.37,4.37,0,0,1-3.94-6.54l6.37-10.57,6.37-10.56a4.64,4.64,0,0,1,7.87,0L717,874.49Z" transform="translate(252.87)"/><path class="cls-7" d="M723.38,871.68a4.36,4.36,0,0,1-3.94,6.54H694a4.37,4.37,0,0,1-3.94-6.54l6.37-10.56,6.36-10.57a4.66,4.66,0,0,1,7.88,0L717,861.12Z" transform="translate(252.87)"/></g><g class="cls-16"><path class="cls-7" d="M765.08,919.64c-1.58-1.8,2.83-5.19,4.25-12,1.45-7-1.18-12.92,1.08-13.86.82-.35,1.47.3,4,0,2-.24,2.49-.75,2.93-.45,1,.68-1.1,3.61-2.47,9.88-.17.82-.29,1.34-.39,2.1a22.57,22.57,0,0,0,.55,9c1,3.52,2.79,4.51,2.14,5.5-.4.59-1.28.6-5.66.47C765.71,920.06,765.38,920,765.08,919.64Z" transform="translate(252.87)"/><path class="cls-7" d="M789.22,898a4.35,4.35,0,0,1-3.94,6.53H759.82a4.36,4.36,0,0,1-3.94-6.53l6.37-10.57,6.36-10.56a4.65,4.65,0,0,1,7.88,0l6.37,10.56Z" transform="translate(252.87)"/><path class="cls-7" d="M789.25,881.54a4.36,4.36,0,0,1-3.94,6.54H759.85a4.36,4.36,0,0,1-3.94-6.54L762.28,871l6.36-10.57a4.66,4.66,0,0,1,7.88,0L782.89,871Z" transform="translate(252.87)"/><path class="cls-7" d="M789.27,868.16a4.36,4.36,0,0,1-3.94,6.54H759.87a4.36,4.36,0,0,1-3.94-6.54l6.37-10.56L768.66,847a4.66,4.66,0,0,1,7.88,0l6.37,10.57Z" transform="translate(252.87)"/></g><g class="cls-16"><path class="cls-7" d="M844.35,923.24c-1.58-1.81,2.83-5.2,4.25-12,1.45-7-1.19-12.91,1.08-13.86.82-.34,1.47.3,4,0,2-.24,2.48-.74,2.92-.44,1,.67-1.1,3.61-2.46,9.88-.18.81-.29,1.33-.4,2.09a22.81,22.81,0,0,0,.55,9c1,3.52,2.8,4.51,2.14,5.49-.4.6-1.27.61-5.65.47C845,923.65,844.65,923.58,844.35,923.24Z" transform="translate(252.87)"/><path class="cls-7" d="M868.49,901.61a4.36,4.36,0,0,1-3.94,6.54H839.09a4.36,4.36,0,0,1-3.94-6.54l6.36-10.56,6.37-10.57a4.66,4.66,0,0,1,7.88,0l6.36,10.57Z" transform="translate(252.87)"/><path class="cls-7" d="M868.52,885.14a4.36,4.36,0,0,1-3.94,6.53H839.12a4.36,4.36,0,0,1-3.94-6.53l6.36-10.57L847.91,864a4.65,4.65,0,0,1,7.88,0l6.36,10.56Z" transform="translate(252.87)"/><path class="cls-7" d="M868.54,871.76a4.37,4.37,0,0,1-3.94,6.54H839.14a4.36,4.36,0,0,1-3.94-6.54l6.36-10.57,6.37-10.56a4.65,4.65,0,0,1,7.88,0l6.36,10.56Z" transform="translate(252.87)"/></g><rect class="cls-17" x="252.87" y="906" width="2265" height="612"/><path class="cls-9" d="M1207.38,939.2c-6.41-7.64,11.49-22,17.25-50.82,5.88-29.48-4.82-54.68,4.37-58.68,3.33-1.46,6,1.27,16.23,0,8.09-1,10.08-3.16,11.86-1.88,4,2.86-4.46,15.28-10,41.83-.72,3.44-1.17,5.64-1.6,8.87a99.76,99.76,0,0,0,2.23,38c3.88,14.91,11.33,19.08,8.67,23.25-1.61,2.53-5.16,2.56-22.94,2C1209.92,941,1208.6,940.65,1207.38,939.2Z" transform="translate(252.87)"/><path class="cls-12" d="M1305.31,847.64a18.45,18.45,0,0,1-16,27.68H1186.05a18.45,18.45,0,0,1-16-27.68l25.82-44.72,25.82-44.72a18.45,18.45,0,0,1,32,0l25.82,44.72Z" transform="translate(252.87)"/><path class="cls-12" d="M1305.43,777.89a18.46,18.46,0,0,1-16,27.68H1186.17a18.45,18.45,0,0,1-16-27.68L1196,733.17l25.81-44.72a18.46,18.46,0,0,1,32,0l25.82,44.72Z" transform="translate(252.87)"/><path class="cls-12" d="M1305.5,721.26a18.46,18.46,0,0,1-16,27.68H1186.24a18.46,18.46,0,0,1-16-27.68l25.82-44.72,25.82-44.72a18.45,18.45,0,0,1,32,0l25.82,44.72Z" transform="translate(252.87)"/><path class="cls-9" d="M1045.16,943.69c-2.6-3.91,4.66-11.23,7-26,2.39-15-2-27.92,1.77-30,1.36-.74,2.43.65,6.59,0,3.29-.51,4.09-1.61,4.82-.95,1.61,1.45-1.81,7.8-4.06,21.35-.29,1.76-.47,2.88-.65,4.53a63.93,63.93,0,0,0,.91,19.38c1.57,7.61,4.6,9.74,3.52,11.87-.66,1.29-2.1,1.31-9.32,1C1046.19,944.58,1045.65,944.43,1045.16,943.69Z" transform="translate(252.87)"/><path class="cls-12" d="M1084.91,896.94c2.88,6.28-.72,14.13-6.49,14.13H1036.5c-5.76,0-9.37-7.85-6.49-14.13l10.48-22.84L1051,851.27c2.89-6.28,10.09-6.28,13,0l10.48,22.83Z" transform="translate(252.87)"/><path class="cls-12" d="M1085,861.32c2.89,6.29-.72,14.14-6.48,14.14h-41.92c-5.77,0-9.37-7.85-6.49-14.14l10.48-22.83L1051,815.66c2.88-6.29,10.09-6.29,13,0l10.48,22.83Z" transform="translate(252.87)"/><path class="cls-12" d="M1085,832.41c2.88,6.28-.73,14.13-6.49,14.13h-41.92c-5.77,0-9.37-7.85-6.49-14.13l10.48-22.84,10.48-22.83c2.89-6.28,10.09-6.28,13,0l10.48,22.83Z" transform="translate(252.87)"/><path class="cls-9" d="M1116.57,928.33c-3.28-3.91,5.88-11.24,8.82-26,3-15.07-2.46-28,2.23-30,1.71-.74,3.05.65,8.3,0,4.13-.51,5.15-1.61,6.06-1,2,1.45-2.28,7.8-5.11,21.37-.36,1.76-.6,2.88-.82,4.54a51,51,0,0,0,1.14,19.39c2,7.62,5.8,9.76,4.44,11.89-.83,1.29-2.64,1.31-11.73,1C1117.87,929.23,1117.19,929.07,1116.57,928.33Z" transform="translate(252.87)"/><path class="cls-14" d="M1166.62,881.54a9.42,9.42,0,0,1-8.16,14.14h-52.79a9.43,9.43,0,0,1-8.17-14.14l13.2-22.86,13.19-22.86a9.43,9.43,0,0,1,16.34,0l13.2,22.86Z" transform="translate(252.87)"/><path class="cls-14" d="M1166.68,845.89a9.42,9.42,0,0,1-8.16,14.14h-52.79a9.43,9.43,0,0,1-8.17-14.14l13.2-22.86L1124,800.17a9.43,9.43,0,0,1,16.34,0l13.2,22.86Z" transform="translate(252.87)"/><path class="cls-14" d="M1166.72,816.94a9.43,9.43,0,0,1-8.17,14.15h-52.78a9.43,9.43,0,0,1-8.17-14.15l13.2-22.86L1124,771.22a9.44,9.44,0,0,1,16.34,0l13.2,22.86Z" transform="translate(252.87)"/><path class="cls-8" d="M1613.38,367.67C1612,366.06,1615.8,363,1617,357s-1-11.52.92-12.36c.7-.31,1.26.27,3.42,0,1.7-.21,2.12-.66,2.5-.39.83.6-.94,3.21-2.11,8.81-.15.72-.24,1.19-.34,1.87a21.24,21.24,0,0,0,.47,8c.82,3.14,2.39,4,1.83,4.9-.34.53-1.09.54-4.83.42C1613.91,368,1613.63,368,1613.38,367.67Z" transform="translate(252.87)"/><path class="cls-8" d="M1631.34,350c1.26,2.47-.31,5.57-2.82,5.57h-18.24c-2.51,0-4.08-3.1-2.82-5.57l4.56-9,4.56-9a3.07,3.07,0,0,1,5.64,0l4.56,9Z" transform="translate(252.87)"/><path class="cls-8" d="M1631.62,337.66c1.26,2.48-.31,5.57-2.82,5.57h-18.22c-2.5,0-4.07-3.09-2.82-5.57l4.56-9,4.55-9a3.07,3.07,0,0,1,5.64,0l4.56,9Z" transform="translate(252.87)"/><path class="cls-8" d="M1631.62,326.61c1.26,2.47-.31,5.57-2.81,5.57H1610.6c-2.51,0-4.07-3.1-2.82-5.57l4.55-9,4.55-9a3.07,3.07,0,0,1,5.64,0l4.55,9Z" transform="translate(252.87)"/><path class="cls-8" d="M1683.38,372.67C1682,371.06,1685.8,368,1687,362s-1-11.52.92-12.36c.7-.31,1.26.27,3.42,0,1.7-.21,2.12-.66,2.5-.39.83.6-.94,3.21-2.11,8.81-.15.72-.24,1.19-.34,1.87a21.24,21.24,0,0,0,.47,8c.82,3.14,2.39,4,1.83,4.9-.34.53-1.09.54-4.83.42C1683.91,373,1683.63,373,1683.38,372.67Z" transform="translate(252.87)"/><path class="cls-8" d="M1701.34,355c1.26,2.47-.31,5.57-2.82,5.57h-18.24c-2.51,0-4.08-3.1-2.82-5.57l4.56-9,4.56-9a3.07,3.07,0,0,1,5.64,0l4.56,9Z" transform="translate(252.87)"/><path class="cls-8" d="M1701.62,342.66c1.26,2.48-.31,5.57-2.82,5.57h-18.22c-2.5,0-4.07-3.09-2.82-5.57l4.56-9,4.55-9a3.07,3.07,0,0,1,5.64,0l4.56,9Z" transform="translate(252.87)"/><path class="cls-8" d="M1701.62,331.61c1.26,2.47-.31,5.57-2.81,5.57H1680.6c-2.51,0-4.07-3.1-2.82-5.57l4.55-9,4.55-9a3.07,3.07,0,0,1,5.64,0l4.55,9Z" transform="translate(252.87)"/><path class="cls-8" d="M1889,262.21c-2.66-3.18,4.78-9.14,7.18-21.13,2.44-12.26-2-22.74,1.81-24.41,1.39-.6,2.48.53,6.75,0,3.37-.42,4.2-1.31,4.94-.78,1.65,1.19-1.86,6.36-4.16,17.4-.3,1.43-.49,2.34-.67,3.69a41.59,41.59,0,0,0,.93,15.78c1.62,6.2,4.71,7.94,3.61,9.67-.67,1.05-2.15,1.07-9.54.83C1890.1,262.94,1889.55,262.82,1889,262.21Z" transform="translate(252.87)"/><path class="cls-8" d="M1921.81,222.15c2.08,4.12-.52,9.25-4.69,9.25h-30.3c-4.16,0-6.77-5.13-4.68-9.25l7.57-14.94,7.57-15a5.11,5.11,0,0,1,9.38,0l7.57,15Z" transform="translate(252.87)"/><path class="cls-8" d="M1922.27,201.7c2.08,4.11-.52,9.25-4.69,9.25h-30.26c-4.16,0-6.76-5.14-4.68-9.25l7.56-14.94,7.57-14.95a5.1,5.1,0,0,1,9.37,0l7.56,14.95Z" transform="translate(252.87)"/><path class="cls-8" d="M1922.27,183.33c2.08,4.12-.52,9.25-4.68,9.25h-30.24c-4.16,0-6.76-5.13-4.68-9.25l7.56-14.94,7.56-14.95a5.09,5.09,0,0,1,9.36,0l7.56,14.95Z" transform="translate(252.87)"/><path class="cls-8" d="M1732.5,384.84c-3.52-4.21,6.32-12.09,9.49-27.95,3.23-16.21-2.65-30.07,2.4-32.27,1.84-.8,3.28.7,8.93,0,4.44-.55,5.54-1.73,6.52-1,2.18,1.57-2.45,8.4-5.49,23-.4,1.9-.65,3.1-.89,4.88a55,55,0,0,0,1.23,20.87c2.13,8.19,6.23,10.49,4.77,12.78-.89,1.39-2.84,1.41-12.62,1.1C1733.9,385.8,1733.17,385.63,1732.5,384.84Z" transform="translate(252.87)"/><path class="cls-8" d="M1775.83,331.87c2.75,5.44-.69,12.23-6.2,12.23h-40.06c-5.51,0-9-6.79-6.2-12.23l10-19.76,10-19.76c2.76-5.44,9.64-5.44,12.4,0l10,19.76Z" transform="translate(252.87)"/><path class="cls-8" d="M1776.44,304.83c2.75,5.43-.69,12.23-6.2,12.23h-40c-5.5,0-8.94-6.8-6.19-12.23l10-19.77,10-19.76c2.76-5.43,9.64-5.43,12.39,0l10,19.76Z" transform="translate(252.87)"/><path class="cls-8" d="M1776.44,280.54c2.75,5.44-.69,12.23-6.19,12.23h-40c-5.5,0-8.94-6.79-6.19-12.23l10-19.76,10-19.76c2.75-5.44,9.62-5.44,12.37,0l10,19.76Z" transform="translate(252.87)"/><g class="cls-16"><path class="cls-7" d="M1150.87,590.61q.21-.71.36-1.47c1.17-5.84-1-10.84.87-11.63.66-.29,1.18.25,3.22,0,1.6-.2,2-.63,2.35-.37.79.56-.88,3-2,8.29-.14.68-.23,1.11-.32,1.75a19.68,19.68,0,0,0,.08,5.77" transform="translate(252.87)"/><path class="cls-7" d="M1163.43,580.12c1,2-.25,4.41-2.23,4.41h-14.44c-2,0-3.23-2.45-2.23-4.41l3.6-7.12,3.61-7.13a2.44,2.44,0,0,1,4.47,0l3.61,7.13Z" transform="translate(252.87)"/><path class="cls-7" d="M1163.65,570.37c1,2-.25,4.41-2.23,4.41H1147c-2,0-3.23-2.45-2.24-4.41l3.61-7.12,3.61-7.12a2.43,2.43,0,0,1,4.46,0l3.61,7.12Z" transform="translate(252.87)"/><path class="cls-7" d="M1163.65,561.62c1,2-.25,4.41-2.23,4.41H1147c-2,0-3.22-2.45-2.23-4.41l3.6-7.12,3.6-7.13a2.43,2.43,0,0,1,4.46,0l3.61,7.13Z" transform="translate(252.87)"/></g><g class="cls-16"><path class="cls-7" d="M1172.25,598.44c.19-2.92-.62-5.24.34-5.66.41-.18.74.16,2,0,1-.12,1.25-.39,1.47-.23.49.35-.55,1.88-1.24,5.16-.08.43-.14.7-.19,1.1" transform="translate(252.87)"/><path class="cls-7" d="M1179.65,594.41a1.84,1.84,0,0,1-1.4,2.74h-9a1.84,1.84,0,0,1-1.39-2.74l2.25-4.44,2.25-4.43a1.51,1.51,0,0,1,2.78,0l2.25,4.43Z" transform="translate(252.87)"/><path class="cls-7" d="M1179.78,588.34a1.84,1.84,0,0,1-1.39,2.74h-9a1.84,1.84,0,0,1-1.39-2.74l2.25-4.44,2.24-4.43a1.51,1.51,0,0,1,2.78,0l2.25,4.43Z" transform="translate(252.87)"/><path class="cls-7" d="M1179.78,582.89a1.84,1.84,0,0,1-1.39,2.74h-9a1.84,1.84,0,0,1-1.39-2.74l2.24-4.44,2.25-4.43a1.51,1.51,0,0,1,2.78,0l2.24,4.43Z" transform="translate(252.87)"/></g><path class="cls-9" d="M-58.29,1157.14c-12.78-15.25,22.91-43.84,34.39-101.34,11.74-58.77-9.6-109,8.72-117,6.65-2.9,11.89,2.55,32.36,0,16.13-2,20.1-6.28,23.65-3.73,7.91,5.69-8.89,30.46-19.92,83.4-1.43,6.86-2.34,11.24-3.2,17.68a199.1,199.1,0,0,0,4.45,75.67c7.74,29.73,22.6,38,17.29,46.36-3.21,5-10.29,5.11-45.74,4C-53.22,1160.63-55.87,1160-58.29,1157.14Z" transform="translate(252.87)"/><path class="cls-15" d="M70.21,970.17a21.58,21.58,0,0,1-18.69,32.36H-69.25a21.58,21.58,0,0,1-18.69-32.36l30.2-52.3,30.19-52.29a21.57,21.57,0,0,1,37.37,0L40,917.87Z" transform="translate(252.87)"/><path class="cls-15" d="M70.34,888.6A21.58,21.58,0,0,1,51.66,921H-69.11A21.58,21.58,0,0,1-87.8,888.6l30.19-52.29L-27.42,784A21.58,21.58,0,0,1,10,784l30.19,52.29Z" transform="translate(252.87)"/><path class="cls-15" d="M70.43,822.38a21.58,21.58,0,0,1-18.69,32.37H-69a21.58,21.58,0,0,1-18.69-32.37l30.19-52.3,30.19-52.29a21.58,21.58,0,0,1,37.38,0l30.19,52.29Z" transform="translate(252.87)"/><path class="cls-9" d="M2016.36,1115c-12.79-15.25,22.91-43.85,34.39-101.35,11.73-58.77-9.61-109,8.71-117,6.65-2.9,11.9,2.54,32.36,0,16.13-2,20.1-6.29,23.65-3.73,7.91,5.69-8.89,30.45-19.91,83.39-1.43,6.87-2.35,11.24-3.2,17.69a199.27,199.27,0,0,0,4.44,75.67c7.74,29.72,22.6,38,17.3,46.36-3.22,5-10.3,5.11-45.74,4C2021.42,1118.45,2018.78,1117.84,2016.36,1115Z" transform="translate(252.87)"/><path class="cls-9" d="M2070.36,964c5.36-11.08,33.83,4.23,60-13,9.22-6.08,21.3-18.26,19-28-1-4.27-3.77-9.57-3-10s4.65,6.67,7,6c3.32-1,1.2-16.93,2-17,.42,0,1.54,4.33,2,10,.72,8.87-.56,12,1,13,3.69,2.39,16.11-11.8,17-11s-9.1,12.43-21,28c-11.08,14.48-10.37,14.63-14,18-7.21,6.67-10.26,6.33-33,18-15.51,7.95-18.23,10.23-23,9C2075,984.54,2066.93,971,2070.36,964Z" transform="translate(252.87)"/><path class="cls-9" d="M2076.54,934c-3.28-7.34-20.67,2.8-36.66-8.61-7-5-13.68-13.35-11.61-18.55,3.13-7.87,25.12-5.49,25.09-6.9,0-1.1-11.18-1.13-16-1-2.89.07-5.54.26-8,2-2.29,1.61-2.81,3.43-3.53,3.26-2.26-.56.49-19.1-.47-19.26-.68-.12-1.82,8.92-4,9-1.72.06-2.89-5.5-8-19,0,0-2.69-7.12-3-7s5.1,26.17,6,31a2.51,2.51,0,0,1,0,1c-.53,2.23-4.5,2.54-8,4-5.3,2.2-8.29,6.5-8,7,.38.67,9.75-7,16-4,1.7.81,1.26,1.51,8.85,12.49,3,4.4,2.83,4,3.81,5.48,2.91,4.29,3.07,4.75,4.75,6.44,4.4,4.42,6.26,4.19,20.16,11.92,9.48,5.27,11.14,6.78,14.05,6C2073.71,947.65,2078.63,938.7,2076.54,934Z" transform="translate(252.87)"/><path class="cls-18" d="M2229.48,934.57c17.2,29.78-4.3,67-38.69,67H1940.72c-34.39,0-55.89-37.24-38.69-67l62.51-108.29L2027.06,718c17.2-29.79,60.19-29.79,77.39,0L2167,826.28Z" transform="translate(252.87)"/><path class="cls-18" d="M2211.85,793.32c14.16,24.53-3.54,55.19-31.87,55.19H1974.06c-28.33,0-46-30.66-31.87-55.19l51.48-89.17L2045.15,615c14.17-24.53,49.57-24.53,63.73,0l51.49,89.17Z" transform="translate(252.87)"/><path class="cls-18" d="M2212,680.4c14.16,24.52-3.54,55.19-31.87,55.19H1974.21c-28.33,0-46-30.67-31.87-55.19l51.48-89.17,51.48-89.17c14.17-24.53,49.57-24.53,63.73,0l51.48,89.17Z" transform="translate(252.87)"/><path class="cls-18" d="M2140.78,556.63a22.64,22.64,0,0,1-19.61,34H1994.46a22.64,22.64,0,0,1-19.61-34l31.68-54.87,31.68-54.87a22.64,22.64,0,0,1,39.21,0l31.68,54.87Z" transform="translate(252.87)"/><path class="cls-9" d="M-100.7,1623.71c-16.58-19.77,29.7-56.84,44.58-131.37,15.21-76.19-12.45-141.33,11.29-151.68,8.63-3.76,15.43,3.3,42,0,20.91-2.6,26.05-8.15,30.65-4.84C38,1343.2,16.26,1375.3,2,1443.93c-1.86,8.9-3,14.57-4.15,22.92A258,258,0,0,0,3.58,1565c10,38.53,29.29,49.33,22.42,60.1-4.17,6.53-13.34,6.62-59.29,5.14C-94.14,1628.23-97.57,1627.45-100.7,1623.71Z" transform="translate(252.87)"/><path class="cls-9" d="M-30.7,1428c7-14.36,43.86,5.49,77.78-16.85,12-7.87,27.61-23.66,24.63-36.3-1.31-5.53-4.88-12.4-3.89-13,1.14-.65,6,8.66,9.07,7.78,4.31-1.25,1.56-21.94,2.6-22,.54,0,2,5.62,2.59,13,.93,11.51-.72,15.55,1.3,16.86,4.78,3.1,20.89-15.3,22-14.26s-11.79,16.11-27.22,36.29c-14.35,18.78-13.44,19-18.15,23.34-9.34,8.65-13.29,8.21-42.78,23.33-20.1,10.31-23.62,13.26-29.81,11.67C-24.7,1454.65-35.14,1437.12-30.7,1428Z" transform="translate(252.87)"/><path class="cls-9" d="M-22.69,1389.15c-4.25-9.51-26.79,3.63-47.52-11.16-9-6.43-17.73-17.3-15.05-24,4.06-10.21,32.56-7.11,32.52-9,0-1.42-14.49-1.47-20.74-1.3-3.74.1-7.18.35-10.37,2.59-3,2.09-3.65,4.46-4.58,4.23-2.93-.72.64-24.76-.61-25-.87-.14-2.36,11.57-5.18,11.67-2.23.08-3.75-7.12-10.37-24.63,0,0-3.49-9.22-3.89-9.08-.59.22,6.61,33.94,7.78,40.19a3.07,3.07,0,0,1,0,1.3c-.68,2.89-5.83,3.3-10.37,5.18-6.87,2.86-10.75,8.43-10.38,9.08.51.87,12.65-9.08,20.75-5.19,2.2,1.06,1.64,2,11.48,16.2,4,5.71,3.66,5.24,4.93,7.11,3.77,5.55,4,6.15,6.16,8.34,5.71,5.73,8.12,5.44,26.14,15.45,12.28,6.83,14.43,8.79,18.21,7.73C-26.35,1406.83-20,1395.22-22.69,1389.15Z" transform="translate(252.87)"/><path class="cls-12" d="M179.47,1398.94c22.29,38.61-5.57,86.88-50.16,86.88H-194.86c-44.59,0-72.46-48.27-50.16-86.88l81-140.37,81-140.37c22.3-38.62,78-38.62,100.32,0l81.05,140.37Z" transform="translate(252.87)"/><path class="cls-12" d="M152.72,1206.76c18.36,31.8-4.59,71.55-41.31,71.55H-155.54c-36.72,0-59.67-39.75-41.31-71.55l66.74-115.59,66.74-115.59c18.36-31.8,64.25-31.8,82.61,0L86,1091.17Z" transform="translate(252.87)"/><path class="cls-12" d="M152.91,1060.37c18.36,31.8-4.59,71.55-41.31,71.55H-155.35c-36.71,0-59.66-39.75-41.3-71.55l66.73-115.59,66.74-115.59c18.36-31.8,64.26-31.8,82.62,0L86.17,944.78Z" transform="translate(252.87)"/><path class="cls-12" d="M60.59,899.93a29.35,29.35,0,0,1-25.42,44H-129.09a29.34,29.34,0,0,1-25.41-44l41.06-71.13,41.06-71.13a29.36,29.36,0,0,1,50.84,0L19.52,828.8Z" transform="translate(252.87)"/><path class="cls-17" d="M182.69,917q-44.66.9-89.08,5.95c-2.28-.39-4.56-.8-6.88-1.24l3.11-1.39c-.24-.44-.48-.58-.62-.25a28.8,28.8,0,0,1-.75-4.86,26.32,26.32,0,0,0-.12-3.53,2.8,2.8,0,0,1,.62,1.74,12.13,12.13,0,0,1,.09-3A7.34,7.34,0,0,0,89,907.3c.27-.19,1.3,3,1.57,7.71a3.45,3.45,0,0,1,.31-1.57l0,.17a29.71,29.71,0,0,0,0-5.91,9.47,9.47,0,0,1,1.38,4.8,22.9,22.9,0,0,1,.58-6.68,14.7,14.7,0,0,0,.22-7.06c.52,0,1.84,4.45,2.55,11.16a2.49,2.49,0,0,1,.47-.92,5.09,5.09,0,0,0,.67-3.9c.31.32.8,2.77,1,6,.27-.78.56-1.37.8-2.24.94-3.53.84-4.81.59-8.32-.06-.84.26-1.1.45-.56a20.61,20.61,0,0,1,.73,2.64c.45.3,1.07,1.83,1.2,3.55a24.34,24.34,0,0,1,.26-6.09,15,15,0,0,0,0-6.27c.56-.38,2.56,6.11,3,15.73a6.89,6.89,0,0,1,.69-3.17l0,.35c.35-5.9.74-10,.26-12,1.13,1.19,2.56,5.63,2.67,9.81,0-6.28.55-11,1.44-13.58s2-9.18.77-14.38c1.08-.09,3.61,9.14,4.77,22.83a4.8,4.8,0,0,1,1-1.86c.83-.8,2.11-3.75,1.55-7.89.63.66,1.51,5.67,1.79,12.33.58-1.57,1.22-2.75,1.74-4.51,2.14-7.17,2-9.76,1.67-16.94-.07-1.71.62-2.21,1-1.11,1.8,5.48,2.59,12.43,2.25,20.52a82,82,0,0,1-.93,9.78l.81-.11,0-.09c.38-1.12.83-1.88,1.19-3.08,1.34-4.49,1.26-6.12,1.07-10.63,0-1.08.39-1.4.61-.7a37.75,37.75,0,0,1,1.36,12.9l-.06,1.07,2.75-.27c0-.31,0-.61,0-.89a33.79,33.79,0,0,0,.06-4.66,3.76,3.76,0,0,1,.71,2.34,16.41,16.41,0,0,1,.3-3.93,9.7,9.7,0,0,0,.11-4.06c.37-.23,1.52,4,1.58,10.24a4.53,4.53,0,0,1,.51-2l0,.23c.35-3.82.68-6.43.41-7.78.7.8,1.54,3.69,1.53,6.4a29.63,29.63,0,0,1,1.19-8.75,19.44,19.44,0,0,0,.75-9.28c.69,0,2.15,6,2.65,14.84a3.09,3.09,0,0,1,.68-1.18c.55-.5,1.43-2.39,1.14-5.08.39.45.87,3.7.94,8,.4-1,.83-1.76,1.19-2.89,1.49-4.59,1.45-6.28,1.35-10.92,0-1.11.42-1.43.64-.71A38.74,38.74,0,0,1,150.1,902a57.23,57.23,0,0,1-.71,6.12h.53c.26-.68.54-1.16.79-1.9a16.31,16.31,0,0,0,.85-6.86c0-.69.27-.89.4-.44a24.39,24.39,0,0,1,.69,8.36l-.07.91c14.2.5,25.19,3.12,36.75,6.59C187.09,915.55,184.89,916.26,182.69,917ZM101,915.07l-.19-1.33c-.08.84-.19,1.58-.31,2.23l.36-.12A5.72,5.72,0,0,1,101,915.07Z" transform="translate(252.87)"/><path class="cls-17" d="M321.65,919.75l-91.14,1.73c-2.28-.61-4.55-1.24-6.85-1.91l3.28-1.07c-.19-.47-.42-.63-.59-.32a28.35,28.35,0,0,1-.28-4.9,25.08,25.08,0,0,0,.23-3.53,2.8,2.8,0,0,1,.45,1.79,12.85,12.85,0,0,1,.38-3,7.16,7.16,0,0,0,.24-3.07c.29-.17,1,3.09.82,7.82a3.22,3.22,0,0,1,.47-1.53V912a29.66,29.66,0,0,0,.6-5.88,9.56,9.56,0,0,1,.93,4.91,23.3,23.3,0,0,1,1.2-6.6,14.69,14.69,0,0,0,.88-7c.52,0,1.42,4.6,1.52,11.35a2.33,2.33,0,0,1,.56-.88,5.09,5.09,0,0,0,1-3.82c.29.35.56,2.83.48,6.1.33-.75.68-1.3,1-2.15,1.26-3.44,1.27-4.72,1.32-8.25,0-.84.36-1.07.5-.52a22.78,22.78,0,0,1,.5,2.7,6,6,0,0,1,.89,3.64,25.59,25.59,0,0,1,.77-6,14.8,14.8,0,0,0,.49-6.25c.58-.33,2,6.31,1.66,15.93a6.81,6.81,0,0,1,1-3.11c0,.1,0,.23,0,.35.83-5.86,1.52-9.86,1.21-12,1,1.27,2.1,5.81,1.89,10,.46-6.26,1.39-10.9,2.46-13.43s2.67-9,1.78-14.28c1.06,0,2.89,9.37,3.11,23.11a4.87,4.87,0,0,1,1.13-1.79c.89-.73,2.35-3.6,2.07-7.77.57.71,1.12,5.76,1,12.43.68-1.54,1.39-2.67,2-4.4,2.57-7,2.58-9.61,2.68-16.79,0-1.72.73-2.18,1-1.06,1.44,5.57,1.84,12.56,1,20.62a80.2,80.2,0,0,1-1.51,9.71l.82-.06,0-.09c.46-1.1.95-1.83,1.38-3,1.62-4.4,1.62-6,1.68-10.55,0-1.08.46-1.37.64-.67a37.76,37.76,0,0,1,.66,13c0,.37-.09.72-.13,1.07l2.79-.13c0-.31,0-.61,0-.89a32.1,32.1,0,0,0,.3-4.65,3.74,3.74,0,0,1,.6,2.37,15.76,15.76,0,0,1,.5-3.91,9.62,9.62,0,0,0,.31-4c.38-.22,1.33,4.08,1.08,10.3a4.49,4.49,0,0,1,.61-2,1.62,1.62,0,0,1,0,.23c.54-3.79,1-6.38.79-7.75.66.83,1.36,3.76,1.22,6.46a30.61,30.61,0,0,1,1.59-8.68,19.4,19.4,0,0,0,1.15-9.25c.68,0,1.87,6.07,2,15a3.15,3.15,0,0,1,.73-1.15c.58-.48,1.52-2.33,1.34-5,.37.46.73,3.73.63,8,.44-1,.9-1.73,1.31-2.84,1.66-4.54,1.66-6.22,1.73-10.87,0-1.11.47-1.41.66-.68a38.88,38.88,0,0,1,.67,13.34,50.81,50.81,0,0,1-.94,6.08l.54,0c.29-.67.59-1.14.86-1.87a16,16,0,0,0,1.09-6.83c0-.7.3-.89.42-.43a24.44,24.44,0,0,1,.42,8.38c0,.31-.07.61-.11.9,14.33,1,25.4,3.65,37.19,7.07C326.14,918.34,323.9,919.06,321.65,919.75Zm-82.93-5.41c0-.44-.05-.89-.08-1.34-.15.83-.32,1.56-.5,2.2l.37-.1A6.92,6.92,0,0,1,238.72,914.34Z" transform="translate(252.87)"/><path class="cls-17" d="M768.48,928.42l-81.9,1.51c-2-.61-4.09-1.26-6.16-1.93l3-1.06c-.18-.47-.39-.63-.54-.32a31.72,31.72,0,0,1-.25-4.91,28.31,28.31,0,0,0,.2-3.52,3.09,3.09,0,0,1,.41,1.79,13.45,13.45,0,0,1,.33-3,7.89,7.89,0,0,0,.21-3.07c.26-.16.91,3.1.75,7.82a3.74,3.74,0,0,1,.42-1.53v.18a33,33,0,0,0,.53-5.88,10.46,10.46,0,0,1,.84,4.91,24.91,24.91,0,0,1,1.08-6.59,16.36,16.36,0,0,0,.77-7c.47,0,1.28,4.61,1.39,11.35a2.3,2.3,0,0,1,.5-.87,5.45,5.45,0,0,0,.9-3.82c.26.35.5,2.83.44,6.11.3-.76.61-1.31.89-2.16a21.38,21.38,0,0,0,1.17-8.24c0-.84.32-1.07.45-.52a24.9,24.9,0,0,1,.45,2.7,6.49,6.49,0,0,1,.81,3.64,27.88,27.88,0,0,1,.68-6,16.26,16.26,0,0,0,.43-6.24c.53-.33,1.85,6.31,1.52,15.93a7.36,7.36,0,0,1,.85-3.11c0,.1,0,.23,0,.35.74-5.86,1.36-9.86,1.07-12,.93,1.28,1.9,5.81,1.72,10,.4-6.26,1.23-10.9,2.19-13.42a33,33,0,0,0,1.58-14.28c1,0,2.61,9.38,2.83,23.12a5,5,0,0,1,1-1.79c.79-.73,2.11-3.59,1.84-7.76.52.7,1,5.76.9,12.42.61-1.53,1.24-2.66,1.81-4.39,2.3-7,2.3-9.6,2.38-16.79,0-1.71.65-2.17.91-1a66.2,66.2,0,0,1,1,20.62,88.49,88.49,0,0,1-1.34,9.71l.73-.06,0-.09c.41-1.09.85-1.83,1.24-3,1.44-4.4,1.45-6,1.5-10.55,0-1.08.41-1.37.57-.67a41.81,41.81,0,0,1,.6,13c0,.38-.07.72-.11,1.07.83,0,1.66-.09,2.51-.12,0-.31,0-.61,0-.89a36.44,36.44,0,0,0,.26-4.65,4.06,4.06,0,0,1,.54,2.37,17.47,17.47,0,0,1,.44-3.91,10.57,10.57,0,0,0,.28-4c.34-.21,1.19,4.08,1,10.31a4.72,4.72,0,0,1,.55-2,1.77,1.77,0,0,0,0,.22c.47-3.79.87-6.37.69-7.74.6.83,1.23,3.76,1.11,6.46a32.92,32.92,0,0,1,1.42-8.68,21.4,21.4,0,0,0,1-9.24c.61,0,1.69,6.07,1.83,15a3.22,3.22,0,0,1,.65-1.16c.52-.47,1.37-2.32,1.2-5,.33.46.66,3.73.57,8,.4-1,.81-1.73,1.17-2.84,1.49-4.53,1.49-6.22,1.54-10.86,0-1.11.43-1.41.6-.68a43.24,43.24,0,0,1,.62,13.34,60.83,60.83,0,0,1-.83,6.08l.48,0c.26-.67.53-1.14.77-1.87a17.78,17.78,0,0,0,1-6.83c0-.69.26-.88.37-.43a27.11,27.11,0,0,1,.39,8.39q0,.46-.09.9c12.87,1,22.83,3.71,33.43,7.16C772.52,927,770.5,927.73,768.48,928.42ZM694,922.81c0-.44-.06-.89-.08-1.34-.13.82-.28,1.55-.44,2.19l.33-.09A5.27,5.27,0,0,1,694,922.81Z" transform="translate(252.87)"/><path class="cls-17" d="M1213.8,968.68l-174.37-22.61c-4.24-1.2-8.48-2.44-12.77-3.71l6.45-.18c-.29-.52-.7-.73-1.08-.47a14.72,14.72,0,0,1,.29-4.92c.56-1.74,1.12-2.91,1-3.42a1.94,1.94,0,0,1,.56,1.9,7.11,7.11,0,0,1,1.22-2.83,4.1,4.1,0,0,0,1-3c.57-.08,1.41,3.33.27,7.94a2.64,2.64,0,0,1,1.14-1.38s0,.11,0,.17c1.25-2.73,2.22-4.58,2.1-5.65.86.76,1.5,3.1,1,5.09a14.3,14.3,0,0,1,3.39-6.18c1.22-1.09,3.23-4,2.83-6.69,1,.13,2,4.92,1,11.6a3.07,3.07,0,0,1,1.2-.71,3.84,3.84,0,0,0,2.57-3.5c.48.42.59,2.94-.09,6.15.76-.66,1.52-1.11,2.25-1.86,3-3.06,3.19-4.33,3.87-7.79.16-.83.86-1,1-.38a12.06,12.06,0,0,1,.51,2.8c.75.44,1.43,2.13,1.11,3.82a14.46,14.46,0,0,1,2.47-5.76c1-1.16,2.48-4,2-6,1.16-.18,2.87,6.76.54,16.15a5.44,5.44,0,0,1,2.34-2.81c0,.1,0,.23,0,.35,2.55-5.56,4.53-9.33,4.28-11.49,1.75,1.53,3.07,6.29,2,10.36,1.9-6.06,4.44-10.39,6.91-12.6s6.58-8.18,5.75-13.62c2,.27,4,10,2.13,23.64a6.21,6.21,0,0,1,2.45-1.47,7.82,7.82,0,0,0,5.23-7.11c1,.85,1.2,6-.19,12.52,1.55-1.34,3.09-2.26,4.59-3.8,6.06-6.23,6.5-8.8,7.88-15.86.33-1.68,1.75-2,2.12-.77,1.83,5.89,1.45,12.89-1.43,20.62a47.46,47.46,0,0,1-4.48,9.19l1.57.15.08-.08c1.06-1,2.11-1.55,3.13-2.59,3.81-3.92,4.09-5.54,5-10,.21-1.06,1.1-1.23,1.33-.49,1.16,3.7.92,8.1-.89,13-.13.36-.27.69-.41,1,1.76.19,3.54.39,5.35.61.06-.3.14-.59.22-.86.75-2.3,1.48-3.85,1.34-4.51a2.53,2.53,0,0,1,.75,2.5,9.29,9.29,0,0,1,1.6-3.73c.62-.75,1.6-2.58,1.26-3.91.76-.11,1.87,4.38.36,10.46a3.49,3.49,0,0,1,1.51-1.82c0,.06,0,.14,0,.22,1.65-3.59,2.93-6,2.77-7.43,1.13,1,2,4.07,1.28,6.7,1.23-3.92,2.87-6.72,4.47-8.15s4.25-5.29,3.72-8.81c1.3.18,2.57,6.49,1.37,15.29a4.18,4.18,0,0,1,1.59-1,5.06,5.06,0,0,0,3.38-4.6c.64.55.78,3.87-.12,8.1,1-.86,2-1.46,3-2.46,3.92-4,4.2-5.69,5.09-10.26.22-1.08,1.14-1.26,1.38-.5,1.18,3.81.94,8.34-.92,13.35a31.3,31.3,0,0,1-2.79,5.76l1,.17c.66-.59,1.32-1,2-1.63,2.46-2.53,2.64-3.57,3.2-6.44.13-.69.71-.8.86-.32a12.93,12.93,0,0,1-.58,8.39c-.11.3-.23.58-.34.86,27.2,4.76,47.91,10.38,69.86,16.9C1222.61,968.49,1218.21,968.6,1213.8,968.68Zm-157.5-27.47c0-.44,0-.88.07-1.34a16.39,16.39,0,0,1-1.32,2h.72A6.12,6.12,0,0,1,1056.3,941.21Z" transform="translate(252.87)"/><path class="cls-9" d="M1293.57,1051.64c-7.15-8.52,12.79-24.49,19.21-56.61,6.55-32.83-5.37-60.9,4.86-65.36,3.72-1.62,6.65,1.42,18.08,0,9-1.12,11.23-3.51,13.21-2.08,4.42,3.18-5,17-11.12,46.58-.8,3.84-1.31,6.28-1.79,9.88a111.21,111.21,0,0,0,2.48,42.27c4.33,16.6,12.63,21.25,9.66,25.9-1.79,2.81-5.75,2.85-25.55,2.21C1296.4,1053.59,1294.92,1053.25,1293.57,1051.64Z" transform="translate(252.87)"/><path class="cls-15" d="M1402.64,949.66a20.55,20.55,0,0,1-17.8,30.83h-115a20.55,20.55,0,0,1-17.8-30.83l28.76-49.81L1309.52,850a20.56,20.56,0,0,1,35.6,0l28.76,49.81Z" transform="translate(252.87)"/><path class="cls-15" d="M1402.77,872a20.55,20.55,0,0,1-17.8,30.83h-115a20.55,20.55,0,0,1-17.8-30.83l28.76-49.81,28.75-49.81a20.55,20.55,0,0,1,35.6,0L1374,822.17Z" transform="translate(252.87)"/><path class="cls-15" d="M1402.85,808.9a20.55,20.55,0,0,1-17.8,30.83H1270a20.55,20.55,0,0,1-17.8-30.83L1281,759.09l28.76-49.81a20.55,20.55,0,0,1,35.6,0l28.75,49.81Z" transform="translate(252.87)"/><path class="cls-17" d="M2099,1125.71q-66.33-2.43-132.38-9.21c-3.22-1-6.42-2-9.65-3.06l4.88-.5c-.22-.5-.53-.7-.82-.42a20,20,0,0,1,.26-4.91,18.19,18.19,0,0,0,.8-3.46,2.22,2.22,0,0,1,.41,1.86,8.83,8.83,0,0,1,.94-2.88,5.15,5.15,0,0,0,.74-3c.43-.11,1,3.24.15,7.89a2.77,2.77,0,0,1,.87-1.43,1,1,0,0,1,0,.17c1-2.78,1.71-4.68,1.62-5.73.64.71,1.11,3,.7,5a17.12,17.12,0,0,1,2.59-6.34,10.82,10.82,0,0,0,2.15-6.82c.74.08,1.44,4.8.74,11.51a2.5,2.5,0,0,1,.91-.78,4.15,4.15,0,0,0,1.93-3.62c.36.39.44,2.9-.08,6.13a25.83,25.83,0,0,0,1.7-2c2.24-3.22,2.4-4.49,2.91-8,.12-.83.65-1,.78-.44a14.94,14.94,0,0,1,.38,2.76c.57.4,1.08,2,.84,3.75a18.13,18.13,0,0,1,1.85-5.88c.72-1.21,1.84-4.12,1.45-6.13.87-.24,2.17,6.58.46,16.07a5.72,5.72,0,0,1,1.74-2.94c0,.1,0,.22,0,.35,1.89-5.7,3.36-9.57,3.16-11.71,1.31,1.42,2.32,6.08,1.54,10.2,1.39-6.15,3.25-10.62,5.08-13s4.82-8.58,4.16-14c1.49.14,3,9.73,1.82,23.41a5.29,5.29,0,0,1,1.82-1.61c1.36-.6,3.77-3.26,3.81-7.45.75.78,1,5.88,0,12.49,1.14-1.43,2.29-2.46,3.38-4.09,4.43-6.62,4.7-9.22,5.6-16.35.22-1.7,1.27-2.07,1.56-.92,1.47,5.73,1.33,12.73-.67,20.64a57.86,57.86,0,0,1-3.19,9.47l1.19,0,0-.08c.78-1,1.56-1.7,2.31-2.81,2.78-4.18,3-5.81,3.5-10.29.13-1.07.8-1.3,1-.58a26.27,26.27,0,0,1-.38,13c-.1.36-.19.7-.28,1l4,.21c0-.3.08-.6.14-.87.5-2.34,1-3.94.9-4.59a2.91,2.91,0,0,1,.62,2.43,11.7,11.7,0,0,1,1.11-3.84,6.86,6.86,0,0,0,.84-4c.56-.17,1.51,4.22.54,10.39a3.62,3.62,0,0,1,1.09-1.93c0,.07,0,.15,0,.23,1.14-3.71,2-6.24,1.87-7.62.87.9,1.6,3.9,1.15,6.58.81-4,2-6.92,3.11-8.47s3-5.6,2.51-9.07c1,.07,2.11,6.26,1.5,15.12a3.32,3.32,0,0,1,1.16-1.07,5.45,5.45,0,0,0,2.37-4.86c.5.49.71,3.79.18,8.07.73-.94,1.45-1.62,2.14-2.68,2.8-4.34,3-6,3.45-10.64.12-1.1.8-1.35,1-.61a27.18,27.18,0,0,1-.2,13.36,39.31,39.31,0,0,1-1.88,6l.77.08c.48-.63,1-1.07,1.41-1.78,1.75-2.73,1.85-3.78,2.16-6.69.07-.69.5-.85.63-.38a16.94,16.94,0,0,1-.11,8.39c-.08.31-.15.6-.23.89,20.62,2.42,36.45,6,53.38,10.2C2105.65,1124.61,2102.35,1125.18,2099,1125.71Zm-119.62-15c0-.44,0-.89,0-1.34a18.91,18.91,0,0,1-1,2.1l.55,0A5.5,5.5,0,0,1,1979.42,1110.75Z" transform="translate(252.87)"/><path class="cls-9" d="M2181.51,1507c-20.21-32.58,36.23-93.69,54.38-216.56,18.55-125.59-15.18-233,13.78-250,10.51-6.2,18.81,5.43,51.17,0,25.5-4.29,31.78-13.43,37.39-8,12.51,12.16-14.05,65.08-31.49,178.21-2.26,14.68-3.7,24-5.06,37.79-3.27,33.21-6.16,93.23,7,161.71,12.23,63.51,35.73,81.31,27.34,99.07-5.08,10.77-16.27,10.92-72.32,8.48C2189.52,1514.5,2185.34,1513.21,2181.51,1507Z" transform="translate(252.87)"/><path class="cls-12" d="M2490.25,1116.92c22.39,52.42-5.6,117.94-50.39,117.94h-325.6c-44.78,0-72.77-65.52-50.38-117.94l81.4-190.55,81.4-190.55c22.39-52.41,78.37-52.41,100.77,0l81.4,190.55Z" transform="translate(252.87)"/><path class="cls-12" d="M2512.81,857.06c22.39,52.42-5.6,117.94-50.38,117.94h-325.6c-44.79,0-72.78-65.52-50.38-117.94l81.4-190.55L2249.25,476c22.39-52.42,78.37-52.42,100.76,0l81.4,190.55Z" transform="translate(252.87)"/><path class="cls-12" d="M2513.05,648.06c22.39,52.42-5.6,117.94-50.39,117.94H2137.07c-44.79,0-72.78-65.52-50.39-117.94l81.4-190.55L2249.48,267c22.39-52.42,78.38-52.42,100.77,0l81.4,190.55Z" transform="translate(252.87)"/><path class="cls-17" d="M2371.46,1534a1106.72,1106.72,0,0,0-128.88-17.72,1078.49,1078.49,0,0,0-129.89-2c-6.53-1.6-13.1-3.25-19.79-5l9.29-3.55c-.61-1.39-1.29-1.84-1.75-.89-.19-1.11-1.55-9.28-1.36-14.68s.6-9.16.26-10.6c.64.41,1.46,2.75,1.53,5.34a37.63,37.63,0,0,1,.79-8.94c.5-1.91,1.12-6.36.38-9.23.84-.52,3.3,9.18,3.21,23.36a10.28,10.28,0,0,1,1.22-4.63c0,.15,0,.34,0,.52.91-8.67,1.75-14.6,1.2-17.7,1.55,1.83,3.31,8.46,3.18,14.62.4-9.23,1.56-16.09,3.06-19.84s3.64-13.34,2.16-21.08c1.59,0,4.58,13.72,5.24,33.94a7.14,7.14,0,0,1,1.59-2.66c1.27-1.11,3.35-5.37,2.85-11.51.86,1,1.76,8.46,1.66,18.28,1-2.28,2-4,2.86-6.51,3.64-10.33,3.66-14.17,3.74-24.74,0-2.53,1.07-3.21,1.51-1.57a62.69,62.69,0,0,1,1.52,8.1c1.29,1,2.76,5.73,2.71,10.91.24-8,1.13-14.32,2.32-18.15s2.87-12.88,1.54-18.75c1.83-1,6.15,18.91,4.76,47.77.84-6.2,2.27-8.22,2.9-9.28,0,.3,0,.68,0,1.06,2.63-17.55,4.95-29.52,4.08-35.87,3.1,3.89,6.12,17.53,5.25,30,1.7-18.75,4.83-32.65,8.36-40.15s9.16-26.74,6.86-42.65c1.69,0,3.78,7.14,5.28,19.38s2.42,29.63,1.95,50.23a14.51,14.51,0,0,1,3.64-5.24c2.77-2.1,7.64-10.45,7.37-23,1.69,2.2,2.61,17.43,1.16,37.37,2.26-4.49,4.58-7.77,6.78-12.84,4.47-10.31,6.91-17.4,8.39-24.58s2.05-14.51,2.89-25.25c.41-5.13,2.75-6.36,3.44-2.95,3.46,17,3.12,38-1,61.94a264.37,264.37,0,0,1-6.37,28.76l2.41,0,.11-.24c1.56-3.19,3.14-5.29,4.66-8.72,5.69-12.86,6.11-17.76,7.3-31.25.28-3.22,1.7-4,2.09-1.85,2,10.66,1.64,23.88-1,38.9-.21,1.09-.41,2.12-.61,3.17,2.7.06,5.42.18,8.2.3.09-.92.2-1.8.34-2.64,1.13-7,2.28-11.87,2.06-13.81.78.64,1.48,3.83,1.16,7.23a48.51,48.51,0,0,1,2.5-11.57c1-2.41,2.53-8.13,2-12,1.21-.55,2.87,12.52.41,31.05.88-4,1.91-5.2,2.37-5.85l0,.68c2.64-11.2,4.74-18.77,4.53-22.91,1.75,2.68,3,11.64,1.76,19.67,2.07-12,4.77-20.78,7.38-25.44s7.11-16.84,6.45-27.2c2.13.2,3.76,18.68,1.18,45.21a9.51,9.51,0,0,1,2.56-3.19c1.87-1.2,5.35-6.39,5.75-14.49,1,1.5.87,11.37-1,24.17,1.65-2.8,3.28-4.81,4.9-8,6.63-12.9,7.33-17.91,9.3-31.71.47-3.29,2-4,2.28-1.79,1.46,11.12.41,24.66-3.18,39.94a168.42,168.42,0,0,1-5.08,17.77l1.56.27c1.09-1.89,2.16-3.16,3.24-5.24,4.17-8,4.62-11.19,5.92-19.85.31-2.06,1.24-2.51,1.4-1.1.83,7,.13,15.48-2.17,25.08-.23.91-.45,1.78-.66,2.64,2.57.54,5.11,1.1,7.6,1.67s5,1.15,7.37,1.8c4.84,1.28,9.52,2.62,14.09,4s9,3,13.33,4.53q3.24,1.17,6.42,2.38c2.12.84,4.21,1.7,6.28,2.56,4.14,1.74,8.2,3.5,12.21,5.34s7.93,3.82,11.83,5.79l5.83,3,5.77,3.15q5.76,3.18,11.51,6.47C2384.92,1532.74,2378.17,1533.4,2371.46,1534ZM2136,1492.57c-.1-1.31-.18-2.66-.25-4-.44,2.48-.92,4.67-1.42,6.59l1.07-.29A22.4,22.4,0,0,1,2136,1492.57Z" transform="translate(252.87)"/><path class="cls-17" d="M1387.79,1080.55a342.3,342.3,0,0,0-68.63-17.63,310.9,310.9,0,0,0-70.37-2.11l-10.74-1,5-1.53c-.34-.44-.71-.56-1-.23a18.24,18.24,0,0,1-.8-4.85,16.79,16.79,0,0,0,.1-3.56,2.11,2.11,0,0,1,.85,1.73,8.22,8.22,0,0,1,.39-3,4.65,4.65,0,0,0,.17-3.09c.46-.21,1.84,2.94,1.84,7.68a2.76,2.76,0,0,1,.64-1.59l0,.17c.47-2.93.91-5,.6-6,.85.54,1.83,2.72,1.77,4.78a15.34,15.34,0,0,1,1.61-6.7c.8-1.3,2-4.55,1.12-7.1.87,0,2.54,4.46,3,11.2a2.81,2.81,0,0,1,.86-.93,4.07,4.07,0,0,0,1.53-3.92c.47.32,1,2.78.94,6.06.52-.79,1.06-1.37,1.55-2.23,2-3.49,2-4.77,2-8.3,0-.84.58-1.08.82-.54a12.93,12.93,0,0,1,.85,2.68c.71.31,1.51,1.87,1.49,3.6a16.4,16.4,0,0,1,1.25-6.09c.65-1.3,1.56-4.33.83-6.27.49-.18,1.35,1.37,2,4.18a41.5,41.5,0,0,1,.65,11.69,5.44,5.44,0,0,1,1.58-3.1l0,.35c1.43-5.85,2.7-9.85,2.23-12,1.7,1.29,3.35,5.83,2.87,10,.93-6.25,2.66-10.93,4.6-13.38s5.08-8.82,3.83-14.15c1.9.06,4.49,9.56,3.86,23.28a5.61,5.61,0,0,1,2-1.71,8.07,8.07,0,0,0,4.1-7.5c.92.77,1.38,5.87.52,12.49,1.25-1.45,2.53-2.49,3.75-4.14a30.76,30.76,0,0,0,4.68-8,41.19,41.19,0,0,0,1.68-8.33c.25-1.7,1.54-2,1.9-.87,1.84,5.79,1.55,12.79-.78,20.65a57.66,57.66,0,0,1-3.59,9.39l1.31.07.06-.08c.86-1,1.73-1.66,2.57-2.75,3.16-4.11,3.42-5.73,4.13-10.19.17-1.06,1-1.28,1.15-.55,1,3.68.77,8.07-.75,13-.12.35-.23.69-.34,1l4.44.47c.06-.3.12-.59.2-.86.66-2.31,1.31-3.87,1.2-4.53a2.75,2.75,0,0,1,.59,2.47,10.5,10.5,0,0,1,1.42-3.76,6.12,6.12,0,0,0,1.17-3.92c.66-.12,1.49,4.32,0,10.41a3.59,3.59,0,0,1,1.32-1.85l0,.23c1.5-3.59,2.69-6,2.6-7.41.94,1,1.54,4.07.83,6.69,1.2-3.91,2.73-6.69,4.18-8.11s4-5.24,3.7-8.75c1.16.18,1.91,6.49.31,15.24a3.71,3.71,0,0,1,1.41-.89,5.25,5.25,0,0,0,3.23-4.48c.51.57.37,3.88-.72,8.06.92-.83,1.81-1.4,2.72-2.35,3.69-3.89,4.12-5.52,5.3-10,.28-1.08,1.11-1.19,1.24-.42.7,3.87,0,8.35-2.06,13.22a36.93,36.93,0,0,1-2.89,5.57l.83.22c.61-.54,1.19-.89,1.79-1.5,2.32-2.38,2.59-3.41,3.37-6.23.18-.67.69-.74.77-.26a15.16,15.16,0,0,1-1.4,8.28c-.13.3-.26.57-.39.84,5.54,1.47,10.65,3.3,15.52,5,4.82,1.94,9.4,3.76,13.74,5.92a219,219,0,0,1,24.55,13.88C1394.87,1081.86,1391.32,1081.22,1387.79,1080.55ZM1261.38,1053c-.05-.43-.1-.88-.14-1.33a19.06,19.06,0,0,1-.76,2.22l.58-.12A5.92,5.92,0,0,1,1261.38,1053Z" transform="translate(252.87)"/><g class="cls-4"><path class="cls-5" d="M370.45,150.43c-1.08-.72-3.87-1.45-7.83-2.22l-3.18-.59-3.58-.52-8.09-1.1c-2.87-.37-5.89-.83-9-1.19s-6.32-.73-9.53-1.15-6.43-.89-9.6-1.32-6.31-.86-9.31-1.37l-15.24-2.07c-4.8-.67-9.26-1.43-13.29-2.21l11.71.66c-2.93-2.4-5.32-4.22-5.92-4.35a10.71,10.71,0,0,0-4.69.15,41.76,41.76,0,0,0-4.34,1.47c-2.8,1-5.44,1.82-8.15.19-4.65-2.83-4.94-14.22,2.89-16.77,3.18-.24-.89,3.35.53,4.07,6.41-4,6.58-10.11,3.39-14.84a16,16,0,0,0-6.9-5.63,14.57,14.57,0,0,0-9.48-.89c-5.52,1.37-13,7.1-15.31,13.62-1.46,4,.91,10.93-.7,14.48-2.59,5.81-6.18,5.54-10.2,3.24s-8.48-6.56-12.6-8.43c-2.27.26-3.9,2.2-5.46,4.32-2-3.55,3.92-4.19,4.9-7.73,1.56-5.52-6.07-9.6-13.23-12.15-4.46-1.65-10.25-1.76-15.6-1.72s-10.26.26-13-.32c-6.06-1.43-9.85-5-10.17-9.53-.9-12.15,14.27-10.53,7.81-.09a7.08,7.08,0,0,0,5.19-.65,10.77,10.77,0,0,0,4-3.77A17.31,17.31,0,0,0,189.1,80.5c-.79-5.29-4.89-9-10.16-11A28.8,28.8,0,0,0,162,68.77a21,21,0,0,0-8.31,4.84A32.55,32.55,0,0,0,147.1,82c-3.56,6.46-5.13,14.27-3.33,21.48.87,3.46,4.09,8.74,6.6,13.89s4.32,10.18,2.56,13.11c-2,3.38-6.64,1.44-9.58-.94-9.28-7.54-9.5-20.39-16.81-29.23a28.19,28.19,0,0,0-6.9-5.84,32.9,32.9,0,0,0-8.9-3.65c-6.33-1.55-13.17-1.25-18.6,2.33S82.32,104,80.29,111.75s-1.64,16,2.33,20.88c2.77,3.38,8.33,6.21,13.65,6.79s10.44-1,12.55-6.19c-3.74,1.64-6.38,1.38-8,0a6.82,6.82,0,0,1-2.08-6.13,8.44,8.44,0,0,1,3.66-6.16c2.14-1.37,5.21-1.62,9.07.15,5.86,2.72,6.23,12.09,4.5,17.85-.55,1.85-2.69,3.68-6.06,5.46-1.69.88-3.68,1.8-5.93,2.74s-4.77,1.86-7.51,2.78c-3.85.72-7.71,1.37-11.53,2.21-5.23,5.71-12.26,14.11-13.18,14.83l14.47-4a801.55,801.55,0,0,1,223.43-13q34,2.88,67.72,8.59A21.46,21.46,0,0,0,370.45,150.43Z" transform="translate(252.87)"/></g></g></g></g></svg>