<svg xmlns="http://www.w3.org/2000/svg" viewBox="0 0 562.53 1037.39"><defs><style>.cls-1{fill:#7f579f;}.cls-2{fill:#fefefe;}.cls-3{fill:#f9f7f7;}.cls-4,.cls-6{fill:none;}.cls-5{fill:#f66386;}.cls-6{stroke:#f66386;stroke-linecap:round;stroke-miterlimit:10;stroke-width:3px;}</style></defs><g id="Camada_2" data-name="Camada 2"><g id="Camada_1-2" data-name="Camada 1"><path class="cls-1" d="M125.71,386.94q-20.16,27-26.86,39.68-19,36.53-19.74,72.31a50.07,50.07,0,0,0,.18,6.36,39.08,39.08,0,0,1-.23,8.61,10,10,0,0,1-2.53,5.36q-6.82,6.66-22.21,3.49-18.82-3.54-26.85-15.82a18.89,18.89,0,0,1-2.17-5.31,17.28,17.28,0,0,1-.22-6.52q.51-3.62.85-6.21a37,37,0,0,1,2-7.11c1.13-3,1.87-5,2.25-6s1.21-2.8,2.5-5.51Q50,429.73,75,399.81a144.69,144.69,0,0,1,35.7-30.24Q130,357.89,145.25,353a64.39,64.39,0,0,0-13.69.55,245,245,0,0,0-31.4,6.56Q81.36,365.66,70,371.48a64.65,64.65,0,0,0-6.34,3.88c-2.79,1.87-4.57,3.11-5.36,3.7a47.72,47.72,0,0,1-5.68,3.75q-7,4-17.43,3.94-10.76,0-23.65-6.83T.15,363.06Q1,356.85,19,352.46q6-1.8,19.57-5a295.4,295.4,0,0,1,43.54-8.16q25.83-2.16,46,1.13,23.61,4,32.22,10.44a1.91,1.91,0,0,1,1,1.83l-.33.06a82.22,82.22,0,0,1-9.86,9.25q-6.85,5.65-9.14,7.77Q129.73,381.48,125.71,386.94Z"/></g><g id="Camada_2-2" data-name="Camada 2"><path class="cls-2" d="M158.48,708.34c-30.25,87.38-35.6,105-34.3,132.91.7,15.1,2.43,45,20.68,76.69,27.57,47.93,73.1,65.64,85.94,70.47,57.4,21.6,107.92,4.72,127.19-1.72,24.07-8,62.26-20.8,85.94-56.72,25-38,20.67-80.14,17.19-113.44-2.23-21.34-11.41-48.68-29.68-102.48-18.86-55.54-28.43-83.47-35.73-91.46-45.78-50.15-155.2-52.76-202.93-2.86C188.14,624.58,186.5,627.4,158.48,708.34Z"/><path class="cls-3" d="M449.62,885.4c8.87-9.25,41.45-1.17,50.43,18.77,3.45,7.68,2.57,15.26,1.86,21.36-.54,4.67-2.37,18.71-13.38,30.4-1.27,1.35-21.91,22.71-40.13,14.59-11.11-4.95-17.34-19.08-16.64-30.47.87-14.2,12.09-17.47,15.4-37.37C449,891.9,446.32,888.83,449.62,885.4Z"/><path class="cls-4" d="M174,456.08c-10.69,18.17-10.19,36.52-9,45.8,1.2,9.51,2.72,21.56,12.62,31.28,1.42,1.39,15.29,14.63,29.73,11.07,16.63-4.11,22.17-27.58,25.84-43.12,3-12.48,11.07-46.88-7.67-62.71-.76-.64-10.61-8.7-23.2-7.09C187.41,433.22,179.12,447.32,174,456.08Z"/><path class="cls-3" d="M132,884.29c-10.87-6.77-40.46,9.1-44.23,30.64-1.46,8.3,1.27,15.42,3.46,21.16,1.68,4.4,6.92,17.55,20.47,26.16,1.56,1,26.84,16.6,42.49,4.24,9.55-7.54,12.1-22.77,8.61-33.64-4.35-13.55-16-14-24.15-32.42C134.22,890.43,136,886.81,132,884.29Z"/><path class="cls-3" d="M186,848c-8.48,7.29-6.46,18.21-4.66,54.91,2.74,56-.35,65.73,7.27,92.17,6.16,21.4,11.56,40.13,23.19,42.15,15.77,2.75,33.79-26.85,41.26-43.36,4.15-9.17,6.73-17.91,11-47.43,11.65-81.62,3-91.15-.72-94.38-6.09-5.31-15.45-6.25-34.15-8.14C208.78,841.86,194.72,840.44,186,848Z"/><path class="cls-3" d="M400.1,759.69c-.44-11.17,8.93-17.13,37-40.81,42.83-36.11,47.88-45,72.44-57.46,19.86-10.06,37.25-18.87,46.65-11.73,12.75,9.68,3.36,43-3.64,59.75-3.89,9.28-8.53,17.12-27.27,40.31-51.82,64.13-64.7,64.28-69.6,63.77-8-.84-15.09-7-29.21-19.47C411.15,780.56,400.54,771.23,400.1,759.69Z"/><path class="cls-2" d="M486.32,480.93c34.79,25.2,41.12,50.31,42.68,60.94,1.66,11.33.58,24.45-3.4,25.48-6.89,1.79-22.69-19.73-22.69-19.73h0c1.85,4,4.8,9.92,8.86,16.93,9.44,16.29,19.37,28.64,18.24,29.61-.92.79-6.52-8.12-16.5-9.56-8-1.16-16.42,2.82-16.5,6-.07,2.85,6.75,3.18,14.49,10.58,3.34,3.19,6.21,5.8,7,9.26,3.83,15.62-27.17,35-33.4,38.84a122.88,122.88,0,0,1-22.23,10.92"/><path class="cls-3" d="M114.88,725.14c-1.06,2.1,3.74,8.08,10.06,10.07,7.09,2.23,13.14-1.46,13.95,0,1.26,2.27-14.72,8.72-15.49,17-1.36,14.57,44.37,30.46,60.31,36,51.33,17.83,62.91,11,78.21,26.07,25.21,24.8,19.24,68.63,24.44,68.44,4.82-.18-1.93-37.4,19.55-61.92a41.6,41.6,0,0,1,5.6-5.38c20.15-15.85,42.92-18.24,51.43-19.06,50.92-4.88,106.92-35.41,105.15-44.91-.7-3.79-10.83-5.79-10.32-7.5s8.89,1.58,12.11-1.85c5.24-5.59-7.36-24.37-5.53-25.53,1.6-1,11,13.12,12.26,12.41,1.72-1-7.27-34.49-30.57-51.56-16.67-12.2-32.29-9.26-83.1-6.52-104.79,5.66-157.18,8.49-159.67,8.15-13.19-1.82-33-6.78-52.14,3.26-20.36,10.66-31.3,33.2-29.28,35s17.38-15.54,21.69-12.39c3,2.23.61,14.79-7,19.37C127.94,729.57,116.35,722.2,114.88,725.14Z"/><path class="cls-2" d="M97.51,478.58c-34.79,25.2-41.12,50.31-42.68,60.94-1.66,11.33-.58,24.46,3.4,25.49,6.89,1.78,22.69-19.74,22.69-19.74h0c-1.85,4-4.8,9.92-8.86,16.93-9.44,16.3-19.37,28.65-18.24,29.62.92.79,6.52-8.13,16.5-9.57,8-1.15,16.42,2.83,16.5,6,.07,2.85-6.75,3.18-14.49,10.57-3.34,3.2-6.21,5.81-7.06,9.26-3.82,15.62,27.18,35,33.41,38.84a122.56,122.56,0,0,0,22.23,10.92"/><path class="cls-2" d="M301.57,289.81a15.7,15.7,0,0,0,9.39.59c7.09-2,12.5-10,9.38-14.78s-15.85-1.2-16.2-2.78,10.61-7.69,20.22-4.31c8.64,3,14,13,10.73,20.69a15.69,15.69,0,0,1-6.7,7.09"/><path class="cls-2" d="M210.93,298.56c-14.4,7-46.1,22.44-65.23,55.63-4.53,7.86-1.43,4.7-19.54,49.56-4.37,10.82-14.23,34.47-28.61,63.26-19.09,38.21-23.68,40.18-25.41,55-2.25,19.34,5,21.12,10.21,55.78,6.44,42.92-2.83,52.49,8.53,69.32,10.74,15.91,28.55,21.45,47.31,27.29,14.07,4.37,17.71,1.65,67,6.53,48.46,4.8,57.43,6.08,72.88,1.92,10.22-2.76,19.25-6.81,35.95-8.46,14.8-1.45,25.45,0,33.08.79,20.23,2.13,55.5,5.84,88.22-3.84,20.86-6.17,43.92-12,52-30.28,10.85-24.64-12.35-55.1-1.14-63.82,7-5.47,20.13,3.37,23.4-1.49s-10.28-13.3-15.19-30.88c-5.44-19.5,6.38-26.62,1.68-46.89-3.41-14.74-12.24-15.42-19.77-33-9.43-21.95-9.08-37.3-11.54-54.38-1.7-11.85-9.33-56.38-35-85.44-23.14-26.2-54.25-32.24-87.38-38.68C319,282,266.12,271.69,210.93,298.56Z"/><path class="cls-5" d="M219.3,173.76c-27.87-80.93-31.05-106.49-61.11-134.1-6.75-6.2-37.55-34.49-56-25.46C81.28,24.42,87.48,77,90.9,105.9c3.1,26.27,8.45,45.73,24.86,95,38.17,114.67,47.5,124.33,59.85,128.24,25,7.95,59.45-8.71,72.55-33.19C259.89,274,248.2,257.66,219.3,173.76Z"/><path d="M337.69,459.69C333,471.5,335.64,481.9,339,495c3.57,14.1,6.5,25.62,15.61,29.89,11.17,5.23,24.79-3.61,39.44-13.12,16.61-10.78,37.38-24.26,35.85-41.65-1.07-12.27-12.72-20.5-20.29-25.85-6.6-4.67-20.29-14.34-38.42-11.15C356.62,435.68,343.21,445.78,337.69,459.69Z"/><ellipse class="cls-5" cx="170.65" cy="561.97" rx="30.25" ry="17.14"/><ellipse class="cls-5" cx="396.66" cy="561.97" rx="30.25" ry="17.14"/><path class="cls-5" d="M272.25,556.4c1.54-4.8,11-5.6,23.2-6.63,9.6-.82,14.44-1.16,16.58,1.65,3.06,4-.78,11.48-4.5,18.71-3.82,7.44-9,17.58-14.93,17.07-3.18-.27-3.7-3.4-12.8-17.07C273.3,560.36,271.47,558.82,272.25,556.4Z"/><path class="cls-2" d="M211.16,367.53c-3.49,4.38-28.13-4.43-47.27-22.92-23.43-22.64-26.63-48.22-35.81-85.95-22-90.46-40.94-90-45.84-151.85-2.09-26.42-6.19-78.24,19.94-92.61,13.36-7.34,29.5-2.09,38.79.93,13.71,4.46,38.76,16.55,65.9,65.9,15.73,28.6,22.67,53.42,35.8,103.49,6.41,24.41,9.79,41.54,14.94,67.64,7.77,39.34,16,80.86,10.85,82.42-4.17,1.27-15.58-24.46-17.19-28.65-13.55-35.47-16.2-60.21-24.14-97.41-4.49-21-7.8-36.59-14.53-57.3-7.53-23.16-15.56-47.31-32.95-73.06-14.43-21.35-45.13-58.37-61.39-51.57-1.39.58-5.43,2.64-10,17.19a121.16,121.16,0,0,0-3.07,58.73c12.08,57,29.76,76.23,44.41,134.66,8.42,33.6,5.56,34.87,12.89,53C182.09,338.72,215.64,361.91,211.16,367.53Z"/><path class="cls-5" d="M378.78,163.29c27.87-80.93,31.05-106.49,61.1-134.1,6.76-6.21,37.56-34.49,56-25.46,20.9,10.22,14.69,62.75,11.28,91.7-3.1,26.27-8.46,45.73-24.86,95-38.17,114.68-47.5,124.33-59.85,128.25C397.42,326.64,363,310,349.92,285.5,338.19,263.57,349.88,247.18,378.78,163.29Z"/><path class="cls-2" d="M386.92,357.05c3.49,4.39,28.13-4.42,47.27-22.92,23.43-22.64,26.63-48.21,35.81-85.95,22-90.45,40.94-89.94,45.84-151.84C517.93,69.92,522,18.09,495.9,3.73c-13.36-7.34-29.5-2.09-38.79.93-13.71,4.46-38.76,16.55-65.9,65.9-9.41,17.11-21.51,42.67-35.81,103.49-17.91,76.21-25.78,150-25.78,150.06h0s15.13-23.26,17.19-28.65C360.36,260,363,235.25,371,198.05c4.48-21,7.8-36.59,14.53-57.3C393,117.59,401,93.44,418.43,67.69c14.43-21.36,45.13-58.37,61.39-51.57,1.39.58,5.43,2.64,10,17.19A121.29,121.29,0,0,1,492.92,92c-12.08,57-29.77,76.23-44.41,134.66-8.42,33.6-5.56,34.87-12.89,53C416,328.25,382.44,351.43,386.92,357.05Z"/><path d="M239.54,459.69c4.69,11.81,2.05,22.21-1.27,35.32-3.58,14.1-6.5,25.62-15.62,29.89-11.16,5.23-24.78-3.61-39.43-13.12-16.61-10.78-37.38-24.26-35.86-41.65,1.08-12.27,12.73-20.5,20.3-25.85,6.6-4.67,20.29-14.34,38.42-11.15C220.61,435.68,234,445.78,239.54,459.69Z"/><path class="cls-2" d="M202.87,448.58c-7.28,2.67-12.9,10.83-11,17.1,2.38,7.85,16.19,11.7,24.43,6.11,5-3.4,8.86-10.88,6.11-17.1C219.31,447.7,209.55,446.13,202.87,448.58Z"/><path class="cls-2" d="M376.24,446.82c-7.28,2.67-12.9,10.82-11,17.1,2.38,7.85,16.19,11.7,24.43,6.11,5-3.4,8.86-10.89,6.11-17.1C392.68,445.94,382.92,444.37,376.24,446.82Z"/><path class="cls-6" d="M249.17,612c1.82,1.66,8.62,7.47,18.35,7.27,10.72-.22,20.66-7.64,25.09-18.81"/><path class="cls-6" d="M336.05,612c-1.82,1.66-8.62,7.47-18.35,7.27-10.72-.22-20.66-7.64-25.09-18.81"/><path class="cls-2" d="M237.44,318.05c4.06,1.69,13,4.69,22.81,1.63,17.24-5.41,30.38-27.64,22.81-40.73-7.36-12.72-38.52-3.32-39.38-7.69-.82-4.17,25.79-21.19,49.16-11.87,21,8.38,34,35.86,26.07,57-3.84,10.28-11.62,16.48-16.3,19.55"/><path class="cls-1" d="M466.66,387.38c-3.91.11-10.25.29-18,.6-41.35,1.64-56.61,4.13-90.67,5.37l-38.18.59c-59.72.91-63.58.9-69.19.79-21.57-.41-38.87-1.56-63.24-3.17-14.9-1-27.38-2-36.4-2.73C130.23,383,119,365.31,121.73,353.38c3-13.4,25.09-25.88,49.08-16.57,30.39,3.08,63,5.15,97.58,5.69a1151.69,1151.69,0,0,0,169.45-9.87c14.72,1.11,19.07,4.94,20.32,8.23,2.22,5.81-4.43,12-1.19,17.29,2.42,4,7.37,2.42,10.73,6C470.44,367,472,373.14,466.66,387.38Z"/></g></g></svg>