<svg xmlns="http://www.w3.org/2000/svg" viewBox="0 0 224 265.58"><defs><style>.cls-1{fill:#ff9fc0;}.cls-2{fill:#76ede5;}.cls-3{fill:#f9d446;}.cls-4{fill:#f75f7c;}.cls-5{fill:#10c0be;}.cls-6{fill:#ee3765;}.cls-7{fill:#faaaad;}.cls-8{fill:#f3e73b;}</style></defs><g id="Camada_2" data-name="Camada 2"><g id="Camada_1-2" data-name="Camada 1"><rect class="cls-1" x="85" y="44.58" width="8" height="54"/><rect class="cls-1" x="112" y="21.58" width="8" height="77"/><rect class="cls-1" x="140" y="44.58" width="8" height="54"/><rect class="cls-2" x="45.29" y="94.58" width="133.5" height="56.63" rx="13.29"/><rect class="cls-3" x="26" y="140.58" width="165.36" height="59" rx="13.29"/><rect class="cls-4" x="6" y="189.58" width="213" height="76" rx="13.29"/><path class="cls-5" d="M47,95.58c-2.91,2.7-1,6.09-3,15-1,4.19-2,6.08-1,7,1.24,1.14,4.72,0,7-2,3.7-3.2,2-6.73,5-9,3.8-2.89,11.1-1.76,15,2,3.55,3.42,2.75,7.54,5,8,3.27.67,5-8,12-10,4.75-1.35,9.38,1.13,11,2,8,4.26,9.45,12.53,12,12,3-.63.51-11.82,6-15,3.65-2.12,9.22.23,12,2,5.82,3.69,6.19,9.12,9,9,3.53-.16,3.34-8.78,9-11,5.47-2.15,12.5,2.65,13,3,4.62,3.25,5.07,7,8,7,3.58,0,5.1-5.45,8-5,3.1.47,3.43,7.06,5,7,2-.09,5.57-10.76,1-17-2.84-3.89-7.83-4.69-10-5-22.36-3.27-54.31-3-58-3-28.7.17-43,.25-46,0a58.27,58.27,0,0,0-14,1C48.48,94.39,47.55,95.06,47,95.58Z"/><path class="cls-6" d="M190.52,140.62c3.82,3.58,1.2,8.08,3.73,19.72,1.19,5.51,2.49,8,1.24,9.2-1.54,1.5-5.87,0-8.71-2.63-4.6-4.2-2.49-8.84-6.22-11.83-4.44-3.56-13.38-.77-18.67,2.63-5.94,3.83-6.55,8-9.89,7.87-4.61-.24-4.72-8.31-11.26-10.5-4.83-1.62-10.22,1-13.69,2.63-6.37,3-6.76,6-10,5.87-5.18-.22-5.52-7.59-12.35-9.81-5.61-1.83-11.72,1.09-14.93,2.63-6.56,3.13-7.14,6.36-10.72,6.18-5-.27-5.33-6.74-11.68-8.81-7.2-2.34-15.21,3.22-16.18,3.94-5.75,4.28-6.31,9.15-10,9.2-4.45.07-6.34-7.15-9.95-6.57-3.86.63-4.27,9.29-6.22,9.2-2.47-.11-6.93-14.13-1.25-22.34,3.54-5.11,9.75-6.16,12.45-6.58,27.82-4.29,67.59-4,72.17-3.94,35.72.23,53.58.34,57.25,0h0A45.19,45.19,0,0,1,183.05,138C187.32,139.08,189.45,139.63,190.52,140.62Z"/><path class="cls-7" d="M217,187.39c4.9,3.58,1.55,8.08,4.78,19.72,1.53,5.51,3.18,8,1.59,9.2-2,1.5-7.51,0-11.15-2.63-5.89-4.2-3.19-8.84-8-11.83-5.69-3.56-17.13-.77-23.9,2.63-7.6,3.83-8.38,8-12.66,7.86-5.9-.23-6.05-8.3-14.41-10.49-6.19-1.62-13.08,1-17.53,2.63-8.15,3.05-8.65,6-12.86,5.86-6.63-.21-7.07-7.58-15.81-9.8-7.18-1.83-15,1.09-19.11,2.63-8.39,3.13-9.13,6.36-13.72,6.17-6.46-.26-6.82-6.73-14.95-8.8-9.21-2.35-19.46,3.22-20.71,3.94-7.36,4.28-8.08,9.15-12.74,9.2-5.71.07-8.12-7.16-12.75-6.57-4.94.62-5.46,9.29-8,9.2C2,216.2-3.74,202.18,3.54,194c4.52-5.1,12.47-6.15,15.92-6.57,35.62-4.29,86.52-4,92.39-3.94,45.72.22,68.57.34,73.27,0h0a72.65,72.65,0,0,1,22.3,1.31C212.89,185.85,215.62,186.4,217,187.39Z"/><path class="cls-8" d="M87,43.58h0c-3-3.67-3.06-6.81-3-8,.07-1.47.72-3,2-6,2-4.59,3-7.14,4-7,.68.09.7,1.49,2,8,.87,4.34,1.16,5.22,1,7a14,14,0,0,1-2,6"/><path class="cls-8" d="M114.35,21h0c-3-3.67-3.06-6.81-3-8,.07-1.47.71-3,2-6,2-4.59,3.05-7.14,4-7,.68.09.7,1.49,2,8,.86,4.33,1.15,5.22,1,7a14.17,14.17,0,0,1-2,6"/><path class="cls-8" d="M142.35,44h0c-3-3.67-3.06-6.81-3-8,.07-1.47.71-3,2-6,2-4.59,3.05-7.14,4-7,.68.09.7,1.49,2,8,.86,4.33,1.15,5.22,1,7a14.17,14.17,0,0,1-2,6"/></g></g></svg>