<svg xmlns="http://www.w3.org/2000/svg" viewBox="0 0 624.58 342.92"><defs><style>.cls-1{fill:#b2421f;}.cls-2{fill:#020202;}.cls-3{fill:#c24d21;}.cls-4{fill:#fff;}.cls-5{fill:none;stroke:#aa4121;stroke-linecap:round;stroke-miterlimit:10;stroke-width:3px;}</style></defs><g id="Camada_2" data-name="Camada 2"><g id="Camada_2-2" data-name="Camada 2"><path class="cls-1" d="M492.36,308.14c-.76,4.78-1.42,8.29-2.08,10.93-1.24,5-2.49,6.84-4.35,8.38-6.05,5-14.78,3.39-21.47,2.15-7.06-1.31-26.12-4.85-30-17.17a13.56,13.56,0,0,1-.58-2.64c-1.76-13.87,15.57-30.34,31.7-36,2.06-.72,20.33-7.13,27.9,1.07C496.94,278.67,495.47,288.54,492.36,308.14Z"/><path class="cls-2" d="M490.28,319.07c-1.24,5-2.49,6.84-4.35,8.38-6.05,5-14.78,3.39-21.47,2.15-7.06-1.31-26.12-4.85-30-17.17a13.56,13.56,0,0,1-.58-2.64,2,2,0,0,1,.58-.58c4.65-3.19,14.91,15.91,33.26,17.17C476.62,327,484.33,323.16,490.28,319.07Z"/><path class="cls-3" d="M624.36,185.8c-1.67,4.79-11.91,5-11.81,6.44.08,1.15,6.54.24,8.59,3.22,2.64,3.84-3.34,12.31-5.37,15C601,230.39,572,246.1,550.53,256.62l-4.65,2.26-2,1c-9,4.3-15.24,7.3-21,9.95-1,.5-2.09,1-3.12,1.44-2.65,1.21-5.27,2.4-8.1,3.63-31.48,13.8-39,14.5-51.51,24.68-12.83,10.43-9.32,13.24-23.61,24.68-4.9,3.93-11.16,8.94-18.37,12.79-7.92,4.22-17,7-26.7,5.45-10.62-1.72-23-8.87-23.61-17.17A8.74,8.74,0,0,1,368,323c.84-4.84,5.35-9.91,11.68-17,6.66-7.49,11.7-10.72,10.73-12.88-.45-1-1.92-1.21-4.54-1.21-1.14,0-2.49,0-4.07.09l-3.19.05c-13.39.15-15-1.54-21.47-1.07a35,35,0,0,0-11.6,2.91c-1.3.56-2.53,1.17-3.71,1.82-3.51,1.92-6.56,4.13-9.37,6-5.35,3.57-35.21,23.51-65.46,23.6-5.35,0-26.27-.22-42.92-15-3.82-3.39-13.52-12.26-16.1-26.83-.58-3.29-3.35-18.91,5.37-27.9,4.29-4.42,10.09-5.9,9.66-7.51-.48-1.78-7.86-1.3-10.52-1.09l-.22,0-4.19.38c-20,2.11-33.36,7.13-33.36,7.13a172.8,172.8,0,0,1-17.24,5.31l-3.42.88c-5.9,1.49-12.79,3.08-21.28,5l-7.43,1.68-6,1.36c-23.76,5.37-36.46,7.94-47.6,6.15C32.62,268.56-12.14,214.94,3,167.56c9.62-30,42.06-53.93,68.68-51.51,8.44.76,11.7,4.21,21.15,8.37,4.15,1.82,7.28,2.49,13.45,4.56.91.3,1.89.65,3,1l4.57,1.64c2.4.89,3.52,1.34,7.23,2.65,9.65,3.4,14.55,5.13,20.39,6.44,1.4.31,2.62.55,11.07,1.48l4.75.52,1.35.15c16.29,1.74,28.29,2.85,32.19,3.22l3.46.32,1.21.11,7.14.64a40.16,40.16,0,0,1-12.88-5.37c-7-4.49-12.88-11.76-15-18.24a21.56,21.56,0,0,1-.9-4c-2.3-17.38,16.11-35.88,21.29-41.09,13-13.07,28-18.37,57.94-29,26.13-9.24,33.09-8,37.56-6.44a26.47,26.47,0,0,1,6.09,3.07c4.92,3.27,9.19,7.9,21.81,14.1,1,.47,1.88.9,2.75,1.3,2,.93,3.85,1.7,5.48,2.34,7.25,2.77,10.79,2.82,12.16,2.8,1.06,0,15.21-.4,23.61-10.73.27-.34.51-.66.74-1a19.48,19.48,0,0,0,1.09-1.65c2.77-4.69,2.46-8.79,3.89-14.29q.3-1.15.72-2.4c8.69-25.56,45.86-33.37,50.43-34.34C429,.27,444-2.88,454.81,5.52c4.58,3.57,6.76,8,9.65,14a65.48,65.48,0,0,1,2.73,6.43c4.38,12,3.08,19.55,5.86,26.84,5.08,13.28,19.7,14.92,43.39,23.68q1.3.47,2.64,1,2.65,1,5.48,2.16c9.82,4,28,11.44,45.89,24.15.75.54,1.51,1.07,2.26,1.63A133,133,0,0,1,598.6,130c16.43,20.84,15.95,35.16,24.68,50.44C623.78,181.31,625.12,183.6,624.36,185.8Z"/><path d="M504.17,164.34c-.73,4.68-.49,10.27,0,21.46,0,0,.59,13.65,5.36,34.34.8,3.45,1.89,7.79,5.37,11.81,1.64,1.89,3.38,3.2,8.58,6.43,6.68,4.14,11.73,6.88,12.88,7.52a54.23,54.23,0,0,1,14.17,11.79L545.88,260c-.68.34-1.35.66-2,1-9,4.3-15.24,7.31-21,10l-3.12,1.44c-11-3.65-19.26-9.94-25.27-14.62a105.32,105.32,0,0,1-25.75-29,107.65,107.65,0,0,1-1.08-104.09c11-20.19,25.67-31.2,34.34-37.56,6.23-4.56,10.33-7.58,14.42-9.59l2.64,1q2.65,1,5.48,2.16c9.82,4,28,11.45,45.89,24.15l2.26,1.63a75.18,75.18,0,0,0-18.11,3.19c-7.38,2.22-21.31,6.61-33.26,19.32A69.07,69.07,0,0,0,504.17,164.34Z"/><path class="cls-4" d="M508.46,144c-8.81,16.92-7.23,32-5.37,51.51,1.42,14.83,3.3,34.48,16.1,42.92,2.65,1.75,6,3.2,11.81,7.52a90,90,0,0,1,14.88,14l-2,1c-9,4.3-15.24,7.31-21,10-21.92-6.05-38.32-24.51-42.34-29.28-21.28-25.17-23.42-53.86-23.61-64.38a103.59,103.59,0,0,1,15-55.8c8.79-14,18.95-22,27.9-29,7.54-5.92,13.57-10.66,19.2-14q2.65,1,5.48,2.16c9.82,4,28,11.45,45.89,24.15-3.67.63-9.35.64-16.92,2.68C534.58,112.58,517.36,126.86,508.46,144Z"/><path d="M391.49,168.63a21.93,21.93,0,0,1-5.36,10.73c-10.5,13-10.07,35.43-9.66,53.66.74,33.1,11.33,49.83,9.41,60-1.85,0-4.25.11-7.26.14-13.39.15-15-1.53-21.47-1.07a36.9,36.9,0,0,0-15.31,4.73C331,287.35,326,269.3,321.74,242.68c-2.88-18.16-6.52-41.89-6.44-77.27.11-45.3,6.15-35.39,5.37-73-.24-11.36-1-21.84.6-29.82,11,5.09,16,5.16,17.64,5.14,1.06,0,15.21-.4,23.61-10.73a21.35,21.35,0,0,0,1.83-2.63c1.67,5.87.74,14.83,1.39,27.31.38,7.6,1,20.2,5.36,34.34A171.48,171.48,0,0,0,384,147.17C388.32,154.83,392.72,160.81,391.49,168.63Z"/><path class="cls-4" d="M378.62,183.66c-8.61,11.42-7.53,25.16-5.37,52.58,1.51,19.15,2.26,28.72,6.44,39.7,2.57,6.78,4.91,10.55,3.22,15a10.46,10.46,0,0,1-1.1,2.09l-3.19.05c-13.39.15-15-1.53-21.47-1.07a35,35,0,0,0-11.6,2.92,22.9,22.9,0,0,1-2.35-6.14c-9.39-35.61-17-34.33-21.46-65.46-1.49-10.45-1.76-18.54-2.15-30.05-.35-10.59-.1-15.78,0-36.48.14-27.78-.28-23.3,0-30.05,1.11-25.66,4.43-23.59,6.44-51.51.31-4.33.47-7.65.72-10.31,7.25,2.77,10.79,2.82,12.16,2.8,1.06,0,15.21-.4,23.61-10.73.27-.33.51-.65.74-1,0,1.69-.37,4.18-.74,8.49-.57,6.43-.68,12.88-1.07,19.32-.78,12.45,3.14,22.8,7.51,34.34,2.68,7.07,8.29,20,15,33.26,2.4,4.74,4.77,9.15,4.29,15C387.63,174.45,382.3,178.77,378.62,183.66Z"/><path class="cls-3" d="M446.22,258.77c-1.3,4.51-5.27,8.27-19.32,14-23.89,9.69-38.23,15.51-55.13,13.79-2-.19-4-.5-6-.91-28.32-5.63-54.41-29.24-59-56.87-.84-5-3.43-20.73,5.36-33.27,4.51-6.43,13-10.72,30.05-19.32,10.26-5.18,15.52-7.79,21.46-8.58a32.2,32.2,0,0,1,9.57.27,112.72,112.72,0,0,1,19.41,5.09c21.19,7.25,31.79,10.86,36.48,19.32,5.4,9.73-1.48,13.77,2.15,30C435.74,242.64,449.2,248.45,446.22,258.77Z"/><path d="M212.5,248l-.22,0c-22.24,1.78-37.55,7.51-37.55,7.51a188,188,0,0,1-20.66,6.2,31.93,31.93,0,0,1,1.34-8.34,38.22,38.22,0,0,1,5.37-11.81c7.95-12.23,8.33-27.52,8.58-37.56.18-7.28-.59-12.37-2.15-22.53-1.84-12.08-2.8-18.31-6.43-25.75-3.48-7.12-6.94-10.26-8.25-12.47l6.1.66c16.29,1.74,28.29,2.86,32.19,3.22l4.67.43a19.14,19.14,0,0,1,6.06,4.94c1,1.21,4.06,5.33,5.37,17.17.66,6,.42,10,0,18.24-.45,9-.91,19.11-1.07,29-.27,15.84.41,19.08,2.14,22.54C210,243.55,212.49,245.85,212.5,248Z"/><path class="cls-4" d="M208.09,248.43c-20,2.1-33.36,7.12-33.36,7.12a170.07,170.07,0,0,1-17.24,5.32c.43-1.7,1.23-3.78,2.21-6.39,2.22-5.86,4.17-7.51,6.44-11.8,3-5.68,3.8-12.38,5.37-25.76.78-6.66,1.17-10,1.07-13.95-.19-7.65-1.53-9.15-3.22-21.46-1.51-11-.61-11.11-2.15-16.1a104.33,104.33,0,0,0-6.43-15c-1.66-3.28-2.79-5.27-3.5-6.59l1.35.15c16.29,1.74,28.29,2.86,32.19,3.22,1.22.12,2.36.23,3.46.32a23.25,23.25,0,0,1,3,2.9c.77.9,3.32,4,5.37,10.73.66,2.17,1.93,6.88,2.14,26.83.06,4.45.08,6.67,0,8.58-.4,10.81-2,12.75-2.14,21.46a87,87,0,0,0,1.07,14,64.53,64.53,0,0,0,2.15,10.73A34.48,34.48,0,0,0,208.09,248.43Z"/><path d="M132.79,266.76l-7.43,1.67c-27.73,6.28-41.6,9.45-53.65,7.51C32.62,269.63-12.14,216,3,168.63c9.62-30,42.06-53.93,68.68-51.51,8.44.77,11.7,4.21,21.15,8.37,4.76,2.1,8.18,2.67,16.41,5.58,2.06.73,3.45,1.24,4.57,1.65a47.93,47.93,0,0,0-11,3.72c-11.11,5.44-16.91,14.42-21.46,21.46C78,163.12,67.18,180.4,69.56,204c.82,8.12,2.81,27.91,17.17,38.64,9.28,6.94,16.21,4.47,33.27,15C125.54,261.12,130.19,264,132.79,266.76Z"/><path d="M367.88,280.23a51.29,51.29,0,0,1,3.89,6.28c-2-.19-4-.5-6-.91-28.32-5.63-54.41-29.24-59-56.87-.84-5-3.43-20.73,5.36-33.27,4.51-6.43,13-10.72,30.05-19.32,10.26-5.18,15.52-7.79,21.46-8.58a32.2,32.2,0,0,1,9.57.27c-2.25,2.13-6.62,5.6-14.93,11.53-17.83,12.72-18.27,11.42-21.47,15-10.26,11.58-11.91,31.92-5.36,46.14,5.92,12.87,19.79,23.43,21.46,24.68A59.75,59.75,0,0,1,367.88,280.23Z"/><path d="M418.19,337c-7.92,4.22-17,7-26.7,5.45-10.62-1.72-23-8.87-23.61-17.17A8.74,8.74,0,0,1,368,323c.89,1,1.91,2.13,3.09,3.36,3.7,3.85,5.6,5.81,8.59,7.51a27.18,27.18,0,0,0,12.88,3.22C403.89,337.58,412.44,337.17,418.19,337Z"/><path d="M539.58,135.37c-8.36,5.86-10.68,17.28-9.66,25.75.45,3.71,1.31,10.87,7.51,16.1,4.66,3.92,12,6.49,18.25,4.29,11.59-4.09,15.17-23.15,9.65-35.41-2.52-5.62-8.87-14-17.16-13.95A15,15,0,0,0,539.58,135.37Z"/><path class="cls-4" d="M562.4,151.36c4.39,1.95,5.35,9.6,3,14.76-.37.81-2.34,5.11-4.78,4.95-4.31-.3-9.37-14.57-4.59-18.89A6.22,6.22,0,0,1,562.4,151.36Z"/><path d="M467.19,25.9a66,66,0,0,0-18.82-8.57c-24.31-6.5-48,3.58-54.73,6.43-13.52,5.75-20.59,12.49-25.4,15.28q.3-1.15.72-2.4c8.69-25.56,45.86-33.37,50.43-34.34C429,.27,444-2.88,454.81,5.52c4.58,3.57,6.76,8,9.65,14A65.48,65.48,0,0,1,467.19,25.9Z"/><path d="M296.71,46.15a233.12,233.12,0,0,0-24.33,5.51A203.07,203.07,0,0,0,221.94,74.2c-12.34,7.53-24.56,15-36.48,29a114.23,114.23,0,0,0-11.63,16.41c-2.3-17.38,16.11-35.88,21.29-41.09,13-13.07,28-18.37,57.94-29,26.13-9.24,33.09-8,37.56-6.44A26.47,26.47,0,0,1,296.71,46.15Z"/><path class="cls-5" d="M590.38,185.66A72.62,72.62,0,0,0,598,190a28.39,28.39,0,0,0,6.66,2.59,24.6,24.6,0,0,0,9.8,0"/></g></g></svg>