<svg xmlns="http://www.w3.org/2000/svg" viewBox="0 0 88.6 199.42"><defs><style>.cls-1{fill:#fcb01f;}.cls-2{fill:#686d71;}</style></defs><g id="Camada_2" data-name="Camada 2"><g id="Camada_1-2" data-name="Camada 1"><path class="cls-1" d="M25,123.56c-.36-1.24.27-2.36.88-3.54,1.93-3.69,2.84-7.87,4.87-11.51,2.25-4,2.3-5.36,7.52-18.58C40.15,85.08,46.78,68.48,54.61,51c7-15.72,12.43-26,19.91-36.73C77.36,10.17,85.24-1.15,87.8.1c1.44.7.62,5.14,0,8.4-4.71,24.42-8,34.52-8,34.52-4.72,13.51-5.17,14.23-10.18,28.32-4.36,12.27-8.88,24.48-13.27,36.73,0,0-3.4,9.48-7.09,16.94A32.94,32.94,0,0,0,47,129.48c-.47,1.35-.59,2.16-1.27,2.49-1,.48-2.34-.58-3.54-1.33-1.89-1.18-1.77-.54-8.41-2.65C25.94,125.48,25.2,124.39,25,123.56Z"/><path class="cls-2" d="M26.29,119.13c-1,.28-1.56,2.11-2.66,5.76-.81,2.69-.95,4-2.21,4.87-.63.41-1.86.93-2.66.44-1-.6-.43-2.18-1.77-4.87-.39-.79-.58-1.18-.88-1.33-2.38-1.17-8.51,7.06-8.85,7.53A38.58,38.58,0,0,0,2,141.7c-.72,2.05-3,8.68-1.33,9.74.82.5,1.77-.71,5.31-2.21,3.25-1.39,5.77-2.46,8.41-1.77,0,0,.62.16,5.31,3.09-.11.3-.28.76-.45,1.33-.28,1-.27,1.19-.44,1.77-.53,1.88-1.33,1.88-1.33,3.1,0,.92.32,1.55,0,1.77s-.56-.16-.88,0-.15,1-.44,2.21c-.35,1.45-1.09,1.79-.89,2.66a1.19,1.19,0,0,1,0,.88.94.94,0,0,1-.44.44A4.5,4.5,0,0,0,13,167.37c-.19,1.09.45,1.79,0,2.21-.24.23-.53.12-.89.45a1.73,1.73,0,0,0-.44.88c-.45,1.73-1.62,2.21-1.33,3.1.15.44.55.63.45.88s-.62.12-.89.45.05.7,0,1.32c-.09,1.06-1.13,1.12-1.33,2.22-.14.82.36,1.29,0,1.77-.21.28-.42.15-.88.44-.63.39-.81.91-1.33,1.77s-.62.78-1.33,1.77a20.7,20.7,0,0,0-2.21,4c-.75,1.81-1.13,2.72-.88,3.54.34,1.15,1.33,1.13,1.77,2.66.28,1,0,1.43.44,2.21a4.11,4.11,0,0,0,2.21,1.77c.25.11,3.16,1.35,5.31,0,.89-.56.89-1.08,1.77-1.33,1.18-.33,1.91.41,2.66,0,.51-.28.6-.86.88-2.21.71-3.44,1.06-5.18.89-5.75a3,3,0,0,1,0-3.54,18.71,18.71,0,0,0,.88-2.66c.78-1.92,2.13-2.64,1.77-3.54-.15-.39-.54-.6-.44-.88s.5-.2.88-.45c.59-.36.43-1,.89-2.21s1.14-1.79.88-2.21-.88-.3-.88-.44.74-.07,1.33-.45c.84-.54.35-1.36,1.33-3.09.27-.48.56-.87.44-1.33s-.53-.64-.44-.89.52-.15.88-.44.29-.71.44-1.33c.38-1.49,1.54-1.84,1.33-2.65-.11-.45-.53-.6-.44-.89s.49-.22.88-.44c.95-.53.31-1.81,1.33-3.54.06-.1.17-.65.44-1.33a3.33,3.33,0,0,1,.45-.88c.33-.43.67-.52,1.32-.89,1-.55.89-.75,1.33-.88.83-.26,1.5.11,4,1.32a24.25,24.25,0,0,1,2.66,1.33,7,7,0,0,1,2.65,3.1c.49,1.28,0,1.62.45,4.42.34,2.33.72,2.58.88,2.66,1.15.58,3.21-1.44,3.54-1.77a11.63,11.63,0,0,0,2.66-4.43,50.48,50.48,0,0,0,2.21-7.08c.73-3.3.78-6.47.88-12.83,0-.93,0-2.41-.88-3.1a3.33,3.33,0,0,0-3.1,0c-1.59.73-1.76,2.12-3.1,2.22a1.72,1.72,0,0,1-1.32-.45c-.43-.49-.28-1.29,0-2.21a18.35,18.35,0,0,1,1.77-4c2-3.56,2.08-4.33,1.77-4.87-.15-.25-.54-.46-1.33-.88-1.75-.94-2.3-.75-2.66-1.33-.5-.82.39-1.56,0-2.66-.11-.33-.34-.68-2.21-1.77A15.24,15.24,0,0,0,36,120a3.66,3.66,0,0,0-1.77,0c-1.29.38-1.37,1.43-2.21,1.77C30.21,122.52,28.15,118.62,26.29,119.13Z"/></g></g></svg>