<svg xmlns="http://www.w3.org/2000/svg" viewBox="0 0 459.95 407.34"><defs><style>.cls-1{fill:#a65c39;}.cls-2{fill:#fff;}.cls-3{fill:#5d3328;}.cls-4{fill:#020202;}.cls-5{fill:#965136;}.cls-6{fill:none;stroke:#020202;stroke-linecap:round;stroke-miterlimit:10;stroke-width:2px;}</style></defs><g id="Camada_2" data-name="Camada 2"><g id="Camada_2-2" data-name="Camada 2"><path class="cls-1" d="M188.2,242.8c26.31,7.69,62.33,13.2,90.75-5.11,13.72-8.83,14-15.7,28.17-25.37,24.11-16.43,71.25-29.26,108.18-3.28,37.32,26.26,48,80.71,29.5,111.46C421.68,359,357,353.67,292.37,348.36c-120.9-9.93-210.11-63.75-208.59-68.06.64-1.8,16.74,5.76,36.34-.92,13.25-4.52,22.27-13.57,27.84-20.53"/><path class="cls-1" d="M196.75,143.12a72.49,72.49,0,0,0,7-33.06c-.5-14.6-5.6-25.42-11.95-38.85-4.32-9.15-3.26-4.81-16.7-28.71a270.2,270.2,0,0,0-18.9-29C149.57,4.66,146.63,1.9,143.07,2c-5.22.09-9.19,6.17-14.32,15.71A296.54,296.54,0,0,0,111.55,56c-9.66,25.68-13.3,21.56-21.44,44.07C83.63,118,78.26,133.49,83,151.63c1.53,5.89,5.09,19.64,17.93,27.74a39,39,0,0,0,20.51,5.75"/><path class="cls-2" d="M189.28,156c5.86-11.21-4.81-27.85-11.22-37.84-7-11-17.09-22.22-19.17-20.88-3.18,2.06,15.83,31.6,12.59,33.82-2.76,1.9-23.4-14.73-22.4-32.73.53-9.7,7.24-17.77,6.87-18-.56-.33-11.61,22.12-16.44,20.73-4.53-1.3,1-24.42-1.68-25.09-3-.76-18.81,25.72-10,44.45,5.76,12.22,20.33,17.56,19.74,18.56-.8,1.37-25.5-12.87-28.3-9.13-1.59,2.12,4.89,8.75,3.41,10.39-2.08,2.28-16-9.38-18.41-7.08C101.46,136,121,151.66,126.81,179c1.58,7.4,1.23,11.3,4.31,12.88,6.83,3.52,15.78-11.95,41.85-25.6C183.41,160.79,186.83,160.72,189.28,156Z"/><path class="cls-3" d="M203.18,137.33c5.25-8.13,4.61-17,4-28.29-.79-14.21-5.17-24.51-8.32-31.74s-4.24-7.6-16-26.85c-11.56-18.87-13.33-23.12-20.52-32.09C154.57,8.71,146.05-1.7,139.11.24c-2,.55-3.89,3.64-7.65,9.79-4,6.59-6,11-13.16,26.07-.47,1-1.55,3.27-2.76,6.4s-1.9,5.39-2.09,6c-2,6.25-6,14.21-8.48,19.12,0,0-4.57,9.19-10.41,22.65-3.17,7.3-7.22,16.61-9.82,25.62-4.56,15.82-10.25,35.54-.13,51.68,9,14.32,25.26,17.71,29.91,18.67,3.43.7,9.56,1.89,12.18-1.25,1.55-1.85,1.44-4.69.06-10a77,77,0,0,0-8.34-20.15l-.26-.44c-.19-.3-10.87-18.77-12.85-22.72-8.15-16.25-.91-49.5,7.09-70.66,1.4-3.71,3.4-8.06,7.38-16.75,11.59-25.32,17.38-38,22-38.66,11.69-1.71,34.49,31.59,36,68.8,1.72,41.84-24.13,66.63-14.05,76.15C171.33,157.72,194.14,151.32,203.18,137.33Z"/><path class="cls-1" d="M61.76,147.12c-3.69,5.67-6.32,9.71-8.58,15.65-2.46,6.47-3.13,11.6-4.54,39.36-.76,14.79-.73,16.56-2.53,19.68-4.24,7.38-11.93,10.65-23.71,15.65-5.8,2.46-8.84,3.07-14.41,5-4.74,1.67-7.08,1.35-7.8,3-1,2.42,2.16,5.35,8.15,13.15,4.8,6.25,4.84,7.1,7.84,11,7.31,9.43,20.34,26.27,38.89,29.89,9.13,1.78,13.14-.89,23.22,2.73,2.79,1,6,2.49,10.25,1.71,4.58-.84,5.92-3.57,10.24-5.46,5-2.2,9.75-1.35,15.37-.34,13.65,2.46,13.86,8.84,24.58,9.22,5.26.18,9.62-1.21,12.29,1.7,1.79,2,3.42,6.49,3.42,6.49h0c.3.47,5.87-4.5,11.4-5.16,4.84-.58,5.15,2.68,14.11,5.09,3.59,1,37.23,7.3,51,2.21a102.89,102.89,0,0,0,14.49-6.61c3.22-1.86,10.27-7.58,16.73-20.62,3.31-6.7,9.84-22.27,9.42-48.5-.14-8.48-1.41-39.76-20.39-75.24-10.16-19-21.32-31.25-28.13-38.67-16.89-18.41-24.47-27.67-36.21-33.93a69.09,69.09,0,0,0-16.37-6.73c-39.86-10-80,27.83-89.59,36.87A141.94,141.94,0,0,0,61.76,147.12Z"/><path class="cls-2" d="M12.62,271.45c3.08,5.38,4.63,8.07,5.79,9.8,3.84,5.71,8.66,12.82,16.49,18.27,8.51,5.92,17.19,7.51,29.49,9.75,1.79.33,3,.52,4.08.65,0,0,2,.27,4.12.43,17.88,1.46,40.77.45,40.77.45,32-1.41,35.08,10.64,60.83,5.91,7.17-1.32,17.71-3.38,27.93-11.53.54-.43,1-.78,1.57-1.29,12.77-11.19,16.46-34.81,8.82-40.89-7.47-5.94-23.51,6.68-26.73,2.43-4-5.2,18.65-26.06,14.82-31.11-3.48-4.59-25.16,8.92-27.83,5-1.69-2.52,4.4-11.94,12.76-14.68,3.64-1.19,6.29-.65,6.43-1.42.31-1.69-11.94-7.69-25.23-8.07-19.49-.56-30.45,12-35.88,7.53-5.7-4.69,7.09-19.35.61-34.33-3.87-8.93-13.42-15.42-22.93-16.24-15.67-1.35-26.49,13.11-29.41,17-4.65,6.21-6.75,12.55-9.35,20.39-4.8,14.46-2.12,16.42-6.17,22-7.4,10.27-18.3,6.42-23.17,15.82-4.26,8.24,1.94,15.34-3,20.1-3.86,3.69-12,3.61-16.44,0-4.92-4-1.76-10.74-7-14.82C10.6,250,5.25,249.45,3.71,251.4,2.93,252.38,2.82,254.36,12.62,271.45Z"/><path d="M1.52,247.57a21.42,21.42,0,0,1,11.93-7.41c2.24-.46,9.93-2,13.15,2.45,2.71,3.77,1,10.11-2.29,13.19s-6.2,1.35-9.56,4.5c-4.36,4.08-3,10.43-4.8,10.75-1.21.22-3.35-2.5-7.4-14.05"/><path class="cls-1" d="M188,150.54a72.44,72.44,0,0,1-2.13-33.73c2.61-14.37,9.23-24.34,17.45-36.71,5.6-8.43,3.93-4.28,20.69-26A268.21,268.21,0,0,1,246.86,28.2c7.85-7.83,11.16-10.13,14.68-9.55,5.15.85,8.2,7.44,11.89,17.62a297.85,297.85,0,0,1,11.46,40.42c5.83,26.81,10,23.27,14.82,46.73,3.81,18.66,6.88,34.77-.39,52-2.36,5.6-7.87,18.69-21.76,24.84A39,39,0,0,1,256.44,203"/><path class="cls-2" d="M199.16,154.78C195,142.84,208,127.91,215.74,119c8.55-9.82,20.14-19.51,22-17.88,2.85,2.5-20.24,29-17.36,31.65,2.46,2.27,25.29-11.2,26.91-29.15.88-9.67-4.59-18.63-4.19-18.79.6-.24,8.28,23.57,13.26,22.9,4.67-.63,2.54-24.3,5.3-24.58,3.08-.31,14.88,28.17,3.43,45.42C257.62,139.79,242.43,143,242.87,144c.6,1.47,27.09-9,29.32-4.93,1.27,2.33-6.1,7.95-4.87,9.78,1.72,2.56,17.17-7,19.23-4.33,2.42,3.08-19.18,15.8-28.91,42-2.63,7.09-2.85,11-6.13,12.12-7.26,2.5-13.87-14.11-37.7-31.4C204.28,160.33,200.9,159.77,199.16,154.78Z"/><path class="cls-3" d="M182.44,143.87c-4-8.8-2.09-17.52.16-28.56,2.84-14,8.67-23.51,12.83-30.2s5.3-6.9,19.75-24.24c14.17-17,16.54-20.95,24.95-28.78,9.05-8.43,19-17.5,25.58-14.57,1.87.83,3.32,4.16,6.14,10.8,3,7.1,4.37,11.75,9.24,27.7.33,1.06,1.06,3.46,1.81,6.73s1.1,5.61,1.2,6.24c1,6.47,3.91,14.93,5.62,20.15,0,0,3.19,9.76,7,23.92,2.07,7.68,4.73,17.48,6,26.77,2.22,16.32,5,36.65-7.35,51.16-10.95,12.86-27.57,13.86-32.31,14.13-3.49.2-9.73.49-11.87-3-1.27-2.06-.75-4.86,1.39-9.93a77.49,77.49,0,0,1,11.17-18.72l.33-.4c.23-.27,13.47-17,16-20.62,10.41-14.89,8.07-48.84,3.22-70.94-.85-3.87-2.19-8.46-4.86-17.64-7.8-26.74-11.7-40.1-16.16-41.44C251,19.05,223.59,48.68,216.69,85.28c-7.76,41.15,14.22,69.42,2.86,77.39C211,168.67,189.35,159,182.44,143.87Z"/><path class="cls-4" d="M81.64,200.83a16.22,16.22,0,0,1,4.27-7.23A15.34,15.34,0,0,1,89,191.36a19,19,0,0,1,10.87-2.08c2.09.13,11.73.72,17.29,8.31a21.14,21.14,0,0,1,3.64,8.89,31.78,31.78,0,0,1,0,9.07s0,.24-.06.46c-.91,6.18-5.18,14.14-5.92,13.83s2.25-5.92,2.66-15.62a22.28,22.28,0,0,0-.67-7.65,22.79,22.79,0,0,0-14.27-14.27c-1.6-.47-7.36-2.05-13.08.95a15.89,15.89,0,0,0-4.62,3.66"/><path d="M84.42,200.91c1.54-2.22,3.94-5.54,8.34-6.84,5.92-1.76,11.11,1.41,11.91,1.91,7.43,4.7,8,14.5,8.21,18.75.22,4,.47,8.47-2.46,12.86a17.33,17.33,0,0,1-11.22,7.12c-7.45,1.11-14.2-3.38-17.52-8.49C74.61,215.35,83.48,202.24,84.42,200.91Z"/><path class="cls-2" d="M99.79,220.33a3.59,3.59,0,0,1,.29,4.26c-.94,1.29-3.56,1-8.81.56-1.45-.13-2.19-.25-2.83-.85-1.48-1.36-1.55-4.4-.29-5.39,1.09-.85,2.27.5,6.25.85C97.6,220,98.8,219.34,99.79,220.33Z"/><path class="cls-2" d="M130.89,167.72c1.59,2.48,2.87,4.53,2.82,7.35-.14,7.17-8.76,11.69-9.77,12.2-8.79,4.46-18.07.95-22.11-.58s-15.17-5.75-15.67-13.42c-.32-4.92,3.93-8.79,6.7-11.31,1.54-1.4,10.57-9.63,22.31-6.91C124.11,157.13,128.61,164.16,130.89,167.72Z"/><path class="cls-3" d="M257,316.8c7,4.37,11.37,11.7,11.74,18.34a21.83,21.83,0,0,1-3.91,12.42C251.4,367,180,377.4,121,373c-22.92-1.71-35.16-5-41.09-11.23-7.27-7.64-2.22-16.71-1-18.93,7.44-13.36,29.6-18.83,37.18-20.69a132.14,132.14,0,0,1,27.39-3.55C220.92,315.23,242.05,307.49,257,316.8Z"/><path class="cls-5" d="M454.48,286.57C444,262.8,422,252.76,397,241.34c-14.29-6.52-21.43-9.78-29.89-9.2C349,233.38,342.36,246.93,318,251.31c-7.18,1.29-7.56.28-16.28.49A523.44,523.44,0,0,0,305,321.06c4.54,41.61,10.11,56.73,18.4,69.76a94.78,94.78,0,0,0,12.54,15.79,114.8,114.8,0,0,0,22.72.31c42.43-3.69,68.14-30.8,78.19-41.4,7.34-7.73,15.41-16.44,19.93-30.66C457.9,331.35,464.52,309.41,454.48,286.57Z"/><path class="cls-2" d="M335.94,406.61a94.78,94.78,0,0,1-12.54-15.79c-8.29-13-13.86-28.15-18.4-69.76a523.44,523.44,0,0,1-3.24-69.26c-1.4,0-3.47.08-5.95.27-11.11.83-36.45,2.72-42.78,14.67-6.83,12.91,12.9,29.32,5.35,40.43-4.63,6.83-13.48,2.72-17.77,8.53-9.17,12.38,14.8,52.92,49.83,75.12A107.08,107.08,0,0,0,335.94,406.61Z"/><path class="cls-2" d="M323.49,402.44c-2.22,2.37-8-1.54-18.46-3.94-16.95-3.89-22.13,1.42-31.78-.94-15.06-3.68-22.32-24.08-29.8-45.06-10.82-30.39-8.26-49-21.8-55.42-7.1-3.38-16.05-2-16.35-4.54-.26-2.17,5.84-5.44,11.81-6.36,16.68-2.6,31.52,13.21,32.7,11.81,1-1.22-20.17-15.58-17.26-24.53.94-2.9,4.1-4.28,6.72-5.33,24.39-9.85,36.59-14.77,45.75-10.31,11.65,5.66,4.35,20.27,15.67,71.06,6.32,28.39,9.49,42.59,15.26,53.32C320.09,389.88,326.31,399.45,323.49,402.44Z"/><path class="cls-1" d="M130.72,104a51.21,51.21,0,0,0-25.81-11.71c-19-2.52-35.84,7.35-35.3,10,.49,2.42,15.37-2.13,27,7.06,3.89,3.07,7,7.31,6.06,8.69-2,3-19.84-11.49-31.13-5.59-7.41,3.87-9.31,16-6.94,17.73s7.93-6.74,16.29-5.81a15.52,15.52,0,0,1,9.14,4.93"/><path class="cls-2" d="M143.07,220.54a180.86,180.86,0,0,1,40.52-11.49c13.42-2.16,26.75-2.74,27.46,0,.81,3.1-15.49,6.78-27.7,23.09-3.46,4.6-6.19,9.7-5.56,10.19.82.64,6.36-7.53,15.28-13.6,14.21-9.66,32.68-11,34.26-7.38,1.08,2.49-6.37,6-19.92,20.27-9.54,10-15.95,18.88-15.34,19.45s6.16-7.89,16.31-11.92c15.25-6.06,33.92.59,34.12,5.23.17,3.94-13.19,2.29-21.24,13.24-6.17,8.39-3.22,16-11.18,26.49a39.11,39.11,0,0,1-9,8.51"/><path class="cls-6" d="M39.89,279.19A19.64,19.64,0,0,1,28,282.73c-11.36-.67-17.71-12.58-18.61-14.33"/></g></g></svg>