<svg xmlns="http://www.w3.org/2000/svg" viewBox="0 0 220.62 440.43"><defs><style>.cls-1{fill:#964a32;}.cls-2{fill:#5e352a;}.cls-3{fill:#683b2d;}.cls-4{fill:none;stroke:#000;stroke-linecap:round;stroke-miterlimit:10;}.cls-5{fill:#fff;}.cls-6{fill:#2f7734;}.cls-7{fill:#f7f7f7;}.cls-8{fill:#14223c;}.cls-9{fill:#5576a5;}.cls-10{fill:#5d1000;}.cls-11{fill:#320406;}</style></defs><g id="Camada_2" data-name="Camada 2"><g id="Pronto"><path d="M85.3,23.43c-2.4,1.05-4-1.81-7.19-1.79-8.53,0-19.38,20.19-20.69,32.37a14.3,14.3,0,0,1-3.6,8.1c-1.44,1.47-4,2.71-5.39,1.79a3.06,3.06,0,0,1-.9-3.59c1.15-2.5,6.19-1.75,6.29-2.7s-4.9-3.72-8.09-1.8-3.45,7.79-.9,10.79c3,3.5,9.52,2.73,12.59,0,2.3-2,2.16-4.76,4.5-5.39,2.06-.57,4.55.91,4.49,1.79s-2.81.6-5.39,2.7a9.17,9.17,0,0,0-3.2,5.44c-.49,4.29,4.28,5.42,4.11,9.57-.17,3.91-3.54,4.35-6.84,10.94C53.41,95,52,97.76,52.35,101.23c.52,5.52,5.14,10.42,8.21,13.67,2.43,2.59,3.78,3.38,4.1,5.48.46,2.94-1.42,6.39-4.1,8.2-3.62,2.45-6.79.6-8.21,2.74s.17,6.14,2.74,8.2,6.44,2.25,6.84,1.37c.51-1.14-4.73-3.88-4.11-5.47.42-1.08,2.93-.08,5.47-1.37,4.17-2.11,4.49-8.35,5.48-8.2s-.87,7.42,2.73,10.94c2.94,2.87,8.16,1.87,8.21,2.73s-6.74.74-8.21,4.11c-1,2.22.47,5.77,2.74,6.84,2.65,1.24,5.68-1.29,6.84,0,1,1.11-.59,3.77,0,4.1s2.49-3.86,5.47-4.1c0,0,1.24-.11,6.84,4.1-.63,3.51-2,7.85-5.48,9.57-3.79,1.89-8.12-.31-8.2,0s8.68,5.74,16.41,2.74c4.07-1.58,4.59-4.18,8.21-6.84,6-4.41,12.39-2.94,21.88-2.73,22.84.49,39.62-2.08,39.67-1.37s-24,3.09-23.92,4.19c0,.63,8.07,1.46,26.08,3.6,2.75.33,6.75.84,7.19,2.7.3,1.25-1.06,3-2.69,3.59-3.13,1.07-6.35-2.6-7.2-1.79-.65.62.45,3.62,2.7,5.39,3.15,2.49,8.19,2.32,11.69,0,2.6-1.72,5.45-5.36,4.5-8.09-1.3-3.68-8.73-3.44-8.78-5.49,0-1.17,2.37-2.24,4.1-2.73,6.25-1.77,9.68,3.06,15,1.36,3.58-1.13,6-4.51,5.47-5.47s-3.33.56-8.21,0c-2.75-.32-6.76-1.35-6.83-2.73-.07-1.16,2.61-2.17,4.1-2.74,7.25-2.75,10.19-.22,13.68-2.73,3.07-2.22,4.18-6.62,4.1-9.58-.1-3.91-2.27-5.9-1.37-6.84,1.15-1.19,6.26.36,8.21,4.11,2.1,4-2.28,9-1.37,9.57s5.13-3,6.84-8.21c.56-1.7,1.7-5.13,0-8.2-1.27-2.3-3.47-3.25-5.47-4.11-4.33-1.86-8-.56-8.21-1.36s4.52-1.7,8.21-5.48c2.56-2.61,5.26-7.63,4.1-12.31-1-4.22-5.55-9.37-8.44-10.81-.37-.18-1.67-.78-1.8-1.8a2.32,2.32,0,0,1,.9-1.79c1.23-1,2.46-.15,3.87-.64,2.51-.88,4.12-5.53,2.74-8.21-.89-1.72-2.92-2.16-2.74-2.73.26-.84,4.49.75,6.84-1.37a4.62,4.62,0,0,0,1.37-2.74c.42-3.22-3.26-6.71-6.84-8.2s-5.75-.46-7-2.19c-.93-1.26-.34-2.73.2-6,0,0,.09-.55.22-2,0,0,.42-4.09.48-7.28.09-4.76-8.05-28.19-24.28-28.78-6.28-.23-12.81,3-12.59,4.49.37,2.55,20.88,5.6,25.18-2.69,2.55-4.93-1.28-12.58-4.5-16.19a10,10,0,0,0-3.6-2.7c-2.43-1-6.46-1.52-9,.9a5.74,5.74,0,0,0-1.8,3.6c-.29,3.54,3.24,6.78,4.5,6.29s-.08-4.29,1.8-5.39c1.16-.69,3.21-.12,3.59.9.7,1.86-3.65,6.8-7.19,6.29C175.91,13,176,7,170,2.75A13.4,13.4,0,0,0,162.12,0h-.35a16.65,16.65,0,0,0-8.12,2.74c-6.6,4.17-57.18-4.72-64.75,9C86.54,16,88.64,22,85.3,23.43Z"/><path class="cls-1" d="M77.34,297.31c-1.11,1-3.21,3.64-1.46,23.32A250.84,250.84,0,0,0,81,353.41c9.3,41.67,14.1,62.63,21.13,69.22,1.47,1.38,8.94,8.11,7.28,11.66-1,2-4.44,2-4.37,2.91.1,1.26,7.14,1.57,11.66,1.46,5.62-.15,6.74-1,7.29-1.46,2.53-2.37,1.72-7,1.45-8.74-1.48-9.62,1.36-19.42,1.46-29.15.22-20.55,2-17.6,1.46-30.6-.44-11.61-1.76-12.35-2.92-29.14-1.2-17.44.16-17.63-1.45-21.86C117,299.54,86.56,288.85,77.34,297.31Z"/><path class="cls-1" d="M169.23,292.53c1.11.68,4,2.94,5.87,22.61a229.33,229.33,0,0,1,.59,33.9c-2.45,56.12-.83,62.83-6.88,71.23-1.21,1.67-7.23,9.67-4.93,12.83,1.32,1.82,4.75,1.14,4.85,2,.14,1.25-6.71,2.9-11.17,3.65-5.54.93-6.79.36-7.43,0-2.94-1.85-3-6.54-3.1-8.3-.38-9.72-5-18.81-7-28.33-4.13-20.14-5.26-16.91-7.26-29.77-1.79-11.48-.63-12.46-2.7-29.16-2.14-17.35-3.51-17.28-2.74-21.73C130.68,302.29,158.56,286,169.23,292.53Z"/><path class="cls-2" d="M122.51,156c1.24,11,0,13.12,0,13.12-2.42,3.63-6.67,2.59-10.2,5.82-4.74,4.34-3.49,11.64-3.64,18.22-.13,5.5-4,14.35-11.66,32.06-7.12,16.38-12,24.18-16,39.34-.74,2.76-1.24,4.87-1.46,5.83-2.12,9.45-4,18-2.91,27.68.52,4.54,2.36,20.59,13.84,27a15.61,15.61,0,0,0,2.48,1.15c4.66,1.67,12.06,1.45,39.78-1.15,12.29-1.15,14.31-1.43,17.48-2.91,12.59-5.88,17.67-18.65,18.95-21.86,4.49-11.3,3.14-21.17,1.45-33.52-1.09-8-2-8.15-7.28-27.68-7.41-27.28-11.11-40.93-10.2-46.63.77-4.85,2.94-13.45-1.46-17.49-2.54-2.33-5.5-1.51-7.28-4.37s.29-5,0-11.65c-.19-4.19-.36-7.91-2.92-10.2-3.32-3-9.24-2.3-13.11,0A13.83,13.83,0,0,0,122.51,156Z"/><path class="cls-3" d="M131.19,175.39c.13.67-1.72,1.23-5,3.25-8.27,5-11.25,10.28-15,13.87-4.28,4.06-11.36,5.38-25.52,8-18.91,3.51-28.37,5.27-38.07,2.21-4.69-1.48-9.79-4-14.48-1.61-3.19,1.61-3.72,4.22-9,7.5-3.82,2.34-3.91,1.22-7.11,3.31-5.32,3.47-5.57,6.89-11,9.62-1.93,1-4.06,2-5.12,1.19-2.15-1.69.82-10.48,5.67-16.67,7-8.87,17-11.43,19.21-11.94,4.7-1.08,5.3-.13,11.3-1.38a56.92,56.92,0,0,0,15.29-5.63c7.11-3.6,16.68-5.18,35.82-8.32C105,176,130.71,173,131.19,175.39Z"/><path class="cls-3" d="M148.86,173.58c-.55.39.41,2.06,1.46,5.82,2.58,9.32,1.15,15.2,1.45,20.4.34,5.89,4.6,11.7,13.12,23.32,11.37,15.51,17.06,23.27,26.23,27.68,4.42,2.14,9.86,3.79,11.65,8.75,1.22,3.35-.19,5.62,1.46,11.65,1.18,4.33,2,3.58,2.91,7.29,1.5,6.17-.65,8.83,1.46,14.57.75,2,1.57,4.25,2.92,4.37,2.71.24,6.58-8.19,7.28-16,1-11.22-4.57-20-5.83-21.85-2.68-4-3.76-3.73-7.28-8.75a57.08,57.08,0,0,1-7.29-14.57c-2.71-7.5-8.61-15.2-20.4-30.6C167.5,191.92,150.87,172.14,148.86,173.58Z"/><path class="cls-3" d="M204.73,267.13c-.83,0-1.43.85-2.37,2.24-1.67,2.46-3,4.39-2.51,6.84.26,1.34,1.2,3.61,2.65,3.76,2.31.25,5.72-4.84,4.88-9.07C207.06,269.3,206,267.16,204.73,267.13Z"/><path class="cls-3" d="M26.45,204.11c.68.47.65,1.54.59,3.21-.1,3-.18,5.3-2,7-1,.93-3.1,2.21-4.36,1.47-2-1.16-1.76-7.28,1.41-10.2C23.28,204.48,25.4,203.38,26.45,204.11Z"/><path class="cls-3" d="M192.6,91.32c1.8-2.58,3.29-3.37,4.43-3.7,3.14-.91,6.4.81,8.22,2.66C208.09,93.16,208,97,208,99a14.38,14.38,0,0,1-3.91,10,13.09,13.09,0,0,1-8.27,3.89c-1.7.12-3.41.23-4.86-.71C186.41,109.23,188,98,192.6,91.32Z"/><path class="cls-3" d="M193.89,103.73c-.22,1.7-.91,8.47-1,15.22,0,1.5,0,3.1.09,5,.19,4,.49,5.42,0,8.27-1.39,8-6.73,14-7.85,15.17l-.41.44A51.61,51.61,0,0,1,171.85,157c-.34.17-2.1,1.07-4.53,2.06a80,80,0,0,1-11.08,3.45,90.28,90.28,0,0,1-22,1.84,105.08,105.08,0,0,1-13.77-.92s-14.43-2-25.72-7.35c-1.52-.72-2.91-1.44-4.17-2.14a61.16,61.16,0,0,1-6.85-4.28,26.08,26.08,0,0,1-8.26-11.94c-1.23-3.73-1.2-6.75-.92-11.94.21-3.83.38-5.59.67-9.32.15-1.78.23-3.38.28-4.85.18-5.24,0-9.55,0-10.62C75,90,74,66.72,77.27,55.06c5.91-20.76,35.43-39.43,65.19-36.73,22.35,2,46.41,16.28,52.35,35.82C198.64,66.77,196.22,85.62,193.89,103.73Z"/><path class="cls-3" d="M76.27,94.21c-1.66-2.68-3.12-3.54-4.23-3.93-3.09-1.08-6.44.47-8.35,2.22-3,2.72-3.14,6.54-3.22,8.56a14.29,14.29,0,0,0,3.37,10.21,13.07,13.07,0,0,0,8,4.33c1.69.21,3.39.41,4.89-.45C81.51,112.42,80.56,101.11,76.27,94.21Z"/><path class="cls-2" d="M122.17,113.37c-1.24-2.09,3.87-9.9,10.87-10.66,7.44-.81,14.31,6.64,13.41,8.86-.47,1.18-2.95.39-10.79.9C126.06,113.09,123,114.71,122.17,113.37Z"/><path class="cls-4" d="M119.71,130.81a20.08,20.08,0,0,0,4.67,3.11A20.94,20.94,0,0,0,138,135.41c3.37-.85,6.15-2.6,9.34-4.6,1-.62,1.78-1.17,2.34-1.56"/><path class="cls-5" d="M154.46,98.17a13.41,13.41,0,0,1,0-4.73c.58-2.92,2.13-4.78,3.87-6.89a19.45,19.45,0,0,1,6-5.16,19.78,19.78,0,0,1,4.73-1.72,16.91,16.91,0,0,1,6-.43A13.11,13.11,0,0,1,182,81.82a12.49,12.49,0,0,1,4.3,6.46,13.75,13.75,0,0,1-.43,8.17,21.08,21.08,0,0,1-6,9,15.1,15.1,0,0,1-2.58,2.15,14.77,14.77,0,0,1-7.75,2.15,16,16,0,0,1-7.31-1.29,12.7,12.7,0,0,1-5.6-4.3A13.09,13.09,0,0,1,154.46,98.17Z"/><path d="M113.18,15.34C125.31,9.55,146,6.54,155.45,18c7,8.53,3.21,20.81,2.7,22.48-2.88,9.37-10.75,16.95-19.79,18.89-2.25.48-8.39,1.8-13.49-1.8-3.6-2.54-7-7.66-5.4-10.79,1.36-2.59,5.91-3.35,6.3-2.7.18.3-.64.72-.9,1.8-.48,2,1.18,5,3.6,5.39A4.24,4.24,0,0,0,133,48.62c.89-3.54-5.78-10.62-12.59-9.9a11.08,11.08,0,0,0-8.09,5.4c-2.76,4.73.42,8-1.8,11.69-2.55,4.21-8.15,1.88-17.09,5.4-3.73,1.46-13,5.11-16.18,13.49C74.79,81.08,81,84.14,79.9,93.58c-.74,6.71-4.4,12.91-6.29,12.59S72.29,98.91,70,85.49c-1.86-11-3.2-11.88-3.6-16.19C65,54,80.88,41.28,99.69,25.23,105.81,20,109,17.36,113.18,15.34Z"/><path d="M157.25,14.44c-4.22,1.78-7,7.44-6.3,11.69.91,5.66,7.93,9,11.69,10.79,4.43,2.11,5.12,1.25,10.79,3.6,5.9,2.44,12.14,5,12.6,9s-5.71,5.33-7.2,12.6c-.22,1.09-1.33,6.51,1.8,9,2.62,2.07,7.59,1.59,9-.9a4.33,4.33,0,0,0,0-3.6c-1.08-2.36-4.13-3.17-4.49-2.7s2.34,2.44,1.79,3.6-3.45,1.26-4.49,0c-1.47-1.77.53-6.92,2.7-7.19,3-.38,8,8.39,9,17.08,1.5,13.76-7.57,23.25-4.5,26.08,1.62,1.49,6.17-.07,9-2.69,4.22-3.92,4.55-10.16,3.59-20.69-1.56-17.25-2.35-25.88-6.29-34.17C187.08,27.34,167.29,10.2,157.25,14.44Z"/><path d="M153.6,96.88A6.13,6.13,0,0,0,154,99c.17,0,.05-1.81.43-3.87a16.79,16.79,0,0,1,1.72-4.73,18.32,18.32,0,0,1,5.17-6.89,16.84,16.84,0,0,1,6.45-3,16.06,16.06,0,0,1,6.89-.43,14.88,14.88,0,0,1,5.59,2.15,11.16,11.16,0,0,1,3.87,3.87,11,11,0,0,1,1.29,4.31,16.1,16.1,0,0,1-.86,7.74c-2,5.33-6.25,7.92-6,8.18s3.22-1.57,5.59-4.74a17.11,17.11,0,0,0,3-6.45,14.27,14.27,0,0,0,0-7.74,13.48,13.48,0,0,0-2.58-4.74A14.9,14.9,0,0,0,176.84,78a17.18,17.18,0,0,0-6.46-.43,17.52,17.52,0,0,0-7.74,3,20.85,20.85,0,0,0-6.46,6.89C155.25,89,153.24,92.6,153.6,96.88Z"/><path d="M114.08,72c.61,1.18,1,3.26,0,4.49-2.24,2.74-8.69-1.91-18.89-1.79-8.51.09-13.13,3.43-13.49,2.69-.43-.9,10.34-10.18,22.94-9C107.14,68.64,112.39,68.72,114.08,72Z"/><path class="cls-5" d="M116.45,99.08a13.48,13.48,0,0,0,0-4.74c-.58-2.92-2.13-4.78-3.87-6.88a19.45,19.45,0,0,0-6-5.17,19.78,19.78,0,0,0-4.73-1.72,17.15,17.15,0,0,0-6-.43,13.11,13.11,0,0,0-6.88,2.58,12.49,12.49,0,0,0-4.3,6.46A13.74,13.74,0,0,0,85,97.35a21,21,0,0,0,6,9,15.1,15.1,0,0,0,2.58,2.15,14.69,14.69,0,0,0,7.75,2.15,16,16,0,0,0,7.31-1.29,12.7,12.7,0,0,0,5.6-4.3A13.1,13.1,0,0,0,116.45,99.08Z"/><path d="M155.11,71.92c-.61,1.18-1,3.25,0,4.49,2.24,2.74,8.68-1.91,18.88-1.8,8.52.1,13.14,3.44,13.49,2.7.44-.9-10.33-10.18-22.93-9C162.05,68.56,156.8,68.64,155.11,71.92Z"/><path class="cls-6" d="M148.63,172.1c2.2-1.43,6.83,1,20.37,13,11,9.66,16.47,14.49,17.76,17.76,5.15,13-1.9,31.59-9.7,32.74-5.95.88-11.77-9.89-23.42-31.43,0,0-8.78-16.25-6.32-29.62A3.52,3.52,0,0,1,148.63,172.1Z"/><path d="M175,432.76c.07,1.07-1.82,1.87-7.36,3.64-6.31,2-9.66,2.83-14,3-3.56.1-4.43-.36-5.08-1-2-2-1.18-5.05-2.52-11.93-1.46-7.47-3.59-9.71-2.53-11.92.35-.73,1.2-1.75,7.77-1.65,8.23.13,9.74,1.76,14.83,1,4.42-.65,7.41-2.47,7.77-1.65s-2.3,2.46-5,7.28c-1.32,2.4-2.55,4.71-1.84,6.62.23.63.58.93,2.05,2l.44.31,1.13.79h0l.32.24.3.21C174.68,432,175,432.33,175,432.76Z"/><path class="cls-6" d="M131,175.35c-.78-2.51-5.91-3.58-23.94-3.13-14.62.37-21.93.55-25,2.24-12.31,6.7-18.8,25.45-13.55,31.34,4,4.48,15.37,0,38.12-9.1,0,0,17.16-6.83,23.85-18.66A3.52,3.52,0,0,0,131,175.35Z"/><path class="cls-7" d="M169.62,428.42a2.65,2.65,0,0,0-.69,0,3.71,3.71,0,0,0-2.14,1.23,5.1,5.1,0,0,0-1,1.47c-.27-.3,1.16-2.9,3.22-3h.22Z"/><path class="cls-7" d="M171.38,429.66a2.65,2.65,0,0,0-.6-.13,3.65,3.65,0,0,0-2.36.72,5,5,0,0,0-1.35,1.17c-.2-.33,1.7-2.45,3.68-2.21h0l.32.24Z"/><path d="M100.77,437.43c.13,1.06,2.13,1.5,7.9,2.23,6.56.84,10,1,14.29.37,3.52-.54,4.29-1.16,4.81-1.9,1.63-2.33.25-5.18.32-12.19.07-7.61,1.76-10.2.32-12.18-.48-.66-1.5-1.5-7.94-.21-8.07,1.62-9.26,3.49-14.4,3.69-4.47.17-7.74-1.07-7.94-.2s2.71,2,6.19,6.25c1.74,2.12,3.37,4.17,3,6.17-.12.67-.4,1-1.66,2.32-.11.12-.23.26-.37.39l-1,1h0l-.27.29a3.07,3.07,0,0,0-.25.26C101,436.59,100.73,437,100.77,437.43Z"/><path class="cls-7" d="M105.31,432.17a2.75,2.75,0,0,1,.68-.12,3.69,3.69,0,0,1,2.33.82,5.39,5.39,0,0,1,1.3,1.25c.21-.34-1.67-2.64-3.72-2.38l-.22,0C105.57,431.9,105.45,432,105.31,432.17Z"/><path class="cls-7" d="M103.81,433.71a3.25,3.25,0,0,1,.56-.24,3.68,3.68,0,0,1,2.45.28,5.12,5.12,0,0,1,1.54.91c.14-.36-2.11-2.1-4-1.5h0l-.27.29A3.07,3.07,0,0,0,103.81,433.71Z"/><path class="cls-8" d="M74.51,286.94c6.41-9.14,22.79-1.18,53.06-1.8,25.72-.53,43.26-6.89,47.66.9.38.66.45,1,.9,6.29,1.58,18.1,1.8,23.39,1.8,23.39.59,13.86.89,20.79.9,24.28.09,19.45-1.86,18.58-1.8,35.07,0,0,1.9,24.47,0,36a8.79,8.79,0,0,1-2.7,5.39c-2,1.7-4.43,1.73-6.29,1.8-12.48.48-13.88,3.38-22.48,1.8-3.44-.63-5.15-1-6.3-1.8-5.51-4.09-1.59-12.46-4.5-28.78-1.49-8.39-2.22-8.3-3.59-17.09-.89-5.63-1.09-8.87-1.8-17.08-1.06-12.21-2.51-27-2.7-27s0,13.53,1.8,30.57c1.66,16.18.85,32.73,4.49,48.57.61,2.62,2.61,10.92-.89,13.49-.67.49-1.48.73-5.4.9-4.54.19-7.23,0-9.89,0a99.45,99.45,0,0,0-14.39.9c-5.71.72-5.31,1.15-6.3.9-6.53-1.67-7.21-16.07-11.69-40.47-1.63-8.88-1-3.78-4.5-21.59-3.42-17.23-7.38-38.83-7.19-63.85C72.76,291,73.07,289,74.51,286.94Z"/><path class="cls-9" d="M90.7,412.84c-2.33,2.9,1.15,11.43,7.19,15.29,1.59,1,3.29,1.67,22.48.9,8.33-.33,10.86-.57,12.59-2.7,2.18-2.67,2-7,1.8-11.69-.13-3.12-.19-4.69-.9-5.39-3.12-3.15-10.94,4.5-23.38,5.39C99.07,415.46,93,409.93,90.7,412.84Z"/><path class="cls-9" d="M135.68,409c-2.34,2.9,1.15,11.42,7.19,15.29,1.59,1,3.29,1.67,22.48.9,8.33-.33,10.86-.57,12.59-2.7,2.18-2.67,2-7,1.8-11.69-.13-3.13-.19-4.69-.9-5.39-3.12-3.15-10.94,4.5-23.38,5.39C144.05,411.61,138,406.08,135.68,409Z"/><path class="cls-6" d="M119.87,168.55c1.45.3,3.07,1.95,8.12,3.44,3.53,1,6.1,1.89,9.06,1.29,5.95-1.18,7.47-5.73,10.34-5.17,3.69.73,5,8.95,5.18,10.35,2.78,17.88,8,35.3,11.64,53,4.07,19.83,6.76,16.93,11.64,40.09,5.51,26.16,5.12,33.4,1.29,38.81-4.84,6.84-12.94,8.8-22.2,11-11.28,2.74-13,.17-37.77.9-12.87.38-16.52,1.2-25.18,0C82.47,321,75.41,320.05,71.31,316c-8.46-8.26-1.61-26.7,7.53-53.51C92.92,221.25,110.23,166.55,119.87,168.55Z"/><path d="M117.31,97.78a6.27,6.27,0,0,1-.43,2.16c-.17,0,0-1.82-.43-3.88a16.79,16.79,0,0,0-1.72-4.73,18.22,18.22,0,0,0-5.17-6.88,16.75,16.75,0,0,0-6.45-3A16.06,16.06,0,0,0,96.22,81a15,15,0,0,0-5.59,2.15A11.11,11.11,0,0,0,86.76,87a10.86,10.86,0,0,0-1.29,4.3,16.27,16.27,0,0,0,.86,7.75c2,5.32,6.25,7.92,6,8.17s-3.22-1.57-5.59-4.73a17.2,17.2,0,0,1-3-6.46,14.26,14.26,0,0,1,0-7.74,13.48,13.48,0,0,1,2.58-4.74,14.9,14.9,0,0,1,7.74-4.73,17,17,0,0,1,14.2,2.58,20.85,20.85,0,0,1,6.46,6.89C115.66,89.93,117.67,93.5,117.31,97.78Z"/><path class="cls-10" d="M174.08,82.46a11.74,11.74,0,0,0-6.88,0,9.9,9.9,0,0,0-7.31,6.89,13,13,0,0,0-.87,7.31,11.66,11.66,0,0,0,3,6,11.16,11.16,0,0,0,17.21-1.3,12.88,12.88,0,0,0,2.15-9,11.11,11.11,0,0,0-2.15-6.46A10.43,10.43,0,0,0,174.08,82.46Z"/><path class="cls-11" d="M173.12,84.32a9.56,9.56,0,0,0-5.63,0,8.61,8.61,0,0,0-3.87,2.11A8.92,8.92,0,0,0,161.51,90a10.71,10.71,0,0,0-.71,6,9.47,9.47,0,0,0,2.47,4.93,9.13,9.13,0,0,0,14.08-1,10.57,10.57,0,0,0,1.76-7.4,9.14,9.14,0,0,0-1.76-5.28A8.45,8.45,0,0,0,173.12,84.32Z"/><path class="cls-5" d="M161.9,93.36a3.69,3.69,0,0,0-1.72,2.15,4,4,0,0,0,.86,3.87,3.58,3.58,0,0,0,2.58,1.29,3.77,3.77,0,0,0,3-1.72,4.07,4.07,0,0,0,.43-3.44,3.7,3.7,0,0,0-1.72-2.15A3.62,3.62,0,0,0,161.9,93.36Z"/><path class="cls-5" d="M178.16,87a1.4,1.4,0,0,0-.63.79,1.45,1.45,0,0,0,.32,1.4,1.31,1.31,0,0,0,.93.47,1.4,1.4,0,0,0,1.1-.62,1.54,1.54,0,0,0,.16-1.25,1.4,1.4,0,0,0-.63-.79A1.32,1.32,0,0,0,178.16,87Z"/><path class="cls-10" d="M104.83,83.26a11.74,11.74,0,0,0-6.88,0,10.62,10.62,0,0,0-4.74,2.59,10.92,10.92,0,0,0-2.58,4.3,13.09,13.09,0,0,0-.86,7.31,11.62,11.62,0,0,0,3,6A11.18,11.18,0,0,0,110,102.2a12.92,12.92,0,0,0,2.15-9A11.14,11.14,0,0,0,110,86.71,10.4,10.4,0,0,0,104.83,83.26Z"/><path class="cls-11" d="M104.87,85.12a9.56,9.56,0,0,0-5.63,0,8.61,8.61,0,0,0-3.87,2.11,8.92,8.92,0,0,0-2.11,3.52,10.64,10.64,0,0,0-.71,6A9.4,9.4,0,0,0,95,101.66a9.12,9.12,0,0,0,14.07-1,10.49,10.49,0,0,0,1.76-7.39,9,9,0,0,0-1.76-5.28A8.47,8.47,0,0,0,104.87,85.12Z"/><path class="cls-5" d="M92.64,94.16a3.74,3.74,0,0,0-1.72,2.15,4,4,0,0,0,.86,3.87,3.64,3.64,0,0,0,2.59,1.3,3.75,3.75,0,0,0,3-1.73,4.11,4.11,0,0,0,.43-3.44,3.81,3.81,0,0,0-1.72-2.15A3.64,3.64,0,0,0,92.64,94.16Z"/><path class="cls-5" d="M107.91,88.77a1.36,1.36,0,0,0-.63.79,1.49,1.49,0,0,0,.31,1.41,1.28,1.28,0,0,0,.94.46,1.35,1.35,0,0,0,1.1-.62,1.48,1.48,0,0,0,.15-1.25,1.29,1.29,0,0,0-1.87-.79Z"/></g></g></svg>