<svg xmlns="http://www.w3.org/2000/svg" viewBox="0 0 244 139.92"><defs><style>.cls-1{fill:#2b2b37;}.cls-2{fill:#991680;}.cls-3{fill:none;stroke:#f8c25e;stroke-miterlimit:10;stroke-width:4px;}</style></defs><g id="Camada_2" data-name="Camada 2"><g id="Camada_1-2" data-name="Camada 1"><path class="cls-1" d="M78.79,105.49c-29.43,2.41-42,6.3-46.32,7.72C18.51,117.8-1,126.74,0,131.74c.69,3.12,9.21,3.7,24.71,4.63a298.74,298.74,0,0,0,37.05,0c29.68-2,30.82-4.55,46.32-4.63,16.81-.09,15.57,2.89,43.24,6.18,20.62,2.44,43.3,3.4,67.93-1.55,8.16-1.63,24.34-5,24.71-10.81.2-3.24-4.62-6.06-7.72-7.72-23.12-12.32-51.4-13.62-58.67-13.89-19.36-.73-33.24-.5-60.22,0C95.4,104.35,86.89,104.83,78.79,105.49Z"/><path class="cls-1" d="M77.24,114.76c-.74,1.88-.27,4.59,0,4.63.66.08,2.2-14.33,6.18-30.88,1.36-5.65,1.76-6.41,10.81-34,7.23-22,9.08-28,11.86-31.69.71-.94,1.65-1.86,2-2.28A90,90,0,0,1,126.65,5.13c10.24-6,22-5.43,37.06-4.63,16.72.89,27.24,1.39,37.06,9.26,8.71,7,12.21,15.71,13.89,20.08,5.76,15,4,30.49,1.55,30.88-1.89.3-1.78-12.73-12.36-21.62a30.81,30.81,0,0,0-12.35-6.18c-.79-.2-17.53-4.31-27.79,4.64-13.26,11.55-6.37,36.78-4.63,43.23,5.3,19.71,14.94,23.75,12.35,29.33C164.06,126,83,100.21,77.24,114.76Z"/><path class="cls-2" d="M85,80.79a8.71,8.71,0,0,0,1.55,0c0-.1-2.94-1.06-4.63,0s-1.3,4-1.55,7.72c-.61,9.22-5.23,12.24-3.09,15.44,1.1,1.64,3,2.28,7.72,3.09,12.16,2,18.53,1.54,18.53,1.54,12.17-1,25.42-.57,44.78,0,12,.36,19,1.11,21.62-3.09,1-1.68.71-4.74,0-10.81-1.09-9.27-1.69-13.93-4.64-15.44-2.1-1.07-3.59.21-9.26,1.55-4.06,1-8.37,1.15-17,1.54-4.94.23-10.65.29-17,0"/><rect class="cls-3" x="111.21" y="80.79" width="26.25" height="26.25" rx="2.77"/></g></g></svg>