<svg xmlns="http://www.w3.org/2000/svg" viewBox="0 0 158.03 90.62"><defs><style>.cls-1{fill:#2b2b37;}.cls-2{fill:#991680;}.cls-3{fill:none;stroke:#f8c25e;stroke-miterlimit:10;stroke-width:4px;}</style></defs><g id="Camada_2" data-name="Camada 2"><g id="Camada_1-2" data-name="Camada 1"><path class="cls-1" d="M51,68.32c-19.06,1.56-27.21,4.09-30,5-9,3-21.71,8.76-21,12,.44,2,6,2.4,16,3a193,193,0,0,0,24,0c19.22-1.3,19.95-2.94,30-3,10.88,0,10.08,1.88,28,4,13.35,1.59,28.05,2.21,44-1,5.28-1.06,15.76-3.24,16-7,.13-2.1-3-3.92-5-5-15-8-33.29-8.82-38-9-12.54-.47-21.53-.32-39,0C61.79,67.59,56.28,67.89,51,68.32Z"/><path class="cls-1" d="M50,74.32a4.28,4.28,0,0,0,0,3c.42.06,1.42-9.27,4-20,.88-3.65,1.14-4.15,7-22,4.68-14.26,5.88-18.11,7.68-20.52A18.44,18.44,0,0,1,70,13.32a58.16,58.16,0,0,1,12-10c6.63-3.92,14.23-3.51,24-3,10.83.58,17.64.9,24,6a29.53,29.53,0,0,1,9,13c3.73,9.7,2.56,19.75,1,20-1.22.2-1.15-8.24-8-14a20,20,0,0,0-8-4c-.52-.13-11.36-2.79-18,3-8.59,7.49-4.13,23.83-3,28,3.43,12.77,9.68,15.39,8,19C106.26,81.61,53.73,64.9,50,74.32Z"/><path class="cls-2" d="M55,52.32a4.82,4.82,0,0,0,1,0,3.91,3.91,0,0,0-3,0c-1.17.74-.84,2.6-1,5-.4,6-3.39,7.93-2,10,.71,1.06,1.91,1.48,5,2a54.5,54.5,0,0,0,12,1c7.88-.62,16.46-.37,29,0,7.8.24,12.31.72,14-2,.67-1.08.46-3.07,0-7-.7-6-1.1-9-3-10-1.37-.69-2.33.14-6,1-2.63.63-5.42.75-11,1-3.2.15-6.9.19-11,0"/><rect class="cls-3" x="72.03" y="52.32" width="17" height="17" rx="2.77"/></g></g></svg>