<svg xmlns="http://www.w3.org/2000/svg" viewBox="0 0 130 175.84"><defs><style>.cls-1{fill:#deb69c;}.cls-2{fill:#990d1a;}.cls-3{fill:#232c3d;}</style></defs><g id="Camada_2" data-name="Camada 2"><g id="Camada_1-2" data-name="Camada 1"><path class="cls-1" d="M112.32,116.82c-2.53,2.73-13.54-3-20.13-9-5.87-5.37-12.88-15.25-10-19.69,1.24-1.91,3.91-2.18,4.54-2.25C99.68,84.49,116.4,112.41,112.32,116.82Z"/><path class="cls-1" d="M4.6,111.23c-2.07-3.09,6-12.49,13.44-17.51,6.57-4.46,17.8-9,21.45-5.14,1.57,1.65,1.23,4.31,1.15,4.94C39,106.39,8,116.22,4.6,111.23Z"/><path class="cls-1" d="M75.35,175.84c-3.7.33-8-11.3-8.89-20.2-.76-7.91.66-19.94,5.79-21.29,2.21-.58,4.37,1,4.89,1.37C87.63,143.37,81.33,175.3,75.35,175.84Z"/><path class="cls-1" d="M50.48,175.61c-3.71,0-7.18-11.86-7.36-20.8C43,146.86,45.26,135,50.48,134c2.24-.41,4.29,1.32,4.77,1.73C65.14,144.15,56.49,175.52,50.48,175.61Z"/><ellipse class="cls-2" cx="61.53" cy="110.07" rx="31.2" ry="48.53"/><ellipse class="cls-1" cx="62.83" cy="48.1" rx="39.43" ry="35.97"/><path class="cls-3" d="M81.1,21.37c.14.37-2,1.21-5.47,3.47-1,.64-7.85,5.05-7.3,6.07.42.8,5.56-.31,10-2.6s6.55-4.89,7.3-4.34-.17,3.25-1.82,5.2c-1.47,1.74-2.89,2-2.74,2.6.25.94,4.45,1.66,7.3,0,.85-.49,1.32-1,1.83-.86.84.29.65,2.16.91,4.33.22,1.82.58,2.46,1.83,6.07,2.11,6.13,3.16,9.2,3.65,12.13a25.58,25.58,0,0,1,0,10.4c-1.68,7.09-6.7,11-6.39,11.27s7.82-4.82,11.86-13.87a34.1,34.1,0,0,0,2.74-15.6,30.94,30.94,0,0,0-2.74-13c-3-6.42-7.76-9.95-11.86-13a55.78,55.78,0,0,0-21-9.53c-4.68-1.06-11.5-2.52-20.08-.87A35.72,35.72,0,0,0,31.82,17a31.81,31.81,0,0,0-10,16.47c-2.12,8.3-.27,15,.92,19.06,2.35,8.11,6.59,14.15,7.3,13.87s-4.11-8-2.74-18.2a24.69,24.69,0,0,1,5.47-13c4.61-5.46,10.61-7.42,14.61-8.67,7.11-2.22,8.27-.49,20.07-2.6C75.1,22.6,80.86,20.75,81.1,21.37Z"/><circle class="cls-3" cx="16.9" cy="16.9" r="16.9"/><circle class="cls-3" cx="113.1" cy="30.77" r="16.9"/><ellipse class="cls-3" cx="43.77" cy="45.07" rx="3.03" ry="4.33"/><ellipse class="cls-3" cx="77.57" cy="45.93" rx="3.03" ry="4.33"/></g></g></svg>