<svg xmlns="http://www.w3.org/2000/svg" viewBox="0 0 60 186"><defs><style>.cls-1{fill:#858377;}.cls-2{fill:#c8c5b2;}.cls-3{fill:#707271;}</style></defs><g id="Camada_2" data-name="Camada 2"><g id="Camada_1-2" data-name="Camada 1"><path class="cls-1" d="M56,36C55,52.17,44.08,73,30,73S5.18,51.94,4,36C2.9,21.14,9.55,3.65,19,1A49.07,49.07,0,0,1,30,0,49.46,49.46,0,0,1,40,1C49.53,3.55,56.93,20.86,56,36Z"/><rect class="cls-2" y="24" width="60" height="8" rx="4"/><path class="cls-3" d="M39.93,186H19.07A4.07,4.07,0,0,1,15,181.94V71.07a4.19,4.19,0,0,1,1.19-2.88A4.08,4.08,0,0,1,19.07,67H39.93A4.07,4.07,0,0,1,44,71.07V181.94A4.07,4.07,0,0,1,39.93,186Z"/><rect class="cls-2" x="6" y="63" width="46" height="8" rx="4"/><rect class="cls-2" x="24" y="93" width="11" height="30" rx="2.74"/></g></g></svg>