<svg xmlns="http://www.w3.org/2000/svg" viewBox="0 0 758.93 580.44"><defs><style>.cls-1{fill:#151515;}.cls-2{fill:#0f0f0f;}.cls-3{fill:#db8fb3;}.cls-4{fill:none;stroke:#000100;stroke-miterlimit:10;}.cls-5{fill:#caca4e;}.cls-6{fill:#000100;}.cls-7{fill:#fff;}</style></defs><g id="Camada_2" data-name="Camada 2"><g id="Camada_2-2" data-name="Camada 2"><path class="cls-1" d="M256,120.56c1.46-3.61-1.2-8.44-14-22.08-8.19-8.75-14.81-14.94-16.09-16-30-25.16-33.92-24.42-51.66-40.2-9-8-19.64-18.54-36.29-25.37C127.78,12.71,125.13,14,124.23,15c-2,2.34,1.2,7.82,2.9,11.24,3.78,7.6,7.56,19.59,6.56,38.25,8.63,22.82,8.18,44.47,7.69,68.34-.45,21.93-4,31.26.48,33.67,8.13,4.38,21-25.92,53.62-37.81C225.68,117.69,252.19,130,256,120.56Z"/><path class="cls-1" d="M247.73,138.78c-6.72-3-1.51-13.76-9.24-31.36C233,95,224.36,86.25,208.31,70.71c-15.86-15.35-13.94-9.88-34-28.44,0,0-8.49-7.84-31.88-22.78-3.28-2.09-9-5.65-11.84-3.64-2.54,1.78-1.67,7.1-1,11,3,16.85,4.51,25.28,7.35,32.08,9.12,21.86.26,24.59,8.71,57.14,6.9,26.6,16.37,38.44,10.08,48.48-3,4.78-10.49,10.61-15.36,13.79-3.48,2.27-4.76,2.63-5.66,2.14-2.84-1.52.14-10.38,1.43-20.3.51-3.9-.28-13.65-1.88-33-2.19-26.51-2.95-31.86-3.38-34.75-1.78-12-2.66-17.92-4.94-24.85-2-6.2-4.19-10.74-7.67-22-1.77-5.69-2.65-8.53-3.06-11.13-.53-3.33-3.19-19.32,2.8-24.14,6.52-5.24,21.77,3.94,41.28,15.92,5.51,3.39,19.89,12.45,45.58,33.19,7.36,6,15.17,12.76,30.78,26.37,30.67,26.74,35.42,31.94,34.42,38.33C268.55,133.7,254.74,141.88,247.73,138.78Z"/><path class="cls-2" d="M289.41,309.08c46.53,13.61,110.24,23.35,160.49-9,24.27-15.63,24.75-27.77,49.84-44.87,42.64-29.07,126-51.75,191.32-5.8,66,46.43,84.86,142.73,52.18,197.12-40.89,68.08-155.37,58.67-269.59,49.28C259.82,478.21,102,383,104.73,375.4c1.13-3.18,29.61,10.18,64.27-1.63,23.44-8,39.4-24,49.24-36.31"/><path class="cls-1" d="M52.58,216.94a205.62,205.62,0,0,1-12.95,46.67c-.6,1.42-1,2.24-1.51,3.2C32.79,276.7,24.73,279.9,12,287.15c-2.23,1.26-3.5,2-4.54,2.69a31.63,31.63,0,0,0-3.75,2.51c-2.36,2.46-1.76,6.7-1.47,8.55,10.76,69.16,36.7,86.55,36.7,86.55,9.91,6.65,14.45,5.67,47.66,12.05,46.34,8.9,43.2,11.9,94,22.59,9.57,2,46.45,6.42,94.23,15.38,0,0,56,11.44,96.66-5.3a121.93,121.93,0,0,0,23.81-13.49,122.17,122.17,0,0,0,24.95-26.77c18.84-28.41,17.89-70.55,16.67-88.31-2-29.81-6-88.17-51.59-139.53C332,103.9,260.39,97,232,94.32c-18.93-1.81-57-5-99.08,12.73C119,112.92,99.36,121.46,82,141.37,56.79,170.27,53.25,203.82,52.58,216.94Z"/><path class="cls-3" d="M0,294.57a27.87,27.87,0,0,1,16.34-8.21c2.95-.34,13.11-1.51,16.77,4.7,3.07,5.22.14,13.25-4.52,16.85s-8.19,1-12.93,4.72c-6.12,4.78-5.15,13.16-7.47,13.38-1.6.14-4.06-3.64-8-19.09"/><path class="cls-2" d="M411,440c12.35,7.72,20.1,20.69,20.76,32.42a38.55,38.55,0,0,1-6.92,22c-23.69,34.35-149.93,52.79-254.38,45-40.53-3-62.19-8.86-72.67-19.88C85,506,93.91,489.91,96.1,486c13.16-23.65,52.36-33.31,65.75-36.61,20.89-5.15,38.39-5.84,48.45-6.28C347.28,437.19,384.66,423.49,411,440Z"/><path class="cls-4" d="M64.61,330.91a41.31,41.31,0,0,1-19.17,15.28c-5,1.9-14.2,5.4-23.4,1C9.6,341.29,7.76,326,7.64,324.74"/><path class="cls-5" d="M87.06,276.16c-5.89-10.32.28-24.06,9.13-41.19,9.08-17.59,15-29,29-38,5.12-3.29,21.27-13.69,40.5-9.93,13.44,2.63,23.15,11.15,28.32,15.69,8,7.05,17.81,18.75,17.81,18.75s4.57,3.54,5.47,7.33c.74,3.09-1.08,6-1.9,7.34-6.69,10.91-4.47,13.85-12.67,24.74-9.51,12.63-23.29,20.9-24.63,21.64-22.66,12.57-46,8.74-59.42,6.53C102.67,286.44,91.92,284.68,87.06,276.16Z"/><path class="cls-6" d="M127.48,214.11a14.45,14.45,0,0,1,8.82,2.79c9.87,6.69,14,30.17,6.66,50.51C139,278.3,131.73,290.23,125,290c-.46,0-.26-.07-6.38-.95-4.11-.58-6-.82-9.86-1.39-4.09-.59-6.14-.89-6.36-1-10-4.24,2.49-55.47,15.65-67.86C119.47,217.49,122.77,214.38,127.48,214.11Z"/><path class="cls-3" d="M350,157.3c1.8-3.88,4.75-5.75,7-8.59,6.33-7.91,10.24-8.71,14.4-13.17,10.69-11.5,8.17-31.34,7.37-37.65-1-7.74-2.92-10.9-4.57-24.8a120.24,120.24,0,0,1-1.06-12.29c-.56-12-.13-27.11-9.22-43-5.58-9.75-9.38-10.43-11.31-10.14-4.25.63-6.75,7-8.57,10.78C340,26.88,331.52,38.81,311.7,53.08,293,66,283.15,80.45,278.26,89.11c-5.73,10.15-12.6,22.73-8.2,35,2,5.68,5.74,9.22,8.95,12,25,22,62.89,39.09,68.65,31.27C349.21,165.34,347.45,162.78,350,157.3Z"/><path class="cls-1" d="M319.57,167.44c.84-7.09,19.66-2.09,37.45-18.73,15.18-14.19,19.72-34.89,20.08-43.88a102,102,0,0,0-.63-14.17c-1-7.66-2.93-10.72-3.31-29.86,0,0-.23-11.58-7.6-38.17-1-3.73-2.91-10.14-7.7-10.34-4.24-.17-8.78,4.62-12.05,8.16-14.14,15.33-21.21,23-25.36,30.21-3,5.29-2.88,4.1-8.2,11.57-17.8,25-19.11,25.28-22.65,32.25-4.27,8.41-8.66,17-8.77,28.7-.11,12.28,4.61,15.55,2.39,25.51-.68,3.06-3.82,14.89-15.14,20.31-9.69,4.64-22.49,3.28-29.62-4-10.83-11.12-5.08-30.72-3.14-37.31a64.33,64.33,0,0,1,13.57-24.2c7.29-8.3,14.86-12.65,30.85-28.8l1-1.05c10.37-10.65,15.56-16,20.38-22.93C305.45,44.45,308,39.47,316,28.3c4.05-5.64,6.08-8.46,8.31-10.79,2.85-3,16.46-17.42,27.08-17.51C363-.1,368.33,16.79,375,38.59c1.87,6.16,6.53,22.41,10.23,55.07,1.07,9.36,1.69,19.69,2.93,40.35,2,33.51,1.89,44.21-2.39,49.43a19.7,19.7,0,0,1-3.29,2.74C362,200.14,318.29,178.39,319.57,167.44Z"/><path class="cls-7" d="M151.57,248.11c.08.27,1.28,4.85-1.47,7.34-1.85,1.68-4.41,1.41-7.33,1.1-2-.22-3.21-.34-4.17-1.25-2-1.86-1.57-5.56-.41-7.91,1.37-2.78,4.82-5.7,8.42-4.8S151.43,247.59,151.57,248.11Z"/><path class="cls-6" d="M697.08,389.25c-59,14.3-71.53,52.49-125.28,84.4-40.69,24.16-114.77,50.49-146.92,20.7-24.18-22.4-18.92-71.22-9.95-98.6,11.76-35.9,35.39-51.67,31.74-55.83-5.43-6.18-65.51,19.73-94.33,75.46-7.07,13.67-28.26,54.65-11.23,95.14,15,35.67,50.83,49.89,68.88,57.05,88.42,35.08,179.29-11.6,198.56-21.5,88.11-45.27,154.66-133.68,139.5-155.91C740.28,378.78,711.74,385.69,697.08,389.25Z"/></g></g></svg>