<svg xmlns="http://www.w3.org/2000/svg" viewBox="0 0 177.51 440.43"><defs><style>.cls-1{fill:#964a32;}.cls-2{fill:#5e352a;}.cls-3{fill:#683b2d;}.cls-4{fill:none;stroke:#000;stroke-linecap:round;stroke-miterlimit:10;}.cls-5{fill:#fff;}.cls-6{fill:#f7f7f7;}.cls-7{fill:#14223c;}.cls-8{fill:#5576a5;}.cls-9{fill:#2f7734;}.cls-10{fill:#5d1000;}.cls-11{fill:#320406;}</style></defs><g id="Camada_2" data-name="Camada 2"><g id="Pronto"><path d="M42.19,23.43c-2.4,1.05-4-1.81-7.2-1.79-8.52,0-19.37,20.19-20.68,32.37a14.38,14.38,0,0,1-3.6,8.1c-1.44,1.47-4,2.71-5.39,1.79a3.06,3.06,0,0,1-.9-3.59c1.15-2.5,6.19-1.75,6.29-2.7s-4.9-3.72-8.09-1.8S-.84,63.6,1.72,66.6c3,3.5,9.52,2.73,12.59,0,2.3-2,2.16-4.76,4.5-5.39,2.06-.57,4.54.91,4.49,1.79s-2.82.6-5.39,2.7a9.17,9.17,0,0,0-3.2,5.44c-.49,4.29,4.28,5.42,4.11,9.57-.17,3.91-3.54,4.35-6.84,10.94C10.3,95,8.92,97.76,9.24,101.23c.52,5.52,5.13,10.42,8.21,13.67,2.43,2.59,3.78,3.38,4.1,5.48.46,2.94-1.42,6.39-4.1,8.2-3.63,2.45-6.79.6-8.21,2.74s.17,6.14,2.74,8.2,6.44,2.25,6.84,1.37c.51-1.14-4.73-3.88-4.11-5.47.42-1.08,2.93-.08,5.47-1.37,4.17-2.11,4.49-8.35,5.47-8.2s-.86,7.42,2.74,10.94c2.94,2.87,8.16,1.87,8.21,2.73s-6.74.74-8.21,4.11c-1,2.22.47,5.77,2.74,6.84,2.65,1.24,5.68-1.29,6.83,0,1,1.11-.58,3.77,0,4.1s2.49-3.86,5.48-4.1c0,0,1.24-.11,6.83,4.1-.62,3.51-2,7.85-5.47,9.57-3.79,1.89-8.12-.31-8.2,0s8.67,5.74,16.41,2.74c4.07-1.58,4.59-4.18,8.21-6.84,6-4.41,12.39-2.94,21.88-2.73,22.84.49,39.62-2.08,39.67-1.37s-24,3.09-23.92,4.19c.05.63,8.07,1.46,26.08,3.6,2.75.33,6.75.84,7.19,2.7.3,1.25-1.06,3-2.7,3.59-3.12,1.07-6.34-2.6-7.19-1.79-.65.62.45,3.62,2.7,5.39,3.15,2.49,8.19,2.32,11.69,0,2.6-1.72,5.45-5.36,4.5-8.09-1.3-3.68-8.73-3.44-8.78-5.49,0-1.17,2.37-2.24,4.1-2.73,6.25-1.77,9.68,3.06,15.05,1.36,3.58-1.13,6-4.51,5.47-5.47s-3.33.56-8.21,0c-2.75-.32-6.76-1.35-6.84-2.73-.06-1.16,2.62-2.17,4.11-2.74,7.24-2.75,10.19-.22,13.68-2.73,3.07-2.22,4.17-6.62,4.1-9.58-.1-3.91-2.28-5.9-1.37-6.84,1.15-1.19,6.26.36,8.21,4.11,2.1,4-2.28,9-1.37,9.57s5.13-3,6.84-8.21c.56-1.7,1.7-5.13,0-8.2-1.27-2.3-3.48-3.25-5.47-4.11-4.33-1.86-8-.56-8.21-1.36s4.52-1.7,8.21-5.48c2.55-2.61,5.26-7.63,4.1-12.31-1-4.22-5.55-9.37-8.44-10.81-.37-.18-1.67-.78-1.8-1.8a2.32,2.32,0,0,1,.9-1.79c1.23-1,2.46-.15,3.87-.64,2.51-.88,4.12-5.53,2.74-8.21-.89-1.72-2.92-2.16-2.74-2.73.26-.84,4.49.75,6.84-1.37a4.62,4.62,0,0,0,1.37-2.74c.42-3.22-3.26-6.71-6.84-8.2s-5.75-.46-7-2.19c-.93-1.26-.34-2.73.2-6,0,0,.09-.55.22-2,0,0,.42-4.09.48-7.28.09-4.76-8.06-28.19-24.28-28.78-6.28-.23-12.81,3-12.59,4.49.36,2.55,20.88,5.6,25.18-2.69,2.55-4.93-1.29-12.58-4.5-16.19a10.05,10.05,0,0,0-3.6-2.7c-2.43-1-6.46-1.52-9,.9a5.74,5.74,0,0,0-1.8,3.6c-.29,3.54,3.23,6.78,4.5,6.29s-.08-4.29,1.8-5.39c1.16-.69,3.21-.12,3.59.9.7,1.86-3.65,6.8-7.19,6.29C132.79,13,132.87,7,126.87,2.75A13.4,13.4,0,0,0,119,0h-.35a16.6,16.6,0,0,0-8.12,2.74c-6.6,4.17-57.18-4.72-64.75,9C43.43,16,45.53,22,42.19,23.43Z"/><path class="cls-1" d="M34.23,297.31c-1.11,1-3.21,3.64-1.46,23.32a250.84,250.84,0,0,0,5.1,32.78C47.17,395.08,52,416,59,422.63c1.47,1.38,8.94,8.11,7.28,11.66-1,2-4.44,2-4.37,2.91.1,1.26,7.13,1.57,11.66,1.46,5.62-.15,6.74-1,7.28-1.46,2.53-2.37,1.73-7,1.46-8.74-1.48-9.62,1.35-19.42,1.46-29.15.22-20.55,2-17.6,1.46-30.6-.44-11.61-1.76-12.35-2.92-29.14-1.2-17.44.16-17.63-1.46-21.86C73.93,299.54,43.44,288.85,34.23,297.31Z"/><path class="cls-1" d="M126.12,292.53c1.11.68,4,2.94,5.87,22.61a229.33,229.33,0,0,1,.59,33.9c-2.45,56.12-.83,62.83-6.88,71.23-1.21,1.67-7.23,9.67-4.93,12.83,1.32,1.82,4.75,1.14,4.84,2,.15,1.25-6.7,2.9-11.16,3.65-5.54.93-6.79.36-7.43,0-2.94-1.85-3-6.54-3.1-8.3-.38-9.72-5-18.81-7-28.33C92.8,382,91.66,385.2,89.67,372.34c-1.79-11.48-.63-12.46-2.7-29.16-2.14-17.35-3.51-17.28-2.74-21.73C87.56,302.29,115.45,286,126.12,292.53Z"/><path class="cls-2" d="M79.4,156c1.24,11,0,13.12,0,13.12-2.42,3.63-6.67,2.59-10.2,5.82-4.74,4.34-3.49,11.64-3.65,18.22-.12,5.5-4,14.35-11.65,32.06-7.12,16.38-11.95,24.18-16,39.34-.74,2.76-1.24,4.87-1.46,5.83-2.12,9.45-4,18-2.91,27.68.52,4.54,2.36,20.59,13.84,27a15.61,15.61,0,0,0,2.48,1.15c4.66,1.67,12.06,1.45,39.78-1.15,12.29-1.15,14.31-1.43,17.48-2.91,12.59-5.88,17.67-18.65,19-21.86,4.49-11.3,3.14-21.17,1.45-33.52-1.09-8-2-8.15-7.28-27.68-7.41-27.28-11.11-40.93-10.2-46.63.77-4.85,2.94-13.45-1.46-17.49-2.54-2.33-5.5-1.51-7.28-4.37s.29-5,0-11.65c-.19-4.19-.36-7.91-2.92-10.2-3.32-3-9.24-2.3-13.11,0A13.77,13.77,0,0,0,79.4,156Z"/><path class="cls-3" d="M149.49,91.32c1.8-2.58,3.29-3.37,4.43-3.7,3.13-.91,6.4.81,8.22,2.66,2.84,2.88,2.79,6.7,2.77,8.71A14.38,14.38,0,0,1,161,109a13.09,13.09,0,0,1-8.27,3.89c-1.7.12-3.41.23-4.86-.71C143.3,109.23,144.84,98,149.49,91.32Z"/><path class="cls-3" d="M150.78,103.73c-.22,1.7-.91,8.47-1,15.22,0,1.5,0,3.1.09,5,.19,4,.49,5.42,0,8.27-1.39,8-6.73,14-7.85,15.17-.18.2-.31.33-.42.44A51.36,51.36,0,0,1,128.74,157c-.34.17-2.1,1.07-4.53,2.06a80,80,0,0,1-11.08,3.45,90.28,90.28,0,0,1-22,1.84,105.32,105.32,0,0,1-13.78-.92s-14.42-2-25.71-7.35c-1.52-.72-2.91-1.44-4.17-2.14a61.16,61.16,0,0,1-6.85-4.28,26.08,26.08,0,0,1-8.26-11.94c-1.23-3.73-1.2-6.75-.92-11.94.21-3.83.38-5.59.67-9.32.14-1.78.23-3.38.28-4.85.18-5.24,0-9.55,0-10.62-.48-11-1.48-34.26,1.84-45.92C40.07,34.3,69.59,15.63,99.35,18.33c22.35,2,46.41,16.28,52.35,35.82C155.53,66.77,153.11,85.62,150.78,103.73Z"/><path class="cls-3" d="M33.16,94.21c-1.67-2.68-3.12-3.54-4.23-3.93-3.09-1.08-6.44.47-8.36,2.22-3,2.72-3.14,6.54-3.22,8.56a14.36,14.36,0,0,0,3.38,10.21,13.07,13.07,0,0,0,8.05,4.33c1.69.21,3.39.41,4.89-.45C38.39,112.42,37.45,101.11,33.16,94.21Z"/><path class="cls-2" d="M79.06,113.37c-1.24-2.09,3.87-9.9,10.87-10.66,7.44-.81,14.31,6.64,13.41,8.86-.47,1.18-3,.39-10.79.9C82.94,113.09,79.86,114.71,79.06,113.37Z"/><path class="cls-4" d="M76.6,130.81a20.08,20.08,0,0,0,4.67,3.11,20.94,20.94,0,0,0,13.62,1.49c3.37-.85,6.14-2.6,9.34-4.6,1-.62,1.78-1.17,2.34-1.56"/><path class="cls-5" d="M111.35,98.17a13.41,13.41,0,0,1,0-4.73c.58-2.92,2.12-4.78,3.87-6.89a19.45,19.45,0,0,1,6-5.16A19.78,19.78,0,0,1,126,79.67a16.91,16.91,0,0,1,6-.43,13.14,13.14,0,0,1,6.88,2.58,12.56,12.56,0,0,1,4.3,6.46,13.75,13.75,0,0,1-.43,8.17,21.08,21.08,0,0,1-6,9,15.5,15.5,0,0,1-2.58,2.15,14.79,14.79,0,0,1-7.75,2.15,16,16,0,0,1-7.31-1.29,12.7,12.7,0,0,1-5.6-4.3A13.09,13.09,0,0,1,111.35,98.17Z"/><path d="M70.07,15.34c12.13-5.79,32.84-8.8,42.27,2.7,7,8.53,3.21,20.81,2.7,22.48-2.89,9.37-10.75,16.95-19.79,18.89-2.25.48-8.39,1.8-13.49-1.8-3.6-2.54-7-7.66-5.4-10.79,1.36-2.59,5.91-3.35,6.3-2.7.18.3-.64.72-.9,1.8-.48,2,1.18,5,3.6,5.39a4.24,4.24,0,0,0,4.49-2.69c.89-3.54-5.79-10.62-12.59-9.9a11.06,11.06,0,0,0-8.09,5.4c-2.76,4.73.42,8-1.8,11.69-2.56,4.21-8.15,1.88-17.09,5.4-3.73,1.46-13,5.11-16.18,13.49-2.43,6.38,3.74,9.44,2.69,18.88-.74,6.71-4.4,12.91-6.29,12.59s-1.33-7.26-3.6-20.68C25,74.5,23.7,73.61,23.3,69.3,21.9,54,37.77,41.28,56.58,25.23,62.7,20,65.84,17.36,70.07,15.34Z"/><path d="M114.14,14.44c-4.22,1.78-7,7.44-6.3,11.69.91,5.66,7.93,9,11.69,10.79,4.43,2.11,5.12,1.25,10.79,3.6,5.9,2.44,12.14,5,12.59,9s-5.7,5.33-7.19,12.6c-.23,1.09-1.33,6.51,1.8,9,2.62,2.07,7.59,1.59,9-.9a4.38,4.38,0,0,0,0-3.6c-1.08-2.36-4.13-3.17-4.5-2.7s2.35,2.44,1.8,3.6-3.45,1.26-4.49,0c-1.47-1.77.53-6.92,2.69-7.19,3-.38,8.05,8.39,9,17.08,1.5,13.76-7.57,23.25-4.5,26.08,1.62,1.49,6.17-.07,9-2.69,4.23-3.92,4.56-10.16,3.6-20.69-1.57-17.25-2.35-25.88-6.29-34.17C144,27.34,124.18,10.2,114.14,14.44Z"/><path d="M110.49,96.88a6.13,6.13,0,0,0,.43,2.15c.17,0,0-1.81.43-3.87a16.79,16.79,0,0,1,1.72-4.73,18.32,18.32,0,0,1,5.17-6.89,16.84,16.84,0,0,1,6.45-3,16,16,0,0,1,6.88-.43,15,15,0,0,1,5.6,2.15A11.24,11.24,0,0,1,141,86.12a11,11,0,0,1,1.29,4.31,16.23,16.23,0,0,1-.86,7.74c-2,5.33-6.25,7.92-6,8.18s3.22-1.57,5.59-4.74a17.27,17.27,0,0,0,3-6.45,14.37,14.37,0,0,0,0-7.74,13.66,13.66,0,0,0-2.58-4.74A14.9,14.9,0,0,0,133.73,78a17.18,17.18,0,0,0-6.46-.43,17.52,17.52,0,0,0-7.74,3,20.85,20.85,0,0,0-6.46,6.89C112.14,89,110.13,92.6,110.49,96.88Z"/><path d="M71,72c.61,1.18,1,3.26,0,4.49-2.24,2.74-8.69-1.91-18.89-1.79-8.51.09-13.13,3.43-13.49,2.69-.43-.9,10.34-10.18,22.93-9C64,68.64,69.28,68.72,71,72Z"/><path class="cls-5" d="M73.34,99.08a13.48,13.48,0,0,0,0-4.74c-.58-2.92-2.13-4.78-3.88-6.88a19.28,19.28,0,0,0-6-5.17,19.78,19.78,0,0,0-4.73-1.72,17.17,17.17,0,0,0-6-.43,13.08,13.08,0,0,0-6.88,2.58,12.49,12.49,0,0,0-4.3,6.46,13.74,13.74,0,0,0,.43,8.17,20.93,20.93,0,0,0,6,9,15.1,15.1,0,0,0,2.58,2.15,14.67,14.67,0,0,0,7.75,2.15,16,16,0,0,0,7.31-1.29,12.7,12.7,0,0,0,5.6-4.3A13.1,13.1,0,0,0,73.34,99.08Z"/><path d="M112,71.92c-.61,1.18-1,3.25,0,4.49,2.23,2.74,8.68-1.91,18.88-1.8,8.52.1,13.14,3.44,13.49,2.7.44-.9-10.33-10.18-22.93-9C118.94,68.56,113.69,68.64,112,71.92Z"/><path d="M131.92,432.76c.08,1.07-1.81,1.87-7.35,3.64-6.31,2-9.66,2.83-14,3-3.56.1-4.43-.36-5.08-1-2-2-1.18-5.05-2.52-11.93-1.46-7.47-3.59-9.71-2.53-11.92.35-.73,1.19-1.75,7.77-1.65,8.23.13,9.74,1.76,14.83,1,4.42-.65,7.41-2.47,7.77-1.65s-2.3,2.46-5,7.28c-1.32,2.4-2.55,4.71-1.84,6.62.23.63.57.93,2,2l.44.31,1.13.79h0l.32.24.29.21C131.56,432,131.89,432.33,131.92,432.76Z"/><path class="cls-6" d="M126.51,428.42a2.66,2.66,0,0,0-.69,0,3.71,3.71,0,0,0-2.14,1.23,5.1,5.1,0,0,0-1.05,1.47c-.27-.3,1.16-2.9,3.22-3h.22Z"/><path class="cls-6" d="M128.26,429.66a2.56,2.56,0,0,0-.59-.13,3.63,3.63,0,0,0-2.36.72,5,5,0,0,0-1.35,1.17c-.2-.33,1.7-2.45,3.68-2.21h0l.32.24Z"/><path d="M57.66,437.43c.13,1.06,2.13,1.5,7.9,2.23,6.56.84,10,1,14.29.37,3.52-.54,4.29-1.16,4.81-1.9,1.63-2.33.25-5.18.32-12.19.07-7.61,1.76-10.2.32-12.18-.48-.66-1.5-1.5-7.94-.21-8.07,1.62-9.26,3.49-14.4,3.69-4.47.17-7.74-1.07-7.94-.2s2.71,2,6.19,6.25c1.74,2.12,3.37,4.17,3,6.17-.12.67-.4,1-1.66,2.32-.11.12-.23.26-.37.39l-1,1h0l-.27.29a3.07,3.07,0,0,0-.25.26C57.87,436.59,57.62,437,57.66,437.43Z"/><path class="cls-6" d="M62.2,432.17a2.75,2.75,0,0,1,.68-.12,3.69,3.69,0,0,1,2.33.82,5.39,5.39,0,0,1,1.3,1.25c.21-.34-1.67-2.64-3.72-2.38l-.22,0C62.46,431.9,62.34,432,62.2,432.17Z"/><path class="cls-6" d="M60.7,433.71a3.25,3.25,0,0,1,.56-.24,3.68,3.68,0,0,1,2.45.28,5.12,5.12,0,0,1,1.54.91c.14-.36-2.11-2.1-4-1.5h0l-.27.29A3.07,3.07,0,0,0,60.7,433.71Z"/><path class="cls-7" d="M31.4,286.94c6.41-9.14,22.79-1.18,53.06-1.8,25.72-.53,43.26-6.89,47.66.9.38.66.45,1,.9,6.29,1.58,18.1,1.8,23.39,1.8,23.39.59,13.86.88,20.79.9,24.28.09,19.45-1.86,18.58-1.8,35.07,0,0,1.9,24.47,0,36a8.79,8.79,0,0,1-2.7,5.39c-2,1.7-4.43,1.73-6.29,1.8-12.48.48-13.88,3.38-22.49,1.8-3.43-.63-5.14-1-6.29-1.8-5.51-4.09-1.59-12.46-4.5-28.78-1.49-8.39-2.22-8.3-3.59-17.09-.89-5.63-1.09-8.87-1.8-17.08-1.06-12.21-2.51-27-2.7-27s0,13.53,1.8,30.57c1.65,16.18.85,32.73,4.49,48.57.61,2.62,2.61,10.92-.9,13.49-.66.49-1.47.73-5.39.9-4.55.19-7.23,0-9.89,0a99.45,99.45,0,0,0-14.39.9c-5.72.72-5.32,1.15-6.3.9-6.53-1.67-7.21-16.07-11.69-40.47-1.63-8.88-1-3.78-4.5-21.59-3.42-17.23-7.38-38.83-7.19-63.85C29.65,291,30,289,31.4,286.94Z"/><path class="cls-8" d="M47.59,412.84c-2.34,2.9,1.15,11.43,7.19,15.29,1.59,1,3.29,1.67,22.48.9,8.33-.33,10.86-.57,12.59-2.7,2.18-2.67,2-7,1.8-11.69-.13-3.12-.19-4.69-.9-5.39-3.12-3.15-10.94,4.5-23.38,5.39C56,415.46,49.93,409.93,47.59,412.84Z"/><path class="cls-8" d="M92.56,409c-2.33,2.9,1.16,11.42,7.2,15.29,1.59,1,3.28,1.67,22.48.9,8.33-.33,10.86-.57,12.59-2.7,2.18-2.67,2-7,1.8-11.69-.13-3.13-.2-4.69-.9-5.39-3.12-3.15-10.94,4.5-23.38,5.39C100.94,411.61,94.91,406.08,92.56,409Z"/><path class="cls-9" d="M76.76,168.55c1.45.3,3.07,1.95,8.12,3.44,3.53,1,6.1,1.89,9.06,1.29,6-1.18,7.47-5.73,10.34-5.17,3.69.73,5,8.95,5.18,10.35,2.78,17.88,8,35.3,11.64,53,4.07,19.83,6.76,16.93,11.64,40.09,5.5,26.16,5.12,33.4,1.29,38.81-4.84,6.84-12.94,8.8-22.2,11-11.28,2.74-13,.17-37.77.9-12.87.38-16.52,1.2-25.18,0C39.35,321,32.3,320.05,28.2,316c-8.46-8.26-1.61-26.7,7.53-53.51C49.81,221.25,67.12,166.55,76.76,168.55Z"/><path d="M74.2,97.78a6.27,6.27,0,0,1-.43,2.16c-.17,0,0-1.82-.43-3.88a16.79,16.79,0,0,0-1.72-4.73,18.22,18.22,0,0,0-5.17-6.88,16.75,16.75,0,0,0-6.45-3A16.06,16.06,0,0,0,53.11,81a14.88,14.88,0,0,0-5.59,2.15A11.11,11.11,0,0,0,43.65,87a10.86,10.86,0,0,0-1.29,4.3,16.14,16.14,0,0,0,.86,7.75c2,5.32,6.25,7.92,6,8.17s-3.22-1.57-5.59-4.73a17.43,17.43,0,0,1-3-6.46,14.46,14.46,0,0,1,0-7.74,13.75,13.75,0,0,1,2.59-4.74A14.9,14.9,0,0,1,51,78.85a17,17,0,0,1,14.2,2.58,20.85,20.85,0,0,1,6.46,6.89C72.55,89.93,74.56,93.5,74.2,97.78Z"/><path class="cls-3" d="M156.35,237.09c3.11-6.06-7.28-15.81-19.78-30-16.49-18.65-25.55-32.39-27.3-31.46-.58.32.28,1.92,1.07,5.42,2,8.69.11,13.92,0,18.69,0,1.91.25,5.05,11.66,22.25,11.61,17.49,17,26.52,22.54,25.62,1.1-.18,2.21-1,4.42-2.63A27.1,27.1,0,0,0,156.35,237.09Z"/><path class="cls-3" d="M14.85,240.55c-3.8-5.34,10.2-22,21.47-35,14.79-17.07,29-33.39,30.85-32,.56.42-.48,2.1-1.67,5.93C62.57,189,63.85,195,63.39,200.35c0,.26,0,.53-.11.85-1.8,10.18-9,17.23-14.05,22.65-14,14.94-17.39,26.55-22.66,25.22-.93-.23-2.75-1.57-6.39-4.26C17,242.44,15.36,241.26,14.85,240.55Z"/><path class="cls-3" d="M133.55,240.64c-5.14,6-2.31,10.06-6.88,13-3.29,2.12-5.22.52-11.38,3.29-4.13,1.85-3.25,2.56-6.8,4-5.91,2.46-8.91.73-14.29,3.74-1.9,1.06-4,2.23-3.9,3.59.19,2.75,9.2,5.27,17.11,4.74,11.34-.75,19.19-7.69,20.86-9.23,3.58-3.31,3.12-4.34,7.57-8.63,4-3.89,7.79-4.93,13.37-9.55.46-.37.86-.72,1.25-1.07a23.15,23.15,0,0,0,3.73-3.69c1.12-1.74,1.82-4.71.46-6.35a4.67,4.67,0,0,0-3-1.3,12.71,12.71,0,0,0-5.87.33C143,234.32,137.7,235.82,133.55,240.64Z"/><path class="cls-3" d="M36.2,242.32c5,6.28,2,10.32,6.49,13.47,3.27,2.27,5.29.72,11.44,3.77,4.12,2,3.2,2.73,6.76,4.38,5.9,2.73,9,1.08,14.37,4.35,1.89,1.15,4,2.42,3.82,3.8-.29,2.78-9.55,5-17.57,4.15C50,275,42.31,267.69,40.67,266.05c-3.51-3.49-3-4.53-7.36-9.06-3.93-4.1-7.72-5.31-13.22-10.22-.45-.4-.84-.77-1.23-1.14a24.17,24.17,0,0,1-3.65-3.89c-1.06-1.81-1.66-4.86-.22-6.47.75-.84,1.81-1,3.12-1.21a13,13,0,0,1,5.95.57C26.86,235.54,32.17,237.26,36.2,242.32Z"/><path class="cls-3" d="M119.9,256.46c-.11-.84-1.09-1.31-2.64-2-2.76-1.3-4.92-2.32-7.33-1.45-1.32.47-3.47,1.79-3.39,3.29.12,2.37,5.82,5,10,3.49C118.08,259.17,120.08,257.76,119.9,256.46Z"/><path class="cls-3" d="M51.1,259.14c.29-.79,1.35-1,3-1.41,3-.67,5.31-1.18,7.47.19,1.18.75,3,2.51,2.59,3.95-.64,2.29-6.79,3.63-10.5,1.23C52.28,262.19,50.65,260.37,51.1,259.14Z"/><path class="cls-9" d="M107.78,172.22c2.33-1.2,6.7,1.7,19,14.87,10,10.68,15,16,16,19.4,3.85,13.48-4.95,31.25-12.83,31.64-6,.3-10.76-11-20.26-33.55,0,0-7.17-17-3.43-30.09A3.52,3.52,0,0,1,107.78,172.22Z"/><path class="cls-9" d="M72.15,170.74c-2.15-1.51-6.87.8-20.81,12.24C40,192.25,34.38,196.89,33,200.12c-5.59,12.85.81,31.63,8.57,33,5.91,1.08,12.1-9.48,24.49-30.61,0,0,9.33-15.93,7.34-29.38A3.51,3.51,0,0,0,72.15,170.74Z"/><path class="cls-10" d="M130.67,82.33a11.6,11.6,0,0,0-6.89,0,10.41,10.41,0,0,0-4.73,2.58,10.8,10.8,0,0,0-2.58,4.3,13.13,13.13,0,0,0-.86,7.32,11.56,11.56,0,0,0,3,6,11.17,11.17,0,0,0,17.21-1.29,12.86,12.86,0,0,0,2.15-9,11.07,11.07,0,0,0-2.15-6.45A10.3,10.3,0,0,0,130.67,82.33Z"/><path class="cls-11" d="M129.71,84.18a9.54,9.54,0,0,0-5.63,0,8.68,8.68,0,0,0-3.88,2.11,9,9,0,0,0-2.11,3.52,10.76,10.76,0,0,0-.7,6,9.49,9.49,0,0,0,2.46,4.93,9.67,9.67,0,0,0,7,2.81,9.56,9.56,0,0,0,7-3.87,10.49,10.49,0,0,0,1.76-7.39A9,9,0,0,0,133.93,87,8.58,8.58,0,0,0,129.71,84.18Z"/><path class="cls-5" d="M118.48,93.22a3.72,3.72,0,0,0-1.72,2.15,4.07,4.07,0,0,0,.86,3.88,3.65,3.65,0,0,0,2.58,1.29,3.77,3.77,0,0,0,3-1.72,4.09,4.09,0,0,0,.43-3.45,3.72,3.72,0,0,0-1.72-2.15A3.62,3.62,0,0,0,118.48,93.22Z"/><path class="cls-5" d="M134.74,86.84a1.29,1.29,0,0,0-.62.78,1.47,1.47,0,0,0,.31,1.41,1.32,1.32,0,0,0,.94.47,1.35,1.35,0,0,0,1.09-.63,1.46,1.46,0,0,0,.16-1.25,1.35,1.35,0,0,0-.63-.78A1.29,1.29,0,0,0,134.74,86.84Z"/><path class="cls-10" d="M61.42,83.13a11.69,11.69,0,0,0-6.89,0,10.41,10.41,0,0,0-4.73,2.58A10.75,10.75,0,0,0,47.22,90a13.05,13.05,0,0,0-.86,7.32,11.49,11.49,0,0,0,3,6,11.17,11.17,0,0,0,17.21-1.29,12.9,12.9,0,0,0,2.15-9,11.07,11.07,0,0,0-2.15-6.45A10.46,10.46,0,0,0,61.42,83.13Z"/><path class="cls-11" d="M61.45,85a9.73,9.73,0,0,0-5.63,0A8.65,8.65,0,0,0,52,87.1a8.79,8.79,0,0,0-2.11,3.52,10.64,10.64,0,0,0-.7,6,9.41,9.41,0,0,0,2.46,4.93,9.14,9.14,0,0,0,14.08-1.06,10.54,10.54,0,0,0,1.76-7.39,9.12,9.12,0,0,0-1.76-5.28A8.56,8.56,0,0,0,61.45,85Z"/><path class="cls-5" d="M49.23,94a3.73,3.73,0,0,0-1.72,2.16,4,4,0,0,0,.86,3.87A3.62,3.62,0,0,0,51,101.34a3.77,3.77,0,0,0,3-1.72,4.07,4.07,0,0,0,.43-3.44A3.71,3.71,0,0,0,52.67,94,3.65,3.65,0,0,0,49.23,94Z"/><path class="cls-5" d="M64.49,88.64a1.36,1.36,0,0,0-.63.78,1.46,1.46,0,0,0,.32,1.41,1.32,1.32,0,0,0,.94.47,1.37,1.37,0,0,0,1.09-.63,1.54,1.54,0,0,0,.16-1.25,1.38,1.38,0,0,0-.63-.78A1.32,1.32,0,0,0,64.49,88.64Z"/></g></g></svg>