<svg width="212" height="392" viewBox="0 0 212 392" fill="none" xmlns="http://www.w3.org/2000/svg">
<path d="M47.3733 146.211C42.3157 153.011 38.9359 158.009 37.2338 161.204C32.4466 170.408 29.9665 179.519 29.7937 188.537C29.7689 189.337 29.7911 190.139 29.8601 190.937C29.9527 192.023 29.9237 193.117 29.7737 194.197C29.6663 194.945 29.3347 195.642 28.8229 196.197C27.1075 197.877 24.3172 198.321 20.452 197.53C15.7179 196.641 12.3447 194.641 10.3323 191.53C9.9627 190.908 9.6871 190.234 9.51452 189.53C9.33204 188.721 9.30496 187.883 9.43473 187.064C9.56106 186.15 9.66745 185.37 9.75388 184.717C9.92082 183.805 10.1769 182.912 10.5185 182.05L11.3629 179.797C11.5092 179.43 11.8217 178.737 12.3071 177.71C16.2905 168.094 21.6675 159.12 28.2644 151.078C32.0998 146.559 36.6454 142.7 41.7218 139.651C45.8085 137.068 50.1792 134.968 54.7469 133.391C53.0247 133.273 51.2948 133.343 49.5874 133.598C45.5921 134.162 41.6385 134.99 37.7524 136.078C33.8428 137.161 30.0396 138.598 26.3894 140.371C25.5671 140.815 24.7703 141.305 24.0025 141.838C22.9519 142.544 22.2804 143.011 22.0078 143.238C21.3191 143.766 20.5924 144.243 19.8336 144.664C17.8237 145.728 15.5685 146.239 13.2977 146.144C10.5983 146.144 7.62845 145.282 4.38822 143.558C1.148 141.833 -0.294814 139.711 0.0597939 137.191C0.272559 135.622 2.64178 134.289 7.16746 133.191C8.69006 132.738 11.1568 132.105 14.5477 131.291C19.9313 129.857 25.4141 128.827 30.9506 128.211C36.7209 127.655 42.5374 127.808 48.2709 128.665C54.2017 129.673 58.2509 130.989 60.4185 132.611C60.539 132.674 60.6388 132.77 60.7061 132.888C60.7733 133.007 60.805 133.142 60.7974 133.278H60.6778C59.5344 134.54 58.2915 135.709 56.961 136.771C55.2368 138.198 54.0887 139.176 53.5169 139.704C51.3114 141.718 49.2579 143.893 47.3733 146.211Z" fill="#7F579F"/>
<path d="M59.727 267.662C48.3242 300.662 46.3096 307.328 46.8016 317.881C47.0609 323.588 47.7191 334.874 54.5941 346.861C64.9863 364.974 82.1405 371.667 86.9809 373.487C108.61 381.654 127.652 375.274 134.913 372.82C143.988 369.78 158.377 364.961 167.306 351.387C176.741 337.041 175.092 321.108 173.782 308.522C172.938 300.455 169.48 290.128 162.599 269.802C155.491 248.809 151.881 238.256 149.135 235.236C131.848 216.283 90.6245 215.303 72.6724 234.156C70.9038 235.996 70.2855 237.076 59.727 267.662Z" fill="#FEFEFE"/>
<path d="M169.447 334.561C172.772 331.068 185.072 334.121 188.45 341.661C189.779 344.561 189.42 347.421 189.154 349.727C188.75 354 186.982 358.028 184.115 361.214C183.636 361.727 175.857 369.8 168.988 366.734C164.8 364.86 162.452 359.52 162.718 355.214C163.044 349.847 167.273 348.614 168.516 341.094C169.194 337.021 168.217 335.861 169.447 334.561Z" fill="#F9F7F7"/>
<path d="M49.7337 334.148C45.6313 331.588 34.4811 337.588 33.0583 345.728C32.5131 348.861 33.5436 351.554 34.388 353.727C35.8296 357.77 38.5348 361.238 42.1008 363.614C42.6925 363.987 52.2137 369.887 58.1113 365.214C61.715 362.367 62.6724 356.607 61.356 352.501C59.7203 347.381 55.3188 347.234 52.2603 340.254C50.5847 336.468 51.2563 335.101 49.7337 334.148Z" fill="#F9F7F7"/>
<path d="M70.0859 320.428C66.8878 323.181 67.6524 327.308 68.3306 341.174C69.3612 362.32 68.1976 366.014 71.07 376.007C73.3904 384.087 75.425 391.167 79.8066 391.933C85.7507 392.967 92.5459 381.787 95.3584 375.547C96.9208 372.08 97.8982 368.774 99.4807 357.62C103.876 326.781 100.611 323.181 99.2147 321.961C96.9208 319.961 93.3903 319.595 86.3425 318.888C78.6829 318.115 73.3838 317.581 70.0859 320.428Z" fill="#F9F7F7"/>
<path d="M150.784 287.062C150.617 282.842 154.155 280.589 164.746 271.642C180.883 257.996 182.785 254.662 192.04 249.929C199.527 246.129 206.082 242.803 209.62 245.496C214.427 249.156 210.89 261.756 208.25 268.075C206.781 271.582 205.032 274.549 197.971 283.309C178.443 307.541 173.589 307.601 171.741 307.401C168.716 307.088 166.056 304.735 160.73 300.068C154.952 294.948 150.93 291.428 150.784 287.062Z" fill="#F9F7F7"/>
<path d="M183.277 181.73C196.388 191.25 198.775 200.737 199.36 204.757C199.985 209.036 199.58 213.996 198.084 214.383C195.484 215.05 189.533 206.93 189.527 206.93C190.232 208.423 191.335 210.676 192.851 213.323C196.408 219.483 200.165 224.149 199.726 224.516C199.287 224.883 197.266 221.443 193.503 220.903C190.491 220.463 187.319 221.97 187.286 223.163C187.286 224.236 189.833 224.363 192.745 227.163C194.008 228.369 195.085 229.356 195.404 230.663C196.847 236.563 185.165 243.869 182.818 245.329C180.171 246.984 177.365 248.367 174.44 249.456" fill="#FEFEFE"/>
<path d="M43.291 273.995C42.8921 274.789 44.7072 277.049 47.0875 277.802C49.7471 278.642 52.0343 277.249 52.3402 277.802C52.8189 278.655 46.795 281.095 46.5024 284.242C45.9905 289.748 63.2244 295.748 69.235 297.842C88.5833 304.575 92.945 302.001 98.7096 307.688C108.211 317.061 105.963 333.621 107.918 333.548C109.733 333.481 107.194 319.421 115.292 310.155C115.929 309.412 116.635 308.731 117.4 308.121C124.993 302.121 133.57 301.228 136.781 300.921C155.97 299.075 177.073 287.535 176.409 283.948C176.143 282.515 172.326 281.762 172.519 281.115C172.712 280.468 175.843 281.708 177.08 280.415C179.075 278.302 174.307 271.202 174.999 270.769C175.69 270.335 179.161 275.729 179.62 275.435C180.285 275.062 176.881 262.402 168.097 255.956C161.814 251.342 155.93 252.456 136.781 253.489C97.2933 255.629 77.5461 256.702 76.602 256.569C71.6353 255.902 64.1752 254.009 56.9545 257.802C49.2817 261.802 45.1594 270.349 45.9173 271.049C46.6753 271.749 52.4731 265.175 54.0955 266.382C55.2457 267.229 54.3215 271.975 51.4359 273.715C48.2179 275.682 43.8828 272.895 43.291 273.995Z" fill="#F9F7F7"/>
<path d="M36.7484 180.844C23.6368 190.363 21.2764 199.85 20.6647 203.87C20.0397 208.15 20.4453 213.11 21.9413 213.496C24.541 214.163 30.4985 206.043 30.4985 206.043C29.8336 207.536 28.69 209.79 27.174 212.436C23.6102 218.596 19.8602 223.263 20.2991 223.629C20.7379 223.996 22.7525 220.556 26.5158 220.016C29.5277 219.576 32.7059 221.083 32.7325 222.276C32.7325 223.349 30.186 223.476 27.2737 226.276C26.0105 227.483 24.9333 228.469 24.6142 229.776C23.1714 235.676 34.8535 242.982 37.2005 244.442C39.8472 246.098 42.654 247.48 45.5781 248.569" fill="#FEFEFE"/>
<path d="M113.649 109.511C114.779 109.941 116.012 110.018 117.187 109.731C119.846 108.991 121.901 105.945 120.724 104.151C119.547 102.358 114.74 103.698 114.62 103.098C114.5 102.498 118.609 100.192 122.24 101.471C125.498 102.618 127.512 106.385 126.289 109.285C125.751 110.423 124.863 111.357 123.756 111.951" fill="#FEFEFE"/>
<path d="M79.4942 112.818C74.0621 115.485 62.1207 121.298 54.8933 133.838C53.1912 136.804 54.3548 135.611 47.533 152.564C45.8774 156.664 42.1806 165.591 36.7618 176.47C29.5677 190.904 27.839 191.65 27.1874 197.243C26.343 204.577 29.069 205.243 31.0305 218.323C33.4639 234.543 29.9666 238.156 34.2485 244.516C38.2977 250.516 45.0064 252.622 52.0809 254.829C57.4 256.482 58.7298 255.449 77.3467 257.296C95.6112 259.109 98.9955 259.596 104.813 258.022C108.67 256.976 112.067 255.449 118.364 254.822C122.517 254.451 126.699 254.552 130.83 255.122C138.45 255.929 151.748 257.329 164.075 253.676C171.94 251.342 180.631 249.143 183.662 242.229C187.752 232.896 179.008 221.41 183.237 218.116C185.896 216.05 190.823 219.39 192.053 217.55C193.283 215.71 188.177 212.523 186.329 205.883C184.274 198.51 188.729 195.823 186.96 188.164C185.677 182.597 182.346 182.337 179.507 175.71C175.956 167.417 176.089 161.617 175.159 155.157C174.494 150.684 171.648 133.824 161.974 122.878C153.224 112.978 141.502 110.665 128.989 108.258C120.239 106.552 100.292 102.665 79.4942 112.818Z" fill="#FEFEFE"/>
<path d="M82.6459 65.6589C72.1406 35.0794 70.9438 25.4196 59.6207 14.9931C57.0742 12.6665 45.4652 1.95331 38.5105 5.36658C30.6315 9.22652 32.972 29.0795 34.2552 40.0327C35.4254 49.9592 37.4467 57.3124 43.6235 75.932C58.0117 119.265 61.529 122.911 66.1832 124.391C75.618 127.398 88.59 121.105 93.5234 111.851C97.945 103.552 93.5367 97.3317 82.6459 65.6589Z" fill="#F66386"/>
<path d="M127.26 173.704C125.498 178.164 126.489 182.097 127.745 187.037C129.075 192.37 130.192 196.717 133.63 198.33C137.832 200.33 142.938 196.997 148.49 193.377C154.746 189.303 162.579 184.204 162 177.637C161.595 172.97 157.206 169.89 154.354 167.864C151.867 166.104 146.708 162.451 139.873 163.651C137.101 164.139 134.495 165.314 132.292 167.07C130.089 168.826 128.359 171.106 127.26 173.704Z" fill="black"/>
<path d="M64.3081 218.823C70.6058 218.823 75.711 215.925 75.711 212.35C75.711 208.775 70.6058 205.876 64.3081 205.876C58.0105 205.876 52.9053 208.775 52.9053 212.35C52.9053 215.925 58.0105 218.823 64.3081 218.823Z" fill="#F66386"/>
<path d="M149.487 218.823C155.785 218.823 160.89 215.925 160.89 212.35C160.89 208.775 155.785 205.876 149.487 205.876C143.189 205.876 138.084 208.775 138.084 212.35C138.084 215.925 143.189 218.823 149.487 218.823Z" fill="#F66386"/>
<path d="M102.599 210.243C103.184 208.43 106.735 208.13 111.349 207.736C114.966 207.43 116.788 207.303 117.592 208.363C118.749 209.89 117.3 212.703 115.897 215.436C114.494 218.17 112.493 222.103 110.272 221.883C109.075 221.783 108.876 220.603 105.451 215.436C102.998 211.743 102.306 211.156 102.599 210.243Z" fill="#F66386"/>
<path d="M79.5807 138.878C78.2509 140.531 68.9424 137.204 61.7683 130.211C52.9385 121.658 51.7284 111.998 48.271 97.7383C39.9732 63.5589 32.8389 63.7389 30.9839 40.3593C30.1993 30.3595 28.6568 10.7931 38.5038 5.36656C43.537 2.59327 49.6208 4.57324 53.1314 5.71989C58.2976 7.39986 67.7589 11.9731 77.965 30.6195C83.8958 41.4259 86.5155 50.8058 91.4622 69.7255C93.8758 78.9453 95.1524 85.4252 97.0939 95.285C100.019 110.145 103.078 125.838 101.183 126.424C99.6138 126.904 95.3053 117.185 94.7069 115.598C89.5939 102.198 88.5966 92.8517 85.6046 78.792C83.9157 70.8454 82.6658 64.9655 80.1259 57.139C77.2934 48.3925 74.2682 39.266 67.7124 29.5328C62.2669 21.4663 50.6979 7.47986 44.5476 10.0465C44.0224 10.2665 42.4998 11.0465 40.7711 16.5464C38.5725 23.7363 38.1751 31.3587 39.6142 38.7393C44.162 60.2856 50.8308 67.5388 56.3494 89.6185C59.521 102.285 58.4438 102.798 61.2031 109.618C68.6233 127.998 81.2695 136.751 79.5807 138.878Z" fill="#FEFEFE"/>
<path d="M142.752 61.6991C153.25 31.1196 154.454 21.4597 165.777 11.0332C168.323 8.66662 179.932 -1.99986 186.887 1.40675C194.766 5.27335 192.426 25.1197 191.136 36.0728C189.972 45.9993 187.951 53.3325 181.774 71.9989C167.386 115.331 163.869 118.978 159.214 120.458C149.78 123.458 136.808 117.165 131.874 107.912C127.453 99.5917 131.861 93.4052 142.752 61.6991Z" fill="#F66386"/>
<path d="M145.817 134.918C147.147 136.578 156.422 133.244 163.629 126.251C172.459 117.698 173.669 108.032 177.127 93.7717C185.424 59.5923 192.559 59.7723 194.414 36.3994C195.205 26.3995 196.748 6.83321 186.901 1.39997C181.867 -1.37332 175.784 0.613313 172.273 1.75329C167.113 3.43993 157.645 8.00652 147.439 26.6529C143.895 33.1194 139.334 42.7793 133.949 65.7589C129.678 84.4685 126.432 103.399 124.228 122.465C124.228 122.465 129.933 113.671 130.704 111.638C135.817 98.2317 136.814 88.8852 139.806 74.8321C141.495 66.8789 142.745 61.0056 145.285 53.1791C148.118 44.4259 151.143 35.2994 157.699 25.5729C163.131 17.5064 174.7 3.51993 180.85 6.09322C181.375 6.31322 182.898 7.08654 184.627 12.5864C186.825 19.7764 187.223 27.3988 185.784 34.7794C181.236 56.3324 174.567 63.5856 169.048 85.6652C165.877 98.3317 166.954 98.8383 164.195 105.665C156.774 124.038 144.128 132.798 145.817 134.918Z" fill="#FEFEFE"/>
<path d="M90.2785 173.704C92.0405 178.164 91.0498 182.097 89.7932 187.037C88.4634 192.37 87.3464 196.717 83.9089 198.33C79.7068 200.33 74.6005 196.997 69.0486 193.377C62.792 189.303 54.9596 184.204 55.5381 177.637C55.9437 172.97 60.3319 169.89 63.1843 167.864C65.671 166.104 70.8305 162.451 77.6656 163.651C83.111 164.664 88.1974 168.451 90.2785 173.704Z" fill="black"/>
<path d="M76.4624 169.504C73.7164 170.517 71.602 173.597 72.3201 175.97C73.211 178.937 78.4171 180.39 81.5222 178.277C83.4104 176.99 84.8466 174.164 83.8227 171.817C82.6525 169.17 78.9756 168.584 76.4624 169.504Z" fill="#FEFEFE"/>
<path d="M141.794 168.837C139.048 169.85 136.934 172.93 137.652 175.304C138.543 178.27 143.749 179.724 146.854 177.61C148.742 176.324 150.179 173.497 149.155 171.15C147.991 168.504 144.314 167.917 141.794 168.837Z" fill="#FEFEFE"/>
<path d="M93.9023 231.263C95.7832 233.014 98.2506 233.994 100.817 234.009C104.86 233.929 108.603 231.123 110.279 226.903" stroke="#F66386" stroke-width="3" stroke-miterlimit="10" stroke-linecap="round"/>
<path d="M126.648 231.263C124.767 233.014 122.3 233.994 119.733 234.009C115.691 233.929 111.947 231.123 110.279 226.903" stroke="#F66386" stroke-width="3" stroke-miterlimit="10" stroke-linecap="round"/>
<path d="M89.4807 120.185C92.19 121.377 95.2273 121.594 98.0777 120.798C104.58 118.751 109.534 110.351 106.675 105.405C103.902 100.598 92.1602 104.152 91.8344 102.505C91.5086 100.858 101.555 94.5051 110.358 98.0183C118.27 101.185 123.157 111.565 120.185 119.565C118.968 122.617 116.817 125.203 114.042 126.951" fill="#FEFEFE"/>
<path d="M175.87 146.377C174.394 146.417 172.007 146.491 169.068 146.604C153.49 147.224 147.738 148.171 134.899 148.637L120.511 148.857C98.0047 149.204 96.5752 149.197 94.4342 149.157C86.3093 148.997 79.8067 148.564 70.6046 147.957C64.9863 147.584 60.2855 147.211 56.8813 146.924C49.0821 144.711 44.8534 138.038 45.8774 133.531C47.021 128.464 55.3321 123.751 64.3746 127.271C75.824 128.431 88.1112 129.218 101.15 129.424C122.489 129.754 143.823 128.507 164.979 125.691C170.531 126.111 172.166 127.558 172.639 128.798C173.476 130.998 170.97 133.344 172.193 135.338C173.104 136.831 174.972 136.244 176.236 137.591C177.293 138.664 177.885 140.998 175.87 146.377Z" fill="#7F579F"/>
</svg>
