<svg xmlns="http://www.w3.org/2000/svg" viewBox="0 0 213.15 345.98"><defs><style>.cls-1{fill:#545454;}.cls-2{fill:#6ff1ef;}.cls-3{fill:#e7ffff;opacity:0.5;}.cls-4{fill:#fda5b3;}.cls-5{fill:#ffcf3f;}.cls-6{fill:#eb3566;}</style></defs><g id="Camada_2" data-name="Camada 2"><g id="Camada_1-2" data-name="Camada 1"><path class="cls-1" d="M136.44,176.79C137.76,190.47,126.06,200,117,208.2A147.43,147.43,0,0,0,92.14,237a81.3,81.3,0,0,0-8.79,16.68,44.72,44.72,0,0,0-2.52,18.74A79.28,79.28,0,0,0,85,291.55a156.59,156.59,0,0,0,7.17,17.86,103.55,103.55,0,0,0,11.07,18c4,5.24,8.38,10.82,8.79,17.67,0,.48.78.48.75,0-.34-5.73-3.37-10.63-6.69-15.13a138.72,138.72,0,0,1-10.32-15.21,134.07,134.07,0,0,1-8-17.79,102.92,102.92,0,0,1-5.57-19.38A46.69,46.69,0,0,1,83,257.24a67.6,67.6,0,0,1,8.24-17.41A145.47,145.47,0,0,1,116,210.07c9.58-8.8,22.6-18.62,21.19-33.28-.05-.48-.8-.48-.75,0Z"/><path class="cls-2" d="M133.36,172.27C112,150.91,111.69,150.6,111.69,150.6,104.37,143,84.27,122,78.21,91.51c-1.95-9.81-7.63-38.37,9.84-63A69.62,69.62,0,0,1,123.51,2.86c17.91-5.46,32.82-1.73,39.4,0,7.4,1.95,31.08,8.2,43.34,29.55,11.57,20.15,6,41.65,2,57.13-8.59,33.09-32,58.8-43.34,65-7.84,4.28-13.63,11.87-21.67,15.76-.37.18-1.73.81-2,2-.19.94.47,1.64,2,3.94s2.23,3.45,2,3.94c-.43.81-2.25,0-5.91,0-4.14,0-5.78,1.19-7.88,0a5.56,5.56,0,0,1-2-2"/><path class="cls-3" d="M180.64,26.5c-1.52,1.45,5.91,7.74,9.85,21.67a66.22,66.22,0,0,1,2,23.64c-1.25,16.66-7.53,26.75-5.91,27.58s7.75-7.53,11.82-15.76c2.29-4.65,5.31-10.92,5.91-19.7.26-3.92.87-12.79-3.94-21.67C194.3,31.12,182.38,24.83,180.64,26.5Z"/><path class="cls-1" d="M131.92,172.32a13.77,13.77,0,0,0,10.71.11c.44-.18.25-.91-.2-.72a13,13,0,0,1-10.13,0c-.44-.19-.82.46-.38.65Z"/><path class="cls-1" d="M100.16,182.53c.51,1.2,1,3,1.48,4.39q1.55,4.86,2.93,9.75,4.43,15.38,7.87,31c2.94,13.28,5.39,26.68,7,40.17a224.94,224.94,0,0,1,1.75,40.76c-.69,11.45-2.54,23.38-8,33.62-.58,1.09-1.2,2.16-1.87,3.2-.26.41.39.79.65.38,6-9.43,8.44-20.84,9.53-31.84,1.35-13.51.71-27.18-.7-40.66a399.28,399.28,0,0,0-6.6-40.8q-3.51-16.63-8.1-33c-1.57-5.6-3.09-11.27-5.11-16.73-.07-.2-.15-.4-.23-.6-.19-.44-.84-.06-.65.38Z"/><path class="cls-4" d="M101.1,178l6.38-22.6c2-7.85,7.63-29.39.27-52.06-2.37-7.28-9.27-28.5-30.19-38.46a53.42,53.42,0,0,0-33.3-3.85A53.62,53.62,0,0,0,17.92,75.81C13.7,79.88.2,92.93,0,111.79c-.19,17.81,11.59,30.09,20.07,38.94,18.14,18.91,43.4,27.35,53.32,27.24,6.84-.07,13.55,2.84,20.39,2.43a2.55,2.55,0,0,1,2,.58c.48.55.3,1.27.16,3.37s-.2,3.14.16,3.37c.59.38,1.49-.87,3.95-2.21,2.79-1.52,4.31-1.37,5.27-2.95a4.32,4.32,0,0,0,.58-2.05"/><path class="cls-3" d="M57.78,73c-.34,1.54,6.88,2.62,15.1,10a52.85,52.85,0,0,1,11,14.44c6.13,11.24,6.43,20.25,7.78,20.13s1.68-7.94.79-14.87a39.31,39.31,0,0,0-4.52-15c-1.46-2.63-4.77-8.59-11.44-12.39C68.17,70.52,58.17,71.24,57.78,73Z"/><path class="cls-1" d="M101.51,177.19A9.86,9.86,0,0,1,94.89,181c-.47.06-.48.81,0,.75a10.67,10.67,0,0,0,7.27-4.13c.29-.39-.36-.76-.65-.38Z"/><path class="cls-1" d="M95.12,228.31c-.79,8.61,5.82,15.08,11.72,20.33a106.38,106.38,0,0,1,17.59,19.6A60.58,60.58,0,0,1,131,280.05a30.38,30.38,0,0,1,2.1,13.2A54.11,54.11,0,0,1,130,307.33,102.87,102.87,0,0,1,124.75,320,77.56,77.56,0,0,1,117,332c-2.54,3.37-5,7-5.27,11.31,0,.48.72.48.75,0,.28-4.19,2.72-7.68,5.17-10.93a78.31,78.31,0,0,0,7-10.66A98.51,98.51,0,0,0,129.84,310a67.35,67.35,0,0,0,3.69-13.36,32.31,32.31,0,0,0-.53-13,43.27,43.27,0,0,0-5.06-11.3,99.17,99.17,0,0,0-16.13-20.15c-6.74-6.48-16.92-13.16-15.94-23.84,0-.48-.71-.48-.75,0Z"/><path class="cls-5" d="M97.85,225.22l14.8-14.8c5-5.22,18.74-19.53,22.88-40.37,1.33-6.7,5.21-26.21-6.73-43.07a46.16,46.16,0,0,0-51.14-17.49c-5,1.33-21.23,5.6-29.6,20.18-7.91,13.77-4.1,28.46-1.35,39,5.87,22.61,21.84,40.18,29.61,44.41,5.35,2.92,9.31,8.11,14.8,10.77.25.12,1.19.55,1.35,1.34s-.33,1.12-1.35,2.7-1.53,2.35-1.35,2.69c.3.55,1.54,0,4,0,2.83,0,4,.81,5.38,0a3.74,3.74,0,0,0,1.35-1.35"/><path class="cls-3" d="M110.48,123.67c-1,1,4,5.28,6.73,14.8a45.35,45.35,0,0,1,1.35,16.15c-.86,11.38-5.15,18.28-4,18.84s5.3-5.14,8.08-10.77a34.15,34.15,0,0,0,4-13.45c.18-2.68.6-8.74-2.69-14.81C119.82,126.82,111.67,122.53,110.48,123.67Z"/><path class="cls-1" d="M98.51,224.71a8.75,8.75,0,0,1-6.83,0c-.44-.18-.64.54-.2.73a9.53,9.53,0,0,0,7.41-.09c.44-.19.06-.84-.38-.65Z"/><path class="cls-1" d="M120,232a85.86,85.86,0,0,0-3.06,9.78q-3.08,10.74-5.47,21.65c-4,18.06-7.1,36.93-5.88,55.48.56,8.55,2.09,17.59,6.79,24.93.26.41.91,0,.65-.38-4.2-6.55-5.8-14.5-6.5-22.14a139.78,139.78,0,0,1,.58-27.36,306,306,0,0,1,10-50,99.78,99.78,0,0,1,3.61-11.72c.19-.44-.54-.64-.72-.2Z"/><path class="cls-6" d="M119.89,229.16l-4.36-15.44c-1.39-5.37-5.22-20.08-.18-35.57,1.62-5,6.33-19.47,20.62-26.27a35.39,35.39,0,0,1,40.75,7.44c2.88,2.79,12.1,11.7,12.24,24.59.13,12.16-7.92,20.55-13.71,26.6-12.39,12.92-29.65,18.68-36.43,18.61-4.67-.05-9.26,1.94-13.93,1.66a1.71,1.71,0,0,0-1.4.39c-.33.38-.2.87-.11,2.31s.14,2.14-.11,2.3-1-.6-2.7-1.51c-1.9-1-2.94-.94-3.6-2a2.84,2.84,0,0,1-.39-1.4"/><path class="cls-3" d="M179.06,174.09c-1,.36.94,4.94-.42,12.37a35.9,35.9,0,0,1-4.44,11.6c-4.33,7.6-9.47,11-8.92,11.74s5.23-1.87,8.94-4.87a26.89,26.89,0,0,0,7.13-8,20.91,20.91,0,0,0,3.1-11.09C184.22,179.24,180.22,173.68,179.06,174.09Z"/><path class="cls-1" d="M119.06,228.9a7.39,7.39,0,0,0,5.07,2.88.37.37,0,0,0,.38-.37.4.4,0,0,0-.38-.38,6.56,6.56,0,0,1-4.42-2.51.38.38,0,0,0-.51-.13.38.38,0,0,0-.14.51Z"/></g></g></svg>