<svg xmlns="http://www.w3.org/2000/svg" viewBox="0 0 113 113"><defs><style>.cls-1{fill:#fff;}.cls-2{fill:#fbd319;}.cls-3{fill:#e40613;}.cls-4{fill:#00afe6;}.cls-5{fill:#adadb7;}</style></defs><g id="Camada_2" data-name="Camada 2"><g id="Camada_1-2" data-name="Camada 1"><path class="cls-1" d="M113,56.5A56.5,56.5,0,1,1,5.53,32.1c.35-.72.7-1.44,1.08-2.15.9-1.67,1.87-3.3,2.92-4.86a57,57,0,0,1,8.5-10,.08.08,0,0,0,0,0A57.18,57.18,0,0,1,29.55,6.83,56.16,56.16,0,0,1,56.5,0,56.51,56.51,0,0,1,113,56.5Z"/><path class="cls-2" d="M38.36,22c-.37,1.38-1.29,4.83-3.72,5.58-1.62.51-2.94-.51-5-1.24-3.3-1.18-6.09-.72-10.54,0a34.9,34.9,0,0,0-13.6,5.8c.35-.72.7-1.44,1.08-2.15.9-1.67,1.87-3.3,2.92-4.86a71,71,0,0,1,8.5-10,.08.08,0,0,0,0,0A57.18,57.18,0,0,1,29.55,6.83a55.8,55.8,0,0,1,5.17-2.48C39.15,7.13,39.85,16.39,38.36,22Z"/><path class="cls-3" d="M63.39,112.58a56.52,56.52,0,0,1-51-20.8c-1.24-6-.89-19.14,6.66-35.77,6.21-13.69,16.38-27.72,19.19-26.43.92.43.85,2.37.82,3.16,0,0-.26,8.11,2.91,33.09,1.86,14.71,10.62,35.15,18.83,43C61.42,109.43,63.17,111,63.39,112.58Z"/><path class="cls-4" d="M113,56.5a56.38,56.38,0,0,1-4.61,22.39,9.34,9.34,0,0,1-2.22-3.4c-4.66-10.35-21-25.39-34.29-32C49.36,32.17,41.62,29.73,41.62,29.73c-.75-.24-2.6-.82-2.7-1.82-.28-3.08,16.33-8,31.3-9.33,13.77-1.21,24.31.81,30.88,3.24A56.18,56.18,0,0,1,113,56.5Z"/><path class="cls-5" d="M49.5,29.5C47,35.19,40.37,40.54,34,39c-.44-.11-4.63-1.19-6.5-5-2.77-5.64,1.65-13,6.5-16.5,3.37-2.42,10.35-5.45,14.5-2C52.48,18.81,51.12,25.84,49.5,29.5Z"/></g></g></svg>