<svg xmlns="http://www.w3.org/2000/svg" viewBox="0 0 182 182"><defs><style>.cls-1{fill:#fff;}.cls-2{fill:#fbd319;}.cls-3{fill:#e40613;}.cls-4{fill:#00afe6;}.cls-5{fill:#adadb7;}</style></defs><g id="Camada_2" data-name="Camada 2"><g id="Camada_1-2" data-name="Camada 1"><path class="cls-1" d="M182,91A91,91,0,1,1,8.9,51.71c.56-1.17,1.14-2.33,1.75-3.46q2.17-4.05,4.7-7.84A91.36,91.36,0,0,1,29,24.36a.3.3,0,0,0,.08-.08A91.06,91.06,0,0,1,47.59,11a85.19,85.19,0,0,1,8.34-4A91,91,0,0,1,182,91Z"/><path class="cls-2" d="M61.78,35.38c-.59,2.21-2.08,7.78-6,9-2.62.82-4.73-.82-8-2-5.33-1.9-9.83-1.17-17,0-9.5,1.55-16.92,6.05-21.91,9.34.56-1.17,1.14-2.33,1.75-3.46q2.17-4.05,4.7-7.84A113.46,113.46,0,0,1,29,24.36a.3.3,0,0,0,.08-.08A91.06,91.06,0,0,1,47.59,11a85.19,85.19,0,0,1,8.34-4C63.06,11.49,64.19,26.41,61.78,35.38Z"/><path class="cls-3" d="M102.09,181.32a91,91,0,0,1-82.17-33.5c-2-9.6-1.42-30.82,10.73-57.61,10-22,26.38-44.65,30.92-42.56,1.47.68,1.35,3.8,1.31,5.08,0,0-.42,13.06,4.68,53.3,3,23.7,17.1,56.61,30.33,69.23C98.93,176.26,101.74,178.81,102.09,181.32Z"/><path class="cls-4" d="M182,91a90.68,90.68,0,0,1-7.43,36.07c-1.83-1.46-3-4.32-3.57-5.48-7.51-16.67-33.88-40.9-55.24-51.6C79.5,51.82,67,47.88,67,47.88c-1.21-.38-4.2-1.31-4.35-2.92C62.23,40,89,32,113.1,29.93c22.18-1.95,39.15,1.31,49.73,5.21A90.5,90.5,0,0,1,182,91Z"/><path class="cls-5" d="M79.73,47.51c-4.07,9.17-14.7,17.79-25,15.3-.7-.17-7.46-1.91-10.47-8.05-4.45-9.09,2.65-20.94,10.47-26.57,5.42-3.91,16.68-8.78,23.36-3.23C84.53,30.3,82.34,41.61,79.73,47.51Z"/></g></g></svg>