<svg xmlns="http://www.w3.org/2000/svg" viewBox="0 0 164.56 467.73"><defs><style>.cls-1{fill:#964a32;}.cls-2{fill:#1a2927;}.cls-3{fill:#87412e;}.cls-4{fill:#f4ebd4;}.cls-5{fill:#ef0750;}.cls-6{fill:#923524;}.cls-7{fill:#fff;}.cls-8{fill:#351406;}.cls-9{fill:#1e2a28;}.cls-10{fill:none;stroke:#000;stroke-linecap:round;stroke-miterlimit:10;}.cls-11{fill:#f7f7f7;}</style></defs><g id="Camada_2" data-name="Camada 2"><g id="Pronto"><path class="cls-1" d="M147,287.46c3-5.81-7-15.17-19-28.74-15.82-17.9-24.52-31.09-26.19-30.19-.56.3.27,1.84,1,5.2,1.88,8.33.1,13.36,0,17.93,0,1.83.24,4.85,11.19,21.35,11.14,16.79,16.32,25.45,21.63,24.58,1.06-.17,2.12-.95,4.24-2.52A25.85,25.85,0,0,0,147,287.46Z"/><path class="cls-1" d="M6.05,290.79c-3.66-5.13,9.78-21.14,20.59-33.61,14.2-16.38,27.83-32,29.61-30.69.53.4-.47,2-1.61,5.69-2.81,9.09-1.58,14.91-2,20,0,.24,0,.51-.11.81-1.73,9.78-8.6,16.54-13.48,21.74C25.59,289.1,22.35,300.24,17.29,299c-.89-.22-2.64-1.51-6.13-4.09C8.07,292.6,6.53,291.47,6.05,290.79Z"/><path class="cls-2" d="M119.62,99.08l.28.29c3.94,4,9.53,5.95,12.23,5.85,9-.33,18-24.15,11.45-30.7-5.38-5.37-21.58.57-21.41,2.42.22,2.29,26.34,5.64,32.06-4,3.05-5.14.47-14.25-4.73-17.44-6-3.68-14.32-2.39-14.62-.76-.25,1.29,4.35,4.25,8.07,3.47,5.93-1.24,9.51-11.9,8.41-19.67C149,22,123.72,8.29,109.44,15c-7.22,3.38-13,12.59-10.94,16,1.38,2.3,6.93,2.67,9.12.31,4-4.34-1.33-19.83-11.31-26.66C79.79-6.74,49.57,5,47.05,17.84,45.31,26.73,56.53,37.43,57.29,37c.93-.57-6.56-22.36-19.32-24.56-9-1.55-16.7,7.31-17.63,8.39-7.73,9.13-9,24.61-1.1,32.49,6.45,6.46,18.08,6.87,18.91,4.8.93-2.32-9.87-12.16-19.63-10.18S2.87,63.57,5,74.56C7,84.81,16.34,94,24.49,93.47c8.58-.59,14.55-12,15.79-11,1.44,1.09-8.14,12.94-4.6,18.09,1.92,2.78,6.86,2.44,9,2.3,11.77-.76,33.25-.55,64.67.65"/><path class="cls-1" d="M31.06,336.75c-1,.92-2.91,3.3-1.32,21.17a228.49,228.49,0,0,0,4.63,29.77c8.45,37.84,12.81,56.88,19.19,62.86,1.34,1.25,8.12,7.36,6.62,10.58-.87,1.85-4,1.84-4,2.65.09,1.14,6.47,1.43,10.58,1.32,5.1-.13,6.12-.86,6.62-1.32,2.3-2.16,1.57-6.35,1.32-7.94-1.34-8.73,1.23-17.63,1.32-26.47.21-18.66,1.77-16,1.33-27.78-.4-10.55-1.6-11.23-2.65-26.47-1.09-15.84.14-16-1.32-19.85C67.12,338.77,39.44,329.07,31.06,336.75Z"/><path class="cls-1" d="M114.51,332.4c1,.62,3.65,2.67,5.34,20.53a209.31,209.31,0,0,1,.53,30.79c-2.22,51-.76,57.06-6.25,64.68-1.1,1.52-6.57,8.79-4.48,11.65,1.2,1.65,4.31,1,4.4,1.85.13,1.13-6.08,2.63-10.14,3.31-5,.85-6.16.33-6.74,0-2.67-1.68-2.75-5.94-2.82-7.55-.34-8.82-4.56-17.07-6.34-25.72-3.76-18.28-4.79-15.36-6.6-27-1.62-10.43-.57-11.32-2.45-26.48-1.95-15.76-3.19-15.69-2.48-19.74C79.5,341.26,104.83,326.46,114.51,332.4Z"/><path class="cls-3" d="M72.08,208.39c1.13,10,0,11.91,0,11.91-2.19,3.3-6,2.36-9.26,5.3-4.3,3.94-3.16,10.56-3.31,16.54-.11,5-3.6,13-10.58,29.11-6.46,14.88-10.86,22-14.56,35.73-.67,2.5-1.12,4.41-1.32,5.29-1.93,8.58-3.66,16.31-2.65,25.14.48,4.12,2.15,18.7,12.57,24.48a14.22,14.22,0,0,0,2.26,1.05c4.23,1.51,11,1.31,36.12-1.05,11.16-1.05,13-1.3,15.88-2.65,11.42-5.33,16-16.93,17.2-19.85,4.08-10.25,2.85-19.22,1.32-30.43-1-7.25-1.8-7.41-6.61-25.14-6.73-24.78-10.09-37.16-9.27-42.34.71-4.41,2.67-12.22-1.32-15.88-2.31-2.12-5-1.38-6.62-4s.27-4.56,0-10.59c-.17-3.8-.32-7.18-2.64-9.26-3-2.7-8.39-2.08-11.91,0A12.65,12.65,0,0,0,72.08,208.39Z"/><path class="cls-4" d="M30.89,325.69c-1.13-.06-3.35,13.92-4.53,27.18-2,22-3.36,39.86,5.44,43,1.6.58,2.46.28,6.34,0,22.88-1.67,37.38,5.27,40.78.76.73-1,.49-3.42,0-8.31-.21-2.15-.4-2.56-.9-6-.1-.67-1.31-9-.91-9.06s1.86,4.88,2.72,10.57c1.36,9-.36,11,1.81,12.84,3.64,3,10.19-1.08,23.56-1.51,14.31-.47,17.28,3.92,21.75,1.51,6.69-3.6,3.34-18.81-3.62-49.08-.45-2-5-21.36-7.25-21.13-.74.07-.44,2.11-1.81,3.77-3.79,4.57-16.6,1.88-24.47.76-31.25-4.47-53.69,5.87-58-1.51C30.74,327.66,31.31,325.71,30.89,325.69Z"/><path class="cls-1" d="M143,160.84c2.38-1.59,3.9-1.76,5-1.66,3,.27,5.15,2.81,6.08,5,1.44,3.38.14,6.59-.56,8.29a13,13,0,0,1-6.62,7.18,12,12,0,0,1-8.29.55c-1.47-.47-3-.94-3.86-2.21C131.87,173.93,136.9,164.93,143,160.84Z"/><path class="cls-1" d="M112.59,87.37A43.49,43.49,0,0,1,125.88,94a44.72,44.72,0,0,1,11.4,13.29,59.18,59.18,0,0,1,7.59,19,99.26,99.26,0,0,1,.95,34.18c-1.25,6.64-3.24,16.68-10.34,26.39a60.58,60.58,0,0,1-8.17,9,59.59,59.59,0,0,1-13.06,9,62.29,62.29,0,0,1-13.89,4.9,86.8,86.8,0,0,1-17.15,2.45c-1.91.09-3.7.17-5.81.12,0,0-1.19,0-2.35-.12-10-.68-21.24-5.71-21.24-5.71a75.09,75.09,0,0,1-13.88-8.17A58.06,58.06,0,0,1,28.5,187.67a37.93,37.93,0,0,1-7.35-13.06c-1.46-4.68-1.52-8.45-1.59-13.2a105.87,105.87,0,0,1,.94-13.29,145.35,145.35,0,0,1,3.8-22.78c1.65-6.2,3.61-13.6,7.6-19.94C44,86.1,70.73,83.32,77.47,82.62,93.47,81,105.63,85,112.59,87.37Z"/><path class="cls-1" d="M25.2,155.57c-1.52-2.43-2.83-3.21-3.85-3.56-2.8-1-5.84.42-7.58,2-2.72,2.48-2.85,5.94-2.93,7.77a13.06,13.06,0,0,0,3.07,9.28A11.88,11.88,0,0,0,21.22,175c1.54.19,3.08.37,4.44-.41C30,172.11,29.09,161.84,25.2,155.57Z"/><path class="cls-5" d="M22.72,74.64C21.37,80,23.48,87.88,27,88.87s6.68-5.78,13.51-11.38c10.77-8.83,23.94-9,39.12-9.25,8.45-.12,22.06-.33,37,6.4,11.62,5.24,18.12,12,20.63,10s-.65-11.85-5-17.78C111.34,38.19,28.65,51.27,22.72,74.64Z"/><path class="cls-6" d="M71.78,166.44c-1.13-1.89,3.51-9,9.87-9.68,6.76-.73,13,6,12.18,8.05-.43,1.07-2.68.35-9.8.81C75.3,166.19,72.51,167.66,71.78,166.44Z"/><path class="cls-7" d="M68.3,147.85a14.5,14.5,0,0,0-2-8.07,15.77,15.77,0,0,0-10.09-7.06A16,16,0,0,0,37,144.83a17.34,17.34,0,0,0-.2,4.28c.13,2.15.28,5.37,1.85,7.39,1.78,2.29,4.86,2.43,10.25,2.59,8.31.24,13.08.38,16.36-3.16A13,13,0,0,0,68.3,147.85Z"/><path class="cls-8" d="M58.45,138.67a10.35,10.35,0,0,0-8.07-1,11.4,11.4,0,0,0-5.05,3,11.74,11.74,0,0,0-3,6.06,9.67,9.67,0,0,0,1,7.06c2.17,3.42,6.14,3.92,7.07,4a10.83,10.83,0,0,0,6-1,11.18,11.18,0,0,0,5-5.05,10.32,10.32,0,0,0,1-8.07A9.65,9.65,0,0,0,58.45,138.67Z"/><path class="cls-7" d="M98.75,149.11a14.82,14.82,0,0,1,1.85-7.4,15.81,15.81,0,0,1,10-7.36,16.06,16.06,0,0,1,10.09,1,16.65,16.65,0,0,1,9.09,11.1,17.71,17.71,0,0,1,.37,5.42c-.16,1.85-.38,4.61-1.85,6.47-2,2.57-5.67,2.53-12.45,2.37-7.8-.18-11.7-.28-14.33-3.16S98.77,150.4,98.75,149.11Z"/><path class="cls-8" d="M108.37,140.31a10.26,10.26,0,0,1,8.07-1,11.2,11.2,0,0,1,5,3,11.71,11.71,0,0,1,3,6,9.6,9.6,0,0,1-1,7.07c-2.16,3.41-6.13,3.91-7.06,4a10.8,10.8,0,0,1-6.06-1,11.19,11.19,0,0,1-5-5,10.3,10.3,0,0,1-1-8.08A9.57,9.57,0,0,1,108.37,140.31Z"/><path d="M55.84,144.44a5.18,5.18,0,0,0-4-.5,5.65,5.65,0,0,0-2.51,1.51,5.79,5.79,0,0,0-1.51,3,4.33,4.33,0,0,0,4,5.53,5.45,5.45,0,0,0,3-.5A5.6,5.6,0,0,0,57.35,151a5.11,5.11,0,0,0,.5-4A4.81,4.81,0,0,0,55.84,144.44Z"/><path d="M111,146.13a5.15,5.15,0,0,1,4-.51,5.65,5.65,0,0,1,2.51,1.51,5.84,5.84,0,0,1,1.51,3,4.33,4.33,0,0,1-4,5.53,5.36,5.36,0,0,1-3-.5,5.64,5.64,0,0,1-2.52-2.51,5.18,5.18,0,0,1-.5-4A4.81,4.81,0,0,1,111,146.13Z"/><path d="M68.42,149.69c.56-.11.61-3.27-.07-6a14.94,14.94,0,0,0-2.77-5.55,18.79,18.79,0,0,0-6.47-5.54,14.83,14.83,0,0,0-8.32-1.85,16.32,16.32,0,0,0-8.32,3.69c-2.76,2.08-3.44,3.69-6.62,5.06a8,8,0,0,1-4.09.82c-2.39-.28-3.89-1.87-4.08-1.64s.82,1.66,2.45,2.45,3.24.54,3.27.82-1.14.71-2.45.82c-3.29.27-5.59-1.83-5.72-1.64-.33.48,7.27,8.47,11.43,6.54,1.76-.82,1.26-2.64,3.27-5.72.25-.38,4.72-7,12.25-7.35a15.25,15.25,0,0,1,10.62,4.08C67.56,143.22,67.61,149.84,68.42,149.69Z"/><path class="cls-7" d="M47.68,150a1.63,1.63,0,0,0-1.88,1.56,1.5,1.5,0,0,0,1.3,1.3,1.61,1.61,0,0,0,1.72-1.68A1.46,1.46,0,0,0,47.68,150Z"/><path class="cls-7" d="M110.74,151.57a1.63,1.63,0,0,0-1.88,1.56,1.5,1.5,0,0,0,1.3,1.3,1.61,1.61,0,0,0,1.72-1.68A1.45,1.45,0,0,0,110.74,151.57Z"/><path d="M98.18,151.22c-.56-.1-.61-3.27.06-6a14.87,14.87,0,0,1,2.78-5.54,18.75,18.75,0,0,1,6.47-5.55,14.89,14.89,0,0,1,8.32-1.85c2.37.22,4.35,1.4,8.32,3.7a62.64,62.64,0,0,0,8.08,4.34,8.93,8.93,0,0,0,4.09.81,16,16,0,0,0,3.26-.81c.1.2-2,2.05-4.9,2.45-1.88.26-3.21-.23-3.26,0s1.92,1.41,4.25,1.53c3.37.17,5.55-1.87,5.72-1.63.33.47-7.27,8.46-11.44,6.53-1.75-.81-1.25-2.63-3.26-5.72-.25-.38-4.73-7-12.25-7.35a15.26,15.26,0,0,0-10.62,4.09C99,144.75,99,151.38,98.18,151.22Z"/><path class="cls-7" d="M118.69,144.87a2.94,2.94,0,0,0-3.39,2.83,2.71,2.71,0,0,0,2.36,2.35,2.9,2.9,0,0,0,3.1-3A2.62,2.62,0,0,0,118.69,144.87Z"/><path class="cls-7" d="M57.83,143.62a2.94,2.94,0,0,0-3.39,2.82,2.73,2.73,0,0,0,2.36,2.36,2.9,2.9,0,0,0,3.1-3A2.61,2.61,0,0,0,57.83,143.62Z"/><path class="cls-9" d="M61.52,86.77c1.58-.34,2.4,4.89,7.15,7.15,3.31,1.57,8.2,1.53,10.71-.9C81,91.45,81,89.47,82.06,89.45c1.18,0,1.42,2.66,3.57,5.36.57.71,3.55,4.44,7.15,4.46,3.86,0,4.85-4.25,9.82-4.46a7.58,7.58,0,0,1,3.57.89c4.1,2.2,6.28,8.5,4,12.75-1.63,3-5.61,5.19-7.35,4.09-1.25-.8-1.28-3.25-.81-4.9.94-3.31,4.24-4.64,4.08-4.9s-7.23,1-9,6.53a8.32,8.32,0,0,0,1.63,8.17c3.28,3.38,8.47,1.8,9,1.63,3-1,4.68-3.22,6.54-5.72,3.56-4.78,4.26-8.91,5.32-8.72.73.13.67,2.08,1.78,6.25.88,3.29,1.34,5,2.68,6.25,3.1,2.91,7.83.58,8.93,2.68.62,1.18-.69,2.25-2.68,7.15-1.64,4.07-2.5,6.09-1.78,7.14,1.9,2.8,11.59-2.28,13.51.49,1.53,2.19-3.5,6.85-1.63,9.8,1.29,2,4.42,1,5.72,3.27.71,1.25.37,2.61-.63,6.09-1.94,6.73-1.92,7.82-2.68,8.93a13.2,13.2,0,0,1-4,3.76,12.26,12.26,0,0,0,.66,7.83l.15.34c1.61,3.27,6.54,6.65,10.62,4.9a7,7,0,0,0,4.08-5.72c.34-3.85-2.77-6.75-3.26-6.53-.2.08.06.64,0,1.63-.15,2.55-2.22,5.15-3.27,4.9s-1.73-3.3-.82-5.72c1.05-2.79,3.77-3.41,7.35-5.71a35.25,35.25,0,0,0,8.17-7.72c2.81-3.8,2.55-11.25.9-25.9-3-26.61-1.15-23.93-2.68-28.57-6.29-19.09-25.9-28.44-39.3-34.83-9.58-4.57-28.28-13.18-52.68-9.82A76.73,76.73,0,0,0,31.16,70.7C12.9,84.83,7.14,103,4.37,111.78c-2,6.2-8.24,26-.89,33.93a36.29,36.29,0,0,1,5.35,7.14c4.1,3.48,7.26,3.19,9,6.24,1.17,2,.67,3.61,0,9-1.31,10.57-2,15.85,0,18.79,2.72,4,7,2.75,9,7.35,1.15,2.63,1.35,6.71-.81,8.16a3.78,3.78,0,0,1-4.09,0c-2.55-1.83-1-7.25-1.63-7.35s-3,4.24-1.63,8.17c1.7,4.88,8.84,7.75,12.25,5.72,4.1-2.46,3.75-12.61-.82-18-3.48-4.08-7.28-2.9-9-6.53-2.07-4.41,3.21-6.83,3.26-15.52a63.8,63.8,0,0,0-2.18-15.14c-.52-1.94-1.26-4.44,0-6.25s3.44-.91,5.36-2.68,1.94-5.17,1.78-9.83c-.2-5.92-1.53-8.06,0-9.82,1.18-1.35,2.63-.87,5.36-1.79,3.28-1.09,5.19-3.13,8-6.25,15.54-17,16.43-19,17-21.43C60.78,91.1,60.14,87.07,61.52,86.77Z"/><path class="cls-6" d="M75.86,187.53c0-2.42,2.57-4.06,3.17-4.44a8.26,8.26,0,0,1,7-.63c1.86.75,4.52,2.7,4.44,5.07-.1,3.13-5,5.77-8.88,5.07C79.06,192.16,75.9,190.18,75.86,187.53Z"/><path class="cls-10" d="M69.54,182.28a18.12,18.12,0,0,0,4.24,2.82,19.06,19.06,0,0,0,12.37,1.36c3.06-.78,5.58-2.36,8.49-4.18.89-.56,1.61-1.06,2.12-1.42"/><path class="cls-5" d="M71,217.07c2.94.26,5.18.72,5.69.79,2.3.33,4.76.66,6.56.85,0,0,5.79.59,8.19-.55a3.82,3.82,0,0,1,.8-.27,5.17,5.17,0,0,1,1.63,0c2,.41,3.27,4.08,3.27,4.08,6.24,26.07,9.13,40.12,10.61,48.19.39,2.1,1.37,7.53,3.27,14.7,2.93,11,4.5,10.82,5.7,17.85,1.41,8.28.06,12.15,3.28,14.81,2.94,2.43,5.61.52,8.17,3.27,3.06,3.28,2.15,9.11.82,12.25a6.86,6.86,0,0,1-2.45,3.27,5.72,5.72,0,0,1-5.51.54c-2.87-1.54-2.63-6.28-3.48-6.26-1.09,0-.05,7.93-4.08,10.62a7.46,7.46,0,0,1-7.35,0c-4.15-2.33-4-8.19-5.72-8.17s-1.21,5.58-4.9,8.17c-3.52,2.47-9.73,1.49-13.06-1.64-2.92-2.73-3.14-6.66-4.09-6.53s.14,5-2.45,8.17c-3.25,4-11.44,4-14.7.81-2.94-2.87.43-10.17-.81-10.61s-2.71,6-8.17,9c-5.27,2.85-12.31,1.47-13.07-.82-.58-1.77,2.61-4.15,1.64-5.71-.09-.14-.44-.64-1.64-.82-4.84-.72-8.37,6.09-13.06,5.72-3.07-.25-5.78-3.37-6.54-6.54a8.3,8.3,0,0,1,1.64-7.35c2-2.19,3.93-1,6.53-3.26,2-1.74,2.71-4.05,3.56-6.75.71-2.23.49-2.72,1.34-6.32.56-2.39,1.11-4.1,1.63-5.72,2.28-7.09,5.08-12.54,8-20.11,1.55-4.06,2.49-7.08,3.46-10.1,1.08-3.42,6.89-25.44,9-31.85,3.15-9.69,1.58-3,9.8-19.6.45-.92,1.72-3.49,4.08-4.09A7.21,7.21,0,0,1,71,217.07Z"/><path class="cls-5" d="M75.86,465.34C73,468.83,66.63,467.67,62.8,467c-4.4-.8-9.13-2.67-9-4.09.08-.67,1.24-1,2.43-1.42a.35.35,0,0,0-.05.3,3.34,3.34,0,0,1,.37-.41,5.48,5.48,0,0,0,1.58-.83h0a1.7,1.7,0,0,0,.34-.37,1.26,1.26,0,0,0,.21-.47v-.05a1,1,0,0,0,0-.3c-.07-1.51-2.74-2.55-2.47-3.79.41-1.88,6.65-.09,13.89-3.26,3.07-1.35,5.65-3.29,6.53-2.45.4.38.12,1,0,2.45-.25,3,.69,4.06.82,6.53C77.54,459.54,77.73,463.08,75.86,465.34Z"/><path class="cls-11" d="M63.68,460.44a5.5,5.5,0,0,0-1.62-.92,3.87,3.87,0,0,0-2.55-.24,3.4,3.4,0,0,0-.81.4v-.05a1,1,0,0,0,0-.3,3.34,3.34,0,0,1,.62-.33C61.34,458.22,63.8,460.05,63.68,460.44Z"/><path class="cls-5" d="M56.56,461.36a3.34,3.34,0,0,0-.37.41.35.35,0,0,1,.05-.3Z"/><path class="cls-11" d="M62,461.77a5.28,5.28,0,0,0-1.61-.93,4.12,4.12,0,0,0-2.2-.32,1.7,1.7,0,0,0,.34-.37C60.26,460,62.07,461.43,62,461.77Z"/><path class="cls-5" d="M96.21,466.19c3.5,2.85,9.51.44,13.13-1,4.15-1.66,8.42-4.42,8-5.79-.21-.65-1.42-.74-2.66-.91a.35.35,0,0,1,.1.28,3.77,3.77,0,0,0-.45-.33,5.48,5.48,0,0,1-1.7-.49h0a1.55,1.55,0,0,1-.41-.3,1.12,1.12,0,0,1-.3-.41.14.14,0,0,1,0-.06,1,1,0,0,1-.08-.28c-.24-1.49,2.18-3,1.67-4.2-.78-1.77-6.54,1.22-14.26-.45-3.28-.71-6.19-2.1-6.89-1.1-.32.46.08,1,.49,2.4.85,2.93.13,4.12.49,6.57C93.42,460.83,93.94,464.34,96.21,466.19Z"/><path class="cls-11" d="M107.18,459a5.42,5.42,0,0,1,1.4-1.22A3.83,3.83,0,0,1,111,457a2.84,2.84,0,0,1,.88.23.14.14,0,0,1,0-.06,1,1,0,0,1-.08-.28,3,3,0,0,0-.67-.2C109,456.32,107,458.6,107.18,459Z"/><path class="cls-11" d="M109.13,459.92a5.45,5.45,0,0,1,1.4-1.23,4,4,0,0,1,2.09-.75,1.55,1.55,0,0,1-.41-.3C110.45,457.88,109,459.61,109.13,459.92Z"/><path class="cls-9" d="M62.8,125.6c0,1.47-4.68,3-8.58,3.27s-4.88-.63-8.57-.82c-7.44-.36-12,3-12.25,2.45-.4-.82,9.38-9.24,20.82-8.16C58.05,122.7,62.81,124.16,62.8,125.6Z"/><path class="cls-9" d="M102.48,126c0,1.47,4.68,3,8.58,3.27,3.75.3,4.88-.64,8.57-.82,7.44-.36,12,3,12.25,2.45.39-.82-9.39-9.24-20.82-8.17C107.23,123.06,102.47,124.53,102.48,126Z"/><path class="cls-1" d="M123.4,290.87c-4.94,5.74-2.23,9.65-6.61,12.46-3.16,2-5,.49-10.92,3.15-4,1.78-3.12,2.46-6.53,3.88-5.67,2.36-8.54.7-13.71,3.59-1.82,1-3.82,2.13-3.74,3.44.18,2.64,8.83,5.06,16.42,4.55,10.88-.72,18.41-7.38,20-8.86,3.43-3.17,3-4.16,7.26-8.28,3.86-3.73,7.47-4.73,12.83-9.16.43-.36.82-.69,1.2-1a22.61,22.61,0,0,0,3.58-3.54c1.07-1.67,1.74-4.52.44-6.09a4.5,4.5,0,0,0-2.9-1.25,12.16,12.16,0,0,0-5.63.32C132.44,284.8,127.37,286.24,123.4,290.87Z"/><path class="cls-1" d="M26.52,292.49c4.8,6,1.89,9.89,6.23,12.91,3.14,2.19,5.08.7,11,3.62,4,2,3.07,2.63,6.49,4.2,5.67,2.62,8.65,1,13.79,4.18,1.81,1.1,3.81,2.32,3.67,3.64-.29,2.67-9.17,4.8-16.87,4-11-1.15-18.42-8.21-20-9.78-3.37-3.35-2.89-4.34-7.06-8.69-3.78-3.94-7.42-5.1-12.69-9.81-.43-.38-.81-.73-1.18-1.09a22.75,22.75,0,0,1-3.5-3.74c-1-1.73-1.6-4.66-.21-6.2a4.56,4.56,0,0,1,3-1.16,12.39,12.39,0,0,1,5.71.54C17.56,286,22.66,287.63,26.52,292.49Z"/><path class="cls-1" d="M110.3,306.05c-.11-.81-1-1.26-2.54-2-2.65-1.25-4.72-2.22-7-1.39-1.27.45-3.33,1.72-3.26,3.15.12,2.28,5.59,4.82,9.57,3.36C108.55,308.65,110.46,307.3,110.3,306.05Z"/><path class="cls-1" d="M40.83,308.62c.28-.76,1.29-1,2.9-1.36,2.85-.63,5.1-1.13,7.17.19,1.13.72,2.87,2.41,2.48,3.79-.61,2.2-6.51,3.48-10.07,1.18C42,311.55,40.39,309.8,40.83,308.62Z"/><path class="cls-5" d="M65.25,222.79a14.54,14.54,0,0,0-8.17-.82,20.25,20.25,0,0,0-11.43,5.72c-1.71,1.62-6.78,6.41-5.72,10.62a16,16,0,0,1,.82,3.26c.29,2.83-.45,5.74-.82,5.72a2.12,2.12,0,0,1,0-2.45,1.59,1.59,0,0,1,1.63,0c1.14.59.74,2.12,1.64,2.45,1.13.42,2.36-1.33,3.26-.82.42.24.23.66.82,1.64.34.57.88,1.47,1.63,1.63,1.26.27,2-1.79,3.27-1.63,1.07.12,1.15,1.59,2.45,2.45,1.55,1,3.65.38,4.9,0,13.26-4.05,13.88-13.89,13.88-13.89A14.61,14.61,0,0,0,65.25,222.79Z"/><path class="cls-5" d="M98.08,222.37a14.48,14.48,0,0,1,8.21.2,20.25,20.25,0,0,1,10.63,7.09c1.49,1.82,5.93,7.2,4.36,11.24a16,16,0,0,0-1.21,3.14c-.64,2.77-.27,5.75.1,5.77a2.11,2.11,0,0,0,.31-2.43,1.59,1.59,0,0,0-1.62-.2c-1.21.44-1,2-1.93,2.23-1.18.28-2.18-1.61-3.14-1.22-.44.19-.31.63-1,1.52-.41.53-1.06,1.36-1.82,1.42-1.29.11-1.73-2-3-2-1.08,0-1.34,1.44-2.74,2.13-1.66.82-3.67-.08-4.86-.61C87.66,245,88.26,235.14,88.26,235.14A14.62,14.62,0,0,1,98.08,222.37Z"/><path class="cls-4" d="M27.32,311.07a2.46,2.46,0,0,0,1.87-.5c.4-.43.28-.95.14-1.56-.1-.42-.15-.66-.41-.84a2.28,2.28,0,0,0-2.06.11c-.7.36-1.38,1.16-1.07,1.89S27.18,311.05,27.32,311.07Z"/><path class="cls-4" d="M29.23,308.31a2.48,2.48,0,0,0,1.88-.5c.4-.43.28-.95.14-1.56-.1-.42-.16-.66-.41-.84a2.3,2.3,0,0,0-2.07.11c-.69.36-1.38,1.16-1.07,1.89S29.1,308.29,29.23,308.31Z"/><path class="cls-4" d="M30.51,306.09a2.53,2.53,0,0,0,1.88-.5c.4-.43.27-1,.13-1.56-.09-.42-.15-.66-.41-.84a2.25,2.25,0,0,0-2.06.11c-.69.36-1.38,1.16-1.07,1.89S30.38,306.07,30.51,306.09Z"/></g></g></svg>