<svg xmlns="http://www.w3.org/2000/svg" viewBox="0 0 222.05 431.32"><defs><style>.cls-1{fill:#050100;}.cls-2{fill:#d28f63;}.cls-12,.cls-3,.cls-7{fill:none;stroke-linecap:round;stroke-miterlimit:10;}.cls-3{stroke:#050100;}.cls-4{fill:#c68561;}.cls-5{fill:#14223c;}.cls-6{fill:#ce733e;}.cls-7{stroke:#000;}.cls-8{fill:#fff;}.cls-9{fill:#60270a;}.cls-10{fill:#fce5bc;}.cls-11{fill:#efd7af;}.cls-12{stroke:#efd7af;}</style></defs><g id="Camada_2" data-name="Camada 2"><g id="Pronto"><path class="cls-1" d="M147.61,429.91c0,.41.67.79.93.93,3.16,1.68,21.76-1.44,21.4-3.73-.1-.65-1.92-.9-2.79-.93-1.69,0-2.57.73-5.59,1.87a21.52,21.52,0,0,1-2.79.93c-3.64.76-5.44-.83-9.3,0C147.75,429.35,147.62,429.77,147.61,429.91Z"/><path class="cls-1" d="M128.22,428c.12.4-.51.91-.74,1.09-2.79,2.24-21.64,2.63-21.72.32,0-.66,1.72-1.25,2.57-1.43,1.66-.36,2.66.23,5.83.79a19.27,19.27,0,0,0,2.92.39c3.72.08,5.19-1.82,9.14-1.73C128,427.5,128.19,427.89,128.22,428Z"/><path class="cls-2" d="M82.38,297.77c-1,.94-3,3.38-1.36,21.71A233.88,233.88,0,0,0,85.77,350c8.67,38.8,13.13,58.32,19.68,64.45,1.37,1.29,8.33,7.56,6.78,10.86-.89,1.89-4.14,1.89-4.07,2.71.09,1.17,6.64,1.47,10.86,1.36,5.23-.13,6.27-.88,6.78-1.36,2.36-2.21,1.61-6.51,1.36-8.14-1.38-8.95,1.26-18.08,1.36-27.14.2-19.14,1.81-16.39,1.35-28.49-.41-10.82-1.63-11.51-2.71-27.14-1.12-16.24.14-16.42-1.36-20.36C119.35,299.84,91,289.89,82.38,297.77Z"/><path class="cls-2" d="M168,293.31c1,.64,3.74,2.73,5.47,21.05a213.59,213.59,0,0,1,.55,31.58c-2.28,52.25-.77,58.51-6.41,66.33-1.12,1.55-6.73,9-4.59,12,1.23,1.69,4.42,1.06,4.51,1.88.13,1.17-6.24,2.71-10.39,3.41-5.17.86-6.33.33-6.92,0-2.74-1.72-2.82-6.09-2.89-7.74-.35-9.05-4.68-17.51-6.51-26.38-3.85-18.75-4.9-15.74-6.76-27.71-1.66-10.7-.59-11.61-2.51-27.16-2-16.16-3.27-16.09-2.55-20.24C132.05,302.4,158,287.21,168,293.31Z"/><path class="cls-3" d="M166.93,426.89c-.06-.13-1.92-.63-2.73-1.83"/><path class="cls-3" d="M166.68,427.06a10.12,10.12,0,0,0-3.89-.21,10.83,10.83,0,0,0-6.14,3.25"/><path class="cls-3" d="M108.69,428.82c0-.14,1.77-1,2.35-2.3"/><path class="cls-3" d="M109,428.77a9.89,9.89,0,0,1,3.79-.92,10.8,10.8,0,0,1,6.63,2"/><path class="cls-4" d="M124.44,166.14c1.16,10.24,0,12.21,0,12.21-2.25,3.38-6.2,2.42-9.49,5.43-4.42,4-3.25,10.83-3.4,17-.12,5.13-3.7,13.37-10.85,29.86-6.63,15.26-11.13,22.52-14.93,36.63-.69,2.58-1.16,4.54-1.36,5.43-2,8.81-3.75,16.73-2.71,25.78.48,4.23,2.2,19.18,12.89,25.11a15.27,15.27,0,0,0,2.31,1.07c4.34,1.56,11.23,1.34,37-1.07,11.45-1.07,13.33-1.34,16.29-2.72,11.71-5.47,16.45-17.36,17.64-20.35,4.18-10.52,2.93-19.72,1.35-31.21-1-7.44-1.84-7.6-6.78-25.78-6.9-25.41-10.35-38.11-9.5-43.43.72-4.51,2.74-12.52-1.36-16.28-2.36-2.17-5.12-1.41-6.78-4.07s.28-4.67,0-10.86c-.18-3.9-.33-7.36-2.72-9.5-3.08-2.77-8.6-2.13-12.21,0A13,13,0,0,0,124.44,166.14Z"/><path class="cls-1" d="M115.93,10.62c-2.08,0-3.05-1-6.71-1-1.93,0-3.34.07-4.8,1s-1.8,1.94-2.88,1.93-1.39-1.2-2.87-1.93c-1.65-.81-3.39-.36-4.8,0a10.94,10.94,0,0,0-5.76,3.86,12.6,12.6,0,0,0-1.92,3.86,21.7,21.7,0,0,0-1,4.83c-.06,0,1.14-6.34,0-6.76-.91-.34-3.38,3.17-4.79,6.76a27.13,27.13,0,0,0-1,15.45c1.44,5.3,3.86,6.75,2.88,9.65-.88,2.58-3.61,3.83-5.76,4.83-3.85,1.77-8.94,2.4-9.59,1-.79-1.74,5.53-5.25,4.79-6.76-.59-1.21-5.8-1-8.63,1.94-2.41,2.52-2.24,6.16-1.92,11.58.45,7.46,2.31,9,1.92,15.45-.22,3.59-.8,3.09-1,6.75-.05,1.27-.05,2.81,1.92,13.52,1.3,7.06,2.27,7.89,2.88,8.69.79,1,3.11,4.06,5.22,3.64,2.4-.47,3.49-6.52,5.59-18.61,2.57-14.85,2.55-14.85,2.79-15.82,2.53-10.3,4.3-17.5,10.38-22.31a48,48,0,0,1,13.43-6.76c4.64-1.54,6.25-1.36,25.9-2.89a195.79,195.79,0,0,1,20.15-1c5.34.08,8.08.14,11.51,1a36.77,36.77,0,0,1,16.31,8.69c2.35,2.19,5.12,6.64,10.55,15.44,4,6.53,6,9.79,6.72,11.59,2.67,7.15,2.35,13.54,1.91,22.2-.29,5.9-.94,8.68-.95,16.41,0,9.62,1,11,1.91,11.58,3.83,2.45,12-4.32,15.35-7.72,5-5,10-13.09,7.68-16.41-1.25-1.78-3.72-.93-4.8-2.9-1.3-2.35,1.68-4.57,2.88-9.65,1.11-4.73-1-4.74-1.92-16.41-.33-4.25-.22-6.52-1.92-7.72-2.38-1.69-6.12.24-6.71-1s2.74-2.68,2.87-5.79C212,58.9,210.73,58.6,210,56c-1.28-4.25,1.31-5.63,0-8.69-.58-1.34-1-.82-6.72-5.79-1.36-1.17-2.49-2.2-2.88-1.93-.57.41,1.61,3,1,5.79-.53,2.32-2.81,4.28-3.84,3.87-1.27-.52.33-4.34-.95-9.66a21.76,21.76,0,0,0-3.84-7.72,26.78,26.78,0,0,0-11.51-9.65c-2.54-1.06-6-2.5-8.64-1-.76.45-1.56,1.21-1.92,1-.55-.39,1-2.57,1-4.83,0-2.52-2-4.61-4.79-6.76C160.08,5.46,152.84-.11,141.83,0c-4.39.05-11.64.12-17.26,4.83C121.61,7.3,119.63,10.62,115.93,10.62Z"/><path class="cls-5" d="M80.61,282c-1.16-.06-3.44,14.65-4.65,28.6-2,23.16-3.46,41.94,5.58,45.28,1.64.6,2.53.3,6.51,0,23.5-1.76,38.39,5.54,41.88.79.74-1,.49-3.59,0-8.74-.22-2.26-.41-2.69-.93-6.35-.11-.71-1.34-9.48-.94-9.53s1.91,5.13,2.8,11.12c1.4,9.49-.37,11.58,1.86,13.5,3.73,3.22,10.46-1.13,24.19-1.59,14.7-.49,17.74,4.13,22.33,1.59,6.87-3.78,3.43-19.79-3.72-51.63-.46-2.07-5.09-22.48-7.44-22.24-.76.07-.45,2.22-1.86,4-3.89,4.81-17,2-25.13.79C109,282.81,86,293.7,81.54,285.92,80.45,284,81,282,80.61,282Z"/><path class="cls-2" d="M123.82,185c.1.62-1.64,1.07-4.83,2.83-7.88,4.35-10.86,9.13-14.52,12.32-4.14,3.61-10.78,4.56-24.06,6.46-17.73,2.54-26.6,3.81-35.51.59-4.3-1.56-8.95-4.1-13.41-2.06-3,1.38-3.62,3.79-8.71,6.62-3.65,2-3.69,1-6.74,2.81-5.08,3-5.45,6.19-10.65,8.53-1.83.82-3.85,1.72-4.81.9-1.93-1.65,1.17-9.71,5.92-15.29,6.81-8,16.27-10,18.34-10.36,4.42-.83,4.93.08,10.57-.85a53.3,53.3,0,0,0,14.44-4.64c6.76-3.08,15.72-4.18,33.65-6.36C99.47,184.56,123.46,182.74,123.82,185Z"/><path class="cls-2" d="M149,182.53c-.51.37.39,1.93,1.36,5.43,2.41,8.68,1.08,14.15,1.36,19,.31,5.48,4.28,10.89,12.21,21.71,10.59,14.45,15.89,21.67,24.42,25.78,4.13,2,9.19,3.53,10.86,8.14,1.13,3.13-.18,5.24,1.36,10.86,1.1,4,1.87,3.33,2.71,6.79,1.4,5.74-.61,8.22,1.36,13.57.69,1.88,1.46,3.95,2.71,4.07,2.53.22,6.13-7.64,6.79-14.93.94-10.45-4.26-18.6-5.43-20.36-2.5-3.73-3.51-3.46-6.79-8.14a53.12,53.12,0,0,1-6.78-13.57c-2.52-7-8-14.15-19-28.49C166.34,199.62,150.86,181.2,149,182.53Z"/><path class="cls-2" d="M201,269.66c-.77,0-1.33.79-2.21,2.08-1.55,2.29-2.77,4.09-2.33,6.37.24,1.25,1.12,3.37,2.47,3.51,2.14.22,5.33-4.52,4.54-8.45C203.19,271.68,202.2,269.69,201,269.66Z"/><path class="cls-2" d="M23.54,209.27c.61.47.55,1.46.43,3-.21,2.76-.38,4.92-2.14,6.44-1,.83-3,1.93-4.12,1.2-1.82-1.16-1.36-6.85,1.71-9.44C20.58,209.5,22.59,208.55,23.54,209.27Z"/><path class="cls-2" d="M198.88,113.18c2.45-1.63,4-1.8,5.1-1.7,3,.28,5.28,2.88,6.23,5.1,1.49,3.46.14,6.76-.56,8.5a13.42,13.42,0,0,1-6.8,7.36,12.27,12.27,0,0,1-8.5.57c-1.51-.48-3-1-4-2.27C187.43,126.61,192.59,117.38,198.88,113.18Z"/><path class="cls-2" d="M167.66,37.84c6.51,2.18,10.4,4.36,13.63,6.81A45.82,45.82,0,0,1,193,58.28a60.6,60.6,0,0,1,7.79,19.47c1.06,4.88,2.86,15.14,1,35.05-2,21.52-3.08,32.28-9.73,38.94a16,16,0,0,1-1.64,1.41,127.87,127.87,0,0,1-12,6.38c-8.94,4.16-15.9,6.05-29.83,9.83-8.95,2.42-11.62,2.82-14.89,2.79A45.92,45.92,0,0,1,119,169.27c-5.23-1.74-9.06-3.79-16.55-7.79-3.13-1.67-5.21-2.92-6.83-3.9a66.5,66.5,0,0,1-6.36-4.13,50.1,50.1,0,0,1-5.32-4.63c-3.68-3.66-9.63-9.57-11.67-18.5-.63-2.74-.42-7.34,0-16.55.15-3.39.36-7.82,1-13.63a148.28,148.28,0,0,1,3.9-23.36c1.68-6.36,3.7-13.94,7.79-20.45C97.36,36.54,124.73,33.69,131.64,33,148.05,31.26,160.52,35.44,167.66,37.84Z"/><path class="cls-2" d="M78,107.78c-1.55-2.49-2.9-3.29-3.93-3.65-2.88-1-6,.43-7.79,2.06-2.78,2.54-2.92,6.09-3,8a13.35,13.35,0,0,0,3.14,9.52,12.27,12.27,0,0,0,7.5,4c1.57.19,3.15.38,4.55-.43C82.91,124.74,82,114.21,78,107.78Z"/><path class="cls-1" d="M84.33,81c-1.08.5-3.63-1.44-4.65-3.73-.63-1.41-.6-2.77-.93-2.79s-.59,1-.93,2.79c-.85,4.54-.28,5.52-.93,8.38-.74,3.2-1.7,3-1.87,5.58-.11,1.79.32,2.59.94,5.59,0,0,.31,1.51.93,6.51.71,5.73.53,15.57-.93,15.82s-5.07-10.89-6.52-22.33c-1-7.62-1.74-14.43.93-22.34,1.71-5,2.5-3.13,8.38-14C83.33,52.05,84.24,48.42,89,43.74a33.48,33.48,0,0,1,7.45-5.59c9.25-5,20.74-5,21.4-2.79C118.75,38.49,97.6,44,89,58.62c-2,3.45-4.39,7.47-4.65,13C84.1,76.55,85.63,80.35,84.33,81Z"/><path class="cls-1" d="M196,79.1c-.52-.14-1,1.08-1.86.93a1.36,1.36,0,0,1-.93-.93c-.27-1,.82-1.54,1.86-3.73.62-1.28.69-2,1-2s.73,1.72.93,2.79c.85,4.54.27,5.51.93,8.38.73,3.2,1.7,3,1.86,5.58.12,1.79-.32,2.59-.93,5.58,0,0-.31,1.52-.93,6.52-.71,5.73-.53,15.57.93,15.82s5.07-10.89,6.51-22.34c1-7.61,1.75-14.42-.93-22.33-1.71-5-2.5-3.13-8.37-14-4.58-8.44-5.5-12.06-10.24-16.75a33.11,33.11,0,0,0-7.44-5.58c-6.43-3.48-18-6.91-21.4-2.79-4.32,5.17,3.61,22.79,13,24.35,3.62.61,7.48-1.18,14,.93a9.78,9.78,0,0,1,4.65,2.8,9,9,0,0,1,1.92,8.21c-.82,2.66-2.53,2.56-2.85,4.81-.45,3.18,2.53,6.15,4.65,7.45.93.57,2.65,1.62,3.72.93C197.43,82.82,196.83,79.31,196,79.1Z"/><path class="cls-6" d="M125.06,115.77A15.54,15.54,0,0,1,135.93,109c8-.9,13.09,5.2,13.43,5.63"/><path class="cls-7" d="M123.51,135.17a18.73,18.73,0,0,0,4.35,2.9,19.53,19.53,0,0,0,12.69,1.38c3.13-.79,5.72-2.41,8.7-4.28.91-.58,1.65-1.09,2.17-1.45"/><path class="cls-8" d="M122.24,99.87a14.85,14.85,0,0,0-2.07-8.28,16.29,16.29,0,0,0-10.35-7.25A16.47,16.47,0,0,0,90.15,96.76a17.74,17.74,0,0,0-.2,4.39c.07,1.19.28,4.9,1.89,7.59,3.25,5.41,11.47,5.59,12.8,5.62,1.8,0,9.71-.08,14.49-6.21A15.25,15.25,0,0,0,122.24,99.87Z"/><path class="cls-9" d="M112.14,90.45a10.58,10.58,0,0,0-8.28-1,11.41,11.41,0,0,0-5.18,3.1,12,12,0,0,0-3.1,6.21,9.94,9.94,0,0,0,1,7.25c2.23,3.5,6.3,4,7.25,4.14a11.15,11.15,0,0,0,6.21-1,11.49,11.49,0,0,0,5.17-5.17,10.62,10.62,0,0,0,1-8.28A9.85,9.85,0,0,0,112.14,90.45Z"/><path class="cls-8" d="M153.46,101.15a15.23,15.23,0,0,1,1.9-7.58A16.21,16.21,0,0,1,165.65,86a16.47,16.47,0,0,1,10.35,1,17.08,17.08,0,0,1,9.31,11.39,17.47,17.47,0,0,1,.38,5.56,15.5,15.5,0,0,1-1.89,6.63c-3.34,5.32-11.38,5.39-13,5.4s-9.81.06-14.49-6.21A15.27,15.27,0,0,1,153.46,101.15Z"/><path class="cls-9" d="M163.33,92.13a10.59,10.59,0,0,1,8.28-1,11.61,11.61,0,0,1,5.17,3.11,12,12,0,0,1,3.11,6.21,9.88,9.88,0,0,1-1,7.24c-2.22,3.5-6.29,4-7.24,4.14a11.12,11.12,0,0,1-6.21-1,11.54,11.54,0,0,1-5.18-5.18,10.58,10.58,0,0,1-1-8.28A9.77,9.77,0,0,1,163.33,92.13Z"/><path d="M109.46,96.37a5.32,5.32,0,0,0-4.13-.52,5.77,5.77,0,0,0-2.58,1.55,6,6,0,0,0-1.54,3.1,4.43,4.43,0,0,0,4.12,5.67,5.51,5.51,0,0,0,3.1-.52,5.7,5.7,0,0,0,2.58-2.58,5.29,5.29,0,0,0,.51-4.12A4.86,4.86,0,0,0,109.46,96.37Z"/><path d="M166,98.1a5.2,5.2,0,0,1,4.12-.52,5.67,5.67,0,0,1,2.58,1.55,5.93,5.93,0,0,1,1.55,3.09,4.44,4.44,0,0,1-4.13,5.68,5.58,5.58,0,0,1-3.09-.52,5.7,5.7,0,0,1-2.58-2.58,5.3,5.3,0,0,1-.52-4.13A4.87,4.87,0,0,1,166,98.1Z"/><path class="cls-1" d="M136.44,10.24c-4.48.81-8.33,2.9-15.82,7.44-8.9,5.4-11,8.24-12.1,10.24a22.22,22.22,0,0,0-2.79,10.23,22.16,22.16,0,0,0,2.79,12.1c1.19,2.06,4.8,8.34,10.24,8.37,4.18,0,7.85-3.64,7.44-4.65s-5.25.94-6.51-.93c-1-1.44.53-4.68,2.79-6.51,3.57-2.9,8.68-2.06,10.24-1.86,13.11,1.67,34.75-9.12,35.36-17.68C168.65,18.87,150.73,7.66,136.44,10.24Z"/><path d="M152.44,103.52c-.47-.06-.65-3.23.07-6.16a15.3,15.3,0,0,1,2.85-5.69A19.39,19.39,0,0,1,162,86a15.18,15.18,0,0,1,8.53-1.9,16.64,16.64,0,0,1,8.54,3.79,25.15,25.15,0,0,1,1.89,1.9,27.6,27.6,0,0,1,2.85,3.79c2.37,3.91,3.1,8.45,2.84,8.53s-.67-3.19-2.84-6.63c-.51-.8-6.68-10.32-16.12-9.48-5.85.51-9.61,4.71-10.43,5.68C152.84,96.9,153.13,103.62,152.44,103.52Z"/><path d="M122.36,101.75c.47-.07.66-3.23-.07-6.17a15.32,15.32,0,0,0-2.84-5.68,19.24,19.24,0,0,0-6.64-5.69,15.27,15.27,0,0,0-8.53-1.9,16.72,16.72,0,0,0-8.53,3.79c-.87.77-1.8,1.79-1.9,1.9A28.82,28.82,0,0,0,91,91.79c-2.37,3.91-3.1,8.45-2.84,8.53s.67-3.19,2.84-6.63c.51-.8,6.68-10.31,16.12-9.48,5.85.52,9.6,4.72,10.42,5.69C122,95.12,121.68,101.84,122.36,101.75Z"/><path class="cls-8" d="M111.11,97.84c-1.85.18-3.88,1.18-3.79,1.89s2.15,1.11,3.79,1c1.85-.19,3.88-1.18,3.8-1.9S112.76,97.67,111.11,97.84Z"/><path class="cls-8" d="M174.5,99c-1.85.18-3.88,1.18-3.79,1.89s2.14,1.12,3.79,1c1.85-.18,3.88-1.18,3.79-1.89S176.15,98.79,174.5,99Z"/><path class="cls-8" d="M101.09,102a1.66,1.66,0,0,0-1.92,1.6A1.53,1.53,0,0,0,100.5,105a1.64,1.64,0,0,0,1.76-1.72A1.49,1.49,0,0,0,101.09,102Z"/><path class="cls-8" d="M165.76,103.68a1.66,1.66,0,0,0-1.92,1.6,1.53,1.53,0,0,0,1.33,1.33,1.64,1.64,0,0,0,1.76-1.72A1.49,1.49,0,0,0,165.76,103.68Z"/><path class="cls-1" d="M150.75,69.34c-2.31,2.28-2.81,6.71-1,8.56.71.71,1.72,1,9,.15,6.17-.73,6.17-1,8.64-1.14,4.27-.18,7.5.57,11.48,1.5a63.34,63.34,0,0,1,10.57,3.14c1.87.77,3.29,1.48,3.74,1,.63-.71-1.1-3.49-2.94-5.36a17.9,17.9,0,0,0-5.93-3.8,62.87,62.87,0,0,0-10.12-4,52.27,52.27,0,0,0-17.12-1.93C153.37,67.71,151.88,68.23,150.75,69.34Z"/><path class="cls-1" d="M126.84,69.42c2.31,2.27,2.81,6.71,1,8.56-.71.7-1.72,1-9,.14-6.17-.73-6.17-1-8.64-1.13-4.27-.18-7.49.57-11.48,1.5A62.93,62.93,0,0,0,88.1,81.62c-1.87.77-3.29,1.49-3.73,1-.64-.71,1.1-3.48,2.93-5.36a17.88,17.88,0,0,1,5.93-3.79,61.4,61.4,0,0,1,10.12-4,52.27,52.27,0,0,1,17.12-1.93C124.22,67.79,125.71,68.31,126.84,69.42Z"/><path class="cls-10" d="M121.55,178.56a13,13,0,0,0,.93-2.27c.37-1.21.33-1.71.59-1.81.65-.25,1.21,2.38,3.13,4.08,2.2,1.95,4.33,1,4.66,2.28.42,1.62-3.13,3.44-2.8,5.69.22,1.42,1.75,1.26,2.8,3.41s.53,4.49.93,4.56.57-4,2.79-5.69c1.63-1.22,3.09-.08,3.72-1.14,1.08-1.82-2.8-5.85-1.86-8,1.2-2.69,8.74.89,10.24-2.28.64-1.35-.1-3.39,0-3.41s.23,3.87,1.86,6.83c1.81,3.29,4.14,2.07,5.58,4.55,1.76,3-.39,6.63-.93,13.66-.26,3.38.05,6.42.93,12.52,1.72,11.86,4.94,14.27,11.17,34.09,2.14,6.83,3,10.45,4.65,17.68a64,64,0,0,1,1.86,11.17c.3,4.73-.28,5.48,0,9.91.55,8.91,3,9.75,1.86,12.52-1.82,4.5-7.54,5.33-26,5.69-5,.09-6.48-.19-8.66-.15-1.29,0-1.62.12-3.07.23-4.06.3-6.08.44-6.88-.29-1-.95-.41-2.45,0-7.44.3-3.69.4-8.32,0-8.38s-1.47,3.45-1.87,7.45c-.49,5.05.52,7.3-.93,8.58-1.29,1.14-3.43.48-5.58,0-3.27-.75-14.52-1.28-23.69-2a68.12,68.12,0,0,0-8-.25,10.6,10.6,0,0,1-6.51-2.28c-3.76-3-3.25-9.59-2.79-13.33a104.3,104.3,0,0,1,10.23-33.5,264.2,264.2,0,0,0,19.54-46.5h0c2.09-17.54,5-22.29,7.44-22.75.89-.17,2.74.28,3.72-1.14h0A10.08,10.08,0,0,1,121.55,178.56Z"/><path class="cls-10" d="M127.33,185.55c-.58-2.13-4-2.91-11-4.47-13.07-2.94-25.59-5.77-33,1.6-6.88,6.86-8,21.23-2.21,25.9C92.07,217.3,129.58,193.82,127.33,185.55Z"/><path class="cls-10" d="M149,182c2-1,4.92,1,10.77,5.15,11.08,7.77,21.68,15.22,21.2,25.75-.45,9.8-10.41,20.43-17.86,19.24C149.16,229.89,141.26,185.91,149,182Z"/><path class="cls-11" d="M141.09,187c1.83.05,2.1-2.35,6.52-4.66,1.65-.86,2.49-1,2.79-1.86s-.76-2.37-2.79-5.58c-.32-.5-.54-.83-.93-.93-1.13-.29-1.93,1.69-3.73,2.79-2.81,1.74-5.35-.34-6.51.93C134.71,179.63,137.93,187,141.09,187Z"/><path class="cls-11" d="M127.41,186.14c-2,.41-2.62-2-7.31-3.26-1.63-.43-2.78-.46-3.1-1.27s.6-1.44,1.76-3.88,1-3.3,1.86-3.72c1.2-.56,2.8.39,3.72.93,2,1.21,2.12,2.39,3.72,2.79s2.21-.46,2.8,0C132.26,178.85,130.49,185.5,127.41,186.14Z"/><path class="cls-12" d="M129.35,286.75q.08-3,.11-6.32c.12-16.21-1.18-16.32-.93-29.59.3-16,2.34-23.73,1.86-35.29-.14-3.41.26-6.84,0-10.24-.28-3.66-.88-7.42.93-10.24.15-.23.3-.43.44-.61"/><ellipse class="cls-5" cx="128.53" cy="246.59" rx="1.4" ry="1.86"/><ellipse class="cls-5" cx="130.94" cy="194.65" rx="1.4" ry="1.86"/><ellipse class="cls-5" cx="128.53" cy="271.72" rx="1.4" ry="1.86"/><ellipse class="cls-5" cx="130.39" cy="220.54" rx="1.4" ry="1.86"/></g></g></svg>