<svg xmlns="http://www.w3.org/2000/svg" viewBox="0 0 891.24 872.56"><defs><style>.cls-1{fill:#757777;}.cls-2{fill:#fffaf8;}.cls-3{fill:#fff;}.cls-4{fill:none;stroke:#656666;stroke-linecap:round;stroke-miterlimit:10;stroke-width:3px;}</style></defs><g id="Camada_2" data-name="Camada 2"><g id="Camada_2-2" data-name="Camada 2"><path class="cls-1" d="M586,151.87c5.1,3,6.28,8.62,9.42,21.12,4,16,3.9,14,4.34,16.78,1.9,11.68-.3,21.66-8.45,46.13-6.74,20.25-10.11,30.37-14.78,41.15-12.69,29.35-14.16,22.19-43,70.07-2.52,4.19-7,11.69-12.82,11.53-5.14-.15-10-6.23-11.15-12.14-1.39-7.44,3.34-14,5.59-17.35,12.13-18.21,16.18-40.86,16.6-52.41.79-22.14-10.85-29.55-4.4-48.41,1.36-4,3.43-10,9-15.22,10.46-9.73,21.46-5.39,26.22-13.12,4.46-7.24-4.18-12.74-1.43-26.86,2.12-10.92,10.26-22.87,19-23A11.32,11.32,0,0,1,586,151.87Z"/><path class="cls-1" d="M872.86,251c-.09.16,6,2.2,6.49,5.36s-5,7-9.11,8.85c-11.74,5.15-22.15-1.85-52.4-10.44,0,0-5.35-1.57-17-4.41-20.29-4.93-41.39-5.53-62-8.78C718.72,238.4,612.63,224.82,492.3,261,438.22,277.26,346.65,304.79,275,389.06c-17.59,20.69-51.78,61.81-67.91,126.11-7.08,28.25-20.72,83.5-1,139.42,8.25,23.42,15.71,47.11,24,70.5,8.47,23.83,13.57,37.18,11.89,47.15a19.39,19.39,0,0,1-2.81,7.33c-7.61,12-26.9,16.34-41.76,12.71-19-4.65-26.64-21.28-47.56-54-33.09-51.7-34.2-41.69-51.42-72.76-25.07-45.23-33.26-85.46-37.21-105.69-23.24-119,21.62-226.59,40-270.56,21.37-51.27,49-117.43,116.21-176.14C276.4,61.64,336.08,42,379,27.81,470.93-2.52,546.16-.7,584.18.57,656.88,3,707.38,17.38,744,33.25c26,11.27,47.28,24.31,65.37,45.4,6.52,7.61,23.59,27.93,30.87,58.11,3,12.36,9,37.24,3,50.3a17,17,0,0,0-1.24,9.62c1,5.32,4.62,9,10.71,14.11,7.37,6.13,11.53,8.58,19.19,14,17.81,12.6,19.94,16.77,19.18,19.15-.1.31-.16.31-4.63,4.75-3.83,3.82-4.22,4.25-5.19,4.54C877.4,254.44,872.93,250.83,872.86,251Z"/><path class="cls-2" d="M817.84,254.74c-5.81-1.53-11.6-3.09-17-4.41-20.29-4.93-41.39-5.53-62-8.78C718.72,238.4,612.63,224.82,492.3,261,438.22,277.26,346.65,304.79,275,389.06c-17.59,20.69-51.78,61.81-67.91,126.11-7.08,28.25-20.72,83.5-1,139.42,8.25,23.42,15.71,47.11,24,70.5,8.47,23.83,13.57,37.18,11.89,47.15-8.67-5.53-11.79-17.48-22.85-42-10-22.08-12.65-23.89-18.55-37.1-22.08-49.34-24.93-113.63-25.05-116.88C171.2,462,235.56,364.84,247,348.1c25.09-36.86,73.23-94.78,151.2-134.5,39.3-20,73.51-27.57,141.92-42.67,81.39-18,114.74-14.48,141-6.49,16.92,5.14,32,12.5,50.09,21.33,41,20,57.9,34.83,68.64,46.38C809.29,242.37,815.67,249.23,817.84,254.74Z"/><path class="cls-1" d="M317.2,77c-8.75-13-29.59,4.31-102,0C146.84,73,126.44,63.28,73.62,72.08,35.36,78.46-.94,92.64,0,101.45c.69,6.37,20.24,4.41,50.56,18.36,19.89,9.15,40.14,19.92,51,39.5,11.59,20.86-5.2,32.67,3.29,67.48,2,8,8.59,35.21,23,42.79C176.39,295,343.24,115.64,317.2,77Z"/><path class="cls-1" d="M223.36,805.83c-6.84,2.23-7.63,18-8.32,31.92-1.21,24,2.74,33.56,0,34.7-5.27,2.18-31.87-28-31.93-65.24,0-8.49,0-27.37,13.88-43,1.95-2.19,17.79-19.46,40.25-18.05,10.85.69,18.17,5.41,29.15,12.5a120.33,120.33,0,0,1,33.31,31.92c15.13,22,24.82,52.44,18,56.9-5.75,3.79-15.54-16.35-44.41-23.59-12.58-3.16-19.61-1.57-31.92-8.33C231.21,809.94,227.85,804.36,223.36,805.83Z"/><circle cx="742" cy="111.58" r="23.04"/><ellipse class="cls-3" cx="759.16" cy="113.86" rx="9.56" ry="4.94"/><path d="M713.31,103.06c.6.32,3.09-7.69,11.48-13.5a31.25,31.25,0,0,1,15.8-5.46c2.53-.12,9.84-.41,16.36,4,6.86,4.66,8.51,11.31,10.92,10.63,1.69-.48,2.33-4.18,2-6.89-.83-6.92-8.29-10.84-10.63-12.06-8-4.18-15.79-3.11-19.24-2.59a32,32,0,0,0-15.5,6.32C715,91,712.59,102.68,713.31,103.06Z"/><path class="cls-1" d="M550,139c5.34,5.37,4.94,12.76,4.7,29.29-.3,21.13.21,18.69-.14,22.23-1.51,15.11-7.52,26.75-25.7,54.4-15,22.87-22.55,34.31-31.88,46.13-25.42,32.2-24.88,22.84-76.38,72.69-4.51,4.37-12.52,12.19-19.7,10.07-6.32-1.88-10.39-11-9.82-18.73.73-9.68,8.75-16.22,12.66-19.66,21-18.57,33.53-45.31,37.85-59.49,8.29-27.19-3.7-40.21,10.52-61.47,3-4.49,7.57-11.31,16.18-15.9,16.17-8.61,28.38.4,36.82-7.61,7.91-7.51-1-17.18,7.08-33.77,6.24-12.84,20.26-25,31.13-22.2A14.6,14.6,0,0,1,550,139Z"/><path class="cls-4" d="M842.6,228.29A107.12,107.12,0,0,0,867,248.77a104.89,104.89,0,0,0,11.36,6"/></g></g></svg>