<svg xmlns="http://www.w3.org/2000/svg" viewBox="0 0 196.93 418.51"><defs><style>.cls-1{fill:#feddb2;}.cls-2{fill:#f4d3ab;}.cls-3{fill:#fcfcfc;}.cls-4{fill:#eacca7;}.cls-5{fill:none;stroke-linecap:round;}.cls-5,.cls-7{stroke:#000;stroke-miterlimit:10;}.cls-6{fill:#5f2c17;}.cls-8{fill:#822b23;}.cls-9{fill:#f47946;}</style></defs><g id="Camada_2" data-name="Camada 2"><g id="Pronto"><path class="cls-1" d="M37.64,288.67c-1,.92-2.89,3.28-1.31,21a223.16,223.16,0,0,0,4.59,29.5c8.37,37.49,12.68,56.35,19,62.28,1.32,1.24,8.05,7.29,6.55,10.48-.86,1.83-4,1.83-3.93,2.63C62.64,415.67,69,416,73,415.85c5-.13,6.06-.85,6.55-1.31,2.28-2.14,1.56-6.3,1.31-7.87-1.33-8.65,1.22-17.47,1.31-26.22.2-18.49,1.76-15.84,1.32-27.53-.4-10.45-1.59-11.12-2.63-26.23C79.82,311,81,310.83,79.59,307,73.36,290.68,45.93,281.06,37.64,288.67Z"/><path class="cls-1" d="M120.32,284.37c1,.61,3.61,2.64,5.28,20.34a207.27,207.27,0,0,1,.54,30.51c-2.21,50.48-.76,56.53-6.2,64.08-1.08,1.5-6.51,8.71-4.44,11.55,1.19,1.63,4.28,1,4.36,1.82.13,1.13-6,2.61-10,3.29-5,.83-6.11.32-6.69,0-2.64-1.66-2.72-5.88-2.78-7.47-.35-8.75-4.53-16.92-6.29-25.49-3.72-18.11-4.74-15.21-6.54-26.78C85.92,345.85,87,345,85.1,329.94c-1.94-15.61-3.17-15.55-2.47-19.55C85.63,293.15,110.72,278.48,120.32,284.37Z"/><path class="cls-2" d="M78.28,161.5c1.12,9.89,0,11.8,0,11.8-2.18,3.27-6,2.33-9.18,5.24C64.84,182.45,66,189,65.83,194.93c-.12,4.95-3.58,12.92-10.49,28.85-6.4,14.74-10.76,21.76-14.42,35.39-.67,2.49-1.12,4.38-1.32,5.25C37.7,272.93,36,280.58,37,289.33c.47,4.08,2.13,18.53,12.46,24.25a13.88,13.88,0,0,0,2.23,1c4.19,1.5,10.85,1.3,35.79-1,11.06-1,12.87-1.28,15.73-2.62,11.32-5.28,15.9-16.78,17-19.66,4-10.17,2.82-19.06,1.31-30.16-1-7.19-1.79-7.34-6.56-24.91-6.66-24.55-10-36.82-9.18-41.95.7-4.37,2.65-12.1-1.31-15.74-2.29-2.1-5-1.36-6.55-3.93s.27-4.51,0-10.49c-.17-3.77-.32-7.11-2.62-9.18-3-2.67-8.32-2.06-11.8,0A12.49,12.49,0,0,0,78.28,161.5Z"/><path class="cls-1" d="M70.68,178.51c.46.39-.52,1.82-1.71,5.13-3,8.17-2.09,13.54-2.72,18.2-.72,5.26-4.94,10.17-13.38,20C41.59,235,36,241.53,27.42,244.86c-4.12,1.61-9.11,2.72-11.07,7-1.32,2.92-.22,5-2.11,10.35-1.36,3.8-2.05,3.07-3.12,6.34-1.77,5.42,0,8-2.32,13-.81,1.76-1.7,3.7-2.91,3.72-2.46,0-5.34-7.81-5.43-14.89C.33,260.26,6,252.79,7.2,251.19c2.69-3.41,3.64-3.08,7.15-7.34a51.49,51.49,0,0,0,7.54-12.57c2.95-6.53,8.78-13,20.42-26C52.68,193.67,69,177.08,70.68,178.51Z"/><path class="cls-1" d="M102,177.34c-.5.35.37,1.86,1.31,5.24,2.33,8.39,1,13.67,1.31,18.36.31,5.3,4.14,10.52,11.8,21,10.23,14,15.35,20.93,23.6,24.91,4,1.91,8.88,3.4,10.49,7.86,1.09,3-.17,5.06,1.31,10.49,1.06,3.89,1.81,3.22,2.62,6.56,1.35,5.54-.59,7.94,1.31,13.11.67,1.82,1.41,3.82,2.62,3.93,2.45.22,5.93-7.37,6.56-14.42.91-10.1-4.11-18-5.24-19.67-2.42-3.61-3.39-3.35-6.56-7.86a51.59,51.59,0,0,1-6.55-13.11c-2.44-6.75-7.75-13.68-18.36-27.54C118.76,193.84,103.8,176.05,102,177.34Z"/><path class="cls-1" d="M152.26,261.52c-.74,0-1.29.76-2.13,2-1.51,2.21-2.68,4-2.26,6.15.23,1.21,1.08,3.25,2.39,3.39,2.07.22,5.14-4.36,4.39-8.16C154.36,263.47,153.41,261.54,152.26,261.52Z"/><path class="cls-1" d="M12.12,261.32c.75-.05,1.33.7,2.23,1.91,1.6,2.14,2.86,3.82,2.54,6-.18,1.22-.93,3.3-2.23,3.5-2.06.31-5.34-4.12-4.76-8C10.11,263.36,11,261.4,12.12,261.32Z"/><path class="cls-1" d="M126.71,26.61A49.84,49.84,0,0,1,142.9,48.19c1,2.82,2.85,8.16,1.35,32.36-1.66,26.57-3.28,61.66-8.1,67.43-2.51,3-8,5.15-18.87,9.44,0,0-13.7,5.38-22.93,5.39H84.91c-4,0-11.47-1.48-18.88-4.05A91.07,91.07,0,0,1,51.2,152c-5.92-3.33-8.79-5.17-10.79-8.09-2.78-4.06-3.63-33.35-4-40.45-1-16.7-1.46-17.19-1.34-22.93,0-2.22.28-14.09,2.69-22.92C42.52,40,60,19.5,84.91,15.82,87.86,15.39,108.85,12.62,126.71,26.61Z"/><path class="cls-3" d="M54.47,103a8.82,8.82,0,0,0,2.81,2.42c2.45,1.46,4.79,1.54,7.62,1.61a16.37,16.37,0,0,0,6.82-.81,10.56,10.56,0,0,0,5.21-3.62c2.27-3.18,1.6-7,1.21-9.26a13.76,13.76,0,0,0-3.61-7.66,10.52,10.52,0,0,0-4.42-2.81,11.3,11.3,0,0,0-8,.8,14.86,14.86,0,0,0-7.22,7.25C54.42,91.83,51.29,98.55,54.47,103Z"/><path class="cls-3" d="M127.38,102.84a8.66,8.66,0,0,1-2.77,2.44c-2.42,1.49-4.76,1.61-7.59,1.72a16.57,16.57,0,0,1-6.83-.68,10.56,10.56,0,0,1-5.28-3.48c-2.31-3.1-1.72-6.86-1.36-9.11A13.42,13.42,0,0,1,107,86.12a10.43,10.43,0,0,1,4.36-2.86,11.43,11.43,0,0,1,8,.66,14.68,14.68,0,0,1,7.34,7C127.24,91.85,130.48,98.42,127.38,102.84Z"/><path class="cls-4" d="M82.21,109.06a10.23,10.23,0,0,1,6.56-5.25c5.13-1.2,8.92,2.38,9.18,2.62"/><path class="cls-5" d="M77,131.32A17.29,17.29,0,0,0,81,134a18,18,0,0,0,11.71,1.28c2.9-.73,5.29-2.23,8-4,.84-.53,1.53-1,2-1.34"/><path class="cls-6" d="M144.4,25.57c-.74-.79.91-2.46,1.37-6.42A18.57,18.57,0,0,0,144.4,10c-2.37-5.88-8-10.91-9.89-9.89-.74.41-.8,1.67,0,8.48,1.34,11.37,2.36,15.11,1.41,15.54-1.47.68-4.69-8-12.71-14.13-2.62-2-7.8-5.31-19.78-7.06C80.81-.35,61,5.84,56.8,7.2c-18.06,5.88-25.65,13.37-38.15,9.89C13.4,15.63,9.92,13,8.76,14.26,6.69,16.57,13.34,29.86,24.3,34c3.81,1.46,6.62,1.23,7.07,2.83.81,3-8.24,5.67-15.55,12.72C6.34,58.74,4.3,70.84,1.69,86.32c-1.45,8.63-2.94,23.19,0,24C7.5,112,16.44,91.26,13,96.21c0,0,3.17-7.32,4.24-7.06,1.43.35-.82,14.6-1.42,18.37-2.16,13.7-3.57,16.37-4.24,25.43-.64,8.78-.91,13.28,1.42,18.37,4.06,8.87,13.47,14.3,15.54,12.72,1.09-.84-.37-3.25-1.41-11.31-.35-2.64-1.41-10.89,0-11.3,1.15-.34,2.2,5.07,7.06,9.89a26,26,0,0,0,15.54,7.06c7.46.69,15.55-2,15.55-4.23s-8.55-1-15.55-7.07c-5.3-4.58-6.91-12-10.13-26.88-1.79-8.29-2.68-12.44-2.62-17a50.83,50.83,0,0,1,8.51-26.73s2.89-5.68,24-29.67l5.66-8.48c.87.3-.76,5.32-1.42,14.13-.69,9.25.35,13.87,1.42,17,.65,1.89,2.48,7.22,4.24,7.06,3.52-.32,4.16-22.66,5.65-22.6,1,0,.08,9.29,5.65,18.36.84,1.38,3.81,6.21,5.65,5.66,2.4-.73-2-10.86,1.41-22.61,2.89-10.05,10.14-16.94,11.32-16.33.66.35-.82,2.86,0,6.56A13.51,13.51,0,0,0,113,52c9.42,9.7,16.49,10.57,21.49,18.76,2.28,3.74,3.41,7.71,4.74,7.47,1.86-.35,1.83-7.89,2.62-7.87.63,0,1.11,4.78,1.31,9.18a91.78,91.78,0,0,1,0,10.49c-.9,9.54-7.56,13.25-17.15,30.18-5.91,10.44-5.77,12.59-5.14,13.08s1.54-.13,9.18-3.93c3.5-1.74,5.26-2.6,5.85-2.08.84.73-.15,3.14-1.92,7.32a40.14,40.14,0,0,1-3.93,7.87,29.76,29.76,0,0,1-7.15,7.58c-1.35,1-1.35.83-7.7,4-2.49,1.25-5.8,3-10.38,5.7C100,162.65,99,163.41,99.19,164c.52,2.14,13.77,1.76,25.43-1.42,6.12-1.67,20.78-5.67,31.08-18.37,6.78-8.35,8.07-16,9.9-15.54s2.62,9.77-1.42,17c-2.58,4.59-6.05,6.49-5.65,7.06.62.89,9.29-3,17-9.89,4.57-4.08,8.27-7.39,9.89-12.71,1.79-5.89-.48-9.27-2.83-19.79-3.21-14.34-3.41-27.75-1.41-28.26,1.22-.3,2.46,4.48,8.48,9.9.73.66,5.79,5.21,7.06,4.23s-2.4-6.43-5.65-15.54a102.51,102.51,0,0,1-4.24-17c-2.92-15.42-1.13-19.47-5.65-25.44-1.12-1.48-4.46-5.88-9.89-7.06-4.31-.94-8.35.5-8.48,0-.2-.76,9.72-2.54,9.89-5.65.12-2.25-4.85-5.22-9.89-5.65C153.4,19.12,146,27.28,144.4,25.57Z"/><path class="cls-7" d="M71.62,92.16a14.87,14.87,0,0,1,0,5.64,4.78,4.78,0,0,1-1.2,2.82c-1.37,1.26-3.74,1.08-5.24.41-3.31-1.48-4.26-6.16-4-9.27.3-4,2.77-8.53,5.24-8.47,1.14,0,2,1,2.83,2C70.87,87.27,71.2,89.4,71.62,92.16Z"/><path d="M78.7,100a18.41,18.41,0,0,0-.41-6.86,19.62,19.62,0,0,0-2.82-6.85c-1.31-2-3.19-4.76-6.85-6a12.59,12.59,0,0,0-8.87.41,14.55,14.55,0,0,0-6.85,6,54,54,0,0,0-2.42,4.84c-.95,2.14-1.11,2.86-2,3.63A6.07,6.07,0,0,1,44,96.32a7.84,7.84,0,0,1-2.82-1.21c-.13.17,3,3.31,7.86,5.44.44.19,5.28,2.31,6,1.21.13-.18.06-.34,0-1.21,0-.41,0-1.21,0-2.82a33.26,33.26,0,0,1,.21-3.43A13.47,13.47,0,0,1,63.18,84,9.54,9.54,0,0,1,68,82.81a8.91,8.91,0,0,1,4.44,1.62,12.71,12.71,0,0,1,4.43,5.24A20.63,20.63,0,0,1,78.7,100Z"/><path class="cls-7" d="M111.51,92.33a15.09,15.09,0,0,0,0,5.64,4.78,4.78,0,0,0,1.21,2.83c1.36,1.25,3.73,1.07,5.24.4,3.3-1.48,4.26-6.16,4-9.27-.29-4-2.76-8.53-5.24-8.47-1.14,0-2,1-2.82,2C112.27,87.44,111.94,89.57,111.51,92.33Z"/><path d="M103.06,100.12a18.4,18.4,0,0,1,.41-6.86,19.62,19.62,0,0,1,2.82-6.85c1.31-2,3.19-4.76,6.85-6a12.61,12.61,0,0,1,8.87.4,14.55,14.55,0,0,1,6.85,6,54,54,0,0,1,2.42,4.84c.95,2.14,1.11,2.86,2,3.63a6.07,6.07,0,0,0,4.43,1.21,7.84,7.84,0,0,0,2.82-1.21c.13.17-3,3.31-7.86,5.44-.43.2-5.28,2.32-6,1.21-.13-.18-.06-.34,0-1.21,0-.41,0-1.21,0-2.82a33.44,33.44,0,0,0-.21-3.43,13.47,13.47,0,0,0-7.86-10.28,9.44,9.44,0,0,0-4.83-1.2,8.82,8.82,0,0,0-4.44,1.61,12.71,12.71,0,0,0-4.43,5.24A20.63,20.63,0,0,0,103.06,100.12Z"/><path class="cls-6" d="M103.85,78.25c1.6,1.27,23.58-1,27.53-1.31,3-.21,6.49-1.32,6.55-2.63.06-1.13-2.56-2.12-3.93-2.62-5.25-1.93-9.94-1.69-14.42-1.31C108.77,71.29,102.79,77.41,103.85,78.25Z"/><path class="cls-6" d="M78.81,78.47c-1.61,1.27-23.59-1-27.54-1.31-3-.21-6.49-1.32-6.55-2.62-.06-1.14,2.56-2.12,3.93-2.62,5.25-1.93,9.94-1.69,14.42-1.31C73.88,71.51,79.87,77.63,78.81,78.47Z"/><path class="cls-8" d="M75,174c-2.3-1.61-7.35.86-22.28,13.12C40.61,197,34.55,202,33.05,205.42c-6,13.77.86,33.88,9.18,35.4,6.33,1.16,13-10.16,26.22-32.78,0,0,10-17.06,7.86-31.46A3.73,3.73,0,0,0,75,174Z"/><path class="cls-9" d="M76.31,172.64c1.38.47,1.57,3.22,5.25,5.25a14.35,14.35,0,0,0,9.18,1.31c6-1.2,7.57-5.82,10.48-5.25,3.74.74,5,9.07,5.25,10.49,2.82,18.13,8.1,35.79,11.8,53.76,4.13,20.1,6.85,17.16,11.8,40.64,4.25,20.17,6.27,30.44,1.31,39.33-6.69,12-22.13,18.06-34.09,18.36-13.28.33-15.79-6.61-27.53-3.94-9.08,2.07-11.64,7.14-23.6,9.18-5.56,1-10.77,1.84-14.42,0-15-7.54-2.71-60.46,0-72.11C45.6,210,70.51,170.69,76.31,172.64Z"/><path class="cls-8" d="M102.07,175.41c2.36-1.53,7.32,1.12,21.83,13.88,11.75,10.34,17.63,15.51,19,19,5.51,14-2,33.83-10.4,35.06-6.37.94-12.6-10.6-25.07-33.66,0,0-9.41-17.4-6.78-31.72A3.82,3.82,0,0,1,102.07,175.41Z"/><path class="cls-8" d="M124.69,392.72c-1.66,3-3.22,5.92-2.32,8.32.39,1,1,1.38,5,4.16,4.49,3.17,4.92,3.62,5,4.17.1,1.34-2.28,2.34-9.23,4.56-7.92,2.53-12.14,3.56-17.56,3.72-4.48.13-5.58-.45-6.39-1.25-2.55-2.51-1.49-6.34-3.17-15-1.83-9.39-4.51-12.2-3.18-15,.45-.93,1.5-2.2,9.76-2.07,10.34.15,12.23,2.19,18.63,1.27,5.55-.81,9.31-3.1,9.76-2.07S128,386.67,124.69,392.72Z"/><path class="cls-8" d="M56,398.41c2.42,2.45,4.7,4.83,4.49,7.38-.1,1.12-.61,1.61-3.65,5.35-3.46,4.27-3.75,4.82-3.65,5.36.28,1.32,2.83,1.64,10.13,1.89,8.31.28,12.65.14,17.91-1.18,4.35-1.09,5.24-1.95,5.81-2.94,1.77-3.11-.29-6.51-1-15.28-.78-9.54,1-13-1-15.27-.68-.77-2-1.71-10,.65-9.9,2.95-11.17,5.43-17.58,6.27-5.57.74-9.8-.45-9.95.66S51.14,393.49,56,398.41Z"/><path class="cls-3" d="M71.07,90.05c-.74-.5-2.19.26-2.62,1.31a1.48,1.48,0,0,0,0,1.31,1.85,1.85,0,0,0,2.62-2.62Z"/><path class="cls-3" d="M121.14,90.27c-.74-.49-2.19.27-2.62,1.31a1.5,1.5,0,0,0,0,1.32,1.86,1.86,0,1,0,2.62-2.63Z"/></g></g></svg>