<svg xmlns="http://www.w3.org/2000/svg" viewBox="0 0 292.79 467.73"><defs><style>.cls-1{fill:#683b2d;}.cls-2{fill:#2f7734;}.cls-3{fill:#964a32;}.cls-4{fill:#f4ebd4;}.cls-5{fill:#1a2927;}.cls-6{fill:#87412e;}.cls-7{fill:#ef0750;}.cls-8{fill:#923524;}.cls-9{fill:#fff;}.cls-10{fill:#351406;}.cls-11{fill:#1e2a28;}.cls-12{fill:none;stroke:#000;stroke-linecap:round;stroke-miterlimit:10;}.cls-13{fill:#f7f7f7;}.cls-14{fill:#5e352a;}.cls-15{fill:#14223c;}.cls-16{fill:#5576a5;}.cls-17{fill:#5d1000;}.cls-18{fill:#320406;}</style></defs><g id="Camada_2" data-name="Camada 2"><g id="Pronto"><path class="cls-1" d="M89.09,202.16c-.18.66,1.63,1.34,4.82,3.59,7.9,5.56,10.53,11,14.06,14.85,4,4.34,11,6.13,24.92,9.72,18.63,4.78,28,7.18,37.84,4.78,4.77-1.16,10-3.33,14.56-.63,3.06,1.83,3.41,4.47,8.51,8.09,3.66,2.6,3.83,1.49,6.88,3.79,5.06,3.82,5.09,7.25,10.36,10.34,1.86,1.09,3.91,2.3,5,1.54,2.25-1.54-.11-10.51-4.53-17-6.33-9.32-16.2-12.55-18.37-13.21-4.61-1.4-5.27-.49-11.17-2.14a57.31,57.31,0,0,1-14.88-6.65c-6.85-4.08-16.29-6.3-35.17-10.73C115.13,204.53,89.73,199.78,89.09,202.16Z"/><path class="cls-2" d="M89.33,202.14c.94-2.45,6.14-3.18,24.1-1.51,14.56,1.36,21.84,2,24.81,3.93,11.83,7.52,17,26.66,11.4,32.18-4.3,4.21-15.34-1.08-37.42-11.65,0,0-16.66-8-22.53-20.24A3.5,3.5,0,0,1,89.33,202.14Z"/><path class="cls-3" d="M199.41,227.58c.26.56-1.25,1.45-3.76,4C189.45,237.76,188,243,185.4,247c-2.9,4.51-8.85,7.2-20.77,12.59-15.92,7.19-23.88,10.79-33.1,10.2-4.45-.29-9.49-1.41-13.12,1.71-2.46,2.11-2.36,4.53-6.35,8.57-2.87,2.9-3.19,1.93-5.56,4.46-3.93,4.21-3.42,7.29-7.65,10.88-1.49,1.27-3.14,2.66-4.26,2.16-2.25-1-1.55-9.42,1.39-15.93,4.21-9.33,12.53-13.76,14.36-14.69,3.91-2,4.64-1.26,9.66-3.66A52,52,0,0,0,132.27,255c5.49-4.72,13.59-8.18,29.78-15.1C176.48,233.78,198.46,225.55,199.41,227.58Z"/><path class="cls-3" d="M110.49,276.8c.71.27.91,1.21,1.22,2.7.56,2.64,1,4.71-.25,6.61-.68,1-2.26,2.62-3.53,2.24-2-.59-3.13-6-1-9.3C107.78,277.81,109.41,276.38,110.49,276.8Z"/><path class="cls-4" d="M115.48,264a2.48,2.48,0,0,0-.59,1.84c.15.57.66.75,1.25,1,.41.14.64.22.93.1a2.28,2.28,0,0,0,1-1.8c.07-.78-.23-1.78-1-1.92S115.57,263.89,115.48,264Z"/><path class="cls-4" d="M116.78,267.09a2.53,2.53,0,0,0-.59,1.85c.15.57.66.75,1.25.95.41.15.64.23.93.11a2.28,2.28,0,0,0,1-1.8c.07-.78-.23-1.79-1-1.92S116.87,267,116.78,267.09Z"/><path class="cls-4" d="M118,269.36a2.53,2.53,0,0,0-.59,1.85c.15.57.66.75,1.25,1,.41.14.64.22.93.1a2.25,2.25,0,0,0,1-1.8c.07-.78-.23-1.79-1-1.92S118.06,269.26,118,269.36Z"/><path class="cls-5" d="M247.85,99.08l.28.29c3.94,4,9.53,5.95,12.23,5.85,9-.33,18-24.15,11.45-30.7-5.39-5.37-21.59.57-21.41,2.42.22,2.29,26.34,5.64,32.06-4,3.05-5.14.47-14.25-4.74-17.44-6-3.68-14.31-2.39-14.62-.76-.24,1.29,4.36,4.25,8.08,3.47,5.92-1.24,9.51-11.9,8.4-19.67C277.22,22,252,8.29,237.67,15c-7.23,3.38-13,12.59-10.95,16,1.39,2.3,6.93,2.67,9.13.31,4-4.34-1.34-19.83-11.32-26.66C208-6.74,177.8,5,175.27,17.84c-1.74,8.89,9.48,19.59,10.24,19.13.94-.57-6.55-22.36-19.31-24.56-9-1.55-16.71,7.31-17.63,8.39-7.73,9.13-9,24.61-1.11,32.49,6.45,6.46,18.09,6.87,18.92,4.8.93-2.32-9.87-12.16-19.63-10.18s-15.65,15.66-13.5,26.65c2,10.25,11.32,19.47,19.46,18.91,8.58-.59,14.56-12,15.8-11,1.44,1.09-8.14,12.94-4.6,18.09,1.91,2.78,6.86,2.44,9,2.3,11.77-.76,33.25-.55,64.66.65"/><path class="cls-3" d="M159.29,336.75c-1,.92-2.91,3.3-1.32,21.17a228.49,228.49,0,0,0,4.63,29.77c8.45,37.84,12.8,56.88,19.19,62.86,1.34,1.25,8.12,7.36,6.61,10.58-.86,1.85-4,1.84-4,2.65.09,1.14,6.48,1.43,10.59,1.32,5.1-.13,6.12-.86,6.61-1.32,2.3-2.16,1.57-6.35,1.33-7.94-1.35-8.73,1.23-17.63,1.32-26.47.2-18.66,1.77-16,1.32-27.78C205.21,391,204,390.36,203,375.12c-1.09-15.84.14-16-1.33-19.85C195.35,338.77,167.66,329.07,159.29,336.75Z"/><path class="cls-3" d="M242.74,332.4c1,.62,3.64,2.67,5.33,20.53a209.65,209.65,0,0,1,.54,30.79c-2.23,51-.76,57.06-6.26,64.68-1.09,1.52-6.56,8.79-4.47,11.65,1.2,1.65,4.31,1,4.4,1.85.13,1.13-6.08,2.63-10.14,3.31-5,.85-6.17.33-6.75,0-2.66-1.68-2.75-5.94-2.81-7.55-.34-8.82-4.57-17.07-6.34-25.72-3.76-18.28-4.79-15.36-6.6-27-1.62-10.43-.58-11.32-2.45-26.48-1.95-15.76-3.19-15.69-2.49-19.74C207.73,341.26,233.05,326.46,242.74,332.4Z"/><path class="cls-6" d="M200.31,208.39c1.13,10,0,11.91,0,11.91-2.2,3.3-6.05,2.36-9.26,5.3-4.31,3.94-3.17,10.56-3.31,16.54-.12,5-3.61,13-10.59,29.11-6.46,14.88-10.85,22-14.55,35.73-.68,2.5-1.13,4.41-1.32,5.29-1.93,8.58-3.66,16.31-2.65,25.14.47,4.12,2.14,18.7,12.57,24.48a14.55,14.55,0,0,0,2.25,1.05c4.23,1.51,11,1.31,36.12-1.05,11.16-1.05,13-1.3,15.88-2.65,11.43-5.33,16.05-16.93,17.2-19.85,4.09-10.25,2.86-19.22,1.33-30.43-1-7.25-1.8-7.41-6.62-25.14-6.72-24.78-10.09-37.16-9.26-42.34.7-4.41,2.67-12.22-1.32-15.88-2.31-2.12-5-1.38-6.62-4s.27-4.56,0-10.59c-.17-3.8-.32-7.18-2.65-9.26-3-2.7-8.39-2.08-11.91,0A12.61,12.61,0,0,0,200.31,208.39Z"/><path class="cls-4" d="M159.12,325.69c-1.13-.06-3.35,13.92-4.53,27.18-2,22-3.37,39.86,5.43,43,1.6.58,2.47.28,6.35,0,22.88-1.67,37.38,5.27,40.78.76.72-1,.48-3.42,0-8.31-.21-2.15-.4-2.56-.91-6-.1-.67-1.3-9-.9-9.06s1.85,4.88,2.72,10.57c1.36,9-.36,11,1.81,12.84,3.63,3,10.19-1.08,23.56-1.51,14.31-.47,17.27,3.92,21.75,1.51,6.68-3.6,3.34-18.81-3.62-49.08-.46-2-5-21.36-7.25-21.13-.74.07-.44,2.11-1.82,3.77-3.78,4.57-16.59,1.88-24.47.76-31.25-4.47-53.68,5.87-58-1.51C159,327.66,159.54,325.71,159.12,325.69Z"/><path class="cls-3" d="M224.24,224.38c-.5.36.37,1.88,1.32,5.29,2.35,8.46,1.05,13.8,1.33,18.53.3,5.35,4.17,10.62,11.9,21.17,10.33,14.09,15.5,21.13,23.82,25.14,4,1.94,9,3.44,10.59,7.94,1.1,3.05-.17,5.11,1.32,10.59,1.07,3.93,1.83,3.24,2.65,6.61,1.36,5.6-.6,8,1.32,13.24.68,1.83,1.42,3.86,2.65,4,2.47.21,6-7.45,6.61-14.56.92-10.19-4.15-18.14-5.29-19.85-2.44-3.64-3.42-3.38-6.62-7.94a52,52,0,0,1-6.61-13.23c-2.46-6.81-7.82-13.8-18.53-27.79C241.17,241,226.07,223.08,224.24,224.38Z"/><path class="cls-3" d="M275,309.34c-.75,0-1.3.77-2.15,2-1.51,2.23-2.7,4-2.28,6.21.24,1.22,1.1,3.28,2.41,3.42,2.09.22,5.2-4.4,4.44-8.24C277.1,311.31,276.13,309.37,275,309.34Z"/><path class="cls-3" d="M271.27,160.84c2.38-1.59,3.9-1.76,5-1.66,2.95.27,5.14,2.81,6.07,5,1.45,3.38.14,6.59-.55,8.29a13.07,13.07,0,0,1-6.63,7.18,11.94,11.94,0,0,1-8.28.55c-1.48-.47-3-.94-3.87-2.21C260.1,173.93,265.13,164.93,271.27,160.84Z"/><path class="cls-3" d="M240.82,87.37A43.61,43.61,0,0,1,254.11,94,44.51,44.51,0,0,1,265.5,107.3a58.89,58.89,0,0,1,7.6,19,99.55,99.55,0,0,1,.95,34.18c-1.25,6.64-3.24,16.68-10.34,26.39a61.73,61.73,0,0,1-8.17,9,59.82,59.82,0,0,1-13.07,9,62.24,62.24,0,0,1-13.88,4.9,86.8,86.8,0,0,1-17.15,2.45c-1.92.09-3.7.17-5.82.12,0,0-1.19,0-2.35-.12-10-.68-21.23-5.71-21.23-5.71a75.09,75.09,0,0,1-13.88-8.17,57.8,57.8,0,0,1-11.44-10.62,38.26,38.26,0,0,1-7.35-13.06c-1.45-4.68-1.51-8.45-1.59-13.2a108.18,108.18,0,0,1,.95-13.29,145.35,145.35,0,0,1,3.8-22.78c1.64-6.2,3.6-13.6,7.59-19.94C172.27,86.1,199,83.32,205.69,82.62,221.69,81,233.86,85,240.82,87.37Z"/><path class="cls-3" d="M153.42,155.57c-1.51-2.43-2.83-3.21-3.84-3.56-2.8-1-5.85.42-7.59,2-2.71,2.48-2.85,5.94-2.92,7.77a13,13,0,0,0,3.06,9.28,11.88,11.88,0,0,0,7.32,3.93c1.53.19,3.07.37,4.43-.41C158.18,172.11,157.32,161.84,153.42,155.57Z"/><path class="cls-7" d="M150.94,74.64c-1.35,5.32.76,13.24,4.27,14.23s6.68-5.78,13.52-11.38c10.77-8.83,23.93-9,39.12-9.25,8.44-.12,22.05-.33,37,6.4,11.62,5.24,18.12,12,20.63,10s-.65-11.85-5-17.78C239.57,38.19,156.87,51.27,150.94,74.64Z"/><path class="cls-8" d="M200,166.44c-1.13-1.89,3.51-9,9.87-9.68,6.75-.73,13,6,12.18,8.05-.44,1.07-2.69.35-9.8.81C203.53,166.19,200.73,167.66,200,166.44Z"/><path class="cls-9" d="M196.52,147.85a14.43,14.43,0,0,0-2-8.07,15.78,15.78,0,0,0-10.1-7.06,16,16,0,0,0-19.17,12.11,16.85,16.85,0,0,0-.2,4.28c.12,2.15.28,5.37,1.85,7.39,1.77,2.29,4.86,2.43,10.25,2.59,8.31.24,13.08.38,16.36-3.16A12.92,12.92,0,0,0,196.52,147.85Z"/><path class="cls-10" d="M186.68,138.67a10.38,10.38,0,0,0-8.08-1,11.34,11.34,0,0,0-5,3,11.74,11.74,0,0,0-3,6.06,9.62,9.62,0,0,0,1,7.06c2.17,3.42,6.14,3.92,7.06,4a10.89,10.89,0,0,0,6.06-1,11.29,11.29,0,0,0,5.05-5.05,10.33,10.33,0,0,0,1-8.07A9.6,9.6,0,0,0,186.68,138.67Z"/><path class="cls-9" d="M227,149.11a14.94,14.94,0,0,1,1.85-7.4,15.84,15.84,0,0,1,10-7.36,16.06,16.06,0,0,1,10.09,1,16.61,16.61,0,0,1,9.08,11.1,17,17,0,0,1,.37,5.42c-.16,1.85-.38,4.61-1.85,6.47-2,2.57-5.67,2.53-12.44,2.37-7.8-.18-11.7-.28-14.34-3.16S227,150.4,227,149.11Z"/><path class="cls-10" d="M236.59,140.31a10.29,10.29,0,0,1,8.08-1,11.13,11.13,0,0,1,5,3,11.7,11.7,0,0,1,3,6,9.65,9.65,0,0,1-1,7.07c-2.17,3.41-6.14,3.91-7.06,4a10.8,10.8,0,0,1-6.06-1,11.29,11.29,0,0,1-5.05-5,10.36,10.36,0,0,1-1-8.08A9.52,9.52,0,0,1,236.59,140.31Z"/><path d="M184.07,144.44a5.18,5.18,0,0,0-4-.5,5.65,5.65,0,0,0-2.51,1.51,5.79,5.79,0,0,0-1.51,3,4.33,4.33,0,0,0,4,5.53,5.4,5.4,0,0,0,5.53-3,5.14,5.14,0,0,0,.51-4A4.81,4.81,0,0,0,184.07,144.44Z"/><path d="M239.19,146.13a5.13,5.13,0,0,1,4-.51,5.61,5.61,0,0,1,2.52,1.51,5.92,5.92,0,0,1,1.51,3,4.34,4.34,0,0,1-4,5.53,5.38,5.38,0,0,1-3-.5,5.6,5.6,0,0,1-2.51-2.51,5.13,5.13,0,0,1-.5-4A4.77,4.77,0,0,1,239.19,146.13Z"/><path d="M196.65,149.69c.56-.11.61-3.27-.07-6a14.94,14.94,0,0,0-2.77-5.55,18.88,18.88,0,0,0-6.47-5.54,14.85,14.85,0,0,0-8.32-1.85,16.28,16.28,0,0,0-8.32,3.69c-2.76,2.08-3.44,3.69-6.63,5.06a8,8,0,0,1-4.08.82c-2.4-.28-3.9-1.87-4.08-1.64s.82,1.66,2.45,2.45,3.23.54,3.26.82-1.13.71-2.45.82c-3.28.27-5.58-1.83-5.71-1.64-.33.48,7.27,8.47,11.43,6.54,1.75-.82,1.26-2.64,3.27-5.72.24-.38,4.72-7,12.25-7.35A15.21,15.21,0,0,1,191,138.67C195.78,143.22,195.84,149.84,196.65,149.69Z"/><path class="cls-9" d="M175.9,150a1.62,1.62,0,0,0-1.87,1.56,1.49,1.49,0,0,0,1.3,1.3,1.61,1.61,0,0,0,1.72-1.68A1.47,1.47,0,0,0,175.9,150Z"/><path class="cls-9" d="M239,151.57a1.62,1.62,0,0,0-1.87,1.56,1.49,1.49,0,0,0,1.3,1.3,1.61,1.61,0,0,0,1.72-1.68A1.46,1.46,0,0,0,239,151.57Z"/><path d="M226.4,151.22c-.56-.1-.61-3.27.07-6a14.88,14.88,0,0,1,2.77-5.54,18.84,18.84,0,0,1,6.47-5.55,14.94,14.94,0,0,1,8.32-1.85c2.38.22,4.36,1.4,8.32,3.7a62.17,62.17,0,0,0,8.09,4.34,8.85,8.85,0,0,0,4.08.81,16.2,16.2,0,0,0,3.27-.81c.1.2-2,2.05-4.9,2.45-1.89.26-3.21-.23-3.27,0s1.93,1.41,4.26,1.53c3.37.17,5.55-1.87,5.71-1.63.33.47-7.27,8.46-11.43,6.53-1.75-.81-1.25-2.63-3.27-5.72-.24-.38-4.72-7-12.25-7.35A15.25,15.25,0,0,0,232,140.21C227.27,144.75,227.21,151.38,226.4,151.22Z"/><path class="cls-9" d="M246.92,144.87a2.94,2.94,0,0,0-3.39,2.83,2.7,2.7,0,0,0,2.35,2.35,2.91,2.91,0,0,0,3.11-3A2.64,2.64,0,0,0,246.92,144.87Z"/><path class="cls-9" d="M186.06,143.62a2.94,2.94,0,0,0-3.39,2.82A2.72,2.72,0,0,0,185,148.8a2.92,2.92,0,0,0,3.11-3A2.63,2.63,0,0,0,186.06,143.62Z"/><path class="cls-11" d="M189.75,86.77c1.57-.34,2.4,4.89,7.14,7.15,3.32,1.57,8.21,1.53,10.72-.9,1.62-1.57,1.66-3.55,2.68-3.57,1.18,0,1.42,2.66,3.57,5.36.57.71,3.55,4.44,7.14,4.46,3.86,0,4.85-4.25,9.83-4.46a7.6,7.6,0,0,1,3.57.89c4.1,2.2,6.27,8.5,4,12.75-1.63,3-5.61,5.19-7.35,4.09-1.25-.8-1.29-3.25-.82-4.9.95-3.31,4.25-4.64,4.09-4.9s-7.23,1-9,6.53a8.32,8.32,0,0,0,1.64,8.17c3.28,3.38,8.47,1.8,9,1.63,3-1,4.67-3.22,6.53-5.72,3.56-4.78,4.26-8.91,5.32-8.72.73.13.67,2.08,1.79,6.25.88,3.29,1.34,5,2.68,6.25,3.09,2.91,7.83.58,8.93,2.68.62,1.18-.7,2.25-2.68,7.15-1.65,4.07-2.5,6.09-1.79,7.14,1.9,2.8,11.59-2.28,13.52.49,1.52,2.19-3.51,6.85-1.63,9.8,1.29,2,4.41,1,5.71,3.27.72,1.25.37,2.61-.63,6.09-1.94,6.73-1.92,7.82-2.68,8.93a13.09,13.09,0,0,1-4,3.76,12.34,12.34,0,0,0,.67,7.83c.05.13.1.23.15.34,1.61,3.27,6.54,6.65,10.62,4.9a7,7,0,0,0,4.08-5.72c.34-3.85-2.78-6.75-3.27-6.53-.19.08.06.64,0,1.63-.15,2.55-2.22,5.15-3.26,4.9s-1.73-3.3-.82-5.72c1.05-2.79,3.76-3.41,7.35-5.71a35.25,35.25,0,0,0,8.17-7.72c2.81-3.8,2.55-11.25.89-25.9-3-26.61-1.15-23.93-2.68-28.57C282.59,81.08,263,71.73,249.58,65.34c-9.58-4.57-28.28-13.18-52.69-9.82a76.74,76.74,0,0,0-37.5,15.18c-18.26,14.13-24,32.31-26.79,41.08-2,6.2-8.24,26-.9,33.93a36.14,36.14,0,0,1,5.36,7.14c4.09,3.48,7.26,3.19,9.05,6.24,1.17,2,.66,3.61,0,9-1.32,10.57-2,15.85,0,18.79,2.72,4,7,2.75,9,7.35,1.14,2.63,1.34,6.71-.82,8.16a3.77,3.77,0,0,1-4.08,0c-2.56-1.83-1-7.25-1.63-7.35s-3,4.24-1.64,8.17c1.71,4.88,8.85,7.75,12.25,5.72,4.11-2.46,3.75-12.61-.81-18-3.48-4.08-7.29-2.9-9-6.53-2.06-4.41,3.22-6.83,3.27-15.52a64.33,64.33,0,0,0-2.18-15.14c-.52-1.94-1.26-4.44,0-6.25s3.43-.91,5.35-2.68,1.95-5.17,1.79-9.83c-.2-5.92-1.53-8.06,0-9.82,1.17-1.35,2.63-.87,5.36-1.79,3.27-1.09,5.19-3.13,8-6.25,15.54-17,16.43-19,17-21.43C189,91.1,188.36,87.07,189.75,86.77Z"/><path class="cls-8" d="M204.09,187.53c0-2.42,2.57-4.06,3.17-4.44a8.26,8.26,0,0,1,7-.63c1.85.75,4.52,2.7,4.44,5.07-.11,3.13-5,5.77-8.88,5.07C207.29,192.16,204.13,190.18,204.09,187.53Z"/><path class="cls-12" d="M197.77,182.28A18.12,18.12,0,0,0,202,185.1a19.05,19.05,0,0,0,12.37,1.36c3.06-.78,5.58-2.36,8.48-4.18.9-.56,1.62-1.06,2.12-1.42"/><path class="cls-7" d="M199.19,217.07c2.94.26,5.18.72,5.68.79,2.31.33,4.76.66,6.57.85,0,0,5.78.59,8.18-.55a4.08,4.08,0,0,1,.8-.27,5.24,5.24,0,0,1,1.64,0c2,.41,3.26,4.08,3.26,4.08,6.24,26.07,9.14,40.12,10.62,48.19.39,2.1,1.36,7.53,3.27,14.7,2.93,11,4.5,10.82,5.7,17.85,1.41,8.28.06,12.15,3.28,14.81,2.93,2.43,5.6.52,8.17,3.27,3.05,3.28,2.15,9.11.81,12.25a6.79,6.79,0,0,1-2.45,3.27,5.71,5.71,0,0,1-5.51.54c-2.87-1.54-2.63-6.28-3.47-6.26-1.09,0-.06,7.93-4.08,10.62a7.46,7.46,0,0,1-7.35,0c-4.16-2.33-4-8.19-5.72-8.17s-1.21,5.58-4.9,8.17c-3.52,2.47-9.74,1.49-13.07-1.64-2.92-2.73-3.13-6.66-4.08-6.53s.14,5-2.45,8.17c-3.26,4-11.44,4-14.7.81-2.94-2.87.42-10.17-.82-10.61s-2.71,6-8.16,9c-5.27,2.85-12.32,1.47-13.07-.82-.59-1.77,2.6-4.15,1.63-5.71-.08-.14-.43-.64-1.63-.82-4.84-.72-8.37,6.09-13.07,5.72-3.06-.25-5.77-3.37-6.53-6.54a8.27,8.27,0,0,1,1.63-7.35c2-2.19,3.93-1,6.54-3.26,2-1.74,2.71-4.05,3.56-6.75.7-2.23.49-2.72,1.34-6.32.56-2.39,1.11-4.1,1.63-5.72,2.28-7.09,5.07-12.54,8-20.11,1.55-4.06,2.49-7.08,3.45-10.1,1.09-3.42,6.9-25.44,9-31.85,3.15-9.69,1.58-3,9.8-19.6.45-.92,1.71-3.49,4.08-4.09A7.2,7.2,0,0,1,199.19,217.07Z"/><path class="cls-7" d="M203.18,226.74a14.57,14.57,0,0,0-6.9-4.44,20.22,20.22,0,0,0-12.78-.12c-2.26.67-8.95,2.63-9.93,6.85a15.24,15.24,0,0,1-.76,3.28c-1,2.65-3,4.91-3.33,4.72s.2-2,1.12-2.18a1.59,1.59,0,0,1,1.45.74c.75,1-.31,2.22.34,2.93.82.89,2.71-.1,3.28.76.27.4-.09.68,0,1.82a3.12,3.12,0,0,0,.71,2.2c1,.81,2.56-.69,3.65,0,.9.61.3,1.95,1.07,3.3.91,1.62,3.07,2,4.36,2.23,13.65,2.43,18.68-6,18.68-6A14.6,14.6,0,0,0,203.18,226.74Z"/><path class="cls-7" d="M226.31,222.37a14.45,14.45,0,0,1,8.2.2,20.25,20.25,0,0,1,10.64,7.09c1.49,1.82,5.93,7.2,4.36,11.24A15.41,15.41,0,0,0,248.3,244c-.65,2.77-.27,5.75.1,5.77a2.11,2.11,0,0,0,.3-2.43,1.59,1.59,0,0,0-1.62-.2c-1.2.44-1,2-1.92,2.23-1.18.28-2.19-1.61-3.14-1.22-.44.19-.31.63-1,1.52-.42.53-1.06,1.36-1.83,1.42-1.28.11-1.73-2-3-2-1.08,0-1.33,1.44-2.73,2.13-1.67.82-3.67-.08-4.86-.61-12.66-5.66-12.06-15.49-12.06-15.49A14.6,14.6,0,0,1,226.31,222.37Z"/><path class="cls-7" d="M204.09,465.34c-2.86,3.49-9.23,2.33-13.07,1.64-4.39-.8-9.13-2.67-9-4.09.07-.67,1.24-1,2.42-1.42a.34.34,0,0,0,0,.3,2.68,2.68,0,0,1,.37-.41,5.48,5.48,0,0,0,1.58-.83h0a1.7,1.7,0,0,0,.34-.37,1.1,1.1,0,0,0,.2-.47.11.11,0,0,0,0-.05,1.56,1.56,0,0,0,0-.3c-.07-1.51-2.74-2.55-2.47-3.79.41-1.88,6.65-.09,13.88-3.26,3.07-1.35,5.65-3.29,6.54-2.45.4.38.12,1,0,2.45-.26,3,.68,4.06.81,6.53C205.76,459.54,206,463.08,204.09,465.34Z"/><path class="cls-13" d="M191.9,460.44a5.29,5.29,0,0,0-1.61-.92,3.87,3.87,0,0,0-2.55-.24,3.48,3.48,0,0,0-.82.4.11.11,0,0,0,0-.05,1.56,1.56,0,0,0,0-.3,3,3,0,0,1,.62-.33C189.57,458.22,192,460.05,191.9,460.44Z"/><path class="cls-7" d="M184.79,461.36a2.68,2.68,0,0,0-.37.41.34.34,0,0,1,0-.3Z"/><path class="cls-13" d="M190.19,461.77a5.48,5.48,0,0,0-1.62-.93,4.07,4.07,0,0,0-2.19-.32,1.7,1.7,0,0,0,.34-.37C188.49,460,190.3,461.43,190.19,461.77Z"/><path class="cls-7" d="M224.44,466.19c3.49,2.85,9.51.44,13.13-1,4.15-1.66,8.42-4.42,8-5.79-.2-.65-1.41-.74-2.66-.91a.33.33,0,0,1,.11.28,3.77,3.77,0,0,0-.45-.33,5.63,5.63,0,0,1-1.71-.49h0a1.73,1.73,0,0,1-.41-.3,1.22,1.22,0,0,1-.29-.41l0-.06a1.43,1.43,0,0,1-.07-.28c-.24-1.49,2.17-3,1.66-4.2-.77-1.77-6.53,1.22-14.25-.45-3.28-.71-6.2-2.1-6.89-1.1-.32.46.08,1,.48,2.4.85,2.93.14,4.12.5,6.57C221.64,460.83,222.17,464.34,224.44,466.19Z"/><path class="cls-13" d="M235.41,459a5.25,5.25,0,0,1,1.4-1.22,3.81,3.81,0,0,1,2.45-.74,3,3,0,0,1,.88.23l0-.06a1.43,1.43,0,0,1-.07-.28,3,3,0,0,0-.68-.2C237.26,456.32,235.21,458.6,235.41,459Z"/><path class="cls-13" d="M237.35,459.92a5.83,5.83,0,0,1,1.4-1.23,4.1,4.1,0,0,1,2.09-.75,1.73,1.73,0,0,1-.41-.3C238.67,457.88,237.18,459.61,237.35,459.92Z"/><path class="cls-11" d="M191,125.6c0,1.47-4.68,3-8.57,3.27s-4.89-.63-8.58-.82c-7.44-.36-12,3-12.25,2.45-.39-.82,9.39-9.24,20.83-8.16C186.28,122.7,191,124.16,191,125.6Z"/><path class="cls-11" d="M230.71,126c0,1.47,4.68,3,8.57,3.27s4.89-.64,8.58-.82c7.44-.36,12,3,12.25,2.45.39-.82-9.39-9.24-20.83-8.17C235.46,123.06,230.69,124.53,230.71,126Z"/><path d="M135.32,49.59c2.4,1,4-1.81,7.19-1.8,8.53,0,19.38,20.19,20.69,32.38a14.35,14.35,0,0,0,3.6,8.09c1.44,1.48,4,2.72,5.39,1.8a3.08,3.08,0,0,0,.9-3.6c-1.15-2.5-6.19-1.74-6.29-2.7s4.9-3.72,8.09-1.8,3.45,7.8.9,10.8c-3,3.5-9.52,2.73-12.59,0-2.3-2.05-2.16-4.76-4.5-5.4-2.06-.56-4.54.91-4.49,1.8s2.82.59,5.39,2.7a9.17,9.17,0,0,1,3.2,5.43c.49,4.3-4.28,5.42-4.11,9.58.17,3.9,3.54,4.34,6.84,10.94,1.68,3.35,3.06,6.11,2.74,9.57-.52,5.53-5.13,10.42-8.21,13.68-2.43,2.58-3.78,3.38-4.1,5.47-.46,2.94,1.42,6.4,4.1,8.21,3.62,2.45,6.79.6,8.21,2.73s-.17,6.15-2.74,8.21-6.44,2.25-6.84,1.37c-.51-1.14,4.73-3.88,4.11-5.47-.42-1.08-2.93-.08-5.47-1.37-4.17-2.11-4.49-8.36-5.47-8.21s.86,7.43-2.74,10.94c-2.94,2.87-8.16,1.88-8.21,2.74s6.74.73,8.21,4.1c1,2.22-.47,5.78-2.74,6.84-2.65,1.25-5.68-1.29-6.83,0-1,1.12.58,3.77,0,4.1s-2.5-3.85-5.48-4.1c0,0-1.24-.1-6.83,4.1.62,3.51,2,7.85,5.47,9.58,3.79,1.89,8.12-.31,8.2,0S132.23,196,124.5,193c-4.07-1.57-4.59-4.18-8.21-6.83-6-4.42-12.39-2.94-21.88-2.74-22.84.49-39.62-2.08-39.67-1.37s24,3.1,23.92,4.2c0,.63-8.07,1.45-26.08,3.59-2.75.33-6.75.84-7.19,2.7-.3,1.26,1.06,3,2.7,3.6,3.12,1.07,6.34-2.61,7.19-1.8.65.63-.45,3.62-2.7,5.4-3.15,2.48-8.19,2.31-11.69,0-2.6-1.73-5.45-5.37-4.5-8.1,1.3-3.68,8.73-3.43,8.78-5.48,0-1.17-2.37-2.25-4.1-2.74-6.25-1.77-9.68,3.07-15,1.37-3.58-1.13-6-4.52-5.47-5.47s3.33.56,8.21,0c2.75-.32,6.76-1.35,6.84-2.74.06-1.15-2.62-2.17-4.11-2.73-7.24-2.76-10.19-.23-13.68-2.74-3.07-2.21-4.17-6.62-4.1-9.57.1-3.91,2.27-5.91,1.37-6.84-1.15-1.19-6.26.36-8.21,4.1-2.1,4,2.28,9,1.37,9.57s-5.13-3-6.84-8.2c-.56-1.7-1.7-5.13,0-8.21,1.27-2.29,3.47-3.24,5.47-4.1,4.33-1.87,8-.56,8.21-1.37s-4.52-1.7-8.21-5.47c-2.56-2.61-5.26-7.63-4.1-12.31,1-4.23,5.55-9.37,8.44-10.81.37-.19,1.67-.79,1.8-1.8a2.32,2.32,0,0,0-.9-1.8c-1.23-1-2.46-.14-3.87-.64-2.51-.88-4.12-5.52-2.74-8.2.89-1.72,2.92-2.17,2.74-2.74-.26-.84-4.49.76-6.84-1.37A4.63,4.63,0,0,1,0,98.66C-.39,95.43,3.29,92,6.87,90.45s5.75-.45,7-2.19c.93-1.26.34-2.73-.2-6,0,0-.09-.56-.22-2,0,0-.42-4.09-.48-7.29-.09-4.75,8.06-28.18,24.28-28.78,6.28-.23,12.81,3,12.59,4.5C49.51,51.24,29,54.28,24.7,46,22.15,41.06,26,33.42,29.2,29.8a9.94,9.94,0,0,1,3.6-2.69c2.43-1.05,6.46-1.52,9,.89a5.79,5.79,0,0,1,1.8,3.6c.29,3.55-3.24,6.78-4.5,6.3s.08-4.3-1.8-5.4c-1.16-.68-3.21-.12-3.59.9-.7,1.87,3.65,6.8,7.19,6.3,3.82-.55,3.75-6.55,9.75-10.8a13.34,13.34,0,0,1,7.86-2.74h.35A16.68,16.68,0,0,1,67,28.9c6.6,4.18,57.18-4.71,64.75,9C134.08,42.17,132,48.14,135.32,49.59Z"/><path class="cls-3" d="M143.28,323.47c1.11,1,3.21,3.64,1.46,23.31a251.1,251.1,0,0,1-5.1,32.79c-9.3,41.66-14.1,62.63-21.13,69.21-1.47,1.39-8.94,8.12-7.28,11.66,1,2,4.44,2,4.37,2.92-.1,1.25-7.13,1.57-11.66,1.45-5.62-.14-6.74-.94-7.29-1.45-2.53-2.38-1.72-7-1.45-8.75,1.48-9.61-1.36-19.41-1.46-29.14-.22-20.55-1.95-17.6-1.46-30.6.44-11.62,1.76-12.36,2.92-29.14,1.2-17.44-.16-17.64,1.45-21.86C103.58,325.7,134.06,315,143.28,323.47Z"/><path class="cls-3" d="M51.39,318.68c-1.11.69-4,2.94-5.87,22.61a229.47,229.47,0,0,0-.59,33.91c2.45,56.11.83,62.83,6.88,71.22,1.21,1.67,7.23,9.68,4.93,12.84-1.32,1.81-4.75,1.14-4.85,2-.14,1.26,6.71,2.91,11.17,3.66,5.54.92,6.79.36,7.43-.05,2.94-1.84,3-6.53,3.1-8.3.38-9.72,5-18.8,7-28.33,4.13-20.13,5.27-16.91,7.26-29.76,1.79-11.49.63-12.47,2.7-29.16,2.14-17.35,3.51-17.28,2.74-21.74C89.94,328.44,62.06,312.14,51.39,318.68Z"/><path class="cls-14" d="M98.11,182.13c-1.24,11,0,13.11,0,13.11,2.42,3.63,6.67,2.59,10.2,5.83,4.74,4.34,3.49,11.63,3.64,18.21.13,5.51,4,14.36,11.66,32.06,7.12,16.39,12,24.19,16,39.34.74,2.77,1.24,4.87,1.46,5.83,2.12,9.46,4,18,2.91,27.69-.52,4.54-2.36,20.59-13.84,26.95a15.69,15.69,0,0,1-2.48,1.16c-4.66,1.67-12.06,1.44-39.78-1.16-12.29-1.15-14.31-1.43-17.48-2.91-12.59-5.87-17.67-18.65-19-21.86C47,315.09,48.34,305.21,50,292.87c1.09-8,2-8.16,7.28-27.69,7.41-27.28,11.11-40.92,10.2-46.63-.77-4.84-2.94-13.44,1.46-17.48,2.54-2.34,5.5-1.51,7.28-4.37s-.29-5,0-11.66c.19-4.19.36-7.9,2.92-10.2,3.32-3,9.24-2.29,13.11,0A13.84,13.84,0,0,1,98.11,182.13Z"/><path class="cls-1" d="M71.76,199.73c.55.39-.41,2.07-1.45,5.83-2.59,9.32-1.16,15.19-1.46,20.4-.34,5.89-4.6,11.7-13.12,23.31C44.36,264.79,38.67,272.54,29.51,277c-4.43,2.13-9.87,3.79-11.66,8.74-1.22,3.36.19,5.62-1.46,11.66-1.18,4.33-2,3.57-2.91,7.29-1.5,6.16.65,8.83-1.46,14.57-.75,2-1.57,4.25-2.91,4.37-2.72.24-6.59-8.2-7.29-16-1-11.22,4.57-20,5.83-21.86,2.68-4,3.76-3.72,7.28-8.74a57.24,57.24,0,0,0,7.29-14.57c2.71-7.5,8.61-15.2,20.4-30.6C53.12,218.08,69.75,198.3,71.76,199.73Z"/><path class="cls-1" d="M15.89,293.29c.83,0,1.44.85,2.37,2.23,1.67,2.46,3,4.39,2.51,6.84-.26,1.35-1.2,3.62-2.65,3.77-2.31.24-5.72-4.85-4.88-9.08C13.56,295.45,14.61,293.32,15.89,293.29Z"/><path class="cls-1" d="M28,117.47c-1.8-2.58-3.29-3.36-4.43-3.69-3.14-.92-6.4.8-8.22,2.65-2.84,2.88-2.79,6.7-2.77,8.72a14.36,14.36,0,0,0,3.91,10,13.13,13.13,0,0,0,8.27,3.9c1.7.11,3.41.23,4.86-.71C34.21,135.38,32.67,124.14,28,117.47Z"/><path class="cls-1" d="M26.73,129.89c.22,1.7.91,8.47,1,15.22,0,1.49,0,3.1-.09,5-.19,4-.49,5.41,0,8.26,1.39,8,6.73,14,7.85,15.17l.41.45a51.87,51.87,0,0,0,12.86,9.18c.34.17,2.1,1.07,4.53,2.06a81.65,81.65,0,0,0,11.08,3.45,90.7,90.7,0,0,0,22,1.83,104.77,104.77,0,0,0,13.77-.91s14.43-2,25.72-7.35q2.28-1.09,4.17-2.15a61.16,61.16,0,0,0,6.85-4.28,26,26,0,0,0,8.26-11.94c1.23-3.72,1.2-6.75.92-11.93-.21-3.84-.38-5.59-.67-9.32-.14-1.79-.23-3.39-.28-4.86-.18-5.23,0-9.54,0-10.62.48-11,1.48-34.25-1.84-45.91-5.91-20.76-35.43-39.44-65.19-36.73-22.35,2-46.41,16.28-52.35,35.81C22,92.92,24.4,111.77,26.73,129.89Z"/><path class="cls-1" d="M144.35,120.36c1.66-2.67,3.12-3.53,4.23-3.92,3.09-1.08,6.44.46,8.36,2.21,3,2.73,3.14,6.54,3.22,8.56a14.38,14.38,0,0,1-3.38,10.22,13.17,13.17,0,0,1-8.05,4.33c-1.69.2-3.39.4-4.89-.46C139.11,138.57,140.06,127.26,144.35,120.36Z"/><path class="cls-14" d="M98.45,139.52c1.24-2.08-3.87-9.9-10.87-10.66-7.44-.8-14.31,6.64-13.41,8.86.47,1.18,3,.4,10.79.9C94.57,139.24,97.65,140.86,98.45,139.52Z"/><path class="cls-12" d="M100.91,157a20.06,20.06,0,0,1-4.67,3.12,21,21,0,0,1-13.62,1.48c-3.37-.85-6.14-2.59-9.34-4.6-1-.61-1.78-1.16-2.34-1.55"/><path class="cls-9" d="M66.16,124.33a13.48,13.48,0,0,0,0-4.74c-.58-2.92-2.13-4.78-3.87-6.88a19.45,19.45,0,0,0-6-5.16,19.16,19.16,0,0,0-4.73-1.73,17.15,17.15,0,0,0-6-.43A13.23,13.23,0,0,0,38.62,108a12.48,12.48,0,0,0-4.3,6.45,13.78,13.78,0,0,0,.43,8.18,21,21,0,0,0,6,9,14.65,14.65,0,0,0,2.58,2.15A14.82,14.82,0,0,0,51.1,136a16.05,16.05,0,0,0,7.31-1.3,12.7,12.7,0,0,0,5.6-4.3A13.06,13.06,0,0,0,66.16,124.33Z"/><path d="M107.44,41.49c-12.13-5.79-32.85-8.8-42.27,2.7-7,8.53-3.21,20.81-2.7,22.49,2.88,9.37,10.75,16.94,19.79,18.88,2.25.49,8.39,1.8,13.49-1.8,3.6-2.53,7-7.65,5.4-10.79-1.36-2.59-5.91-3.35-6.3-2.7-.18.3.64.73.9,1.8.48,2-1.18,5-3.6,5.4-1.83.27-4.07-1-4.49-2.7-.89-3.54,5.78-10.61,12.59-9.89a11.07,11.07,0,0,1,8.09,5.39c2.76,4.74-.42,8,1.8,11.69,2.56,4.21,8.15,1.89,17.09,5.4,3.73,1.47,13,5.12,16.18,13.49,2.43,6.39-3.74,9.44-2.69,18.89.74,6.7,4.4,12.9,6.29,12.59s1.33-7.26,3.6-20.69c1.86-11,3.2-11.87,3.6-16.19,1.4-15.28-14.47-28-33.28-44.06C114.81,46.16,111.67,43.51,107.44,41.49Z"/><path d="M63.37,40.6c4.22,1.78,7,7.43,6.3,11.69-.91,5.65-7.93,9-11.69,10.79-4.43,2.11-5.12,1.25-10.79,3.6-5.9,2.44-12.14,5-12.59,9S40.3,81,41.79,88.26c.22,1.1,1.33,6.52-1.8,9-2.62,2.08-7.59,1.6-9-.9a4.31,4.31,0,0,1,0-3.59c1.08-2.36,4.13-3.18,4.49-2.7s-2.34,2.44-1.79,3.6,3.45,1.25,4.49,0c1.47-1.77-.53-6.92-2.7-7.2-3-.38-8,8.39-9,17.09C25,117.31,34.07,126.8,31,129.63c-1.62,1.49-6.17-.08-9-2.7-4.22-3.91-4.55-10.16-3.59-20.68C20,89,20.76,80.36,24.7,72.07,33.54,53.5,53.33,36.35,63.37,40.6Z"/><path d="M67,123a6.26,6.26,0,0,1-.43,2.15c-.17,0,0-1.82-.43-3.87a16.86,16.86,0,0,0-1.72-4.74,18.3,18.3,0,0,0-5.17-6.88,16.54,16.54,0,0,0-6.45-3,15.9,15.9,0,0,0-6.89-.43,14.61,14.61,0,0,0-5.59,2.15,11,11,0,0,0-3.87,3.87,10.86,10.86,0,0,0-1.29,4.3,16.26,16.26,0,0,0,.86,7.75c2,5.32,6.25,7.92,6,8.17s-3.22-1.57-5.59-4.73a17.17,17.17,0,0,1-3-6.45,14.3,14.3,0,0,1,0-7.75A13.46,13.46,0,0,1,36,108.84a14.86,14.86,0,0,1,7.74-4.74A17,17,0,0,1,58,106.69a20.78,20.78,0,0,1,6.46,6.88C65.37,115.19,67.38,118.75,67,123Z"/><path d="M106.54,98.15c-.61,1.18-1,3.26,0,4.5,2.24,2.74,8.69-1.92,18.89-1.8,8.51.1,13.13,3.44,13.49,2.7.43-.9-10.34-10.18-22.94-9C113.48,94.79,108.23,94.88,106.54,98.15Z"/><path class="cls-9" d="M104.17,125.23a13.41,13.41,0,0,1,0-4.73c.58-2.92,2.13-4.79,3.88-6.89a19.27,19.27,0,0,1,6-5.16,19.78,19.78,0,0,1,4.73-1.72,16.91,16.91,0,0,1,6-.43,13.11,13.11,0,0,1,6.88,2.58,12.48,12.48,0,0,1,4.3,6.45,13.78,13.78,0,0,1-.43,8.18,21,21,0,0,1-6,9,13.53,13.53,0,0,1-10.33,4.31,16,16,0,0,1-7.31-1.29,12.82,12.82,0,0,1-5.6-4.31A13.06,13.06,0,0,1,104.17,125.23Z"/><path d="M65.51,98.07c.61,1.18,1,3.26,0,4.5-2.24,2.74-8.68-1.92-18.88-1.8-8.52.1-13.14,3.44-13.49,2.7-.44-.91,10.33-10.18,22.93-9C58.57,94.71,63.82,94.8,65.51,98.07Z"/><path class="cls-2" d="M72,200.25c-2.2-1.43-6.83,1-20.37,13-11,9.65-16.47,14.48-17.76,17.76-5.15,13,1.9,31.59,9.71,32.73,5.94.88,11.76-9.89,23.41-31.43,0,0,8.78-16.24,6.32-29.61A3.48,3.48,0,0,0,72,200.25Z"/><path d="M45.58,458.92c-.07,1.07,1.82,1.86,7.36,3.63,6.31,2,9.66,2.84,14,3,3.56.11,4.43-.36,5.08-1,2-2,1.18-5,2.52-11.92,1.46-7.48,3.59-9.72,2.53-11.93-.35-.73-1.19-1.74-7.77-1.64-8.23.12-9.74,1.75-14.83,1-4.42-.64-7.41-2.46-7.77-1.64s2.3,2.45,5,7.27c1.32,2.4,2.55,4.72,1.84,6.62-.23.63-.58.94-2.05,2l-.44.32-1.13.79h0l-.32.23a3.15,3.15,0,0,0-.29.22C45.94,458.14,45.62,458.49,45.58,458.92Z"/><path class="cls-13" d="M51,454.58a2.65,2.65,0,0,1,.69,0,3.65,3.65,0,0,1,2.14,1.23,5.08,5.08,0,0,1,1.05,1.46c.27-.29-1.16-2.89-3.22-3h-.22Z"/><path class="cls-13" d="M49.25,455.82a2.55,2.55,0,0,1,.59-.14,3.69,3.69,0,0,1,2.36.72,5,5,0,0,1,1.35,1.18c.2-.33-1.7-2.46-3.68-2.21h0l-.32.23A3.15,3.15,0,0,0,49.25,455.82Z"/><path d="M119.85,463.58c-.13,1.07-2.13,1.5-7.9,2.24-6.56.83-10,1-14.29.37-3.52-.54-4.29-1.16-4.81-1.91-1.63-2.33-.25-5.18-.32-12.18-.07-7.62-1.76-10.21-.32-12.19.48-.65,1.5-1.5,7.94-.21,8.07,1.62,9.26,3.5,14.4,3.7,4.47.17,7.74-1.08,7.94-.21s-2.71,2-6.19,6.26c-1.74,2.12-3.37,4.17-3,6.17.12.66.4,1,1.66,2.32l.37.39,1,1h0l.27.29c.08.09.18.18.25.27C119.64,462.75,119.89,463.15,119.85,463.58Z"/><path class="cls-13" d="M115.31,458.33a2.74,2.74,0,0,0-.68-.13,3.75,3.75,0,0,0-2.33.82,5.39,5.39,0,0,0-1.3,1.25c-.21-.34,1.67-2.63,3.72-2.37l.22,0Z"/><path class="cls-13" d="M116.81,459.87a2.2,2.2,0,0,0-.56-.24,3.69,3.69,0,0,0-2.45.27,4.91,4.91,0,0,0-1.54.92c-.14-.37,2.11-2.11,4-1.51h0l.27.29C116.64,459.69,116.74,459.78,116.81,459.87Z"/><path class="cls-15" d="M146.11,313.09c-6.41-9.14-22.79-1.17-53.06-1.8-25.72-.53-43.26-6.89-47.66.9-.38.66-.45,1.06-.9,6.3-1.58,18.09-1.8,23.38-1.8,23.38-.59,13.87-.88,20.8-.9,24.28-.09,19.46,1.86,18.58,1.8,35.08,0,0-1.9,24.47,0,36a8.79,8.79,0,0,0,2.7,5.4c2,1.69,4.43,1.72,6.29,1.79,12.48.49,13.88,3.38,22.48,1.8,3.44-.63,5.15-.94,6.3-1.8,5.51-4.09,1.59-12.45,4.5-28.77,1.49-8.39,2.22-8.3,3.59-17.09.89-5.64,1.09-8.88,1.8-17.09,1.06-12.21,2.51-27,2.7-27s0,13.53-1.8,30.58c-1.65,16.17-.85,32.72-4.49,48.56-.61,2.63-2.61,10.92.89,13.49.67.49,1.48.73,5.4.9,4.55.2,7.23,0,9.89,0a101,101,0,0,1,14.39.9c5.71.73,5.31,1.15,6.3.9,6.53-1.67,7.21-16.06,11.69-40.47,1.63-8.87,1-3.77,4.5-21.58,3.42-17.23,7.38-38.83,7.19-63.86C147.86,317.15,147.55,315.14,146.11,313.09Z"/><path class="cls-16" d="M129.92,439c2.34,2.89-1.15,11.42-7.19,15.29-1.59,1-3.29,1.66-22.48.9-8.33-.34-10.86-.57-12.59-2.7-2.18-2.68-2-7-1.8-11.69.13-3.13.19-4.69.9-5.4,3.12-3.14,10.94,4.5,23.38,5.4C121.55,441.62,127.58,436.09,129.92,439Z"/><path class="cls-16" d="M85,435.15c2.33,2.89-1.16,11.42-7.2,15.29-1.59,1-3.28,1.66-22.48.9-8.33-.34-10.86-.57-12.59-2.7-2.18-2.68-2-7-1.8-11.69.13-3.13.19-4.69.9-5.4,3.12-3.14,10.94,4.5,23.38,5.4C76.57,437.77,82.6,432.24,85,435.15Z"/><path class="cls-2" d="M101.75,195.7c-1.45.3-3.07,2-8.12,3.45-3.53,1-6.1,1.88-9.06,1.29-5.95-1.19-7.47-5.74-10.34-5.17-3.69.72-5,8.94-5.18,10.34-2.78,17.89-8,35.31-11.64,53-4.07,19.83-6.76,16.93-11.64,40.1-5.5,26.15-5.12,33.39-1.29,38.8,4.84,6.84,12.94,8.81,22.2,11,11.28,2.73,13,.17,37.77.9,12.87.38,16.52,1.19,25.18,0,9.52-1.32,16.58-2.29,20.68-6.3,8.46-8.26,1.61-26.69-7.53-53.51C128.7,248.41,111.39,193.7,101.75,195.7Z"/><path d="M103.31,123.94a6.13,6.13,0,0,0,.43,2.15c.17,0,.05-1.82.43-3.87a17,17,0,0,1,1.72-4.74,18.3,18.3,0,0,1,5.17-6.88,16.54,16.54,0,0,1,6.45-3,16.06,16.06,0,0,1,6.89-.43,14.53,14.53,0,0,1,5.59,2.15,11.07,11.07,0,0,1,3.87,3.87,10.91,10.91,0,0,1,1.29,4.3,16.13,16.13,0,0,1-.86,7.75c-2,5.33-6.25,7.92-6,8.18s3.22-1.58,5.59-4.74a17.17,17.17,0,0,0,3-6.45,14.3,14.3,0,0,0,0-7.75,13.46,13.46,0,0,0-2.58-4.73,14.83,14.83,0,0,0-7.74-4.73,17.18,17.18,0,0,0-6.46-.43,17.4,17.4,0,0,0-7.74,3,20.78,20.78,0,0,0-6.46,6.88C105,116.09,103,119.66,103.31,123.94Z"/><path class="cls-17" d="M46.54,108.62a11.65,11.65,0,0,1,6.88,0,10.41,10.41,0,0,1,4.73,2.58,10.84,10.84,0,0,1,2.59,4.3,13.13,13.13,0,0,1,.86,7.32,11.64,11.64,0,0,1-3,6,11.83,11.83,0,0,1-8.6,3.44,11.72,11.72,0,0,1-8.61-4.73,12.92,12.92,0,0,1-2.15-9,11.07,11.07,0,0,1,2.15-6.45A10.36,10.36,0,0,1,46.54,108.62Z"/><path class="cls-18" d="M47.5,110.47a9.73,9.73,0,0,1,5.63,0A8.65,8.65,0,0,1,57,112.59a8.79,8.79,0,0,1,2.11,3.52,10.69,10.69,0,0,1,.71,6A9.53,9.53,0,0,1,57.35,127,9.14,9.14,0,0,1,43.27,126a10.54,10.54,0,0,1-1.76-7.39,9.12,9.12,0,0,1,1.76-5.28A8.6,8.6,0,0,1,47.5,110.47Z"/><path class="cls-9" d="M58.72,119.51a3.75,3.75,0,0,1,1.72,2.15,4,4,0,0,1-.86,3.88A3.62,3.62,0,0,1,57,126.83a3.77,3.77,0,0,1-3-1.72,4.09,4.09,0,0,1-.43-3.45,3.77,3.77,0,0,1,1.72-2.15A3.62,3.62,0,0,1,58.72,119.51Z"/><path class="cls-9" d="M42.46,113.13a1.36,1.36,0,0,1,.63.78,1.46,1.46,0,0,1-.32,1.41,1.31,1.31,0,0,1-.93.47,1.37,1.37,0,0,1-1.1-.63,1.54,1.54,0,0,1-.16-1.25,1.39,1.39,0,0,1,.63-.78A1.32,1.32,0,0,1,42.46,113.13Z"/><path class="cls-17" d="M115.79,109.42a11.74,11.74,0,0,1,6.88,0,10.48,10.48,0,0,1,4.74,2.58,11,11,0,0,1,2.58,4.3,13.14,13.14,0,0,1,.86,7.32,11.57,11.57,0,0,1-3,6,11.8,11.8,0,0,1-8.61,3.44,11.66,11.66,0,0,1-8.6-4.73,12.86,12.86,0,0,1-2.16-9,11.16,11.16,0,0,1,2.16-6.45A10.37,10.37,0,0,1,115.79,109.42Z"/><path class="cls-18" d="M115.75,111.28a9.56,9.56,0,0,1,5.63,0,8.41,8.41,0,0,1,3.87,2.11,9,9,0,0,1,2.12,3.52,10.73,10.73,0,0,1,.7,6,9.49,9.49,0,0,1-2.46,4.93,9.67,9.67,0,0,1-7,2.81,9.56,9.56,0,0,1-7-3.87,10.49,10.49,0,0,1-1.76-7.39,9,9,0,0,1,1.76-5.28A8.47,8.47,0,0,1,115.75,111.28Z"/><path class="cls-9" d="M128,120.31a3.78,3.78,0,0,1,1.72,2.16,4.05,4.05,0,0,1-.86,3.87,3.67,3.67,0,0,1-2.59,1.29,3.79,3.79,0,0,1-3-1.72,4.11,4.11,0,0,1-.43-3.44,3.8,3.8,0,0,1,1.72-2.16A3.67,3.67,0,0,1,128,120.31Z"/><path class="cls-9" d="M112.71,114.93a1.32,1.32,0,0,1,.63.78,1.48,1.48,0,0,1-.31,1.41,1.32,1.32,0,0,1-.94.47A1.37,1.37,0,0,1,111,117a1.48,1.48,0,0,1-.15-1.25,1.35,1.35,0,0,1,.62-.78A1.32,1.32,0,0,1,112.71,114.93Z"/></g></g></svg>