<svg xmlns="http://www.w3.org/2000/svg" viewBox="0 0 663.48 774.39"><defs><style>.cls-1{fill:#070707;}.cls-2{fill:#fff;}.cls-3{fill:#000100;}.cls-4{fill:#dd7d1e;}.cls-5{fill:#e6913e;}.cls-6{fill:#eba03e;}.cls-7{fill:#caca4e;}.cls-8{fill:none;stroke:#000100;stroke-miterlimit:10;stroke-width:3px;}.cls-9{fill:#db8fb3;}.cls-10{fill:#606eb2;}</style></defs><g id="Camada_2" data-name="Camada 2"><g id="Camada_2-2" data-name="Camada 2"><path class="cls-1" d="M295.49,524.74C249.15,536,239.34,566,197.14,591,165.2,610,107,630.64,81.81,607.25c-19-17.58-14.85-55.91-7.81-77.4,9.23-28.18,27.77-40.56,24.91-43.83-4.26-4.85-51.42,15.49-74,59.23C19.31,556,2.67,588.16,16,619.94,27.83,648,56,659.11,70.12,664.73c69.41,27.54,140.74-9.11,155.87-16.88C295.16,612.31,347.4,542.91,335.5,525.46,329.4,516.52,307,522,295.49,524.74Z"/><path class="cls-2" d="M245.05,408.87c-.48,4.62-1.14,11.4-1.79,19.67a18.08,18.08,0,0,1-.3,3.72,16.07,16.07,0,0,1-5.14,8.4,18.43,18.43,0,0,1-8.31,4c-12.47,2.76-103.94,130.9-45.25,206.18C203,674.9,231,685.85,239.38,689c21.26,7.89,37.36,8.36,68.39,9.27,43.76,1.29,68.14,2.92,96.79-9.27a154.2,154.2,0,0,0,30.93-18.13s20.45-15.18,33.91-33.72c47-64.79-34.27-202.63-50.76-203.88-.85-.07-7.72-.25-9.41-3.89-.57-1.22-.34-2.32-1.53-7.53-.16-.68-.33-1.39-.55-2.22-1.61-6.25-9.55-37-29.67-53.92C346.91,340,287.63,345.58,260,378.48A72.89,72.89,0,0,0,245.05,408.87Z"/><path class="cls-3" d="M307.1,573.78c-6.78,23.65-12,41.67-26.88,60.9-13.82,17.83-35.43,35.92-59.44,46.58-11.66-6.13-26.23-15.85-37.48-30.28-23.7-30.41-22.91-69.44-12.72-105.35,15-53,50.54-99.19,58-100.83a18.38,18.38,0,0,0,8.31-4,16,16,0,0,0,5.14-8.38,17.45,17.45,0,0,0,.3-3.73c.65-8.27,1.3-15.05,1.79-19.67.5-2.12,1.17-4.63,2.11-7.4a70.48,70.48,0,0,1,12.78-23c.22-.27.45-.53.69-.79,29.44,17.55,47.9,56.88,49.22,59.79C331.74,487.86,317.05,539.08,307.1,573.78Z"/><path class="cls-4" d="M264,531.83c-25.89,19.84-67.27,28.78-93.51,13.93,15-53,50.54-99.19,58-100.84a18.31,18.31,0,0,0,8.31-4,16,16,0,0,0,5.15-8.39,18.86,18.86,0,0,0,.3-3.72c.64-8.28,1.3-15.05,1.79-19.67.5-2.12,1.16-4.63,2.1-7.41a97.16,97.16,0,0,1,21.21,12.73c6.22,5,29.68,23.67,31,54.25C299.84,504.35,270.06,527.18,264,531.83Z"/><path class="cls-4" d="M469.4,637c-13.46,18.55-33.91,33.72-33.91,33.72a153.82,153.82,0,0,1-30.93,18.14c-.45.2-.9.39-1.35.56A121.85,121.85,0,0,1,390.34,694a148,148,0,0,1-11.24-36.13c-8.77-52.8,20.43-95.92,50.53-140.37a375.57,375.57,0,0,1,25.94-33.91q3.19,6.38,6.25,13.23C481.93,542,495.65,600.89,469.4,637Z"/><path class="cls-3" d="M470.47,639.46C457,658,436.55,673.19,436.55,673.19a154.24,154.24,0,0,1-30.92,18.13l-1.35.57a182.54,182.54,0,0,1-8.67-26c-1.26-5.08-20-87.2,39.3-144.59a193.92,193.92,0,0,1,28-22.08C483,544.4,496.71,603.31,470.47,639.46Z"/><path class="cls-5" d="M231.53,93.56c-9,4.23-20.74,13-44.31,30.68-22.55,16.87-29.35,23.38-33.05,27.08s-11.3,11.59-23.76,28.51c0,0-35.11,47.66-56.12,104.91A82.87,82.87,0,0,0,70.56,298c-1.06,5.45-3.53,18.69.63,34.19,2.93,10.87,7.77,18.21,11.68,24A118.55,118.55,0,0,0,109.46,384c29.12,22.84,47,36.83,76.74,50.15,41.23,18.43,75.92,22.4,84.6,23.28,22.87,2.33,40.58,1,53.94,0a340,340,0,0,0,75.36-14.22A319.1,319.1,0,0,0,469,411.75c23.15-14.18,42.83-30.68,50.78-37.34,2.73-2.29,4.09-3.44,6.08-5.2,8.73-7.76,24.43-23.15,36.79-44.59,8.36-14.49,15.73-27.66,14.72-45.11-.39-6.83-1.1-13-7.57-26.08-17.27-34.86-25.9-52.3-26.92-53.85-31.31-47.55-73.14-73.92-88.35-83.3C422.46,96.52,396.18,88,389.72,86a214.61,214.61,0,0,0-54.88-10.2c-22.57-1.11-39.72,1.77-53.78,4.23C261.62,83.41,248,85.78,231.53,93.56Z"/><path class="cls-4" d="M257.82,512.63c6.32-10.11,16.93-16.44,26.52-17a31.53,31.53,0,0,1,18,5.66c28.1,19.37,43.18,122.64,36.79,208.07-2.48,33.16-7.24,50.88-16.26,59.45-11,10.52-24.16,3.21-27.37,1.42-19.34-10.77-27.25-42.83-30-53.79a192.28,192.28,0,0,1-5.13-39.63C255.55,564.78,244.34,534.21,257.82,512.63Z"/><path class="cls-4" d="M352.81,506.87c6.31-10.11,16.92-16.44,26.52-17a31.5,31.5,0,0,1,18,5.66c28.1,19.38,43.18,122.65,36.79,208.08-2.48,33.16-7.24,50.87-16.25,59.45-11.05,10.51-24.17,3.2-27.38,1.42-19.34-10.77-27.24-42.83-29.94-53.79a192.61,192.61,0,0,1-5.14-39.64C350.53,559,339.33,528.45,352.81,506.87Z"/><path class="cls-2" d="M339,237.87c-32,55-94.43,97.92-163.95,96.32-36.34-.85-66.79-13.68-91.71-31.31-4.24-3-8.31-6.11-12.22-9.35A85.26,85.26,0,0,1,74,284.26C95,227,130.12,179.35,130.12,179.35c12.46-16.92,20-24.79,23.77-28.51s10.5-10.22,33.05-27.09c23.55-17.63,35.34-26.44,44.3-30.67a126.36,126.36,0,0,1,22-8c8.41-2.21,17.14-3.73,27.54-5.55,14.06-2.46,31.21-5.35,53.78-4.24,6.95.35,13.41,1,19.35,1.89C370.23,127.4,369,186.28,339,237.87Z"/><path class="cls-3" d="M244.66,187.66c-21.2,32.42-35.78,54.71-64.34,68.94-30.31,15.1-48.41-5.71-71.24,11.49-8.12,6.11-14.65,16.17-25.72,34.79-1.69,2.83-3.47,5.84-5.38,9.08-3.34,5.65-6,10.47-8.23,14.56a75.83,75.83,0,0,1,.53-29c.27-1.4.56-2.71.86-3.94A85.26,85.26,0,0,1,74,284.26C95,227,130.12,179.35,130.12,179.35c12.46-16.92,20-24.79,23.77-28.51s10.5-10.22,33.05-27.09c23.55-17.63,35.34-26.44,44.3-30.67a126.36,126.36,0,0,1,22-8A81.73,81.73,0,0,1,267,96.22c9.11,9.35,11.45,17.24,12.18,20.21C283,132,272.52,145.05,244.66,187.66Z"/><path class="cls-1" d="M505.57,154.89c2.72-3.37,6.08-4.5,9-6.74,8.16-6.25,12.2-6.09,17.38-9.47,13.32-8.72,15.67-28.87,16.41-35.27.91-7.86-.22-11.45,1.53-25.53a124.25,124.25,0,0,1,1.94-12.36c2.37-11.94,6.47-26.72,1.38-44.58-3.12-11-6.7-12.54-8.67-12.73-4.34-.42-8.34,5.24-11.06,8.53-6,7.32-17.29,17-40.28,26.23-21.58,8.18-34.77,20-41.68,27.35-8.11,8.6-17.93,19.32-16.59,32.47.63,6.09,3.41,10.47,5.89,14,19.21,27.74,52.41,53.77,60,47.47C502.83,162.62,501.72,159.67,505.57,154.89Z"/><path class="cls-5" d="M473.15,157.48c2.54-6.78,19.86,2.72,41.42-9.33,18.4-10.28,27.9-29.56,30.44-38.32a102.71,102.71,0,0,0,2.82-14.11c.86-7.79-.28-11.27,4-30.2,0,0,2.59-11.46,1.8-39.43-.11-3.93-.4-10.69-5.06-12-4.13-1.2-9.77,2.41-13.85,5.11C517.07,30.8,508.24,36.63,502.4,42.72c-4.28,4.47-3.83,3.34-10.88,9.4-23.6,20.27-25,20.25-30.14,26.24-6.25,7.24-12.67,14.66-15.61,26.13-3.1,12.06.75,16.43-3.85,25.7-1.41,2.84-7.39,13.73-19.84,16.31-10.68,2.21-22.95-2.24-28.19-11.18-8-13.59,2.47-31.48,6-37.5a64.19,64.19,0,0,1,15.26-17.56c1-.77,1.85-1.34,4-3,6.5-5,11.08-9.09,13.2-11,19.23-17.4,79.19-53.51,81.94-55.26C517.81,8.76,534.71-2.13,545.19.37,556.6,3.08,557.78,21,559,44.09c.35,6.52,1,23.65-3.31,56.71-1.23,9.48-3.13,19.8-6.93,40.44-6.17,33.48-8.88,44-14.37,48.08a19.8,19.8,0,0,1-3.9,1.9C506.94,200,469.22,167.94,473.15,157.48Z"/><path class="cls-1" d="M190.28,136.22c0,6.12-2.36,10.76-4.46,14.56q-1.44,2.58-3,5.15c-.83-4.73-.38-9.38-3.15-16.94-4.07-11.13-11.19-17.87-18.13-24.45-5-4.72-6.66-5.24-23.53-16.85a127.21,127.21,0,0,0,2.4,25.11c3.38,16.58,12.41,40,26.36,55.32a161.21,161.21,0,0,1-13.4,14.16c-9.91,9.2-18.69,14.28-22.53,11.68-2.2-1.48-1.39-4.51-5.69-8.89-3-3.08-6.49-3.88-9.62-5.81a45.17,45.17,0,0,0-6.84-3.56l0,0c-4.45-1.82-7.54-2.15-11.35-4.13-14.12-7.36-18.45-27.17-19.82-33.47-1.69-7.73-.92-11.41-4-25.25a123.52,123.52,0,0,0-3.17-12.1s-.09-.28-.26-.87c-3.54-11.46-8.73-25.5-5.54-43.3a.13.13,0,0,1,0-.06c.29-1.64.62-3.08,1-4.35,2-7.39,4.73-8.84,6.4-9.18,4.27-.84,8.82,4.4,11.85,7.4A67.87,67.87,0,0,0,98.56,71.3l1.38.76a134.66,134.66,0,0,0,26.42,10.41,118.72,118.72,0,0,1,12.11,4,107.62,107.62,0,0,1,32.08,19.12C179.48,113.31,190.31,123,190.28,136.22Z"/><path class="cls-6" d="M234.34,164.52c-4.33,9.42-16.1,15.06-26.93,13.92-12.65-1.34-19.68-11.57-21.36-14.26a22.07,22.07,0,0,1-3.23-8.25c-.83-4.73-.38-9.38-3.15-16.94-4.07-11.13-11.19-17.87-18.13-24.45-5-4.72-6.66-5.24-23.53-16.85-2.63-1.8-5.62-3.87-9.06-6.28-7.63-5.32-7.06-4.25-11.77-8.27-4-3.45-9.25-6.69-17.24-11.08l-1.38-.76c-4.4-2.38-9.62-5.12-15.87-8.42-4.33-2.27-10.29-5.31-14.29-3.7a5.45,5.45,0,0,0-3,3,12.35,12.35,0,0,0-1,4.35.13.13,0,0,0,0,.06,38,38,0,0,0,.1,5.1c1.68,23.5,4.57,35.11,5.44,38.2.17.59.26.87.26.87,6.13,18.41,5.35,22,7,29.65a101.5,101.5,0,0,0,4.21,13.76c3,7.41,12,22.3,27.2,31.54l0,0a58.11,58.11,0,0,0,6.84,3.56c17.37,7.55,31,2.75,37.84,3,2.09.08,3.55.63,4.3,2.15,4.94,10-29.4,45.64-53.71,39.26a19.05,19.05,0,0,1-4.07-1.51c-5.87-3.54-9.62-13.71-19.06-46.42C75,165.6,72.08,155.52,69.92,146.21,62.38,113.74,61.3,96.63,61,90.11c-1.07-23.09-1.67-41,9.41-44.88,10.19-3.51,28.08,5.64,31.83,7.54,1.25.62,18.18,10.06,37.91,21.09,26.37,14.73,57.74,32.3,63.34,35.42a65.26,65.26,0,0,1,21.18,18.52C228.76,133.44,240.92,150.22,234.34,164.52Z"/><path class="cls-3" d="M182.82,155.93a180.52,180.52,0,0,1-16,22.19c-14-15.35-23-38.74-26.36-55.32A127.21,127.21,0,0,1,138,97.69c16.87,11.61,18.55,12.13,23.53,16.85,6.94,6.58,14.06,13.32,18.13,24.45C182.44,146.55,182,151.2,182.82,155.93Z"/><path class="cls-3" d="M234.34,164.52c-4.33,9.42-16.1,15.06-26.93,13.92-12.65-1.34-19.68-11.57-21.36-14.26a22.07,22.07,0,0,1-3.23-8.25c-.83-4.73-.38-9.38-3.15-16.94-4.07-11.13-11.19-17.87-18.13-24.45-5-4.72-6.66-5.24-23.53-16.85,0-3.76.15-7.54.46-11.26a126.42,126.42,0,0,1,1.68-12.57c26.37,14.73,57.74,32.3,63.34,35.42a65.26,65.26,0,0,1,21.18,18.52C228.76,133.44,240.92,150.22,234.34,164.52Z"/><path class="cls-7" d="M273.69,314.45c8.51-19.18-8.42-44.12-9.63-45.84-1.38-2-17-23.48-45-26.45a62.09,62.09,0,0,0-39.36,8.89c-3.57,2.24-17.3,11.13-23.49,27.61a74.29,74.29,0,0,0-4.42,25.75c0,1.49.1,2.73.16,3.59.07,2.87.21,7.26.47,9.93,0,.19,0,.4.07.64a23.88,23.88,0,0,0,1.09,5.15c.14.37.27.71.42,1a15.35,15.35,0,0,0,1.15,2.09l.1.16c.79,1.14,3.78,5.33,4.07,5.72.82,1.08,14.89,18,41.13,23.63,0,0,22.14,4.73,42.18-2.84a32.63,32.63,0,0,0,10.28-5.77c5.21-4.52,6.07-9.41,11.17-17.56C270.19,320.33,273.26,315.41,273.69,314.45Z"/><path class="cls-3" d="M198.06,262.66a41.55,41.55,0,0,0-13.33,9.79c-12.46,14.2-12.75,34.77-7.17,49.35a50.19,50.19,0,0,0,10.23,16.29A38.59,38.59,0,0,0,208,348.79a37.75,37.75,0,0,0,15.14-.36,42.64,42.64,0,0,0,10.34-2.4,48,48,0,0,0,5.68-2.59c8.35-4.6,14-13.32,14.78-14.63a49.6,49.6,0,0,0,5.34-41.4c-6.2-16.32-20.34-23.16-23.93-24.75C233.09,261.66,215.88,254.34,198.06,262.66Z"/><path class="cls-2" d="M231.75,278.77c-.1.46-1.72,8.24,2.05,12.46,2.55,2.85,6,2.37,10,1.83,2.79-.38,4.38-.59,5.69-2.14,2.68-3.16,2.12-9.45.53-13.43-1.9-4.72-6.63-9.66-11.57-8.11S231.94,277.89,231.75,278.77Z"/><path class="cls-7" d="M498.47,278.53c.47-7.5,1.49-23.87-8.6-39.58-14.64-22.79-41-26-45-26.44a62.13,62.13,0,0,0-39.36,8.88C401.9,223.64,388.16,232.52,382,249a74.37,74.37,0,0,0-4.43,25.75c0,1.49.1,2.73.17,3.59.07,2.87.21,7.26.47,9.93,0,.19,0,.4.06.64a24.68,24.68,0,0,0,1.1,5.15,15.82,15.82,0,0,0,1.67,3.27c2.27,3.62,3.92,5,7.19,8.92a57.89,57.89,0,0,0,4.89,5.34,106,106,0,0,0,9.93,9c6,4.65,17.91,8.86,30.49,9.47,1.86.09,42.64,1.49,58.63-26.56C497.42,294.27,498.06,285.29,498.47,278.53Z"/><path class="cls-3" d="M412.62,235.87a41.55,41.55,0,0,0-13.33,9.79c-12.46,14.2-12.75,34.77-7.18,49.35a50.53,50.53,0,0,0,10.24,16.3A38.67,38.67,0,0,0,422.54,322a37.76,37.76,0,0,0,15.14-.36,42.48,42.48,0,0,0,10.33-2.4,48.06,48.06,0,0,0,5.68-2.58c8.36-4.6,14-13.33,14.78-14.64a49.58,49.58,0,0,0,5.35-41.4c-6.21-16.32-20.34-23.16-23.93-24.75C447.65,234.87,430.44,227.56,412.62,235.87Z"/><path class="cls-2" d="M446.31,252c-.11.46-1.72,8.24,2.05,12.46,2.55,2.85,6.05,2.38,10.05,1.83,2.79-.38,4.38-.59,5.69-2.14,2.68-3.16,2.12-9.45.52-13.43-1.89-4.72-6.62-9.66-11.56-8.1S446.5,251.11,446.31,252Z"/><path class="cls-8" d="M382.36,391.63a33.8,33.8,0,0,1-14.88,13.44c-4,1.8-11.33,5.13-19.06,2-10.45-4.21-12.73-16.64-12.89-17.62"/><path class="cls-8" d="M289.33,397.39a33.85,33.85,0,0,0,16.42,11.51c4.16,1.29,11.87,3.69,19.16-.35,9.86-5.47,10.58-18.09,10.62-19.08"/><path class="cls-9" d="M332.39,365.6a22.8,22.8,0,0,1,14.13-4.92c2.43,0,10.79.18,13.09,5.61,1.94,4.56-1.29,10.75-5.45,13.17s-6.76,0-11,2.46c-5.48,3.22-5.58,10.12-7.49,10.05-1.31-.05-2.9-3.38-4.42-16.33"/><path class="cls-9" d="M333.17,365.35a22.79,22.79,0,0,0-14.82-2c-2.38.52-10.55,2.31-11.73,8.08-1,4.85,3.39,10.29,7.95,11.84s6.62-1.37,11.26.24c6,2.08,7.47,8.82,9.32,8.37,1.28-.31,2.18-3.89,1.11-16.88"/><path d="M513.22,321c47.4-16.23,98-14.44,147.37-12.47,3.86.15,3.85-5.85,0-6-49.86-2-101.08-3.71-149,12.68-3.63,1.24-2.07,7,1.6,5.79Z"/><path d="M517.34,338.06a435.17,435.17,0,0,1,143.25-5.88c3.82.47,3.79-5.53,0-6a440.45,440.45,0,0,0-144.84,6.09c-3.78.8-2.18,6.58,1.59,5.79Z"/><path d="M513.38,355.38a216.82,216.82,0,0,1,95.87,15.56c3.58,1.45,5.13-4.35,1.6-5.79a221,221,0,0,0-97.47-15.77c-3.84.25-3.87,6.25,0,6Z"/><path d="M170.57,398.6a412.53,412.53,0,0,0-123.7,30.53c-3.51,1.47-2,7.28,1.59,5.79A407.36,407.36,0,0,1,170.57,404.6c3.82-.34,3.86-6.34,0-6Z"/><path d="M156.88,382.24A314.2,314.2,0,0,0,38.73,395.61c-3.67,1.15-2.11,6.94,1.59,5.79a309.5,309.5,0,0,1,116.56-13.16c3.85.3,3.83-5.7,0-6Z"/><path d="M160.1,369.87A235,235,0,0,0,20.67,376.1c-3.6,1.3-2.05,7.1,1.6,5.79a229.16,229.16,0,0,1,136.23-6.23c3.74,1,5.34-4.8,1.6-5.79Z"/><path class="cls-10" d="M8,172a10.6,10.6,0,0,1-4.64-.82A3.38,3.38,0,0,1,.11,168.9c-.65-2.56,1.62-4,6.78-4.4,4.92,0,7.76.7,8.43,3.3s-1.4,3.75-6.22,4.19Zm104,67.74Q96.08,229.63,79.89,219,52.61,201,27,183l29.75-3.52,55.54-6.88L92.26,33l5.2,4.33,84.76,90.74q23.31-36.43,46.63-72.87v1.56l6.68,79.35c.39,3,.79,6,1.19,9.07a156.7,156.7,0,0,1-14.21,22.13c-13.73,17.84-27.83,28.12-39.34,36.37-20.58,14.76-38.73,22.8-50.89,28.08C124.15,235.3,117.16,237.92,112,239.74ZM90.43,25.28a11,11,0,0,1-4.73-.81,3.36,3.36,0,0,1-3.13-2.28q-1.06-3.86,6.78-4.41c4.92,0,7.66.7,8.43,3.3s-1.4,3.76-6.31,4.19ZM235.21,39.66a11.11,11.11,0,0,1-4.73-.71,4.19,4.19,0,0,1-1.79-.77,4.65,4.65,0,0,1-1.34-1.51c-.67-2.6,1.59-4.07,6.79-4.51s7.66.8,8.42,3.41-1.4,3.75-6.31,4.08Z"/></g></g></svg>