<svg xmlns="http://www.w3.org/2000/svg" viewBox="0 0 224.5 359.07"><defs><style>.cls-1{fill:#785849;}.cls-2{fill:#696258;}.cls-3{fill:#ff3e35;}.cls-4{fill:#f69308;}.cls-5{fill:#f3e73b;}.cls-6{fill:#a49e6a;}.cls-7{fill:#937166;}.cls-8{fill:#a4895c;}.cls-9{fill:#837c50;}</style></defs><g id="Camada_2" data-name="Camada 2"><g id="Camada_1-2" data-name="Camada 1"><path class="cls-1" d="M49.65,246.58c-8.55.45-19.3,1-28,9-2.2,2-12.27,11.84-9.34,21.31C15.62,287.6,33,289.35,35.65,289.58c6.31.52,6.81-1.1,18.66-2.69,18.2-2.45,22.75.83,29-4,4.64-3.59,9.19-10.3,8-17-1.15-6.5-7.12-10.08-12-13C67.47,245.79,55.35,246.28,49.65,246.58Z"/><path class="cls-2" d="M176.65,238.58c-8.55.45-19.3,1-28,9-2.2,2-12.27,11.84-9.34,21.31,3.31,10.71,20.64,12.46,23.34,12.69,6.31.52,6.81-1.1,18.66-2.69,18.2-2.45,22.75.83,29-4,4.64-3.59,9.19-10.3,8-17-1.15-6.5-7.12-10.08-12-13C194.47,237.79,182.35,238.28,176.65,238.58Z"/><path class="cls-3" d="M93.92,54.6a69.85,69.85,0,0,0-1-8.42A22,22,0,0,1,93.92,54.6Z"/><path class="cls-3" d="M170.93,80.18c-.54,1-1.06,1.93-1.59,2.74,3.08-14.33,6-24.88,6.59-24.74S176.56,69.4,170.93,80.18Z"/><path class="cls-3" d="M200.93,223.18c0,6.76,0,18.77-1,26a50.5,50.5,0,0,1-4.52,14.54c-9.37,19.54-29,32.21-32.48,34.46-35,22.61-80.76,16.53-100,1-14.88-12-20-26-20-26-1.09-3-.89-3.36-3-10-.33-1-.68-2.12-1-3.25-2.39-7.27-5.63-16.24-9-22.75-8.32-16.35-25.21-21.94-24-24,1.79-3,21.83,9.06,31.44,7.66a5.83,5.83,0,0,0,3.56-1.66c4.37-4.65-1.44-17.68-7.39-29.18-1.22-2.37-2.46-4.67-3.61-6.82-10.65-19.89-15.93-20.76-19-33-4.1-16.33-.19-36.64,10-41,5.24-2.24,12.41-.38,13,2s-5.87,3.77-8,9c-1.62,4-.22,8.92,2.13,13.28a36.29,36.29,0,0,0,6.78,8.92c1.44,1.35,2.62,2.05,3.09,1.8,1-.5-1.59-4.4-3-11a39.48,39.48,0,0,1-1-9A39.93,39.93,0,0,1,38,107.42v0c2.85-5.9,6.25-9.51,6.93-9.22,1.11.48-6.38,11-4,24a32.78,32.78,0,0,0,6.42,14c5.7,7.49,13,11.58,13.58,11,.91-.83-14.38-11.48-14-27,.14-5.78,2.43-11.07,5.3-15.73l0,0a95.71,95.71,0,0,1,6.68-9.25c3.46-4.39,7-7.59,14-14,13-11.83,17.77-13.85,20-21a23.3,23.3,0,0,0,1-5.57,54.79,54.79,0,0,1-1,13.57c-2.72,13.25-8.81,14.68-17,34-7.13,16.84-5.51,22.85-4,26,1.82,3.78,5.77,8.21,10,8s6.93-5.23,12-14c5.87-10.15,12.17-20.29,16-26,9.25-13.79,12.79-14.67,18-26,4.32-9.39,4.87-15.27,5-18,.28-6.17-1-10.61-3-18-2.3-8.28-4.34-11.76-8-24-2.71-9.07-2.36-9.75-2-10,2.54-1.77,17.22,9.85,24,26,5.77,13.75,4,26.47,3,33-3.27,21.48-13.25,24.21-19,48-4.3,17.8-3.15,34.64-1,35,1.37.23,2.47-6.38,8-17a118.28,118.28,0,0,1,16-23c10.13-11.9,14.31-12.89,18.41-19.26-1.9,8.85-3.87,19.14-5.41,29.26-1.93,12.63-4.77,31.81-1,33,.69.22,1.53-.18,2.47-1a35,35,0,0,0,5.1-6.63c4.45-6.94,9.08-16,10.43-15.36s-2.92,9.77-5,25c-2.14,15.64-.21,24.65,1,29,2,7.11,3.95,14.26,8,15a3.68,3.68,0,0,0,1.15,0c2-.2,4.1-1.78,6.25-4.17,8.65-9.59,17.69-32.28,18.6-31.86s-9.49,16.14-11,38C199.27,202.7,200.88,204.63,200.93,223.18Z"/><path class="cls-4" d="M190.93,213.18c-2.81,18.48-4.58,30.19-12,41-18.6,27.11-57.9,27-64,27-7.57,0-36.79-.09-57-21-10.11-10.46-14.48-22.53-19-35-.54-1.49-1.06-2.93-1.56-4.34a5.83,5.83,0,0,0,3.56-1.66c4.37-4.65-1.44-17.68-7.39-29.18,1.16-5.95,3-8.39,2.39-14.82-1.17-12.17-8.67-12.71-11-24-.53-2.53-.61-4.76,3.13-17.72,1.38-4.78,3.28-11,5.87-19.28,3.33-10.59,5.48-17.14,6-17S39.26,101,38,107.4v0a164.58,164.58,0,0,0-3.11,25.76c-.11,2.95-.14,6,0,9.2,0,.93,0,1.86.09,2.8.48,10.23,2.08,19.82,8,29,3.83,5.95,10.49,13.3,13,12,2.9-1.5-1.82-13.44-7-41-.62-3.29-1.15-6.28-1.58-9-2.42-15.33-1.88-22.8,2.58-29a25.58,25.58,0,0,1,2.3-2.73l0,0c3-3.09,6.68-5.28,8.68-4.25,3.87,2-2.82,13.76,0,31,.62,3.78,3.22,17.17,14,27,.67.61,10.82,9.73,15,7,3.46-2.26-1-10.16,0-22,.25-3,1.16-10,12-28,11.22-18.62,14.7-18.55,22-31,13.32-22.71,13.11-42.33,16-42,2.3.26,4.18,12.91,2,26-2.66,16-9.08,19-18,40-5.44,12.83-10.82,25.91-9,42,1.4,12.43,6.73,23.39,9,23s-.5-11.72,4-28a79.59,79.59,0,0,1,13-26c6.09-8.08,15.72-17.56,18-16,2.57,1.76-7.94,15-11,37-2.57,18.51,1.29,34.87,4,35,2.14.11,3.72-9.88,13-30l.47-1c2.66-5.71,3.66-7.13,4.53-7a.93.93,0,0,1,.57.36c1.94,2.39,1.69,16.34,2.43,45.64.48,19.14.9,25.59,3,26,2.84.55,6.75-10.38,10.15-18,1.86-4.16,3.57-7.31,4.85-7,.66.14,1.12,1.18,1.4,2.86C193.2,192.18,192.43,203.31,190.93,213.18Z"/><path class="cls-5" d="M129.46,179.57c-.19,4.57-.51,11-1.15,17.59C128.72,190.12,129.16,183.94,129.46,179.57Z"/><path class="cls-5" d="M129.48,179.22c.17-3.89.23-6.36.33-6.36S129.75,175.25,129.48,179.22Z"/><path class="cls-5" d="M195.41,263.72c-9.37,19.54-29,32.21-32.48,34.46-35,22.61-80.76,16.53-100,1-14.88-12-20-26-20-26-1.09-3-.89-3.36-3-10-.33-1-.68-2.12-1-3.25,6.23,5.13,12,10.33,12.32,9.92S43.43,263.62,37.9,253s-6.62-22.72-4.39-23.6c2-.78,5.13,7.83,15.64,18.46,8.71,8.81,19.43,15.93,21,14.41.88-.86-1.49-4.1-7.84-14.82C54.23,233.83,50.2,227,51.21,226.12c2.61-2.35,33.43,30,35.71,27.94,1.48-1.32-10.28-16.29-29.78-45.32-20.18-30-20-32.48-19.36-33,1.46-1.27,11.71,7.67,32.21,25.55,10.26,8.94,13.63,12.22,17.42,17.1,9.58,12.37,12.6,23.22,13.41,22.94,2-.7-20.22-68.88-17.08-70.06,2.91-1.1,22.64,57.83,34.73,55.59,5.78-1.07,8.5-15.85,9.84-29.68-1.51,25.61-2.77,62.47,3.62,63.8,7.18,1.49,21.43-42.29,27-40.63,5.17,1.54-4.74,39.39,3.92,43,7.74,3.24,22-24.34,28.54-21.58C194.74,243.16,196.55,252.44,195.41,263.72Z"/><path class="cls-6" d="M27.79,260.36c-6.27.57-14.16,1.28-20.55,11.34-1.61,2.54-9,14.93-6.85,26.86,2.43,13.49,15.15,15.71,17.13,16,4.62.66,5-1.38,13.69-3.39,13.35-3.08,16.69,1,21.28-5a32.61,32.61,0,0,0,5.87-21.42c-.84-8.2-5.23-12.7-8.81-16.39C40.87,259.37,32,260,27.79,260.36Z"/><path class="cls-2" d="M60,282.18c-8.55.45-19.3,1-28,9-2.2,2-12.27,11.85-9.34,21.31C26,323.2,43.3,325,46,325.18c6.31.53,6.81-1.1,18.66-2.69,18.2-2.44,22.75.83,29-4,4.64-3.59,9.19-10.29,8-17-1.15-6.5-7.12-10.08-12-13C77.82,281.39,65.7,281.88,60,282.18Z"/><path class="cls-7" d="M182.65,269.58c-8.55.45-19.3,1-28,9-2.2,2-12.27,11.84-9.34,21.31,3.31,10.71,20.64,12.46,23.34,12.69,6.31.52,6.81-1.1,18.66-2.69,18.2-2.45,22.75.83,29-4,4.64-3.59,9.19-10.3,8-17-1.15-6.5-7.12-10.08-12-13C200.47,268.79,188.35,269.28,182.65,269.58Z"/><path class="cls-8" d="M58.66,294.49c-2.15.62-5.74,1.75-8,5-4.63,6.64,0,16.83,1,19,1.14,2.51,3.9,8.57,10,12,7.81,4.39,12.94-.11,32-2,17.51-1.73,22.32,1.17,29-4,4.64-3.59,9.19-10.29,8-17-1.16-6.54-7.27-10.23-12-13C98.76,282.85,77.31,289.08,58.66,294.49Z"/><path class="cls-8" d="M155.31,297.13a10,10,0,0,0-5.12,5.55c-2.58,6.94,1.73,16.73,2.64,18.83,1.07,2.42,3.63,8.24,8.27,11.21,5.94,3.8,9.09-1.05,22.32-4.3,12.15-3,15.83-.45,20-6.08,2.9-3.9,5.42-10.9,3.9-17.48s-6.16-9.66-9.78-12.07C182.35,282.65,167.89,290.39,155.31,297.13Z"/><path class="cls-1" d="M142.65,291.58c-8.55.45-19.3,1-28,9-2.2,2-12.27,11.84-9.34,21.31,3.31,10.71,20.64,12.46,23.34,12.69,6.31.52,6.81-1.1,18.66-2.69,18.2-2.45,22.75.83,29-4,4.64-3.59,9.19-10.3,8-17-1.15-6.5-7.12-10.08-12-13C160.47,290.79,148.35,291.28,142.65,291.58Z"/><path class="cls-9" d="M135.92,322.66c-2,.89-5.47,2.47-7.3,6-3.74,7.18,2.16,16.69,3.42,18.72,1.45,2.34,5,8,11.44,10.62,8.31,3.36,12.82-1.76,31.49-6.06,17.15-3.95,22.28-1.69,28.25-7.66,4.14-4.15,7.8-11.38,5.77-17.88-2-6.34-8.51-9.22-13.56-11.37C174.21,306,153.73,314.91,135.92,322.66Z"/></g></g></svg>