<svg xmlns="http://www.w3.org/2000/svg" viewBox="0 0 655.32 782.98"><defs><style>.cls-1{fill:#6b9dc0;fill-rule:evenodd;}.cls-2{fill:#a65c39;}.cls-3{fill:#fff;}.cls-4{fill:#965136;}.cls-5{fill:#5d3328;}.cls-6{fill:#020202;}.cls-7{fill:none;stroke:#020202;stroke-linecap:round;stroke-miterlimit:10;stroke-width:2px;}</style></defs><g id="Camada_2" data-name="Camada 2"><g id="Camada_2-2" data-name="Camada 2"><path class="cls-1" d="M527.36,237.78c.41.25.2.24.77.57l-.07.09c-.31-.17-.41-.43-.59-.41C527.2,237.84,527.36,237.84,527.36,237.78Zm-1.1-1.3c.21.15.09.15.36.32s-.39-.18-.46-.2.2.4-.52-.1C525.64,236.3,525.92,236.36,526.26,236.48Zm1.51,1.55.12-.14C528.51,238.28,528.59,238.59,527.77,238Zm-1.66-3.65c.23.27.37.34.07.29,0,.07.66.46.75.58l-.24.31c-.25,0-.22-.23-.13-.22a12,12,0,0,1-1.08-.57c0,.08.67.46.76.59s-.85-.25-1.43-.51c.2.27.1.35-.4.12-.32-.42.66-.12,1-.11a2.57,2.57,0,0,1-.65-.33c.16-.07.21-.23,1,.28.59.13-.43-.72-.25-.82,0,0,.66.4.45.2a10.58,10.58,0,0,1-1.25-.74c.51.19-.08-.26,0-.34s.48.17.36-.05c.19.13.12.14.15.19.44.46,1.84,1.35,1.79,1.58-.17-.23-1-.79-1.3-1.06s-.21-.05-.28,0c.46.34.56.43,1.35,1C526.8,234.85,526.43,234.59,526.11,234.38Zm1.93,2.93c.72.43.64.57.29.41S528,237.36,528,237.31Zm.53-.66-.05.06c.1.21-.39-.11-.52-.11-.36.17,0-.1-.33-.36A3.39,3.39,0,0,1,528.57,236.65Zm0,.71c0,.12-.2,0-.29,0-.35-.28,0-.25-.92-.77A6.2,6.2,0,0,1,528.61,237.36Zm-2.3-.94c-.15,0-.64-.41-.36-.32-.52-.29-.11.25-.6,0s.18-.06,0-.35a11.57,11.57,0,0,1,1.09.56C526.55,236.48,525.72,236,526.31,236.42Zm-.1.9c-.9-.52-.67-.8.17-.21C526.1,237.06,526.06,237.1,526.21,237.32Zm-17,19.73c-.74-.31-.4,0-.54,0-.41-.18-.6-.42.09-.19,0-.08-.76-.29-.87-.39.44.05.08-.23.37-.23,0,0,.59.23.67.24s-.05-.32.52,0c.17.24-.43,0-.78,0,0,.1.05.22.35.38,1,.29.06-.12.1-.22,1.15.26.33-.68,1.11-.69a2.5,2.5,0,0,1-.81,1.75C508.81,257.41,509.85,257.37,509.22,257.05Zm2.41,2.2c1,.38.21.3.54.52s.15.09-.06.14C510.43,259.43,511.63,259.29,511.63,259.25Zm.83-.1a1.81,1.81,0,0,0-.68-.23c-.16,0,.39.23.43.19.67.3-.34.08-.13.29l-.45-.15c-.05-.34-.7-.87-.56-1.08s.76.1.37-.22a2.77,2.77,0,0,1,.68.24c.63.18.6,0,.81-.05.91.28-.39.2.35.37s-.71-.12-1-.17c.31.21-.45,0-.5,0s.08.16-.07.15-.68-.23-.49-.09c0,.06.26.11.45.16.58.15.07-.07.54,0,0,0,.38.19.44.19.23,0-.29-.34.54,0C513,258.93,512.7,259,512.46,259.15Zm-.65-.31c.13,0,.68.16.54,0C511.7,258.54,511.3,258.64,511.81,258.84Zm13.5-22.69c-.08.14-.91-.39-.83-.11-.59-.5-.48-.56.2-.25-.46-.38-.75-.78,0-.41.52.22-.23,0-.12.16S525.06,236,525.31,236.15Zm-12.66,24.28c.1.19-1.19,0-1.19-.27C512.18,260.54,511.87,260.15,512.65,260.43Zm-1.45-.82-.09.18C510.38,259.62,510.52,259.32,511.2,259.61Zm16.15-21.43.07-.09.81.51-.07.09C527.8,238.38,527.9,238.53,527.35,238.18Zm-13.69,20.09c.58.23.4.33,1.05.58-.2.21-.05.62-.58.66-.48-.41.3-.44.09-.75S513.64,258.39,513.66,258.27Zm10.44-9c1.08.66.54.62.33.82-.7-.37,0-.22-.06-.36S524,249.35,524.1,249.28Zm3.29-14.56c-.09.14.89.52.72.62a2.92,2.92,0,0,1,.65.34c.13.17-.21,0-.33,0s.11.33-.52-.12c0-.11.13-.09.33,0s-.68-.45-.6-.4c-.38-.28.09-.14-.73-.62.6.19-.28-.45.23-.26a5.83,5.83,0,0,0,.58.43C527.57,234.68,527.82,235,527.39,234.72Zm-12.51,23.19c.6.28.33.3-.1.22,0,0,.26.12.43.19-.49-.08.14.25.11.33s.19.25-.51,0c.37,0-.54-.46-.53-.56S514.91,258.1,514.88,257.91Zm-12,16.13c-1-.11-1.49-.65-.15-.36,0,.08-.66-.07-.52.07s.65.07.74.05-1.29-.34-1.11-.5c.8.18,1.63.48,1.56.63S502.86,273.94,502.84,274Zm1.71-3.17c-.08-.12-.51-.38.55-.14-.13.06-.7-.07-.53.1.79.2.35-.1,1.21.13-.15.08-1,.19-.1.31.6.19-.17.2-.77.05-.08-.06.15-.09,0-.15s-.45-.13-.46-.14S504.59,270.93,504.55,270.87Zm-3.24,0c-.51-.23.05-.44,0-.66a7.59,7.59,0,0,0,1.61.43c.2.19-.75-.09-1.2-.17-.25.07.47.15.68.23s.23.15,0,.08a3.78,3.78,0,0,0,1,.16c.15,0-.19-.09-.22-.09.13,0,1.11.06.78-.09.55.17.54.33-.08.24-.12.2.66.35.11.45-.6-.13-.43-.24-.39-.34l-.71-.15c0,.17.75.33.13.37a3,3,0,0,0,.7.19c.13.14-.5,0-.53.06s.77.24.4.33c-.78-.15-.87-.29-.87-.43A6.86,6.86,0,0,0,501,271c-.3-.23,1.05.2.76,0A.85.85,0,0,0,501.31,270.83Zm4.27,3.17c.37.13-.23,0-.28.11s.26.17.19.21-.75,0-.79.14c-1.26-.33.67-.17-.11-.48A4.22,4.22,0,0,0,505.58,274Zm-.55-.69c.46.07.7.33.18.25.27.15.82.3.61.45a1.36,1.36,0,0,0-1.2-.14c-1.21-.41.51-.26-.08-.61A1.07,1.07,0,0,0,505,273.31Zm-.06-3.74,0,.11c-.57-.15-1.2-.3-1.12-.42C504.49,269.38,504.4,269.46,505,269.57Zm-3.05-.65c-.13.06-.69-.08-.54.1s.53.16.43.23a2.2,2.2,0,0,0-.71-.12C500.87,269,500.69,268.66,501.92,268.92Zm-.6.3c.93.26-.14.18.12.42,1.05.15-.25.24.34.51-1-.19-.55-.34-.6-.48S500.78,269.21,501.32,269.22Zm1.2.18c.22.05.16.09.2.13a1.89,1.89,0,0,0,.73.08c.32.06.23.3.68.23.84.21-.24.1-.28.11s.07.14-.06.16-.43-.07-.48-.06.1.17-.5,0c-.08.06.17.25-.53.06.36,0,.3-.2.59-.26s1.48.17.54-.14c-.46,0-.25.23-1.24,0C502,269.47,503.05,269.7,502.52,269.4Zm2.44,5c.22,0,.44,0,.47.08s-.29.52-.23.83-.45.07-.23,0C504.82,275,504.56,274.63,505,274.43Zm.53-4.12c.32.15,1.27.33,1.1.45-.29-.19-1.25-.16-1.14-.33-.49-.08-.13.18-1-.05.73,0,.1-.33.65-.45.58.24.2,0,.95.17C506.28,270.34,505.36,270.11,505.49,270.31Zm2.31.59c.61,0-.21.25.39.37-.41,0,.21.22-.32.22-.13-.18-.83-.54-.57-.57C507.73,271.15,507.79,271.06,507.8,270.9Zm-4.64,2c-.15.06.43.18.44.21s-.63-.06-.75,0c-.74-.24-1.24-.22-1.37-.43.73.11.67.2,1.4.31.15-.08-.77-.39-1.14-.35s-.12-.06,0,0l0-.08c.73.11.42.2,1.16.31-.18-.22-.61-.34-.13-.41a3.63,3.63,0,0,1,1.13.39C503.9,272.94,503.33,272.81,503.16,272.87Zm1.06,5.17c.49,0,.07.34.13.47C503.3,278.29,504.4,278.24,504.22,278Zm-4.33-2.32c-.42,0-.63.08-.56.26-.75-.14-.68-.41-.16-.33-.54-.1-.27-.22-.65-.32-.78,0,0,.43.11.49l-.47-.07a3.64,3.64,0,0,0,.9.32c0,.07-.21.08-.51.05.08.12.32.29.16.33.3.21-1.07-.16-.76.06a.82.82,0,0,0,.49,0c.52.11,0,.25.15.37-.33-.1-.32-.22-.66-.32a4.57,4.57,0,0,1-.49,0c.08.11.48.21.67.32-.8-.16-.68.24-.82.32a2.68,2.68,0,0,1-.65-.36c-.32,0-.22.08-.27.14-.68-.24-.84-.79-.73-1.05,0-.07.13-.06.49,0-.09-.06-.4-.1-.45-.16s.5,0,.5,0-.4-.14-.44-.21.53-.14.57-.26-.23-.42-.09-.6.68-.23.85-.39-.2-.15-.2-.17c0-.29,1-.41.22-.81a1.8,1.8,0,0,0,.51,0c.51.13-.12.26.88.38a6.83,6.83,0,0,0-1.09-.55c.87-.05.28-.54.71-.75.15-.08.49,0,.75,0s.15-.24.79-.16c1.08.25.18.29.14.38s0,.3-.1.38.21.12.21.12a5,5,0,0,1-.5,0c0,.05.21.19.18.25s-.32.15.14.38c-.7-.12-.83-.33-1.18-.22.08.08.31,0,.71.13a1.6,1.6,0,0,0,.87.42c-.48.25-.27.51-.92.66a2.49,2.49,0,0,0,1.33.57c-.23.07-.38.17-.34.34l-.95-.16C499.13,275.54,499.27,275.64,499.89,275.72Zm-.29-1.61a1.32,1.32,0,0,0-.5,0c1.1.19.48,0,.54-.17-.42,0-1.18-.19-1.44-.16A12.21,12.21,0,0,1,499.6,274.11Zm-.56.21c.15-.11-.6-.22-.65-.33.24,0,.32,0,0-.09.21.2-.9-.08-.76.09C498.54,274.1,498.29,274.21,499,274.32Zm-.55.21a1.76,1.76,0,0,0,1-.09c-.65-.15-.62,0-1.19-.16C498.18,274.37,498.72,274.45,498.49,274.53Zm-1.92,1.59a1.22,1.22,0,0,1-.48,0c.1.12.14.25.89.36C497.06,276.33,497,276.22,496.57,276.12Zm1.06-1.16c-.22-.18.69-.32.09-.34C497.5,274.64,497.14,275,497.63,275Zm1.62.4c1.41.2.21-.41-.58-.58C498.34,275,499.7,275.16,499.25,275.36Zm12.83-14.83c-.23.07.91.35.6.4a11.08,11.08,0,0,0-1.55-.62A2.17,2.17,0,0,1,512.08,260.53Zm-11.16,21.1c-1-.16.08-.2-.15-.4C501.24,281.18,500.87,281.52,500.92,281.63Zm1.66-7.55c.3.22-.67,0-.53.12-.73-.19.38-.14-.17-.29C502.17,273.82,501.92,274,502.58,274.08Zm-2.21-.09c-.53-.07-.31-.14-.68-.21.28-.08.29-.13.08-.29C500.86,273.75,500.12,273.75,500.37,274Zm4.72,1.75,0,.15a6.17,6.17,0,0,0-.7-.15l0,.07a.82.82,0,0,0,.47.08c.7.17-.21.13-.29.16.42.08.51,0,1,.12-.84,0-.67.11-.59.32-.55-.11-.09-.21-.9-.32a2.64,2.64,0,0,1,.51,0A3.62,3.62,0,0,0,504,276c0-.09.27-.13.1-.35A5.57,5.57,0,0,1,505.09,275.74Zm23.35-41.14c.6.39.61.57.27.41S528.35,234.65,528.44,234.6ZM503,275.09c0,.17-1.05.13.14.41.21.19-.62,0-.54.16-.23.13.81.35.14.36-.45-.11-.57-.27-.62-.44S501.92,274.94,503,275.09Zm-.21-.12c-1.87-.35-.05-.37-.8-.69,1,.23.29.08.73.05C503.9,274.67,502,274.61,502.83,275Zm-2.22,0c0,.08.25.14.19.21-.95-.09,0-.19-.67-.29.27-.16.64-.28.65-.53C501.45,274.36,500.66,274.82,500.61,274.93Zm18,8.43a27.21,27.21,0,0,1-3-.63c-.1,0,0-.13-.19-.2s-.86-.31-.4-.38a4.42,4.42,0,0,0-.67-.27c.34-.49-.29-.92.3-1.19a1.7,1.7,0,0,1,.45.17c.75.07.33-.06.28-.15.75.07,1.32,0,1-.15a4.27,4.27,0,0,0-1.51.12c-.55-.22.25-.24-.12-.46.79.17.83,0,.93.2.33,0,.55-.1.29-.18a15.8,15.8,0,0,1-1.69-.13l0-.18c.26.28,1.56.18,1,0-.36-.05-.11.07-.27.08-.45,0,0-.21-.4-.36a2.78,2.78,0,0,1,.73,0c-.55-.19.46-.21.81-.28.32.23.39.47,1.79.7-.06,0-.47,0-.49,0s.52,0,1,.14c-.21.1.25.2.17.31-.72-.07-.4-.14-.44-.21-1.1-.19-.59.17-.07.28.09.13-.75,0-.53.14l.69.21c.53.07,0-.11,0-.11s.48,0,.51,0-.37-.21.07-.27a6.31,6.31,0,0,1,.47,1,22.66,22.66,0,0,0-2.38-.32c-.2.09.39.16.19.24.19.13.46,0,1.2.12l-.05.18c1.09.12.94,0,.78-.15.91.2.49.42.82.63-.19,0-.38-.08-.71-.12,0,.08.35.15.44.23a1.77,1.77,0,0,0,.49,0c.71.24.56.49.8.73a1.38,1.38,0,0,0-.73-.05c-.19.05.84.24.94.18.52.06.06.15.18.23C520.55,283.46,519.3,283.33,518.63,283.36Zm-2-2.81c.76.11,1.11-.12.31-.25C516.56,280.35,517,280.46,516.64,280.55Zm.08.67a6.51,6.51,0,0,1,1.93.15c.3-.15-1.41-.24-1.4-.3.6,0,.78-.23-.4-.38-.3.08.35.14.44.21C517,281,515.85,281,516.72,281.22Zm1.24.92c.44-.09,0-.18-.18-.27s.33-.19-.43-.24c-.5-.05-.1.15-.52.12C518,281.94,517.34,282,518,282.14Zm-1.41-.25c-.63-.09-.63,0-.75.06C516.58,282.08,516.59,282,516.55,281.89Zm1.84.48c.06-.08-.34-.15-.68-.22-.09,0-.35,0-.27.11Zm.69.19c-.17,0-1.63-.29-1.44-.13C517.63,282.48,519.39,282.71,519.08,282.56Zm.83.6s.3.06.25,0c-.78-.1-1.16-.09-1.23,0C519.69,283.27,519.28,283.07,519.91,283.16Zm-9-19.88c.31,0,0-.32.81-.09.1.21-.47.09-.38.3C511.09,263.41,511.21,263.37,510.9,263.28Zm1,.17c.55,0,.94.46.37.35S512.68,263.73,511.87,263.45Zm-.05,1.34c-.48-.16-1.52-.8-.27-.57-.16-.13-.33-.25-.37-.36.2.05.21.08.21.1.2.07.23.05.25,0,1,.41-1.22.18.49.67C512.28,264.83,511.77,264.67,511.82,264.79Zm-.29-1.77c.27-.12-.58-.39-.3-.51,1,.3.45.4,1,.64a3.35,3.35,0,0,1-1.42-.31c-.72-.21.65.36-.07.15-.89-.27-.6-.37-.35-.4A6.79,6.79,0,0,1,511.53,263Zm-1.8.59c.33-.18.13-.35.48-.53,1,.34,1.28.58,1.23.78-.93-.21,0-.19-.63-.36C510,263.39,511,263.89,509.73,263.61Zm-2.49,8.24c.41.08.59.19.71.15.69.2-.23.13-.76,0Zm3.63-9.74c.14.15-.47.06-.15.37-.54-.18-.06-.22-.86-.43C510.12,262,510,261.84,510.87,262.11Zm3.13-.63c.5.2.58.61-.21.47s0-.08.05-.11S513.68,261.49,514,261.48Zm-4.21,2.6c0,.25,1.47.45,1.28.66-.63-.21-.76-.35-1.57-.57.07-.16-.47-.51.62-.24C509.89,264,510.7,264.44,509.79,264.08Zm4.38-1.81c.49.25,0,.35,0,.54C513.81,262.5,513.79,262.31,514.17,262.27Zm-2.23-.25c-.45,0,.06.15-.32.15-.46-.15-.16-.2-.62-.36A4.73,4.73,0,0,1,511.94,262Zm-.27-1.16c.59.2.77.19.75.07,1,.42-.26.25.26.58a4.07,4.07,0,0,0-1-.18c.1.16.5.12.91.29-.19,0-.28,0-.29.07-.44-.1-.72-.35-.91-.29-.32-.11-.71-.43-.14-.29,0-.07-.61-.25-.39-.29.49.14.41.19.4.25.37.13.41.09.71.19-.32-.26-1.27-.61-1.21-.81,1,.43.45.09.3-.07.41.13.46.2.9.33C512.11,260.88,511.55,260.69,511.67,260.86Zm2.84,2.45c-.52-.06-.13.21-.15.36s-.26,0-.29.07.22.15.17.21a2.05,2.05,0,0,0-.42,1c-1.27-.38-.32-.37-.32-.46s-.56-.35-.13-.32a1,1,0,0,0-.46-.14c-.56-.21.25-.1.75.06-.16-.39.32-.5-.14-.89A2.46,2.46,0,0,1,514.51,263.31Zm-6.91,9c.64,0,.77.39.37.4C507.3,272.54,508.28,272.45,507.6,272.3Zm-6-.72c.1-.07.67,0,.55-.15.94.17-.34.22-.32.19s.17.25.14.37-.35.17-.11.33c-.41-.07-.56,0-.52.07-.64-.26.32-.25.39-.44S501.43,271.66,501.57,271.58Zm4.58.54c-.73-.12-.24-.19-1.15-.32,0-.06.21-.06.51,0S506.45,272,506.15,272.12Zm-.64-.34c.08-.1-1.55-.27-1.14-.36.6.07.94.32,1.18.25C506.09,271.79,506.06,271.88,505.51,271.78Zm-3.81-.61c0,.14-.81,0-.31.2C501.11,271.45,500.35,270.8,501.7,271.17Zm13.14-3.63c0,.17-.36.06-.1.25-1.31-.34.34-.14-1.09-.48C513.46,267.12,514.39,267.44,514.84,267.54Zm-1,4.06c.69.36-.24.43-.22.65s.79.45.35.47c-.66-.13-.31-.22-.4-.32s-.37-.22-.4-.28.24,0,.25,0-.5-.26.3-.13C513.41,271.69,513.41,271.7,513.86,271.6Zm-10.94.46c-.34-.1-.3-.2-.41-.29C503.33,271.9,503.31,272.08,502.92,272.06Zm3.17,1a3.83,3.83,0,0,0-.79.1c-1.74-.46-.71-.65-.7-.93a3,3,0,0,0-.69-.18c.92.07,0-.22-.12-.41s.67,0,.77-.05c.56.25-.38.22.09.48s1.14.3,1.12.43a5.39,5.39,0,0,1-.7-.18C505.38,272.67,504.16,272.73,506.09,273.1Zm5.4.35c1,.24.93.37.59.47.46.13.82.49-.33.25C511.78,274,511.23,273.54,511.49,273.45Zm27.27-54.74c.18.44-.27.46-.22.82C538.25,219,538.45,218.74,538.76,218.71Zm-40.37,34.44c.74.29.26.27.12.33C497.77,253.19,498.25,253.21,498.39,253.15Zm1,.69.17-.37C500.16,253.66,500.2,254.14,499.39,253.84Zm-2.24-.84c-.7-.27-.25-.21-.14-.29C497.59,252.92,497.48,253.06,497.15,253Zm3.65-1.6c-.49-.21,0-.23-.08-.36C501.55,251.39,500.8,251.26,500.8,251.4Zm-5.73,1c.2.42-.32.41-.3.69-.84-.36-.13.17-1-.19.35,0,.18-.25.4-.31,0,0,.41.16.45.16.21,0-.06-.22.1-.21-.17-.13-.35-.11-.89-.36.79.15.1-.23.63-.23,0-.06-.22-.1-.23-.08-.68-.28.31,0,.3-.09.51.16.45.46.85.45.51.27-.45.09-1-.19C494.67,252.13,494.45,252.19,495.07,252.37Zm4.39,2.48c-.81-.31-.18-.4-.25-.6C500.15,254.67,499,254.5,499.46,254.85ZM498,249.56a2.33,2.33,0,0,0,1,.22,5.66,5.66,0,0,0-.63-.34c.12-.07.43,0,.36-.2.52.32.7.29,1.06.56-.41,0-.26-.11-.89-.35,0,.19,1,.54.49.63-1.24-.49-.66-.16-.8,0-1-.37-1-.58-1-.76C498,249.44,498,249.5,498,249.56Zm-1.87,4c.43.21-.38.14-.17.38C495.22,253.69,495.92,253.62,496.11,253.56Zm-3-1.52c-.49-.16,0-.19-.13-.29C493.87,252.07,493.53,252.11,493.12,252Zm4.8-3.43c-.25-.18-.7-.41-.55-.51C498.05,248.36,497.86,248.46,497.92,248.61Zm.8-1.07c-.14,0-.27,0-.29,0-.25-.19-.7-.41-.54-.52C498.33,247.26,498.27,247.35,498.72,247.54Zm.67,7.48a5.91,5.91,0,0,1-.8,1.19c-.39,0-.14-.22-.12-.32.08-.32.39-.77.5-1.11C499.36,254.89,499.38,255,499.39,255Zm-.47-9.43c0-.2.63.08,1.17.35C500.11,246.09,499.33,245.72,498.92,245.59Zm-1.65-3c0-.14.18-.14.75.12C498,242.88,497.84,242.88,497.27,242.62Zm-.65,1.71c-.28-.41.1-.64.67-.73.17-.09-.63-.39-.31-.44.17.08.2.13.42.23.35-.12-.11-.43-.2-.65,1.06.53,1.12.36,1.44.37,1,.56-.2.38-.69.26.82.39,1.56.94,1.14.9-.61-.24-.12-.24-.57-.45-.7-.25,0,.18.13.26-.23-.05.18.31-.13.25l-.44-.19c-.05,0,.31.24.35.35s-.24,0-.26,0,.45.32-.11.2c-.1,0-.17,0-.27,0C497.48,244.6,496.69,244.1,496.62,244.33Zm.75.11c-.08-.26,1.35.18-.26-.51C497.11,244.08,496.69,244.14,497.37,244.44Zm3.83,5.63c.75.32.24.33.08.37C500.79,250.23,501.29,250.21,501.2,250.07Zm-1.08-.51c.47.28-.09.37,0,.57C499.63,249.85,500.19,249.76,500.12,249.56Zm4-4.94c-.69-.4-.05-.22-.05-.41C504.48,244.28,504.06,244.51,504.08,244.62Zm-.73,1.33c-.32-.31,0-.43.08-.64s.53-.78.48-.38S503.43,245.63,503.35,246Zm14.81-8.29c1,.45-.18.26.15.61-.43-.34-.7-.68,0-.39C518.35,237.85,518.4,237.81,518.16,237.66Zm1-.13c-.23,0-.46.07-.49.27C518.22,237.43,518.24,237,519.14,237.53Zm1.83.74c.09-.07.7.4.82.48s-.4-.09-.53-.08C520.73,238.32,521.84,238.79,521,238.27Zm-22.76,18.19c.37.26.11.6-.26.63C497.44,256.7,498.17,256.6,498.21,256.46Zm1.11-13.1c-1.91-.85-1.71-1.19-.77-1.09,0-.1-.38-.18-.46-.16-.62-.42.46-.13.64-.17,0-.05-.26-.14-.22-.1-.21-.22-.05-.48.47-.35-.3-.21.06-.27-.77-.61.73.13.5-.2.55-.46.34,0,1.16.41,1.24.26-.39-.3-.59,0-1.36-.53,0-.11.12-.1.51.08,0-.33.63-.51.29-.94q0-.16.72.18c-.75-.43-.63-.66-.15-.68-.54-.32-.28-.42-.46-.64.47.2.38.26.36.33.7.2-.15-.4.43-.26,0-.06-.2-.13-.21-.1-.79-.44.19,0,.29,0a1.16,1.16,0,0,1,.12-.2c.07-.05,0-.16.11-.2a2,2,0,0,1,.51.09s-.49-.37-.55-.48.27.05.28,0-.21-.16-.16-.19.66,0,.43-.25c0,0-.29-.07-.31,0-.2-.33.4-.28.58-.42s-.15-.24-.09-.3.32,0,.31-.05-.31-.17-.4-.26.32-.1.18-.27c.37.2.44.31.33.37.42,0,.75.46,1.3.62,0-.05-.19-.15-.16-.19-.06-.19-.48-.19-.86-.44s.14,0,.11-.15-.35-.34-.35-.34.78.17-.11-.27c-.06-.14.44.16.5.11s-.12-.16-.38-.3c.54.05.79,0,.31-.48.3,0,.7.13.84,0-.35-.21-.42-.18-.48-.15-.28-.24.17-.1,0-.39,0-.08-.7-.4-.8-.53.39,0-.41-.44-.48-.57s.18-.08.13-.2c-.21-.49.47-.87.82-1.27.07-.08-.4-.53.4-.16.17,0-.36-.27-.34-.34.45-.38.34-.89,1.18-.85.48.46-.49.15-.12.58.71.47.53.1.58,0s.29,0,.29,0-.41-.42-.28-.43c.61.06.89-.13.2-.7.52-.18.08-.83,1-.6-.61-.67.27-.75.65-.92-.81-.6.07-.5.26-.77s-.11-.64,0-.81a6.63,6.63,0,0,0,.51-.67c.13-.22.83-.09.23-.69.72.31.15-.17.23-.3s.24.06.28,0c.21-.18,0-.69.14-1s.44-.1.49-.24-.24-.38-.23-.49.37,0,.4-.13-.34-.6.1-.5c0,0-.22-.19-.37-.3.2,0,.43,0,.44-.16.54.19,1.31.61,1.33.27.65.33.83.79,1.9,1.45.57.32.15-.18.2-.24-.12-.18-.3-.2-.76-.58,0-.23.82.44.94.36.32,0-.41-.43-.22-.48.35.25.45.24.82.51.26,0-.18-.34,0-.38a5,5,0,0,1,.56.44c0-.22-.16-.49.46-.18,0,0-.22-.18-.19-.14-.16-.26.08-.47.54-.28-.09-.17-.56-.43-.11-.24a1.88,1.88,0,0,0-.61-.76c.23.08.7.42.88.45-.08-.11-.16-.21-.11-.25-.46-.33-.63-.35-1.21-.79.07-.1.18.06.42.24s-.24-.32,0-.32,1.76,1,.6,0c-.25-.16-.34-.07-.09.11-.24-.08-.86-.55-1.23-.76,0-.17-.15-.37,0-.43.43.33-.19.18.44.6.57.2.34-.4-.2-.88.31,0,.13-.45,1.06.25.32,0-.4-.45-.2-.49s.19.17.13.21c.63.43,1,.36,1.64,1,.32.16.45,0,.22-.24a.78.78,0,0,0-.54-.11c-.24-.27-1.16-.76-1.07-1s.24.24.77.56c.07-.13-.52-.62.18-.2,0-.2-.44-.27-.77-.57.4.19.35-.12.5-.2.35.15.76.66,1,.65.06,0-.07-.2-.3-.39s-.15,0-.47-.18c-.68-.45-.21-.33-.23-.46-.76-.52-.27,0-.41.1-1-.81,0-.42,0-.7.25.2.25.28.52.5-.16-.49.76.2,1.24.41,0-.06-.17-.18-.13-.21-.66-.41-1.1-.58-1.89-1.13a2.61,2.61,0,0,1,1.09.58c.18,0-.12-.32-.42-.6a3.66,3.66,0,0,1,.83.51c0-.19-.4-.37,0-.35a.59.59,0,0,1,.5.15c0-.23-.58-.42-.89-.79l-.09.1c-.34-.31.09-.35.76.23,0-.27.43,0,.5-.19-.46-.22-.73,0-1.39-.61,0-.12.64.36.72.27s-.16-.18-.13-.22c-.33-.26-.44-.26-.79-.55-.15,0,0,.2.07.29-.55-.32-.18-.5.25-.28s.36.35.73.62c-.22-.39,0-.59.75-.11a3.42,3.42,0,0,0-1-.67c-.37-.61,1.38.47.92-.28-.05-.21.68.47.53.13.27,0-.42-.45-.43-.58.54.15.29-.23.92.09-.09-.14-.4-.38-.28-.4-.14-.19-.59-.55-.65-.7-.27-.15-.42-.28-.34-.34.56.44,1,1,1.34,1,0-.12-.37-.21-.75-.6.24,0-.18-.51-.08-.6s.85.31.92.09c.15,0-.87-.68-.47-.56,0-.17.25.17.41.27s.18-.05.65.36c-.09-.32-.59-.57-1-1,.34.11.51-.06.36-.36a3.32,3.32,0,0,1,.89.8c.45.27.18-.22.14-.49.61.56.84.66,1,1,.26.2.23,0,.31,0s-.77-.66-1.07-.95c.1-.09-.59-.63-.36-.66,0-.07-.31-.31-.52-.5.47,0,.4-.42.78-.44,0,0-.2-.21-.33-.34.22-.06.13-.34.34-.32,0,0,.32.29.36.31s0-.23.17-.16c0-.08-.34-.34-.3-.38-.54-.55-.25,0-.79-.56-.36-.59,1.15.84.64.05.3.25.28.3.51.51s-.35-.65.23-.23c0-.06-.3-.31-.51-.5.51.06.38-.28.34-.65.25.24,0,.15.25.42.64.47-.35-1-.4-.61-.39-.37.1-.22.06-.39a7.81,7.81,0,0,0,.75.61c0-.07-.16-.18-.18-.16-.55-.64.92.21,0-.68,0-.18.63.42.56.13-.36-.36-.39-.26-.46-.22-.35-.39.22-.17.42-.07,0-.1-.66-.51-.43-.58,0-.14.32.17.6.42.24,0-.21-.59-.19-.81,0,0,.21.11.25.1s-.12-.22-.11-.23.31-.15.38-.35.16-.17.24-.22-.3-.58.24-.21c.11.08.38.2.31,0l-.32-.36s1.06.54.11-.41c.09-.16.09-.3.23-.53a.75.75,0,0,0,0-.28c.07,0,.39.28.45.24s-.49-.63.17-.15l-.42-.58a2.92,2.92,0,0,0,.68-1.86,4.93,4.93,0,0,1,.59.44c-.57-1.09-.16-1.28-.12-1.78.13,0-.66-.66-.4-.6a3.22,3.22,0,0,0,1,.75c-.52-.53-.42-.25-.93-.78.05-.09.11-.15.5.2a4.5,4.5,0,0,0-.64-.71c.07-.31.3-.24.52-.44a25.66,25.66,0,0,0,1.83,1.89c.14,0-.19-.28-.46-.55a7.49,7.49,0,0,1,1.16.89c-.2-.45.6.06,0-.63,0-.15.37.27.44.25s-.33-.35-.29-.38c0-.22.37.15.38,0,.38.32.71.57.67.36-.52-.6-.44,0-.58-.44,0-.12.12-.08.11-.1s-.25-.38-.24-.42.25.11.29.06c.2-.22.14-.77.45-.7a3.81,3.81,0,0,0-.51-.51c.45.18.45-.23-.05-.9,0-.13.27.08.31,0s-.28-.37-.27-.39.36.26.41.27-.06-.25-.06-.27-.17-.29,0-.29c-.26-.21-.22-.08-.29-.07-.39-.24,0-.26,0-.36.4.45.65.43.88.81.51.41-.43-.46,0-.27-.38-.39-.75-.53-.73-.63s.27.25.6.43c.12,0-.41-.41-.5-.52s.36.08-.26-.4c0-.2.32-.11.51-.14a10.73,10.73,0,0,1,1.1.93c.38.15.62-.07.44-.4a2.37,2.37,0,0,0-.35-.33c-.07-.38.88,0,.3-.61.26,0,.75.16-.13-.53.25.11-.07-.23,0-.3s.32.08.31,0-.29-.31-.32-.35c-.15-.26.07-.26.07-.4s.23-.15.09-.42-.44-.49-.42-.58.24-.05,0-.33c.59.43.74.48,1.2.8-.21,0,.72.56.71.64.55.35-.22-.25.1-.12a11.85,11.85,0,0,0,2.2,1.47c.07,0-.33-.3-.34-.33s.25-.07.21-.23-.51-.52,0-.32c-.68-.5-.3-.58-.49-.89-.06-.1-.42-.35-.53-.47-.28-.34.32-.13.48-.19.79.47.89.44,1.5.78.4.06,1.77.81,2.28.93a2.22,2.22,0,0,0,1.11.51,16.48,16.48,0,0,0,2.38,1.19c-.1,0,.16.15.14.2.3.15.23,0,.3,0,.48.36.66.38,1,.66s.41.2.46.17c.11.12.56.34.8.52,0,0-.11,0,0,.07.31.21,1,.51,1,.61s-.32-.13-.26,0a4.84,4.84,0,0,0,1,.71c-.25,0,.22.31,0,.36,0,.06.36.24.6.39-.91-.29-1,.12-2.09-.39l-.2.25c1.22.78,1.75.94,2.76,1.51,0,.34,1.27.75,1.78,1.21l-.11.15c.48.3.65.31,1.25.72a4.63,4.63,0,0,0-.52.29,2.3,2.3,0,0,0-.92-.37c0,.16.55.35.55.46l-.12.15L545,204c.11.29-.8-.16,0,.42.31.2-.21-.47.74.22-.3.37-.6.75-.92,1.11,0,.09.3.3.3.38.46.33.63.35,1.2.8.06.32.56.66.08.65.55.46.41.17.51.13.27,0,.2.25.1.26-.43.1-.09,1.07-1.25.32.27.32.68.72.31.72-.26-.21,0-.15-.28-.39-.16-.12-.22-.11-.41-.26,0,.17.1.36.59.76,0,.39-.89,0-.58.63-.4-.62-.58-.21-.17.17-.2.22-.55.37-.62.64-.2.73-1.6.67-1.1,1.74-.19-.06-.33-.28-.54-.47,0,.06-.1,0-.25-.1-.07.1.26.37.2.48s-.52-.2-.56-.13.35.46.2.47-.26,0-.64-.39c.14.25.68.76.3.69-.18-.18-.05-.16-.29-.38s-.12.14-.4,0c0,0-.43-.26-.43-.26-.4.07-.19.75-.47.76a4.43,4.43,0,0,0,.46.55c-.77-.48-.51.17-.53.47l-.52-.49c.06.19-.08.25.33.66-.28-.07-.44-.47-.67-.68-.14.08.19.45.29.69-.31,0-.42.22-.1.73-.14,0-.35-.17-.49-.21.32,1.13.07,1.88-.82,2a5.41,5.41,0,0,0,.29.69c-.24,0-.6-.16-.73,0l-.69-.66c.17.38.73,1.26-.07.69-.43-.48.17-.14.22-.19-.07-.21-.7-.8-.5-.83-.25-.2-.39-.25-.48-.22a15.25,15.25,0,0,0-1.29-1.41c-.63-.81,0-.5-.24-1.05.13,0,.2-.06.64.39,0-.13-.17-.31-.21-.44-.32-.29-.46-.33-.48-.22-.32-.44.16-.39.38-.33a4.39,4.39,0,0,0,.91.8c0-.12-.55-.72,0-.34a1.15,1.15,0,0,1-.31-.35c-.55-.51,0,.48-.75-.31.14-.12.23-.3.56-.16,0-.24-.6-.58-.8-.88-.13.05.23.54-.26.22a3.81,3.81,0,0,1-.63-.72,2.36,2.36,0,0,0-.62-.41c.2.4.54.4.9.8-.15,0,.19.28.46.55,0,.2-.29-.07-.37,0-.22-.24-.06-.21,0-.28-.83-.69-.07.24.12.52-.11.12-.58-.27-.92-.47.05.16.87.85.57.78a7.18,7.18,0,0,1-1-.75c.12.2.54.6.59.75-.18.37-.77.53-1.08.93-.13,0,.46.51.42.58.26.2.39.25.48.22a9.28,9.28,0,0,0,1.63,1.43l-.07.06-.06.05c-.48-.54-1-1-1.14-.91.51.53.32.11.93.78-.61-.36-.43,0-.14.43.41.29.08-.14.19-.16s.7.32,1,.42c.18.25.81,1,1,1a6.65,6.65,0,0,0,.59,1.07c0,.19-.41-.28-.47-.22-.25-.08,0,.26-.08.37s-.24-.12-.26-.08.06.39-.11.4c-.34,0-.57.49-.76.67s-.63-.31,0,.32c0,.19-.41-.27-.47-.22s.08.18.29.38-.62-.5-.65-.38c-.24,0,.27.55-.24.21,0,.06.3.32.51.51-.44-.23-.65-.18-.74,0,.1.14.28.33.47.54a4.29,4.29,0,0,0-1.48,1.68c0,.12.15.39.13.53,0,.3-.56.18-.34.63.3,0,.6.34.49.52a2.54,2.54,0,0,0-.81.8c0,.06-.24-.11-.27-.07s.1.31,0,.35-.3,0-.32,0,.43.56.12.56a2.85,2.85,0,0,1-.46-.22c0,.06.4.48.42.59s-.25-.11-.27-.07.22.43.15.52-.51.26-.47.47c0,.06.47.41.29.38-.31-.24-.29-.28-.53-.48-.08,0,.17.24.07.26a1.21,1.21,0,0,0,.41.27c.51.43-.08.1-.43-.24.19.27.13.28,0,.31s.22.45.18.49-.31-.06-.35,0-.1.59-.31.69.22.44.17.52-.19-.06-.27-.06.07.34,0,.37-.43-.15-.52-.15-.33,0-.35,0,.31.36.31.37-.22-.08-.28-.06.14.21.09.26-.33,0-.35,0,.53.9-.24.6a.62.62,0,0,1,.22.82s-.31-.06-.33,0c-.16.4.12,1.12-.4,1.18-.11,0-.68-.3-.35,0,.24.16.22.06.28,0,.29.31.14.63-.67.05.48.37.16.22.24.45s.56.58.17.53c-.44-.27-.35-.3-.32-.36-.2-.11-.79-.43-.57-.43-.61-.39.13.19-.1.11a7.33,7.33,0,0,0-.77-.57c-.23,0,.21.27.07.28-.77-.58-1.06-.57-.72-.25.7.42.89.34,1.74.9.26.25.24.37.66.69-.28-.12-.79-.47-1.07-.59,0,.11.89.72.82.51.61.58-.59-.1-1.17-.46a4.71,4.71,0,0,0,1.27,1.08s-.11.06.12.23c-.44-.21-.44,0-1.17-.47,0-.11.06-.19.7.28l.12-.14c-.74-.54-.35,0-1.09-.55-.14-.25,0-.15.32,0-.67-.44-.69-.26-1.32-.65-.11.07.59.6,0,.34-.92-.62-1.3-1.21-1.84-1.52-.32-.33.32,0,0-.41.35.32.26.17.8.54.19-.09-1.3-1-1-1,.06-.09.18.06.42.24.17,0-.34-.31-.32-.37-.12-.3.65.26.61,0-.21-.3-.54-.27-1-.65.36.22.11-.16.53.12,0-.11-.56-.33-.65-.35-.26-.3.38-.08-.13-.58-.72-.41.25.34,0,.32-.47-.3-.64-.22-1-.62-.36,0,.44.5.18.53s-.51-.31-.33,0c.09.15.27.33.27.42a2.45,2.45,0,0,0-.79-.18c.13.25.14-.05.63.37s-.68.16,0,.71c-.31-.13-.61-.25-.58,0-1-.77.58.11,0-.39-.86-.4-1.51-.6-2.32-.95a2.11,2.11,0,0,0,1.34.64c.71.49-.16.28,1,1,0,.06-.21,0-.48-.18.48.4.23.48.12.62-.41-.28.06-.17-.5-.52a5.26,5.26,0,0,0-.78-.17c0,.1.62.5,1.15.85-.18,0,.07.4-.4.13-1-.61.37,0-.25-.46-1-.5.08.33-.43.16.36.24.46.24.83.49l-.23.29c-.52-.18.3-.15-.45-.58-.53-.23.1.41-.08.48.8.26.18.39.18.55-.41-.12,0-.26,0-.35-.91-.51-.41.12-.26.32-.61-.26-1.12-.22-.53.29.5.25.25-.17.45-.19.45.27,0,.17.08.29-.08.12-.31.18.18.54-.72-.17-.48.18-.84.3,0,.07.39.27.36.32s-.37-.07-.9-.41c.49.62-.69.1-.43.55-.47-.19-.39-.26-.79-.53,0,.09-.24-.06-.29,0a1.82,1.82,0,0,0,.62.37c.73.58.18.45.35.74a2.2,2.2,0,0,0,.64.33c.34.32-.31.08,0,.42a3.44,3.44,0,0,0-1.29-.67c-.6-.39.25,0,.1-.13q-.68-.42-.69-.27c.07.25,1.08.62,1.39.93-.51-.09-.48-.06-.68.12l-.62-.37c-.12.17.59.66.33.77a1.08,1.08,0,0,0-.67-.29c-.27-.13-.85-.53-.87-.42.41.4.7.23,1.49.78,0,.21-.85-.36-.79-.13a.79.79,0,0,0,.44.21c.5.39-.3,0-.38.11s.25.4.23.51-.44,0-.17.24c-.35-.19-.34-.24-.6-.39-.14.06.57.51.06.32s-.16-.23-.55-.46c-.32,0,.44.39.27.44a11.85,11.85,0,0,1,1.35.58c-.13,0,0,.19-.1.13s-.27-.23-.39-.27a2.39,2.39,0,0,0-1.29-.25c.12.19.54.16.83.47-.17,0-.43,0-.61,0l-.63-.35c-.33-.08,0,.12-.1.13s-.83-.28.07.33c.25,0,.88.18.86.43.52.21.26-.22.48-.26.73.39.28.37.25.47s-.19.21-.22.3l-1-.58c-.12.14.29.42,1,.72l-.14.21c-.26-.17-.28-.25-.58-.42,0,.22-.52,0-.46.27-.17-.1-.19-.15-.4-.27-.42.14-.24.44-.65.55.73.43.93.68.64.76.84.43-.11-.32.61-.05.44.32-.1.3,0,.49-.37-.18-.39-.24-.38-.29-.3,0-.79-.42-1.11-.49s.58.24.59.4-1-.42-.8-.09c0,.08.83.36,1,.59-.59-.19.22.51-.56,0,.28.37.19.54-.11.59,1,.58.63.13.8.09.81.46,0,.21,0,.35s.47.4.29.43c-.73-.33-.67-.41-.55-.47-.47-.23-.51-.15-.54,0a4.05,4.05,0,0,0-1.09-.51c.07.1,1,.43,1,.62.52.31.85.23,1.09.51,0,.09-.18,0-.45-.19.1.29-.07.27-.27.42-1.08-.54.43,0-.53-.5-.64-.23-.21,0-.56,0-.06.08.7.36.64.33.72.4-.24,0,.79.53-.22.06.41.5-.2.31.66.43,0,.54,0,.88,0,.19.2.31-.39.17,0,.07.41.24.39.28-.47.36.12,1-.66,1.08,0,.07.41.23.39.28s-.44-.11-.33.07a3.49,3.49,0,0,1-1-.61c.44.12,1.15.28.63-.12s-.15.1-.56,0c-.1,0-.62-.26-.68-.27-.23,0-.17.1-.34.11.67.37.23,0,.91.34.27.19.57.61,1,.61.29.16.34.56-.39.18.67.53-.05.54-.23.83A2.42,2.42,0,0,0,514,249c.1.17-.48-.12-.52-.05.17.17-.11.16-.1.18s.73.39.34.37c-.77-.25-.4-.25-.6-.4s-.57-.31-.62-.36.74.08-.12-.28c-.38-.15.13.12-.06.11s-1.11-.46-.74-.14c.52.24,0-.22.72.18.17.29-.72.16-.74.35.79.34.3-.16.82,0a9.76,9.76,0,0,1,1.28.65c.19.52-.46.6-1,.73.56.5.56.8.06.87.82.37,1.1.41,1.19.32.51.23.13.24.56.45.84.35.07-.09.08-.14s.39-.13.44-.29-.43-.21-.4-.25c-.06-.19.35-.07.58-.06-.08-.13-.37-.11-.65-.32.57,0-.06-.66.64-.64.7.42.67.05,1.43.37.12-.06-1.25-.51-.82-.49-.26-.11-.22,0-.28,0-.24,0-.25-.19-.16-.21.28,0,.76.18.8,0-.64-.33-.43-.09-.52,0-.73-.33-.12-.19-.12-.28s-.18-.53.1-.65c.47.19.38.23.38.3,1.07.4,0-.22-.3-.44.21-.26,1.22.17,1.2-.15-.81-.41-.38,0-.58,0-.91-.75.42-.57.28-.92a4,4,0,0,0-.39-.27c0-.06.44.21.44.21s-.35-.35-.31-.41.82.17.82,0a2.63,2.63,0,0,0-.63-.34c.44-.2-.24-.9.72-.72,0,0-.26-.14-.22-.1-.31-.3,0-.59.53-.41a2.53,2.53,0,0,0-.52-.52,3.25,3.25,0,0,1,1.68-.41c1,.45,1.38.51,2.22,1-.06-.41.28-.41.46-.68a4.62,4.62,0,0,0-.59-.39c0-.11.11-.11.32-.06,0-.11-.6-.26-.68-.26-.36,0,.76.64,0,.4-.39-.29-.52-.49-.44-.62a1.48,1.48,0,0,0-.47-.16c-.37-.22,0-.08.05-.07a2.73,2.73,0,0,1,.89.38c.06,0,0-.11.09-.13a2.29,2.29,0,0,1,.49.13c0-.07-.64-.42-.32-.39.8.41.64.09,1.41.48-.19-.24-.84-.38-1-.6,0-.15.37,0,.7.24-.6-.42.7.05-.48-.56-.76-.37.54.49-.11.16s-.24-.32-.29-.42-.35-.3-.36-.33c-.07-.27.08-.55.78-.29-.26-.26.3-.15.24-.36a2.42,2.42,0,0,0-.5-.54c-.69-.18.11.41-.27.39-.69-.46-.48-.53-.43-.64s.59,0,.49-.28c.69.35.37.33.77.57-.13-.21-.54-.52-.65-.73.67.28.26,0,.62,0-.54-.32.07.29-.72-.22,0-.14.42-.12-.23-.5a3.86,3.86,0,0,1,1.21.37c-.15-.15-.07-.22-.76-.57-.18-.23.74.23-.12-.25.09-.12.82.29,1.19.4-.13-.19-.46-.13-1.07-.56.85.17.17-.48.66-.49-.12-.12-.46-.32-.35-.34.83.6.42.14,1.11.51-.36-.27-.46-.64-.9-.8-.66-.44.28.07.28,0-.14-.21-.59-.28-.8-.52.37-.23.32-.66.41-1,0-.06.26.08.27,0s-.38-.45-.21-.5.11-.08.51.12c0-.18.09-.33.1-.5,0-.5.36-.7,2,.1a6.81,6.81,0,0,0,1.7.93c.35.23.42.34.31.38.46.19,1.5,1,1.7.93,0,.19,1,.75,1.3,1,.15.13-.23,0,.34.34-.76,0-.83.44-1.37.56-.08,0-.45-.14-.53-.1s.16.31,0,.36-.26-.06-.29,0,.55.57-.18.24c0,.06.39.26.37.31s0,.23-.18.24a3.49,3.49,0,0,1-.48-.15s.3.25.34.33-.36,0-.36.09.28.26.33.36-.1.22-.43.19c-.12,0,.11.15.37.3-.49,0-.39.38-.52.69-.36-.12-.84-.55-1.09-.53.19.24.83.41,1,.62-.24.2-.37.24-.4.55-.25-.16-.4-.28-.35-.33-.87-.34.44.46.52.5.08.25-.52-.34-.68-.28s.26.22.58.4l-.15.22a5.17,5.17,0,0,1-.84-.47l-.06.1c.08.14.95.37.8.52s-.29-.16-.87-.43c0,.1-.39-.13-.08.13a9.41,9.41,0,0,0,1.24.72l-.15.22a5.81,5.81,0,0,0-.82-.49c.27.2-.1.17.76.58.07.27-.37.15-1.06-.15-.11,0,1,.71-.1.16.13.19.91.39.57.43a1.59,1.59,0,0,0,.47.17s.48.64-.58,0c-.07.09.72.48.51.52l-.63-.34c.35.21.28.28.55.46-.08.09-.56-.14-1-.29,1,.51.36.51.44.61s.41.13.28,0c.54.51-.46.28-.4.59a15.22,15.22,0,0,0-2.07-.77c-.23,0,.54.36.32.38.85.31.88.58,1.3.62.42.27-.24.17,1,.7.33.64-.62.81-.54,1.29-.79-.41-.27-.38-.24-.53s.21-.21,0-.42a3.61,3.61,0,0,1-1-.24c-.23.06.85.53.74.62l-.43-.21c0,.19-.41.11-.85,0,0,.06.42.23.39.27l-.13.23a7.21,7.21,0,0,1-.69-.25c-.12.11.33.15.61.37-.05.09-.33.11.55.47-.58,0-.33.47-.62.53-.43-.34.14-.38.1-.61a7.7,7.7,0,0,0-1-.61c-.11,0,0,.18.57.44-.51-.09.05.3-.24.38a3.27,3.27,0,0,0-.65-.31,2,2,0,0,1-.13,1.11c-.34-.06-.62-.36-.89-.37-.08.14,1.16.47.77.56a3,3,0,0,1-1.23-.73c-.81-.35-.46.06.56.46-.14,0,.07.19.17.17-.21.7-1.21,1.45-1,2.3,0,.06.21.11.22.09.11.15-.06.24,0,.46-.72-.28-.23-.25-.86-.41s-.22.08-.32.08c-.3,0,.05-.13-.34-.36-.34,0-.81-.05-1.1,0a8.43,8.43,0,0,1,1.84,1.1c-.17,0-.29.09-1-.2.66.46-.19.35-.15.76a7.25,7.25,0,0,1-.91-.33c-.14,0,.29.2.64.34-.3.07-.19.34-.29.55s-.84.39-1.11.59.32.42-.38.22c0,.08.36.21.39.28s-.47,0-.76-.08c.73.59-.33.62-.33,1.15-.57-.11-.39-.2-1.11-.45,0,.19,1.33.65.95.76a8.47,8.47,0,0,0-1.32-.56c-.22.07.87.48.11.33-.45-.19-.08-.22-.6-.42s.7.46.29.52c-.6-.21-.72-.32-.61-.39-.8-.21.32.27.12.3-.47-.16-.13.13-.53,0,.34.24,1.36.75,1,.73s-.82-.33-1.1-.47c0-.08.31,0,.29-.07-1.06-.4-.71,0-.58.13-.67-.22-.66-.33-1.33-.55.23.14.61.32.84.46,0,.17-.63-.07-1-.13,0-.2-.66-.92.56-.65-.08-.13-.37-.08-.66-.28.17-.13,0-.46.45-.4,0,0-.26-.13-.43-.2,0-.24.88-.1,0-.59.72.15.46-.39.09-.7a.9.9,0,0,0,.84-.07c-.85-.33-.8-.13-1.23-.21-.88-.39.1-.05.09-.18s-.79-.32-1.1-.46c-.31.15.4.51.92.82-.44.39-.25.77-.77,1-.23-.19-1.18-.51-1.26-.68-.51-.17-.1.2-.56.06.45.18.71.25.71.17.7.27.29.33.31.47a3.89,3.89,0,0,0-.92-.29c-.28.06,1.09.41.59.43a2.52,2.52,0,0,0-1.14-.37c.11.12.5.21.46.13.33.12,0,.14.4.27a3.38,3.38,0,0,1-1.4-.37c-.17.12.67.42.29.5,0,.18-1-.22-1-.05a2.53,2.53,0,0,0,1.29.63c-.12.2.25.45,1,.7.14.17-.37,0-.31.1-.5-.14-.41-.2-.41-.26a3.68,3.68,0,0,0-1.2-.24c.31.28.33.24-.12.26-.76-.2-.12-.18-.88-.38-.53-.18,0,.13.42.23-.05.13.3.32.07.42a8.64,8.64,0,0,0,1.16.35c-.29-.16-.15-.24-.11-.35,1.12.41.85.06,1.9.44-.39.36-.26,1.27-.95,1.49-1-.34-.19-.17-.15-.23a7.45,7.45,0,0,1,.51-1.12c-.48-.05-.46.18-1.29,0-.23.07.9.35.6.41.08.13-.46-.09-.51,0-.41,0,.39.25.4.27s-.23,0-.26,0,.2.14.19.15c-.1.16-.64.14-.22.49.05.09-.21,0-.5-.07.1.16.51.12.92.29,0,.11-.55-.07-.76-.07s.81.28,1.13.41c0,.34.22.72.11,1,0,.05-.46-.08-.49-.06s.13.22.13.3-.28.12.14.29c-.21,0-.18.07-.51,0,.61.39-.38.58.09,1.05-.76-.19-.44-.24-.88-.39.29-.09.32-.16.16-.38s-.88-.3-.63-.37c-.82-.11.37.37.32.49-.55-.12-.1.26-1,0a12.72,12.72,0,0,1,1.34.48c.15.17-.36,0-.31.12.68.25.45,0,.53,0,.54.22.52.44.53.58a.29.29,0,0,1-.12.3,2,2,0,0,1-.51,0c0,.05.4.18.43.21s-.59,0,.13.3c.06.08-.2,0-.49-.06-.11.1.47.27.37.36-.4-.12-.5-.21-.4-.28-.47-.11-.58,0-1-.11.05.11.08.22.86.41-.18,0-.69.06.16.26.58.12-.26-.24.11-.27.33.13.28.22.38.32.71.17.54-.08,1.25.1-.26-.26,0-.22.59-.17s-.95-.09.15.25c.29.07.26,0,0-.07.59,0,1.44.59,1.43.28,1.07.32-.63.15.56.52.27-.07.86,0,.86-.2-.15-.16-.6-.12-1.16-.33a10.26,10.26,0,0,1,1.45.25c0-.1-.39-.28.09-.22,1.13.48.07.44.43.81a2.81,2.81,0,0,0-.89-.33c-.26.08,1,.34.6.41a1.19,1.19,0,0,0,.48.09,5.26,5.26,0,0,0,1.73.8c.15.17-.41,0-.53.05s.22.3.09.42c-.5-.13-.72-.23-.65-.29-1.16-.2,0,.4-1.54,0a4.14,4.14,0,0,0,1.65.36c.51.13.06.16.17.24a7.23,7.23,0,0,0-1.65-.36c.33.29,1.37.64,1.2.87.12.14-.51-.05-.74-.07,0,0,.22.1.21.13.24.14.64,0,.91.28.08.1-.36,0-.72-.11.26.19.67.39.56.54s-.79-.09-.56.13c.27.06.22,0,.27-.05.66.28-.29.48.2.83-.25,0-1.21-.26-1.22-.14s.3.06.7.17c-.1.2-.21.4,0,.63-.67-.15-1.12-.22-1,0a2.71,2.71,0,0,1,.73.09c.25.14-.46,0-.5,0s.61.33-.08.26c-.78-.31-.11-.29-.31-.55,0-.1-.79-.26-.64-.35.85.33.31-.21.83-.15l-.66-.28a10.33,10.33,0,0,1,1.45.19c-.63-.27.61,0,.34-.23-1.36-.39-1,0-2.13-.41a7.86,7.86,0,0,1,1.93.28c.25-.1-.57-.32-.9-.3s-.12-.12.25,0c-.08-.17.34-.11.56-.14s-1-.32-.71-.14c-.7-.23.5-.05-.15-.28-.37-.1-.41-.06-.71-.14.29.14-.17.21.62.4.17.2-.74-.07-.56.14-.53-.11-.31-.16-.68-.25-.52-.12.21.12.21.13s-.53-.07-.51,0,.47.23.4.3a4.46,4.46,0,0,0,.92.27c0,.17-.7,0-1,0-.15.08.55.24.88.37-.35,0-1-.12-1.47-.16.92.3.82.52,1,.76-.84-.23-.38.07-.55.11.1.15,1.23.37.85.48a1.85,1.85,0,0,1-.43-.22c-.55-.12-.19.13-.06.18l.73.09c.73.06.3-.12,1,.11l.11-.33c.78.25,0,.25.1.45a.47.47,0,0,1-.19.58c-.71-.18-.87-.15-1.42-.28-.37.13,0,.31-.38.39a1.94,1.94,0,0,1-.89-.35c-.77,0,.78.35.85.47s-.86-.09-.77.07,1,.2.74,0c1.14.32-.41,0-.55.12.23.21.79.22,1.38.41-.16.12-1-.26-1.21-.14.56.14.15.23,1.12.4-.45,0,.16.37-.54.12.11.13-.4.23.12.38a2.39,2.39,0,0,1-.7-.15c-.25.08.75.21.9.31-.9-.12.38.18-.1.29-.48-.12-.73-.23-1.14-.35.51-.64-.48-1.15-.41-1.8a.8.8,0,0,0-.48-.06c-.12-.17-.44-.39-.34-.48s.48,0,.5,0-.17-.14-.21-.13c.14,0,.66.2.52,0,1.44.39.27.33.58.53.91,0,1.39-.11,1.62-.35a5.74,5.74,0,0,0,.69.2,5.31,5.31,0,0,0-1.86-.47c-.3.11.76.3.62.42-1.06-.26-2.1-.65-2.36-.45,0-.32-.86-1,.13-1.15-.65-.27-.28-.48-.25-.71s-.89-.25-.64-.32a15.21,15.21,0,0,1,1.67.29c-.15-.23,0-.16-.09-.43a6.54,6.54,0,0,0-.95-.19c.47.18.33.31.84.49-1.57-.14-2-.65-1.51-.74l.45.15s.07-.23-.39-.3a1.24,1.24,0,0,0-.09-1.14c-.14-.29.34-.44.25-.68s-.52-.38-.57-.53.1-.3-.55-.57c-.8-.19-.6.08-1.47-.15.38.29.13.53-.88.32.83.26,1.15.48,1.27.68.65.2.63.1,1.18.27.19.3-1.34-.22-1.89-.42-.16,0,0,.2-.34.25,0,.08.88.17,1.14.34.44.1-.71-.39.1-.27a5.56,5.56,0,0,0,.89.36c-.41.2-.09.64-.38,1-.51,0,.16-.22-.63-.37-.59-.14-.51,0-.55.12s.89.26.64.33c-.66-.27-.91-.18-.74-.06s1.05.26.21.13c-.68-.1-1-.05-.57.16a4.55,4.55,0,0,1,1.22.13c.07.15-.66-.05-.77,0s.22.1.21.14c.61.18.48,0,.74.05.53.09.18.17.19.17s.38.19.41.27-.25.37-.23.61c-.6-.25-.13-.19-.12-.36-.59-.14-.51,0-.55.12a4.31,4.31,0,0,0-1.22-.13c.36.22.64.05,1.41.3.11.26-1.45-.18-2-.17,0,.15-.32.19-.59.24,0,.08.79.21.91.3s-1.1-.08-.82.23c-1.07-.27-1-.08-2.15-.36.68,0-.17-.34-.59-.52s-.22.06-.28.11a6.65,6.65,0,0,0-.92-.26c0-.1.23-.08.74,0,.14,0-.88-.31-.2-.17.43,0,.55.08.44.19a3.75,3.75,0,0,1,1.39.36c.7.1-.37-.24-.15-.3.55.12.89.14,1.65.34,0-.12-1.17-.31-1.12-.43-.61-.15-.23.11-1-.1.14,0-.21-.27.29-.14-.3-.14-.79-.3-.61-.41.74.25,1.42.39,1.22.12.58,0,.59.25,1.17.28-.25-.11-.64-.23-.4-.31.39.11.45.08.5,0a10.35,10.35,0,0,0,1.87.45c-.19-.12-.93-.27-.63-.36.94.17.43.24,1.37.42.35-.08-.6-.26-.88-.38.12-.05,1.07.25.76,0a5.28,5.28,0,0,1-1.13-.4c-.56-.1.61.26.15.29-.6-.21-.47,0-.74-.05s-.52-.14-.7-.17a3.2,3.2,0,0,1-.73-.09c-.18-.1-.27-.18-.16-.26.3.09.34.16.67.25.07-.09-.06-.19-.39-.31-1.13-.26-1,0-.83.19-.72-.13-.38-.19-.41-.27a4.76,4.76,0,0,1-1.63-.4c-.26-.05-.19,0-.5,0,0,.11.83.34.15.3-1-.28-.45-.51-.48-.78s-.33-.35-.1-.43.33.22.17.23c.54,0-.16-.19-.14-.31s.51,0,.51,0-.56-.28-.63-.38.27,0,.29-.11-.48-.46.15-.4c1.17.33,1.57.61,1,.7.78.19.71,0,.81-.14-.16-.17-.33-.14-.91-.28.1-.06,0-.14-.42-.24,0-.09.3-.15-.41-.29-.45-.11.31.25-.31.15-.53-.35.17-.42,0-.72,0-.06-.39-.21-.41-.28a3.88,3.88,0,0,1,0-.68c0-.34,0-.71.33-.86l.46.13c.24,0-.38-.23-.16-.22,1.48.51-.39-.21.11-.28a2.54,2.54,0,0,0-.68-.24c.13-.15-.06-.46.65-.32.16-.09-.67-.29-.36-.37.8.2,1.09.34.85.43.71.21.74.08.79,0-.69-.24-.86-.21-1.4-.37a6.51,6.51,0,0,1,.59-3.07c.43-.95,1-1.84,1.4-2.76a2.64,2.64,0,0,1,.4-.87c.05-.06-.22-.16-.18-.2a2.79,2.79,0,0,0,.52-.55c.07-.13-.2-.37,0-.47a1.2,1.2,0,0,0,.53-1.06c-.05-.23-.63-.73.33-.66-.19-.31-.31-.54.26-.5a2.58,2.58,0,0,1-.71-.19c.47-.16.12-.56.43-.86.28.13.31.21.63.35.32-.06-.72-.41-.8-.55.11-.07,1,.37,1.12.44-.06-.15-.46-.38-.53-.54.41,0,.11-.19.17-.35s.32,0,.33-.1-.56-.54-.19-.64a2.72,2.72,0,0,1,.5.07c.09-.05-.7-.42.11-.19-.07-.19-.54-.77-.55-1s.29,0,.31-.06-.2-.18-.14-.24.44.09.5.07-.19-.17-.15-.21.62-.25.53-.48-.32-.28-.33-.38a1.87,1.87,0,0,0,.5.08c-.38-.27-.11-.34,0-.44s-.3-.36-.29-.47.29,0,.31-.05c0-.3,0-.75.06-1.07,0-.07.28,0,.29,0,.06-.3-.24-.73,0-.84s.32.08.5.09c0-.27-.22-.59-.07-.81a2.43,2.43,0,0,1,.69.24,2.69,2.69,0,0,0-.63-.35c.26-.19-.73-.9.37-.6-.09-.22.05-.15,0-.41a4,4,0,0,1,1.12.45c.09-.17-.46-.28-.79-.53-.09-.27.65.08.63-.12s-.71-.39-.81-.51c.49,0,.08-.54.44-.71.1,0,.51,0,.59,0s-.4-1,.72-.66a5.84,5.84,0,0,0-.59-.4c.7,0-.3-.67.43-.66-.88-.54-.32-.36-.44-.63a2.35,2.35,0,0,0-.69-.26c-.06,0,.36.27.36.33s-.32-.07-.29,0,.34.31.33.37-.28,0-.36.11.1.33-.24.37a3,3,0,0,1-.5-.11c-.05,0,.15.3,0,.37s-.05.17-.19.3a1,1,0,0,0-.34.52,6.1,6.1,0,0,1-.62-.36c-.07.12,0,.31-.79-.09a3.32,3.32,0,0,0,.63.36c.46.24.17-.09.33-.09.71.51.32.66-.13.68s.78.54.12.26c-.49-.14-.41-.22-.6-.39s-.48-.22-.38-.29.26.08.26,0c.25.13.14.15.14.22.65.16,0-.33.45-.28-1.15-.64-.22.28-1.43-.41.19.37,1.17.94.54,1,.9.51.37,0,1.17.38,0,.21-.2.33-.69.21-.26-.22-.14-.44-1-.68,0,.11.82.44.55.47-1.21-.64-.94-.13-.4.2.4.15.55.11.57,0,.82.45.07.28,0,.41a2.78,2.78,0,0,0-1.39-.47c.81.44.85.23,1.32.58-.2,0-1-.34-1-.18s.36.09.48.13c.25.6-.16,1.1-.41,1.62,0,.05-.7-.05.05.37a.81.81,0,0,0-.69.71c-.71-.4-.26-.45-.19-.63s.36-.41.15-.71a7.5,7.5,0,0,1-1.33-.57c.11.23-.51,0-.16.27a4.37,4.37,0,0,0,.55,0c1.06.6-.29.17-.23.39.51.25,0-.23.72.18A17.15,17.15,0,0,0,502,246c0,.07-.31,0-.33.11s.18.26.09.33-1.22-.15-.44.3c-.51-.2-.38,0-.77-.08a.74.74,0,0,0,.44.19c.77,1.16-1,1.38-.38,2.32-.13,0-.19-.08-.44-.18.2.25.34.48.2.66-.57-.22-.24-.28-.81-.51-.09.12.68.63,0,.5-1-.38.34-.08-.57-.47-.05-.17.47,0,.36-.19,0-.05-.2-.13-.18-.17-.5-.21-.84-.32-.93-.27a6.56,6.56,0,0,0-1.49-.78c-.89-.27-.09.26-.61.16-.71-.25-.12-.21-.14-.26s-.41-.18-.43-.21c-.09-.18.08-.31,0-.55a6,6,0,0,1,1.77.74c.47.23,1,.22.52,0,.43,0,.67.37,1.08.53.08-.07-.12-.2-.61-.39,0-.17.73.18.57-.07.86.43-.4.16.5.6-.06.14-1.12-.08-.44.36.92.42.17-.32,1,.19-.46-.39.11-.3-.47-.68.14,0,.17-.14.76.11-.57-.43,0-.61.4-.81-.45-.37-.59-.69-.19-.67-.21-.22-.54-.47-.47-.63.4.16.44.24.87.41.09-.09-.45-.31-.58-.44s.35-.25,0-.5c-.31-.09-.46-.08-.53,0-.35-.24-.07-.35-.49-.6.13-.17.9.09,1.1,0-.06-.1-.29-.11-.66-.28,0-.2.7,0,.66-.22-.12-.1-.48-.26-.37-.31-.37-.18-.44-.15-.49-.11-.35-.32,0-.29.4-.23-.07-.14-.37-.1-.64-.33.23-.06,1.48.58,1.25.2a2.52,2.52,0,0,1-.7-.21c.48,0-.45-.38-.09-.34a2.61,2.61,0,0,0,.66.29c.09,0-.43-.32-.41-.23-.63-.25.29-.14-.33-.4s.07.5-1.06-.06a3.87,3.87,0,0,0,.86.43Zm-3.61,3.78c.71.28,1.35.5,1.42.37l-1.34-.53Zm2.92,1.11.06-.13c-.69-.22-1.57-.57-1.46-.28C498.25,248.33,497.62,247.76,498.63,248.25Zm2.05-2.9c-.15.08-1.3-.51-1-.14.67.34.57.17.93.3S501.06,245.47,500.68,245.35Zm3,22.77a1.81,1.81,0,0,0,1.09.51c.25-.08-.58-.22-.65-.32a3.21,3.21,0,0,0,1.2.19Zm1.15-1.74,0-.12c-.72-.15-.83-.25-1.38-.39C503.36,266,504.29,266.2,504.83,266.38Zm-2.12-.45a8.16,8.16,0,0,1-1.56-.62A2.28,2.28,0,0,0,502.71,265.93Zm.9,1c-.7-.18-1.28-.5-1.41-.31a3.2,3.2,0,0,1,1.12.41C503.29,267,503.61,267,503.61,266.94Zm1.41.3c.33.09.37.16.67.25.09,0,.36,0,.29-.1A2.32,2.32,0,0,0,505,267.24Zm-2.49-.83a7.09,7.09,0,0,0-.91-.27c0,.07-.1.11-.3.1C502,266.41,502.59,266.56,502.53,266.41Zm3.3,0c-.65,0,.16.31-.16.43-.33-.08-.41,0-.72-.1s-.19-.12-.44-.19-1.06-.17-1,0,.43.22.64.33a4.61,4.61,0,0,0,2.2.25c-.46-.14-.33,0-.5,0a3.89,3.89,0,0,1-1.17-.25,3.43,3.43,0,0,1,1.45.19C506.2,266.85,506.16,266.65,505.83,266.42Zm4.45,1.05c-.09.1,0,.21.38.35-.37-.25.08-.1.31-.17Zm3.07,0c-.21,0-.74.11.14.31C514,267.83,513.93,267.56,513.35,267.43Zm-2.41-1.05c.07.23-1.07.07-.41.42,1.23.37,1,.1.54-.1C511,266.53,511.63,266.64,510.94,266.38Zm.19-.52c-.79-.08.64.49-.15.41C512.25,266.54,511.44,266.07,511.13,265.86Zm2.6.55c-.06.17-1.21.06-.17.47C513.29,266.61,514.33,266.7,513.73,266.41ZM503,265.13c-.14,0-.28-.08-.22-.1-.61-.17-.78-.15-.76,0C502.63,265.18,503,265.25,503,265.13Zm4.19,1.05c-.91-.26-.35.14-.58.19-.74-.27-.89-.22-1-.09C507.13,266.71,507.31,266.34,507.19,266.18Zm-1.62-.43c.15.18-.41,0-.76,0,0,.08.11.17.41.28.14-.14.47-.07,1,.16C506.25,266.08,505.7,265.73,505.57,265.75Zm-3.47-.94c.31-.05,1.46.3,1.26,0-.49-.18-.5-.05-1-.16a2.49,2.49,0,0,0-.66-.27c-.22,0-.58-.13-.53,0C502.52,264.74,501.66,264.63,502.1,264.81Zm1.72-.55c1.43.33-.49.22,1.09.5-.23.09.2.24.38.36a4.4,4.4,0,0,0-1.32.13l.93.24c0-.19.18-.25,1,.05,0-.23-.42-.49-.5-.73C504.36,264.58,504.75,264.23,503.82,264.26Zm-3.08-1.33a3.24,3.24,0,0,0,.78.66c-.45,0-.61.22-.67.44a8,8,0,0,0,1.18.27c-.26-.15,0-.25-.36-.41-.44,0,.21.22-.31.14-.53-.26.12-.25.58-.2.3.32.9.32,1.32.58,0,.09-.29,0-.29.1.65.18.58,0,1.2.19.12,0,.28.28.44.2-.19-.19-1.24-.47-1.05-.63-1.07-.17-1.07-.35-1.11-.43a2.23,2.23,0,0,1-.9-.33c1.17.33.64-.14,1.51.05l-1.16-.31c0,.1,0,.27-.55.11C501.32,263.23,501.79,263.15,500.74,262.93Zm4.24.95c-.15-.17.37,0,.31-.14C504.28,263.39,504.37,263.72,505,263.88Zm-2.22-.88c-.18.14.61.22.65.31s-.22.2.37.36c.26-.09-.28-.35.12-.31C503.24,263.21,503.33,263.14,502.76,263Zm-1.05-.57c0,.09-.74,0-.1.24a1.42,1.42,0,0,1,.48.09C502.16,262.67,502.21,262.58,501.71,262.43Zm.57-.15c-.23-.21.76.19.53,0-.08-.09-.71-.25-.4-.3-.72-.26-.23.08-1-.18,0-.14,1,.06.1-.24,0,.13-.58,0-.56.11.31.26,1,.55,1,.77a3.11,3.11,0,0,1,.68.23c.22.29.28,0-.18-.18,0-.06,1,.15.29-.09A.82.82,0,0,1,502.28,262.28Zm1.81,0c-.28,0-.32.06-.33.17.73.26.23-.08,1,.19.12.16-.3.07-.33.17a4.8,4.8,0,0,0,.93.26c-.19-.18.12-.31-.55-.55C504.66,262.68,504.35,262.36,504.09,262.27Zm-1.32-.56c.51.11,2.17.54,1.47.21a2.31,2.31,0,0,1-1-.19c0-.09.32-.13-.39-.3,0,.17-.18.2-.36.26s-.15.27.16.22Zm3,1c.2,0,.76-.2.34-.21S505.19,262.49,505.72,262.7Zm1,0c-.34,0,.73.24.4.28-.05.06-.6-.14-.51,0l.92.26c-.12-.19.36-.1.36-.23C507.22,262.73,507.27,262.91,506.77,262.66Zm-2.18-1c-.72-.27-1,.09-.55.1C503.81,261.53,504.83,261.91,504.59,261.67Zm2.14.46c-.24.05-.81-.06-.82.1C506.72,262.49,507.24,262.37,506.73,262.13Zm-.51-.63c-.18.05-1,0-.15.35C506.26,261.79,506.94,261.73,506.22,261.5Zm-2.24-.85c.06.13-1.12-.13-.55.1C503.83,260.81,504.91,261,504,260.65Zm-2.07-.63c-.48,0-.27.28-.42.42.9.31.18-.2,1,.07,0,.06.57.22.48.1-.33-.12-1.21-.31-1.14-.39C502.38,260.34,502.43,260.24,501.91,260Zm.84-1.41c0-.1.44,0,.33-.17C502.37,258.15,502.4,258.5,502.75,258.61Zm4,2.76c0-.05,0-.08-.2-.15-.29.09.61.32,1.08.5l.06-.15C507.12,261.35,507.24,261.51,506.79,261.37Zm-4.32-1.45a2.46,2.46,0,0,0-1-.16,7.46,7.46,0,0,0,.91.32Zm4.58.79c-.36.12.28.36.31.53a3,3,0,0,1-.86-.44c-.64-.06.38.36.81.55.39-.1-.05-.38.87-.24C507.52,260.94,507.61,260.87,507.05,260.71Zm-3.48-.94c-.07-.48-.72,0,.16.23C503.76,259.92,503.58,259.85,503.57,259.77Zm.44-.45-1.15-.36c-.31-.1,0-.33-.39-.3,0,.17-.11.3-.39.33,1.1.41.43-.1,1.44.27-.08.06.22.17.16.23-1.19-.4-2.2-.26-.86.22a.74.74,0,0,1,.37-.28c1.16.27.56.32,1.33.54C504.59,259.79,503.73,259.48,504,259.32Zm3.44.44c.12.15-.48-.07-.52,0,.29.19.58.13.67.26-.4-.11,0,.06-.05.11a10.79,10.79,0,0,0-1.14-.36c0,.07-.14.12.16.23,0,0,.21,0,.23.07.25.3-.77-.05-1,0,.92.28,1.24.47,2.27.76-.2-.24.1-.18.37-.27-.28-.09-.54-.18-.43-.22s.77.12.57-.12A5.68,5.68,0,0,0,507.45,259.76Zm-1.39-.4c-.62,0-.85-.19-.31.12-.83-.32-.69-.11-1.4-.36-.23,0,.69.39.66.3-.24-.08-.27-.17,0-.08l.45.14c.11.13-.38.17.12.35s.19-.15.11-.28c.91.17.53-.09.85-.16C506,259.16,506.27,259.37,506.06,259.36Zm-1.63-1a.81.81,0,0,1-.54.05l.12-.28a9.33,9.33,0,0,0-1.12-.41c-.41.14.61.48.48.66a2.94,2.94,0,0,0,.72.14,2.69,2.69,0,0,0,.43.23c-.11,0,.23,0,.26,0,.23.06.48.25.48.11C504.07,258.54,505,258.55,504.43,258.34Zm2,.25c-.43-.06-.28.2-.4.31C507.38,259.31,506.88,258.87,506.41,258.59Zm-1-.47.17,0c.13,0,.46.12.51,0s.17-.11-.39-.3c-.16,0,.18.32-.33.15.28-.11-.51-.29-.61-.38.28,0,.32-.05.33-.16-1-.3-.62.15-1.11.13a4.54,4.54,0,0,1-.43-.19c-.22.07-.2,0-.09.2.84.34.12-.16,1,.18l-.08.2c.93.35.17-.15.77,0,.25.07.3.11.3.13S505.42,258.14,505.42,258.12Zm1.1-.33c-.32.12.35.22.38.3s-.68.16-.43.38a4.34,4.34,0,0,1,.93.27c-.58-.4,0-.36,0-.65Zm.93-.88c-.32-.11-.51-.15-.7-.2s.29.24.61.39S507.71,257.06,507.45,256.91Zm-1.85-1.13c.1.11-.38.13.12.31C506.05,256.15,506.22,256,505.6,255.78Zm-1.19-1.42c-.41-.06,0,0-.07.15C505.19,254.86,505.29,254.64,504.41,254.36Zm2.27.77c-.21,0-1,0-.4.3C506.46,255.39,507.07,255.34,506.68,255.13Zm3.28.35c-.13,0-.72-.23-.53,0l.68.25C510.1,255.64,510.26,255.61,510,255.48Zm-.75-.62c-.45,0-.35.2.77.59.08,0,.63.06.07-.15,0,0-.05,0-.24-.05C510.07,255.21,509.52,255,509.21,254.86Zm1.16-.19c-1.05-.41-.11.14-.11.22s-.75,0,.08.38C510.32,255.07,510.77,255,510.37,254.67Zm-2.32-1.23c-.33-.07-.5.08.11.31C508.07,253.64,508.55,253.64,508.05,253.44Zm4.18,3.94c-.07.12-.71-.09-.59.13C512.77,257.92,512.57,257.63,512.23,257.38Zm.41-.32c.23.23-1-.12-.34.18.3-.07.55.09.9.32C513.17,257.42,513.17,257.29,512.64,257.06Zm2.24.31c-.55-.16-1.44-.51-1.43-.35A4.55,4.55,0,0,0,514.88,257.37Zm-1.07-.52c-.39.09-1.28-.62-1.41-.39C513.1,256.78,514.2,257.1,513.81,256.85Zm-.41-1.29a2.4,2.4,0,0,1,.69.22c0-.06,0-.13-.15-.23C513.4,255.31,512.91,255.34,513.4,255.56Zm3.06.83a5.66,5.66,0,0,0-.91-.31c.46.16-.1.08-.28,0-.35-.14-.13-.16-.64-.33-.15.13.25.54,0,.62s-.9-.19-1-.13c0-.13-.55-.57-1-.67.7.35.53.58,1.17.86-.07,0,.2-.06.48.1-.16,0,.59.39-.09.17,0-.05.09-.08-.17-.18a3.5,3.5,0,0,1-.77-.08,1.19,1.19,0,0,0-.69-.21c.71.23.21.22,1.09.49,0-.1-.37-.27.3-.06l2,.85.07-.14c-.54-.25-.77-.12-.92-.3,0,0,.06-.16.3,0,0,0,.1.15.19.15.33,0,.12-.19.16-.31s.7,0-.12-.3c-.06.18-.84-.06-1.07,0-.66-.37.58,0,.82,0-.06-.11-.43-.47.16-.32s-.39.13.58.43C515.74,256.37,516.29,256.52,516.46,256.39Zm-4.8-2.66c-.66-.24-1.93-.6-1.25-.18a1.25,1.25,0,0,1,.48.1c.29.16.14.24.1.34a3.14,3.14,0,0,0-.94-.27c-.24.06.27.27.1.34a8.92,8.92,0,0,1,1.12.43Zm-.37-1.38c-.14.11-.09.25,0,.42-.52-.2-.19-.21-.61-.38-.07,0,0,.07-.26,0l0,.07a4.51,4.51,0,0,1,.87.39c-1-.33-.11.18-.14.29l-.68-.26c.64.43-1,.08,0,.49-.11-.23.66-.07,1.21.26.05-.15,0-.33-.5-.6C511.12,252.76,512.78,253,511.29,252.35Zm6.83,1.87c.28.24-.32,0,.35.35.33,0,0-.07.32-.07Zm-4.1-1.94c-.28-.06-.32,0-.34.12C514.36,252.74,514.36,252.42,514,252.28Zm-2-.86c0,.28-.74-.34-1.15-.38-.2.12,0,.32,0,.49.25.21.7.21.87.4a3.88,3.88,0,0,0-1.26-.16,6.94,6.94,0,0,0,1.28.65c.08-.13.22-.26-.37-.33.18-.08.69,0,.83-.05C511.28,251.54,512.64,251.8,512.05,251.42Zm-1.09-.49c.07,0,.26.08.44.18.05-.09.75.21.77.1C511.89,251,510.35,250.58,511,250.93Zm17.13-11c0-.06.1-.07-.14-.22-.21,0-1-.72-.86-.44S527.46,239.51,528.09,239.93Zm-6.32-1.56c.15-.11.49,0,0-.44C521.65,237.89,521.51,238.12,521.77,238.37Zm4.32,4.61c-.08-.18.3,0,.34-.07C525.83,242.56,525.44,242.6,526.09,243Zm-.13.57c-.43-.36.5,0,0-.36C525.73,243.12,525.15,243.13,526,243.55Zm-2.06,3c-.26-.18-.77-.44-1-.61l-.08.12A3.55,3.55,0,0,0,523.9,246.54Zm-5.48-.78c0-.19,1,.42.79.08-.67-.35-.64-.17-1.1-.5C518,245.41,518.06,245.54,518.42,245.76Zm5.05,3.17c-.18-.22.39.09.51.09a5.16,5.16,0,0,0-1.13-.43c-.43-.22-.22-.23-.83-.49C521.81,248.25,522.53,248.44,523.47,248.93Zm-1.79,1.53c.1-.08.05-.19-.31-.4C521.44,250.25,520.64,250,521.68,250.46Zm-4.89-1.14.1-.17C516,248.71,515.89,249,516.79,249.32Zm3.12,1.75c.05-.09.24-.14-.32-.4C519.68,250.8,519.1,250.75,519.91,251.07Zm-1,.24c.21,0-.33-.5-.76-.59C518.45,250.85,517.61,250.8,519,251.31Zm-3.74-.65c.66.25,1,.29,1,.14C515.08,250.22,515.3,250.55,515.21,250.66Zm4,2.54c.68.16.1-.23.85,0-.57-.27-.29-.06-.49-.09C519.26,253,518.39,252.79,519.25,253.2Zm-6.72-2.15c0-.21-.55-.53-1.15-.88,0,.13-.77,0-.18.32A5.81,5.81,0,0,1,512.53,251.05Zm-.38-1.27c-.86-.4-.37.09-.61.1,0,.08.28.2.14.24q-.84-.41-.72-.18c.67.32.48.09,1.15.4-.27.06.28.31.54.5C512.53,250.52,511.71,249.83,512.15,249.78Zm1.28-1.81a1.17,1.17,0,0,1-.46-.16c.09.18.12.14-.1.18C513.51,248.32,513.57,248,513.43,248Zm0-.87c-.11.05,0,.16.35.34.1,0,.35.08.31,0Zm.37-.14c-.64-.24-1.42-.59-1.44-.39.77.4.46.15.92.33a1.2,1.2,0,0,0,.43.2Zm.14-3c-.1.08,0,.21.3.43,0-.13.56.13.57,0Zm11.33-11.12a1.86,1.86,0,0,1,.67.68c.05-.05.57.33.5.15C526.15,233.49,525.27,232.68,525.23,232.85Zm.18-.94a1.38,1.38,0,0,1-.43-.24c-.22,0,.33.38.47.56C525.38,232.09,525.84,232.21,525.41,231.91Zm10.47-17.33c0,.18-.9-.62-.37,0C535.67,214.66,536.34,215.1,535.88,214.58Zm1.7.74c0,.07-.25-.1-.59-.44-.19,0,.2.4,0,.36.3.3.92.59.89.5s-.44-.41-.32-.36C537.78,215.63,538.17,215.85,537.58,215.32Zm-.5-1.46c-.43-.44-.86-.52-.54-.17A1.64,1.64,0,0,0,537.08,213.86Zm7.52-10.5c.26,0-.86-.76-.81-.53Zm-.37,1.21c.6.42.67.3.76.19C544.3,204.26,544.3,204.45,544.23,204.57ZM529,194.43c.35.21,1.24.89,1.24.77a11.94,11.94,0,0,0-1-.7C529.27,194.56,529,194.38,529,194.43Zm-.88.22a3.39,3.39,0,0,0,.62.39c.45.36.95.78,1,.67a6.83,6.83,0,0,0-.6-.4c.08,0-.09-.18-.52-.49C528.7,195,528.32,194.74,528.11,194.65Zm17.78,13.46c-.09-.22.69,0-.1-.6-.6-.39.4.39.07.28s-.47-.33-.45-.21C546.14,208,545.42,207.78,545.89,208.11ZM529.45,196c0-.1-.27-.44-.85-.83,0,.13,1.08,1,.37.64C529.5,196.24,529.45,196.05,529.45,196Zm.7,1a7.44,7.44,0,0,0-1-1C528.81,195.92,529.74,196.82,530.15,197Zm13.21,13.77c-.14,0-.7-.48-.72-.3C543.11,210.88,543.71,211.1,543.36,210.74Zm-7.24-2.07-.71-.64-.1.08C535.77,208.54,536.09,208.8,536.12,208.67ZM533,213c.14,0,.15-.42-.09-.55C533,212.61,532.68,212.8,533,213Zm-1.63-.8c.17,0,.74.59.71.33C531.66,212.12,531,211.72,531.35,212.17Zm2.15,2.57c-.71-.7-.31,0-.23.19S533.78,215.12,533.5,214.74Zm-2.93-.63c0-.19.42.29.62.41.18-.06.25-.2-.06-.58.25.23.27.13.44.25-.41-.71.11-.67.44-.69-.35-.28.07-.26-.29-.39-.1,0,.13.25,0,.28a1.73,1.73,0,0,0-.89-.5c-.13,0,.1.24,0,.31s-.52-.17-.6-.11.18.25.08.25S529.83,213.42,530.57,214.11Zm-3.08,4.13c.15,0,.65.29.76.26s-.21-.36-.2-.46.19.13.21.13-.15-.18-.15-.18c.09-.21.06-.39-.45-.89-.28,0,0,.53-.1.75S526.74,217.53,527.49,218.24Zm3.61,10.21c.12,0,.48.17.16-.17C530.59,227.72,530.65,228.13,531.1,228.45Zm-.84-1.55c-.49-.19.75.79.89.8C530.54,227.27,531,227.42,530.26,226.9Zm-1.09-.59c.13,0,.71.46.71.3C529.54,226.07,528.29,225.53,529.17,226.31Zm-1-7.39c-.53-.47-.63-.42-1.16-.88,0-.06.06-.06-.12-.22C526.77,218,527.94,219.07,528.16,218.92Zm-10.43-5.48c.41.22.26-.16.08-.42C517.75,213.21,517.17,212.87,517.73,213.44Zm-.5,1.2c-.28-.45.36.07.6.07a5.67,5.67,0,0,0-.93-.76C517.15,214.26,516.54,214.1,517.23,214.64ZM516,217c.3.15.44.06,0-.32C515.64,216.51,515.5,216.61,516,217Zm10.21,7.61c.46.18,0-.2,0-.39.73.62.29,0,.3,0s.62.35.72.3c-.86-.63-.2-.44-.77-.92.1,0,0-.3.49.18,0,.17-.56-.23,0,.29.23.1.37.13.33,0s-1.09-1.31-.11-.56c0,0,.12.15.18.15-.5-.47,1,.48,0-.36-.28-.19-.14.09-.49-.18.08-.19.73.14.13-.48,0,0,.58.38.63.4s.1-.25.2-.21l.37.31c.1,0-.25-.42,0-.33a2.78,2.78,0,0,0,.59.42,4.15,4.15,0,0,0-1-.72c-.06-.28-.72-.64-.76-.94.07,0,.55.38.49.19-.29-.28-.24-.35-.25-.43,0-.34.15-.59.59-.59-.24-.25-.54-.53-.43-.58a3,3,0,0,1,.44-1.1c-1.28-1.13-.59-.09-.7,0s-.66.09-.88.2a1.64,1.64,0,0,1,.49.52c-.59,0-.24.52-.25.94-.43-.32-.51-.57-.59-.43.31.31.29.44.6.76-.37.1-.12.68-.73.38.25.41.09.51-.32.33.95.7.27.49.54.81-.37-.31-.29-.37-.66-.69.24.38-.17.13-.27.27.69.64.19-.07.68.33.66.56-.19.1-.08.42s.44.36.32.35c-.55-.53-.14-.09-.27-.06s-.36.12.11.57a9.11,9.11,0,0,1-.73-.62c-.31-.05.31.41.42.59-.32.09-.44.31-1,0-.22-.18-.38-.39-.57-.44.18.22.67.6.86.83-.07.08-.93-.47-.16.18.38.07,0-.36.63,0a1.22,1.22,0,0,1,.18.5c.1.3-.13,0-.33,0C526.42,226,526.71,225,526.19,224.6Zm-.36,2.15c-.64-.51-.79-.41-.52-.13C526,227.13,526.09,227,525.83,226.75Zm3.24,3.88c.09-.07.07-.27.4-.09-.35-.22-1.3-.77-.9-.42,0,0,.06,0,.21.11C528.76,230.3,528.82,230.42,529.07,230.63Zm-2.13-1.21c.37.19.31,0,0-.32S526.59,229.13,526.94,229.42Zm-1.06-.61c.78.57.59.29.53.13C525.78,228.43,526,228.81,525.88,228.81Zm-11.17-7.93c.6.27-.21-.42-.36-.66C514.19,220.31,514.29,220.52,514.71,220.88Zm-1.22-.77c-.6-.46-.69-.38-.74-.25C513.34,220.31,513.44,220.23,513.49,220.11Zm.75,1.32c.1-.06.17-.14-.25-.45S513.54,221,514.24,221.43Zm9.27,7.18c.38.08-.49-.44-.26-.43s1.17.32.3-.35c-.26,0,.11.46-.44.14.1.06-.07-.21-.17-.17C523.35,228.18,522.51,228,523.51,228.61Zm-9.65-6.72c-.08-.22.35.1.34,0a8.2,8.2,0,0,0-.81-.52C513.28,221.4,513.59,221.65,513.86,221.89Zm9.41,8.11c-.34-.49.73.1.07-.45-.27,0-1-.57-1.17-.47a3.38,3.38,0,0,0,.79.55C522.9,229.68,523,229.82,523.27,230Zm-1.65-.64c.13,0-.18-.29-.71-.64C520.85,228.82,521.23,229.19,521.62,229.36ZM519.94,231a1.16,1.16,0,0,1,.43.23c.28,0-.16-.44.18-.23s-.07.18.49.53c.48.14,0-.17,0-.36-.65-.35-.77-.52-1.23-.76A.77.77,0,0,1,519.94,231Zm.08,3c0-.09.28.07.3,0-.59-.34-.49-.38-1-.67C519.27,233.42,519.7,233.73,520,234Zm-.36.46c.21,0,.8.3.56.05a5.28,5.28,0,0,0-.64-.34c-.54-.51.62.08.21-.26-.63-.35-.49,0-.84-.09a4.18,4.18,0,0,1,.79.54c-.39-.23-.22,0-.52-.12C519.64,234.79,519.34,234.41,519.66,234.45Zm-16.46-2.94c.08-.18.51,0,0-.43-.08,0-.25-.1-.42-.23C503,231.17,501.93,230.72,503.2,231.51Zm.37.31c.21.11.31.08.05-.08s-.88-.38-1-.27C503.3,231.87,503.15,231.61,503.57,231.82Zm-.79.31c.33.11.36-.13-.26-.47C502.8,232,502.06,231.66,502.78,232.13Zm6.91,4.74a1.12,1.12,0,0,0-.47-.6C508.85,236.28,509.08,236.45,509.69,236.87Zm-7.31-3.68c.21-.09.38,0-.27-.47C501.6,232.56,501.89,232.9,502.38,233.19Zm4.47,5.83c.09-.08.15-.17-.06-.34a4.37,4.37,0,0,0-.91-.36C506.83,238.74,506.49,238.77,506.85,239Zm-.57,0c.13,0,.94.33.31,0-1-.39-.06-.16-.33-.36C505,238,505.83,238.75,506.28,239Zm-4.43-.06c.33.09.58-.08-.05-.39C502.23,238.92,501.36,238.62,501.85,239Zm-.68,1.61c-.26-.15-.41-.26-.36-.33a2.91,2.91,0,0,0-1.16-.39c.4.18.49.28.37.33A2.93,2.93,0,0,0,501.17,240.57Zm-1.3-.15c.56.23.94.34,1.38.49C500.65,240.64,499.67,240.1,499.87,240.42Zm4.36,2c-.25-.3.31-.39-.59-.87-.36-.08.1.11.14.22S503.27,242,504.23,242.44Zm-2.52.53a1.92,1.92,0,0,0,.77.59c-.12-.19.36,0,.32-.1Zm-1.2-.79c.12-.06.05-.17-.11-.3-.48-.26-1.49-.62-.92-.32C499.78,241.58,500.3,242,500.51,242.18Zm-1,.35c-.13-.18.61-.16-.26-.52C499.36,242.19,498.62,242.17,499.5,242.53Zm.22.1c.94.4.39-.25.7-.29-.41-.19-.08-.2-.59-.42C499.75,242.23,500.24,242.51,499.72,242.63Zm28-19.92c-.49-.43-.65-.67-.57-.78.22.2.35.35.29.39.15.14.19.13.21.12C527.89,222.66,527.72,222.64,527.71,222.71Zm-19.77,44.88c-.76-.22-.28-.23-.14-.29C508.43,267.5,508,267.53,507.94,267.59ZM520,235.5c.33.32.4.75-.15.58-.86-.52,0-.05.08-.1C519.56,235.6,519.94,235.58,520,235.5Zm-3.39,4.7c.17.24,0,.32-.08.56C516.36,240.49,516.3,240.17,516.65,240.2Zm-20.37,20.38c-1.23-.42-.42-.54-.24-.68s-.31-.44.6-.2C496,259.85,496.21,260.31,496.28,260.58Zm5.86,6.91c.05-.06-.26-.15-.18-.21.56.09,1.17.2,1.9.36A4.3,4.3,0,0,1,502.14,267.49Zm-6.89-6.26c-.5-.25.07-.4,0-.62C495.8,260.91,495.28,261.06,495.25,261.23Zm2.43-3.48-.29.71c-.9-.72.45-.7.29-1.36C498.1,257.13,497.74,257.58,497.68,257.75Zm3.2,9.71.15-.41C501.16,267.17,501.91,267.68,500.88,267.46Zm.33,1.3c-.56-.18-.36-.23-.15-.29C501.62,268.65,501.43,268.7,501.21,268.76ZM501,268c-.43-.27,0-.27.37-.35.38.16.45.3.37.43A1.92,1.92,0,0,0,501,268Zm6.48-2.47c.33-.09-.43-.29-.36-.4,1.44.29-.05-.28.36-.28a6.49,6.49,0,0,0,.68.23c-.17,0,.19.32-.33.2C508,265.42,508.66,265.86,507.43,265.53Zm29.52-44c0,.37-.26.46-.61.55a.67.67,0,0,1,.19-.82C536.52,221.16,536.73,221.34,537,221.54Zm-29.06.06.21-.26C508.42,221.57,508.67,222.15,507.89,221.6Zm17-21.52c-.28-.27-.4-.6-.35-.64s.29,0,.67.37C524.87,199.69,525.13,200,524.91,200.08Zm-15.74,19.59c.4.16.37-.14.53-.26s0-.58.69-.09C509.91,219.36,510.44,220.46,509.17,219.67Zm8.16-8.56c-.74-.42,0-.42-.25-.77.22.18.22.08.29.06C518.09,211.1,517.07,210.8,517.33,211.11ZM513,218.85c.1-.07.2-.15.74.25C513.7,219.23,513.6,219.31,513,218.85Zm-2.28,2.31c-.56-.37.32-.09-.24-.46.51.31,0-.44.79.16C511.14,221,510.75,220.88,510.73,221.16Zm-1,1.15c0-.25.65.13.86.08C510.66,222.41,510.64,223,509.78,222.31Zm1.83-.71c.1-.12.13-.31.79.16C512,221.59,512.32,222.1,511.61,221.6Zm1,0c-.65-.5-.37,0-1.07-.59.1-.12.74.33.8.17C512.65,221.38,512.7,221.51,512.58,221.55Zm25.32-1.79c.55.62.1.52,0,.62a3.82,3.82,0,0,1-.75.66c-.14.09.38.86-.51.12.63.15.32-.59.58-.82S537.79,220.11,537.9,219.76Zm-2,2.78c0,.09,0,.39-.29.26C535.11,222.27,535.51,222.41,535.85,222.54ZM534,223.92a.53.53,0,0,1,.16.49C533.43,223.84,534.05,224.09,534,223.92Zm1.33-1.22c.71.61,0,.58-.19.5C534.78,222.77,535.32,222.9,535.32,222.7Zm4.44-5.47c.34.51,0,.35-.15.44C539.26,217.25,539.77,217.42,539.76,217.23Zm1.75-3.13c.54.57,0,.24,0,.34a5,5,0,0,1-.61,1.18c-.93-1-.12-.5,0-.59A3.43,3.43,0,0,1,541.51,214.1Zm-3.21,5.32c.55.59.08.74-.33.29C538.27,219.84,538,219.44,538.3,219.42Zm1.07-1.86c.48.45.26.52,0,.33C539,217.52,539.42,217.7,539.37,217.56Zm-33.53,7.82c-.41-.36.17-.35.14-.57C506.39,225.18,505.82,225.16,505.84,225.38ZM497,249.3c-.34-.19-.25-.31-.55-.5a1.23,1.23,0,0,0-.49-.09c-.78-.38.55.14.31-.08C496.73,248.88,497.41,249.34,497,249.3Zm-.94.84c-1.13-.47-.28-.35-.06-.42C496.53,249.94,496,250,496.1,250.14Zm-2-2.41c.07-.13.11-.27.8,0C494.36,247.56,495,248.1,494.09,247.73Zm.19,1.23c-.58-.3.11-.26.38-.21,0-.12-.36-.29.1-.21C495.34,248.92,494.53,248.91,494.28,249Zm1.58-.5c-.48-.23,0-.16-.12-.3a4.08,4.08,0,0,0-.42-.21c-.08-.11.31,0,.28,0s-.87-.48-.54-.52c.69.22.34.25.36.34.71.26.87.46,1.14.4.76.35-.26,0-.29,0s.37.15.43.21-.61,0-.37.21A1,1,0,0,0,495.86,248.46Zm.94-2.44c.17-.18-.62-.55-.19-.68.47.22.46.12.52.06.91.5.77.74-.05.59a5,5,0,0,1,1.11.45c-.07-.25.19-.72,1.48-.23-.12.15-.73,0-.88.13s.56.4.64.31c.58.55-.62.61-.25,1-.79-.4-.52-.56-.7-.73-.48-.23-1-.22-.53,0-.64-.07-.39-.35-.32-.43a4.33,4.33,0,0,1,1.09.49c-.07-.23.33-.15.4-.28-.84-.39-.56-.07-.74-.11s-.32-.2-.43-.22,0,.18-.73-.15C497.24,246.2,497,246.1,496.8,246Zm-4.3,1.15c0-.22-.68-.65-.88-.91s.4.09.08-.18a1.51,1.51,0,0,1-.58-1.53c.32.08.36,0,.75.09,1,.4.48.49,1.5.76.27.29-.22.14.05.43,1,.38.72,0,.88-.16.4.16.45.24.87.4-.94-.12-.37.45-.62.72-.48-.17-.39-.23-.38-.3a4.53,4.53,0,0,0-1-.62c-.74-.1.1.21.34.4-.22.31-1.05.35-.44.9C492.72,247.08,492.57,247.1,492.5,247.17Zm0-1c.32.11.3,0,.51.05-.88-.38-.72-.09-.82,0C492.07,246.58,492.53,246.35,492.46,246.17Zm3.71.05c.23.11.11.14.4.26.49.19.18-.14.35-.16-.22-.09-.2,0-.27,0-.7-.25-.93-.51-.93-.27-.54-.33-.3-.27-.09-.34.05,0,.25.21.18.17.2.1,0-.27.14-.29.48.17.39.23.38.3.81.47,1.23.86,1.05,1.13a4,4,0,0,0-.65-.31c.25.2,1,.51.77.6-.58-.24-1-.36-.95-.23-1.3-.56-.68-.58-.91-.86.61.24.41.25.89.36C496.47,246.46,495.85,246.25,496.17,246.22Zm1.45,4.62c-.32-.13,0-.15-.39-.29.07-.1.09-.25.16-.33s.13-.33.84-.08c0,.14-.46-.06-.33.13l.67.25c.81.16.21-.21.45-.37.88.28.29.26.35.38s.33.29.35.37c.07.27-.26.41-.06.65-.58-.1-.39-.22-1.1-.46.93.3.94-.05.69-.32-.65-.2-1.08-.27-1.25-.17.57.24.82.28.74.13C499.28,251.11,497.81,250.72,497.62,250.84Zm-.94-5.62c-.88-.57.56,0,.47-.37-.38.07-.82-.23-.84-.45,1,.46.4,0,1.24.22.15.1.61.47.66.28.84.4.08.28.05.42-.51-.25-.06-.29-1-.63,0,0,.25.15.42.23l-.16.28c0,.09,1.09.38.82.5C497.6,245.5,496.78,244.86,496.68,245.22ZM495,251.36c-.14.13-.67-.11-.34.18C493.78,251.25,494.46,251.14,495,251.36ZM501.3,280c.52.16,0,.38.11.56C500.89,280.43,501.41,280.21,501.3,280Zm-5.87-28.46a3,3,0,0,0-1-.62c.11-.13.06-.36.83-.1-.49-.07-.3.22-.18.39s.2,0,.27,0C495.74,251.42,495.85,251.64,495.43,251.57Zm-6.2,27.69c-.42-.06-.52-.14-.43-.24a4.29,4.29,0,0,1-1-.11c-.38-.22-.24-.4-.35-.61s-.5-.69-.51-1c0-.08.27-.1.27-.11.11-.47-.55-1-.64-1.53,0-.09.33-.15.3-.24s-.44-.2-.43-.26.29-.12.29-.2c0-.33-.24-.78,0-1.1.66.15.63,0,1.19.15-.25-.23-.49-.07-1.18-.19-.14-.38.16-.5-.54-.77-.53-.19.26-.09.28-.14s-.7-.32.09-.33c-1.54-.2-.39-.2-.89-.39a6.49,6.49,0,0,1-1.23,0c.36.14.89.13,1.4.34.08.16-.47.09-.32.28l-.95-.15c-.13.14,1.25.23,1.36.47-.43-.07-.49-.14-.94-.21-.23.16.81.39.14.42.49.21,1,.42.81.66-.36-.12-.56-.25-.63-.39a5.06,5.06,0,0,0-.76.07c0,.11.51,0,.48,0,.37.08,0,.09.2.18s1.2.26.42.31-.25-.15-.44-.22-.88-.12-.92-.24c-1,0-.37.24-.6.4,1.12.17.22-.17.77-.13,1,.1.6.26,1.14.37-.26.13-.45,0-1.2-.13-.46,0-1.12,0-1,.18-.85-.13-1.49-.41-.66-.35-.18-.16-.47.06-1.19-.13-.56-.19.06-.22.08-.34s-.23-.14-.18-.23.6-.4.66-.64-.22-.17-.19-.23c.15-.34.57-.71.52-1.06,0-.16.24-.22.34-.34a9.12,9.12,0,0,1,1.83-2.2,3.64,3.64,0,0,1,.53-.09c.29-.11.1-.32.15-.52s.48-.12.12-.37c-.07-.17.67,0,.77-.08-.39-.33.44-.43,0-.79,0-.1.91.19.68.24.87,0-.21-.48-.59-.52.28-.12.34-.34,1.3-.16-1-.45.94-.42-.23-.88-.19-.14.48,0,.51,0s-.26-.14-.19-.19c.24-.16.88-.39,1-.66,0-.07,0-.25-.39-.34a2.69,2.69,0,0,1,.72.12c-.16-.3-.11-.51.22-.63,0,0-.28-.1-.45-.15.48-.07-.1-.31.59-.25.16-.07-.42-.17-.42-.25a.78.78,0,0,0,.64-.38c.05-.11-.06-.38-.09-.46s-.35-.29-.37-.39a1.29,1.29,0,0,1,.33-.94c.16-.25-.66-.77.26-.72-.05-.1-.4-.22-.4-.31s.29,0,.27-.07-.35-.37-.33-.48c.06-.27.57-.39.53-.7,0-.08-.19-.14-.18-.2s.3-.08.32-.15-.37-.25-.39-.31.25,0,.28-.07-.2-.16-.16-.25c.15-.34.54-.64.4-1,0-.09.3,0,.29-.06s-.8-.65,0-.69c-.62-.39.15-.45.08-.83.43.14.1.2.63.35.08-.1-.3-.25-.62-.39.44,0,.29-.24.41-.38s-.64-.25-.63-.35c0-.51.64-.76.53-1.23,0-.12-.33-.3-.34-.41,0-.32.47-.49.6-.76,0-.09-.18-.28-.11-.34s.43,0,.55-.07-.17-.21-.13-.3a3.54,3.54,0,0,1,.92-.88c.69.21,0,.2.09.38s.94.65-.14.31c-.19.11.76.38.57.49a1.81,1.81,0,0,0-.72-.15c.51.16.93.5.11.34.83.34.43,0,1.19.27,0,.34-.1.44-.06.72.87.34.46-.06,1.42.34-.63.12.64.78-.55.64a1,1,0,0,0,.66.27c.28.21-.65,0-.07.17-.11.08-.59-.25-.89-.34.4.48.6.76.09,1,.23.07.2,0,.27,0-.07.15.29.72-.34.77-.18.11.77.36.59.48-.35-.05-.5,0-.56.11s.14.14.42.23c-.14.06-.62.07.12.33.53.13.19-.21.37-.27.6.2,1,.29,1,.16s-.21-.12-.2-.16a2.39,2.39,0,0,1-.72-.13c.94-.9.45-1.58,1.32-2.42a2.28,2.28,0,0,1,.68.23c.09-.28,0-.57.32-.71,0-.06-.44-.18-.42-.24.18-.07.35-.15,1.23.18-.22-.2-.14-.19-.87-.39.17,0,.54.13.51,0a5.36,5.36,0,0,1,1.25.72c-.49,0-.36,0-.4.29-.83-.21-.07-.18-.62-.35s-.2.31.59.44c-.3.08.39.41-.15.33s-.41-.21-.4-.28c-.63-.15-.24.22.34.4a.48.48,0,0,0-.31.7c-.17.08-.63,0-.82.07,0,.06.44.17.42.23-.32.34-.1,1-.75,1.14-.79-.2-.3-.25-.37-.36-.86-.1.17.4.53.6a1.31,1.31,0,0,0-.81,1.36c-.44-.1-.21.08-.7-.17-.32.06.32.22.39.31-.46.24-.7.6-.64.95a1.43,1.43,0,0,1,0,.58c0,.13-.34.15-.36.28s.18.21.14.27-.47,0-.53,0a1.08,1.08,0,0,0,.27.65c.07.07.43.15.43.21-.36,0-.34.06-.34.24s-.59,0,.15.32c0,.14-.67,0-.58.18.28.06.23,0,.28-.07.9.29.17.22.14.32-.18.54,0,1.1-.6,1.68a1.79,1.79,0,0,0-.3.86c0,.08-.3,0-.3.12s.56.55-.4.42c.53.16.66.62.3.63-.09,0-.32-.18-.2-.19-.4-.11-.49.15.18.23-.42,0-.63.05-.57.24.23.06.19,0,.26,0,.48.3-.09.56,0,.84-.66,0-1.23.1-1.15.46.49.07.14-.21,1,0-.31.21.54.43.29.67s-.59.24-.64.43c-.27-.07-.17-.12-.19-.18-.66,0-.09.29.65.32,0,.11-.11.15-.52.08.61.4-.08.71.15,1.1-.67-.29-1,0-.55.17.87.14-.57-.34.53-.08-.07.43-.39.92-.35,1.23-.38-.08-.42,0-.72-.08l.67.26c-.06.19-.21.37-.16.58s-.4.62-.51,1c0,.09.18.23.17.31-.06.38-.48,1-.41,1.51,0,.16.33.33.37.48.1.31-.2.55-.19.84s.26.76.24,1.1c0,.08-.28.06-.28.15s.22.15.2.21-.62.17.16.38c-.22.54-.05.63-.27,1.16-.42,0-.48-.11-.94-.16l.08-.36c.06-.09-.84-.12-1.18-.19-.14.09.43.12.45.2s-.39,0-.5,0,.22.15.21.16S488.79,279.11,489.23,279.26Zm7-23c0-.1,1.1.16.34-.18C496.56,256.21,495.44,256,496.2,256.29Zm-2.63-2.9c.29,0,.38-.11.59-.15-.81-.3-1.45-.23-1.25-.13C493.09,253,493.24,253.3,493.57,253.39Zm-2.69-.41c.62.21,1,0,.61-.19C491.19,252.79,490.82,252.77,490.88,253Zm0,1.72c.19-.06.75-.18-.06-.47C491.17,254.5,490.37,254.38,490.91,254.7Zm4.6,2.67c.52.09-.09-.46-.34-.44C495.65,257.12,495,257.17,495.51,257.37Zm-5.09,1.79c.28-.05.33-.16-.1-.38C490.16,258.84,489.64,258.91,490.42,259.16Zm0,1.46c.55.13-.21-.19-.42-.26l-.14.4C490.65,261,490.22,260.67,490.39,260.62Zm.25,5.91c.15-.12-.24-.25-.63-.39C490,266.26,490,266.38,490.64,266.53Zm2,.69c-.2-.22,1.12-.3-.06-.63-.34.11-.13.05.19.19C493.51,267.08,491.14,266.86,492.68,267.22Zm.17,1.06c.44,0,.14-.25-.63-.41C492,268,492.56,268.15,492.85,268.28Zm-.5,0c0,.14-.57,0-.55.17C492.57,268.66,492.84,268.42,492.35,268.27Zm-6,.83.06-.18C485.33,268.63,485.51,269,486.34,269.1Zm0,.74c-.24-.3,1.19.08,1-.19a3.49,3.49,0,0,0-1.24,0c-.78-.09-.14-.19-.92-.28C485.21,269.54,485.91,269.69,486.38,269.84Zm-2.76,1.07-.05.19C484.47,271.29,484.54,271,483.62,270.91Zm2.29.7c.09-.13,0-.25-.4-.37a1.05,1.05,0,0,1-.49,0C485,271.38,485.31,271.5,485.91,271.61Zm-2.53,2.13a7.46,7.46,0,0,0-1.5.06c.82.21.77,0,1,0,.07,0,.39.07.47.07l.27-.05c.19,0,.12-.12.28-.16C483.2,273.46,483.45,273.66,483.38,273.74Zm-.63-.45.07-.24C482.11,272.86,482,273.25,482.75,273.29Zm1.77-.16c-1.2-.15-.22.22-1,.18.55.07.23.18.67.26C484.53,273.44,484.13,273.29,484.52,273.13Zm-2-.73c-.33.07.34.2.41.32s-.87.12.18.28C483.46,273,483.43,272.55,482.49,272.4Zm.67-.68c.11.14.14.28.89.4C483.94,272,483.91,271.84,483.16,271.72Zm6.2,5.87c.46.05,1,.12,1,0a4.87,4.87,0,0,0-1.42-.23C488.72,277.45,489.38,277.5,489.36,277.59Zm1.29.82a1.37,1.37,0,0,1,.49,0s.09.12.23.07c-.51-.17.23-.13.07-.31-1-.15-.68.08-.54.2C490.52,278.29,490.25,278.33,490.65,278.41Zm6.87-26.82c.05-.22-.4-.42-.7-.75a12.31,12.31,0,0,1,1.49.21,2.58,2.58,0,0,1,1.13.95c-.42-.24-.83-.47-.76-.62-.59-.23-.77-.22-.76-.08,1.11.44,2.23,1.4.41.82.07-.09.48,0,.09-.21-1.12-.2.24.66-.73.46l.91.33c.24-.1-.19-.3-.08-.42,1.33.39,1,.8.26.58.21.21.17.31-.14.33-.39-.18-.31-.28-.84-.49.07-.07.77.24.74.12s-.67-.25-.64-.32c-.31-.1-.24,0-.3.08-1-.39-1-.62-1-.78S497.48,251.75,497.52,251.59Zm-2.95-1,.06-.12c.48.29.44.09,1.14.36C495.75,251,495.13,250.74,494.57,250.56Zm1,1.21c-.22.12-.07.16-.34.18S494.91,251.46,495.6,251.77Z"/><path class="cls-2" d="M353.45,218.08c7.81-24.12,6.58-43.38,4.88-54.43-3.6-23.34-13.87-39.72-26.64-60.08-8.69-13.86-6.16-7.08-32.32-42.88a436.31,436.31,0,0,0-35.9-42.88c-12.35-13-17.6-16.83-23.31-16-8.36,1.14-13.57,11.67-20,28a480.88,480.88,0,0,0-20.25,64.85c-10.57,43.08-17.21,37.17-26,74.88-7,30-12.61,55.91-1.59,84.14,3.58,9.16,11.93,30.55,34.11,41.09a63,63,0,0,0,34,5.29"/><path class="cls-3" d="M333.49,243.37C345,223,326.26,191.58,315,172.73c-12.33-20.68-30.26-42.11-34.18-39.75-6,3.61,27.36,59.36,21.23,63.29-5.21,3.34-42.37-28.66-39.45-61.88,1.58-17.89,14.46-32.41,13.8-32.82-1-.64-22.81,40.19-31.65,37.34-8.3-2.68,3.33-45.08-1.6-46.49-5.5-1.58-36.32,46.42-21.12,81.58,9.92,22.94,36.53,33.68,35.38,35.5-1.57,2.49-46.37-25.32-51.77-18.58-3.07,3.83,8.5,16.48,5.67,19.41-4,4.1-29-18.29-33.6-14.19-5.4,4.81,29.74,35,38.89,85.89,2.47,13.76,1.59,20.94,7.18,24.06,12.42,6.93,29.89-21.14,78.92-44.81C322.34,251.8,328.68,251.89,333.49,243.37Z"/><path class="cls-2" d="M439.9,206.5c.18-29,8.43-49.49,14.25-60.87,12.29-24.07,29.33-38.17,50.51-55.69,14.41-11.94,9.24-5.49,50.51-35a499.42,499.42,0,0,1,54.39-33.68c18.08-9.66,25.17-12,31.08-9.06,8.67,4.24,10.56,17.55,11.66,37.56a550.05,550.05,0,0,1-1.3,77.7c-4,50.6,5.35,46.56,1.3,90.66-3.22,35.08-6.39,65.26-28.49,92-7.18,8.66-23.93,28.9-51.81,32.37-17.22,2.15-31.36-3-38.85-6.47"/><path class="cls-3" d="M442.27,234c-1-23.37,29.94-42.87,48.5-54.57,20.38-12.83,46.08-23.79,48.5-19.92C543,165.44,488,200,491.64,206.26c3.13,5.34,50.76-6.31,63.22-37.24,6.72-16.66,1.83-35.45,2.6-35.51,1.21-.1,2.09,46.17,11.26,47.64,8.62,1.38,17.49-41.69,22.52-40.71,5.62,1.09,11.31,57.85-18.19,82.28-19.25,15.94-47.83,13.45-47.63,15.59.27,2.92,52.81-1.52,54.56,6.93,1,4.81-15.05,10.83-13.86,14.72,1.68,5.46,34.14-3.14,36.38,2.6,2.63,6.74-42.4,17.74-73.62,58.9-8.45,11.14-10.92,17.94-17.32,18.18-14.2.54-17-32.4-50-75.74C448.38,246.56,442.69,243.76,442.27,234Z"/><path class="cls-4" d="M322.73,651.38c-13.52,30.79-42.06,43.79-74.46,58.58-18.51,8.45-27.75,12.67-38.71,11.92-23.47-1.61-32-19.16-63.54-24.83-9.3-1.67-9.79-.36-21.08-.64a677.23,677.23,0,0,1,4.19-89.7c5.88-53.89,13.1-73.47,23.83-90.34a122.58,122.58,0,0,1,16.24-20.45,148,148,0,0,1,29.43-.4c55,4.77,88.25,39.89,101.26,53.61,9.51,10,20,21.3,25.82,39.71C327.16,593.39,335.73,621.8,322.73,651.38Z"/><path class="cls-3" d="M169.2,495.92A122.58,122.58,0,0,0,153,516.37c-10.73,16.87-18,36.45-23.83,90.34a677.23,677.23,0,0,0-4.19,89.7c-1.81,0-4.49-.1-7.71-.35-14.38-1.07-47.21-3.52-55.4-19-8.84-16.72,16.71-38,6.94-52.37-6-8.84-17.46-3.53-23-11-11.87-16,19.18-68.55,64.54-97.29A138.51,138.51,0,0,1,169.2,495.92Z"/><path class="cls-5" d="M464.52,625.24c5.89,5.21,15.53,8.22,24.13,8.13a43,43,0,0,0,15.93-3.77c24.66-11.59,35.68-68,27.92-113.94-3-17.82-7.7-27.21-16-31.49-10.13-5.24-21.69-.77-24.51.32-17,6.59-23.34,24.23-25.5,30.26a66,66,0,0,0-3.64,21.63C461.24,597.14,452,614.11,464.52,625.24Z"/><path class="cls-2" d="M321.6,490.76c-.46,4.38-1.08,10.81-1.7,18.65-.17,2.18-.45,5.19-.94,13.32-.64,10.67-.67,15.54-1.32,20.6-1.58,12.28-6.27,21.08-19.22,41.27-33.12,51.61-40,52.48-44.66,68.4-4.28,14.51-5.52,43,10.18,67.26,14.3,22.07,35.57,30,52.29,36.17,20.16,7.49,35.43,7.94,64.86,8.8,26.15.77,55.56,1.4,91.81-8.8,22.77-6.4,34.65-9.74,47.82-20.34,24.78-19.93,41.69-55.53,34.34-84.79-3.14-12.48-11.6-26.84-18.66-34.48-11.86-12.85-16.93-9.59-28.26-23.18-10.59-12.7-18.64-30.51-18.65-30.52s-4.81-19.5-9.05-38.44c-4.06-18.15-3.75-18.57-5.09-23.75-1.53-5.92-9.06-35.07-28.14-51.13-29-24.4-85.22-19.08-111.48,12.13A69.07,69.07,0,0,0,321.6,490.76Z"/><path class="cls-5" d="M362.65,207.55c6.88-14.07,4.14-28.23,1-46.19-4-22.66-13-38.35-19.45-49.35-7.66-13.08-15.4-22.06-30.88-40C289.4,44.27,288.38,48.26,275.6,30.9,258.86,8.18,256.75,3.11,249.75.89c-6.43-2-12.49,0-14.45.71-9.7,3.73-12.84,12.9-27.41,50.08-8.56,21.84-8,20-9.49,24.25-5.42,15.37-6.65,22-13.7,46.91-8,28.29-8.15,25.85-10.55,36.38a266.75,266.75,0,0,0-6.26,45.93c-1.75,38.11-2.78,57.28,10.2,73.72,16.81,21.29,43.66,23.55,51.61,24.22,5.64.48,15.71,1.21,19.32-4.34,2.14-3.27,1.41-7.81-1.82-16.1a125.71,125.71,0,0,0-17.26-30.75l-.51-.65c-.37-.47-21.21-28.32-25-34-13.69-20.62-15.93-70.23-7.09-112.31,3.43-16.31,7.73-27.74,14.76-46.39C224.35,26,230.48,9.78,238.77,7.84c20-4.7,61.58,45,71,103.53,10.79,66.85-26,111.61-7.94,125C315.44,246.4,350.83,231.74,362.65,207.55Z"/><path class="cls-2" d="M361.3,159.07a132.59,132.59,0,0,1,49.21,9.07c18.44,7.23,33.49,18.05,49.22,33.67,30,29.77,31.85,46.59,66,101,34.86,55.49,48.44,62.74,54.39,95.84,2.43,13.5,8.27,45.92-10.36,68.64-4.93,6-14.26,14.85-50.51,24.61-36.59,9.85-66.43,11.47-85.51,12.23-25,1-75.93,2.27-146.31-4.46-17.23-1.65-47.27-4.88-79-22-20.78-11.21-27.9-20.61-31.09-29.79-5.78-16.62,1.07-33.28,3.89-40.14,7.06-17.19,15-18.43,23.31-33.68,8.8-16.11,5.36-24.63,9.07-53.1,2.31-17.79,5.62-44.28,19.42-71.23,13.68-26.71,31.89-43.24,42.74-53.1,14.33-13,28.23-25.36,50.51-32.38A117.1,117.1,0,0,1,361.3,159.07Z"/><path class="cls-3" d="M525.72,482.89c1.76-4,5.06-13.42,1.48-30.95-3-14.54-6.47-31.59-22.11-44.2a57.26,57.26,0,0,0-32.42-12.53c-24.33-1.18-42.53,15-44.2,12.53s21.12-13.29,25.78-33.9c3.56-15.71-3.84-35.37-18.42-44.94-10.94-7.18-22.6-6.48-32.41-5.9-5.26.32-22.77,1.37-37.58,12.53-22.33,16.82-33.57,50.2-23.58,64.84,2.49,3.63,6.65,6.65,8.84,14,.79,2.64,3.39,11.31-1.47,17.68-3.75,4.91-11.19,7.47-14,5.16-2.2-1.82.28-5.12-1.47-11.06-1.5-5.07-5.62-10.45-11.06-11.78-1.93-.48-4.69-.6-11.05,2.21,0,0-15.74,5.39-19.86,13.93l0,.07c-1.91,4-1.65,7.39-1.9,7.4s.94-6.84-2.65-11.92c-1.16-1.64-2.76-2.86-6-5.3-4.44-3.38-5.48-3.16-6.29-5-1.3-2.92.75-5-1-8.28-.45-.86-1.27-2.41-2.65-2.65-2.87-.5-6.66,5-8.27,9.93-1.37,4.21-.89,7.19-1.66,7.29s-2.49-3.71-2.65-7.62a18.4,18.4,0,0,1,2.32-9.27c2.23-4.3,4.58-5.7,8.28-9.6,1.19-1.25,6-6.27,8.6-11.58,2.07-4.16,1.84-6.51,1.74-30.49,0-8.06,0-9.39-.51-12a40.52,40.52,0,0,0-7.85-17.74c-6-7.48-17.8-15.43-32.11-13.57-12.25,1.6-23.09,10-27,20-5,12.74-.88,33.62,2.33,39.2.32.56,1.7,2.82.85,4.39-.62,1.15-2.06,1-4.86,2.44,0,0-.89.41-3.77,2.16-24.49,14.86-30.44,40.81-30.44,40.81-.67,2.95-3.43,16.05.66,28.68,14.26,44.06,102.66,54.55,140.63,59.05,18.16,2.16,33.67,2.7,64.68,3.78,6.36.22,34.4,1.13,71.16-1,14.45-.83,57.47-3.71,68.95-21.4A43.83,43.83,0,0,0,525.72,482.89Z"/><path class="cls-6" d="M357.35,366.43a23,23,0,0,1,6.06-10.27A22.51,22.51,0,0,1,367.8,353c6.15-3.44,12.23-3.15,15.43-3,3,.19,16.65,1,24.55,11.8a29.82,29.82,0,0,1,5.16,12.63,45.13,45.13,0,0,1,0,12.87s-.05.34-.09.66c-1.29,8.77-7.35,20.07-8.41,19.64-.89-.37,3.19-8.41,3.78-22.19.24-5.66-.27-8.55-.95-10.86a32.4,32.4,0,0,0-20.26-20.26c-2.27-.66-10.45-2.91-18.58,1.35a22.65,22.65,0,0,0-6.55,5.21"/><path d="M361.29,366.53c2.2-3.14,5.6-7.85,11.85-9.71,8.41-2.5,15.77,2,16.91,2.72,10.54,6.67,11.32,20.58,11.65,26.62.32,5.71.67,12-3.49,18.26-.55.81-5.94,8.61-15.94,10.1-10.56,1.58-20.15-4.79-24.86-12C347.37,387,360,368.43,361.29,366.53Z"/><path class="cls-3" d="M383.12,394.11a5.07,5.07,0,0,1,.4,6c-1.33,1.83-5,1.49-12.49.81-2.06-.19-3.12-.37-4-1.21-2.1-1.94-2.2-6.25-.41-7.66,1.54-1.21,3.23.71,8.87,1.21C380,393.7,381.71,392.71,383.12,394.11Z"/><path class="cls-6" d="M272.65,357a19.92,19.92,0,0,0-8-13.74c-5.26-3.95-10.93-4.43-13.91-4.65-2.77-.2-15.53-1.12-24.18,7.87a28.06,28.06,0,0,0-6.34,11,41.69,41.69,0,0,0-1.63,11.9V370c.1,8.28,4.3,19.49,5.34,19.22.86-.23-1.91-8.18-.74-21,.48-5.27,1.31-7.87,2.22-9.92a30.23,30.23,0,0,1,21.26-16.22c2.19-.33,10-1.4,17,3.55a21.2,21.2,0,0,1,5.41,5.63"/><path d="M269,356.56c-1.64-3.17-4.2-8-9.75-10.45-7.47-3.36-14.84-.11-16,.41-10.58,4.86-13,17.63-14.09,23.17-1,5.24-2.11,11,1,17.33a22.87,22.87,0,0,0,13.48,11.32c9.57,2.78,19.23-1.92,24.5-8C279.33,377.26,270,358.48,269,356.56Z"/><path class="cls-3" d="M245.38,379.35a4.77,4.77,0,0,0-1.12,5.55c1,1.86,4.49,2,11.45,2.3,1.93.08,2.94,0,3.88-.62,2.19-1.53,2.81-5.51,1.33-7-1.28-1.31-3.07.26-8.35,0C248.31,379.37,246.86,378.23,245.38,379.35Z"/><path class="cls-6" d="M288.44,419.77c.48.08.86-2.75,2.8-5.93,1.18-1.94,3-5,6.58-6.09.53-.17,4.66-1.39,8.07,1.15s3.45,6.66,3.47,7.36c.1,3.32-1.48,5.71-7.42,12.73-10.63,12.55-12.37,12.94-13.67,12.68s-1.78-1.28-6.42-8.89c-3.44-5.66-4.12-6.57-7.57-12.52s-4.44-7.93-4.78-11c-.23-2.16-.56-5.21,1.48-7.24,2.46-2.44,6.62-1.56,6.92-1.49,5.75,1.32,9.75,8.67,10.21,14.66C288.28,417.35,288,419.69,288.44,419.77Z"/><path class="cls-3" d="M416.83,683.32c19.6,4.57,36.72-1.8,51.12-7.15,7.5-2.79,11.33-4.25,14.84-7.69,12.44-12.18,12.93-37,2.75-52.78-9.75-15.1-21.44-9.75-30.23-23.64-9.44-14.9.92-26-2.2-56.07-1.66-16-4.19-40.42-20.34-50-18.08-10.75-48.49-.14-63.22,18.69-10,12.81-9.38,33.45-7.7,74.21,1.64,39.66,2.71,59.82,14.85,76.41C380.38,660.33,393.64,677.91,416.83,683.32Z"/><path class="cls-5" d="M356.19,721c.4,6.63,2.07,33.65,24.73,50,13.32,9.62,36.73,17.63,56.63,6.6C457.27,766.7,461,744,462.28,736.42c.63-3.81,4.23-27.92-11.54-49.48-3.51-4.8-10.82-14.8-24.19-19.79-23.57-8.81-53.78,2.5-65.42,24.19C355.06,702.66,355.73,713.68,356.19,721Z"/><path class="cls-5" d="M581.76,705c-.4,6.62-2.07,33.64-24.73,50-13.32,9.63-36.73,17.63-56.63,6.6-19.72-10.94-23.48-33.68-24.73-41.23-.63-3.81-4.23-27.92,11.54-49.48,3.51-4.8,10.82-14.79,24.19-19.79,23.57-8.81,53.78,2.51,65.42,24.19C582.89,686.61,582.22,697.62,581.76,705Z"/><path class="cls-7" d="M319,473.74a30.72,30.72,0,0,1-12.06-1.44,24.13,24.13,0,0,1-9.89-5.62,23.84,23.84,0,0,1-3.87-5,33.45,33.45,0,0,1-4.08-11.06,61.66,61.66,0,0,1-.78-8.91,48.63,48.63,0,0,1-1.06,9.41,17.59,17.59,0,0,1-1.95,5.42,15.82,15.82,0,0,1-5.93,5.5c-7.52,4.48-18.34,4.08-20.4,4"/><path class="cls-3" d="M406.47,269.12c5.21,1.43,9.48,2.67,12.87,6.58,8.62,10,2.41,26.72,1.66,28.67-6.52,16.89-23.51,23.5-30.91,26.37s-27.79,10.8-37.89.94c-6.49-6.32-5.44-16.83-4.76-23.67.38-3.82,2.61-26.15,22-36.86C384.18,263,399,267.06,406.47,269.12Z"/><path class="cls-3" d="M248,300c-5.2,1.47-9.47,2.74-12.83,6.68-8.55,10-2.23,26.73-1.46,28.67,6.63,16.85,23.67,23.34,31.08,26.17s27.86,10.61,37.9.68c6.44-6.37,5.33-16.87,4.6-23.7-.41-3.82-2.78-26.13-22.23-36.71C270.28,293.68,255.51,297.84,248,300Z"/><path class="cls-5" d="M433.68,191.75c-2.41-17.75,5.66-32.15,15.54-50.51,12.49-23.18,27.91-37,38.86-46.63,11.12-9.78,13.06-9.39,47.92-32.37C570.18,39.69,576.47,34,595.55,24.59c20.54-10.09,43-20.84,53.08-12.14,2.87,2.47,3.66,9.15,5.12,22.41,1.55,14.19,1.46,23.14,1.57,54,0,2.05,0,6.7-.4,12.89s-1,10.53-1.21,11.69c-1.63,12-1,28.53-.81,38.69,0,0,.44,19-.34,46.1-.42,14.71-1,33.48-3.69,50.62-4.77,30.08-10.73,67.56-40.35,86.67-26.26,16.93-56.21,9.82-64.75,7.77-6.3-1.51-17.5-4.34-19.43-11.66-1.14-4.32,1.28-9,7.77-16.84a143.24,143.24,0,0,1,29.79-27.19l.79-.53c.55-.36,32.93-22.9,39.36-28,26.4-20.81,40.38-82.17,43.6-123.9.56-7.32.64-16.16.81-33.85.47-51.51.7-77.26-6.49-82-18.24-12-82.56,25.82-114.33,86.94-35.73,68.73-11.9,130.54-36.27,138.58C471,250.9,437.83,222.27,433.68,191.75Z"/><path class="cls-5" d="M366.7,626c-4.19,6.66-12.59,12.25-20.87,14.58a43,43,0,0,1-16.35.87c-26.92-4.18-53.37-55.23-58.84-101.48-2.12-18-.27-28.28,6.46-34.71,8.25-7.89,20.6-6.85,23.62-6.59,18.2,1.52,29.21,16.68,33,21.86a66,66,0,0,1,9.57,19.73C361.94,598.08,375.63,611.75,366.7,626Z"/><path class="cls-2" d="M416.18,224c3.78-3.21,16.32-14.68,17.5-32.21,1.63-24.16-19.49-42-35.68-48.63-20-8.15-40.48-2.46-40.65,0-.16,2.24,16.65,1.94,27.67,14.37a30.56,30.56,0,0,1,6.77,12.71c1.08,4.27,1.78,11.23,0,11.86-2.45.85-5.54-11.66-17-22.41-3.33-3.12-14.4-13.51-29.31-13.15-12.48.31-25.11,8.1-24.56,13.56.5,5,11.51,4.51,15.24,11.86,4.1,8.07-3.39,20.09-10.16,28.79"/><path class="cls-3" d="M153.09,501.31c-2.88-3.06-10.4,2-23.92,5.1-21.95,5-28.66-1.83-41.15,1.23C68.51,512.41,59.11,538.83,49.43,566c-14,39.35-10.71,63.43-28.24,71.77C12,642.15.41,640.34,0,643.65c-.34,2.8,7.56,7,15.3,8.24,21.6,3.36,40.82-17.11,42.35-15.3,1.33,1.58-26.12,20.18-22.35,31.77,1.22,3.76,5.31,5.54,8.7,6.91C75.6,688,91.4,694.39,103.26,688.62c15.09-7.34,5.64-26.26,20.29-92,8.19-36.77,12.29-55.16,19.77-69.06C148.68,517.58,156.74,505.19,153.09,501.31Z"/></g></g></svg>