<svg xmlns="http://www.w3.org/2000/svg" viewBox="0 0 292.72 474.19"><defs><style>.cls-1{fill:#964a32;}.cls-2{fill:#f4ebd4;}.cls-3{fill:#050100;}.cls-4{fill:#d28f63;}.cls-14,.cls-5,.cls-9{fill:none;stroke-linecap:round;stroke-miterlimit:10;}.cls-5{stroke:#050100;}.cls-6{fill:#c68561;}.cls-7{fill:#14223c;}.cls-8{fill:#ce733e;}.cls-9{stroke:#000;}.cls-10{fill:#fff;}.cls-11{fill:#60270a;}.cls-12{fill:#fce5bc;}.cls-13{fill:#efd7af;}.cls-14{stroke:#efd7af;}.cls-15{fill:#1a2927;}.cls-16{fill:#87412e;}.cls-17{fill:#ef0750;}.cls-18{fill:#923524;}.cls-19{fill:#351406;}.cls-20{fill:#1e2a28;}.cls-21{fill:#f7f7f7;}</style></defs><g id="Camada_2" data-name="Camada 2"><g id="Pronto"><path class="cls-1" d="M117.42,280.8c.7.27.91,1.21,1.22,2.7.55,2.64,1,4.71-.26,6.61-.68,1-2.25,2.62-3.53,2.24-2-.59-3.13-6-1-9.3C114.71,281.81,116.34,280.38,117.42,280.8Z"/><path class="cls-1" d="M210.33,226.58c.26.56-1.25,1.45-3.75,4-6.2,6.22-7.69,11.5-10.25,15.49-2.9,4.51-8.86,7.2-20.78,12.59-15.91,7.19-23.87,10.79-33.09,10.2-4.46-.29-9.5-1.41-13.12,1.71-2.46,2.11-2.36,4.53-6.36,8.57-2.86,2.9-3.18,1.93-5.55,4.46-3.94,4.21-3.42,7.29-7.66,10.88-1.49,1.27-3.13,2.66-4.25,2.16-2.26-1-1.55-9.42,1.39-15.93,4.2-9.33,12.52-13.76,14.36-14.69,3.91-2,4.64-1.26,9.66-3.66A51.88,51.88,0,0,0,143.19,254c5.49-4.72,13.59-8.18,29.79-15.1C187.4,232.78,209.38,224.55,210.33,226.58Z"/><path class="cls-2" d="M116.71,267.09a2.48,2.48,0,0,0-.59,1.85c.15.57.66.75,1.25.95.4.15.64.23.92.11a2.28,2.28,0,0,0,1-1.8c.08-.78-.23-1.79-1-1.92S116.8,267,116.71,267.09Z"/><path class="cls-3" d="M74.44,472.78c0,.42-.68.8-.93.93-3.16,1.69-21.76-1.43-21.4-3.72.1-.65,1.92-.91,2.79-.93,1.69,0,2.57.72,5.58,1.86a18.79,18.79,0,0,0,2.8.93c3.64.77,5.44-.83,9.3,0C74.3,472.22,74.43,472.64,74.44,472.78Z"/><path class="cls-3" d="M93.82,470.9c-.11.4.52.91.75,1.09,2.79,2.24,21.64,2.63,21.72.32,0-.66-1.72-1.25-2.57-1.44-1.66-.35-2.66.24-5.84.8a20.41,20.41,0,0,1-2.91.39c-3.72.08-5.19-1.83-9.14-1.73C94.06,470.37,93.86,470.76,93.82,470.9Z"/><path class="cls-4" d="M139.67,340.64c1,.95,3,3.39,1.36,21.71a234.46,234.46,0,0,1-4.75,30.54c-8.67,38.8-13.13,58.32-19.68,64.45-1.37,1.29-8.33,7.56-6.78,10.86.88,1.89,4.13,1.89,4.07,2.71-.1,1.17-6.64,1.47-10.86,1.36-5.23-.14-6.27-.88-6.78-1.36-2.36-2.21-1.61-6.51-1.36-8.14,1.38-8.95-1.26-18.08-1.36-27.14-.2-19.14-1.81-16.39-1.35-28.5.41-10.81,1.63-11.5,2.71-27.14,1.12-16.24-.14-16.42,1.36-20.35C102.7,342.72,131.09,332.76,139.67,340.64Z"/><path class="cls-4" d="M54.1,336.19c-1,.63-3.74,2.73-5.47,21.05a213.46,213.46,0,0,0-.55,31.57c2.28,52.26.77,58.51,6.41,66.33,1.12,1.56,6.73,9,4.59,11.95-1.23,1.69-4.42,1.07-4.52,1.89-.13,1.17,6.25,2.71,10.4,3.4,5.16.87,6.33.34,6.92,0,2.74-1.72,2.82-6.09,2.89-7.74.35-9.05,4.68-17.51,6.5-26.38,3.86-18.75,4.91-15.75,6.77-27.72,1.66-10.69.59-11.6,2.51-27.15,2-16.16,3.27-16.1,2.55-20.24C90,345.27,64,330.09,54.1,336.19Z"/><path class="cls-5" d="M55.12,469.77c.06-.13,1.92-.64,2.73-1.83"/><path class="cls-5" d="M55.36,469.93a10.22,10.22,0,0,1,3.9-.2A10.89,10.89,0,0,1,65.4,473"/><path class="cls-5" d="M113.36,471.7c0-.14-1.77-1-2.35-2.31"/><path class="cls-5" d="M113.1,471.65a10.11,10.11,0,0,0-3.79-.93,10.83,10.83,0,0,0-6.64,2"/><path class="cls-6" d="M97.6,209c-1.15,10.23,0,12.21,0,12.21,2.26,3.38,6.21,2.41,9.5,5.43,4.42,4,3.25,10.83,3.4,17,.12,5.12,3.69,13.37,10.85,29.85,6.63,15.26,11.13,22.52,14.93,36.64.69,2.57,1.15,4.53,1.36,5.43,2,8.8,3.75,16.72,2.71,25.78-.49,4.23-2.2,19.18-12.89,25.1a14.43,14.43,0,0,1-2.31,1.08c-4.34,1.55-11.23,1.34-37-1.08-11.45-1.07-13.33-1.33-16.29-2.71-11.72-5.47-16.45-17.37-17.64-20.35-4.18-10.52-2.93-19.72-1.36-31.21,1-7.44,1.85-7.6,6.79-25.79,6.9-25.4,10.35-38.11,9.5-43.42-.72-4.52-2.74-12.52,1.36-16.28,2.36-2.18,5.12-1.41,6.78-4.07s-.28-4.68,0-10.86c.18-3.9.33-7.36,2.71-9.5,3.09-2.77,8.61-2.13,12.22,0A12.91,12.91,0,0,1,97.6,209Z"/><path class="cls-3" d="M106.12,53.5c2.08,0,3-1,6.71-1,1.93,0,3.34.07,4.8,1s1.8,1.94,2.88,1.93,1.39-1.2,2.87-1.93c1.65-.82,3.39-.37,4.8,0a10.82,10.82,0,0,1,5.76,3.86,12.32,12.32,0,0,1,1.91,3.86,20.41,20.41,0,0,1,1,4.83c.07,0-1.13-6.34,0-6.76.92-.34,3.39,3.17,4.8,6.76a27.08,27.08,0,0,1,1,15.44c-1.44,5.3-3.86,6.76-2.88,9.66.88,2.57,3.6,3.83,5.76,4.82,3.85,1.78,8.94,2.4,9.59,1,.79-1.74-5.53-5.26-4.8-6.76.6-1.22,5.81-1,8.64,1.93,2.41,2.53,2.24,6.17,1.92,11.59-.45,7.46-2.31,9-1.92,15.44.22,3.6.8,3.1,1,6.76,0,1.27,0,2.8-1.92,13.51-1.3,7.07-2.27,7.9-2.88,8.69-.8,1-3.12,4.06-5.22,3.65-2.4-.47-3.49-6.52-5.59-18.61-2.57-14.85-2.55-14.85-2.79-15.82-2.53-10.3-4.3-17.51-10.38-22.31a47.46,47.46,0,0,0-13.43-6.76c-4.65-1.54-6.25-1.37-25.9-2.9a192.8,192.8,0,0,0-20.15-1c-5.34.08-8.09.14-11.51,1A36.93,36.93,0,0,0,43.76,94c-2.35,2.2-5.12,6.64-10.55,15.45-4,6.53-6.05,9.79-6.72,11.58-2.67,7.16-2.35,13.55-1.92,22.21.3,5.89.95,8.68,1,16.41,0,9.62-1,11-1.92,11.58-3.82,2.45-11.95-4.32-15.34-7.72-5-5.05-10-13.09-7.68-16.41,1.25-1.79,3.71-.94,4.8-2.9,1.3-2.35-1.68-4.57-2.88-9.65-1.11-4.73,1-4.74,1.92-16.41.33-4.26.22-6.52,1.92-7.73,2.38-1.69,6.12.24,6.71-1s-2.74-2.69-2.88-5.79c-.08-1.92,1.14-2.23,1.92-4.83,1.28-4.26-1.31-5.64,0-8.69.58-1.34,1-.82,6.72-5.79,1.35-1.17,2.49-2.21,2.88-1.93.57.41-1.61,3-1,5.79.52,2.31,2.81,4.28,3.83,3.86,1.28-.51-.32-4.33,1-9.65a21.59,21.59,0,0,1,3.84-7.72,26.78,26.78,0,0,1,11.51-9.66c2.54-1,6-2.5,8.64-1,.76.44,1.56,1.21,1.92,1,.55-.39-1-2.56-1-4.82,0-2.52,2-4.62,4.79-6.76C62,48.34,69.21,42.76,80.21,42.88c4.4,0,11.65.12,17.27,4.83C100.44,50.18,102.42,53.49,106.12,53.5Z"/><path class="cls-7" d="M141.44,324.83c1.16-.06,3.44,14.64,4.65,28.6,2,23.16,3.46,41.94-5.58,45.28-1.64.6-2.53.29-6.51,0-23.5-1.76-38.39,5.54-41.88.79-.74-1-.49-3.59,0-8.74.22-2.26.41-2.69.93-6.35.1-.71,1.34-9.48.93-9.54S92.08,380,91.19,386c-1.4,9.49.37,11.58-1.86,13.5-3.73,3.21-10.46-1.13-24.19-1.59-14.7-.49-17.74,4.13-22.34,1.59-6.86-3.79-3.42-19.79,3.73-51.63.46-2.07,5.09-22.49,7.44-22.25.76.08.45,2.22,1.86,4,3.89,4.82,17,2,25.13.8,32.08-4.7,55.12,6.18,59.55-1.59C141.6,326.9,141,324.85,141.44,324.83Z"/><path class="cls-4" d="M102.85,229.2c-.18.6,1.49,1.27,4.41,3.43,7.25,5.34,9.58,10.46,12.8,14.11,3.63,4.12,10.09,5.92,23,9.54,17.25,4.83,25.87,7.24,35.13,5.21,4.47-1,9.41-2.9,13.57-.3,2.82,1.76,3.09,4.23,7.77,7.7,3.35,2.49,3.53,1.47,6.32,3.67,4.64,3.65,4.6,6.85,9.44,9.83,1.71,1.06,3.6,2.22,4.65,1.53,2.13-1.39.11-9.79-3.87-15.93-5.72-8.8-14.84-12-16.84-12.66-4.27-1.4-4.9-.57-10.36-2.22a53.34,53.34,0,0,1-13.72-6.49c-6.29-3.93-15-6.19-32.53-10.69C127.05,231.92,103.49,227,102.85,229.2Z"/><path class="cls-4" d="M73.07,225.41c.51.37-.39,1.92-1.36,5.43-2.41,8.67-1.08,14.15-1.36,19-.31,5.48-4.28,10.89-12.21,21.71C47.55,286,42.25,293.22,33.71,297.33c-4.12,2-9.18,3.53-10.85,8.14-1.13,3.13.17,5.24-1.36,10.86-1.1,4-1.87,3.33-2.71,6.78-1.4,5.74.61,8.23-1.36,13.57-.69,1.89-1.46,4-2.71,4.07-2.53.23-6.13-7.63-6.79-14.92-.94-10.45,4.26-18.61,5.43-20.36,2.5-3.73,3.51-3.47,6.78-8.14a53.43,53.43,0,0,0,6.79-13.57c2.52-7,8-14.15,19-28.5C55.71,242.49,71.19,224.07,73.07,225.41Z"/><path class="cls-4" d="M21,312.54c.77,0,1.33.79,2.21,2.08,1.55,2.29,2.77,4.09,2.33,6.37-.24,1.25-1.12,3.36-2.47,3.5-2.14.23-5.33-4.51-4.54-8.45C18.86,314.55,19.85,312.56,21,312.54Z"/><path class="cls-4" d="M23.16,156.06c-2.44-1.63-4-1.8-5.09-1.7-3,.27-5.28,2.88-6.23,5.1-1.49,3.46-.15,6.75.56,8.49a13.39,13.39,0,0,0,6.8,7.37,12.22,12.22,0,0,0,8.5.56c1.51-.48,3-1,4-2.26C34.62,169.48,29.46,160.26,23.16,156.06Z"/><path class="cls-4" d="M54.39,80.71c-6.51,2.18-10.4,4.36-13.63,6.82a45.7,45.7,0,0,0-11.68,13.63,60,60,0,0,0-7.79,19.47c-1.06,4.88-2.86,15.13-1,35.05,2,21.52,3.09,32.28,9.74,38.94a16.65,16.65,0,0,0,1.64,1.4,125.19,125.19,0,0,0,12,6.39c8.94,4.16,15.9,6.05,29.83,9.82,8.94,2.43,11.62,2.83,14.89,2.8a45.63,45.63,0,0,0,14.67-2.89c5.23-1.73,9.06-3.79,16.55-7.78,3.12-1.68,5.21-2.93,6.83-3.9a66.5,66.5,0,0,0,6.36-4.13,52.33,52.33,0,0,0,5.32-4.63c3.68-3.66,9.63-9.58,11.67-18.5.62-2.74.42-7.34,0-16.55-.16-3.4-.36-7.82-1-13.63a147.93,147.93,0,0,0-3.89-23.36c-1.69-6.36-3.7-14-7.79-20.45-12.45-19.8-39.82-22.65-46.73-23.37C74,74.14,61.53,78.32,54.39,80.71Z"/><path class="cls-4" d="M144,150.66c1.55-2.49,2.91-3.29,3.94-3.65,2.88-1,6,.43,7.78,2.06,2.79,2.54,2.93,6.09,3,8a13.33,13.33,0,0,1-3.14,9.51,12.17,12.17,0,0,1-7.5,4c-1.57.19-3.16.38-4.55-.42C139.14,167.62,140,157.09,144,150.66Z"/><path class="cls-3" d="M137.72,123.83c1.08.51,3.63-1.43,4.65-3.72.63-1.41.6-2.78.93-2.79s.59,1,.93,2.79c.85,4.54.28,5.51.93,8.38.74,3.2,1.7,3,1.86,5.58.12,1.79-.31,2.59-.93,5.58,0,0-.31,1.52-.93,6.52-.71,5.73-.53,15.57.93,15.82s5.07-10.89,6.52-22.34c1-7.61,1.74-14.43-.93-22.33-1.71-5-2.5-3.13-8.38-14-4.58-8.44-5.49-12.06-10.23-16.75A33.31,33.31,0,0,0,125.62,81c-9.25-5-20.74-5-21.4-2.79-.92,3.12,20.23,8.61,28.85,23.26,2,3.45,4.39,7.47,4.65,13C137.94,119.42,136.42,123.23,137.72,123.83Z"/><path class="cls-3" d="M26.05,122c.53-.13,1,1.09,1.87.93a1.36,1.36,0,0,0,.93-.93c.27-1-.82-1.53-1.86-3.72-.62-1.28-.69-2-1-2s-.73,1.72-.93,2.79c-.85,4.54-.28,5.51-.93,8.37-.73,3.21-1.7,3-1.86,5.59-.12,1.79.31,2.59.93,5.58,0,0,.31,1.52.93,6.51.71,5.73.53,15.57-.93,15.82S18.14,150,16.69,138.56c-1-7.62-1.74-14.43.94-22.33,1.7-5,2.5-3.14,8.37-14,4.58-8.44,5.5-12.06,10.24-16.75a33.11,33.11,0,0,1,7.44-5.58c6.43-3.48,18-6.91,21.4-2.8,4.32,5.17-3.61,22.79-13,24.36-3.62.61-7.48-1.19-14,.93a9.85,9.85,0,0,0-4.65,2.79,9,9,0,0,0-1.92,8.22c.82,2.66,2.53,2.56,2.85,4.81.45,3.17-2.53,6.15-4.65,7.44-.93.57-2.66,1.63-3.73.93C24.62,125.7,25.22,122.18,26.05,122Z"/><path class="cls-8" d="M97,158.64a15.57,15.57,0,0,0-10.87-6.76c-8-.9-13.09,5.2-13.43,5.62"/><path class="cls-9" d="M98.54,178a18.41,18.41,0,0,1-4.35,2.9,19.43,19.43,0,0,1-12.69,1.39c-3.13-.79-5.72-2.42-8.7-4.29-.91-.57-1.66-1.08-2.17-1.45"/><path class="cls-10" d="M99.81,142.74a14.88,14.88,0,0,1,2.07-8.28,16.22,16.22,0,0,1,10.35-7.24,16.63,16.63,0,0,1,10.35,1,16.46,16.46,0,0,1,9.32,11.39,17.73,17.73,0,0,1,.2,4.39c-.07,1.19-.28,4.9-1.89,7.59-3.25,5.41-11.47,5.59-12.8,5.61-1.8,0-9.71-.08-14.49-6.21A15.23,15.23,0,0,1,99.81,142.74Z"/><path class="cls-11" d="M109.91,133.33a10.6,10.6,0,0,1,8.28-1,11.63,11.63,0,0,1,5.18,3.11,12.11,12.11,0,0,1,3.1,6.21,9.91,9.91,0,0,1-1,7.24c-2.23,3.5-6.3,4-7.25,4.14a11.17,11.17,0,0,1-6.21-1,11.5,11.5,0,0,1-5.17-5.18,10.53,10.53,0,0,1-1-8.28A9.81,9.81,0,0,1,109.91,133.33Z"/><path class="cls-10" d="M68.59,144a15.21,15.21,0,0,0-1.9-7.58,16.23,16.23,0,0,0-10.29-7.56,16.57,16.57,0,0,0-10.35,1,17,17,0,0,0-9.31,11.38,17.54,17.54,0,0,0-.38,5.57,15.5,15.5,0,0,0,1.89,6.63c3.33,5.32,11.38,5.39,13,5.4S61,159,65.71,152.7A15.3,15.3,0,0,0,68.59,144Z"/><path class="cls-11" d="M58.72,135a10.62,10.62,0,0,0-8.28-1,11.55,11.55,0,0,0-5.17,3.1,12.1,12.1,0,0,0-3.11,6.21,9.91,9.91,0,0,0,1,7.25c2.22,3.5,6.29,4,7.24,4.14a11,11,0,0,0,6.21-1,11.53,11.53,0,0,0,5.18-5.17,10.58,10.58,0,0,0,1-8.28A9.85,9.85,0,0,0,58.72,135Z"/><path d="M112.59,139.25a5.23,5.23,0,0,1,4.13-.52,5.77,5.77,0,0,1,2.58,1.55,6,6,0,0,1,1.54,3.09,4.44,4.44,0,0,1-4.12,5.68,5.51,5.51,0,0,1-3.1-.52A5.7,5.7,0,0,1,111,146a5.27,5.27,0,0,1-.51-4.13A4.87,4.87,0,0,1,112.59,139.25Z"/><path d="M56.06,141a5.25,5.25,0,0,0-4.13-.51A5.71,5.71,0,0,0,49.35,142a6.07,6.07,0,0,0-1.54,3.1,4.43,4.43,0,0,0,4.12,5.67,5.62,5.62,0,0,0,3.1-.51,5.75,5.75,0,0,0,2.58-2.58,5.28,5.28,0,0,0,.51-4.13A4.91,4.91,0,0,0,56.06,141Z"/><path class="cls-3" d="M85.61,53.11c4.48.81,8.33,2.9,15.82,7.45,8.9,5.4,11,8.23,12.1,10.23A22.42,22.42,0,0,1,116.32,81a22.16,22.16,0,0,1-2.79,12.1c-1.19,2.06-4.8,8.33-10.24,8.37-4.18,0-7.85-3.64-7.45-4.65s5.26.94,6.52-.93c1-1.45-.53-4.68-2.79-6.52-3.57-2.89-8.68-2.06-10.24-1.86C76.22,89.22,54.58,78.43,54,69.86,53.39,61.75,71.32,50.53,85.61,53.11Z"/><path d="M69.6,146.4c.47-.06.66-3.23-.06-6.16a15.3,15.3,0,0,0-2.85-5.69,19.6,19.6,0,0,0-6.63-5.69A15.3,15.3,0,0,0,51.52,127,16.62,16.62,0,0,0,43,130.76a23.3,23.3,0,0,0-1.89,1.9,27.6,27.6,0,0,0-2.85,3.79c-2.37,3.91-3.1,8.45-2.84,8.53s.67-3.2,2.84-6.64c.51-.8,6.68-10.31,16.12-9.48,5.85.52,9.61,4.72,10.43,5.69C69.21,139.77,68.92,146.5,69.6,146.4Z"/><path d="M99.69,144.62c-.47-.06-.66-3.23.06-6.16a15.3,15.3,0,0,1,2.85-5.69,19.39,19.39,0,0,1,6.63-5.68,15.2,15.2,0,0,1,8.54-1.9A16.62,16.62,0,0,1,126.3,129a25.15,25.15,0,0,1,1.89,1.9,27.6,27.6,0,0,1,2.85,3.79c2.37,3.91,3.1,8.45,2.84,8.53s-.67-3.19-2.84-6.63c-.51-.81-6.68-10.32-16.12-9.48-5.85.51-9.6,4.71-10.43,5.68C100.08,138,100.37,144.72,99.69,144.62Z"/><path class="cls-10" d="M110.94,140.71c1.85.19,3.88,1.18,3.79,1.9s-2.15,1.11-3.79.95c-1.86-.19-3.89-1.18-3.8-1.9S109.29,140.55,110.94,140.71Z"/><path class="cls-10" d="M47.55,141.84c1.85.18,3.88,1.18,3.79,1.89s-2.14,1.11-3.79,1c-1.85-.19-3.88-1.18-3.79-1.9S45.9,141.67,47.55,141.84Z"/><path class="cls-10" d="M121,144.89a1.67,1.67,0,0,1,1.92,1.6,1.54,1.54,0,0,1-1.33,1.34,1.65,1.65,0,0,1-1.76-1.72A1.52,1.52,0,0,1,121,144.89Z"/><path class="cls-10" d="M56.29,146.55a1.67,1.67,0,0,1,1.92,1.6,1.54,1.54,0,0,1-1.33,1.34,1.65,1.65,0,0,1-1.76-1.72A1.5,1.5,0,0,1,56.29,146.55Z"/><path class="cls-3" d="M71.3,112.22c2.31,2.27,2.81,6.71,1,8.56-.71.71-1.72,1-9,.14-6.17-.73-6.18-1-8.64-1.13-4.27-.18-7.5.57-11.48,1.5a62.07,62.07,0,0,0-10.57,3.14c-1.87.77-3.29,1.48-3.74,1-.63-.71,1.1-3.48,2.94-5.35a17.9,17.9,0,0,1,5.93-3.8,62,62,0,0,1,10.12-4,52.27,52.27,0,0,1,17.12-1.93C68.68,110.59,70.17,111.11,71.3,112.22Z"/><path class="cls-3" d="M95.21,112.29c-2.31,2.28-2.81,6.71-1,8.56.7.71,1.72,1,9,.15,6.17-.73,6.17-1,8.64-1.13,4.27-.19,7.49.56,11.48,1.49A63.34,63.34,0,0,1,134,124.5c1.87.77,3.29,1.48,3.73,1,.64-.71-1.1-3.48-2.93-5.36a17.85,17.85,0,0,0-5.94-3.8,62.87,62.87,0,0,0-10.12-4,52.25,52.25,0,0,0-17.12-1.92C97.83,110.66,96.34,111.18,95.21,112.29Z"/><path class="cls-10" d="M167.24,387.5a2.82,2.82,0,0,1-.36,2.18c-.44.5-1.06.41-1.76.32-.49-.07-.76-.1-1-.38a2.58,2.58,0,0,1-.09-2.35c.33-.82,1.16-1.69,2-1.41S167.21,387.34,167.24,387.5Z"/><path class="cls-12" d="M100.5,221.44a12.4,12.4,0,0,1-.93-2.28c-.37-1.2-.33-1.7-.59-1.8-.65-.25-1.21,2.38-3.14,4.08-2.2,1.95-4.32,1-4.65,2.28-.42,1.62,3.13,3.43,2.79,5.69-.21,1.41-1.74,1.26-2.79,3.41s-.53,4.48-.93,4.55-.57-4-2.79-5.69c-1.63-1.21-3.09-.08-3.72-1.13-1.08-1.82,2.8-5.85,1.86-8-1.2-2.7-8.74.89-10.24-2.28-.64-1.36.09-3.39,0-3.41s-.24,3.87-1.86,6.83c-1.81,3.29-4.14,2.06-5.58,4.55-1.76,3,.39,6.63.93,13.66.26,3.38,0,6.42-.93,12.52-1.72,11.86-4.94,14.27-11.17,34.09-2.14,6.83-3,10.44-4.65,17.68a63.89,63.89,0,0,0-1.86,11.16c-.3,4.73.27,5.49,0,9.91-.56,8.91-3,9.76-1.86,12.52,1.82,4.51,7.54,5.33,26.05,5.69,5,.1,6.48-.18,8.66-.14,1.29,0,1.62.12,3.07.22,4.06.3,6.08.45,6.88-.28,1-.95.41-2.45,0-7.44-.3-3.69-.4-8.33,0-8.38s1.47,3.45,1.86,7.45c.5,5.05-.51,7.3.93,8.57s3.44.49,5.59,0c3.27-.74,14.52-1.28,23.69-2a70.31,70.31,0,0,1,7.95-.24,10.6,10.6,0,0,0,6.51-2.28c3.76-3,3.25-9.59,2.79-13.33a104.3,104.3,0,0,0-10.23-33.5,264.86,264.86,0,0,1-19.55-46.5h0c-2.09-17.55-5-22.29-7.44-22.76-.9-.16-2.74.28-3.72-1.13h0A9.89,9.89,0,0,0,100.5,221.44Z"/><path class="cls-12" d="M99.3,229.28c.85-2.05,4.38-2.37,11.43-3,13.35-1.22,26.13-2.39,32.5,5.88,5.93,7.7,5.21,22.1-1.17,26C130.12,265.35,96,237.18,99.3,229.28Z"/><path class="cls-12" d="M73.08,224.86c-2-1-4.92,1-10.78,5.15-11.07,7.77-21.68,15.21-21.19,25.75.45,9.8,10.41,20.43,17.86,19.23C72.89,272.77,80.79,228.79,73.08,224.86Z"/><path class="cls-13" d="M81,229.91c-1.83.06-2.1-2.34-6.52-4.65-1.65-.86-2.49-1-2.79-1.86s.76-2.37,2.79-5.58c.32-.5.53-.83.93-.93,1.13-.29,1.93,1.68,3.73,2.79,2.81,1.73,5.35-.35,6.51.93C87.34,222.51,84.12,229.82,81,229.91Z"/><path class="cls-13" d="M94.64,229c2,.41,2.62-2,7.31-3.26,1.63-.43,2.78-.46,3.1-1.27s-.6-1.45-1.76-3.88-1-3.3-1.86-3.72c-1.2-.57-2.8.38-3.72.93-2,1.21-2.12,2.39-3.73,2.79s-2.2-.47-2.79,0C89.79,221.72,91.56,228.38,94.64,229Z"/><path class="cls-14" d="M92.7,329.63q-.09-3-.11-6.32c-.12-16.21,1.18-16.32.93-29.59-.3-16-2.34-23.73-1.86-35.29.14-3.41-.26-6.84,0-10.24.28-3.66.88-7.42-.93-10.25a6.72,6.72,0,0,0-.44-.6"/><ellipse class="cls-7" cx="93.52" cy="289.47" rx="1.4" ry="1.86"/><ellipse class="cls-7" cx="91.11" cy="237.53" rx="1.4" ry="1.86"/><ellipse class="cls-7" cx="93.52" cy="314.59" rx="1.4" ry="1.86"/><ellipse class="cls-7" cx="91.66" cy="263.41" rx="1.4" ry="1.86"/><path class="cls-15" d="M247.77,99.08l.28.29c3.94,4,9.53,5.95,12.23,5.85,9-.33,18-24.15,11.45-30.7-5.38-5.37-21.58.57-21.4,2.42.21,2.29,26.34,5.64,32.06-4,3.05-5.14.46-14.25-4.74-17.44-6-3.68-14.31-2.39-14.62-.76-.25,1.29,4.36,4.25,8.08,3.47,5.92-1.24,9.5-11.9,8.4-19.67C277.14,22,251.87,8.29,237.59,15c-7.22,3.38-13,12.59-10.94,16,1.38,2.3,6.93,2.67,9.12.31,4-4.34-1.33-19.83-11.31-26.66C207.94-6.74,177.72,5,175.2,17.84c-1.74,8.89,9.48,19.59,10.24,19.13.93-.57-6.56-22.36-19.32-24.56-9-1.55-16.7,7.31-17.63,8.39-7.73,9.13-9,24.61-1.1,32.49,6.45,6.46,18.08,6.87,18.91,4.8.93-2.32-9.86-12.16-19.63-10.18S131,63.57,133.18,74.56c2,10.25,11.32,19.47,19.46,18.91,8.58-.59,14.56-12,15.79-11,1.44,1.09-8.14,12.94-4.6,18.09,1.92,2.78,6.87,2.44,9,2.3,11.76-.76,33.24-.55,64.66.65"/><path class="cls-1" d="M159.22,336.75c-1,.92-2.92,3.3-1.33,21.17a226.07,226.07,0,0,0,4.64,29.77c8.44,37.84,12.8,56.88,19.18,62.86,1.34,1.25,8.13,7.36,6.62,10.58-.87,1.85-4,1.84-4,2.65.09,1.14,6.47,1.43,10.58,1.32,5.11-.13,6.12-.86,6.62-1.32,2.3-2.16,1.57-6.35,1.32-7.94-1.34-8.73,1.23-17.63,1.33-26.47.2-18.66,1.77-16,1.32-27.78-.4-10.55-1.6-11.23-2.65-26.47-1.09-15.84.14-16-1.32-19.85C195.27,338.77,167.59,329.07,159.22,336.75Z"/><path class="cls-1" d="M242.66,332.4c1,.62,3.65,2.67,5.34,20.53a209.31,209.31,0,0,1,.53,30.79c-2.22,51-.75,57.06-6.25,64.68-1.09,1.52-6.57,8.79-4.48,11.65,1.21,1.65,4.32,1,4.41,1.85.12,1.13-6.09,2.63-10.14,3.31-5,.85-6.17.33-6.75,0-2.67-1.68-2.75-5.94-2.81-7.55-.35-8.82-4.57-17.07-6.35-25.72-3.75-18.28-4.78-15.36-6.6-27-1.62-10.43-.57-11.32-2.45-26.48-1.94-15.76-3.19-15.69-2.48-19.74C207.65,341.26,233,326.46,242.66,332.4Z"/><path class="cls-16" d="M200.24,208.39c1.12,10,0,11.91,0,11.91-2.2,3.3-6.06,2.36-9.27,5.3-4.3,3.94-3.16,10.56-3.3,16.54-.12,5-3.61,13-10.59,29.11-6.46,14.88-10.85,22-14.55,35.73-.68,2.5-1.13,4.41-1.33,5.29-1.92,8.58-3.66,16.31-2.64,25.14.47,4.12,2.14,18.7,12.57,24.48a14.13,14.13,0,0,0,2.25,1.05c4.23,1.51,11,1.31,36.12-1.05,11.16-1.05,13-1.3,15.88-2.65,11.42-5.33,16-16.93,17.2-19.85,4.08-10.25,2.86-19.22,1.32-30.43-1-7.25-1.8-7.41-6.61-25.14C230.56,259,227.2,246.66,228,241.48c.71-4.41,2.67-12.22-1.32-15.88-2.31-2.12-5-1.38-6.61-4s.27-4.56,0-10.59c-.18-3.8-.33-7.18-2.65-9.26-3-2.7-8.39-2.08-11.91,0A12.56,12.56,0,0,0,200.24,208.39Z"/><path class="cls-2" d="M159,325.69c-1.13-.06-3.35,13.92-4.53,27.18-2,22-3.36,39.86,5.44,43,1.6.58,2.47.28,6.34,0,22.89-1.67,37.39,5.27,40.78.76.73-1,.49-3.42,0-8.31-.21-2.15-.39-2.56-.9-6-.1-.67-1.31-9-.91-9.06s1.86,4.88,2.72,10.57c1.37,9-.36,11,1.81,12.84,3.64,3,10.19-1.08,23.57-1.51,14.31-.47,17.27,3.92,21.75,1.51,6.68-3.6,3.33-18.81-3.63-49.08-.45-2-5-21.36-7.25-21.13-.74.07-.43,2.11-1.81,3.77-3.79,4.57-16.59,1.88-24.47.76-31.25-4.47-53.69,5.87-58-1.51C158.89,327.66,159.46,325.71,159,325.69Z"/><path class="cls-1" d="M224.16,224.38c-.49.36.38,1.88,1.33,5.29,2.34,8.46,1,13.8,1.32,18.53.31,5.35,4.18,10.62,11.91,21.17,10.33,14.09,15.49,21.13,23.82,25.14,4,1.94,9,3.44,10.58,7.94,1.11,3.05-.17,5.11,1.33,10.59,1.07,3.93,1.82,3.24,2.64,6.61,1.36,5.6-.59,8,1.33,13.24.67,1.83,1.42,3.86,2.64,4,2.47.21,6-7.45,6.62-14.56.92-10.19-4.15-18.14-5.29-19.85-2.44-3.64-3.42-3.38-6.62-7.94a52.52,52.52,0,0,1-6.62-13.23c-2.46-6.81-7.81-13.8-18.52-27.79C241.09,241,226,223.08,224.16,224.38Z"/><path class="cls-1" d="M274.9,309.34c-.75,0-1.3.77-2.15,2-1.52,2.23-2.71,4-2.28,6.21.23,1.22,1.09,3.28,2.41,3.42,2.09.22,5.19-4.4,4.43-8.24C277,311.31,276.06,309.37,274.9,309.34Z"/><path class="cls-1" d="M271.19,160.84c2.38-1.59,3.91-1.76,5-1.66,3,.27,5.15,2.81,6.08,5,1.45,3.38.14,6.59-.55,8.29a13.07,13.07,0,0,1-6.63,7.18,12,12,0,0,1-8.29.55c-1.47-.47-2.95-.94-3.86-2.21C260,173.93,265.05,164.93,271.19,160.84Z"/><path class="cls-1" d="M240.74,87.37A43.69,43.69,0,0,1,254,94a44.81,44.81,0,0,1,11.39,13.29,58.94,58.94,0,0,1,7.59,19,99.26,99.26,0,0,1,1,34.18c-1.25,6.64-3.24,16.68-10.34,26.39a61.25,61.25,0,0,1-8.16,9,59.82,59.82,0,0,1-13.07,9,62.41,62.41,0,0,1-13.88,4.9,86.8,86.8,0,0,1-17.15,2.45c-1.92.09-3.71.17-5.82.12,0,0-1.19,0-2.35-.12-10-.68-21.23-5.71-21.24-5.71a75.42,75.42,0,0,1-13.88-8.17,58.06,58.06,0,0,1-11.43-10.62,37.93,37.93,0,0,1-7.35-13.06c-1.45-4.68-1.52-8.45-1.59-13.2a108.18,108.18,0,0,1,.95-13.29,145.18,145.18,0,0,1,3.79-22.78c1.65-6.2,3.61-13.6,7.6-19.94,12.14-19.3,38.83-22.08,45.57-22.78C221.62,81,233.78,85,240.74,87.37Z"/><path class="cls-1" d="M168.35,157.57c-1.51-2.43-2.83-3.21-3.84-3.56-2.81-1-5.85.42-7.59,2-2.71,2.48-2.85,5.94-2.92,7.77a13,13,0,0,0,3.06,9.28,11.88,11.88,0,0,0,7.31,3.93c1.54.19,3.08.37,4.44-.41C173.1,174.11,172.24,163.84,168.35,157.57Z"/><path class="cls-17" d="M150.87,74.64c-1.35,5.32.76,13.24,4.27,14.23s6.68-5.78,13.51-11.38c10.77-8.83,23.94-9,39.13-9.25,8.44-.12,22.05-.33,37,6.4,11.62,5.24,18.12,12,20.63,10s-.64-11.85-5-17.78C239.5,38.19,156.8,51.27,150.87,74.64Z"/><path class="cls-18" d="M199.93,166.44c-1.13-1.89,3.51-9,9.87-9.68,6.76-.73,13,6,12.18,8.05-.43,1.07-2.68.35-9.8.81C203.46,166.19,200.66,167.66,199.93,166.44Z"/><path class="cls-10" d="M196.45,147.85a14.41,14.41,0,0,0-2-8.07,15.77,15.77,0,0,0-10.09-7.06,16,16,0,0,0-19.18,12.11,17.85,17.85,0,0,0-.2,4.28c.13,2.15.28,5.37,1.85,7.39,1.78,2.29,4.86,2.43,10.25,2.59,8.31.24,13.09.38,16.36-3.16A13,13,0,0,0,196.45,147.85Z"/><path class="cls-19" d="M186.6,138.67a10.35,10.35,0,0,0-8.07-1,11.4,11.4,0,0,0-5.05,3,11.76,11.76,0,0,0-3,6.06,9.61,9.61,0,0,0,1,7.06c2.17,3.42,6.14,3.92,7.07,4a10.83,10.83,0,0,0,6.05-1,11.18,11.18,0,0,0,5-5.05,10.28,10.28,0,0,0,1-8.07A9.65,9.65,0,0,0,186.6,138.67Z"/><path class="cls-10" d="M226.9,149.11a14.82,14.82,0,0,1,1.85-7.4,15.81,15.81,0,0,1,10-7.36,16.09,16.09,0,0,1,10.1,1,16.66,16.66,0,0,1,9.08,11.1,17.37,17.37,0,0,1,.37,5.42c-.16,1.85-.38,4.61-1.85,6.47-2,2.57-5.67,2.53-12.45,2.37-7.8-.18-11.7-.28-14.33-3.16S226.92,150.4,226.9,149.11Z"/><path class="cls-19" d="M236.52,140.31a10.26,10.26,0,0,1,8.07-1,11.2,11.2,0,0,1,5,3,11.7,11.7,0,0,1,3,6,9.7,9.7,0,0,1-1,7.07c-2.17,3.41-6.14,3.91-7.07,4a10.74,10.74,0,0,1-6.05-1,11.18,11.18,0,0,1-5-5,10.35,10.35,0,0,1-1-8.08A9.57,9.57,0,0,1,236.52,140.31Z"/><path d="M184,144.44a5.15,5.15,0,0,0-4-.5,5.61,5.61,0,0,0-2.52,1.51,5.87,5.87,0,0,0-1.51,3,4.34,4.34,0,0,0,4,5.53,5.47,5.47,0,0,0,3-.5A5.62,5.62,0,0,0,185.5,151a5.11,5.11,0,0,0,.5-4A4.76,4.76,0,0,0,184,144.44Z"/><path d="M239.11,146.13a5.15,5.15,0,0,1,4-.51,5.65,5.65,0,0,1,2.51,1.51,5.84,5.84,0,0,1,1.51,3,4.33,4.33,0,0,1-4,5.53,5.38,5.38,0,0,1-3-.5,5.64,5.64,0,0,1-2.52-2.51,5.22,5.22,0,0,1-.5-4A4.81,4.81,0,0,1,239.11,146.13Z"/><path d="M196.57,149.69c.56-.11.61-3.27-.06-6a14.93,14.93,0,0,0-2.78-5.55,18.79,18.79,0,0,0-6.47-5.54,14.8,14.8,0,0,0-8.32-1.85,16.36,16.36,0,0,0-8.32,3.69c-2.76,2.08-3.44,3.69-6.62,5.06a8,8,0,0,1-4.09.82c-2.39-.28-3.89-1.87-4.08-1.64s.82,1.66,2.45,2.45,3.24.54,3.27.82-1.14.71-2.45.82c-3.29.27-5.59-1.83-5.72-1.64-.33.48,7.27,8.47,11.43,6.54,1.76-.82,1.26-2.64,3.27-5.72.25-.38,4.73-7,12.25-7.35A15.22,15.22,0,0,1,191,138.67C195.71,143.22,195.76,149.84,196.57,149.69Z"/><path class="cls-10" d="M175.83,150a1.62,1.62,0,0,0-1.87,1.56,1.48,1.48,0,0,0,1.3,1.3,1.6,1.6,0,0,0,1.71-1.68A1.45,1.45,0,0,0,175.83,150Z"/><path class="cls-10" d="M238.89,151.57a1.61,1.61,0,0,0-1.87,1.56,1.48,1.48,0,0,0,1.3,1.3,1.6,1.6,0,0,0,1.71-1.68A1.44,1.44,0,0,0,238.89,151.57Z"/><path d="M226.33,151.22c-.56-.1-.61-3.27.07-6a14.88,14.88,0,0,1,2.77-5.54,18.75,18.75,0,0,1,6.47-5.55,14.91,14.91,0,0,1,8.32-1.85c2.38.22,4.36,1.4,8.32,3.7a62.17,62.17,0,0,0,8.09,4.34,8.85,8.85,0,0,0,4.08.81,16.44,16.44,0,0,0,3.27-.81c.1.2-2,2.05-4.9,2.45-1.89.26-3.21-.23-3.27,0s1.92,1.41,4.25,1.53c3.37.17,5.55-1.87,5.72-1.63.33.47-7.27,8.46-11.43,6.53-1.76-.81-1.26-2.63-3.27-5.72-.25-.38-4.72-7-12.25-7.35A15.28,15.28,0,0,0,232,140.21C227.19,144.75,227.14,151.38,226.33,151.22Z"/><path class="cls-10" d="M246.85,144.87a2.94,2.94,0,0,0-3.39,2.83,2.69,2.69,0,0,0,2.35,2.35,2.91,2.91,0,0,0,3.11-3A2.64,2.64,0,0,0,246.85,144.87Z"/><path class="cls-10" d="M186,143.62a2.93,2.93,0,0,0-3.38,2.82A2.71,2.71,0,0,0,185,148.8a2.9,2.9,0,0,0,3.1-3A2.61,2.61,0,0,0,186,143.62Z"/><path class="cls-20" d="M189.67,86.77c1.58-.34,2.4,4.89,7.15,7.15,3.31,1.57,8.2,1.53,10.71-.9,1.63-1.57,1.67-3.55,2.68-3.57,1.19,0,1.42,2.66,3.58,5.36.56.71,3.54,4.44,7.14,4.46,3.86,0,4.85-4.25,9.82-4.46a7.58,7.58,0,0,1,3.57.89c4.1,2.2,6.28,8.5,4,12.75-1.63,3-5.61,5.19-7.35,4.09-1.26-.8-1.29-3.25-.82-4.9.94-3.31,4.25-4.64,4.08-4.9s-7.22,1-9,6.53a8.32,8.32,0,0,0,1.63,8.17c3.29,3.38,8.47,1.8,9,1.63,3-1,4.67-3.22,6.53-5.72,3.56-4.78,4.26-8.91,5.32-8.72.73.13.67,2.08,1.79,6.25.88,3.29,1.33,5,2.68,6.25,3.09,2.91,7.82.58,8.93,2.68.61,1.18-.7,2.25-2.68,7.15-1.65,4.07-2.51,6.09-1.79,7.14,1.9,2.8,11.59-2.28,13.52.49,1.52,2.19-3.51,6.85-1.64,9.8,1.29,2,4.42,1,5.72,3.27.71,1.25.37,2.61-.63,6.09-1.94,6.73-1.92,7.82-2.68,8.93a13.2,13.2,0,0,1-4,3.76,12.26,12.26,0,0,0,.66,7.83l.16.34c1.6,3.27,6.53,6.65,10.61,4.9a7,7,0,0,0,4.09-5.72c.33-3.85-2.78-6.75-3.27-6.53-.19.08.06.64,0,1.63-.15,2.55-2.22,5.15-3.27,4.9s-1.73-3.3-.81-5.72c1.05-2.79,3.76-3.41,7.35-5.71a35.47,35.47,0,0,0,8.17-7.72c2.81-3.8,2.55-11.25.89-25.9-3-26.61-1.15-23.93-2.68-28.57-6.28-19.09-25.9-28.44-39.29-34.83-9.59-4.57-28.29-13.18-52.69-9.82A76.73,76.73,0,0,0,159.31,70.7c-18.26,14.13-24,32.31-26.79,41.08-2,6.2-8.24,26-.89,33.93a36.14,36.14,0,0,1,5.36,7.14c4.09,3.48,7.26,3.19,9,6.24,1.18,2,.67,3.61,0,9-1.31,10.57-2,15.85,0,18.79,2.72,4,7,2.75,9,7.35,1.15,2.63,1.35,6.71-.81,8.16a3.78,3.78,0,0,1-4.09,0c-2.55-1.83-1-7.25-1.63-7.35s-3,4.24-1.63,8.17c1.71,4.88,8.84,7.75,12.25,5.72,4.1-2.46,3.75-12.61-.82-18-3.48-4.08-7.28-2.9-9-6.53-2.06-4.41,3.22-6.83,3.26-15.52a63.27,63.27,0,0,0-2.18-15.14c-.52-1.94-1.26-4.44,0-6.25s3.44-.91,5.36-2.68,1.94-5.17,1.79-9.83c-.2-5.92-1.53-8.06,0-9.82,1.17-1.35,2.63-.87,5.35-1.79,3.28-1.09,5.19-3.13,8-6.25,15.54-17,16.43-19,17-21.43C188.93,91.1,188.29,87.07,189.67,86.77Z"/><path class="cls-18" d="M204,187.53c0-2.42,2.56-4.06,3.17-4.44a8.24,8.24,0,0,1,7-.63c1.86.75,4.52,2.7,4.44,5.07-.1,3.13-4.95,5.77-8.88,5.07C207.21,192.16,204.05,190.18,204,187.53Z"/><path class="cls-9" d="M197.69,182.28a18.12,18.12,0,0,0,4.24,2.82,19.09,19.09,0,0,0,12.38,1.36c3.05-.78,5.58-2.36,8.48-4.18.89-.56,1.62-1.06,2.12-1.42"/><path class="cls-2" d="M131.41,263a2.44,2.44,0,0,0-.59,1.84c.15.57.66.75,1.24,1,.41.14.65.22.93.1a2.25,2.25,0,0,0,1-1.8c.07-.78-.23-1.78-1-1.92S131.5,262.89,131.41,263Z"/><path class="cls-17" d="M199.12,217.07c2.93.26,5.17.72,5.68.79,2.31.33,4.76.66,6.57.85,0,0,5.78.59,8.18-.55a3.82,3.82,0,0,1,.8-.27,5.17,5.17,0,0,1,1.63,0c2,.41,3.27,4.08,3.27,4.08,6.24,26.07,9.13,40.12,10.62,48.19.38,2.1,1.36,7.53,3.26,14.7,2.93,11,4.5,10.82,5.7,17.85,1.42,8.28.06,12.15,3.29,14.81,2.93,2.43,5.6.52,8.16,3.27,3.06,3.28,2.15,9.11.82,12.25a6.79,6.79,0,0,1-2.45,3.27,5.72,5.72,0,0,1-5.51.54c-2.87-1.54-2.63-6.28-3.47-6.26-1.1,0-.06,7.93-4.09,10.62a7.46,7.46,0,0,1-7.35,0c-4.15-2.33-4-8.19-5.71-8.17s-1.22,5.58-4.9,8.17c-3.52,2.47-9.74,1.49-13.07-1.64-2.92-2.73-3.13-6.66-4.08-6.53s.13,5-2.45,8.17c-3.26,4-11.44,4-14.7.81-2.95-2.87.42-10.17-.82-10.61s-2.71,6-8.17,9c-5.27,2.85-12.31,1.47-13.07-.82-.58-1.77,2.61-4.15,1.64-5.71-.09-.14-.43-.64-1.64-.82-4.84-.72-8.36,6.09-13.06,5.72-3.06-.25-5.78-3.37-6.54-6.54a8.3,8.3,0,0,1,1.64-7.35c2-2.19,3.93-1,6.53-3.26,2-1.74,2.71-4.05,3.56-6.75.71-2.23.49-2.72,1.34-6.32.57-2.39,1.12-4.1,1.63-5.72,2.29-7.09,5.08-12.54,8-20.11,1.55-4.06,2.5-7.08,3.46-10.1,1.09-3.42,6.89-25.44,9-31.85,3.16-9.69,1.59-3,9.8-19.6.46-.92,1.72-3.49,4.09-4.09A7.18,7.18,0,0,1,199.12,217.07Z"/><path class="cls-17" d="M203.1,226.74a14.52,14.52,0,0,0-6.9-4.44,20.23,20.23,0,0,0-12.78-.12c-2.25.67-8.95,2.63-9.92,6.85a15.87,15.87,0,0,1-.76,3.28c-1,2.65-3,4.91-3.33,4.72s.2-2,1.12-2.18a1.6,1.6,0,0,1,1.45.74c.75,1-.31,2.22.34,2.93.82.89,2.71-.1,3.28.76.26.4-.09.68,0,1.82a3.22,3.22,0,0,0,.71,2.2c1,.81,2.57-.69,3.66,0,.89.61.29,1.95,1.06,3.3.92,1.62,3.08,2,4.36,2.23,13.66,2.43,18.69-6,18.69-6A14.62,14.62,0,0,0,203.1,226.74Z"/><path class="cls-17" d="M226.23,222.37a14.48,14.48,0,0,1,8.21.2,20.25,20.25,0,0,1,10.64,7.09c1.48,1.82,5.93,7.2,4.36,11.24a15.94,15.94,0,0,0-1.22,3.14c-.64,2.77-.26,5.75.11,5.77a2.11,2.11,0,0,0,.3-2.43,1.59,1.59,0,0,0-1.62-.2c-1.21.44-1,2-1.92,2.23-1.19.28-2.19-1.61-3.15-1.22-.44.19-.3.63-1,1.52-.41.53-1.06,1.36-1.82,1.42-1.28.11-1.73-2-3-2-1.08,0-1.34,1.44-2.73,2.13-1.67.82-3.68-.08-4.87-.61-12.66-5.66-12.06-15.49-12.06-15.49A14.62,14.62,0,0,1,226.23,222.37Z"/><path class="cls-17" d="M204,465.34c-2.86,3.49-9.23,2.33-13.07,1.64-4.4-.8-9.13-2.67-9-4.09.08-.67,1.25-1,2.43-1.42a.38.38,0,0,0,0,.3,2.79,2.79,0,0,1,.38-.41,5.42,5.42,0,0,0,1.57-.83h0a1.7,1.7,0,0,0,.34-.37,1.12,1.12,0,0,0,.21-.47.11.11,0,0,0,0-.05,1.53,1.53,0,0,0,0-.3c-.06-1.51-2.73-2.55-2.46-3.79.4-1.88,6.64-.09,13.88-3.26,3.07-1.35,5.65-3.29,6.53-2.45.4.38.12,1,0,2.45-.25,3,.69,4.06.82,6.53C205.69,459.54,205.88,463.08,204,465.34Z"/><path class="cls-21" d="M191.83,460.44a5.5,5.5,0,0,0-1.62-.92,3.84,3.84,0,0,0-2.54-.24,3.48,3.48,0,0,0-.82.4.11.11,0,0,0,0-.05,1.53,1.53,0,0,0,0-.3,3.34,3.34,0,0,1,.62-.33C189.49,458.22,192,460.05,191.83,460.44Z"/><path class="cls-17" d="M184.72,461.36a2.79,2.79,0,0,0-.38.41.38.38,0,0,1,0-.3Z"/><path class="cls-21" d="M190.12,461.77a5.48,5.48,0,0,0-1.62-.93,4.12,4.12,0,0,0-2.2-.32,1.7,1.7,0,0,0,.34-.37C188.42,460,190.22,461.43,190.12,461.77Z"/><path class="cls-17" d="M224.37,466.19c3.49,2.85,9.5.44,13.13-1,4.14-1.66,8.42-4.42,8-5.79-.21-.65-1.42-.74-2.66-.91a.36.36,0,0,1,.11.28,3.77,3.77,0,0,0-.45-.33,5.63,5.63,0,0,1-1.71-.49h0a1.55,1.55,0,0,1-.41-.3,1.12,1.12,0,0,1-.3-.41.14.14,0,0,1,0-.06,1,1,0,0,1-.08-.28c-.23-1.49,2.18-3,1.67-4.2-.78-1.77-6.54,1.22-14.26-.45-3.28-.71-6.19-2.1-6.89-1.1-.31.46.08,1,.49,2.4.85,2.93.13,4.12.5,6.57C221.57,460.83,222.09,464.34,224.37,466.19Z"/><path class="cls-21" d="M235.33,459a5.42,5.42,0,0,1,1.4-1.22,3.84,3.84,0,0,1,2.46-.74,2.85,2.85,0,0,1,.87.23.14.14,0,0,1,0-.06,1,1,0,0,1-.08-.28,3,3,0,0,0-.67-.2C237.18,456.32,235.14,458.6,235.33,459Z"/><path class="cls-21" d="M237.28,459.92a5.83,5.83,0,0,1,1.4-1.23,4,4,0,0,1,2.09-.75,1.55,1.55,0,0,1-.41-.3C238.6,457.88,237.11,459.61,237.28,459.92Z"/><path class="cls-20" d="M191,125.6c0,1.47-4.68,3-8.58,3.27-3.75.3-4.88-.63-8.57-.82-7.44-.36-12,3-12.25,2.45-.39-.82,9.39-9.24,20.82-8.16C186.2,122.7,191,124.16,191,125.6Z"/><path class="cls-20" d="M230.63,126c0,1.47,4.68,3,8.58,3.27,3.75.3,4.88-.64,8.57-.82,7.44-.36,12,3,12.25,2.45.4-.82-9.38-9.24-20.82-8.17C235.38,123.06,230.62,124.53,230.63,126Z"/><path class="cls-2" d="M131.9,266.36a2.48,2.48,0,0,0-.59,1.85c.15.57.66.75,1.25,1,.4.14.64.22.92.1a2.25,2.25,0,0,0,1-1.8c.08-.78-.23-1.79-1-1.92S132,266.26,131.9,266.36Z"/><path class="cls-2" d="M130.27,260a2.53,2.53,0,0,0-.59,1.85c.15.57.66.75,1.25.95.41.15.64.23.93.11a2.26,2.26,0,0,0,1-1.8c.07-.78-.23-1.79-1-1.92S130.36,259.9,130.27,260Z"/></g></g></svg>