<svg xmlns="http://www.w3.org/2000/svg" viewBox="0 0 191.62 311.07"><defs><style>.cls-1{fill:#545454;}.cls-2{fill:#6ff1ef;}.cls-3{fill:#e7ffff;opacity:0.5;}.cls-4{fill:#fda5b3;}</style></defs><g id="Camada_2" data-name="Camada 2"><g id="Camada_1-2" data-name="Camada 1"><path class="cls-1" d="M122.62,158.93c1.17,12.39-9.46,21-17.7,28.38a132.53,132.53,0,0,0-22,25.56A74.74,74.74,0,0,0,75,227.69a40.38,40.38,0,0,0-2.42,17.05,70.28,70.28,0,0,0,3.8,17.35A140.19,140.19,0,0,0,82.79,278a91.78,91.78,0,0,0,10,16.35c3.59,4.72,7.54,9.73,7.92,15.89,0,.48.78.48.75,0-.31-5-2.91-9.37-5.82-13.35a132.46,132.46,0,0,1-9.43-13.85,122.38,122.38,0,0,1-7.37-16.35,92.42,92.42,0,0,1-4.92-17.24,42,42,0,0,1,.72-18.2,61.68,61.68,0,0,1,7.61-16,131,131,0,0,1,22-26.41c8.62-7.92,20.32-16.74,19.07-29.95-.05-.48-.8-.48-.75,0Z"/><path class="cls-2" d="M119.89,154.87l-19.48-19.48c-6.59-6.87-24.66-25.71-30.11-53.13-1.75-8.81-6.85-34.48,8.86-56.67A62.64,62.64,0,0,1,111,2.57c16.09-4.91,29.5-1.56,35.41,0,6.66,1.76,28,7.37,39,26.57,10.4,18.11,5.39,37.43,1.77,51.35-7.72,29.75-28.74,52.87-39,58.44-7,3.84-12.25,10.67-19.48,14.17-.33.16-1.56.72-1.77,1.77-.17.84.43,1.47,1.77,3.54s2,3.1,1.77,3.54c-.39.73-2,0-5.31,0-3.72,0-5.2,1.07-7.08,0a4.94,4.94,0,0,1-1.77-1.77"/><path class="cls-3" d="M162.39,23.82c-1.36,1.31,5.32,7,8.86,19.48A59.81,59.81,0,0,1,173,64.55c-1.13,15-6.77,24-5.32,24.8s7-6.77,10.63-14.17c2.06-4.18,4.77-9.81,5.31-17.71.24-3.53.78-11.5-3.54-19.48C174.67,28,164,22.32,162.39,23.82Z"/><path class="cls-1" d="M118.58,155a12.45,12.45,0,0,0,9.66.1c.43-.19.24-.91-.2-.73a11.7,11.7,0,0,1-9.09,0c-.43-.19-.82.45-.37.65Z"/><path class="cls-1" d="M90,164.11A116.17,116.17,0,0,1,94,176.78q4,13.83,7.08,27.9c2.65,11.95,4.86,24,6.34,36.18A203,203,0,0,1,109,277.4c-.62,10.28-2.28,21-7.15,30.19-.53,1-1.1,2-1.71,2.93-.27.4.38.78.64.37,5.45-8.49,7.6-18.76,8.58-28.67,1.21-12.17.63-24.5-.65-36.65a359.85,359.85,0,0,0-5.92-36.6Q99.57,194,95.46,179.32c-1.41-5-2.76-10.15-4.59-15-.07-.18-.14-.36-.22-.54-.18-.44-.83-.06-.64.38Z"/><path class="cls-4" d="M90.89,160l5.73-20.31c1.83-7.06,6.86-26.42.24-46.8-2.13-6.55-8.33-25.63-27.13-34.58a48,48,0,0,0-29.94-3.46A48.19,48.19,0,0,0,16.11,68.15C12.32,71.81.18,83.54,0,100.5c-.17,16,10.42,27.05,18,35,16.31,17,39,24.59,47.93,24.49,6.16-.06,12.19,2.55,18.33,2.18a2.3,2.3,0,0,1,1.85.53c.43.5.27,1.14.14,3s-.18,2.82.14,3c.54.34,1.34-.78,3.56-2,2.5-1.37,3.87-1.23,4.73-2.65a3.76,3.76,0,0,0,.52-1.85"/><path class="cls-3" d="M51.94,65.63c-.3,1.39,6.19,2.36,13.58,9a47.46,47.46,0,0,1,9.92,13c5.52,10.09,5.78,18.19,7,18.09s1.51-7.14.7-13.37a35.15,35.15,0,0,0-4.06-13.53C77.77,76.45,74.8,71.1,68.8,67.69,61.28,63.4,52.29,64,51.94,65.63Z"/><path class="cls-1" d="M91.22,159.27a8.77,8.77,0,0,1-5.92,3.36c-.47.06-.48.81,0,.75a9.66,9.66,0,0,0,6.57-3.73c.29-.39-.36-.76-.65-.38Z"/></g></g></svg>