<svg xmlns="http://www.w3.org/2000/svg" viewBox="0 0 790 517"><defs><style>.cls-1{fill:#fff;stroke:#707070;stroke-linecap:round;stroke-linejoin:round;stroke-width:4px;}</style></defs><g id="Camada_2" data-name="Camada 2"><g id="Camada_1-2" data-name="Camada 1"><path class="cls-1" d="M432.89,429,363,369l-73.09,60L264,357,157.82,396.5,170,332,56.72,336.44,110,280,2,258l86-44L2,173l113-15L56.72,94.56,164,100l-6.18-65.5L259,85q15.45-41.5,30.91-83L362,76,432.89,2Q448,41.5,463,81L565,34.5q-3,32.76-6,65.5l107.09-5.44L603,158l117.8,15L612,218l108.8,40L612,282,788,515,577,336l-12,60.5L469,373Z"/></g></g></svg>