<svg xmlns="http://www.w3.org/2000/svg" viewBox="0 0 334.6 835.84"><defs><style>.cls-1{fill:#683b2d;}.cls-2{fill:#f4eaeb;}.cls-3{fill:#5e352a;}.cls-4{fill:#fff;}.cls-5{fill:#351406;}.cls-6{fill:#2f7734;}.cls-7{fill:#2d6d2f;}.cls-8{fill:#722419;}.cls-9{fill:none;stroke:#000;stroke-linecap:round;stroke-miterlimit:10;}</style></defs><g id="Camada_2" data-name="Camada 2"><g id="Pronto"><path d="M175.14,8.24c-10.14,4.55-29,14.86-41.61,35.67-14.76,24.36,2.63,44.14-10.7,71.34-2.16,4.4-8.39,15.82-3.83,23.75,2.52,4.38,9.5,17.52,10,19,.78,2.27-4.35,8.12-4,12,.2,2.11,4.83,3.24,16,10a6.12,6.12,0,0,1,3,3c1.34,3.68-3.7,6.09-4,11-.35,6,6.48,12.27,12,15,2,1,3.9,2.13,8,4,7.2,3.27,10.84,4.93,15,6,12.51,3.22,19.9-1.38,23,3,1.94,2.73-.5,5.13,1,7,5.14,6.39,32.59-22.78,61-18,2.65.45,18.6,2.58,25-1,4.59-2.56,4.9-4.24,11-8,8.34-5.08,12.24-5.32,15-11,4.9-10.22-.62-24.1-1-25-1.32-3.21-2.7-5.05-5-11a71.33,71.33,0,0,1-4-13c-2.21-12.07,10.69-17.73,7-28-2.42-6.77-7.33-8-7-13,.43-6.34,8.58-8.06,12-13,8.55-12.31-10-47.89-38-67.87C249,1.53,209.84-7.35,175.14,8.24Z"/><path class="cls-1" d="M174.25,789.39c1.95,7.4,3.33,15.64,1.85,21.15-1.69,6.31-6.29,6-6.39,8.77-.13,4,9.07,5.58,15.06,5.62,7.44.05,9.09-2.36,9.92-3.92,3.85-7.23,3.77-21.83,3.79-27.35,0-1.19,0-2.39,0-3.58"/><path class="cls-1" d="M259.46,788.63c-1.94,7.41-3.32,15.65-1.84,21.16,1.69,6.31,6.29,6,6.38,8.77.14,4-9.06,5.58-15.06,5.62-7.43.05-9.08-2.36-9.91-3.93-3.85-7.23-3.78-21.82-3.79-27.34,0-1.19,0-2.39,0-3.59"/><path class="cls-2" d="M235.2,789.32c-12.78-8.37-4.26-28.39-8.11-87.86-1.84-28.4-3.91-45.55-3.91-45.55-2-18.5-3.16-23.71-4.55-50.47-1.91-36.54-.33-39-2.39-91.84-2.14-54.91-4-55.39-2.75-68.82,5.25-57.72,43.17-94,57.13-68.28,4.39,8.09,5.32,20.3,6.91,73.13,2.55,85.21,3.82,127.82,2.9,156.2-7.85,240.78-15.39,178-21,182.8C253.65,793.68,242.22,793.93,235.2,789.32Z"/><path class="cls-2" d="M198.52,790.08c12.78-8.38,4.26-28.4,8.11-87.86,1.84-28.41,3.91-45.56,3.91-45.56,2-18.5,3.16-23.71,4.55-50.47,1.9-36.54.32-39,2.39-91.84,2.14-54.91,4-55.39,2.74-68.81-5.24-57.73-43.16-94.05-57.12-68.29-4.39,8.09-5.33,20.31-6.91,73.13-2.55,85.21-3.82,127.82-2.9,156.21,7.85,240.77,15.39,178,21,182.8C180.06,794.43,191.49,794.68,198.52,790.08Z"/><path class="cls-3" d="M197.73,167.7c-4.62,6.69,2.08,13.5,0,35.67-.55,5.87-1.59,11.46-5.43,16.52-2.9,3.8-6.55,6.1-9.13,7.88-12.61,8.7-13.81,7.67-17.54,12.46-5.69,7.3-5.85,16.77-5.94,22.59a47.22,47.22,0,0,0,1.18,11.89c1.2,5.14,2.63,7.15,4.76,14.27,0,0,1.23,4.1,2.38,9.51a98.28,98.28,0,0,1,1.19,33.29c-3.68,21.47-15.72,27-13.08,45.18.21,1.47.64,3.19,1.51,6.63,2.74,10.91,7,27.46,12.52,33.71,17.49,19.77,61.36,23,84.74,3.85C269.25,409.39,275,392.42,275,392.42a45.54,45.54,0,0,0,2.38-9.51c2.24-18-9.91-24.89-14.27-45.18-3.28-15.25-.11-28.71,1.19-34.48,3.85-17.12,8.94-17.84,9.83-30.4.26-3.66,2-21.55-8.64-32.62-1.33-1.39-5.25-3.7-13.08-8.32-10.93-6.46-14.47-7.44-17.84-11.9-2.3-3-3.69-6.6-4.75-14.26-3.38-24.36,4.38-33.89-1.19-40.43C222.4,158,203.53,159.3,197.73,167.7Z"/><path class="cls-1" d="M192.11,231.24c.61,1-2.13,2.63-6.47,7.18-10.74,11.28-12.58,20.82-16.74,28-4.71,8.16-15.68,13.08-37.62,22.93-29.3,13.14-43.95,19.71-61.87,18.74-8.65-.48-18.59-2.43-25,3.23-4.33,3.83-3.66,8.19-10.58,15.52-5,5.25-5.77,3.51-9.84,8.1-6.77,7.63-5.18,13.17-12.64,19.69C8.74,357,5.85,359.5,3.59,358.6c-4.56-1.82-4.84-17-.45-28.73C9.42,313,24.61,304.92,28,303.23c7.15-3.6,8.7-2.33,17.92-6.71a87.34,87.34,0,0,0,22-15c9.67-8.58,24.62-14.9,54.52-27.55C149.08,242.65,189.87,227.59,192.11,231.24Z"/><path class="cls-1" d="M34.34,318.68c1.65-1.2,1.9-2,2.36-1.85,1.63.51,1.54,11.17-4.42,18.7-1.54,1.93-3.22,4.06-4.73,3.69-3.5-.86-4.71-15,0-17.8C29.2,320.46,31.36,320.85,34.34,318.68Z"/><path class="cls-1" d="M274.42,39.75c18.93,29.11,8.27,63.57,1.19,86.79-5.3,17.41-12.12,27.65-14.86,31.51-7.45,10.53-22.44,31.29-44.59,32.7-31,2-52.61-35.5-56.47-42.21a81,81,0,0,1-8.33-21.4,69.75,69.75,0,0,1-1.19-8.32c-3.38-40.51-5.27-63.15,7.14-82C169,18.89,192.24,6.39,216.76,7.05,242.7,7.75,263.54,23,274.42,39.75Z"/><path class="cls-3" d="M200.88,137.83c-1.48-2.48,4.61-11.79,13-12.69,8.86-1,17,7.91,16,10.55-.57,1.41-3.52.47-12.86,1.07C205.51,137.5,201.83,139.43,200.88,137.83Z"/><path class="cls-1" d="M277.35,101.38c2.38-3.41,4.35-4.45,5.85-4.88,4.15-1.21,8.47,1.06,10.88,3.51,3.75,3.8,3.69,8.85,3.65,11.52a18.89,18.89,0,0,1-5.17,13.25,17.29,17.29,0,0,1-10.93,5.15c-2.25.16-4.5.31-6.42-.94C269.16,125.06,271.2,110.19,277.35,101.38Z"/><path class="cls-1" d="M153.27,101.63c-2.2-3.53-4.11-4.67-5.59-5.19-4.08-1.42-8.51.62-11,2.93-4,3.61-4.16,8.65-4.26,11.32a19,19,0,0,0,4.46,13.51,17.38,17.38,0,0,0,10.65,5.72c2.23.27,4.48.54,6.45-.6C160.2,125.71,159,110.76,153.27,101.63Z"/><path class="cls-4" d="M227.47,104.05a16.63,16.63,0,0,1,2.07-8.27,17.7,17.7,0,0,1,11.22-8.23A18,18,0,0,1,252,88.68a18.61,18.61,0,0,1,10.16,12.41,19.59,19.59,0,0,1,.41,6.06c-.18,2.06-.43,5.15-2.07,7.24-2.25,2.86-6.34,2.82-13.91,2.64-8.72-.2-13.08-.31-16-3.53S227.49,105.5,227.47,104.05Z"/><path class="cls-5" d="M238.23,94.21a11.54,11.54,0,0,1,9-1.13,12.47,12.47,0,0,1,5.64,3.39,13.06,13.06,0,0,1,3.39,6.77,10.78,10.78,0,0,1-1.13,7.89c-2.42,3.82-6.86,4.39-7.9,4.52a12.1,12.1,0,0,1-6.77-1.13,12.6,12.6,0,0,1-5.64-5.64,11.53,11.53,0,0,1-1.13-9A10.73,10.73,0,0,1,238.23,94.21Z"/><path d="M241.13,100.72a5.76,5.76,0,0,1,4.5-.57,6.37,6.37,0,0,1,2.81,1.69,6.54,6.54,0,0,1,1.69,3.37,4.86,4.86,0,0,1-4.5,6.19,6,6,0,0,1-3.38-.56,6.28,6.28,0,0,1-2.81-2.81,5.76,5.76,0,0,1-.56-4.5A5.24,5.24,0,0,1,241.13,100.72Z"/><path class="cls-4" d="M240.87,106.8a1.81,1.81,0,0,0-2.09,1.74,1.67,1.67,0,0,0,1.45,1.46,1.8,1.8,0,0,0,1.92-1.88A1.62,1.62,0,0,0,240.87,106.8Z"/><path d="M226.83,106.41c-.62-.11-.68-3.65.08-6.71a16.69,16.69,0,0,1,3.1-6.21,21.15,21.15,0,0,1,7.23-6.2,16.6,16.6,0,0,1,9.3-2.06c2.66.24,4.87,1.56,9.31,4.13a69.38,69.38,0,0,0,9,4.85,9.89,9.89,0,0,0,4.56.91c2.2-.14,3.57-1.08,3.66-.91s-2.25,2.29-5.48,2.74c-2.11.29-3.59-.25-3.66,0s2.15,1.58,4.76,1.71c3.77.2,6.21-2.09,6.39-1.82.37.53-8.13,9.46-12.78,7.3-2-.91-1.4-2.94-3.65-6.39-.28-.42-5.29-7.85-13.7-8.22a17,17,0,0,0-11.87,4.57C227.8,99.18,227.74,106.58,226.83,106.41Z"/><path class="cls-4" d="M249.77,99.31a3.29,3.29,0,0,0-3.79,3.16,3,3,0,0,0,2.63,2.63,3.24,3.24,0,0,0,3.47-3.39A2.94,2.94,0,0,0,249.77,99.31Z"/><path class="cls-4" d="M201.45,105.3A16.63,16.63,0,0,0,199.38,97a17.7,17.7,0,0,0-11.22-8.23,18,18,0,0,0-11.28,1.13,18.61,18.61,0,0,0-10.16,12.41,19.59,19.59,0,0,0-.41,6.06c.18,2.06.43,5.15,2.07,7.24,2.25,2.86,6.34,2.82,13.91,2.65,8.72-.21,13.08-.32,16-3.54S201.43,106.75,201.45,105.3Z"/><path class="cls-5" d="M190.7,95.46a11.57,11.57,0,0,0-9-1.13A12.47,12.47,0,0,0,176,97.72a13.06,13.06,0,0,0-3.39,6.77,10.8,10.8,0,0,0,1.13,7.9c2.42,3.81,6.86,4.38,7.9,4.51a12.1,12.1,0,0,0,6.77-1.13,12.6,12.6,0,0,0,5.64-5.64,11.53,11.53,0,0,0,1.13-9A10.78,10.78,0,0,0,190.7,95.46Z"/><path d="M187.79,102a5.8,5.8,0,0,0-4.5-.57,6.37,6.37,0,0,0-2.81,1.69,6.54,6.54,0,0,0-1.69,3.38,4.85,4.85,0,0,0,4.5,6.18,6,6,0,0,0,3.38-.56,6.28,6.28,0,0,0,2.81-2.81,5.76,5.76,0,0,0,.56-4.5A5.28,5.28,0,0,0,187.79,102Z"/><path class="cls-4" d="M178.91,108.05a1.81,1.81,0,0,0-2.09,1.75,1.67,1.67,0,0,0,1.45,1.45,1.8,1.8,0,0,0,1.92-1.88A1.62,1.62,0,0,0,178.91,108.05Z"/><path d="M202.09,107.66c.62-.11.68-3.65-.08-6.71a16.55,16.55,0,0,0-3.1-6.2,21.11,21.11,0,0,0-7.23-6.21,16.6,16.6,0,0,0-9.3-2.06c-2.66.24-4.87,1.56-9.3,4.13A70.25,70.25,0,0,1,164,95.46a9.89,9.89,0,0,1-4.56.91c-2.2-.13-3.57-1.08-3.66-.91s2.25,2.29,5.48,2.74c2.11.29,3.59-.25,3.66,0s-2.15,1.58-4.76,1.71c-3.77.2-6.21-2.09-6.39-1.82-.37.53,8.13,9.46,12.78,7.3,2-.91,1.41-2.94,3.65-6.39.28-.42,5.29-7.85,13.7-8.22a17,17,0,0,1,11.87,4.57C201.12,100.43,201.18,107.83,202.09,107.66Z"/><path class="cls-4" d="M187.81,100.56a3.28,3.28,0,0,0-3.79,3.16,3,3,0,0,0,2.63,2.63,3.24,3.24,0,0,0,3.47-3.39A3,3,0,0,0,187.81,100.56Z"/><path d="M168,15c-3.59,6.15-2.59,14.31-2,21,.71,7.86,2,22.57,10,26,10.64,4.57,23.5-15,34-10,6.68,3.16,3.94,12.21,11,16,9.47,5.07,18.55-8.91,33-6,11.83,2.38,20.12,14.65,23,24,2.34,7.57,1.48,14.3,1,18-1.56,12.21-6.43,14.33-7,24-.69,12,6,22.43,8,22,2.3-.49-3.5-14.62,4-28,4-7.09,8.25-7.82,10-15,1.8-7.36-2.06-9.13-1-17,1.48-10.87,9.62-13,10-21s-7.17-14-13-19c-33.7-28.75-25.92-34.6-43-42C217.87-4.2,178.44-2.89,168,15Z"/><path d="M175,34c.49,10.84.74,16.25-1,20-3.6,7.78-9.44,5.36-15,13-7.6,10.45-.46,20.22-8,28-4.78,4.94-13.58,7.12-18,4-7-4.94-2.14-22.57,1-34,2-7.33,3.91-14.18,9-22,9.08-13.92,24.74-25.42,30-22C174.43,21.93,174.64,26,175,34Z"/><path d="M231.22,81.58c-2.21-1.44-4.37-4.2-3.75-6.26s3.92-1.95,12.51-3.75c10.32-2.16,11.82-3.66,16.76-2.91A26.77,26.77,0,0,1,265,71.57c5.41,2.61,13.57,7.91,12.74,10.09-1,2.58-12.54-4.57-29-1.33C241.47,81.76,236,84.69,231.22,81.58Z"/><path d="M204.94,93.58c2.22-1.44,4.38-4.2,3.75-6.26s-3.92-1.95-12.51-3.75c-10.32-2.16-11.81-3.66-16.76-2.91a26.77,26.77,0,0,0-8.26,2.91c-5.41,2.61-13.57,7.91-12.74,10.09,1,2.58,12.55-4.57,29-1.33C194.69,93.76,200.15,96.69,204.94,93.58Z"/><path d="M262,798c-3.68-1.78-9.24,9.91-16,9-7.47-1-13-17-13-17v.07c-.82,4.53-2.1,11.6-2.36,13.11-1.38,7.85-.25,8.07-1.63,16.82-1.34,8.58-3,12.23-1,14,1.45,1.27,4.2,1.06,6,0,3.9-2.3,2.58-8.13,5-9,2.71-1,5.48,6,11,9,11.3,6.24,32.11-4.8,31.75-11.8-.29-5.78-15-6.63-17.83-17.83C263.15,801.27,263.6,798.78,262,798Z"/><path class="cls-2" d="M187.61,218.48c-2.94,2.19-4.88,4.51-10.7,8.33-10.27,6.73-10.92,7.18-13.08,9.51-5.11,5.48-5.49,13-4.76,29.72.92,21.07-1.11-2.71,2.38,33.3,2.07,21.35,2.73,25.48,2.59,28.71,0,.95-.15,1.59-.21,2.2-2.45,23.65-.16,37.43-2.83,51.75-4.59,24.68-20.62,33.13-15,42.18,2.13,3.44,8.36,8.87,15.46,11.89,10.6,4.52,32.32,11.6,97.5,1.19,16.62-2.65,24-4.52,27.34-10.7,4.34-8.08-4-13.05-5.94-38.05-.4-5-.8-14-4.76-25-.92-2.56-1.07-2.56-2.37-5.94a143.39,143.39,0,0,1-7.14-25c-1.72-9.83.88-11.08,4.76-40.43,0,0,1.46-11.07,2.38-27.34,1.07-19.08.14-24.4-3.57-27.35-2.68-2.13-5-2.49-14.27-7.14-8-4-8.31-8.37-14.27-13.08C226.77,206,200.37,209,187.61,218.48Z"/><path class="cls-6" d="M45.6,317.24c3.18.17,4.07-2.23,9.69-3.69,5.22-1.36,9.31-.51,11.88-.24,6.89.7,13.28-1.29,26.06-5.28,28.37-8.87,54-24.38,55.62-25.39,19.2-11.76,28.41-20.66,33.72-26.36s17.46-18.78,14-24.55c-2.21-3.69-9.89-3-16.69-2-36,5.22-75.92,23.48-100,42-6.61,5.07-13.63,9.59-20.4,14.44C48.43,294,46.83,295.32,43,296H43c-5.21.86-8,1.32-9,2.33C31.08,301.37,37.71,316.81,45.6,317.24Z"/><path class="cls-6" d="M275.52,248.27c.24-2.38.93-9.72-3.52-15.27a18,18,0,0,0-7-5c-19.29-9.27-24.68-15.47-28-13-1.83,1.37-1.3,4.1-1,11,.38,8.42-.7,16.85-.48,25.27.32,12.51-.61,44-7.52,71.73-4.61,18.54-7,15.67-16,42-9.48,27.72-24.27,71-10,82,4.34,3.35,6.16,1.6,32.52-2.73,47.48-7.8,51.26-10.3,53-13,11.2-17.44-7.43-30.3-11-74C273.29,317.85,275,253.67,275.52,248.27Z"/><path class="cls-6" d="M158.56,248.38c-.26-2.49-1.17-10.25,3.44-16.38a18.93,18.93,0,0,1,6-5c16.24-9.68,25.26-15.06,29.07-11.89,1.82,1.52,1.3,4.06,1,11-.37,8.42.73,16.85.49,25.27-.85,29.69-1.28,47,4.44,64.62,2.6,8,12.4,34.26,37,50,17.32,11.08,27.14,7.45,32,17,8.14,16-8.83,46.57-33,58-5.48,2.6-16.8,3-39.44,3.38-31.05.47-44.09-2.95-52.46-12.28a4.83,4.83,0,0,1-.54-.72c-11.21-17.44,7.42-30.3,11-74C157.56,357.38,165.61,317.64,158.56,248.38Z"/><path class="cls-7" d="M259,232.55c.58,5.58-1.91,10-3,12-.31.58-4.5,17.07-13,50-4.85,18.8-4.74,18.93-6,22.45-5.69,16-14.61,31.88-17,31-1.88-.7,1.57-11.42,6-36,3.34-18.52,6.06-33.58,7-51,1.79-32.84-4.21-46.44,2-49.45C241.75,208.28,257.71,220,259,232.55Z"/><path class="cls-7" d="M178.83,232.73c-.57,5.57,1.91,10,3,12,.32.58,4.5,17.07,13,50,4.86,18.8,4.74,18.93,6,22.45,5.7,16,14.61,31.88,17,31,1.89-.7-1.57-11.42-6-36-3.34-18.52-6.05-33.58-7-51-1.79-32.84,4.21-46.44-2-49.45C196.08,208.46,180.12,220.21,178.83,232.73Z"/><circle class="cls-2" cx="219.5" cy="362.5" r="3.5"/><circle class="cls-2" cx="219.5" cy="389.5" r="3.5"/><circle class="cls-2" cx="219.5" cy="416.5" r="3.5"/><path d="M172.57,797.33c3.68-1.79,9.24,9.91,16,9,7.47-1,13-17,13-17v.06c.82,4.54,2.1,11.6,2.37,13.12,1.37,7.84.25,8.07,1.62,16.82,1.34,8.58,3,12.22,1,14-1.45,1.26-4.2,1.06-6,0-3.9-2.3-2.58-8.14-5-9-2.71-1-5.48,5.94-11,9-11.3,6.24-32.1-4.81-31.75-11.8.29-5.79,15-6.63,17.83-17.83C171.42,800.6,171,798.1,172.57,797.33Z"/><path class="cls-8" d="M202.9,155c0-3,2.7-5.69,5.23-6.7a4.9,4.9,0,0,1,3.76-.32c1.78.79,1.88,3,3,3s1.46-2.32,3-3c2.75-1.23,9.1,3,9.05,7-.06,4.44-8,8.72-14.65,7.66C208.18,162,203,159,202.9,155Z"/><path class="cls-9" d="M199.4,149.9a23.05,23.05,0,0,0,5.23,3.49,23.56,23.56,0,0,0,15.28,1.67c3.78-1,6.89-2.91,10.48-5.16,1.1-.7,2-1.31,2.61-1.75"/><path class="cls-1" d="M268.45,235.25c-5.18.11,1.79,5.57,2.94,8.49,2.84,7.24,4.13,16.38,4.56,25.8.49,10.66,11.82,20.63,16.2,29.59,5.85,12,1.19,24.41,1,36.64-.09,5.91,0,8.76-5.1,12.61-3.49,2.62-9.1,1-13.2,3.81-3,2-4.94,4.94-8.12,7.69-5.27,4.58-12.37,8.32-16.79,14.55-1.56,2.2-4.91,4.18-2.17,7.63,5.54,6.95,18.71.25,24.19-1.59,7.85-2.64,19.34-13.13,21.75-16.26,5.16-6.67,3.43-8.84,7.9-12.34,5.8-4.54,12.07-4.9,17.46-9.88,17.64-16.29,11.3-33.68,2.89-52.91C314.47,272,287.44,234.81,268.45,235.25Z"/><path class="cls-1" d="M280.8,352c.59-.69,2.69-.35,1.49-1.51-4.22-4.09-11.89-2.15-16.89.11-1.29.59-4.6,1.54-3.23,3.64,3.17,4.88,11.12,5.67,15.93,2.49C279.72,355.64,279.76,353.21,280.8,352Z"/><path class="cls-6" d="M283.78,347.11c-1.29-2.24,2.79-3.33,3.78-4.83s.93-4,1.26-5.59c.88-4.12.83-9.15,3.22-13.1,5.32-8.79-5.72-31.67-6.43-32.88-8.31-14.19-12.75-22.11-17.31-31.83s-10.8-16.89-4.2-25.17c4.23-5.31,9.57.14,15.74,2.82,32.7,14.24,68.65,60.72,49.32,95.48-5.3,9.55-8.54,9.8-12.73,13.31-6.86,5.73-8.88,2.74-13.91,8.06,0,0,.2-.2.11,0-1,1.23-.54,5.25-2.81,5.13C293,358.11,287,352.67,283.78,347.11Z"/></g></g></svg>