<svg xmlns="http://www.w3.org/2000/svg" viewBox="0 0 295.68 440.43"><defs><style>.cls-1{fill:#683b2d;}.cls-2{fill:#2f7734;}.cls-3{fill:#050100;}.cls-4{fill:#d28f63;}.cls-14,.cls-5,.cls-9{fill:none;stroke-linecap:round;stroke-miterlimit:10;}.cls-5{stroke:#050100;}.cls-6{fill:#c68561;}.cls-7{fill:#14223c;}.cls-8{fill:#ce733e;}.cls-9{stroke:#000;}.cls-10{fill:#fff;}.cls-11{fill:#60270a;}.cls-12{fill:#fce5bc;}.cls-13{fill:#efd7af;}.cls-14{stroke:#efd7af;}.cls-15{fill:#964a32;}.cls-16{fill:#5e352a;}.cls-17{fill:#5576a5;}.cls-18{fill:#5d1000;}.cls-19{fill:#320406;}</style></defs><g id="Camada_2" data-name="Camada 2"><g id="Pronto"><path class="cls-1" d="M89.43,175.39c-.13.67,1.72,1.23,5,3.25,8.27,5,11.25,10.28,15,13.87,4.28,4.06,11.36,5.38,25.52,8,18.91,3.51,28.37,5.27,38.07,2.21,4.69-1.48,9.79-4,14.48-1.61,3.19,1.61,3.72,4.22,9,7.5,3.82,2.34,3.91,1.22,7.11,3.31,5.32,3.47,5.57,6.89,11,9.62,1.93,1,4.06,2,5.12,1.19,2.15-1.69-.82-10.48-5.67-16.67-7-8.87-17-11.43-19.21-11.94-4.7-1.08-5.3-.13-11.3-1.38a56.92,56.92,0,0,1-15.29-5.63c-7.11-3.6-16.68-5.18-35.82-8.32C115.58,176,89.91,173,89.43,175.39Z"/><path class="cls-2" d="M89.67,175.35c.78-2.51,5.91-3.58,23.94-3.13,14.62.37,21.93.55,25,2.24,12.31,6.7,18.8,25.45,13.55,31.34-4,4.48-15.37,0-38.12-9.1,0,0-17.16-6.83-23.85-18.66A3.52,3.52,0,0,1,89.67,175.35Z"/><path class="cls-3" d="M221.24,431.33c0,.41.68.79.93.93,3.16,1.68,21.76-1.44,21.41-3.73-.11-.65-1.92-.9-2.8-.93-1.69,0-2.56.73-5.58,1.86a20.43,20.43,0,0,1-2.79.94c-3.64.76-5.44-.83-9.31,0C221.38,430.77,221.26,431.19,221.24,431.33Z"/><path class="cls-3" d="M201.86,429.44c.12.4-.52.91-.74,1.09-2.79,2.24-21.65,2.63-21.72.32,0-.66,1.71-1.25,2.57-1.43,1.65-.36,2.65.23,5.83.79a19.27,19.27,0,0,0,2.92.39c3.72.08,5.19-1.82,9.14-1.73C201.62,428.92,201.82,429.31,201.86,429.44Z"/><path class="cls-4" d="M156,299.19c-1,.94-3,3.38-1.35,21.71a232.08,232.08,0,0,0,4.75,30.53c8.66,38.8,13.13,58.32,19.67,64.45,1.38,1.29,8.33,7.56,6.79,10.86-.89,1.89-4.14,1.89-4.07,2.71.09,1.17,6.64,1.47,10.85,1.36,5.23-.13,6.28-.88,6.79-1.36,2.35-2.21,1.6-6.51,1.35-8.14-1.37-8.95,1.26-18.08,1.36-27.14.21-19.14,1.82-16.39,1.36-28.49-.41-10.82-1.64-11.51-2.72-27.14-1.11-16.24.15-16.42-1.35-20.36C193,301.26,164.6,291.31,156,299.19Z"/><path class="cls-4" d="M241.59,294.73c1,.64,3.74,2.73,5.47,21a215,215,0,0,1,.55,31.58c-2.28,52.25-.78,58.51-6.41,66.33-1.13,1.55-6.74,9-4.59,11.95,1.23,1.69,4.42,1.06,4.51,1.88.13,1.17-6.24,2.71-10.4,3.41-5.16.86-6.32.33-6.92,0-2.73-1.72-2.82-6.09-2.88-7.74-.36-9-4.69-17.51-6.51-26.38-3.85-18.75-4.91-15.74-6.77-27.71-1.66-10.7-.58-11.61-2.51-27.16-2-16.16-3.27-16.09-2.55-20.24C205.69,303.82,231.66,288.63,241.59,294.73Z"/><path class="cls-5" d="M240.57,428.31c-.06-.13-1.92-.64-2.74-1.83"/><path class="cls-5" d="M240.32,428.48a10.17,10.17,0,0,0-3.9-.21,10.79,10.79,0,0,0-6.13,3.25"/><path class="cls-5" d="M182.33,430.24c0-.14,1.76-1,2.34-2.3"/><path class="cls-5" d="M182.59,430.19a9.84,9.84,0,0,1,3.79-.92,10.83,10.83,0,0,1,6.63,2"/><path class="cls-6" d="M198.08,167.56c1.16,10.24,0,12.21,0,12.21-2.25,3.38-6.21,2.42-9.5,5.43-4.41,4-3.25,10.83-3.39,17-.12,5.13-3.7,13.37-10.86,29.85-6.62,15.27-11.13,22.53-14.92,36.64-.7,2.58-1.16,4.54-1.36,5.43-2,8.81-3.75,16.73-2.71,25.78.48,4.23,2.2,19.18,12.89,25.11a14.42,14.42,0,0,0,2.31,1.07c4.33,1.56,11.23,1.34,37-1.07,11.44-1.07,13.32-1.34,16.28-2.72,11.72-5.47,16.45-17.36,17.64-20.35,4.19-10.52,2.93-19.72,1.36-31.21-1-7.44-1.85-7.6-6.78-25.78-6.9-25.41-10.35-38.11-9.5-43.43.72-4.51,2.74-12.52-1.36-16.28-2.37-2.17-5.13-1.41-6.78-4.07s.27-4.67,0-10.86c-.18-3.9-.34-7.36-2.72-9.5-3.09-2.77-8.6-2.13-12.21,0A12.9,12.9,0,0,0,198.08,167.56Z"/><path class="cls-3" d="M189.57,12c-2.08,0-3-1-6.72-1-1.92,0-3.33.06-4.79,1S176.26,14,175.18,14s-1.39-1.2-2.88-1.93c-1.65-.81-3.39-.36-4.8,0a10.84,10.84,0,0,0-5.75,3.86,12.38,12.38,0,0,0-1.92,3.86,21.7,21.7,0,0,0-1,4.83c-.06,0,1.14-6.34,0-6.76-.92-.34-3.39,3.17-4.8,6.76a27.22,27.22,0,0,0-1,15.45c1.45,5.3,3.87,6.75,2.88,9.65-.87,2.58-3.6,3.83-5.75,4.83-3.85,1.77-8.94,2.4-9.6,1-.79-1.74,5.54-5.25,4.8-6.76-.6-1.21-5.8-1-8.63,1.93-2.41,2.53-2.25,6.17-1.92,11.59.45,7.46,2.31,9,1.92,15.45-.22,3.59-.81,3.09-1,6.75-.06,1.27,0,2.8,1.92,13.52,1.29,7.06,2.26,7.89,2.87,8.69.8,1,3.12,4,5.23,3.64,2.39-.47,3.49-6.52,5.58-18.61C154,76.83,154,76.83,154.24,75.86c2.53-10.3,4.3-17.5,10.39-22.31a47.71,47.71,0,0,1,13.43-6.76c4.64-1.54,6.25-1.36,25.9-2.89a192.82,192.82,0,0,1,20.14-1c5.35.08,8.09.14,11.52,1a36.69,36.69,0,0,1,16.3,8.69c2.36,2.19,5.12,6.64,10.56,15.44,4,6.53,6,9.79,6.71,11.59,2.68,7.15,2.36,13.54,1.92,22.2-.3,5.89-.94,8.68-1,16.41,0,9.62,1,11,1.92,11.58,3.83,2.45,12-4.32,15.35-7.72,5-5,10-13.09,7.67-16.41-1.25-1.78-3.71-.93-4.79-2.9-1.3-2.35,1.68-4.57,2.87-9.65,1.12-4.73-1-4.74-1.91-16.41-.33-4.25-.22-6.52-1.92-7.72-2.38-1.69-6.13.24-6.72-1s2.75-2.68,2.88-5.79c.08-1.92-1.14-2.22-1.92-4.83-1.28-4.25,1.31-5.64,0-8.69-.58-1.34-1-.82-6.71-5.79-1.36-1.17-2.5-2.2-2.88-1.93-.57.41,1.6,3,1,5.79-.53,2.32-2.82,4.28-3.84,3.86-1.27-.51.32-4.33-1-9.65a21.59,21.59,0,0,0-3.84-7.72,26.85,26.85,0,0,0-11.51-9.66c-2.54-1.05-6-2.49-8.63-1-.77.45-1.57,1.21-1.92,1-.56-.38,1-2.56,1-4.82,0-2.52-2-4.61-4.8-6.76-6.69-5.16-13.93-10.73-24.94-10.62-4.39.05-11.64.12-17.27,4.83C195.25,8.72,193.27,12,189.57,12Z"/><path class="cls-7" d="M154.24,283.37c-1.16-.06-3.44,14.65-4.65,28.6-2,23.16-3.45,41.94,5.58,45.28,1.65.6,2.54.3,6.52,0,23.49-1.76,38.38,5.54,41.87.79.75-1,.5-3.59,0-8.74-.22-2.26-.41-2.69-.93-6.35-.1-.71-1.34-9.48-.93-9.53s1.91,5.13,2.79,11.12c1.4,9.49-.37,11.58,1.86,13.5,3.74,3.22,10.46-1.13,24.2-1.59,14.69-.49,17.73,4.13,22.33,1.59,6.86-3.78,3.43-19.79-3.72-51.63-.47-2.07-5.1-22.48-7.45-22.24-.75.07-.44,2.22-1.86,4-3.88,4.81-17,2-25.12.79-32.09-4.7-55.12,6.19-59.56-1.59C154.09,285.44,154.68,283.39,154.24,283.37Z"/><path class="cls-4" d="M197.46,186.43c.09.62-1.65,1.07-4.83,2.83-7.88,4.35-10.86,9.13-14.52,12.32-4.15,3.61-10.78,4.56-24.06,6.46-17.73,2.54-26.6,3.81-35.51.59-4.31-1.56-9-4.1-13.42-2.06-3,1.38-3.61,3.79-8.7,6.62-3.65,2-3.69,1-6.75,2.81-5.08,3-5.45,6.19-10.64,8.53-1.84.82-3.85,1.72-4.81.9-1.93-1.65,1.16-9.71,5.92-15.29,6.81-8,16.27-10,18.34-10.36,4.42-.83,4.93.08,10.56-.85a53.42,53.42,0,0,0,14.45-4.64c6.75-3.08,15.72-4.18,33.65-6.36C173.1,186,197.1,184.16,197.46,186.43Z"/><path class="cls-4" d="M222.62,184c-.51.37.38,1.93,1.36,5.43,2.4,8.68,1.07,14.15,1.35,19,.32,5.48,4.28,10.89,12.21,21.71,10.6,14.45,15.89,21.67,24.43,25.78,4.12,2,9.19,3.53,10.86,8.14,1.13,3.13-.18,5.24,1.35,10.86,1.1,4,1.88,3.33,2.72,6.79,1.39,5.74-.61,8.22,1.35,13.56.7,1.89,1.46,4,2.72,4.08,2.53.22,6.13-7.64,6.78-14.93.94-10.45-4.25-18.61-5.43-20.36-2.49-3.73-3.5-3.46-6.78-8.14a53.12,53.12,0,0,1-6.78-13.57c-2.53-7-8-14.15-19-28.49C240,201,224.49,182.62,222.62,184Z"/><path class="cls-4" d="M274.65,271.08c-.77,0-1.34.79-2.21,2.08-1.55,2.29-2.77,4.09-2.34,6.37.25,1.25,1.12,3.37,2.48,3.51,2.14.22,5.32-4.52,4.54-8.45C276.82,273.1,275.84,271.11,274.65,271.08Z"/><path class="cls-4" d="M94.17,213.69c.62.47.55,1.46.43,3-.21,2.76-.37,4.92-2.14,6.44-1,.83-3,1.93-4.12,1.2-1.81-1.16-1.35-6.85,1.71-9.44C91.21,213.92,93.23,213,94.17,213.69Z"/><path class="cls-4" d="M272.52,114.6c2.44-1.63,4-1.8,5.1-1.7,3,.28,5.28,2.88,6.23,5.1,1.48,3.46.14,6.76-.57,8.5a13.38,13.38,0,0,1-6.79,7.36,12.28,12.28,0,0,1-8.5.57c-1.51-.48-3-1-4-2.27C261.07,128,266.23,118.8,272.52,114.6Z"/><path class="cls-4" d="M241.3,39.26a45,45,0,0,1,13.63,6.81A45.82,45.82,0,0,1,266.61,59.7a60.6,60.6,0,0,1,7.79,19.47c1.06,4.88,2.86,15.14,1,35.05-2,21.52-3.09,32.28-9.73,38.94a17.24,17.24,0,0,1-1.64,1.41A127.87,127.87,0,0,1,252,161c-8.94,4.16-15.91,6.05-29.84,9.83-8.94,2.42-11.61,2.82-14.89,2.79a45.92,45.92,0,0,1-14.66-2.88c-5.23-1.74-9.07-3.79-16.55-7.79-3.13-1.67-5.21-2.92-6.83-3.9a65.54,65.54,0,0,1-6.37-4.13,51.07,51.07,0,0,1-5.31-4.63c-3.69-3.66-9.64-9.57-11.67-18.5-.63-2.74-.42-7.34,0-16.55.15-3.39.36-7.82,1-13.63a149.29,149.29,0,0,1,3.89-23.36c1.69-6.36,3.7-13.94,7.79-20.45C171,38,198.37,35.11,205.27,34.39,221.68,32.68,234.16,36.86,241.3,39.26Z"/><path class="cls-4" d="M151.67,109.2c-1.55-2.49-2.9-3.29-3.94-3.65-2.87-1-6,.43-7.78,2.06-2.78,2.54-2.92,6.09-3,8a13.4,13.4,0,0,0,3.14,9.52,12.3,12.3,0,0,0,7.51,4c1.57.19,3.15.38,4.54-.43C156.55,126.16,155.67,115.63,151.67,109.2Z"/><path class="cls-3" d="M158,82.38c-1.08.5-3.63-1.44-4.66-3.73-.63-1.41-.6-2.78-.93-2.79s-.58,1-.93,2.79c-.85,4.54-.27,5.52-.93,8.38-.73,3.2-1.69,3-1.86,5.58-.12,1.79.32,2.59.93,5.59,0,0,.31,1.51.93,6.51.71,5.73.54,15.57-.93,15.82s-5.07-10.89-6.51-22.33c-1-7.62-1.75-14.43.93-22.34,1.71-5,2.5-3.13,8.37-14,4.58-8.43,5.5-12.06,10.24-16.75a33.93,33.93,0,0,1,7.44-5.58c9.25-5,20.75-5,21.41-2.79.92,3.13-20.23,8.62-28.85,23.26-2,3.45-4.4,7.47-4.65,13C157.74,78,159.26,81.77,158,82.38Z"/><path class="cls-3" d="M269.63,80.52c-.53-.14-1,1.08-1.86.93a1.32,1.32,0,0,1-.93-.93c-.28-1,.82-1.54,1.86-3.73.61-1.28.69-2,1-2,.45,0,.73,1.72.94,2.79.85,4.54.27,5.51.93,8.38.73,3.2,1.69,3,1.86,5.58.11,1.79-.32,2.59-.93,5.58,0,0-.31,1.52-.93,6.52-.71,5.73-.54,15.57.93,15.82s5.07-10.89,6.51-22.34c1-7.61,1.75-14.42-.93-22.33-1.71-5-2.5-3.13-8.38-14-4.57-8.44-5.49-12.06-10.23-16.75A33.31,33.31,0,0,0,252,38.48c-6.43-3.48-18-6.91-21.4-2.79-4.32,5.17,3.62,22.79,13,24.35,3.62.61,7.48-1.18,13.95.93a9.77,9.77,0,0,1,4.66,2.8A9,9,0,0,1,264.1,72c-.82,2.66-2.52,2.56-2.84,4.81-.46,3.18,2.53,6.15,4.65,7.45.93.57,2.65,1.62,3.72.93C271.06,84.24,270.46,80.73,269.63,80.52Z"/><path class="cls-8" d="M198.69,117.19a15.6,15.6,0,0,1,10.88-6.77c8-.9,13.09,5.2,13.43,5.63"/><path class="cls-9" d="M197.15,136.59a18.73,18.73,0,0,0,4.35,2.9,19.49,19.49,0,0,0,12.68,1.38c3.14-.79,5.72-2.41,8.7-4.28.92-.58,1.66-1.09,2.18-1.45"/><path class="cls-10" d="M195.87,101.29A14.85,14.85,0,0,0,193.8,93a16.27,16.27,0,0,0-10.35-7.25,16.58,16.58,0,0,0-10.35,1,16.41,16.41,0,0,0-9.31,11.38,17.37,17.37,0,0,0-.21,4.39c.07,1.19.29,4.9,1.9,7.59,3.24,5.41,11.46,5.59,12.8,5.62,1.8,0,9.7-.08,14.49-6.21A15.2,15.2,0,0,0,195.87,101.29Z"/><path class="cls-11" d="M185.77,91.87a10.58,10.58,0,0,0-8.28-1,11.45,11.45,0,0,0-5.17,3.1,12.1,12.1,0,0,0-3.11,6.21,9.91,9.91,0,0,0,1,7.25c2.22,3.5,6.29,4,7.24,4.14a11.1,11.1,0,0,0,6.21-1,11.48,11.48,0,0,0,5.18-5.17,10.59,10.59,0,0,0,1-8.28A9.85,9.85,0,0,0,185.77,91.87Z"/><path class="cls-10" d="M227.1,102.57A15.19,15.19,0,0,1,229,95a16.25,16.25,0,0,1,10.29-7.55,16.47,16.47,0,0,1,10.35,1A17.07,17.07,0,0,1,259,99.86a17.79,17.79,0,0,1,.38,5.56,15.4,15.4,0,0,1-1.9,6.63c-3.33,5.32-11.37,5.39-13,5.4s-9.82.06-14.49-6.21A15.18,15.18,0,0,1,227.1,102.57Z"/><path class="cls-11" d="M237,93.55a10.6,10.6,0,0,1,8.28-1,11.57,11.57,0,0,1,5.18,3.11,12,12,0,0,1,3.1,6.21,9.91,9.91,0,0,1-1,7.24c-2.23,3.5-6.3,4-7.25,4.14a11.17,11.17,0,0,1-6.21-1,11.5,11.5,0,0,1-5.17-5.18,10.62,10.62,0,0,1-1-8.28A9.81,9.81,0,0,1,237,93.55Z"/><path d="M183.1,97.79a5.32,5.32,0,0,0-4.13-.52,5.77,5.77,0,0,0-2.58,1.55,5.93,5.93,0,0,0-1.55,3.1,4.45,4.45,0,0,0,4.13,5.67,5.45,5.45,0,0,0,3.09-.52,5.7,5.7,0,0,0,2.58-2.58,5.23,5.23,0,0,0,.52-4.12A4.86,4.86,0,0,0,183.1,97.79Z"/><path d="M239.62,99.52a5.23,5.23,0,0,1,4.13-.52,5.77,5.77,0,0,1,2.58,1.55,5.93,5.93,0,0,1,1.55,3.09,4.46,4.46,0,0,1-4.13,5.68,5.54,5.54,0,0,1-3.09-.52,5.7,5.7,0,0,1-2.58-2.58,5.26,5.26,0,0,1-.52-4.13A4.87,4.87,0,0,1,239.62,99.52Z"/><path class="cls-3" d="M210.08,11.66c-4.49.81-8.34,2.9-15.82,7.44-8.9,5.4-11,8.24-12.1,10.24a22.22,22.22,0,0,0-2.79,10.23,22.07,22.07,0,0,0,2.79,12.1C183.35,53.73,187,60,192.4,60c4.17,0,7.84-3.64,7.44-4.65s-5.25.94-6.51-.93c-1-1.44.53-4.68,2.79-6.51,3.57-2.9,8.67-2.06,10.23-1.86,13.12,1.67,34.75-9.12,35.36-17.68C242.29,20.29,224.37,9.08,210.08,11.66Z"/><path d="M226.08,104.94c-.47-.06-.65-3.23.07-6.16A15.46,15.46,0,0,1,229,93.09a19.38,19.38,0,0,1,6.64-5.68,15.18,15.18,0,0,1,8.53-1.9,16.62,16.62,0,0,1,8.53,3.79c.87.77,1.8,1.79,1.9,1.9A27.89,27.89,0,0,1,257.43,95c2.37,3.91,3.1,8.45,2.85,8.53s-.68-3.19-2.85-6.63c-.5-.81-6.68-10.32-16.11-9.48-5.86.51-9.61,4.71-10.43,5.68C226.48,98.32,226.77,105,226.08,104.94Z"/><path d="M196,103.17c.47-.07.65-3.23-.07-6.17a15.32,15.32,0,0,0-2.84-5.68,19.33,19.33,0,0,0-6.64-5.69,15.27,15.27,0,0,0-8.53-1.9,16.69,16.69,0,0,0-8.53,3.79c-.87.77-1.8,1.79-1.9,1.9a27.89,27.89,0,0,0-2.84,3.79c-2.37,3.91-3.1,8.45-2.85,8.53s.68-3.19,2.85-6.63c.5-.8,6.67-10.31,16.11-9.48a16.13,16.13,0,0,1,10.43,5.69C195.6,96.54,195.31,103.26,196,103.17Z"/><path class="cls-10" d="M184.75,99.25c-1.85.19-3.88,1.19-3.79,1.9s2.14,1.11,3.79.95c1.85-.19,3.88-1.18,3.79-1.9S186.4,99.09,184.75,99.25Z"/><path class="cls-10" d="M248.13,100.38c-1.85.18-3.88,1.18-3.79,1.89s2.15,1.12,3.79,1c1.86-.18,3.89-1.18,3.8-1.89S249.78,100.21,248.13,100.38Z"/><path class="cls-10" d="M174.72,103.44a1.66,1.66,0,0,0-1.92,1.6,1.53,1.53,0,0,0,1.34,1.33,1.65,1.65,0,0,0,1.76-1.72A1.49,1.49,0,0,0,174.72,103.44Z"/><path class="cls-10" d="M239.39,105.1a1.66,1.66,0,0,0-1.92,1.6,1.54,1.54,0,0,0,1.34,1.33,1.65,1.65,0,0,0,1.76-1.72A1.49,1.49,0,0,0,239.39,105.1Z"/><path class="cls-3" d="M224.39,70.76c-2.31,2.28-2.81,6.71-1,8.56.7.71,1.72,1,9,.14,6.16-.72,6.17-1,8.64-1.13,4.27-.18,7.49.57,11.47,1.5A63.32,63.32,0,0,1,263.13,83c1.87.77,3.29,1.48,3.73,1,.63-.72-1.1-3.49-2.93-5.36A17.85,17.85,0,0,0,258,74.8a62.87,62.87,0,0,0-10.12-4,52.23,52.23,0,0,0-17.12-1.93C227,69.13,225.52,69.65,224.39,70.76Z"/><path class="cls-3" d="M200.47,70.84c2.32,2.27,2.81,6.71,1,8.56-.71.7-1.73,1-9,.14-6.17-.73-6.18-1-8.65-1.13-4.27-.18-7.49.57-11.47,1.5A62.93,62.93,0,0,0,161.74,83c-1.87.77-3.3,1.49-3.74,1-.63-.71,1.1-3.48,2.94-5.36a17.88,17.88,0,0,1,5.93-3.79,61.06,61.06,0,0,1,10.12-4A52.27,52.27,0,0,1,194.11,69C197.86,69.2,199.34,69.73,200.47,70.84Z"/><path class="cls-12" d="M195.19,180a13,13,0,0,0,.93-2.27c.36-1.21.32-1.71.58-1.81.65-.25,1.22,2.38,3.14,4.08,2.2,2,4.33,1,4.65,2.28.43,1.62-3.12,3.44-2.79,5.69.21,1.42,1.75,1.26,2.79,3.41s.54,4.49.93,4.56.58-4,2.79-5.69c1.64-1.22,3.1-.08,3.73-1.14,1.08-1.82-2.81-5.85-1.86-8,1.19-2.69,8.73.89,10.23-2.28.65-1.35-.09-3.39,0-3.41s.24,3.87,1.86,6.83c1.81,3.29,4.14,2.07,5.59,4.55,1.75,3-.39,6.63-.93,13.66-.26,3.38,0,6.42.93,12.52,1.71,11.86,4.94,14.27,11.16,34.09,2.15,6.83,3,10.45,4.66,17.68a64,64,0,0,1,1.86,11.17c.29,4.73-.28,5.48,0,9.91.55,8.91,3,9.75,1.86,12.52-1.82,4.5-7.54,5.32-26.06,5.69-5,.09-6.47-.19-8.66-.15-1.29,0-1.61.12-3.07.23-4,.3-6.08.44-6.88-.29-1-.95-.41-2.45,0-7.44.3-3.69.4-8.32,0-8.38s-1.47,3.45-1.86,7.45c-.5,5,.52,7.3-.93,8.58s-3.44.48-5.58,0c-3.27-.75-14.52-1.28-23.69-2a68.12,68.12,0,0,0-7.95-.25,10.65,10.65,0,0,1-6.52-2.28c-3.75-3-3.24-9.59-2.79-13.33a104.16,104.16,0,0,1,10.24-33.5,264.2,264.2,0,0,0,19.54-46.5h0c2.1-17.54,5-22.29,7.44-22.75.9-.17,2.74.28,3.73-1.14h0A10.08,10.08,0,0,1,195.19,180Z"/><path class="cls-12" d="M201,187c-.58-2.13-4-2.91-10.94-4.47-13.07-2.95-25.59-5.77-33,1.6-6.88,6.86-8.05,21.23-2.22,25.9C165.71,218.72,203.21,195.24,201,187Z"/><path class="cls-12" d="M222.61,183.4c2-1,4.92,1,10.77,5.15,11.08,7.77,21.68,15.22,21.19,25.75-.45,9.8-10.41,20.43-17.85,19.24C222.8,231.31,214.9,187.33,222.61,183.4Z"/><path class="cls-13" d="M214.73,188.46c1.82,0,2.09-2.35,6.51-4.66,1.66-.86,2.5-1,2.79-1.86s-.75-2.37-2.79-5.58c-.31-.5-.53-.83-.93-.93-1.12-.29-1.92,1.69-3.72,2.79-2.82,1.74-5.36-.34-6.51.93C208.35,181.05,211.57,188.37,214.73,188.46Z"/><path class="cls-13" d="M201.05,187.56c-2,.41-2.63-2-7.31-3.26-1.63-.43-2.79-.46-3.11-1.27s.6-1.44,1.77-3.88.95-3.3,1.86-3.72c1.19-.56,2.8.39,3.72.93,2.05,1.21,2.12,2.39,3.72,2.79s2.21-.46,2.79,0C205.9,180.27,204.13,186.92,201.05,187.56Z"/><path class="cls-14" d="M203,288.17q.09-3,.12-6.32c.12-16.21-1.18-16.32-.93-29.59.3-16,2.33-23.73,1.86-35.29-.14-3.41.26-6.84,0-10.24-.28-3.66-.89-7.42.93-10.24.15-.23.3-.43.44-.61"/><ellipse class="cls-7" cx="202.17" cy="248.01" rx="1.4" ry="1.86"/><ellipse class="cls-7" cx="204.58" cy="196.07" rx="1.4" ry="1.86"/><ellipse class="cls-7" cx="202.17" cy="273.14" rx="1.4" ry="1.86"/><ellipse class="cls-7" cx="204.03" cy="221.96" rx="1.4" ry="1.86"/><path d="M135.32,23.43c2.4,1.05,4-1.81,7.19-1.79,8.53,0,19.38,20.19,20.69,32.37a14.38,14.38,0,0,0,3.6,8.1c1.44,1.47,4,2.71,5.39,1.79a3.06,3.06,0,0,0,.9-3.59c-1.15-2.5-6.19-1.75-6.29-2.7s4.9-3.72,8.09-1.8,3.45,7.79.9,10.79c-3,3.5-9.52,2.73-12.59,0-2.3-2-2.16-4.76-4.5-5.39-2.06-.57-4.54.91-4.49,1.79s2.82.6,5.39,2.7a9.17,9.17,0,0,1,3.2,5.44c.49,4.29-4.28,5.42-4.11,9.57.17,3.91,3.54,4.35,6.84,10.94,1.68,3.35,3.06,6.11,2.74,9.58-.52,5.52-5.13,10.42-8.21,13.67-2.43,2.59-3.78,3.38-4.1,5.48-.46,2.94,1.42,6.39,4.1,8.2,3.62,2.45,6.79.6,8.21,2.74s-.17,6.14-2.74,8.2-6.44,2.25-6.84,1.37c-.51-1.14,4.73-3.88,4.11-5.47-.42-1.08-2.93-.08-5.47-1.37-4.17-2.11-4.49-8.35-5.47-8.2s.86,7.42-2.74,10.94c-2.94,2.87-8.16,1.87-8.21,2.73s6.74.74,8.21,4.11c1,2.22-.47,5.77-2.74,6.84-2.65,1.24-5.68-1.29-6.83,0-1,1.11.58,3.77,0,4.1s-2.5-3.86-5.48-4.1c0,0-1.24-.11-6.83,4.1.62,3.51,2,7.85,5.47,9.57,3.79,1.89,8.12-.31,8.2,0s-8.68,5.74-16.41,2.74c-4.07-1.58-4.59-4.18-8.21-6.84-6-4.41-12.39-2.94-21.88-2.73-22.84.49-39.62-2.08-39.67-1.37s24,3.09,23.92,4.19c0,.63-8.07,1.46-26.08,3.6-2.75.33-6.75.84-7.19,2.7-.3,1.25,1.06,3,2.7,3.59,3.12,1.07,6.34-2.6,7.19-1.79.65.62-.45,3.62-2.7,5.39-3.15,2.49-8.19,2.32-11.69,0-2.6-1.72-5.45-5.36-4.5-8.09,1.3-3.68,8.73-3.44,8.78-5.49,0-1.17-2.37-2.24-4.1-2.73-6.25-1.77-9.68,3.06-15,1.36-3.58-1.13-6-4.51-5.47-5.47s3.33.56,8.21,0c2.75-.32,6.76-1.35,6.84-2.73.06-1.16-2.62-2.17-4.11-2.74C24.25,145,21.3,147.51,17.81,145c-3.07-2.22-4.17-6.62-4.1-9.58.1-3.91,2.27-5.9,1.37-6.84-1.15-1.19-6.26.36-8.21,4.11-2.1,4,2.28,9,1.37,9.57s-5.13-3-6.84-8.21c-.56-1.7-1.7-5.13,0-8.2,1.27-2.3,3.47-3.25,5.47-4.11,4.33-1.86,8-.56,8.21-1.36s-4.52-1.7-8.21-5.48c-2.56-2.61-5.26-7.63-4.1-12.31,1-4.22,5.55-9.37,8.44-10.81.37-.18,1.67-.78,1.8-1.8a2.32,2.32,0,0,0-.9-1.79c-1.23-1-2.46-.15-3.87-.64C5.73,86.67,4.12,82,5.5,79.34c.89-1.72,2.92-2.16,2.74-2.73-.26-.84-4.49.75-6.84-1.37A4.62,4.62,0,0,1,0,72.5c-.42-3.22,3.26-6.71,6.84-8.2s5.75-.46,7-2.19c.93-1.26.34-2.73-.2-6,0,0-.09-.55-.22-2,0,0-.42-4.09-.48-7.28C12.92,42.06,21.07,18.63,37.29,18c6.28-.23,12.81,3,12.59,4.49-.37,2.55-20.88,5.6-25.18-2.69C22.15,14.91,26,7.26,29.2,3.65A10,10,0,0,1,32.8,1c2.43-1,6.46-1.52,9,.9a5.74,5.74,0,0,1,1.8,3.6c.29,3.54-3.24,6.78-4.5,6.29s.08-4.29-1.8-5.39c-1.16-.69-3.21-.12-3.59.9-.7,1.86,3.65,6.8,7.19,6.29C44.71,13,44.64,7,50.64,2.75A13.4,13.4,0,0,1,58.5,0h.35A16.65,16.65,0,0,1,67,2.75c6.6,4.17,57.18-4.72,64.75,9C134.08,16,132,22,135.32,23.43Z"/><path class="cls-15" d="M143.28,297.31c1.11,1,3.21,3.64,1.46,23.32a250.84,250.84,0,0,1-5.1,32.78c-9.3,41.67-14.1,62.63-21.13,69.22-1.47,1.38-8.94,8.11-7.28,11.66,1,2,4.44,2,4.37,2.91-.1,1.26-7.13,1.57-11.66,1.46-5.62-.15-6.74-1-7.29-1.46-2.53-2.37-1.72-7-1.45-8.74,1.48-9.62-1.36-19.42-1.46-29.15-.22-20.55-1.95-17.6-1.46-30.6.44-11.61,1.76-12.35,2.92-29.14,1.2-17.44-.16-17.63,1.45-21.86C103.58,299.54,134.06,288.85,143.28,297.31Z"/><path class="cls-15" d="M51.39,292.53c-1.11.68-4,2.94-5.87,22.61a229.33,229.33,0,0,0-.59,33.9c2.45,56.12.83,62.83,6.88,71.23,1.21,1.67,7.23,9.67,4.93,12.83-1.32,1.82-4.75,1.14-4.85,2-.14,1.25,6.71,2.9,11.17,3.65,5.54.93,6.79.36,7.43,0,2.94-1.85,3-6.54,3.1-8.3.38-9.72,5-18.81,7-28.33,4.13-20.14,5.27-16.91,7.26-29.77,1.79-11.48.63-12.46,2.7-29.16,2.14-17.35,3.51-17.28,2.74-21.73C89.94,302.29,62.06,286,51.39,292.53Z"/><path class="cls-16" d="M98.11,156c-1.24,11,0,13.12,0,13.12,2.42,3.63,6.67,2.59,10.2,5.82,4.74,4.34,3.49,11.64,3.64,18.22.13,5.5,4,14.35,11.66,32.06,7.12,16.38,12,24.18,16,39.34.74,2.76,1.24,4.87,1.46,5.83,2.12,9.45,4,18,2.91,27.68-.52,4.54-2.36,20.59-13.84,27a15.61,15.61,0,0,1-2.48,1.15c-4.66,1.67-12.06,1.45-39.78-1.15-12.29-1.15-14.31-1.43-17.48-2.91-12.59-5.88-17.67-18.65-19-21.86C47,288.93,48.34,279.06,50,266.71c1.09-8,2-8.15,7.28-27.68,7.41-27.28,11.11-40.93,10.2-46.63-.77-4.85-2.94-13.45,1.46-17.49,2.54-2.33,5.5-1.51,7.28-4.37s-.29-5,0-11.65c.19-4.19.36-7.91,2.92-10.2,3.32-3,9.24-2.3,13.11,0A13.83,13.83,0,0,1,98.11,156Z"/><path class="cls-1" d="M71.76,173.58c.55.39-.41,2.06-1.45,5.82-2.59,9.32-1.16,15.2-1.46,20.4-.34,5.89-4.6,11.7-13.12,23.32-11.37,15.51-17.06,23.27-26.22,27.68-4.43,2.14-9.87,3.79-11.66,8.75-1.22,3.35.19,5.62-1.46,11.65-1.18,4.33-2,3.58-2.91,7.29-1.5,6.17.65,8.83-1.46,14.57-.75,2-1.57,4.25-2.91,4.37-2.72.24-6.59-8.19-7.29-16-1-11.22,4.57-20,5.83-21.85,2.68-4,3.76-3.73,7.28-8.75a57.08,57.08,0,0,0,7.29-14.57c2.71-7.5,8.61-15.2,20.4-30.6C53.12,191.92,69.75,172.14,71.76,173.58Z"/><path class="cls-1" d="M15.89,267.13c.83,0,1.44.85,2.37,2.24,1.67,2.46,3,4.39,2.51,6.84-.26,1.34-1.2,3.61-2.65,3.76-2.31.25-5.72-4.84-4.88-9.07C13.56,269.3,14.61,267.16,15.89,267.13Z"/><path class="cls-1" d="M28,91.32c-1.8-2.58-3.29-3.37-4.43-3.7-3.14-.91-6.4.81-8.22,2.66C12.53,93.16,12.58,97,12.6,99a14.38,14.38,0,0,0,3.91,10,13.09,13.09,0,0,0,8.27,3.89c1.7.12,3.41.23,4.86-.71C34.21,109.23,32.67,98,28,91.32Z"/><path class="cls-1" d="M26.73,103.73c.22,1.7.91,8.47,1,15.22,0,1.5,0,3.1-.09,5-.19,4-.49,5.42,0,8.27,1.39,8,6.73,14,7.85,15.17l.41.44A51.61,51.61,0,0,0,48.77,157c.34.17,2.1,1.07,4.53,2.06a80,80,0,0,0,11.08,3.45,90.28,90.28,0,0,0,22,1.84,105.08,105.08,0,0,0,13.77-.92s14.43-2,25.72-7.35c1.52-.72,2.91-1.44,4.17-2.14a61.16,61.16,0,0,0,6.85-4.28,26.08,26.08,0,0,0,8.26-11.94c1.23-3.73,1.2-6.75.92-11.94-.21-3.83-.38-5.59-.67-9.32-.14-1.78-.23-3.38-.28-4.85-.18-5.24,0-9.55,0-10.62.48-11,1.48-34.26-1.84-45.92-5.91-20.76-35.43-39.43-65.19-36.73-22.35,2-46.41,16.28-52.35,35.82C22,66.77,24.4,85.62,26.73,103.73Z"/><path class="cls-1" d="M144.35,94.21c1.66-2.68,3.12-3.54,4.23-3.93,3.09-1.08,6.44.47,8.36,2.22,3,2.72,3.14,6.54,3.22,8.56a14.36,14.36,0,0,1-3.38,10.21,13.07,13.07,0,0,1-8.05,4.33c-1.69.21-3.39.41-4.89-.45C139.11,112.42,140.06,101.11,144.35,94.21Z"/><path class="cls-16" d="M98.45,113.37c1.24-2.09-3.87-9.9-10.87-10.66-7.44-.81-14.31,6.64-13.41,8.86.47,1.18,3,.39,10.79.9C94.57,113.09,97.65,114.71,98.45,113.37Z"/><path class="cls-9" d="M100.91,130.81a20.08,20.08,0,0,1-4.67,3.11,20.94,20.94,0,0,1-13.62,1.49c-3.37-.85-6.14-2.6-9.34-4.6-1-.62-1.78-1.17-2.34-1.56"/><path class="cls-10" d="M66.16,98.17a13.41,13.41,0,0,0,0-4.73c-.58-2.92-2.13-4.78-3.87-6.89a19.45,19.45,0,0,0-6-5.16,19.78,19.78,0,0,0-4.73-1.72,16.91,16.91,0,0,0-6-.43,13.11,13.11,0,0,0-6.88,2.58,12.49,12.49,0,0,0-4.3,6.46,13.75,13.75,0,0,0,.43,8.17,21.08,21.08,0,0,0,6,9,15.1,15.1,0,0,0,2.58,2.15,14.79,14.79,0,0,0,7.75,2.15,16,16,0,0,0,7.31-1.29,12.7,12.7,0,0,0,5.6-4.3A13.09,13.09,0,0,0,66.16,98.17Z"/><path d="M107.44,15.34C95.31,9.55,74.59,6.54,65.17,18c-7,8.53-3.21,20.81-2.7,22.48,2.88,9.37,10.75,16.95,19.79,18.89,2.25.48,8.39,1.8,13.49-1.8,3.6-2.54,7-7.66,5.4-10.79-1.36-2.59-5.91-3.35-6.3-2.7-.18.3.64.72.9,1.8.48,2-1.18,5-3.6,5.39a4.24,4.24,0,0,1-4.49-2.69c-.89-3.54,5.78-10.62,12.59-9.9a11.08,11.08,0,0,1,8.09,5.4c2.76,4.73-.42,8,1.8,11.69,2.56,4.21,8.15,1.88,17.09,5.4,3.73,1.46,13,5.11,16.18,13.49,2.43,6.38-3.74,9.44-2.69,18.88.74,6.71,4.4,12.91,6.29,12.59s1.33-7.26,3.6-20.68c1.86-11,3.2-11.88,3.6-16.19,1.4-15.29-14.47-28-33.28-44.07C114.81,20,111.67,17.36,107.44,15.34Z"/><path d="M63.37,14.44c4.22,1.78,7,7.44,6.3,11.69-.91,5.66-7.93,9-11.69,10.79-4.43,2.11-5.12,1.25-10.79,3.6-5.9,2.44-12.14,5-12.59,9s5.7,5.33,7.19,12.6c.22,1.09,1.33,6.51-1.8,9-2.62,2.07-7.59,1.59-9-.9a4.33,4.33,0,0,1,0-3.6c1.08-2.36,4.13-3.17,4.49-2.7s-2.34,2.44-1.79,3.6,3.45,1.26,4.49,0c1.47-1.77-.53-6.92-2.7-7.19-3-.38-8,8.39-9,17.08C25,91.15,34.07,100.64,31,103.47c-1.62,1.49-6.17-.07-9-2.69-4.22-3.92-4.55-10.16-3.59-20.69C20,62.84,20.76,54.21,24.7,45.92,33.54,27.34,53.33,10.2,63.37,14.44Z"/><path d="M67,96.88A6.13,6.13,0,0,1,66.59,99c-.17,0,0-1.81-.43-3.87a16.79,16.79,0,0,0-1.72-4.73,18.32,18.32,0,0,0-5.17-6.89,16.84,16.84,0,0,0-6.45-3,16.06,16.06,0,0,0-6.89-.43,15,15,0,0,0-5.59,2.15,11.16,11.16,0,0,0-3.87,3.87,11,11,0,0,0-1.29,4.31A16.23,16.23,0,0,0,36,98.17c2,5.33,6.25,7.92,6,8.18s-3.22-1.57-5.59-4.74a17.11,17.11,0,0,1-3-6.45,14.27,14.27,0,0,1,0-7.74A13.48,13.48,0,0,1,36,82.68,14.9,14.9,0,0,1,43.78,78a17.18,17.18,0,0,1,6.46-.43,17.52,17.52,0,0,1,7.74,3,20.85,20.85,0,0,1,6.46,6.89C65.37,89,67.38,92.6,67,96.88Z"/><path d="M106.54,72c-.61,1.18-1,3.26,0,4.49,2.24,2.74,8.69-1.91,18.89-1.79,8.51.09,13.13,3.43,13.49,2.69.43-.9-10.34-10.18-22.94-9C113.48,68.64,108.23,68.72,106.54,72Z"/><path class="cls-10" d="M104.17,99.08a13.48,13.48,0,0,1,0-4.74c.58-2.92,2.13-4.78,3.88-6.88a19.28,19.28,0,0,1,6-5.17,19.78,19.78,0,0,1,4.73-1.72,17.15,17.15,0,0,1,6-.43,13.11,13.11,0,0,1,6.88,2.58,12.49,12.49,0,0,1,4.3,6.46,13.74,13.74,0,0,1-.43,8.17,21,21,0,0,1-6,9,15.1,15.1,0,0,1-2.58,2.15,14.67,14.67,0,0,1-7.75,2.15,16,16,0,0,1-7.31-1.29,12.7,12.7,0,0,1-5.6-4.3A13.1,13.1,0,0,1,104.17,99.08Z"/><path d="M65.51,71.92c.61,1.18,1,3.25,0,4.49-2.24,2.74-8.68-1.91-18.88-1.8-8.52.1-13.14,3.44-13.49,2.7-.44-.9,10.33-10.18,22.93-9C58.57,68.56,63.82,68.64,65.51,71.92Z"/><path class="cls-2" d="M72,172.1c-2.2-1.43-6.83,1-20.37,13-11,9.66-16.47,14.49-17.76,17.76-5.15,13,1.9,31.59,9.71,32.74,5.94.88,11.76-9.89,23.41-31.43,0,0,8.78-16.25,6.32-29.62A3.48,3.48,0,0,0,72,172.1Z"/><path d="M45.58,432.76c-.07,1.07,1.82,1.87,7.36,3.64,6.31,2,9.66,2.83,14,3,3.56.1,4.43-.36,5.08-1,2-2,1.18-5.05,2.52-11.93,1.46-7.47,3.59-9.71,2.53-11.92-.35-.73-1.19-1.75-7.77-1.65-8.23.13-9.74,1.76-14.83,1-4.42-.65-7.41-2.47-7.77-1.65s2.3,2.46,5,7.28c1.32,2.4,2.55,4.71,1.84,6.62-.23.63-.58.93-2.05,2l-.44.31-1.13.79h0l-.32.24-.29.21C45.94,432,45.62,432.33,45.58,432.76Z"/><path d="M119.85,437.43c-.13,1.06-2.13,1.5-7.9,2.23-6.56.84-10,1-14.29.37-3.52-.54-4.29-1.16-4.81-1.9-1.63-2.33-.25-5.18-.32-12.19-.07-7.61-1.76-10.2-.32-12.18.48-.66,1.5-1.5,7.94-.21,8.07,1.62,9.26,3.49,14.4,3.69,4.47.17,7.74-1.07,7.94-.2s-2.71,2-6.19,6.25c-1.74,2.12-3.37,4.17-3,6.17.12.67.4,1,1.66,2.32.11.12.23.26.37.39l1,1h0l.27.29a3.07,3.07,0,0,1,.25.26C119.64,436.59,119.89,437,119.85,437.43Z"/><path class="cls-7" d="M146.11,286.94c-6.41-9.14-22.79-1.18-53.06-1.8-25.72-.53-43.26-6.89-47.66.9-.38.66-.45,1-.9,6.29-1.58,18.1-1.8,23.39-1.8,23.39-.59,13.86-.88,20.79-.9,24.28-.09,19.45,1.86,18.58,1.8,35.07,0,0-1.9,24.47,0,36a8.79,8.79,0,0,0,2.7,5.39c2,1.7,4.43,1.73,6.29,1.8,12.48.48,13.88,3.38,22.48,1.8,3.44-.63,5.15-1,6.3-1.8,5.51-4.09,1.59-12.46,4.5-28.78,1.49-8.39,2.22-8.3,3.59-17.09.89-5.63,1.09-8.87,1.8-17.08,1.06-12.21,2.51-27,2.7-27s0,13.53-1.8,30.57c-1.65,16.18-.85,32.73-4.49,48.57-.61,2.62-2.61,10.92.89,13.49.67.49,1.48.73,5.4.9,4.55.19,7.23,0,9.89,0a99.45,99.45,0,0,1,14.39.9c5.71.72,5.31,1.15,6.3.9,6.53-1.67,7.21-16.07,11.69-40.47,1.63-8.88,1-3.78,4.5-21.59,3.42-17.23,7.38-38.83,7.19-63.85C147.86,291,147.55,289,146.11,286.94Z"/><path class="cls-17" d="M129.92,412.84c2.34,2.9-1.15,11.43-7.19,15.29-1.59,1-3.29,1.67-22.48.9-8.33-.33-10.86-.57-12.59-2.7-2.18-2.67-2-7-1.8-11.69.13-3.12.19-4.69.9-5.39,3.12-3.15,10.94,4.5,23.38,5.39C121.55,415.46,127.58,409.93,129.92,412.84Z"/><path class="cls-17" d="M85,409c2.33,2.9-1.16,11.42-7.2,15.29-1.59,1-3.28,1.67-22.48.9-8.33-.33-10.86-.57-12.59-2.7-2.18-2.67-2-7-1.8-11.69.13-3.13.19-4.69.9-5.39,3.12-3.15,10.94,4.5,23.38,5.39C76.57,411.61,82.6,406.08,85,409Z"/><path class="cls-2" d="M101.75,168.55c-1.45.3-3.07,1.95-8.12,3.44-3.53,1-6.1,1.89-9.06,1.29-5.95-1.18-7.47-5.73-10.34-5.17-3.69.73-5,8.95-5.18,10.35-2.78,17.88-8,35.3-11.64,53-4.07,19.83-6.76,16.93-11.64,40.09-5.5,26.16-5.12,33.4-1.29,38.81,4.84,6.84,12.94,8.8,22.2,11,11.28,2.74,13,.17,37.77.9,12.87.38,16.52,1.2,25.18,0,9.52-1.31,16.58-2.28,20.68-6.29,8.46-8.26,1.61-26.7-7.53-53.51C128.7,221.25,111.39,166.55,101.75,168.55Z"/><path d="M103.31,97.78a6.27,6.27,0,0,0,.43,2.16c.17,0,.05-1.82.43-3.88a16.79,16.79,0,0,1,1.72-4.73,18.22,18.22,0,0,1,5.17-6.88,16.75,16.75,0,0,1,6.45-3A16.06,16.06,0,0,1,124.4,81,14.88,14.88,0,0,1,130,83.15,11.11,11.11,0,0,1,133.86,87a10.86,10.86,0,0,1,1.29,4.3,16.14,16.14,0,0,1-.86,7.75c-2,5.32-6.25,7.92-6,8.17s3.22-1.57,5.59-4.73a17.2,17.2,0,0,0,3-6.46,14.26,14.26,0,0,0,0-7.74,13.48,13.48,0,0,0-2.58-4.74,14.9,14.9,0,0,0-7.74-4.73,17,17,0,0,0-14.2,2.58,20.85,20.85,0,0,0-6.46,6.89C105,89.93,103,93.5,103.31,97.78Z"/><path class="cls-18" d="M46.54,82.46a11.74,11.74,0,0,1,6.88,0A10.61,10.61,0,0,1,58.15,85a10.87,10.87,0,0,1,2.59,4.31,13.09,13.09,0,0,1,.86,7.31,11.66,11.66,0,0,1-3,6,11.83,11.83,0,0,1-8.6,3.44,11.72,11.72,0,0,1-8.61-4.74,12.88,12.88,0,0,1-2.15-9,11.11,11.11,0,0,1,2.15-6.46A10.43,10.43,0,0,1,46.54,82.46Z"/><path class="cls-19" d="M47.5,84.32a9.56,9.56,0,0,1,5.63,0A8.61,8.61,0,0,1,57,86.43,8.92,8.92,0,0,1,59.11,90a10.71,10.71,0,0,1,.71,6,9.47,9.47,0,0,1-2.47,4.93,9.13,9.13,0,0,1-14.08-1,10.57,10.57,0,0,1-1.76-7.4,9.14,9.14,0,0,1,1.76-5.28A8.49,8.49,0,0,1,47.5,84.32Z"/><path class="cls-10" d="M58.72,93.36a3.69,3.69,0,0,1,1.72,2.15,4,4,0,0,1-.86,3.87A3.58,3.58,0,0,1,57,100.67,3.77,3.77,0,0,1,54,99a4.07,4.07,0,0,1-.43-3.44,3.74,3.74,0,0,1,1.72-2.15A3.62,3.62,0,0,1,58.72,93.36Z"/><path class="cls-10" d="M42.46,87a1.4,1.4,0,0,1,.63.79,1.45,1.45,0,0,1-.32,1.4,1.31,1.31,0,0,1-.93.47,1.4,1.4,0,0,1-1.1-.62,1.54,1.54,0,0,1-.16-1.25,1.4,1.4,0,0,1,.63-.79A1.32,1.32,0,0,1,42.46,87Z"/><path class="cls-18" d="M115.79,83.26a11.74,11.74,0,0,1,6.88,0,10.62,10.62,0,0,1,4.74,2.59,10.92,10.92,0,0,1,2.58,4.3,13.09,13.09,0,0,1,.86,7.31,11.62,11.62,0,0,1-3,6,11.17,11.17,0,0,1-17.21-1.29,12.88,12.88,0,0,1-2.16-9,11.16,11.16,0,0,1,2.16-6.45A10.34,10.34,0,0,1,115.79,83.26Z"/><path class="cls-19" d="M115.75,85.12a9.56,9.56,0,0,1,5.63,0,8.61,8.61,0,0,1,3.87,2.11,9.08,9.08,0,0,1,2.12,3.52,10.75,10.75,0,0,1,.7,6,9.44,9.44,0,0,1-2.46,4.92,9.66,9.66,0,0,1-7,2.82,9.56,9.56,0,0,1-7-3.87,10.49,10.49,0,0,1-1.76-7.39,9,9,0,0,1,1.76-5.28A8.51,8.51,0,0,1,115.75,85.12Z"/><path class="cls-10" d="M128,94.16a3.74,3.74,0,0,1,1.72,2.15,4,4,0,0,1-.86,3.87,3.64,3.64,0,0,1-2.59,1.3,3.77,3.77,0,0,1-3-1.73,4.11,4.11,0,0,1-.43-3.44,3.81,3.81,0,0,1,1.72-2.15A3.64,3.64,0,0,1,128,94.16Z"/><path class="cls-10" d="M112.71,88.77a1.36,1.36,0,0,1,.63.79A1.49,1.49,0,0,1,113,91a1.28,1.28,0,0,1-.94.46,1.35,1.35,0,0,1-1.1-.62,1.48,1.48,0,0,1-.15-1.25,1.29,1.29,0,0,1,1.87-.79Z"/></g></g></svg>